<svg width="20" height="20" viewBox="0 0 20 20" fill="none" xmlns="http://www.w3.org/2000/svg">
<path d="M4.78082 12.2207C4.63865 12.0882 4.4506 12.0161 4.2563 12.0195C4.062 12.0229 3.87661 12.1016 3.7392 12.239C3.60179 12.3765 3.52308 12.5618 3.51965 12.7561C3.51622 12.9504 3.58834 13.1385 3.72082 13.2807L8.22082 17.7807C8.36145 17.9211 8.55207 18 8.75082 18C8.94957 18 9.1402 17.9211 9.28082 17.7807L13.7808 13.2807C13.9133 13.1385 13.9854 12.9504 13.982 12.7561C13.9786 12.5618 13.8999 12.3765 13.7624 12.239C13.625 12.1016 13.4396 12.0229 13.2453 12.0195C13.051 12.0161 12.863 12.0882 12.7208 12.2207L9.50082 15.4407V9.25066C9.50082 7.72567 10.1066 6.26313 11.185 5.1848C12.2633 4.10646 13.7258 3.50066 15.2508 3.50066C15.4497 3.50066 15.6405 3.42164 15.7812 3.28099C15.9218 3.14034 16.0008 2.94957 16.0008 2.75066C16.0008 2.55175 15.9218 2.36098 15.7812 2.22033C15.6405 2.07968 15.4497 2.00066 15.2508 2.00066C13.328 2.00066 11.4839 2.7645 10.1243 4.12414C8.76466 5.48377 8.00082 7.32784 8.00082 9.25066V15.4407L4.78082 12.2207Z" fill="black"/>
</svg>
