<svg width="20" height="20" viewBox="0 0 20 20" fill="none" xmlns="http://www.w3.org/2000/svg">
<path d="M15.2192 12.5896C15.3614 12.4634 15.5494 12.3948 15.7437 12.398C15.938 12.4013 16.1234 12.4762 16.2608 12.6071C16.3982 12.738 16.4769 12.9145 16.4804 13.0996C16.4838 13.2846 16.4117 13.4637 16.2792 13.5991L11.7792 17.8849C11.6386 18.0186 11.4479 18.0938 11.2492 18.0938C11.0504 18.0938 10.8598 18.0186 10.7192 17.8849L6.21918 13.5991C6.0867 13.4637 6.01457 13.2846 6.018 13.0996C6.02143 12.9145 6.10014 12.738 6.23756 12.6071C6.37497 12.4762 6.56035 12.4013 6.75465 12.398C6.94896 12.3948 7.137 12.4634 7.27918 12.5896L10.4992 15.6563V9.76105C10.4992 8.30867 9.89337 6.91578 8.81504 5.88879C7.73671 4.86181 6.27417 4.28485 4.74918 4.28485C4.55026 4.28485 4.3595 4.2096 4.21885 4.07565C4.07819 3.94169 3.99918 3.76001 3.99918 3.57057C3.99918 3.38113 4.07819 3.19945 4.21885 3.06549C4.3595 2.93154 4.55026 2.85628 4.74918 2.85628C6.672 2.85628 8.51606 3.58375 9.8757 4.87864C11.2353 6.17354 11.9992 7.92979 11.9992 9.76105V15.6563L15.2192 12.5896Z" fill="black"/>
</svg>
