<svg width="572" height="497" viewBox="0 0 572 497" fill="none" xmlns="http://www.w3.org/2000/svg">
<g clip-path="url(#clip0_1753_13965)">
<path d="M529.603 460.617L545.011 455.724C546.931 447.445 546.804 438.823 544.64 430.605C538.45 444.384 520.288 447.76 509.941 458.757C506.74 462.212 504.356 466.344 502.967 470.846C501.578 475.348 501.218 480.106 501.916 484.766L498.674 495.775C506.245 495.127 513.586 492.844 520.191 489.083C526.796 485.322 532.508 480.172 536.933 473.988C539.381 470.494 541.38 466.706 542.883 462.712C536.312 462.053 529.603 460.617 529.603 460.617Z" fill="#F2F2F2"/>
<path d="M513.137 440.26L524.748 429.002C522.779 420.735 518.823 413.074 513.225 406.685C513.823 421.781 499.072 432.911 494.71 447.374C493.384 451.896 493.091 456.658 493.854 461.308C494.616 465.958 496.414 470.376 499.114 474.236L501.117 485.537C507.605 481.577 513.158 476.256 517.394 469.941C521.631 463.625 524.449 456.466 525.655 448.955C526.289 444.735 526.391 440.452 525.957 436.206C519.782 438.551 513.137 440.26 513.137 440.26Z" fill="#F2F2F2"/>
<path d="M435.952 32.9991H1.6888C1.23712 32.9895 0.807172 32.8032 0.491113 32.48C0.175054 32.1568 -0.00195312 31.7226 -0.00195312 31.2703C-0.00195312 30.818 0.175054 30.3838 0.491113 30.0606C0.807172 29.7374 1.23712 29.5511 1.6888 29.5415H435.952C436.404 29.5511 436.834 29.7374 437.15 30.0606C437.466 30.3838 437.643 30.818 437.643 31.2703C437.643 31.7226 437.466 32.1568 437.15 32.48C436.834 32.8032 436.404 32.9895 435.952 32.9991Z" fill="#3F3D56"/>
<path d="M31.2496 20.7147C36.8391 20.7147 41.3703 16.0776 41.3703 10.3574C41.3703 4.63715 36.8391 0 31.2496 0C25.6601 0 21.1289 4.63715 21.1289 10.3574C21.1289 16.0776 25.6601 20.7147 31.2496 20.7147Z" fill="#3F3D56"/>
<path d="M66.2125 20.7147C71.802 20.7147 76.3332 16.0776 76.3332 10.3574C76.3332 4.63715 71.802 0 66.2125 0C60.623 0 56.0918 4.63715 56.0918 10.3574C56.0918 16.0776 60.623 20.7147 66.2125 20.7147Z" fill="#3F3D56"/>
<path d="M101.175 20.7147C106.765 20.7147 111.296 16.0776 111.296 10.3574C111.296 4.63715 106.765 0 101.175 0C95.5859 0 91.0547 4.63715 91.0547 10.3574C91.0547 16.0776 95.5859 20.7147 101.175 20.7147Z" fill="#3F3D56"/>
<path d="M414.902 2.56738H390.066C389.574 2.5772 389.105 2.77984 388.76 3.13181C388.416 3.48378 388.223 3.95701 388.223 4.44989C388.223 4.94277 388.416 5.416 388.76 5.76797C389.105 6.11994 389.574 6.32259 390.066 6.3324H414.902C415.394 6.32259 415.863 6.11994 416.207 5.76797C416.552 5.416 416.745 4.94277 416.745 4.44989C416.745 3.95701 416.552 3.48378 416.207 3.13181C415.863 2.77984 415.394 2.5772 414.902 2.56738Z" fill="#3F3D56"/>
<path d="M414.902 9.63379H390.066C389.574 9.64354 389.105 9.84617 388.76 10.1981C388.416 10.5501 388.223 11.0234 388.223 11.5163C388.223 12.0092 388.416 12.4825 388.76 12.8345C389.105 13.1864 389.574 13.3891 390.066 13.3988H414.902C415.394 13.3891 415.863 13.1864 416.208 12.8345C416.552 12.4825 416.745 12.0092 416.745 11.5163C416.745 11.0234 416.552 10.5501 416.208 10.1981C415.863 9.84617 415.394 9.64354 414.902 9.63379Z" fill="#3F3D56"/>
<path d="M414.902 16.6904H390.066C389.574 16.7002 389.105 16.9028 388.76 17.2548C388.416 17.6067 388.223 18.08 388.223 18.5729C388.223 19.0659 388.416 19.5391 388.76 19.8911C389.105 20.2431 389.574 20.4457 390.066 20.4554H414.902C415.394 20.4457 415.863 20.2431 416.208 19.8911C416.552 19.5391 416.745 19.0659 416.745 18.5729C416.745 18.08 416.552 17.6067 416.208 17.2548C415.863 16.9028 415.394 16.7002 414.902 16.6904Z" fill="#3F3D56"/>
<path d="M33.6412 103.239C40.5515 103.239 46.1534 97.6309 46.1534 90.7132C46.1534 83.7954 40.5515 78.1875 33.6412 78.1875C26.7308 78.1875 21.1289 83.7954 21.1289 90.7132C21.1289 97.6309 26.7308 103.239 33.6412 103.239Z" fill="#E6E7E8"/>
<path d="M352.267 118.449H24.8548C23.8666 118.449 22.9189 118.056 22.2202 117.357C21.5214 116.657 21.1289 115.708 21.1289 114.719C21.1289 113.73 21.5214 112.781 22.2202 112.082C22.9189 111.382 23.8666 110.989 24.8548 110.989H352.267C353.256 110.989 354.203 111.382 354.902 112.082C355.601 112.781 355.993 113.73 355.993 114.719C355.993 115.708 355.601 116.657 354.902 117.357C354.203 118.056 353.256 118.449 352.267 118.449Z" fill="#E6E7E8"/>
<path d="M266.398 133.188H24.855C23.8668 133.188 22.919 132.795 22.2203 132.095C21.5215 131.396 21.1289 130.447 21.1289 129.458C21.1289 128.469 21.5215 127.52 22.2203 126.82C22.919 126.121 23.8668 125.728 24.855 125.728H266.398C267.386 125.728 268.334 126.121 269.033 126.82C269.731 127.52 270.124 128.469 270.124 129.458C270.124 130.447 269.731 131.396 269.033 132.095C268.334 132.795 267.386 133.188 266.398 133.188Z" fill="#E6E7E8"/>
<path d="M33.6412 298.745C40.5515 298.745 46.1534 293.137 46.1534 286.22C46.1534 279.302 40.5515 273.694 33.6412 273.694C26.7308 273.694 21.1289 279.302 21.1289 286.22C21.1289 293.137 26.7308 298.745 33.6412 298.745Z" fill="#E6E7E8"/>
<path d="M352.268 313.956H24.8549C24.3651 313.957 23.88 313.861 23.4272 313.674C22.9745 313.487 22.5631 313.212 22.2164 312.866C21.8698 312.519 21.5949 312.108 21.4072 311.655C21.2196 311.202 21.123 310.716 21.123 310.226C21.123 309.736 21.2196 309.25 21.4072 308.797C21.5949 308.344 21.8698 307.933 22.2164 307.586C22.5631 307.24 22.9745 306.965 23.4272 306.778C23.88 306.591 24.3651 306.495 24.8549 306.496H352.268C353.306 306.554 354.285 306.998 355.012 307.742C355.74 308.485 356.164 309.474 356.2 310.514C356.17 310.999 356.044 311.473 355.829 311.909C355.614 312.345 355.316 312.735 354.95 313.055C354.584 313.375 354.159 313.619 353.699 313.774C353.238 313.928 352.752 313.99 352.268 313.956Z" fill="#E6E7E8"/>
<path d="M266.398 328.695H24.855C23.8668 328.695 22.919 328.302 22.2203 327.602C21.5215 326.902 21.1289 325.954 21.1289 324.964C21.1289 323.975 21.5215 323.026 22.2203 322.327C22.919 321.627 23.8668 321.234 24.855 321.234H266.398C267.386 321.234 268.334 321.627 269.033 322.327C269.731 323.026 270.124 323.975 270.124 324.964C270.124 325.954 269.731 326.902 269.033 327.602C268.334 328.302 267.386 328.695 266.398 328.695Z" fill="#E6E7E8"/>
<path d="M33.6412 193.623C40.5515 193.623 46.1534 188.015 46.1534 181.097C46.1534 174.179 40.5515 168.571 33.6412 168.571C26.7308 168.571 21.1289 174.179 21.1289 181.097C21.1289 188.015 26.7308 193.623 33.6412 193.623Z" fill="#E6E7E8"/>
<path d="M352.267 208.833H24.8548C23.8666 208.833 22.9189 208.44 22.2202 207.741C21.5214 207.041 21.1289 206.092 21.1289 205.103C21.1289 204.114 21.5214 203.165 22.2202 202.466C22.9189 201.766 23.8666 201.373 24.8548 201.373H352.267C353.256 201.373 354.203 201.766 354.902 202.466C355.601 203.165 355.993 204.114 355.993 205.103C355.993 206.092 355.601 207.041 354.902 207.741C354.203 208.44 353.256 208.833 352.267 208.833Z" fill="#E6E7E8"/>
<path d="M306.673 223.572H24.855C23.8668 223.572 22.919 223.179 22.2203 222.479C21.5215 221.78 21.1289 220.831 21.1289 219.842C21.1289 218.853 21.5215 217.904 22.2203 217.204C22.919 216.505 23.8668 216.112 24.855 216.112H306.673C307.661 216.112 308.609 216.505 309.308 217.204C310.007 217.904 310.399 218.853 310.399 219.842C310.399 220.831 310.007 221.78 309.308 222.479C308.609 223.179 307.661 223.572 306.673 223.572Z" fill="#E6E7E8"/>
<path d="M287.545 238.31H24.855C23.8668 238.31 22.919 237.918 22.2203 237.218C21.5215 236.518 21.1289 235.57 21.1289 234.58C21.1289 233.591 21.5215 232.642 22.2203 231.943C22.919 231.243 23.8668 230.85 24.855 230.85H287.545C288.533 230.85 289.481 231.243 290.18 231.943C290.879 232.642 291.271 233.591 291.271 234.58C291.271 235.57 290.879 236.518 290.18 237.218C289.481 237.918 288.533 238.31 287.545 238.31Z" fill="#E6E7E8"/>
<path d="M292.982 403.21C344.157 403.21 385.642 361.68 385.642 310.45C385.642 259.221 344.157 217.691 292.982 217.691C241.807 217.691 200.322 259.221 200.322 310.45C200.322 361.68 241.807 403.21 292.982 403.21Z" fill="#1A87EC"/>
<path d="M292.854 342.814C300.165 342.814 306.091 336.881 306.091 329.563C306.091 322.244 300.165 316.311 292.854 316.311C285.544 316.311 279.617 322.244 279.617 329.563C279.617 336.881 285.544 342.814 292.854 342.814Z" fill="#3F3D56"/>
<path d="M292.854 335.679C296.228 335.679 298.963 332.94 298.963 329.563C298.963 326.185 296.228 323.447 292.854 323.447C289.479 323.447 286.744 326.185 286.744 329.563C286.744 332.94 289.479 335.679 292.854 335.679Z" fill="#1A87EC"/>
<path d="M317.426 359.06H268.537C263.696 359.055 259.055 357.128 255.632 353.701C252.208 350.274 250.283 345.628 250.277 340.782V318.343C250.283 313.497 252.208 308.851 255.631 305.424C259.055 301.997 263.696 300.069 268.537 300.064H317.426C322.267 300.07 326.908 301.997 330.331 305.424C333.754 308.851 335.679 313.497 335.685 318.343V340.782C335.679 345.628 333.754 350.274 330.331 353.701C326.908 357.128 322.267 359.055 317.426 359.06ZM268.537 301.978C264.203 301.983 260.047 303.709 256.983 306.777C253.918 309.844 252.194 314.004 252.189 318.343V340.782C252.194 345.121 253.918 349.281 256.983 352.348C260.047 355.416 264.203 357.142 268.537 357.147H317.426C321.76 357.142 325.915 355.416 328.979 352.348C332.044 349.281 333.768 345.121 333.773 340.782V318.343C333.768 314.004 332.044 309.845 328.98 306.777C325.915 303.709 321.76 301.983 317.426 301.978L268.537 301.978Z" fill="white"/>
<path d="M265.642 346.88H309.036C311.288 346.88 313.518 346.436 315.599 345.573C317.68 344.71 319.571 343.445 321.163 341.851C322.756 340.257 324.019 338.364 324.881 336.281C325.743 334.198 326.187 331.965 326.187 329.71V310.932C326.184 308.849 325.8 306.785 325.056 304.84C327.173 306.436 328.89 308.502 330.073 310.876C331.256 313.25 331.872 315.867 331.872 318.52V337.298C331.872 339.553 331.429 341.786 330.567 343.869C329.705 345.952 328.441 347.845 326.849 349.439C325.256 351.034 323.365 352.298 321.284 353.161C319.203 354.024 316.973 354.468 314.721 354.468H271.327C267.849 354.466 264.454 353.406 261.593 351.427C258.732 349.448 256.539 346.645 255.307 343.39C258.277 345.654 261.908 346.88 265.642 346.88Z" fill="#3F3D56"/>
<path d="M398.528 484.729L387.866 484.728L382.793 443.553L398.531 443.554L398.528 484.729Z" fill="#FFB8B8"/>
<path d="M398.904 495.864L366.113 495.863V495.447C366.114 492.059 367.458 488.809 369.852 486.413C372.245 484.017 375.491 482.671 378.876 482.671L384.867 478.122L396.042 482.672L398.904 482.672L398.904 495.864Z" fill="#2F2E41"/>
<path d="M473.977 484.729L484.64 484.728L489.713 443.553L473.975 443.554L473.977 484.729Z" fill="#FFB8B8"/>
<path d="M473.6 495.864L506.391 495.863V495.447C506.39 492.059 505.046 488.809 502.652 486.413C500.259 484.017 497.013 482.671 493.628 482.671L487.637 478.122L476.462 482.672L473.6 482.672L473.6 495.864Z" fill="#2F2E41"/>
<path d="M382.323 413.297C382.481 410.948 383.733 397.955 383.733 397.955L386.732 370.4L392.018 297.359L392.363 292.578L420.053 287.256L438.978 278.174L461.472 285.372L478.987 291.947C478.987 291.947 479.017 294.762 479.152 298.162C479.332 302.614 479.647 308.07 480.397 309.489C481.649 311.996 481.334 325.454 481.334 325.454C481.334 325.454 482.579 352.836 484.146 355.839C485.713 358.841 486.028 365.094 485.555 366.347C485.083 367.601 487.122 400.485 487.122 400.485C487.122 400.485 492.357 458.677 489.073 467.451C485.789 476.226 473.379 470.478 473.379 470.478C473.379 470.478 473.978 468.136 470.379 467.033C466.78 465.929 455.818 383.416 455.818 383.416C455.818 383.416 453.779 366.497 451.904 361.648C450.03 356.799 448.305 343.176 448.305 343.176C448.305 343.176 436.728 320.628 436.578 315.614C436.578 315.614 435.064 310.923 433.632 316.087C432.2 321.251 427.978 333.621 427.978 333.621L423.862 348.813L419.018 371.511L415.884 390.622C415.884 390.622 411.19 415.984 410.441 417.08C409.691 418.176 410.441 441.347 410.441 441.347C410.441 441.347 406.812 461.08 401.683 464.526C396.554 467.971 382.967 464.581 382.967 464.581C382.967 464.581 382.166 415.647 382.323 413.297Z" fill="#2F2E41"/>
<path d="M394.136 225.961L400.292 244.524L392.696 253.576L396.041 257.022L393.574 261.892L387.141 312.949L422.411 326.339L434.288 311.432L443.653 326.339L484.465 316.356L474.057 251.249V246.993L471.118 238.774V221.375L478.878 169.583L455.717 161.462L444.642 152.688L441.059 165.027L425.8 162.311L425.403 153.04L413.728 164.082L403.898 166.889L392.127 169.583L390.627 173.337L393.626 172.586L393.139 221.413L394.136 225.961Z" fill="#2F2E41"/>
<path d="M383.594 293.879L389.518 236.48L391.081 212.857L374.501 209.856C374.501 209.856 375.158 226.747 372.986 236.278C370.843 245.682 372.702 292.619 372.834 293.874C371.616 294.964 370.758 296.398 370.373 297.987C369.987 299.576 370.092 301.245 370.675 302.773C371.257 304.301 372.289 305.615 373.634 306.543C374.979 307.471 376.574 307.968 378.207 307.969C379.841 307.97 381.436 307.474 382.782 306.548C384.128 305.621 385.161 304.307 385.745 302.78C386.329 301.253 386.436 299.584 386.052 297.995C385.668 296.405 384.811 294.97 383.594 293.879Z" fill="#FFB8B8"/>
<path d="M367.421 248.374L372.032 249.328L387.853 252.608L388.73 252.788L390.597 245.357L392.764 243.045L396.888 221.413L397.105 220.287L403.336 206.956L407.647 166.889L391.616 169.771C391.534 169.854 391.459 169.944 391.384 170.034C389.082 172.646 387.44 176.279 384.756 179.934C376.021 191.831 369.318 220.737 369.58 236.575C369.588 236.83 369.325 237.108 369.01 237.393C367.524 238.761 366.554 240.6 366.265 242.601C365.975 244.601 366.383 246.64 367.421 248.374Z" fill="#2F2E41"/>
<path d="M486.661 293.879L480.737 236.48L479.174 212.857L495.754 209.856C495.754 209.856 495.097 226.747 497.269 236.278C499.412 245.682 497.553 292.619 497.421 293.874C498.638 294.964 499.497 296.398 499.882 297.987C500.268 299.576 500.163 301.245 499.58 302.773C498.998 304.301 497.966 305.615 496.621 306.543C495.276 307.471 493.681 307.968 492.048 307.969C490.414 307.97 488.819 307.474 487.473 306.547C486.127 305.621 485.094 304.307 484.51 302.78C483.926 301.253 483.819 299.584 484.203 297.995C484.587 296.405 485.444 294.97 486.661 293.879Z" fill="#FFB8B8"/>
<path d="M502.835 248.374L498.224 249.328L482.403 252.608L481.526 252.788L479.659 245.357L477.492 243.045L473.368 221.413L473.151 220.287L466.92 206.956L468.345 166.889L478.64 169.771C478.722 169.854 478.797 169.944 478.872 170.034C481.174 172.646 482.816 176.279 485.5 179.934C494.235 191.831 500.938 220.737 500.676 236.575C500.668 236.83 500.931 237.108 501.246 237.393C502.732 238.761 503.702 240.6 503.991 242.601C504.281 244.601 503.873 246.64 502.835 248.374Z" fill="#2F2E41"/>
<path d="M417.871 172.817L425.403 153.04L444.643 152.688L451.027 172.817L473.975 301.146C473.975 301.146 403.673 320.745 404.386 297.186C405.136 272.416 408.519 239.513 408.519 239.513L417.871 172.817Z" fill="#1A87EC"/>
<path d="M434.592 147.509C447.11 147.509 457.257 137.351 457.257 124.82C457.257 112.289 447.11 102.131 434.592 102.131C422.075 102.131 411.928 112.289 411.928 124.82C411.928 137.351 422.075 147.509 434.592 147.509Z" fill="#FFB8B8"/>
<path d="M410.592 108.36C414.282 104.34 418.897 96.9804 432.877 93.89C450.15 90.0713 458.313 105.692 453.957 105.949C466.694 109.81 458.512 136.198 454.86 133.985C454.829 133.963 454.799 133.939 454.77 133.914C452.806 132.466 451.157 130.633 449.925 128.526C448.693 126.419 447.903 124.082 447.603 121.659L446.91 115.415C446.811 120.495 441.623 121.167 436.324 119.296C436.637 118.182 437.235 117.169 438.059 116.358C438.883 115.546 439.904 114.963 441.021 114.666C437.327 118.019 432.634 120.063 427.666 120.484C427.926 119.212 428.455 118.01 429.218 116.96C429.98 115.909 430.959 115.034 432.087 114.394L431.878 114.188C429.808 115.935 427.432 117.282 424.871 118.16C421.95 118.998 418.449 118.544 416.448 116.255C415.909 115.623 415.502 114.89 415.251 114.098C415.683 118.122 412.988 122.715 410.893 121.926C409.151 121.587 408.136 111.037 410.592 108.36Z" fill="#2F2E41"/>
<path d="M572 495.861C572.001 496.011 571.971 496.159 571.914 496.298C571.857 496.436 571.774 496.562 571.668 496.668C571.562 496.773 571.437 496.857 571.298 496.914C571.16 496.971 571.012 497.001 570.863 497H302.931C302.629 497 302.34 496.88 302.126 496.667C301.913 496.453 301.793 496.163 301.793 495.861C301.793 495.559 301.913 495.27 302.126 495.056C302.34 494.843 302.629 494.723 302.931 494.723H570.863C571.012 494.722 571.16 494.751 571.298 494.808C571.437 494.865 571.562 494.949 571.668 495.055C571.774 495.161 571.857 495.287 571.914 495.425C571.971 495.563 572.001 495.712 572 495.861Z" fill="#CCCCCC"/>
<path d="M293.733 260.155C284.67 260.155 276.704 264.263 272.193 270.428C277.015 266.915 282.837 265.045 288.8 265.093C302.835 265.093 314.252 274.935 314.252 287.031V297.087H319.185V282.093C319.185 269.997 307.767 260.155 293.733 260.155Z" fill="#3F3D56"/>
<path d="M322.575 302.233H263.387V284.8C263.387 270.734 276.663 259.291 292.981 259.291C309.299 259.291 322.575 270.734 322.575 284.8V302.233ZM265.299 300.319H320.663V284.8C320.663 271.789 308.245 261.205 292.981 261.205C277.716 261.205 265.299 271.789 265.299 284.8V300.319Z" fill="white"/>
<path d="M308.14 295.577H277.824C276.46 295.576 275.152 295.033 274.188 294.067C273.224 293.102 272.681 291.793 272.68 290.427V283.49C272.68 273.816 281.787 265.947 292.982 265.947C304.177 265.947 313.284 273.816 313.284 283.49V290.427C313.283 291.793 312.741 293.102 311.776 294.067C310.812 295.033 309.504 295.576 308.14 295.577ZM292.982 267.861C282.841 267.861 274.592 274.872 274.592 283.49V290.427C274.592 291.285 274.933 292.108 275.539 292.715C276.145 293.321 276.967 293.663 277.824 293.664H308.14C308.997 293.663 309.819 293.321 310.425 292.715C311.031 292.108 311.372 291.285 311.373 290.427V283.49C311.373 274.872 303.123 267.861 292.982 267.861Z" fill="white"/>
</g>
<defs>
<clipPath id="clip0_1753_13965">
<rect width="572" height="497" fill="white"/>
</clipPath>
</defs>
</svg>
