<svg width="500" height="373" viewBox="0 0 500 373" fill="none" xmlns="http://www.w3.org/2000/svg">
<path d="M500 327.4H0V327.65H500V327.4Z" fill="#EBEBEB"/>
<path d="M449.901 343.49H416.781V343.74H449.901V343.49Z" fill="#EBEBEB"/>
<path d="M331.221 346.21H322.531V346.46H331.221V346.21Z" fill="#EBEBEB"/>
<path d="M415.784 334.21H396.594V334.46H415.784V334.21Z" fill="#EBEBEB"/>
<path d="M95.6509 335.89H52.4609V336.14H95.6509V335.89Z" fill="#EBEBEB"/>
<path d="M110.893 335.89H104.562V336.14H110.893V335.89Z" fill="#EBEBEB"/>
<path d="M225.149 340.11H131.469V340.36H225.149V340.11Z" fill="#EBEBEB"/>
<path d="M237.001 282.8H43.9109C42.3983 282.797 40.9485 282.195 39.8798 281.124C38.8112 280.054 38.2109 278.603 38.2109 277.09V5.66C38.2241 4.15603 38.8301 2.71798 39.8974 1.65822C40.9646 0.598458 42.4069 0.00257639 43.9109 0H237.001C238.515 0 239.968 0.601588 241.039 1.67242C242.109 2.74325 242.711 4.19561 242.711 5.71V277.09C242.711 278.604 242.109 280.057 241.039 281.128C239.968 282.198 238.515 282.8 237.001 282.8ZM43.9109 0.200001C42.4646 0.20265 41.0784 0.779065 40.0566 1.80273C39.0348 2.82639 38.4609 4.21365 38.4609 5.66V277.09C38.4609 278.536 39.0348 279.924 40.0566 280.947C41.0784 281.971 42.4646 282.547 43.9109 282.55H237.001C238.448 282.547 239.835 281.971 240.859 280.948C241.882 279.924 242.458 278.537 242.461 277.09V5.66C242.458 4.21273 241.882 2.82549 240.859 1.80212C239.835 0.77874 238.448 0.202644 237.001 0.200001H43.9109Z" fill="#EBEBEB"/>
<path d="M453.31 282.8H260.21C258.696 282.797 257.246 282.195 256.175 281.125C255.105 280.054 254.503 278.604 254.5 277.09V5.66C254.516 4.15511 255.124 2.71708 256.193 1.65759C257.262 0.598109 258.705 0.00254829 260.21 0H453.31C454.812 0.0052045 456.252 0.602249 457.317 1.66173C458.382 2.72121 458.987 4.15775 459 5.66V277.09C459 278.601 458.401 280.05 457.335 281.121C456.268 282.191 454.821 282.795 453.31 282.8ZM260.21 0.200001C258.763 0.202644 257.375 0.77874 256.352 1.80212C255.329 2.82549 254.753 4.21273 254.75 5.66V277.09C254.753 278.537 255.329 279.924 256.352 280.948C257.375 281.971 258.763 282.547 260.21 282.55H453.31C454.757 282.547 456.145 281.971 457.168 280.948C458.191 279.924 458.767 278.537 458.77 277.09V5.66C458.767 4.21273 458.191 2.82549 457.168 1.80212C456.145 0.77874 454.757 0.202644 453.31 0.200001H260.21Z" fill="#EBEBEB"/>
<path d="M440.971 73.8198H59.0312V326.96H440.971V73.8198Z" fill="#E0E0E0"/>
<path d="M250 325.83V67.83C250 67.83 298.67 52.04 428.8 52.04V325.83H250Z" fill="#F5F5F5"/>
<path d="M250.003 325.83V67.83C250.003 67.83 201.333 52.04 71.2031 52.04V325.83H250.003Z" fill="#F0F0F0"/>
<path d="M263.924 94.4902C263.261 94.5406 262.605 94.3256 262.1 93.8923C261.596 93.4591 261.284 92.8433 261.234 92.1802C261.183 91.5172 261.398 90.8613 261.832 90.3568C262.265 89.8523 262.881 89.5406 263.544 89.4902C312.328 82.768 361.509 79.3435 410.754 79.2402C411.417 79.2402 412.053 79.5036 412.522 79.9725C412.99 80.4413 413.254 81.0772 413.254 81.7402C413.254 82.4033 412.99 83.0392 412.522 83.508C412.053 83.9768 411.417 84.2402 410.754 84.2402C361.763 84.3521 312.835 87.7665 264.304 94.4602C264.178 94.4802 264.051 94.4902 263.924 94.4902Z" fill="#E6E6E6"/>
<path d="M263.918 113C263.255 113.041 262.602 112.817 262.104 112.378C261.607 111.938 261.304 111.318 261.263 110.655C261.222 109.992 261.445 109.34 261.885 108.842C262.325 108.344 262.945 108.041 263.608 108C264.348 107.91 338.478 98.7002 410.748 98.7002C411.411 98.7002 412.047 98.9636 412.515 99.4324C412.984 99.9013 413.248 100.537 413.248 101.2C413.248 101.863 412.984 102.499 412.515 102.968C412.047 103.437 411.411 103.7 410.748 103.7C338.798 103.7 264.968 112.87 264.228 112.96L263.918 113Z" fill="#E6E6E6"/>
<path d="M263.917 131.55C263.254 131.583 262.605 131.352 262.113 130.906C261.621 130.461 261.325 129.838 261.292 129.175C261.259 128.512 261.491 127.863 261.936 127.371C262.381 126.879 263.004 126.583 263.667 126.55C264.477 126.46 345.717 118.18 410.747 118.18C411.41 118.18 412.046 118.444 412.515 118.912C412.984 119.381 413.247 120.017 413.247 120.68C413.247 121.343 412.984 121.979 412.515 122.448C412.046 122.917 411.41 123.18 410.747 123.18C345.977 123.18 264.987 131.44 264.177 131.52L263.917 131.55Z" fill="#E6E6E6"/>
<path d="M263.92 150.09C263.257 150.118 262.61 149.881 262.121 149.432C261.633 148.983 261.343 148.358 261.315 147.695C261.287 147.032 261.524 146.385 261.973 145.897C262.422 145.408 263.047 145.118 263.71 145.09C264.6 145.02 352.96 137.66 410.71 137.66C411.373 137.66 412.009 137.924 412.477 138.392C412.946 138.861 413.21 139.497 413.21 140.16C413.21 140.823 412.946 141.459 412.477 141.928C412.009 142.397 411.373 142.66 410.71 142.66C353.13 142.66 264.98 150 264.09 150.08L263.92 150.09Z" fill="#E6E6E6"/>
<path d="M263.922 168.62C263.259 168.643 262.615 168.401 262.13 167.948C261.645 167.495 261.36 166.868 261.337 166.205C261.315 165.542 261.557 164.897 262.01 164.412C262.462 163.928 263.089 163.643 263.752 163.62C264.752 163.56 360.192 157.12 410.752 157.12C411.415 157.12 412.051 157.384 412.52 157.852C412.989 158.321 413.252 158.957 413.252 159.62C413.252 160.283 412.989 160.919 412.52 161.388C412.051 161.857 411.415 162.12 410.752 162.12C360.362 162.12 265.052 168.55 264.092 168.61L263.922 168.62Z" fill="#E6E6E6"/>
<path d="M263.917 187.15C263.254 187.167 262.612 186.92 262.131 186.464C261.65 186.007 261.37 185.378 261.352 184.715C261.335 184.052 261.582 183.409 262.039 182.928C262.495 182.447 263.124 182.167 263.787 182.15C264.787 182.1 367.417 176.58 410.787 176.58C411.45 176.58 412.086 176.843 412.555 177.312C413.024 177.781 413.287 178.417 413.287 179.08C413.287 179.743 413.024 180.379 412.555 180.848C412.086 181.317 411.45 181.58 410.787 181.58C367.587 181.58 265.127 187.09 264.097 187.15H263.917Z" fill="#E6E6E6"/>
<path d="M263.918 205.68C263.255 205.693 262.613 205.443 262.135 204.983C261.657 204.524 261.381 203.893 261.368 203.23C261.354 202.567 261.605 201.926 262.065 201.448C262.524 200.969 263.155 200.693 263.818 200.68C264.918 200.68 374.638 196.04 410.748 196.04C411.411 196.04 412.047 196.303 412.515 196.772C412.984 197.241 413.248 197.877 413.248 198.54C413.248 199.203 412.984 199.839 412.515 200.308C412.047 200.777 411.411 201.04 410.748 201.04C374.748 201.04 265.128 205.63 264.028 205.68H263.918Z" fill="#E6E6E6"/>
<path d="M263.923 224.21C263.595 224.215 263.269 224.156 262.963 224.035C262.658 223.914 262.379 223.735 262.144 223.506C261.908 223.278 261.719 223.005 261.589 222.704C261.458 222.403 261.388 222.079 261.383 221.75C261.378 221.422 261.437 221.096 261.558 220.79C261.679 220.485 261.859 220.207 262.087 219.971C262.316 219.735 262.588 219.546 262.889 219.416C263.191 219.285 263.515 219.215 263.843 219.21C265.023 219.21 381.843 215.49 410.753 215.49C411.416 215.49 412.052 215.754 412.521 216.222C412.99 216.691 413.253 217.327 413.253 217.99C413.253 218.653 412.99 219.289 412.521 219.758C412.052 220.227 411.416 220.49 410.753 220.49C381.953 220.49 265.183 224.17 264.003 224.2L263.923 224.21Z" fill="#E6E6E6"/>
<path d="M263.924 242.75C263.261 242.757 262.622 242.5 262.148 242.035C261.675 241.571 261.405 240.938 261.399 240.275C261.392 239.612 261.649 238.973 262.113 238.5C262.577 238.026 263.211 237.757 263.874 237.75C265.124 237.75 389.094 234.96 410.754 234.96C411.417 234.96 412.052 235.223 412.521 235.692C412.99 236.161 413.254 236.797 413.254 237.46C413.254 238.123 412.99 238.759 412.521 239.228C412.052 239.697 411.417 239.96 410.754 239.96C389.154 239.96 265.234 242.72 263.984 242.75H263.924Z" fill="#E6E6E6"/>
<path d="M263.922 261.28C263.259 261.28 262.623 261.017 262.154 260.548C261.685 260.079 261.422 259.443 261.422 258.78C261.422 258.117 261.685 257.481 262.154 257.012C262.623 256.543 263.259 256.28 263.922 256.28C265.242 256.28 396.342 254.42 410.782 254.42C411.445 254.42 412.081 254.683 412.55 255.152C413.018 255.621 413.282 256.257 413.282 256.92C413.282 257.583 413.018 258.219 412.55 258.688C412.081 259.157 411.445 259.42 410.782 259.42C396.382 259.42 265.312 261.26 263.992 261.28H263.922Z" fill="#E6E6E6"/>
<path d="M263.922 279.81C263.259 279.81 262.623 279.546 262.154 279.078C261.685 278.609 261.422 277.973 261.422 277.31C261.422 276.647 261.685 276.011 262.154 275.542C262.623 275.073 263.259 274.81 263.922 274.81C265.312 274.81 403.542 273.88 410.762 273.88C411.425 273.88 412.061 274.143 412.53 274.612C412.998 275.081 413.262 275.717 413.262 276.38C413.262 277.043 412.998 277.679 412.53 278.148C412.061 278.616 411.425 278.88 410.762 278.88C403.562 278.88 265.342 279.8 263.952 279.81H263.922Z" fill="#E6E6E6"/>
<path d="M410.752 298.34H263.922C263.259 298.34 262.623 298.076 262.154 297.608C261.685 297.139 261.422 296.503 261.422 295.84C261.422 295.177 261.685 294.541 262.154 294.072C262.623 293.603 263.259 293.34 263.922 293.34H410.752C411.415 293.34 412.051 293.603 412.52 294.072C412.988 294.541 413.252 295.177 413.252 295.84C413.252 296.503 412.988 297.139 412.52 297.608C412.051 298.076 411.415 298.34 410.752 298.34Z" fill="#E6E6E6"/>
<path d="M236.08 94.49C236.743 94.5404 237.399 94.3253 237.903 93.8921C238.408 93.4589 238.72 92.843 238.77 92.18C238.82 91.517 238.605 90.8611 238.172 90.3566C237.739 89.8521 237.123 89.5404 236.46 89.49C187.676 82.7778 138.494 79.3634 89.25 79.27C88.587 79.27 87.9511 79.5334 87.4822 80.0022C87.0134 80.4711 86.75 81.107 86.75 81.77C86.75 82.4331 87.0134 83.0689 87.4822 83.5378C87.9511 84.0066 88.587 84.27 89.25 84.27C138.24 84.372 187.168 87.7763 235.7 94.46C235.826 94.48 235.953 94.49 236.08 94.49Z" fill="#E0E0E0"/>
<path d="M236.08 113C236.743 113.041 237.395 112.817 237.893 112.378C238.391 111.938 238.694 111.318 238.735 110.655C238.776 109.992 238.552 109.34 238.112 108.842C237.673 108.344 237.053 108.041 236.39 108C235.65 107.91 161.52 98.7002 89.25 98.7002C88.587 98.7002 87.9511 98.9636 87.4822 99.4324C87.0134 99.9013 86.75 100.537 86.75 101.2C86.75 101.863 87.0134 102.499 87.4822 102.968C87.9511 103.437 88.587 103.7 89.25 103.7C161.2 103.7 235.03 112.87 235.77 112.96L236.08 113Z" fill="#E0E0E0"/>
<path d="M236.08 131.55C236.743 131.583 237.392 131.352 237.884 130.906C238.377 130.461 238.672 129.838 238.705 129.175C238.738 128.512 238.507 127.863 238.061 127.371C237.616 126.879 236.993 126.583 236.33 126.55C235.52 126.46 154.28 118.18 89.25 118.18C88.587 118.18 87.9511 118.444 87.4822 118.912C87.0134 119.381 86.75 120.017 86.75 120.68C86.75 121.343 87.0134 121.979 87.4822 122.448C87.9511 122.917 88.587 123.18 89.25 123.18C154.02 123.18 235.01 131.44 235.82 131.52L236.08 131.55Z" fill="#E0E0E0"/>
<path d="M236.079 150.09C236.742 150.118 237.389 149.881 237.878 149.432C238.366 148.983 238.656 148.358 238.684 147.695C238.712 147.032 238.475 146.385 238.026 145.897C237.577 145.408 236.952 145.118 236.289 145.09C235.399 145.02 147.039 137.66 89.2891 137.66C88.626 137.66 87.9901 137.924 87.5213 138.392C87.0525 138.861 86.7891 139.497 86.7891 140.16C86.7891 140.823 87.0525 141.459 87.5213 141.928C87.9901 142.397 88.626 142.66 89.2891 142.66C146.869 142.66 235.019 150 235.909 150.08L236.079 150.09Z" fill="#E0E0E0"/>
<path d="M236.08 168.62C236.408 168.631 236.736 168.578 237.043 168.462C237.351 168.347 237.633 168.172 237.873 167.948C238.113 167.724 238.306 167.454 238.442 167.155C238.578 166.856 238.654 166.533 238.665 166.205C238.676 165.877 238.623 165.55 238.507 165.242C238.392 164.934 238.217 164.652 237.993 164.412C237.769 164.172 237.499 163.979 237.2 163.843C236.901 163.707 236.578 163.631 236.25 163.62C235.25 163.56 139.81 157.12 89.25 157.12C88.587 157.12 87.9511 157.384 87.4822 157.852C87.0134 158.321 86.75 158.957 86.75 159.62C86.75 160.283 87.0134 160.919 87.4822 161.388C87.9511 161.857 88.587 162.12 89.25 162.12C139.64 162.12 234.95 168.55 235.91 168.61L236.08 168.62Z" fill="#E0E0E0"/>
<path d="M236.081 187.15C236.744 187.167 237.387 186.92 237.868 186.464C238.349 186.007 238.629 185.378 238.646 184.715C238.663 184.052 238.416 183.409 237.96 182.928C237.503 182.447 236.874 182.167 236.211 182.15C235.211 182.1 132.581 176.58 89.2109 176.58C88.5479 176.58 87.912 176.843 87.4432 177.312C86.9743 177.781 86.7109 178.417 86.7109 179.08C86.7109 179.743 86.9743 180.379 87.4432 180.848C87.912 181.317 88.5479 181.58 89.2109 181.58C132.411 181.58 234.871 187.09 235.901 187.15H236.081Z" fill="#E0E0E0"/>
<path d="M236.08 205.68C236.408 205.687 236.735 205.628 237.041 205.509C237.346 205.389 237.626 205.211 237.862 204.983C238.099 204.756 238.289 204.484 238.421 204.183C238.552 203.882 238.623 203.558 238.63 203.23C238.637 202.902 238.578 202.575 238.459 202.27C238.339 201.964 238.161 201.684 237.933 201.448C237.706 201.211 237.434 201.021 237.133 200.889C236.832 200.758 236.508 200.687 236.18 200.68C235.08 200.68 125.36 196.04 89.25 196.04C88.587 196.04 87.9511 196.303 87.4822 196.772C87.0134 197.241 86.75 197.877 86.75 198.54C86.75 199.203 87.0134 199.839 87.4822 200.308C87.9511 200.777 88.587 201.04 89.25 201.04C125.25 201.04 234.87 205.63 235.97 205.68H236.08Z" fill="#E0E0E0"/>
<path d="M236.08 224.21C236.743 224.221 237.383 223.968 237.859 223.506C238.336 223.045 238.609 222.413 238.62 221.75C238.631 221.087 238.377 220.447 237.916 219.971C237.455 219.494 236.823 219.221 236.16 219.21C234.98 219.21 118.16 215.49 89.25 215.49C88.587 215.49 87.9511 215.754 87.4822 216.222C87.0134 216.691 86.75 217.327 86.75 217.99C86.75 218.653 87.0134 219.289 87.4822 219.758C87.9511 220.227 88.587 220.49 89.25 220.49C118.05 220.49 234.82 224.17 236 224.2L236.08 224.21Z" fill="#E0E0E0"/>
<path d="M236.083 242.75C236.746 242.75 237.382 242.487 237.851 242.018C238.32 241.549 238.583 240.913 238.583 240.25C238.583 239.587 238.32 238.951 237.851 238.482C237.382 238.013 236.746 237.75 236.083 237.75C234.833 237.75 110.863 234.96 89.2031 234.96C88.5401 234.96 87.9042 235.223 87.4354 235.692C86.9665 236.161 86.7031 236.797 86.7031 237.46C86.7031 238.123 86.9665 238.759 87.4354 239.228C87.9042 239.697 88.5401 239.96 89.2031 239.96C110.803 239.96 234.723 242.72 235.973 242.75H236.083Z" fill="#E0E0E0"/>
<path d="M236.079 261.28C236.742 261.28 237.378 261.017 237.847 260.548C238.315 260.079 238.579 259.443 238.579 258.78C238.579 258.117 238.315 257.481 237.847 257.012C237.378 256.543 236.742 256.28 236.079 256.28C234.759 256.28 103.659 254.42 89.2188 254.42C88.5557 254.42 87.9198 254.683 87.451 255.152C86.9821 255.621 86.7188 256.257 86.7188 256.92C86.7188 257.583 86.9821 258.219 87.451 258.688C87.9198 259.157 88.5557 259.42 89.2188 259.42C103.619 259.42 234.689 261.26 236.009 261.28H236.079Z" fill="#E0E0E0"/>
<path d="M236.082 279.81C236.745 279.81 237.381 279.546 237.85 279.078C238.319 278.609 238.582 277.973 238.582 277.31C238.582 276.647 238.319 276.011 237.85 275.542C237.381 275.073 236.745 274.81 236.082 274.81C234.692 274.81 96.4622 273.88 89.2422 273.88C88.5791 273.88 87.9433 274.143 87.4744 274.612C87.0056 275.081 86.7422 275.717 86.7422 276.38C86.7422 277.043 87.0056 277.679 87.4744 278.148C87.9433 278.616 88.5791 278.88 89.2422 278.88C96.4422 278.88 234.652 279.8 236.052 279.81H236.082Z" fill="#E0E0E0"/>
<path d="M89.25 298.34H236.08C236.743 298.34 237.379 298.076 237.848 297.608C238.317 297.139 238.58 296.503 238.58 295.84C238.58 295.177 238.317 294.541 237.848 294.072C237.379 293.603 236.743 293.34 236.08 293.34H89.25C88.587 293.34 87.9511 293.603 87.4822 294.072C87.0134 294.541 86.75 295.177 86.75 295.84C86.75 296.503 87.0134 297.139 87.4822 297.608C87.9511 298.076 88.587 298.34 89.25 298.34Z" fill="#E0E0E0"/>
<path d="M266.106 156.49L257.876 148.49L249.656 156.49V65.3398L266.106 62.3398V156.49Z" fill="#E0E0E0"/>
<path d="M249.999 372.56C357.082 372.56 443.889 367.492 443.889 361.24C443.889 354.988 357.082 349.92 249.999 349.92C142.917 349.92 56.1094 354.988 56.1094 361.24C56.1094 367.492 142.917 372.56 249.999 372.56Z" fill="#F5F5F5"/>
<path d="M75.4141 359.11C75.0162 359.11 74.6347 358.952 74.3534 358.671C74.0721 358.389 73.9141 358.008 73.9141 357.61V171.73C73.9072 160.338 77.3831 149.217 83.8758 139.857C90.3686 130.498 99.5677 123.346 110.24 119.363C120.912 115.379 132.547 114.754 143.585 117.57C154.622 120.386 164.535 126.51 171.994 135.12C172.125 135.269 172.226 135.442 172.29 135.63C172.355 135.818 172.381 136.017 172.369 136.215C172.356 136.414 172.305 136.607 172.217 136.786C172.13 136.964 172.008 137.124 171.859 137.255C171.71 137.386 171.537 137.487 171.349 137.551C171.161 137.615 170.962 137.642 170.764 137.63C170.565 137.617 170.372 137.566 170.193 137.478C170.015 137.391 169.855 137.269 169.724 137.12C162.666 128.979 153.288 123.191 142.847 120.53C132.407 117.869 121.402 118.462 111.309 122.231C101.215 125.999 92.514 132.763 86.372 141.615C80.2301 150.467 76.9405 160.986 76.9441 171.76V357.61C76.9441 357.809 76.9043 358.007 76.8271 358.191C76.7498 358.375 76.6367 358.542 76.4942 358.681C76.3517 358.821 76.1828 358.931 75.9973 359.004C75.8119 359.078 75.6136 359.114 75.4141 359.11Z" fill="#263238"/>
<path d="M107.907 360.89H64.3672L66.9972 353.77H105.277L107.907 360.89Z" fill="black"/>
<path opacity="0.2" d="M107.907 360.89H64.3672L66.9972 353.77H105.277L107.907 360.89Z" fill="white"/>
<path opacity="0.2" d="M107.904 360.89H80.1641V353.77H105.274L107.904 360.89Z" fill="white"/>
<path d="M168.375 132.031L168.885 131.886C172.187 130.952 175.725 131.368 178.721 133.042C181.717 134.716 183.925 137.512 184.859 140.814L185.341 142.517L159.919 149.711L159.437 148.008C158.974 146.372 158.838 144.661 159.037 142.972C159.236 141.284 159.765 139.651 160.595 138.167C161.425 136.683 162.54 135.378 163.874 134.325C165.209 133.272 166.739 132.492 168.375 132.031Z" fill="#263238"/>
<path opacity="0.2" d="M184.919 141.08L185.329 142.53L159.909 149.73L159.499 148.28C158.554 144.912 158.983 141.306 160.693 138.254C162.403 135.202 165.253 132.953 168.619 132C169.563 131.738 170.532 131.577 171.509 131.52C174.501 131.359 177.458 132.221 179.896 133.964C182.333 135.707 184.104 138.227 184.919 141.11V141.08Z" fill="white"/>
<path opacity="0.2" d="M184.919 141.08L185.329 142.53L169.089 147.13L168.679 145.68C166.959 139.62 168.239 133.79 171.509 131.49C174.501 131.329 177.459 132.191 179.896 133.934C182.333 135.677 184.104 138.197 184.919 141.08Z" fill="white"/>
<path d="M283.001 216.45C282.132 215.935 281.371 215.256 280.761 214.45C279.101 212.18 278.541 201.3 275.761 198.45C275.271 197.95 273.381 197.29 270.601 196.54C261.691 194.16 243.601 190.9 233.201 189.1L231.961 188.88V181L232.961 181.29C242.261 183.89 261.341 189.29 271.841 192.93C275.791 194.29 278.511 195.38 279.061 195.93C281.061 198.02 283.671 210.17 284.711 215.23C284.751 215.447 284.728 215.67 284.645 215.875C284.562 216.079 284.423 216.255 284.244 216.383C284.064 216.511 283.852 216.586 283.632 216.597C283.412 216.609 283.193 216.558 283.001 216.45Z" fill="#263238"/>
<path opacity="0.4" d="M271.858 192.91L270.588 196.5C261.678 194.12 243.588 190.86 233.188 189.06L232.678 182.6C232.655 182.278 232.699 181.954 232.808 181.65C232.856 181.52 232.913 181.393 232.978 181.27C242.278 183.87 261.358 189.32 271.858 192.91Z" fill="white"/>
<path d="M231.999 181L230.179 180.49C229.839 180.4 231.069 178.13 231.069 178.13L226.219 179.87C225.922 179.97 225.664 180.163 225.484 180.42C225.304 180.678 225.211 180.986 225.219 181.3L225.319 186.51C225.326 186.857 225.453 187.19 225.68 187.453C225.906 187.716 226.217 187.892 226.559 187.95L231.979 188.87L231.999 181Z" fill="#263238"/>
<path opacity="0.1" d="M231.001 178.1C230.572 178.542 230.022 178.848 229.421 178.98C228.098 179.39 226.816 179.922 225.591 180.57C225.211 180.89 225.591 186.31 225.591 186.83C225.591 187.35 230.231 187.98 230.231 187.98L230.111 180.46L231.001 178.1Z" fill="white"/>
<path opacity="0.1" d="M230 179.29C228.604 179.711 227.232 180.209 225.89 180.78C225.839 181.446 225.839 182.114 225.89 182.78C225.89 182.78 226.41 181.47 226.89 181.78C227.37 182.09 227.13 182.99 228.03 182.78C228.93 182.57 229.4 183.65 229.4 183.65C229.4 183.65 229.23 180 230 179.29Z" fill="white"/>
<path d="M398.832 195.94C396.342 193.28 345.953 179.37 345.953 179.37C345.953 179.37 340.752 177.79 338.342 177.25L337.562 187.46H344.562C344.562 187.46 392.743 195.56 395.513 198.46C398.283 201.36 398.833 212.21 400.513 214.46C401.08 215.211 401.774 215.857 402.562 216.37C402.77 216.5 403.011 216.567 403.256 216.562C403.501 216.556 403.739 216.479 403.94 216.339C404.142 216.2 404.298 216.004 404.389 215.777C404.48 215.549 404.502 215.3 404.453 215.06C403.373 209.85 400.762 198 398.832 195.94Z" fill="#263238"/>
<path d="M279.273 184.59C279.448 186.953 279.316 189.33 278.883 191.66C278.173 194.49 276.163 194.99 273.983 198.9C271.803 202.81 277.613 182.29 279.273 184.59Z" fill="#263238"/>
<path d="M295.589 184.31C296.679 186.589 297.508 188.984 298.059 191.45C298.499 194.31 296.679 194.81 296.059 198.75C295.439 202.69 292.999 182 295.589 184.31Z" fill="#263238"/>
<path d="M341.736 179.37C341.703 178.964 341.542 178.579 341.276 178.27C341.026 178.01 334.936 171.86 317.646 171.86C301.866 171.86 293.096 177.86 292.726 178.17C292.666 178.22 292.606 178.3 292.546 178.36C290.666 177.17 286.066 175.16 280.106 178.36C280.057 178.275 279.996 178.198 279.926 178.13C279.616 177.87 272.176 171.82 256.406 171.82C239.106 171.82 231.676 177.97 231.406 178.23C231.076 178.527 230.831 178.907 230.696 179.33C230.593 179.653 230.549 179.991 230.566 180.33L232.296 203.43C232.886 211.29 237.506 216.77 243.536 216.77H254.436C262.436 216.77 270.156 209.92 273.706 199.7C273.706 199.7 279.596 184.92 279.826 184.78C286.456 180.62 291.166 184.54 291.356 184.71C291.546 184.88 294.266 199.71 294.266 199.71C295.566 209.93 301.806 216.78 309.776 216.78H320.676C326.676 216.78 332.546 211.3 334.856 203.44L341.676 180.34C341.756 180.023 341.776 179.694 341.736 179.37ZM295.316 181.44C295.452 180.98 295.76 180.589 296.176 180.35C302.749 177.297 309.929 175.772 317.176 175.89C328.466 175.89 334.686 178.62 337.426 180.3C337.599 180.42 337.742 180.578 337.846 180.762C337.95 180.945 338.012 181.15 338.026 181.36C338.076 181.695 338.049 182.037 337.946 182.36L331.946 202.55C330.166 208.6 325.656 212.85 321.016 212.85H310.116C303.476 212.85 298.236 207.08 297.116 198.59L295.116 182.53C295.087 182.155 295.156 181.78 295.316 181.44ZM233.886 181.36C234.03 180.914 234.332 180.537 234.736 180.3C237.846 178.62 244.666 175.89 255.966 175.89C266.296 175.89 272.896 178.64 275.966 180.35C276.15 180.47 276.303 180.631 276.414 180.82C276.525 181.009 276.591 181.221 276.606 181.44C276.658 181.8 276.62 182.168 276.496 182.51L270.996 198.56C268.046 207.06 261.526 212.83 254.886 212.83H243.986C239.346 212.83 235.766 208.58 235.316 202.53L233.806 182.34C233.772 182.011 233.799 181.679 233.886 181.36Z" fill="#263238"/>
<path d="M340.648 179.72C340.613 179.321 340.448 178.945 340.178 178.65C339.928 178.39 333.828 172.4 316.538 172.4C300.758 172.4 292.008 178.29 291.638 178.54C291.573 178.598 291.513 178.662 291.458 178.73C289.568 177.58 284.968 175.61 279.018 178.73L278.838 178.51C278.528 178.26 271.068 172.37 255.298 172.37C237.998 172.37 230.578 178.37 230.298 178.62C229.966 178.903 229.721 179.274 229.588 179.69C229.484 180.012 229.443 180.352 229.468 180.69L231.258 203.2C231.868 210.86 236.508 216.2 242.538 216.2H253.438C261.438 216.2 269.138 209.53 272.658 199.57C272.658 199.57 278.508 185.16 278.728 185.03C285.358 180.98 290.078 184.8 290.268 184.97C290.458 185.14 293.218 199.57 293.218 199.57C294.548 209.57 300.798 216.2 308.778 216.2H319.678C325.678 216.2 331.528 210.86 333.818 203.2L340.568 180.69C340.659 180.375 340.687 180.045 340.648 179.72ZM294.228 181.72C294.372 181.268 294.683 180.889 295.098 180.66C301.688 177.669 308.862 176.184 316.098 176.31C327.388 176.31 333.618 178.98 336.358 180.61C336.526 180.722 336.668 180.87 336.773 181.042C336.879 181.215 336.945 181.409 336.968 181.61C337.016 181.945 336.988 182.286 336.888 182.61L330.998 202.28C329.238 208.17 324.738 212.28 320.088 212.28H309.188C302.548 212.28 297.298 206.66 296.188 198.39L294.108 182.75C294.066 182.405 294.108 182.055 294.228 181.73V181.72ZM232.808 181.64C232.96 181.217 233.258 180.863 233.648 180.64C236.758 179.01 243.568 176.34 254.868 176.34C265.198 176.34 271.808 179.02 274.868 180.69C275.052 180.803 275.207 180.957 275.32 181.142C275.433 181.326 275.501 181.534 275.518 181.75C275.569 182.103 275.532 182.464 275.408 182.8L269.878 198.43C266.948 206.71 260.448 212.33 253.808 212.33H242.998C238.358 212.33 234.768 208.19 234.298 202.33L232.728 182.66C232.687 182.321 232.714 181.978 232.808 181.65V181.64Z" fill="#263238"/>
<path opacity="0.1" d="M279.602 183.64C279.602 183.64 280.332 180.64 280.022 179.79C279.712 178.94 282.512 177.89 284.172 177.84C285.151 177.706 286.147 177.788 287.092 178.08C287.352 178.3 285.792 178.02 284.762 178.91C283.732 179.8 284.832 180.52 283.602 181.33C282.372 182.14 283.032 182.24 282.712 182.49C281.698 182.933 280.66 183.317 279.602 183.64Z" fill="white"/>
<path opacity="0.1" d="M275.138 176.9C275.138 176.9 268.668 172.78 254.268 172.78C239.868 172.78 231.868 178.02 230.658 179.37C229.448 180.72 230.118 183.44 230.988 193.76C231.858 204.08 232.168 209.51 236.708 212.83C236.708 212.83 233.418 207.5 233.638 205.47C233.858 203.44 232.758 197.81 232.378 191.17C231.998 184.53 231.188 180.62 232.378 179.86C233.568 179.1 239.628 175.05 250.748 174.64C261.868 174.23 267.808 176.84 268.968 176.32C270.128 175.8 273.047 177.04 273.737 177.04C274.207 177.033 274.676 176.986 275.138 176.9Z" fill="white"/>
<g opacity="0.4">
<path d="M253.787 213.08H242.887C238.097 213.08 234.437 208.75 233.967 202.55L232.457 182.36C232.439 181.995 232.486 181.629 232.597 181.28C232.77 180.77 233.126 180.342 233.597 180.08C236.677 178.42 243.537 175.64 254.947 175.64C265.427 175.64 272.067 178.46 275.097 180.13C275.317 180.266 275.501 180.452 275.635 180.672C275.769 180.893 275.848 181.143 275.867 181.4C275.926 181.801 275.885 182.21 275.747 182.59L270.167 198.59C267.137 207.28 260.567 213.08 253.787 213.08ZM254.917 176.14C243.617 176.14 236.837 178.88 233.807 180.52C233.452 180.723 233.19 181.057 233.077 181.45C232.977 181.729 232.936 182.025 232.957 182.32L234.467 202.51C234.907 208.44 238.377 212.58 242.887 212.58H253.787C260.347 212.58 266.727 206.91 269.657 198.47L275.237 182.47C275.355 182.151 275.389 181.807 275.337 181.47C275.327 181.29 275.275 181.114 275.187 180.956C275.099 180.799 274.975 180.663 274.827 180.56C271.837 178.92 265.277 176.14 254.917 176.14Z" fill="white"/>
<path d="M320 213.08H309.1C302.31 213.08 297 207.26 295.88 198.6L293.88 182.54C293.827 182.138 293.876 181.729 294.02 181.35C294.18 180.828 294.539 180.39 295.02 180.13C301.634 177.046 308.864 175.51 316.16 175.64C327.56 175.64 333.82 178.42 336.54 180.09C336.745 180.23 336.916 180.414 337.041 180.628C337.165 180.843 337.24 181.083 337.26 181.33C337.309 181.692 337.278 182.061 337.17 182.41L331.17 202.6C329.39 208.77 324.8 213.08 320 213.08ZM316.12 176.14C308.903 176.01 301.751 177.528 295.21 180.58C294.846 180.782 294.576 181.12 294.46 181.52C294.335 181.838 294.294 182.182 294.34 182.52L296.34 198.58C297.42 206.98 302.53 212.58 309.06 212.58H320C324.54 212.58 328.94 208.42 330.69 202.46L336.69 182.27C336.777 181.989 336.801 181.692 336.76 181.4C336.75 181.227 336.702 181.058 336.619 180.906C336.536 180.754 336.42 180.622 336.28 180.52C333.61 178.88 327.44 176.14 316.16 176.14H316.12Z" fill="white"/>
</g>
<path opacity="0.1" d="M291.998 179.11C291.388 179.66 291.658 180.34 291.708 181.79C291.707 182.802 291.579 183.809 291.328 184.79C291.328 184.79 294.268 201.25 294.748 202.56C295.228 203.87 295.488 203.32 295.658 203.11C295.828 202.9 296.818 204.48 296.818 204.48C295.502 200.017 294.631 195.434 294.218 190.8C293.318 182.2 292.968 180.98 293.548 180.14C294.128 179.3 301.328 176.08 307.428 175.39C313.433 174.731 319.493 174.731 325.498 175.39C329.788 176.01 329.938 174.62 330.598 174.9C331.421 175.118 332.267 175.235 333.118 175.25C333.118 175.25 321.408 171.61 309.118 173.25C296.828 174.89 291.998 179.11 291.998 179.11Z" fill="white"/>
<path d="M310.641 181.93C312.561 178.35 310.321 179.86 308.821 182.2C307.321 184.54 301.751 203.66 302.711 208.06C301.534 205.724 300.198 203.472 298.711 201.32C298.251 200.81 297.771 198.16 297.351 194.97C296.971 192.08 296.641 188.75 296.421 186.14C296.241 183.9 296.131 182.2 296.161 181.78C296.211 180.35 304.271 177.25 315.621 177.25C315.621 177.25 308.801 191.34 306.911 197.33C306.881 197.33 308.731 185.5 310.641 181.93Z" fill="white"/>
<path opacity="0.2" d="M297.321 195C296.941 192.11 296.611 188.78 296.391 186.17C297.134 187.876 297.694 189.656 298.061 191.48C298.248 192.704 297.985 193.955 297.321 195Z" fill="black"/>
<path opacity="0.1" d="M345.411 179.51C345.411 179.51 341.411 178.3 339.161 177.76V177.84C336.841 176.14 330.161 172.4 316.491 172.4C300.711 172.4 291.961 178.29 291.591 178.54C291.526 178.598 291.466 178.662 291.411 178.73C289.521 177.58 284.921 175.61 278.971 178.73C278.911 178.66 278.861 178.58 278.791 178.51C278.481 178.26 271.021 172.37 255.251 172.37C237.951 172.37 230.531 178.37 230.251 178.62C229.92 178.903 229.674 179.274 229.541 179.69C229.437 180.012 229.396 180.352 229.421 180.69L231.211 203.2C231.821 210.86 236.461 216.2 242.491 216.2H253.391C261.391 216.2 269.091 209.53 272.611 199.57C272.611 199.57 278.461 185.16 278.681 185.03C285.311 180.98 290.031 184.8 290.221 184.97C290.411 185.14 293.171 199.57 293.171 199.57C294.501 209.57 300.751 216.2 308.731 216.2H319.631C325.631 216.2 331.481 210.86 333.771 203.2L339.501 184.1L339.131 186.55H344.131C344.131 186.55 344.791 186.43 344.911 186.07C345.031 185.71 345.911 181.07 345.911 180.51C345.867 180.128 345.69 179.774 345.411 179.51ZM275.411 182.78L269.881 198.41C266.951 206.69 260.451 212.31 253.811 212.31H243.001C238.361 212.31 234.771 208.17 234.301 202.31L232.731 182.64C232.708 182.301 232.752 181.961 232.861 181.64C233.013 181.217 233.311 180.863 233.701 180.64C236.811 179.01 243.621 176.34 254.921 176.34C265.251 176.34 271.861 179.02 274.921 180.69C275.105 180.803 275.26 180.957 275.373 181.142C275.486 181.326 275.554 181.534 275.571 181.75C275.616 182.098 275.575 182.451 275.451 182.78H275.411ZM336.861 182.61L331.001 202.28C329.241 208.17 324.741 212.28 320.091 212.28H309.191C302.551 212.28 297.301 206.66 296.191 198.39L294.111 182.75C294.065 182.395 294.106 182.035 294.231 181.7C294.375 181.248 294.687 180.869 295.101 180.64C301.692 177.649 308.865 176.164 316.101 176.29C327.391 176.29 333.621 178.96 336.361 180.59C336.529 180.702 336.671 180.85 336.776 181.022C336.882 181.195 336.948 181.389 336.971 181.59C337.025 181.931 337.001 182.279 336.901 182.61H336.861Z" fill="white"/>
<path opacity="0.1" d="M340 178.63C340.69 179.01 340.83 179.26 340.64 180.43C340.45 181.6 340 183.58 340 183.58C340 183.58 340.31 182.23 341.49 182.3C342.667 182.379 343.848 182.202 344.95 181.78C345.16 181.51 345.47 180.31 345.29 180.2C345.11 180.09 342.29 179.05 341.49 178.84C341.003 178.713 340.503 178.642 340 178.63Z" fill="white"/>
<path d="M254.677 177.25C254.677 177.25 252.307 181.36 249.677 186.06C248.677 187.84 247.677 189.71 246.677 191.47C244.937 194.65 243.477 197.47 242.977 198.77C243.047 198.38 243.767 194.97 244.697 191.12C245.197 189.12 245.747 186.96 246.317 185.12C246.682 183.831 247.116 182.562 247.617 181.32C247.537 181.44 246.817 182.37 245.617 183.68C245.381 184.015 245.186 184.378 245.037 184.76C244.467 186.03 243.627 188.25 242.727 190.76C240.337 197.46 237.407 206.44 237.407 206.44C236.651 205.751 236.199 204.791 236.147 203.77C236.147 203.77 235.507 195.71 235.047 189.4C234.777 185.57 234.567 182.4 234.617 181.99C234.633 181.913 234.667 181.841 234.717 181.78C235.807 180.55 243.857 177.38 254.677 177.25Z" fill="white"/>
<path opacity="0.2" d="M245.107 184.72C244.537 185.99 243.697 188.21 242.797 190.72C240.047 190.23 237.447 189.72 235.117 189.36C234.847 185.53 234.637 182.36 234.687 181.95C234.703 181.873 234.737 181.801 234.787 181.74C237.687 182.59 241.267 183.61 245.107 184.72Z" fill="black"/>
<path opacity="0.2" d="M249.703 186.06C248.703 187.84 247.703 189.71 246.703 191.47L244.703 191.12C245.203 189.12 245.753 186.96 246.323 185.12L249.703 186.06Z" fill="black"/>
<path d="M234.58 301.92H294.82V275.79H234.58V301.92Z" fill="#407BFF"/>
<path opacity="0.8" d="M234.58 301.92H294.82V275.79H234.58V301.92Z" fill="white"/>
<path opacity="0.2" d="M289.98 278.35H234.57V275.8H289.93L289.98 278.35Z" fill="black"/>
<path opacity="0.2" d="M289.99 280.58L240 281.65L289.99 282.71V280.58Z" fill="black"/>
<path opacity="0.2" d="M289.987 290.24L237.047 291.14L289.987 291.89V290.24Z" fill="black"/>
<path opacity="0.2" d="M289.993 295.89L237.523 296.95L289.993 298.02V295.89Z" fill="black"/>
<path opacity="0.2" d="M234.57 284.3L285.33 285.84L234.57 286.9V284.3Z" fill="black"/>
<path d="M369.002 288.73C369.003 290.284 368.698 291.824 368.103 293.26C367.508 294.696 366.636 296 365.536 297.098C364.436 298.196 363.13 299.066 361.693 299.659C360.256 300.251 358.716 300.554 357.162 300.55H231.792C231.56 300.553 231.339 300.647 231.176 300.811C231.013 300.976 230.922 301.198 230.922 301.43V302.36C230.921 302.475 230.942 302.589 230.985 302.696C231.028 302.803 231.092 302.9 231.173 302.982C231.254 303.064 231.35 303.129 231.457 303.173C231.563 303.217 231.677 303.24 231.792 303.24H357.792C359.709 303.237 361.606 302.856 363.375 302.118C365.144 301.38 366.749 300.3 368.099 298.94C369.45 297.579 370.518 295.966 371.242 294.191C371.967 292.417 372.334 290.517 372.322 288.6C372.228 284.723 370.612 281.039 367.824 278.342C365.036 275.646 361.3 274.155 357.422 274.19H231.792C231.561 274.19 231.34 274.282 231.177 274.445C231.014 274.608 230.922 274.829 230.922 275.06V276C230.921 276.115 230.942 276.229 230.985 276.336C231.028 276.443 231.092 276.54 231.173 276.622C231.254 276.704 231.35 276.769 231.457 276.813C231.563 276.857 231.677 276.88 231.792 276.88H356.792C359.972 276.869 363.03 278.102 365.312 280.317C367.594 282.531 368.918 285.551 369.002 288.73Z" fill="#263238"/>
<path opacity="0.4" d="M369.002 288.73C369.003 290.284 368.698 291.824 368.103 293.26C367.508 294.696 366.636 296 365.536 297.098C364.436 298.196 363.13 299.066 361.693 299.659C360.256 300.251 358.716 300.554 357.162 300.55H231.792C231.56 300.553 231.339 300.647 231.176 300.811C231.013 300.976 230.922 301.198 230.922 301.43V302.36C230.921 302.475 230.942 302.589 230.985 302.696C231.028 302.803 231.092 302.9 231.173 302.982C231.254 303.064 231.35 303.129 231.457 303.173C231.563 303.217 231.677 303.24 231.792 303.24H357.792C359.709 303.237 361.606 302.856 363.375 302.118C365.144 301.38 366.749 300.3 368.099 298.94C369.45 297.579 370.518 295.966 371.242 294.191C371.967 292.417 372.334 290.517 372.322 288.6C372.228 284.723 370.612 281.039 367.824 278.342C365.036 275.646 361.3 274.155 357.422 274.19H231.792C231.561 274.19 231.34 274.282 231.177 274.445C231.014 274.608 230.922 274.829 230.922 275.06V276C230.921 276.115 230.942 276.229 230.985 276.336C231.028 276.443 231.092 276.54 231.173 276.622C231.254 276.704 231.35 276.769 231.457 276.813C231.563 276.857 231.677 276.88 231.792 276.88H356.792C359.972 276.869 363.03 278.102 365.312 280.317C367.594 282.531 368.918 285.551 369.002 288.73Z" fill="white"/>
<path d="M414.75 288.88C414.755 290.601 414.421 292.307 413.766 293.898C413.111 295.49 412.148 296.936 410.933 298.155C409.718 299.374 408.274 300.341 406.685 301.001C405.095 301.661 403.391 302 401.67 302H290V275.8H401.67C405.139 275.8 408.466 277.178 410.919 279.631C413.372 282.084 414.75 285.411 414.75 288.88Z" fill="#407BFF"/>
<path opacity="0.7" d="M290 275.8V302H401.67C405.078 301.906 408.314 300.486 410.691 298.043C413.068 295.599 414.398 292.324 414.398 288.915C414.398 285.506 413.068 282.232 410.691 279.788C408.314 277.344 405.078 275.925 401.67 275.83L290 275.8Z" fill="white"/>
<path opacity="0.2" d="M289.992 282.71V280.58L401.312 281.48L289.992 282.71Z" fill="black"/>
<path opacity="0.2" d="M289.992 291.89V290.24L339.962 292.03L289.992 291.89Z" fill="black"/>
<path opacity="0.2" d="M289.992 298.02V295.89L370.562 297.12L289.992 298.02Z" fill="black"/>
<path opacity="0.2" d="M401.85 278.35C404 278.353 406.073 279.151 407.67 280.59C406.978 281.943 406.429 283.364 406.03 284.83L294.35 285.71L405.77 285.99C405.379 287.958 405.413 289.987 405.87 291.94L330.66 293.58L406.58 294.46C407.23 296.276 408.075 298.016 409.1 299.65C411.398 298.067 413.129 295.79 414.04 293.152C414.952 290.514 414.996 287.654 414.166 284.99C413.336 282.326 411.675 279.996 409.427 278.343C407.179 276.69 404.461 275.799 401.67 275.8H290V278.35H401.85Z" fill="black"/>
<path d="M413.722 288.73C413.721 290.284 413.413 291.823 412.817 293.259C412.221 294.694 411.347 295.998 410.247 297.096C409.146 298.193 407.84 299.064 406.403 299.656C404.966 300.249 403.427 300.553 401.872 300.55H288.112C287.881 300.553 287.659 300.647 287.496 300.811C287.334 300.976 287.242 301.198 287.242 301.43V302.36C287.241 302.475 287.262 302.589 287.306 302.696C287.349 302.803 287.413 302.9 287.493 302.982C287.574 303.064 287.671 303.129 287.777 303.173C287.883 303.217 287.997 303.24 288.112 303.24H402.532C404.449 303.239 406.346 302.858 408.115 302.121C409.884 301.383 411.49 300.303 412.839 298.942C414.189 297.581 415.256 295.967 415.979 294.192C416.702 292.417 417.067 290.517 417.052 288.6C416.958 284.723 415.342 281.039 412.555 278.342C409.767 275.646 406.03 274.155 402.152 274.19H288.152C287.922 274.19 287.7 274.282 287.537 274.445C287.374 274.608 287.282 274.829 287.282 275.06V276C287.281 276.115 287.302 276.229 287.346 276.336C287.389 276.443 287.453 276.54 287.534 276.622C287.614 276.704 287.711 276.769 287.817 276.813C287.923 276.857 288.037 276.88 288.152 276.88H401.532C404.709 276.874 407.762 278.11 410.039 280.324C412.317 282.538 413.639 285.555 413.722 288.73Z" fill="#263238"/>
<path d="M401.308 285.4V295.89L397.508 292.1L393.828 295.78V285.4H401.308Z" fill="#263238"/>
<path d="M406.246 333.45H243.656V359.62H406.246V333.45Z" fill="#407BFF"/>
<path opacity="0.7" d="M406.246 333.45H243.656V359.62H406.246V333.45Z" fill="white"/>
<path opacity="0.2" d="M406.26 340.37V338.24L294.93 339.13L406.26 340.37Z" fill="black"/>
<path opacity="0.2" d="M406.261 349.54V347.9L356.281 349.68L406.261 349.54Z" fill="black"/>
<path opacity="0.2" d="M406.26 355.67V353.55L325.68 354.78L406.26 355.67Z" fill="black"/>
<path opacity="0.2" d="M279.996 333.45L277.656 353L280.436 350C281.374 353.561 283.123 356.857 285.546 359.63C287.288 357.349 288.673 354.817 289.656 352.12L365.586 351.25L290.366 349.61C290.605 348.55 290.729 347.467 290.736 346.38C290.733 345.464 290.642 344.55 290.466 343.65L401.896 343.37L290.206 342.5C289.82 341.03 289.27 339.608 288.566 338.26C290.163 336.821 292.236 336.023 294.386 336.02H406.256V333.46L279.996 333.45Z" fill="black"/>
<path d="M282.52 346.38C282.525 349.52 283.776 352.529 285.998 354.747C288.219 356.965 291.231 358.21 294.37 358.21H408.13C408.245 358.209 408.359 358.231 408.466 358.274C408.573 358.317 408.67 358.381 408.752 358.462C408.833 358.543 408.898 358.639 408.943 358.745C408.987 358.851 409.01 358.965 409.01 359.08V360C409.01 360.115 408.987 360.229 408.943 360.336C408.898 360.442 408.833 360.538 408.752 360.619C408.67 360.7 408.573 360.764 408.466 360.807C408.359 360.85 408.245 360.872 408.13 360.87H231.13C229.213 360.872 227.316 360.493 225.546 359.757C223.777 359.021 222.171 357.942 220.821 356.582C219.471 355.221 218.403 353.607 217.681 351.832C216.958 350.057 216.594 348.157 216.61 346.24C216.704 342.362 218.319 338.677 221.107 335.979C223.894 333.281 227.631 331.788 231.51 331.82H408.13C408.245 331.819 408.359 331.841 408.466 331.884C408.573 331.927 408.67 331.991 408.752 332.072C408.833 332.153 408.898 332.249 408.943 332.355C408.987 332.461 409.01 332.575 409.01 332.69V333.63C409.01 333.745 408.987 333.859 408.943 333.966C408.898 334.072 408.833 334.168 408.752 334.249C408.67 334.33 408.573 334.394 408.466 334.437C408.359 334.48 408.245 334.502 408.13 334.5H294.72C291.538 334.497 288.481 335.737 286.202 337.957C283.922 340.177 282.601 343.2 282.52 346.38Z" fill="#407BFF"/>
<path opacity="0.4" d="M282.52 346.38C282.525 349.52 283.776 352.529 285.998 354.747C288.219 356.965 291.231 358.21 294.37 358.21H408.13C408.245 358.209 408.359 358.231 408.466 358.274C408.573 358.317 408.67 358.381 408.752 358.462C408.833 358.543 408.898 358.639 408.943 358.745C408.987 358.851 409.01 358.965 409.01 359.08V360C409.01 360.115 408.987 360.229 408.943 360.336C408.898 360.442 408.833 360.538 408.752 360.619C408.67 360.7 408.573 360.764 408.466 360.807C408.359 360.85 408.245 360.872 408.13 360.87H231.13C229.213 360.872 227.316 360.493 225.546 359.757C223.777 359.021 222.171 357.942 220.821 356.582C219.471 355.221 218.403 353.607 217.681 351.832C216.958 350.057 216.594 348.157 216.61 346.24C216.704 342.362 218.319 338.677 221.107 335.979C223.894 333.281 227.631 331.788 231.51 331.82H408.13C408.245 331.819 408.359 331.841 408.466 331.884C408.573 331.927 408.67 331.991 408.752 332.072C408.833 332.153 408.898 332.249 408.943 332.355C408.987 332.461 409.01 332.575 409.01 332.69V333.63C409.01 333.745 408.987 333.859 408.943 333.966C408.898 334.072 408.833 334.168 408.752 334.249C408.67 334.33 408.573 334.394 408.466 334.437C408.359 334.48 408.245 334.502 408.13 334.5H294.72C291.538 334.497 288.481 335.737 286.202 337.957C283.922 340.177 282.601 343.2 282.52 346.38Z" fill="black"/>
<path d="M282.518 346.38C282.523 349.52 283.774 352.529 285.996 354.747C288.217 356.965 291.228 358.21 294.368 358.21H408.128C408.243 358.209 408.357 358.231 408.464 358.274C408.571 358.317 408.668 358.381 408.749 358.462C408.831 358.543 408.896 358.639 408.941 358.745C408.985 358.851 409.008 358.965 409.008 359.08V360C409.008 360.115 408.985 360.229 408.941 360.336C408.896 360.442 408.831 360.538 408.749 360.619C408.668 360.7 408.571 360.764 408.464 360.807C408.357 360.85 408.243 360.872 408.128 360.87H293.718C291.801 360.87 289.904 360.491 288.134 359.755C286.365 359.018 284.759 357.939 283.408 356.579C282.058 355.219 280.989 353.606 280.265 351.831C279.541 350.057 279.175 348.157 279.188 346.24C279.282 342.362 280.897 338.677 283.685 335.979C286.472 333.281 290.209 331.788 294.088 331.82H408.088C408.203 331.819 408.317 331.841 408.424 331.884C408.531 331.927 408.628 331.991 408.71 332.072C408.791 332.153 408.856 332.249 408.901 332.355C408.945 332.461 408.968 332.575 408.968 332.69V333.63C408.968 333.745 408.945 333.859 408.901 333.966C408.856 334.072 408.791 334.168 408.71 334.249C408.628 334.33 408.531 334.394 408.424 334.437C408.317 334.48 408.203 334.502 408.088 334.5H294.718C291.536 334.497 288.479 335.737 286.2 337.957C283.92 340.177 282.599 343.2 282.518 346.38Z" fill="#407BFF"/>
<path d="M294.93 343.06V353.55L298.73 349.75L302.41 353.43V343.06H294.93Z" fill="#263238"/>
<path opacity="0.1" d="M282.518 346.38C282.523 349.52 283.774 352.529 285.996 354.747C288.217 356.965 291.228 358.21 294.368 358.21H408.128C408.243 358.209 408.357 358.231 408.464 358.274C408.571 358.317 408.668 358.381 408.749 358.462C408.831 358.543 408.896 358.639 408.941 358.745C408.985 358.851 409.008 358.965 409.008 359.08V360C409.008 360.115 408.985 360.229 408.941 360.336C408.896 360.442 408.831 360.538 408.749 360.619C408.668 360.7 408.571 360.764 408.464 360.807C408.357 360.85 408.243 360.872 408.128 360.87H293.718C291.801 360.87 289.904 360.491 288.134 359.755C286.365 359.018 284.759 357.939 283.408 356.579C282.058 355.219 280.989 353.606 280.265 351.831C279.541 350.057 279.175 348.157 279.188 346.24C279.282 342.362 280.897 338.677 283.685 335.979C286.472 333.281 290.209 331.788 294.088 331.82H408.088C408.203 331.819 408.317 331.841 408.424 331.884C408.531 331.927 408.628 331.991 408.71 332.072C408.791 332.153 408.856 332.249 408.901 332.355C408.945 332.461 408.968 332.575 408.968 332.69V333.63C408.968 333.745 408.945 333.859 408.901 333.966C408.856 334.072 408.791 334.168 408.71 334.249C408.628 334.33 408.531 334.394 408.424 334.437C408.317 334.48 408.203 334.502 408.088 334.5H294.718C291.536 334.497 288.479 335.737 286.2 337.957C283.92 340.177 282.599 343.2 282.518 346.38Z" fill="white"/>
<path opacity="0.1" d="M273.93 356.64C276.658 359.363 280.355 360.892 284.21 360.89H279.38C277.463 360.891 275.564 360.513 273.794 359.776C272.024 359.039 270.417 357.959 269.067 356.598C267.717 355.237 266.65 353.621 265.928 351.845C265.206 350.069 264.843 348.167 264.86 346.25C264.952 342.372 266.566 338.686 269.355 335.989C272.143 333.293 275.881 331.802 279.76 331.84H284.58C280.702 331.805 276.965 333.296 274.178 335.992C271.39 338.689 269.774 342.373 269.68 346.25C269.662 348.177 270.029 350.089 270.759 351.873C271.488 353.657 272.567 355.278 273.93 356.64Z" fill="white"/>
<path opacity="0.1" d="M264.282 356.64C267.011 359.362 270.707 360.89 274.562 360.89H269.732C267.814 360.892 265.916 360.513 264.145 359.776C262.375 359.04 260.769 357.959 259.419 356.598C258.069 355.237 257.002 353.621 256.279 351.845C255.557 350.069 255.194 348.168 255.212 346.25C255.306 342.373 256.921 338.689 259.709 335.993C262.497 333.296 266.233 331.805 270.111 331.84H274.932C271.048 331.797 267.304 333.285 264.51 335.982C261.716 338.679 260.096 342.368 260.002 346.25C259.988 348.18 260.359 350.093 261.094 351.877C261.829 353.661 262.913 355.28 264.282 356.64Z" fill="white"/>
<path d="M418.996 304.62H256.406V330.79H418.996V304.62Z" fill="#407BFF"/>
<path opacity="0.8" d="M418.996 304.62H256.406V330.79H418.996V304.62Z" fill="white"/>
<path opacity="0.2" d="M419 311.54V309.41L307.68 310.3L419 311.54Z" fill="black"/>
<path opacity="0.2" d="M419.003 320.71V319.07L369.023 320.86L419.003 320.71Z" fill="black"/>
<path opacity="0.2" d="M419.002 326.84V324.72L338.422 325.95L419.002 326.84Z" fill="black"/>
<path opacity="0.2" d="M292.758 304.62L290.398 324.13L293.178 321.13C294.123 324.691 295.875 327.986 298.298 330.76C300.033 328.48 301.415 325.951 302.398 323.26L378.328 322.38L303.108 320.74C303.561 318.786 303.599 316.759 303.218 314.79L414.638 314.51L302.998 313.66C302.601 312.193 302.052 310.772 301.358 309.42C302.954 307.978 305.028 307.18 307.178 307.18H418.998V304.62H292.758Z" fill="black"/>
<path d="M295.272 317.55C295.277 320.688 296.527 323.695 298.746 325.913C300.966 328.131 303.974 329.378 307.112 329.38H420.882C421.113 329.38 421.334 329.472 421.497 329.635C421.66 329.798 421.752 330.019 421.752 330.25V331.19C421.752 331.421 421.66 331.642 421.497 331.805C421.334 331.969 421.113 332.06 420.882 332.06H252.882C250.965 332.06 249.068 331.681 247.298 330.945C245.529 330.208 243.923 329.129 242.572 327.769C241.222 326.409 240.153 324.796 239.429 323.021C238.705 321.247 238.339 319.347 238.352 317.43C238.444 313.559 240.051 309.879 242.828 307.18C245.605 304.482 249.33 302.981 253.202 303H420.882C420.997 303 421.111 303.023 421.217 303.067C421.323 303.112 421.42 303.177 421.501 303.259C421.582 303.34 421.645 303.437 421.689 303.544C421.732 303.651 421.753 303.765 421.752 303.88V304.81C421.752 305.041 421.66 305.262 421.497 305.425C421.334 305.589 421.113 305.68 420.882 305.68H307.462C300.942 305.69 295.262 311 295.272 317.55Z" fill="#263238"/>
<path opacity="0.4" d="M295.272 317.55C295.277 320.688 296.527 323.695 298.746 325.913C300.966 328.131 303.974 329.378 307.112 329.38H420.882C421.113 329.38 421.334 329.472 421.497 329.635C421.66 329.798 421.752 330.019 421.752 330.25V331.19C421.752 331.421 421.66 331.642 421.497 331.805C421.334 331.969 421.113 332.06 420.882 332.06H252.882C250.965 332.06 249.068 331.681 247.298 330.945C245.529 330.208 243.923 329.129 242.572 327.769C241.222 326.409 240.153 324.796 239.429 323.021C238.705 321.247 238.339 319.347 238.352 317.43C238.444 313.559 240.051 309.879 242.828 307.18C245.605 304.482 249.33 302.981 253.202 303H420.882C420.997 303 421.111 303.023 421.217 303.067C421.323 303.112 421.42 303.177 421.501 303.259C421.582 303.34 421.645 303.437 421.689 303.544C421.732 303.651 421.753 303.765 421.752 303.88V304.81C421.752 305.041 421.66 305.262 421.497 305.425C421.334 305.589 421.113 305.68 420.882 305.68H307.462C300.942 305.69 295.262 311 295.272 317.55Z" fill="white"/>
<path d="M295.27 317.55C295.275 320.688 296.525 323.695 298.744 325.913C300.964 328.13 303.972 329.377 307.11 329.38H420.88C421.111 329.38 421.332 329.472 421.495 329.635C421.658 329.798 421.75 330.019 421.75 330.25V331.19C421.75 331.421 421.658 331.642 421.495 331.805C421.332 331.968 421.111 332.06 420.88 332.06H306.46C304.543 332.06 302.646 331.681 300.876 330.945C299.107 330.208 297.501 329.129 296.15 327.769C294.8 326.409 293.732 324.796 293.007 323.021C292.283 321.247 291.917 319.347 291.93 317.43C292.022 313.55 293.636 309.862 296.424 307.162C299.211 304.462 302.949 302.967 306.83 303H420.88C420.995 303 421.109 303.023 421.215 303.067C421.322 303.112 421.418 303.177 421.499 303.258C421.58 303.34 421.644 303.437 421.687 303.544C421.73 303.651 421.751 303.765 421.75 303.88V304.81C421.75 305.041 421.658 305.262 421.495 305.425C421.332 305.588 421.111 305.68 420.88 305.68H307.46C300.94 305.69 295.26 311 295.27 317.55Z" fill="#263238"/>
<path d="M316.688 310.5V321L320.487 317.2L324.168 320.88V310.5H316.688Z" fill="#407BFF"/>
<path opacity="0.6" d="M295.27 317.55C295.275 320.688 296.525 323.695 298.744 325.913C300.964 328.13 303.972 329.377 307.11 329.38H420.88C421.111 329.38 421.332 329.472 421.495 329.635C421.658 329.798 421.75 330.019 421.75 330.25V331.19C421.75 331.421 421.658 331.642 421.495 331.805C421.332 331.968 421.111 332.06 420.88 332.06H306.46C304.543 332.06 302.646 331.681 300.876 330.945C299.107 330.208 297.501 329.129 296.15 327.769C294.8 326.409 293.732 324.796 293.007 323.021C292.283 321.247 291.917 319.347 291.93 317.43C292.022 313.55 293.636 309.862 296.424 307.162C299.211 304.462 302.949 302.967 306.83 303H420.88C420.995 303 421.109 303.023 421.215 303.067C421.322 303.112 421.418 303.177 421.499 303.258C421.58 303.34 421.644 303.437 421.687 303.544C421.73 303.651 421.751 303.765 421.75 303.88V304.81C421.75 305.041 421.658 305.262 421.495 305.425C421.332 305.588 421.111 305.68 420.88 305.68H307.46C300.94 305.69 295.26 311 295.27 317.55Z" fill="white"/>
<path opacity="0.2" d="M286.663 310.71H249.533C248.588 311.509 247.828 312.504 247.307 313.627C246.786 314.75 246.516 315.972 246.516 317.21C246.516 318.448 246.786 319.67 247.307 320.793C247.828 321.916 248.588 322.911 249.533 323.71H286.663C284.263 320.43 284.263 314 286.663 310.71Z" fill="black"/>
<path d="M404.459 218.14H344.219V244.27H404.459V218.14Z" fill="#407BFF"/>
<path opacity="0.7" d="M404.459 218.14H344.219V244.27H404.459V218.14Z" fill="white"/>
<path opacity="0.2" d="M349.047 220.7H404.457V218.14H349.107L349.047 220.7Z" fill="black"/>
<path opacity="0.2" d="M349.047 222.93L399.037 223.99L349.047 225.06V222.93Z" fill="black"/>
<path opacity="0.2" d="M349.047 232.59L401.987 233.48L349.047 234.23V232.59Z" fill="black"/>
<path opacity="0.2" d="M349.047 238.24L401.507 239.3L349.047 240.36V238.24Z" fill="black"/>
<path opacity="0.2" d="M404.461 226.65L353.711 228.18L404.461 229.24V226.65Z" fill="black"/>
<path d="M270 231.07C270.005 234.208 271.255 237.215 273.474 239.433C275.694 241.651 278.702 242.897 281.84 242.9H407.24C407.471 242.9 407.692 242.992 407.855 243.155C408.018 243.318 408.11 243.539 408.11 243.77V244.71C408.11 244.941 408.018 245.162 407.855 245.325C407.692 245.488 407.471 245.58 407.24 245.58H281.24C279.324 245.587 277.426 245.214 275.656 244.483C273.885 243.753 272.276 242.679 270.923 241.323C269.569 239.968 268.497 238.358 267.769 236.586C267.041 234.814 266.671 232.916 266.68 231C266.772 227.123 268.385 223.438 271.171 220.74C273.956 218.042 277.692 216.548 281.57 216.58H407.24C407.471 216.58 407.692 216.672 407.855 216.835C408.018 216.998 408.11 217.219 408.11 217.45V218.39C408.11 218.621 408.018 218.842 407.855 219.005C407.692 219.168 407.471 219.26 407.24 219.26H282.24C275.68 219.21 270 224.55 270 231.07Z" fill="#407BFF"/>
<path opacity="0.4" d="M270 231.07C270.005 234.208 271.255 237.215 273.474 239.433C275.694 241.651 278.702 242.897 281.84 242.9H407.24C407.471 242.9 407.692 242.992 407.855 243.155C408.018 243.318 408.11 243.539 408.11 243.77V244.71C408.11 244.941 408.018 245.162 407.855 245.325C407.692 245.488 407.471 245.58 407.24 245.58H281.24C279.324 245.587 277.426 245.214 275.656 244.483C273.885 243.753 272.276 242.679 270.923 241.323C269.569 239.968 268.497 238.358 267.769 236.586C267.041 234.814 266.671 232.916 266.68 231C266.772 227.123 268.385 223.438 271.171 220.74C273.956 218.042 277.692 216.548 281.57 216.58H407.24C407.471 216.58 407.692 216.672 407.855 216.835C408.018 216.998 408.11 217.219 408.11 217.45V218.39C408.11 218.621 408.018 218.842 407.855 219.005C407.692 219.168 407.471 219.26 407.24 219.26H282.24C275.68 219.21 270 224.55 270 231.07Z" fill="white"/>
<path d="M224.281 231.23C224.284 234.7 225.664 238.027 228.119 240.48C230.573 242.932 233.901 244.31 237.371 244.31H349.051V218.14H237.371C233.9 218.14 230.57 219.519 228.115 221.974C225.66 224.429 224.281 227.758 224.281 231.23Z" fill="#407BFF"/>
<path opacity="0.5" d="M349.051 218.14V244.31H237.361C233.953 244.216 230.717 242.796 228.34 240.352C225.963 237.909 224.633 234.634 224.633 231.225C224.633 227.816 225.963 224.542 228.34 222.098C230.717 219.654 233.953 218.234 237.361 218.14H349.051Z" fill="white"/>
<path opacity="0.2" d="M349.049 225.06V222.93L237.719 223.82L349.049 225.06Z" fill="black"/>
<path opacity="0.2" d="M349.05 234.23V232.59L299.07 234.38L349.05 234.23Z" fill="black"/>
<path opacity="0.2" d="M349.049 240.36V238.24L268.469 239.47L349.049 240.36Z" fill="black"/>
<path opacity="0.2" d="M237.181 220.7C235.034 220.706 232.963 221.499 231.361 222.93C232.062 224.284 232.615 225.708 233.011 227.18L344.691 228.05L233.271 228.33C233.442 229.23 233.532 230.144 233.541 231.06C233.532 232.144 233.404 233.224 233.161 234.28L308.381 235.93L232.451 236.81C231.803 238.627 230.958 240.367 229.931 242C227.636 240.414 225.907 238.136 224.997 235.499C224.087 232.861 224.044 230.002 224.873 227.338C225.703 224.674 227.362 222.345 229.608 220.691C231.855 219.036 234.571 218.142 237.361 218.14H349.051V220.7H237.181Z" fill="black"/>
<path d="M225.32 231.07C225.32 232.625 225.626 234.164 226.222 235.6C226.817 237.036 227.689 238.34 228.789 239.439C229.888 240.537 231.193 241.409 232.63 242.003C234.066 242.596 235.606 242.901 237.16 242.9H350.93C351.161 242.9 351.382 242.992 351.545 243.155C351.708 243.318 351.8 243.539 351.8 243.77V244.71C351.8 244.941 351.708 245.162 351.545 245.325C351.382 245.488 351.161 245.58 350.93 245.58H236.51C234.599 245.577 232.708 245.198 230.944 244.464C229.18 243.729 227.579 242.654 226.231 241.3C224.883 239.945 223.816 238.339 223.09 236.571C222.364 234.804 221.994 232.911 222 231C222.094 227.122 223.71 223.437 226.497 220.739C229.285 218.041 233.021 216.547 236.9 216.58H350.93C351.161 216.58 351.382 216.672 351.545 216.835C351.708 216.998 351.8 217.219 351.8 217.45V218.39C351.8 218.621 351.708 218.842 351.545 219.005C351.382 219.168 351.161 219.26 350.93 219.26H237.51C234.34 219.254 231.293 220.484 229.017 222.689C226.74 224.895 225.414 227.902 225.32 231.07Z" fill="#407BFF"/>
<path d="M237.719 227.75V238.24L241.519 234.44L245.199 238.12V227.75H237.719Z" fill="#263238"/>
<path d="M433.067 246.97H270.477V273.14H433.067V246.97Z" fill="#407BFF"/>
<path opacity="0.7" d="M433.067 246.97H270.477V273.14H433.067V246.97Z" fill="white"/>
<path opacity="0.2" d="M433.07 253.88V251.75L321.75 252.65L433.07 253.88Z" fill="black"/>
<path opacity="0.2" d="M433.072 263.06V261.42L383.102 263.2L433.072 263.06Z" fill="black"/>
<path opacity="0.2" d="M433.07 269.19V267.07L352.5 268.3L433.07 269.19Z" fill="black"/>
<path opacity="0.2" d="M306.829 247L304.469 266.51L307.249 263.51C308.194 267.07 309.946 270.365 312.369 273.14C314.102 270.855 315.484 268.324 316.469 265.63L392.409 264.76L317.189 263.12C317.423 262.055 317.547 260.97 317.559 259.88C317.551 258.967 317.46 258.057 317.289 257.16L428.709 256.88L316.999 256C316.602 254.53 316.052 253.106 315.359 251.75C316.957 250.313 319.03 249.519 321.179 249.52H433.069V247H306.829Z" fill="black"/>
<path d="M309.337 259.9C309.342 263.038 310.592 266.045 312.811 268.263C315.031 270.481 318.039 271.727 321.177 271.73H434.997C435.111 271.73 435.224 271.753 435.33 271.796C435.435 271.84 435.531 271.904 435.612 271.985C435.693 272.066 435.757 272.162 435.801 272.267C435.844 272.373 435.867 272.486 435.867 272.6V273.54C435.867 273.654 435.844 273.767 435.801 273.873C435.757 273.979 435.693 274.074 435.612 274.155C435.531 274.236 435.435 274.3 435.33 274.344C435.224 274.388 435.111 274.41 434.997 274.41H257.997C256.08 274.409 254.183 274.028 252.414 273.291C250.645 272.553 249.04 271.473 247.69 270.112C246.34 268.751 245.273 267.137 244.55 265.362C243.827 263.587 243.462 261.687 243.477 259.77C243.566 255.893 245.179 252.207 247.965 249.51C250.752 246.813 254.489 245.322 258.367 245.36H434.997C435.111 245.36 435.224 245.383 435.33 245.426C435.435 245.47 435.531 245.534 435.612 245.615C435.693 245.696 435.757 245.792 435.801 245.897C435.844 246.003 435.867 246.116 435.867 246.23V247.17C435.867 247.284 435.844 247.397 435.801 247.503C435.757 247.609 435.693 247.704 435.612 247.785C435.531 247.866 435.435 247.93 435.33 247.974C435.224 248.018 435.111 248.04 434.997 248.04H321.527C318.349 248.034 315.294 249.271 313.016 251.487C310.739 253.704 309.418 256.723 309.337 259.9Z" fill="#263238"/>
<path opacity="0.2" d="M309.337 259.9C309.342 263.038 310.592 266.045 312.811 268.263C315.031 270.481 318.039 271.727 321.177 271.73H434.997C435.111 271.73 435.224 271.753 435.33 271.796C435.435 271.84 435.531 271.904 435.612 271.985C435.693 272.066 435.757 272.162 435.801 272.267C435.844 272.373 435.867 272.486 435.867 272.6V273.54C435.867 273.654 435.844 273.767 435.801 273.873C435.757 273.979 435.693 274.074 435.612 274.155C435.531 274.236 435.435 274.3 435.33 274.344C435.224 274.388 435.111 274.41 434.997 274.41H257.997C256.08 274.409 254.183 274.028 252.414 273.291C250.645 272.553 249.04 271.473 247.69 270.112C246.34 268.751 245.273 267.137 244.55 265.362C243.827 263.587 243.462 261.687 243.477 259.77C243.566 255.893 245.179 252.207 247.965 249.51C250.752 246.813 254.489 245.322 258.367 245.36H434.997C435.111 245.36 435.224 245.383 435.33 245.426C435.435 245.47 435.531 245.534 435.612 245.615C435.693 245.696 435.757 245.792 435.801 245.897C435.844 246.003 435.867 246.116 435.867 246.23V247.17C435.867 247.284 435.844 247.397 435.801 247.503C435.757 247.609 435.693 247.704 435.612 247.785C435.531 247.866 435.435 247.93 435.33 247.974C435.224 248.018 435.111 248.04 434.997 248.04H321.527C318.349 248.034 315.294 249.271 313.016 251.487C310.739 253.704 309.418 256.723 309.337 259.9Z" fill="white"/>
<path d="M309.34 259.9C309.346 263.038 310.595 266.045 312.815 268.263C315.034 270.48 318.043 271.727 321.18 271.73H435C435.115 271.73 435.228 271.753 435.333 271.796C435.439 271.84 435.535 271.904 435.616 271.985C435.696 272.066 435.76 272.162 435.804 272.267C435.848 272.373 435.87 272.486 435.87 272.6V273.54C435.87 273.654 435.848 273.767 435.804 273.873C435.76 273.978 435.696 274.074 435.616 274.155C435.535 274.236 435.439 274.3 435.333 274.344C435.228 274.388 435.115 274.41 435 274.41H320.53C318.613 274.41 316.715 274.031 314.945 273.294C313.174 272.556 311.568 271.476 310.217 270.115C308.866 268.755 307.798 267.14 307.075 265.364C306.351 263.589 305.986 261.687 306 259.77C306.092 255.894 307.706 252.209 310.492 249.513C313.278 246.817 317.013 245.325 320.89 245.36H435C435.115 245.36 435.228 245.383 435.333 245.426C435.439 245.47 435.535 245.534 435.616 245.615C435.696 245.696 435.76 245.792 435.804 245.897C435.848 246.003 435.87 246.116 435.87 246.23V247.17C435.87 247.284 435.848 247.397 435.804 247.503C435.76 247.608 435.696 247.704 435.616 247.785C435.535 247.866 435.439 247.93 435.333 247.974C435.228 248.018 435.115 248.04 435 248.04H321.53C318.352 248.034 315.298 249.271 313.02 251.487C310.742 253.703 309.421 256.723 309.34 259.9Z" fill="#263238"/>
<path d="M321.75 256.58V267.07L325.55 263.27L329.23 266.95V256.58H321.75Z" fill="#407BFF"/>
<path opacity="0.4" d="M309.34 259.9C309.346 263.038 310.595 266.045 312.815 268.263C315.034 270.48 318.043 271.727 321.18 271.73H435C435.115 271.73 435.228 271.753 435.333 271.796C435.439 271.84 435.535 271.904 435.616 271.985C435.696 272.066 435.76 272.162 435.804 272.267C435.848 272.373 435.87 272.486 435.87 272.6V273.54C435.87 273.654 435.848 273.767 435.804 273.873C435.76 273.978 435.696 274.074 435.616 274.155C435.535 274.236 435.439 274.3 435.333 274.344C435.228 274.388 435.115 274.41 435 274.41H320.53C318.613 274.41 316.715 274.031 314.945 273.294C313.174 272.556 311.568 271.476 310.217 270.115C308.866 268.755 307.798 267.14 307.075 265.364C306.351 263.589 305.986 261.687 306 259.77C306.092 255.894 307.706 252.209 310.492 249.513C313.278 246.817 317.013 245.325 320.89 245.36H435C435.115 245.36 435.228 245.383 435.333 245.426C435.439 245.47 435.535 245.534 435.616 245.615C435.696 245.696 435.76 245.792 435.804 245.897C435.848 246.003 435.87 246.116 435.87 246.23V247.17C435.87 247.284 435.848 247.397 435.804 247.503C435.76 247.608 435.696 247.704 435.616 247.785C435.535 247.866 435.439 247.93 435.333 247.974C435.228 248.018 435.115 248.04 435 248.04H321.53C318.352 248.034 315.298 249.271 313.02 251.487C310.742 253.703 309.421 256.723 309.34 259.9Z" fill="white"/>
<path opacity="0.2" d="M267 270.15C268.348 271.502 269.951 272.574 271.715 273.305C273.479 274.037 275.37 274.412 277.28 274.41H267.63C265.713 274.409 263.816 274.028 262.047 273.291C260.278 272.553 258.673 271.473 257.323 270.112C255.973 268.751 254.906 267.137 254.183 265.362C253.46 263.587 253.095 261.687 253.11 259.77C253.199 255.893 254.812 252.207 257.598 249.51C260.385 246.813 264.122 245.322 268 245.36H277.64C273.763 245.325 270.027 246.817 267.241 249.513C264.455 252.209 262.842 255.894 262.75 259.77C262.732 261.696 263.098 263.606 263.828 265.389C264.558 267.171 265.636 268.79 267 270.15Z" fill="white"/>
<path d="M125.102 161.41H144.682C146.273 161.41 147.799 162.042 148.924 163.168C150.049 164.293 150.682 165.819 150.682 167.41V184.41C150.682 186.001 150.049 187.528 148.924 188.653C147.799 189.778 146.273 190.41 144.682 190.41H143.792L144.722 195.06L139.722 190.41H125.102C123.51 190.41 121.984 189.778 120.859 188.653C119.734 187.528 119.102 186.001 119.102 184.41V167.41C119.102 165.819 119.734 164.293 120.859 163.168C121.984 162.042 123.51 161.41 125.102 161.41Z" fill="#407BFF"/>
<path d="M144.612 175.89C144.612 177.812 144.042 179.692 142.974 181.29C141.906 182.889 140.388 184.134 138.612 184.87C136.835 185.606 134.881 185.798 132.996 185.423C131.11 185.048 129.378 184.122 128.019 182.763C126.659 181.404 125.734 179.672 125.359 177.786C124.984 175.901 125.176 173.946 125.912 172.17C126.647 170.394 127.893 168.876 129.492 167.808C131.09 166.74 132.969 166.17 134.892 166.17C137.47 166.17 139.942 167.194 141.765 169.017C143.588 170.84 144.612 173.312 144.612 175.89Z" fill="white"/>
<path d="M133.873 180.23C133.745 180.228 133.618 180.2 133.501 180.146C133.384 180.093 133.279 180.016 133.193 179.92L129.373 175.42C129.221 175.238 129.147 175.004 129.167 174.767C129.188 174.531 129.302 174.313 129.483 174.16C129.665 174.008 129.9 173.933 130.136 173.954C130.372 173.975 130.591 174.088 130.743 174.27L133.873 177.96L139.043 171.86C139.198 171.681 139.417 171.57 139.653 171.552C139.889 171.533 140.122 171.608 140.303 171.76C140.393 171.836 140.467 171.929 140.521 172.033C140.574 172.138 140.607 172.252 140.616 172.369C140.625 172.486 140.611 172.604 140.575 172.716C140.538 172.828 140.48 172.931 140.403 173.02L134.553 179.92C134.468 180.016 134.363 180.093 134.246 180.146C134.129 180.2 134.002 180.228 133.873 180.23Z" fill="#407BFF"/>
<path d="M240.33 275.72H200.97C197.082 275.72 193.93 278.872 193.93 282.76V348.42C193.93 352.308 197.082 355.46 200.97 355.46H240.33C244.218 355.46 247.37 352.308 247.37 348.42V282.76C247.37 278.872 244.218 275.72 240.33 275.72Z" fill="#407BFF"/>
<path opacity="0.5" d="M240.33 275.72H200.97C197.082 275.72 193.93 278.872 193.93 282.76V348.42C193.93 352.308 197.082 355.46 200.97 355.46H240.33C244.218 355.46 247.37 352.308 247.37 348.42V282.76C247.37 278.872 244.218 275.72 240.33 275.72Z" fill="white"/>
<path opacity="0.1" d="M236.41 355.46H200.71C199.819 355.46 198.936 355.284 198.113 354.943C197.29 354.601 196.542 354.101 195.912 353.47C195.282 352.84 194.783 352.091 194.443 351.267C194.103 350.444 193.928 349.561 193.93 348.67V282.5C193.928 281.609 194.103 280.727 194.443 279.904C194.783 279.08 195.283 278.332 195.913 277.703C196.542 277.073 197.29 276.573 198.114 276.233C198.937 275.893 199.819 275.718 200.71 275.72H236.41C234.612 275.72 232.887 276.434 231.616 277.706C230.344 278.977 229.63 280.702 229.63 282.5V348.67C229.63 350.469 230.344 352.194 231.615 353.467C232.886 354.741 234.611 355.457 236.41 355.46Z" fill="black"/>
<path d="M124.982 360.89H239.172V353.39H124.982V360.89Z" fill="#263238"/>
<path opacity="0.2" d="M124.982 360.89H239.172V353.39H124.982V360.89Z" fill="white"/>
<path opacity="0.2" d="M174.432 360.89H239.172V353.39H174.432V360.89Z" fill="white"/>
<path d="M204.429 310.71H120.159L107.319 244.39C106.987 242.687 107.036 240.933 107.462 239.251C107.888 237.57 108.682 236.004 109.785 234.666C110.888 233.328 112.274 232.25 113.843 231.511C115.411 230.771 117.125 230.389 118.859 230.39H179.189C181.919 230.389 184.564 231.339 186.67 233.076C188.776 234.813 190.211 237.229 190.729 239.91L204.429 310.71Z" fill="#407BFF"/>
<path opacity="0.6" d="M204.429 310.71H120.159L107.319 244.39C106.987 242.687 107.036 240.933 107.462 239.251C107.888 237.57 108.682 236.004 109.785 234.666C110.888 233.328 112.274 232.25 113.843 231.511C115.411 230.771 117.125 230.389 118.859 230.39H179.189C181.919 230.389 184.564 231.339 186.67 233.076C188.776 234.813 190.211 237.229 190.729 239.91L204.429 310.71Z" fill="white"/>
<path opacity="0.1" d="M144.099 310.71H120.159L107.319 244.39C106.987 242.687 107.036 240.933 107.462 239.251C107.888 237.57 108.682 236.004 109.785 234.666C110.888 233.328 112.274 232.25 113.843 231.511C115.411 230.771 117.125 230.389 118.859 230.39C121.587 230.391 124.23 231.342 126.334 233.079C128.437 234.816 129.871 237.231 130.389 239.91L144.099 310.71Z" fill="black"/>
<path d="M242.269 309.9H122.889C119.619 309.9 116.969 312.55 116.969 315.82V349.54C116.969 352.809 119.619 355.46 122.889 355.46H242.269C245.538 355.46 248.189 352.809 248.189 349.54V315.82C248.189 312.55 245.538 309.9 242.269 309.9Z" fill="#407BFF"/>
<path opacity="0.6" d="M242.269 309.9H122.889C119.619 309.9 116.969 312.55 116.969 315.82V349.54C116.969 352.809 119.619 355.46 122.889 355.46H242.269C245.538 355.46 248.189 352.809 248.189 349.54V315.82C248.189 312.55 245.538 309.9 242.269 309.9Z" fill="white"/>
<path opacity="0.1" d="M173.979 309.9H122.889C119.619 309.9 116.969 312.55 116.969 315.82V349.54C116.969 352.809 119.619 355.46 122.889 355.46H173.979C177.248 355.46 179.899 352.809 179.899 349.54V315.82C179.899 312.55 177.248 309.9 173.979 309.9Z" fill="black"/>
<path d="M186.645 217.38C195.295 219.46 200.925 227.9 208.145 231.43C208.235 231.51 208.065 231.63 208.145 231.72L204.795 234.45C204.268 235.199 203.969 236.085 203.935 237C203.935 237.51 204.055 237.64 204.095 237.57C204.123 237 204.017 236.431 203.785 235.91C202.505 232.24 200.025 228.13 197.915 224.56C196.695 222.5 195.365 220.4 194.175 218.35C193.643 217.432 193.438 216.361 193.594 215.311C193.749 214.261 194.256 213.296 195.031 212.571C195.807 211.847 196.805 211.407 197.863 211.323C198.92 211.239 199.975 211.517 200.855 212.11C202.982 213.559 205.023 215.131 206.965 216.82C212.885 222.22 220.565 229.48 220.375 238.34C220.375 241.26 218.315 245.79 215.005 247C202.945 252.87 191.535 242.36 182.895 235.93C182.555 235.7 182.265 235.53 182.115 235.44C181.965 235.35 181.955 235.35 182.305 235.44C170.465 232.07 174.595 214.98 186.675 217.44L186.645 217.38Z" fill="#263238"/>
<path opacity="0.2" d="M202.101 241C200.981 240.9 199.931 240.75 198.891 240.57C197.851 240.39 196.631 240.16 195.531 239.92C194.431 239.68 193.391 239.39 192.341 239.11C190.241 238.55 188.211 237.86 186.211 237.11L186.031 237.04C187.063 234.972 188.698 233.267 190.721 232.15C190.721 232.15 196.851 234.08 202.101 241Z" fill="black"/>
<path d="M240.703 341.2L252.943 342.1L252.563 356.57L242.343 355.84L240.703 341.2Z" fill="#E4897B"/>
<path opacity="0.2" d="M240.711 341.21L252.941 342.1L252.731 350.21L241.621 349.4L240.711 341.21Z" fill="black"/>
<path d="M240.883 360.89H243.553L244.273 359.81L245.673 360.9H261.763C261.861 359.634 261.623 358.364 261.073 357.22C261.073 357.22 256.253 356.79 254.403 354.39C254.335 354.299 254.242 354.228 254.136 354.188C254.03 354.147 253.914 354.137 253.803 354.16C252.203 354.5 245.803 355.71 242.343 354.46C242.257 354.426 242.163 354.414 242.071 354.424C241.979 354.433 241.891 354.465 241.814 354.516C241.736 354.567 241.672 354.635 241.627 354.716C241.581 354.797 241.556 354.887 241.553 354.98C241.48 356.964 241.256 358.94 240.883 360.89Z" fill="#263238"/>
<path d="M173.66 278.66C173.66 278.66 155.45 312.66 177.05 312.66C204.24 312.66 230.13 305.81 230.13 305.81C230.13 305.81 228.65 320.31 239.13 347.81L253.82 347.69C253.82 347.69 259.54 288.6 248.58 278.69C239.76 270.69 208.44 273.26 208.44 273.26L173.66 278.66Z" fill="#407BFF"/>
<path opacity="0.2" d="M233.36 325.41C233.17 326.13 232.99 326.83 232.8 327.52C229.37 313.2 230.13 305.77 230.13 305.77C230.13 305.77 204.24 312.62 177.05 312.62C163.91 312.62 165.5 300.06 168.77 290.21C178.03 284.33 187.77 279 194.77 275.37L208.44 273.24C208.44 273.24 214.07 272.77 221.24 272.85C231.84 277.58 242 290.62 233.36 325.41Z" fill="black"/>
<path d="M207.639 273.71C191.839 282.44 151.499 280.01 144.299 278.79C143.409 266.89 142.299 247.87 138.549 233.79C138.132 232.283 138.027 230.706 138.24 229.157C138.453 227.608 138.979 226.118 139.786 224.779C140.594 223.44 141.666 222.279 142.937 221.368C144.208 220.457 145.651 219.815 147.179 219.48C158.373 217.285 169.776 216.336 181.179 216.65C185.179 216.79 189.459 218.73 190.739 222.52C196.589 240 205.929 254.17 207.639 273.71Z" fill="#263238"/>
<path d="M171.263 225.78C164.633 226.12 158.873 220.47 155.773 218.51C159.123 216.17 160.773 211.97 161.393 209.64C161.683 208.64 161.803 207.94 161.803 207.94L173.063 212.94C172.429 214.358 172.309 215.953 172.723 217.45C174.133 218.077 175.247 219.223 175.833 220.65C175.829 220.683 175.829 220.717 175.833 220.75C176.703 223.05 177.803 225.45 171.263 225.78Z" fill="#E4897B"/>
<path opacity="0.2" d="M175.871 220.76C169.161 223.53 162.591 215.43 161.391 209.64C161.681 208.64 161.801 207.94 161.801 207.94L173.061 212.94C172.426 214.358 172.306 215.953 172.721 217.45C174.13 218.077 175.244 219.223 175.831 220.65C175.839 220.688 175.852 220.725 175.871 220.76Z" fill="black"/>
<path d="M171.665 225.76L169.165 223.53L165.305 225.46C165.305 225.46 167.425 227.62 171.665 225.76Z" fill="#407BFF"/>
<path opacity="0.5" d="M171.665 225.76L169.165 223.53L165.305 225.46C165.305 225.46 167.425 227.62 171.665 225.76Z" fill="white"/>
<path d="M157.372 216.86C157.372 216.86 162.122 223.35 169.162 223.53C167.842 224.219 166.675 225.169 165.733 226.323C164.792 227.476 164.094 228.809 163.682 230.24C161.14 229.385 158.906 227.801 157.26 225.685C155.613 223.568 154.626 221.014 154.422 218.34C154.775 217.893 155.223 217.528 155.733 217.272C156.242 217.017 156.802 216.876 157.372 216.86Z" fill="#407BFF"/>
<path d="M171.664 225.76L175.004 222.9L178.824 223.99C178.824 223.99 175.544 227.44 171.664 225.76Z" fill="#407BFF"/>
<path opacity="0.5" d="M171.664 225.76L175.004 222.9L178.824 223.99C178.824 223.99 175.544 227.44 171.664 225.76Z" fill="white"/>
<path d="M172.719 217.46C172.719 217.46 175.139 220.6 175.039 222.9C178.249 223.77 179.349 228.6 179.349 228.6C179.349 228.6 180.659 221.6 175.849 217.99C174.886 217.491 173.792 217.305 172.719 217.46Z" fill="#407BFF"/>
<path opacity="0.8" d="M157.372 216.86C157.372 216.86 162.122 223.35 169.162 223.53C167.842 224.219 166.675 225.169 165.733 226.323C164.792 227.476 164.094 228.809 163.682 230.24C161.14 229.385 158.906 227.801 157.26 225.685C155.613 223.568 154.626 221.014 154.422 218.34C154.775 217.893 155.223 217.528 155.733 217.272C156.242 217.017 156.802 216.876 157.372 216.86Z" fill="white"/>
<path opacity="0.8" d="M172.719 217.46C172.719 217.46 175.139 220.6 175.039 222.9C178.249 223.77 179.349 228.6 179.349 228.6C179.349 228.6 180.659 221.6 175.849 217.99C174.886 217.491 173.792 217.305 172.719 217.46Z" fill="white"/>
<path d="M217.258 342.36L229.458 341.1L231.618 355.41L221.428 356.48L217.258 342.36Z" fill="#E4897B"/>
<path opacity="0.2" d="M217.258 342.37L229.468 341.1L230.678 349.12L219.598 350.27L217.258 342.37Z" fill="black"/>
<path d="M219.664 360.89H222.324L223.054 359.81L224.454 360.9H240.544C240.641 359.633 240.399 358.363 239.844 357.22C239.844 357.22 235.034 356.79 233.174 354.39C233.108 354.3 233.017 354.23 232.913 354.189C232.808 354.148 232.694 354.138 232.584 354.16C230.984 354.5 224.584 355.71 221.114 354.46C221.028 354.426 220.936 354.413 220.844 354.423C220.752 354.433 220.664 354.465 220.588 354.516C220.511 354.567 220.448 354.636 220.404 354.717C220.36 354.798 220.336 354.888 220.334 354.98C220.261 356.964 220.038 358.94 219.664 360.89Z" fill="#263238"/>
<path d="M144.72 278.66C144.72 278.66 137.11 303.76 157.58 310.66C178.05 317.56 198.27 305.37 198.27 305.37C198.27 305.37 198.27 310.66 216.51 349.51L231.62 346.66C231.62 346.66 226.29 288.51 219.62 278.66C212.95 268.81 179.47 273.23 179.47 273.23L144.72 278.66Z" fill="#407BFF"/>
<path d="M198.473 210.81L195.113 214.73C190.353 217.33 188.063 210.63 188.063 210.63L184.523 206.63C184.131 206.112 183.936 205.472 183.973 204.823C184.01 204.175 184.275 203.561 184.723 203.09L187.043 200.33C187.488 199.735 188.147 199.337 188.88 199.219C189.614 199.102 190.364 199.274 190.973 199.7L194.583 202.94C195.3 203.533 195.856 204.296 196.203 205.16L198.473 210.81Z" fill="#E4897B"/>
<path opacity="0.2" d="M172.895 255.31C172.895 255.31 163.645 274.18 144.305 278.79C143.535 268.49 142.665 251.88 139.945 239.53C143.795 237.22 154.425 234.73 154.425 234.73C154.463 239.353 155.443 243.919 157.305 248.15C162.47 246.126 167.875 244.782 173.385 244.15C176.205 243.79 172.895 255.31 172.895 255.31Z" fill="black"/>
<path d="M153.428 235.8C153.976 235.376 154.452 234.866 154.838 234.29C154.948 234.11 154.938 234.13 154.918 234.21C154.898 234.29 154.718 234.77 154.598 235.21C153.158 241.12 152.298 248.37 154.038 254.21C154.188 254.64 154.158 254.58 153.768 254.46L156.398 256.86C155.976 256.296 155.454 255.815 154.858 255.44C154.018 254.77 151.798 254.33 151.318 254.69C151.078 254.88 151.748 254.8 152.408 254.57C157.968 252.52 163.688 248.42 168.968 245.41C169.881 244.896 170.939 244.7 171.975 244.855C173.012 245.009 173.967 245.505 174.69 246.264C175.413 247.022 175.862 248 175.967 249.043C176.071 250.085 175.825 251.133 175.268 252.02C170.108 259.59 159.448 272.97 148.918 270.65C146.453 270.047 144.275 268.604 142.758 266.57L145.388 268.97C140.298 266.12 137.828 261.46 136.388 256.68C134.029 247.869 134.126 238.58 136.668 229.82C137.668 226.76 138.948 223.64 141.728 221.37C143.644 219.899 146.058 219.233 148.457 219.514C150.857 219.795 153.052 221 154.576 222.874C156.101 224.747 156.835 227.142 156.622 229.548C156.41 231.954 155.267 234.183 153.438 235.76L153.428 235.8Z" fill="#263238"/>
<path d="M193.203 218.11L191.203 215.87C194.08 214.23 196.701 212.178 198.983 209.78L202.583 210.72C202.583 210.72 199.333 217.62 193.203 218.11Z" fill="#407BFF"/>
<path opacity="0.5" d="M193.203 218.11L191.203 215.87C194.08 214.23 196.701 212.178 198.983 209.78L202.583 210.72C202.583 210.72 199.333 217.62 193.203 218.11Z" fill="white"/>
<path opacity="0.9" d="M218.088 219.57L215.188 228.47L204.938 246.58C204.938 246.58 179.998 250.08 179.438 242.74C178.928 236.16 180.628 225.45 180.988 223.3L181.048 222.91C194.998 224.27 203.888 229.46 203.888 229.46C208.218 222.51 218.088 219.57 218.088 219.57Z" fill="white"/>
<path opacity="0.1" d="M218.088 219.57L215.188 228.47L204.938 246.58C204.938 246.58 179.998 250.08 179.438 242.74C178.928 236.16 180.628 225.45 180.988 223.3C191.158 224.23 203.898 230.4 203.898 230.4C205.288 226 218.088 219.57 218.088 219.57Z" fill="black"/>
<path d="M214.928 249C214.928 249 210.308 251.15 202.458 257.3C202.009 257.659 201.492 257.924 200.938 258.08C200.201 258.303 199.418 258.327 198.668 258.15C191.943 256.537 185.113 255.394 178.228 254.73C178.228 254.73 177.348 237.73 179.168 225.09C179.168 225.09 193.168 226.3 203.888 230.42C204.198 230.17 214.118 222.14 220.428 221.06C220.438 221 212.498 237.4 214.928 249Z" fill="#407BFF"/>
<path opacity="0.1" d="M214.935 249C214.935 249 210.315 251.15 202.465 257.3C202.016 257.659 201.499 257.924 200.945 258.08C201.405 251.18 202.695 233.29 203.895 230.42C204.205 230.17 214.125 222.14 220.435 221.06C220.445 221 212.505 237.4 214.935 249Z" fill="black"/>
<path d="M202.998 230.06C203.706 230.148 204.42 229.966 204.998 229.55C204.998 229.55 203.618 242.35 202.328 257.42C202.089 257.892 201.678 258.254 201.179 258.431C200.68 258.608 200.132 258.586 199.648 258.37C199.648 258.37 201.068 239.13 202.998 230.06Z" fill="#407BFF"/>
<path opacity="0.2" d="M202.998 230.06C203.706 230.148 204.42 229.966 204.998 229.55C204.998 229.55 203.618 242.35 202.328 257.42C202.089 257.892 201.678 258.254 201.179 258.431C200.68 258.608 200.132 258.586 199.648 258.37C199.648 258.37 201.068 239.13 202.998 230.06Z" fill="white"/>
<path opacity="0.7" d="M207.143 233.49C207.143 233.49 211.843 229.49 215.783 228.6L215.173 231.05C211.999 232.349 209.101 234.239 206.633 236.62L207.143 233.49Z" fill="white"/>
<path opacity="0.1" d="M181.609 247.42C181.609 247.42 193.609 249.42 196.909 250.55V255.4C196.909 255.4 186.909 253.18 181.469 252.6L181.609 247.42Z" fill="black"/>
<path opacity="0.7" d="M209.555 229.27L209.305 230.41C210.886 229.357 212.56 228.45 214.305 227.7L214.745 226.22C212.882 226.991 211.135 228.018 209.555 229.27Z" fill="white"/>
<path d="M171.258 245.34L172.188 250.15C174.888 254.54 179.928 250.09 179.928 250.09L183.208 248.93C183.772 248.687 184.232 248.253 184.506 247.704C184.781 247.155 184.852 246.526 184.708 245.93L184.088 242.56C184.005 241.859 183.651 241.218 183.101 240.775C182.552 240.332 181.85 240.122 181.148 240.19L178.148 240.72C177.277 240.879 176.457 241.246 175.758 241.79L171.258 245.34Z" fill="#E4897B"/>
<path d="M169.843 244.3L173.223 243.83C173.125 246.907 173.663 249.971 174.803 252.83L172.603 257.23C172.603 257.23 167.063 249.8 169.843 244.3Z" fill="#407BFF"/>
<path opacity="0.5" d="M169.843 244.3L173.223 243.83C173.125 246.907 173.663 249.971 174.803 252.83L172.603 257.23C172.603 257.23 167.063 249.8 169.843 244.3Z" fill="white"/>
<path d="M185.662 203.16L182.432 202.66C182.4 202.656 182.368 202.646 182.34 202.63C182.311 202.613 182.286 202.591 182.267 202.565C182.247 202.539 182.233 202.509 182.225 202.477C182.218 202.445 182.217 202.412 182.222 202.38C182.227 202.347 182.239 202.315 182.256 202.286C182.273 202.258 182.296 202.233 182.323 202.214C182.35 202.194 182.381 202.18 182.413 202.172C182.446 202.165 182.479 202.164 182.512 202.17L185.732 202.67C185.765 202.673 185.796 202.684 185.825 202.7C185.853 202.716 185.878 202.738 185.898 202.764C185.918 202.79 185.932 202.82 185.939 202.852C185.947 202.884 185.948 202.917 185.942 202.95C185.932 203.014 185.898 203.073 185.845 203.112C185.793 203.151 185.727 203.168 185.662 203.16Z" fill="#263238"/>
<path d="M185.941 198.63C184.941 201.95 182.531 205.06 180.221 203.05C179.768 202.582 179.449 202.001 179.3 201.367C179.15 200.733 179.175 200.071 179.371 199.45C180.051 196.01 183.271 191.9 183.271 191.9C183.271 191.9 185.531 190.78 186.341 194.36C186.55 195.795 186.413 197.259 185.941 198.63Z" fill="#263238"/>
<path opacity="0.5" d="M185.941 198.63C184.941 201.95 182.531 205.06 180.221 203.05C179.768 202.582 179.449 202.001 179.3 201.367C179.15 200.733 179.175 200.071 179.371 199.45C180.502 198.562 181.703 197.766 182.961 197.07C182.961 197.07 184.391 196.52 185.941 198.63Z" fill="white"/>
<path d="M178.999 189.26C171.879 184.65 162.789 188.58 161.669 196.16C160.549 203.74 159.959 208.91 163.919 213.16C171.789 221.51 178.209 218.69 181.739 211.65C184.859 205.27 186.159 193.94 178.999 189.26Z" fill="#E4897B"/>
<path opacity="0.2" d="M172.775 201.15C171.948 200.584 170.932 200.365 169.945 200.54C170.84 200.926 171.801 201.133 172.775 201.15Z" fill="black"/>
<path opacity="0.2" d="M172.581 201.82C172.163 201.646 171.712 201.564 171.26 201.581C170.807 201.599 170.364 201.714 169.961 201.92C170.831 202.075 171.725 202.041 172.581 201.82Z" fill="black"/>
<path d="M183.279 195C181.279 197.85 176.149 193 171.789 191.17C171.439 191.019 171.058 190.95 170.676 190.968C170.295 190.986 169.923 191.09 169.587 191.274C169.252 191.457 168.963 191.713 168.742 192.025C168.52 192.336 168.372 192.693 168.309 193.07C168.245 193.4 168.245 193.74 168.309 194.07C169.059 197.22 166.479 198.82 166.819 200.62C167.629 204.8 164.319 204.99 160.349 202.39C159.769 202.084 159.282 201.628 158.939 201.07C156.889 199.81 156.449 197.22 157.139 194.07C157.558 192.261 158.175 190.503 158.979 188.83C161.539 183.37 170.819 182.59 170.819 182.59C170.819 182.59 179.589 181.15 182.709 186.39C185.829 191.63 183.279 195 183.279 195Z" fill="#263238"/>
<path d="M173.999 201.7C173.849 202.35 174.079 202.96 174.509 203.05C174.939 203.14 175.399 202.68 175.509 202.05C175.619 201.42 175.419 200.79 174.989 200.7C174.559 200.61 174.149 201.05 173.999 201.7Z" fill="#263238"/>
<path d="M181.65 203.45C181.51 204.1 181.74 204.7 182.17 204.79C182.6 204.88 183.06 204.43 183.17 203.79C183.28 203.15 183.09 202.54 182.66 202.45C182.23 202.36 181.8 202.79 181.65 203.45Z" fill="#263238"/>
<path d="M172.142 199.38C172.074 199.372 172.009 199.348 171.952 199.31C171.87 199.246 171.816 199.154 171.801 199.051C171.786 198.948 171.812 198.844 171.872 198.76C172.226 198.245 172.699 197.822 173.251 197.528C173.803 197.234 174.417 197.077 175.042 197.07C175.094 197.071 175.145 197.083 175.192 197.104C175.239 197.126 175.281 197.157 175.315 197.195C175.35 197.234 175.377 197.279 175.393 197.327C175.41 197.376 175.416 197.428 175.412 197.48C175.41 197.531 175.397 197.581 175.375 197.628C175.353 197.674 175.322 197.716 175.284 197.75C175.246 197.784 175.201 197.811 175.153 197.828C175.105 197.845 175.053 197.853 175.002 197.85C174.507 197.866 174.023 197.998 173.588 198.236C173.154 198.474 172.782 198.811 172.502 199.22C172.463 199.277 172.408 199.322 172.345 199.35C172.281 199.378 172.211 199.389 172.142 199.38Z" fill="#263238"/>
<path d="M185.081 201.56C185.019 201.539 184.964 201.503 184.918 201.456C184.873 201.409 184.84 201.352 184.821 201.29C184.701 200.813 184.469 200.371 184.144 200.002C183.818 199.634 183.409 199.348 182.951 199.17C182.902 199.155 182.856 199.13 182.817 199.098C182.777 199.065 182.745 199.024 182.721 198.978C182.698 198.932 182.684 198.882 182.681 198.831C182.677 198.78 182.684 198.728 182.701 198.68C182.716 198.63 182.74 198.584 182.773 198.544C182.806 198.505 182.846 198.472 182.892 198.447C182.937 198.423 182.987 198.408 183.039 198.404C183.09 198.399 183.142 198.404 183.191 198.42C183.772 198.639 184.292 198.993 184.708 199.454C185.124 199.915 185.423 200.469 185.581 201.07C185.609 201.17 185.597 201.278 185.546 201.37C185.496 201.461 185.411 201.529 185.311 201.56C185.236 201.58 185.157 201.58 185.081 201.56Z" fill="#263238"/>
<path opacity="0.5" d="M166.851 200.68C167.661 204.86 164.351 205.05 160.381 202.45C159.801 202.145 159.314 201.689 158.971 201.13C156.921 199.87 156.481 197.28 157.171 194.13C160.008 194.637 162.933 194.179 165.481 192.83C165.194 193.389 164.72 193.828 164.141 194.07C164.86 194.26 165.615 194.274 166.341 194.11C167.067 193.946 167.742 193.61 168.311 193.13C168.246 193.46 168.246 193.8 168.311 194.13C169.091 197.28 166.511 198.88 166.851 200.68Z" fill="white"/>
<path d="M179.001 202.42L177.391 207.8C177.827 208.053 178.312 208.21 178.814 208.26C179.316 208.31 179.823 208.252 180.301 208.09C180.366 206.119 179.918 204.165 179.001 202.42Z" fill="#DE5753"/>
<path d="M176.91 211.8H176.79C176.65 211.8 173.49 210.64 172.44 208.55C172.395 208.462 172.386 208.361 172.416 208.267C172.446 208.173 172.512 208.095 172.6 208.05C172.687 208.005 172.789 207.996 172.883 208.026C172.977 208.056 173.055 208.122 173.1 208.21C174.02 210.03 177 211.08 177.03 211.09C177.077 211.106 177.12 211.131 177.158 211.164C177.195 211.196 177.225 211.236 177.247 211.281C177.268 211.326 177.28 211.375 177.282 211.424C177.285 211.474 177.277 211.523 177.26 211.57C177.23 211.638 177.181 211.697 177.119 211.738C177.057 211.778 176.984 211.8 176.91 211.8Z" fill="#263238"/>
<path d="M166.862 202.76C166.862 202.76 166.712 207.25 168.482 209.39C168.482 209.39 171.242 206.06 173.602 206.08C175.962 206.1 176.912 208.95 176.912 208.95L176.052 209.39C176.052 209.39 174.862 207.26 173.602 207.11C172.342 206.96 169.292 209.89 169.962 211.43C170.632 212.97 173.602 211.43 173.602 211.43L174.782 212.09C174.782 212.09 173.012 215.02 176.452 214.75C179.892 214.48 180.192 210.29 176.912 209.87L177.392 208.93C177.392 208.93 180.762 209.06 181.392 212.21C182.022 215.36 180.392 220.21 172.542 219.36C168.392 218.91 160.822 214.27 164.362 203.87L166.862 202.76Z" fill="#263238"/>
<path d="M180.3 202C180.241 201.999 180.185 201.978 180.14 201.94C179.899 201.732 179.612 201.584 179.302 201.509C178.992 201.435 178.669 201.435 178.36 201.51C178.328 201.521 178.295 201.525 178.262 201.522C178.229 201.519 178.197 201.509 178.168 201.493C178.138 201.477 178.113 201.455 178.093 201.429C178.072 201.403 178.058 201.372 178.05 201.34C178.031 201.278 178.037 201.21 178.067 201.153C178.097 201.095 178.148 201.051 178.21 201.03C178.6 200.935 179.007 200.933 179.398 201.025C179.789 201.118 180.153 201.301 180.46 201.56C180.484 201.582 180.503 201.61 180.516 201.64C180.529 201.67 180.536 201.702 180.536 201.735C180.536 201.768 180.529 201.8 180.516 201.83C180.503 201.861 180.484 201.888 180.46 201.91C180.42 201.959 180.363 201.991 180.3 202Z" fill="#263238"/>
<path d="M170.831 199.62H170.781L163.001 197.94C162.806 197.892 162.604 197.884 162.405 197.915C162.207 197.946 162.017 198.016 161.846 198.121C161.675 198.226 161.526 198.364 161.409 198.527C161.291 198.69 161.207 198.874 161.161 199.07V199.22C161.145 199.285 161.104 199.341 161.047 199.376C160.99 199.41 160.921 199.421 160.856 199.405C160.791 199.389 160.735 199.348 160.701 199.291C160.666 199.233 160.655 199.165 160.671 199.1V198.95C160.73 198.689 160.84 198.443 160.995 198.226C161.151 198.009 161.348 197.825 161.575 197.685C161.802 197.546 162.056 197.453 162.319 197.412C162.583 197.372 162.852 197.385 163.111 197.45L170.881 199.12C170.914 199.127 170.944 199.14 170.971 199.159C170.998 199.178 171.021 199.202 171.039 199.23C171.056 199.258 171.068 199.289 171.074 199.322C171.08 199.354 171.079 199.388 171.071 199.42C171.058 199.475 171.028 199.524 170.985 199.56C170.941 199.596 170.888 199.617 170.831 199.62Z" fill="#263238"/>
<path d="M183.211 206.82C183.118 206.83 183.024 206.83 182.931 206.82L181.731 206.53C181.236 206.347 180.819 206.002 180.544 205.552C180.27 205.102 180.156 204.573 180.221 204.05V201.71C180.222 201.661 180.236 201.614 180.263 201.573C180.289 201.533 180.327 201.5 180.371 201.48C181.305 201.138 182.325 201.103 183.281 201.38C184.28 201.527 185.191 202.036 185.841 202.81C185.858 202.846 185.866 202.885 185.866 202.925C185.866 202.964 185.858 203.004 185.841 203.04L184.731 205.6C184.616 205.924 184.413 206.211 184.144 206.426C183.876 206.642 183.552 206.778 183.211 206.82ZM180.751 201.82V204C180.751 205 181.191 205.82 181.881 206L183.071 206.29C183.531 206.4 184.071 206.01 184.351 205.36L185.401 202.94C184.799 202.364 184.041 201.977 183.221 201.83C182.411 201.612 181.557 201.619 180.751 201.85V201.82Z" fill="#263238"/>
<path d="M174.599 204.71C174.367 204.708 174.136 204.681 173.909 204.63L172.219 204.22C171.767 204.113 171.363 203.858 171.071 203.496C170.78 203.134 170.617 202.685 170.609 202.22V199.39C170.608 199.338 170.623 199.287 170.651 199.244C170.68 199.201 170.721 199.168 170.769 199.15C170.769 199.15 172.049 198.67 174.769 199.32C176.079 199.568 177.311 200.127 178.359 200.95C178.396 200.993 178.416 201.048 178.416 201.105C178.416 201.161 178.396 201.216 178.359 201.26L177.119 203.32C176.855 203.749 176.484 204.103 176.043 204.347C175.601 204.59 175.104 204.715 174.599 204.71ZM171.079 199.56V202.19C171.079 202.549 171.201 202.898 171.424 203.179C171.647 203.461 171.959 203.658 172.309 203.74L173.999 204.14C174.499 204.262 175.025 204.222 175.5 204.024C175.975 203.826 176.375 203.481 176.639 203.04L177.769 201.17C176.803 200.497 175.711 200.025 174.559 199.78C173.43 199.451 172.242 199.376 171.079 199.56Z" fill="#263238"/>
<path d="M157.513 201.77C157.758 202.628 158.171 203.429 158.727 204.128C159.283 204.826 159.971 205.408 160.753 205.84C162.853 206.98 164.453 205.23 164.333 202.97C164.213 200.97 162.983 197.89 160.653 197.68C160.143 197.643 159.632 197.734 159.167 197.944C158.701 198.153 158.294 198.475 157.983 198.88C157.672 199.285 157.466 199.761 157.384 200.266C157.302 200.77 157.346 201.287 157.513 201.77Z" fill="#E4897B"/>
<path d="M153.502 275.72H114.142C110.253 275.72 107.102 278.872 107.102 282.76V348.42C107.102 352.308 110.253 355.46 114.142 355.46H153.502C157.39 355.46 160.542 352.308 160.542 348.42V282.76C160.542 278.872 157.39 275.72 153.502 275.72Z" fill="#407BFF"/>
<path opacity="0.6" d="M153.502 275.72H114.142C110.253 275.72 107.102 278.872 107.102 282.76V348.42C107.102 352.308 110.253 355.46 114.142 355.46H153.502C157.39 355.46 160.542 352.308 160.542 348.42V282.76C160.542 278.872 157.39 275.72 153.502 275.72Z" fill="white"/>
<path opacity="0.2" d="M149.582 355.46H113.892C112.091 355.46 110.364 354.744 109.09 353.471C107.817 352.198 107.102 350.471 107.102 348.67V282.5C107.102 281.609 107.277 280.726 107.619 279.903C107.96 279.08 108.46 278.332 109.091 277.702C109.722 277.072 110.47 276.573 111.294 276.233C112.118 275.893 113 275.718 113.892 275.72H149.582C147.783 275.72 146.059 276.434 144.787 277.706C143.516 278.977 142.802 280.702 142.802 282.5V348.67C142.802 350.469 143.516 352.194 144.787 353.467C146.058 354.741 147.782 355.457 149.582 355.46Z" fill="black"/>
</svg>
