<svg width="20" height="20" viewBox="0 0 20 20" fill="none" xmlns="http://www.w3.org/2000/svg">
<path d="M19 9.99791C19.0028 11.7847 18.4714 13.5315 17.474 15.0139C16.6514 16.2409 15.5391 17.2463 14.2356 17.9412C12.932 18.6361 11.4772 18.999 10 18.9979C8.52277 18.999 7.06804 18.6361 5.76444 17.9412C4.46085 17.2463 3.34858 16.2409 2.526 15.0139C1.74273 13.8463 1.2439 12.5115 1.06951 11.1164C0.895109 9.72124 1.05 8.30467 1.52175 6.9802C1.9935 5.65573 2.769 4.46021 3.78607 3.48947C4.80314 2.51873 6.0335 1.79978 7.37851 1.39025C8.72352 0.980724 10.1458 0.892009 11.5312 1.13122C12.9167 1.37043 14.2269 1.93091 15.3567 2.76773C16.4865 3.60455 17.4046 4.69444 18.0373 5.95002C18.67 7.20559 18.9997 8.59194 19 9.99791Z" stroke="#727375" stroke-width="1.5"/>
<mask id="path-2-inside-1_3074_14244" fill="white">
<path d="M11.2501 6.99805C11.2501 7.68805 10.6901 8.24805 10.0001 8.24805V9.74805C10.7294 9.74805 11.4289 9.45832 11.9446 8.94259C12.4603 8.42687 12.7501 7.72739 12.7501 6.99805H11.2501ZM10.0001 8.24805C9.31008 8.24805 8.75008 7.68805 8.75008 6.99805H7.25008C7.25008 7.72739 7.53981 8.42687 8.05553 8.94259C8.57126 9.45832 9.27073 9.74805 10.0001 9.74805V8.24805ZM8.75008 6.99805C8.75008 6.30805 9.31008 5.74805 10.0001 5.74805V4.24805C9.27073 4.24805 8.57126 4.53778 8.05553 5.0535C7.53981 5.56923 7.25008 6.2687 7.25008 6.99805H8.75008ZM10.0001 5.74805C10.6901 5.74805 11.2501 6.30805 11.2501 6.99805H12.7501C12.7501 6.2687 12.4603 5.56923 11.9446 5.0535C11.4289 4.53778 10.7294 4.24805 10.0001 4.24805V5.74805ZM3.16608 15.854L2.44708 15.64L2.33008 16.032L2.59708 16.342L3.16608 15.854ZM16.8341 15.854L17.4041 16.343L17.6701 16.033L17.5531 15.64L16.8341 15.854ZM7.00008 13.748H13.0001V12.248H7.00008V13.748ZM7.00008 12.248C5.9771 12.2478 4.98136 12.5778 4.16101 13.1889C3.34067 13.8001 2.73954 14.6598 2.44708 15.64L3.88508 16.068C4.08533 15.3975 4.49665 14.8095 5.05789 14.3915C5.61912 13.9735 6.30029 13.7479 7.00008 13.748V12.248ZM10.0001 18.248C8.8095 18.2494 7.63279 17.9924 6.55116 17.4949C5.46954 16.9973 4.50874 16.271 3.73508 15.366L2.59708 16.342C3.51154 17.411 4.64692 18.27 5.92497 18.8578C7.20301 19.4457 8.59333 19.7494 10.0001 19.748V18.248ZM13.0001 13.748C14.4701 13.748 15.7151 14.726 16.1151 16.068L17.5531 15.64C17.2606 14.6598 16.6595 13.8001 15.8391 13.1889C15.0188 12.5778 14.0231 12.2478 13.0001 12.248V13.748ZM16.2651 15.366C15.4914 16.271 14.5306 16.9973 13.449 17.4949C12.3674 17.9924 11.1907 18.2494 10.0001 18.248V19.748C11.4068 19.7494 12.7971 19.4457 14.0752 18.8578C15.3532 18.27 16.4896 17.412 17.4041 16.343L16.2651 15.366Z"/>
</mask>
<path d="M11.2501 6.99805C11.2501 7.68805 10.6901 8.24805 10.0001 8.24805V9.74805C10.7294 9.74805 11.4289 9.45832 11.9446 8.94259C12.4603 8.42687 12.7501 7.72739 12.7501 6.99805H11.2501ZM10.0001 8.24805C9.31008 8.24805 8.75008 7.68805 8.75008 6.99805H7.25008C7.25008 7.72739 7.53981 8.42687 8.05553 8.94259C8.57126 9.45832 9.27073 9.74805 10.0001 9.74805V8.24805ZM8.75008 6.99805C8.75008 6.30805 9.31008 5.74805 10.0001 5.74805V4.24805C9.27073 4.24805 8.57126 4.53778 8.05553 5.0535C7.53981 5.56923 7.25008 6.2687 7.25008 6.99805H8.75008ZM10.0001 5.74805C10.6901 5.74805 11.2501 6.30805 11.2501 6.99805H12.7501C12.7501 6.2687 12.4603 5.56923 11.9446 5.0535C11.4289 4.53778 10.7294 4.24805 10.0001 4.24805V5.74805ZM3.16608 15.854L2.44708 15.64L2.33008 16.032L2.59708 16.342L3.16608 15.854ZM16.8341 15.854L17.4041 16.343L17.6701 16.033L17.5531 15.64L16.8341 15.854ZM7.00008 13.748H13.0001V12.248H7.00008V13.748ZM7.00008 12.248C5.9771 12.2478 4.98136 12.5778 4.16101 13.1889C3.34067 13.8001 2.73954 14.6598 2.44708 15.64L3.88508 16.068C4.08533 15.3975 4.49665 14.8095 5.05789 14.3915C5.61912 13.9735 6.30029 13.7479 7.00008 13.748V12.248ZM10.0001 18.248C8.8095 18.2494 7.63279 17.9924 6.55116 17.4949C5.46954 16.9973 4.50874 16.271 3.73508 15.366L2.59708 16.342C3.51154 17.411 4.64692 18.27 5.92497 18.8578C7.20301 19.4457 8.59333 19.7494 10.0001 19.748V18.248ZM13.0001 13.748C14.4701 13.748 15.7151 14.726 16.1151 16.068L17.5531 15.64C17.2606 14.6598 16.6595 13.8001 15.8391 13.1889C15.0188 12.5778 14.0231 12.2478 13.0001 12.248V13.748ZM16.2651 15.366C15.4914 16.271 14.5306 16.9973 13.449 17.4949C12.3674 17.9924 11.1907 18.2494 10.0001 18.248V19.748C11.4068 19.7494 12.7971 19.4457 14.0752 18.8578C15.3532 18.27 16.4896 17.412 17.4041 16.343L16.2651 15.366Z" fill="#ADADAD"/>
<path d="M9.50008 8.24805V9.74805H10.5001V8.24805H9.50008ZM12.7501 6.49805H11.2501V7.49805H12.7501V6.49805ZM8.75008 6.49805H7.25008V7.49805H8.75008V6.49805ZM10.5001 5.74805V4.24805H9.50008V5.74805H10.5001ZM13.5001 13.748V12.248H12.5001V13.748H13.5001ZM6.50008 12.248V13.748H7.50008V12.248H6.50008ZM10.5001 19.748V18.248H9.50008V19.748H10.5001ZM12.7501 6.99805H13.7501H12.7501ZM7.25008 6.99805H6.25008H7.25008ZM3.16608 15.854L3.81709 16.6131L5.20953 15.4189L3.45135 14.8956L3.16608 15.854ZM2.33008 16.032L1.37185 15.746L1.21541 16.2702L1.57238 16.6846L2.33008 16.032ZM16.8341 15.854L16.5488 14.8956L14.7909 15.4188L16.183 16.613L16.8341 15.854ZM17.6701 16.033L18.429 16.6842L18.7841 16.2704L18.6285 15.7477L17.6701 16.033ZM17.5531 15.64L18.5115 15.3547L18.5113 15.3542L17.5531 15.64ZM7.00008 13.748L6.9998 14.748H7.00008V13.748ZM13.0001 12.248L13.0001 13.248L13.0003 13.248L13.0001 12.248ZM7.00008 12.248L6.99981 13.248H7.00008V12.248ZM3.88508 16.068L3.59981 17.0265L4.55737 17.3115L4.84326 16.3542L3.88508 16.068ZM10.0001 18.248L10.0012 17.248L9.99893 17.248L10.0001 18.248ZM3.73508 15.366L4.49517 14.7162L3.84433 13.9549L3.08407 14.607L3.73508 15.366ZM10.0001 19.748L10.001 18.748L9.99913 18.748L10.0001 19.748ZM16.1151 16.068L15.1567 16.3537L15.4423 17.3117L16.4003 17.0265L16.1151 16.068ZM16.2651 15.366L16.9161 14.607L16.1559 13.9549L15.505 14.7162L16.2651 15.366ZM10.2501 6.99805C10.2501 7.13576 10.1378 7.24805 10.0001 7.24805V9.24805C11.2424 9.24805 12.2501 8.24033 12.2501 6.99805H10.2501ZM10.0001 10.748C10.9946 10.748 11.9485 10.353 12.6517 9.6497L11.2375 8.23548C10.9093 8.56367 10.4642 8.74805 10.0001 8.74805V10.748ZM12.6517 9.6497C13.355 8.94644 13.7501 7.99261 13.7501 6.99805L11.7501 6.99805C11.7501 7.46218 11.5657 7.9073 11.2375 8.23548L12.6517 9.6497ZM10.0001 7.24805C9.86236 7.24805 9.75008 7.13576 9.75008 6.99805H7.75008C7.75008 8.24033 8.75779 9.24805 10.0001 9.24805V7.24805ZM6.25008 6.99805C6.25008 7.99261 6.64517 8.94644 7.34843 9.6497L8.76264 8.23548C8.43445 7.9073 8.25008 7.46218 8.25008 6.99805H6.25008ZM7.34843 9.6497C8.05169 10.353 9.00552 10.748 10.0001 10.748V8.74805C9.53595 8.74805 9.09083 8.56367 8.76264 8.23548L7.34843 9.6497ZM9.75008 6.99805C9.75008 6.86033 9.86236 6.74805 10.0001 6.74805V4.74805C8.75779 4.74805 7.75008 5.75576 7.75008 6.99805H9.75008ZM10.0001 3.24805C9.00552 3.24805 8.05169 3.64313 7.34843 4.3464L8.76264 5.76061C9.09083 5.43242 9.53595 5.24805 10.0001 5.24805V3.24805ZM7.34843 4.3464C6.64517 5.04966 6.25008 6.00349 6.25008 6.99805L8.25008 6.99805C8.25008 6.53392 8.43445 6.0888 8.76264 5.76061L7.34843 4.3464ZM10.0001 6.74805C10.1378 6.74805 10.2501 6.86033 10.2501 6.99805H12.2501C12.2501 5.75576 11.2424 4.74805 10.0001 4.74805V6.74805ZM13.7501 6.99805C13.7501 6.00349 13.355 5.04966 12.6517 4.3464L11.2375 5.76061C11.5657 6.0888 11.7501 6.53392 11.7501 6.99805H13.7501ZM12.6517 4.3464C11.9485 3.64313 10.9946 3.24805 10.0001 3.24805V5.24805C10.4642 5.24805 10.9093 5.43242 11.2375 5.76061L12.6517 4.3464ZM3.45135 14.8956L2.73235 14.6816L2.16181 16.5985L2.88081 16.8125L3.45135 14.8956ZM1.48885 15.354L1.37185 15.746L3.28831 16.318L3.40531 15.926L1.48885 15.354ZM1.57238 16.6846L1.83938 16.9946L3.35478 15.6894L3.08778 15.3794L1.57238 16.6846ZM3.24809 17.1011L3.81709 16.6131L2.51507 15.095L1.94607 15.583L3.24809 17.1011ZM16.183 16.613L16.753 17.102L18.0552 15.5841L17.4852 15.0951L16.183 16.613ZM18.163 16.9942L18.429 16.6842L16.9112 15.3819L16.6452 15.6918L18.163 16.9942ZM18.6285 15.7477L18.5115 15.3547L16.5946 15.9254L16.7117 16.3184L18.6285 15.7477ZM17.2678 14.6816L16.5488 14.8956L17.1193 16.8125L17.8383 16.5985L17.2678 14.6816ZM7.00008 14.748H13.0001V12.748H7.00008V14.748ZM13.0001 11.248H7.00008V13.248H13.0001V11.248ZM7.00034 11.248C5.762 11.2477 4.55663 11.6472 3.56358 12.387L4.75845 13.9908C5.40609 13.5084 6.1922 13.2478 6.99981 13.248L7.00034 11.248ZM3.56358 12.387C2.57053 13.1268 1.84285 14.1675 1.48882 15.3542L3.40534 15.9259C3.63623 15.152 4.1108 14.4733 4.75845 13.9908L3.56358 12.387ZM2.16181 16.5985L3.59981 17.0265L4.17035 15.1096L2.73235 14.6816L2.16181 16.5985ZM4.84326 16.3542C4.9819 15.89 5.26666 15.4829 5.65521 15.1935L4.46057 13.5895C3.72665 14.1361 3.18876 14.905 2.92689 15.7819L4.84326 16.3542ZM5.65521 15.1935C6.04376 14.9042 6.51533 14.7479 6.9998 14.748L7.00036 12.748C6.08524 12.7478 5.19449 13.0429 4.46057 13.5895L5.65521 15.1935ZM9.99893 17.248C8.95301 17.2492 7.91928 17.0235 6.96908 16.5864L6.13325 18.4034C7.3463 18.9614 8.66598 19.2496 10.0012 19.248L9.99893 17.248ZM6.96908 16.5864C6.01888 16.1493 5.17483 15.5112 4.49517 14.7162L2.97499 16.0159C3.84265 17.0308 4.92019 17.8453 6.13325 18.4034L6.96908 16.5864ZM3.08407 14.607L1.94607 15.583L3.24809 17.1011L4.38609 16.1251L3.08407 14.607ZM1.83719 16.9921C2.84538 18.1706 4.09735 19.1179 5.5071 19.7663L6.34283 17.9493C5.19649 17.4221 4.1777 16.6514 3.35697 15.692L1.83719 16.9921ZM5.5071 19.7663C6.9165 20.4146 8.4497 20.7495 10.001 20.748L9.99913 18.748C8.73695 18.7492 7.48953 18.4767 6.34283 17.9493L5.5071 19.7663ZM13.0001 14.748C14.0162 14.748 14.8797 15.4243 15.1567 16.3537L17.0734 15.7824C16.5504 14.0278 14.924 12.748 13.0001 12.748V14.748ZM16.4003 17.0265L17.8383 16.5985L17.2678 14.6816L15.8298 15.1096L16.4003 17.0265ZM18.5113 15.3542C18.1573 14.1675 17.4296 13.1268 16.4366 12.387L15.2417 13.9908C15.8894 14.4733 16.3639 15.152 16.5948 15.9259L18.5113 15.3542ZM16.4366 12.387C15.4435 11.6472 14.2382 11.2477 12.9998 11.248L13.0003 13.248C13.808 13.2478 14.5941 13.5084 15.2417 13.9908L16.4366 12.387ZM15.505 14.7162C14.8253 15.5112 13.9813 16.1493 13.0311 16.5864L13.8669 18.4034C15.08 17.8453 16.1575 17.0308 17.0252 16.0159L15.505 14.7162ZM13.0311 16.5864C12.0809 17.0235 11.0471 17.2492 10.0012 17.248L9.99893 19.248C11.3342 19.2496 12.6539 18.9614 13.8669 18.4034L13.0311 16.5864ZM9.99913 20.748C11.5505 20.7495 13.0837 20.4146 14.4931 19.7663L13.6573 17.9493C12.5106 18.4767 11.2632 18.7492 10.001 18.748L9.99913 20.748ZM14.4931 19.7663C15.9022 19.1182 17.1553 18.1722 18.164 16.9931L16.6442 15.693C15.8239 16.6519 14.8043 17.4218 13.6573 17.9493L14.4931 19.7663ZM18.0551 15.584L16.9161 14.607L15.614 16.1251L16.753 17.1021L18.0551 15.584Z" fill="#727375" mask="url(#path-2-inside-1_3074_14244)"/>
</svg>
