<svg width="200" height="200" viewBox="0 0 200 200" fill="none" xmlns="http://www.w3.org/2000/svg">
<rect x="2" y="2" width="196" height="196" rx="98" fill="white"/>
<rect x="2" y="2" width="196" height="196" rx="98" stroke="black" stroke-width="4"/>
<path d="M99.5 85.5833C102.009 85.5833 104.493 85.0892 106.811 84.1291C109.129 83.169 111.235 81.7618 113.009 79.9879C114.783 78.2139 116.19 76.1078 117.15 73.79C118.11 71.4722 118.604 68.988 118.604 66.4792C118.604 63.9704 118.11 61.4861 117.15 59.1683C116.19 56.8505 114.783 54.7445 113.009 52.9705C111.235 51.1965 109.129 49.7893 106.811 48.8292C104.493 47.8691 102.009 47.375 99.5 47.375C94.4333 47.375 89.574 49.3878 85.9913 52.9705C82.4086 56.5532 80.3958 61.4124 80.3958 66.4792C80.3958 71.5459 82.4086 76.4051 85.9913 79.9879C89.574 83.5706 94.4333 85.5833 99.5 85.5833ZM50.375 142.35V145.625H148.625V142.35C148.625 130.123 148.625 124.01 146.245 119.338C144.152 115.23 140.812 111.89 136.704 109.797C132.032 107.417 125.918 107.417 113.692 107.417H85.3083C73.0817 107.417 66.9683 107.417 62.296 109.797C58.188 111.89 54.848 115.23 52.7548 119.338C50.375 124.01 50.375 130.123 50.375 142.35Z" stroke="black" stroke-width="10" stroke-linecap="round" stroke-linejoin="round"/>
</svg>
