<svg width="492" height="384" viewBox="0 0 492 384" fill="none" xmlns="http://www.w3.org/2000/svg">
<path d="M402.878 328L51.6681 381.2C49.8133 381.487 47.9191 381.386 46.1055 380.902C44.292 380.419 42.5987 379.564 41.133 378.391C39.6673 377.219 38.4611 375.755 37.591 374.092C36.7208 372.429 36.2057 370.603 36.0781 368.73L15.0781 52.4305C14.9341 50.3728 15.2336 48.3082 15.9562 46.3763C16.6789 44.4443 17.8079 42.69 19.2669 41.2319C20.7259 39.7739 22.4809 38.646 24.4133 37.9246C26.3458 37.2033 28.4106 36.9051 30.4681 37.0505L382.298 59.5005C385.529 59.6954 388.583 61.0377 390.912 63.2855C393.24 65.5333 394.689 68.5388 394.998 71.7605L415.158 312.62C415.382 316.25 414.249 319.833 411.98 322.675C409.711 325.517 406.467 327.415 402.878 328Z" fill="#63737A"/>
<path d="M412.437 327.58L59.5567 381C57.7034 381.282 55.8116 381.177 54.001 380.691C52.1904 380.205 50.5004 379.348 49.0379 378.175C47.5754 377.002 46.3723 375.538 45.5046 373.876C44.6368 372.214 44.1234 370.391 43.9967 368.52L22.7767 50.7701C22.6332 48.6857 22.938 46.5949 23.6707 44.6383C24.4034 42.6817 25.547 40.9049 27.0243 39.4276C28.5016 37.9503 30.2784 36.8067 32.235 36.074C34.1915 35.3413 36.2824 35.0365 38.3667 35.1801L391.647 57.6301C394.905 57.8402 397.979 59.2157 400.307 61.5053C402.636 63.7948 404.062 66.8455 404.327 70.1001L424.697 312C425.099 315.685 424.04 319.381 421.748 322.294C419.456 325.207 416.113 327.105 412.437 327.58Z" fill="#22272E"/>
<path d="M182.38 218.69L83.0498 224.09C81.5429 224.151 80.072 223.62 78.951 222.611C77.83 221.602 77.1478 220.195 77.0498 218.69L71.2298 134.69C71.1909 133.902 71.3103 133.113 71.5811 132.372C71.8519 131.63 72.2685 130.95 72.8063 130.372C73.3442 129.795 73.9923 129.33 74.7126 129.007C75.4329 128.684 76.2106 128.508 76.9998 128.49L176.34 129.12C177.82 129.095 179.252 129.642 180.337 130.649C181.421 131.655 182.075 133.043 182.16 134.52L188 212.45C188.051 213.231 187.946 214.015 187.689 214.754C187.433 215.494 187.031 216.175 186.507 216.756C185.983 217.338 185.348 217.809 184.639 218.141C183.93 218.473 183.162 218.66 182.38 218.69Z" fill="#6DAFA7"/>
<path d="M289.198 186.27L206.068 189.18C204.56 189.241 203.087 188.708 201.966 187.697C200.845 186.686 200.164 185.277 200.068 183.77L196.528 135.35C196.485 134.555 196.603 133.759 196.875 133.011C197.147 132.263 197.567 131.577 198.111 130.995C198.654 130.413 199.31 129.947 200.038 129.625C200.766 129.303 201.552 129.131 202.348 129.12L285.478 129.74C286.94 129.777 288.337 130.346 289.409 131.34C290.481 132.334 291.152 133.686 291.298 135.14L294.808 180C294.881 180.786 294.791 181.579 294.544 182.329C294.297 183.079 293.897 183.77 293.371 184.358C292.844 184.947 292.202 185.421 291.484 185.749C290.766 186.078 289.988 186.256 289.198 186.27Z" fill="#FFE779"/>
<path d="M383.34 183.15L313.34 185.64C311.832 185.703 310.36 185.173 309.239 184.164C308.117 183.155 307.435 181.746 307.34 180.24L303.81 136.39C303.765 135.595 303.882 134.799 304.154 134.05C304.425 133.301 304.846 132.614 305.389 132.032C305.933 131.45 306.589 130.984 307.318 130.662C308.047 130.34 308.833 130.17 309.63 130.16L379.63 130.57C381.093 130.607 382.492 131.177 383.564 132.174C384.636 133.17 385.307 134.524 385.45 135.98L388.77 176.91C388.847 177.681 388.765 178.46 388.53 179.198C388.295 179.936 387.912 180.619 387.403 181.203C386.894 181.788 386.272 182.262 385.573 182.597C384.874 182.932 384.114 183.12 383.34 183.15Z" fill="#73C8FF"/>
<path d="M188.619 300.151L89.2794 311.001C88.4965 311.095 87.7027 311.027 86.947 310.802C86.1913 310.577 85.4899 310.199 84.8861 309.692C84.2824 309.185 83.7892 308.559 83.4372 307.854C83.0851 307.148 82.8816 306.378 82.8394 305.591L79.0994 251.311C79.0331 249.779 79.5557 248.28 80.5599 247.121C81.5641 245.963 82.9737 245.232 84.4994 245.081L184.049 238.431C184.813 238.375 185.581 238.47 186.308 238.712C187.035 238.953 187.707 239.335 188.285 239.837C188.864 240.339 189.338 240.95 189.68 241.635C190.023 242.32 190.226 243.066 190.279 243.831L193.999 293.921C194.003 295.433 193.461 296.895 192.472 298.04C191.484 299.184 190.116 299.934 188.619 300.151Z" stroke="#63737A" stroke-width="3.74" stroke-linecap="round" stroke-linejoin="round"/>
<path d="M298.548 298.07L215.628 307.84C214.846 307.935 214.053 307.867 213.298 307.643C212.543 307.419 211.842 307.042 211.239 306.535C210.635 306.029 210.142 305.405 209.789 304.7C209.436 303.996 209.232 303.227 209.188 302.44L202.538 212.87C202.428 211.327 202.935 209.803 203.947 208.633C204.96 207.463 206.395 206.743 207.938 206.63L291.068 202.68C292.577 202.62 294.049 203.152 295.17 204.163C296.292 205.174 296.973 206.584 297.068 208.09L303.718 291.84C303.809 293.341 303.325 294.82 302.365 295.977C301.404 297.134 300.04 297.883 298.548 298.07Z" fill="#73C8FF"/>
<path d="M281.299 218.271L221.659 221.801C221.322 221.799 220.988 221.871 220.681 222.012C220.375 222.153 220.103 222.359 219.884 222.616C219.666 222.874 219.507 223.176 219.418 223.501C219.329 223.827 219.312 224.168 219.369 224.501L222.079 261.501C222.092 261.833 222.173 262.159 222.319 262.458C222.465 262.757 222.671 263.022 222.925 263.237C223.18 263.452 223.476 263.611 223.795 263.704C224.114 263.798 224.449 263.824 224.779 263.781L284.419 258.59C284.751 258.576 285.077 258.494 285.376 258.348C285.675 258.201 285.94 257.995 286.155 257.742C286.37 257.488 286.53 257.193 286.626 256.874C286.721 256.555 286.749 256.221 286.709 255.891L283.999 220.561C283.867 219.933 283.53 219.368 283.041 218.954C282.552 218.539 281.939 218.299 281.299 218.271Z" fill="#1869B8"/>
<path d="M391.647 277.5L321.647 285.19C320.864 285.286 320.069 285.219 319.313 284.995C318.557 284.77 317.855 284.393 317.251 283.885C316.647 283.378 316.153 282.751 315.802 282.045C315.45 281.339 315.248 280.568 315.207 279.78L309.597 207.67C309.487 206.128 309.994 204.605 311.007 203.437C312.019 202.268 313.455 201.55 314.997 201.44L384.997 198.11C386.505 198.05 387.978 198.582 389.099 199.593C390.22 200.604 390.901 202.013 390.997 203.52L396.607 271.26C396.693 271.996 396.633 272.741 396.43 273.454C396.227 274.166 395.885 274.832 395.425 275.412C394.964 275.992 394.393 276.475 393.744 276.833C393.096 277.191 392.383 277.418 391.647 277.5Z" fill="#FFE779"/>
<path d="M137.906 265.86L139.156 281.24" stroke="#63737A" stroke-width="3.74" stroke-linecap="round" stroke-linejoin="round"/>
<path d="M131.258 274.171L145.808 272.931" stroke="#63737A" stroke-width="3.74" stroke-linecap="round" stroke-linejoin="round"/>
<path d="M237.447 282.901C237.037 278.741 233.917 275.421 230.177 275.841C226.437 276.261 223.527 279.991 223.947 284.361C224.367 288.731 227.687 291.841 231.427 291.421C234.997 290.801 237.657 287.061 237.447 282.901Z" fill="#282828"/>
<path d="M249.508 281.65L288.368 277.71" stroke="#282828" stroke-width="3.74" stroke-linecap="round" stroke-linejoin="round"/>
<path d="M335.999 221.001C335.579 217.051 332.879 214.141 329.559 214.141C326.229 214.351 323.949 217.681 324.149 221.631C324.569 225.571 327.269 228.691 330.599 228.481C334.089 228.251 336.369 224.921 335.999 221.001Z" fill="#6DAFA7"/>
<path d="M346.559 220.351L380.019 218.271" stroke="#282828" stroke-width="3.74" stroke-linecap="round" stroke-linejoin="round"/>
<path d="M337.827 243.211C337.407 239.211 334.707 236.351 331.387 236.561C328.067 236.771 325.777 240.301 325.977 244.251C326.397 248.201 329.307 251.311 332.427 250.901C335.747 250.481 338.247 247.161 337.827 243.211Z" fill="#6DAFA7"/>
<path d="M348.219 242.381L381.889 239.681" stroke="#282828" stroke-width="3.74" stroke-linecap="round" stroke-linejoin="round"/>
<path d="M339.698 265.44C339.278 261.5 336.578 258.59 333.258 258.79C329.938 258.99 327.648 262.54 327.848 266.48C328.268 270.43 331.178 273.34 334.298 273.13C337.618 272.72 339.908 269.39 339.698 265.44Z" fill="#6DAFA7"/>
<path d="M350.09 264.41L383.55 261.08" stroke="#282828" stroke-width="3.74" stroke-linecap="round" stroke-linejoin="round"/>
<path d="M105.907 162.16L92.3967 162.37C91.7787 162.339 91.1909 162.093 90.7346 161.675C90.2783 161.257 89.982 160.693 89.8967 160.08L88.8967 145.95C88.8826 145.619 88.9373 145.289 89.0574 144.981C89.1775 144.672 89.3604 144.392 89.5945 144.158C89.8286 143.924 90.1088 143.741 90.4173 143.621C90.7258 143.501 91.0559 143.446 91.3867 143.46H104.897C105.511 143.493 106.096 143.739 106.55 144.155C107.004 144.57 107.3 145.131 107.387 145.74L108.387 159.67C108.308 160.301 108.021 160.888 107.572 161.339C107.124 161.79 106.538 162.079 105.907 162.16Z" fill="#FFE779"/>
<path d="M120.449 143.46L167.209 143.25" stroke="#282828" stroke-width="3.74" stroke-linecap="round" stroke-linejoin="round"/>
<path d="M121.289 155.51L168.039 155.09" stroke="#282828" stroke-width="3.74" stroke-linecap="round" stroke-linejoin="round"/>
<path d="M330.137 158.83L319.537 159.04C319.202 158.994 318.887 158.852 318.63 158.633C318.373 158.413 318.185 158.124 318.087 157.8L317.087 144.29C317.081 144.098 317.115 143.907 317.186 143.728C317.256 143.549 317.363 143.386 317.498 143.249C317.634 143.113 317.796 143.005 317.974 142.933C318.153 142.861 318.344 142.826 318.537 142.83H329.137C329.473 142.881 329.788 143.025 330.046 143.246C330.304 143.467 330.495 143.756 330.597 144.08L331.597 157.38C331.571 157.758 331.408 158.113 331.139 158.38C330.871 158.647 330.514 158.807 330.137 158.83Z" fill="#282828"/>
<path d="M340.117 142.63H374.817" stroke="#282828" stroke-width="3.74" stroke-linecap="round" stroke-linejoin="round"/>
<path d="M341.148 153.221L375.648 152.811" stroke="#282828" stroke-width="3.74" stroke-linecap="round" stroke-linejoin="round"/>
<path d="M319.129 170.471L376.899 169.021" stroke="#282828" stroke-width="3.74" stroke-linecap="round" stroke-linejoin="round"/>
<path d="M108.188 194.37L94.6778 194.79C94.0513 194.79 93.4478 194.554 92.9867 194.13C92.5255 193.706 92.2404 193.124 92.1878 192.5L91.1878 178.37C91.1689 178.055 91.2137 177.739 91.3196 177.442C91.4254 177.144 91.5901 176.871 91.8039 176.639C92.0176 176.406 92.276 176.219 92.5636 176.089C92.8512 175.958 93.1621 175.887 93.4778 175.88L106.988 175.46C107.604 175.494 108.189 175.74 108.644 176.158C109.098 176.576 109.393 177.139 109.478 177.75L110.478 191.67C110.517 192.328 110.301 192.977 109.875 193.48C109.448 193.983 108.844 194.302 108.188 194.37Z" fill="#FFE779"/>
<path d="M122.738 175.251L169.498 174.011" stroke="#282828" stroke-width="3.74" stroke-linecap="round" stroke-linejoin="round"/>
<path d="M123.566 187.511L170.326 186.061" stroke="#282828" stroke-width="3.74" stroke-linecap="round" stroke-linejoin="round"/>
<path d="M142.268 93.7901L72.2683 91.7101C71.1551 91.6809 70.0925 91.2389 69.2868 90.4702C68.4811 89.7015 67.9898 88.6607 67.9083 87.5501L67.0783 76.5501C67.0254 75.9269 67.1056 75.2996 67.3136 74.7098C67.5216 74.12 67.8527 73.5811 68.2849 73.1291C68.7171 72.677 69.2405 72.322 69.8204 72.0877C70.4003 71.8534 71.0234 71.7452 71.6483 71.7701L141.648 74.6801C142.758 74.7138 143.815 75.1561 144.618 75.9221C145.421 76.6881 145.913 77.7237 145.998 78.8301L146.848 89.0001C146.883 89.6204 146.789 90.2411 146.574 90.8238C146.359 91.4065 146.026 91.9389 145.597 92.3879C145.167 92.8369 144.65 93.193 144.078 93.4342C143.505 93.6754 142.89 93.7965 142.268 93.7901Z" fill="#C4C9CD"/>
<path d="M213.137 143.04L279.227 142.83" stroke="#282828" stroke-width="3.74" stroke-linecap="round" stroke-linejoin="round"/>
<path d="M213.969 154.681L280.059 153.851" stroke="#282828" stroke-width="3.74" stroke-linecap="round" stroke-linejoin="round"/>
<path d="M215.219 172.971L250.749 172.141" stroke="#282828" stroke-width="3.74" stroke-linecap="round" stroke-linejoin="round"/>
<path d="M381.258 92.7507C381.058 89.6307 378.768 86.9307 376.068 86.7507C373.568 86.5507 371.498 89.2507 371.908 92.3607C372.118 95.6907 374.408 98.3607 377.108 98.3607C379.598 98.5707 381.468 95.8707 381.258 92.7507Z" fill="#63737A"/>
<path d="M362.767 92.1306C362.557 88.8006 360.067 86.1306 357.567 86.1306C354.867 85.9206 352.997 88.6206 353.207 91.9506C353.417 95.2806 355.907 97.9506 358.607 97.9506C361.097 97.9406 362.997 95.2406 362.767 92.1306Z" fill="#63737A"/>
<path d="M343.65 91.2905C343.44 87.9705 340.95 85.2905 338.25 85.0605C335.55 84.8305 333.47 87.5505 333.67 90.8805C333.87 94.2105 336.37 96.8805 339.08 97.1105C342 97.3205 343.86 94.6205 343.65 91.2905Z" fill="#63737A"/>
<path d="M465.639 120L373.368 118.34C371.564 118.344 369.827 117.657 368.512 116.42C367.198 115.184 366.406 113.492 366.298 111.69L357.998 10.0005C357.95 9.19997 358.073 8.39839 358.357 7.64863C358.642 6.89887 359.082 6.21799 359.649 5.65094C360.216 5.08389 360.897 4.64358 361.647 4.35907C362.396 4.07456 363.198 3.95233 363.998 4.00045L456.688 13.7705C458.378 13.9313 459.954 14.6893 461.134 15.9082C462.315 17.1271 463.022 18.727 463.129 20.4205L471.238 113.73C471.329 114.519 471.251 115.318 471.011 116.075C470.77 116.831 470.373 117.529 469.844 118.121C469.315 118.713 468.667 119.186 467.942 119.51C467.218 119.834 466.432 120.001 465.639 120Z" fill="#F9FBFF"/>
<path d="M470.618 118.31L378.349 116.65C376.545 116.653 374.809 115.966 373.496 114.73C372.183 113.493 371.393 111.801 371.289 110L362.998 8.38033C362.95 7.57985 363.073 6.77827 363.357 6.02851C363.642 5.27875 364.082 4.59787 364.649 4.03082C365.216 3.46378 365.897 3.02346 366.647 2.73895C367.396 2.45445 368.198 2.33222 368.998 2.38033L461.688 12.1503C463.378 12.3092 464.956 13.0666 466.137 14.2859C467.318 15.5052 468.024 17.1062 468.129 18.8003L476.229 112.11C476.29 112.891 476.191 113.676 475.939 114.416C475.686 115.157 475.285 115.839 474.76 116.42C474.235 117 473.596 117.467 472.884 117.792C472.172 118.117 471.401 118.294 470.618 118.31Z" fill="#73C8FF"/>
<path d="M403.289 21.2607L452.129 25.8307" stroke="#22272E" stroke-width="3.74" stroke-linecap="round" stroke-linejoin="round"/>
<path d="M404.117 31.2402L452.957 35.3902" stroke="#22272E" stroke-width="3.74" stroke-linecap="round" stroke-linejoin="round"/>
<path d="M405.988 54.1006L455.038 57.4206" stroke="#22272E" stroke-width="3.74" stroke-linecap="round" stroke-linejoin="round"/>
<path d="M406.816 63.8604L455.656 66.7703" stroke="#22272E" stroke-width="3.74" stroke-linecap="round" stroke-linejoin="round"/>
<path d="M408.898 86.9307L457.738 89.0107" stroke="#22272E" stroke-width="3.74" stroke-linecap="round" stroke-linejoin="round"/>
<path d="M409.727 96.7002L458.567 98.3602" stroke="#22272E" stroke-width="3.74" stroke-linecap="round" stroke-linejoin="round"/>
<path d="M386.457 26.87L388.947 29.99L392.487 25.21" stroke="#1EC010" stroke-width="3.74" stroke-linecap="round" stroke-linejoin="round"/>
<path d="M389.156 60.12L391.646 63.03L395.386 58.25" stroke="#1EC010" stroke-width="3.74" stroke-linecap="round" stroke-linejoin="round"/>
<path d="M391.859 92.7499L394.559 95.6599L398.099 90.6699" stroke="#1EC010" stroke-width="3.74" stroke-linecap="round" stroke-linejoin="round"/>
</svg>
