<svg width="244" height="171" viewBox="0 0 244 171" fill="none" xmlns="http://www.w3.org/2000/svg">
<g clip-path="url(#clip0_1147_15707)">
<path d="M155.231 27.4453H141.729V142.573C141.729 144.38 141.374 146.168 140.682 147.837C139.991 149.506 138.978 151.022 137.701 152.3C136.424 153.577 134.908 154.59 133.24 155.281C131.571 155.973 129.783 156.328 127.977 156.328H24.751V156.46C24.751 158.266 25.1067 160.055 25.7978 161.724C26.489 163.393 27.502 164.909 28.779 166.186C30.0561 167.463 31.5722 168.477 33.2407 169.168C34.9093 169.859 36.6976 170.215 38.5037 170.215H155.231C157.037 170.215 158.825 169.859 160.494 169.168C162.162 168.477 163.679 167.463 164.956 166.186C166.233 164.909 167.246 163.393 167.937 161.724C168.628 160.055 168.984 158.266 168.984 156.46V41.2002C168.984 39.3939 168.628 37.6053 167.937 35.9365C167.246 34.2676 166.233 32.7513 164.956 31.474C163.679 30.1968 162.162 29.1836 160.494 28.4923C158.825 27.8011 157.037 27.4453 155.231 27.4453Z" fill="#F2F2F2"/>
<path d="M138.524 15.6348H5.70837C2.55573 15.6348 0 18.1909 0 21.3441V152.695C0 155.848 2.55573 158.404 5.70837 158.404H138.524C141.677 158.404 144.233 155.848 144.233 152.695V21.3441C144.233 18.1909 141.677 15.6348 138.524 15.6348Z" fill="#F2F2F2"/>
<path d="M13.7516 18.4629C10.8542 18.4629 8.07558 19.614 6.02685 21.6631C3.97812 23.7122 2.82715 26.4913 2.82715 29.3891V144.649C2.82715 147.547 3.97811 150.326 6.02684 152.375C8.07557 154.424 10.8542 155.575 13.7516 155.575H88.2498C117.606 155.575 141.403 131.774 141.403 102.413V29.3891C141.403 26.4913 140.252 23.7122 138.203 21.6631C136.155 19.614 133.376 18.4629 130.479 18.4629H13.7516Z" fill="white"/>
<path d="M147.388 95.815C146.791 95.9803 146.166 96.0141 145.555 95.9139C144.944 95.8137 144.362 95.582 143.849 95.2347C143.337 94.8874 142.906 94.4329 142.586 93.9027C142.266 93.3724 142.065 92.7789 141.997 92.1634L121.6 86.0023L121.916 79.9404L146.09 87.4352C147.134 87.398 148.156 87.7452 148.961 88.4111C149.767 89.077 150.3 90.0153 150.46 91.0483C150.62 92.0812 150.396 93.1369 149.83 94.0155C149.263 94.894 148.395 95.5343 147.388 95.815Z" fill="#FFB6B6"/>
<path d="M78.7144 64.5452C76.649 62.8213 79.6734 54.2771 78.8579 51.8006C78.8091 51.6507 78.7628 51.5003 78.7188 51.3495C78.6265 51.0299 78.6472 50.6882 78.7773 50.3821L86.4438 46.7754C88.4414 47.5917 90.282 48.749 91.8834 50.1957L103.727 63.7247L115.493 74.3529L120.655 76.6548L137.763 84.2865L137.586 84.798L137.584 84.7995L135.704 90.2617L135.704 90.2647L139.466 92.8875L127.15 91.032L119.005 87.6717L111.162 84.4367C99.5826 77.4667 80.5304 73.8538 78.7144 64.5452Z" fill="#1A87EC"/>
<path d="M133.296 127.242C133.07 127.345 132.818 127.376 132.574 127.33C132.329 127.285 132.105 127.166 131.931 126.989C131.757 126.812 131.641 126.585 131.6 126.34C131.559 126.095 131.594 125.844 131.7 125.619C131.684 125.495 131.671 125.406 131.655 125.282C131.635 125.262 131.615 125.241 131.595 125.221C129.57 123.167 126.069 124.59 126.034 127.474C126.002 130.033 125.723 132.696 126.367 135.13C126.652 136.206 127.122 137.225 127.755 138.14C123.745 134.33 120.601 129.702 118.537 124.57C118.02 123.282 117.576 121.966 117.206 120.628C116.904 119.53 116.65 118.422 116.446 117.303C115.343 111.229 115.696 104.98 117.476 99.0682C118.828 97.4304 119.646 95.4174 119.819 93.3006C119.883 92.5387 119.837 91.7714 119.682 91.0226C119.497 91.1265 117.765 88.37 117.839 88.1286C117.402 87.8248 116.833 87.8147 116.374 87.531C114.094 86.1196 112.198 87.2854 112.227 90.434C110.416 92.4899 111.155 94.3992 113.281 95.6687C114.633 96.4764 115.385 98.001 116.661 98.9343C116.623 99.0688 116.579 99.2014 116.54 99.3359C115.831 101.803 115.366 104.333 115.151 106.891C114.507 104.408 112.92 101.742 111.425 100.213C109.721 98.47 107.393 97.3607 105.239 96.1272C102.652 94.6455 99.5107 97.0039 100.31 99.8759C100.318 99.9037 100.326 99.9315 100.334 99.9592C100.594 99.9939 100.853 100.038 101.11 100.091C101.434 100.159 101.73 100.324 101.959 100.563C102.187 100.802 102.339 101.105 102.392 101.432C102.446 101.758 102.4 102.094 102.26 102.394C102.12 102.694 101.893 102.944 101.608 103.113L101.578 103.13C101.961 103.865 102.399 104.57 102.888 105.239C103.896 113.068 108.891 114.064 114.591 111.914C114.741 111.928 114.889 111.944 115.038 111.954C115.183 115.427 115.78 118.867 116.813 122.186C117.428 124.141 118.2 126.044 119.122 127.875L119.086 127.812C117.831 125.868 115.944 124.416 113.743 123.702C110.487 122.671 106.728 123.317 103.436 122.759C101.852 122.49 100.624 124.15 101.438 125.536C101.451 125.558 101.464 125.581 101.477 125.603C101.935 125.605 102.393 125.636 102.847 125.696C103.108 125.731 103.367 125.774 103.624 125.827C103.948 125.896 104.243 126.06 104.472 126.3C104.701 126.539 104.852 126.842 104.906 127.168C104.96 127.495 104.913 127.83 104.773 128.13C104.633 128.43 104.406 128.681 104.121 128.85L104.092 128.867C104.071 128.879 104.053 128.89 104.032 128.902C105.349 130.24 106.887 131.341 108.578 132.157C112.206 137.89 117.367 136.503 121.913 132.588L121.916 132.587C123.501 134.868 125.318 136.977 127.339 138.882L136.267 135.304C136.259 135.192 136.247 135.078 136.236 134.967C135.43 135.35 134.581 135.633 133.707 135.81C134.043 134.732 134.377 133.647 134.714 132.568C134.723 132.547 134.73 132.526 134.736 132.504C134.906 131.953 135.079 131.404 135.249 130.854L135.249 130.853C134.756 129.57 134.099 128.357 133.296 127.242L133.296 127.242Z" fill="#F2F2F2"/>
<path d="M84.2278 135.1L84.1254 134.972C83.8308 133.076 84.2278 135.1 84.2278 135.1Z" fill="#2F2E41"/>
<path d="M89.457 155.548H60.8559C58.6338 150.023 57.0914 146.072 57.0914 146.072C57.0914 146.072 56.7168 149.942 56.1823 155.548H30.3251C30.0831 140.314 29.7443 124.673 29.6328 119.705L79.2639 120.811L84.2005 127.072C84.2174 127.177 84.2342 127.292 84.2553 127.422C84.4552 128.695 87.1423 142.351 89.457 155.548Z" fill="#2F2E41"/>
<path d="M89.0228 48.4052L89.0181 48.3963C88.8604 48.1034 88.6066 47.8738 88.2994 47.7463C85.1591 45.3094 81.7208 44.1986 77.8621 44.9583C77.2303 43.0455 76.6412 43.0455 76.6412 43.0455L68.2721 40.281L67.0682 32.9266L46.4474 32.2285L44.5734 41.406C44.5734 41.406 33.0474 43.4725 33.0474 44.9668C33.0474 46.4612 34.9684 46.4612 33.0474 46.4612C31.1264 46.4612 30.612 44.7533 28.9492 46.4612C28.8068 46.6047 28.6564 46.7401 28.4989 46.8668C28.4797 46.8839 28.4583 46.8988 28.4391 46.9159C26.56 48.3942 25.0832 50.3219 24.1451 52.5212C23.2069 54.7206 22.8375 57.1208 23.071 59.5005L26.6163 94.7737L30.4007 132.412L82.1908 134.568L85.6592 102.54L89.1873 49.2506C89.2188 48.9587 89.1615 48.664 89.0228 48.4052Z" fill="#1A87EC"/>
<path d="M4.00594 142.995C4.30163 143.739 4.60003 144.284 4.90108 144.553L105.344 144.767C105.645 144.497 105.943 143.952 106.239 143.208C109.752 134.369 103.125 124.783 93.6141 124.765L16.6359 124.619C7.13816 124.601 0.497621 134.167 4.00594 142.995Z" fill="white"/>
<path d="M105.423 144.981L105.341 144.981L4.81748 144.767L4.75692 144.713C4.44384 144.432 4.13274 143.896 3.8058 143.074C2.97429 141.018 2.66759 138.786 2.91336 136.582C3.15913 134.377 3.94964 132.269 5.21362 130.446C6.47561 128.585 8.17388 127.062 10.1601 126.009C12.1463 124.956 14.3601 124.406 16.608 124.406H16.6344L93.6127 124.552C95.8687 124.557 98.0893 125.113 100.081 126.174C102.072 127.234 103.774 128.766 105.037 130.635C106.299 132.464 107.088 134.577 107.332 136.785C107.576 138.993 107.268 141.228 106.435 143.287C106.108 144.11 105.797 144.646 105.484 144.926L105.423 144.981ZM11.6101 144.32L96.7772 144.062C102.789 144.044 107.211 138.24 105.43 132.497C105.261 131.923 105.01 131.376 104.684 130.875C103.459 129.063 101.81 127.578 99.8803 126.551C97.9503 125.523 95.7982 124.984 93.6119 124.979L16.6336 124.833H16.608C15.6305 124.866 14.6666 125.072 13.7613 125.442C8.78893 127.324 5.46397 132.054 5.1875 137.364C5.18398 137.432 5.18047 137.499 5.17698 137.567C5.13356 138.409 5.25646 139.252 5.53865 140.047C5.82083 140.842 6.25678 141.573 6.8216 142.199C7.38643 142.826 8.06906 143.335 8.83053 143.697C9.592 144.06 10.4174 144.269 11.2596 144.312C11.3763 144.318 11.4932 144.321 11.6101 144.32Z" fill="#E6E6E6"/>
<path d="M124.877 67.5578C123.777 62.9369 123.96 58.3855 125.844 53.9264C125.864 53.6505 125.992 53.3938 126.201 53.2125C126.41 53.0313 126.682 52.9403 126.958 52.9596L137.251 53.69C137.527 53.7099 137.784 53.8384 137.965 54.0474C138.146 54.2563 138.237 54.5286 138.218 54.8045L137.251 68.436C137.231 68.7119 137.102 68.9686 136.893 69.1498C136.684 69.3311 136.412 69.422 136.136 69.4028L125.843 68.6723C125.567 68.6524 125.311 68.5239 125.129 68.315C124.948 68.106 124.857 67.8337 124.877 67.5578Z" fill="#F2F2F2"/>
<path d="M23.4376 92.6776L28.509 94.9618C26.1249 96.896 22.4942 99.4983 18.9382 100.702L13.2883 96.849C11.1838 88.7325 12.473 80.3684 15.0023 73.2958C16.4036 69.3658 18.262 65.6142 20.539 62.1181C20.3058 59.7384 20.6753 57.3382 21.6134 55.1389C22.5516 52.9396 24.0282 51.0119 25.9072 49.5335C25.9285 49.5164 25.9477 49.5015 25.9669 49.4844C27.8384 51.1087 29.3672 53.0901 30.4637 55.3125C31.5603 57.535 32.2027 59.9539 32.3532 62.4276L32.4663 64.2977L32.6926 67.9824L33.2667 77.3925L26.4578 87.9811L23.4376 92.6776Z" fill="#1A87EC"/>
<path d="M38.0252 132.851C38.0845 132.925 38.1598 132.985 38.2456 133.026C38.3314 133.067 38.4253 133.088 38.5204 133.088H73.1709C73.2657 133.088 73.3592 133.066 73.4448 133.025C73.5303 132.985 73.6056 132.925 73.6653 132.852C73.725 132.778 73.7676 132.692 73.7899 132.6C73.8122 132.508 73.8136 132.412 73.7942 132.319L73.2563 129.764C73.234 129.66 73.186 129.563 73.1167 129.482C73.0473 129.401 72.9589 129.338 72.8593 129.3C72.7872 129.272 72.7105 129.258 72.6331 129.258H39.0561C38.9787 129.258 38.902 129.272 38.8299 129.3C38.7303 129.338 38.6418 129.401 38.5725 129.482C38.5032 129.563 38.4552 129.66 38.4329 129.764L37.895 132.319C37.8759 132.412 37.8776 132.508 37.9001 132.6C37.9227 132.692 37.9654 132.777 38.0252 132.851Z" fill="#2F2E41"/>
<path d="M24.7598 75.6467V115.623C24.7602 116.132 24.9627 116.621 25.3229 116.981C25.683 117.341 26.1714 117.544 26.6808 117.544H85.9116C86.4209 117.544 86.9093 117.341 87.2695 116.981C87.6296 116.621 87.8321 116.132 87.8326 115.623V75.6467C87.8313 75.1377 87.6285 74.65 87.2684 74.2902C86.9084 73.9305 86.4205 73.7282 85.9116 73.7275H26.6808C26.1719 73.7282 25.6839 73.9305 25.3239 74.2902C24.9638 74.65 24.761 75.1377 24.7598 75.6467Z" fill="#3F3D56"/>
<path d="M48.8848 109.702V131.596H64.2207V109.702C64.221 109.544 64.1708 109.391 64.0774 109.264C63.984 109.137 63.8525 109.044 63.7021 108.997C63.6312 108.974 63.5569 108.962 63.4822 108.963H49.6254C49.4294 108.963 49.2412 109.04 49.1023 109.178C48.9634 109.317 48.8851 109.505 48.8848 109.701V109.702ZM54.8697 117.225C54.8738 116.793 55.0481 116.38 55.3547 116.077C55.6612 115.773 56.0753 115.603 56.5069 115.603C56.9384 115.603 57.3525 115.773 57.6591 116.077C57.9656 116.38 58.1399 116.793 58.144 117.225V119.765C58.1418 120.198 57.9683 120.612 57.6615 120.917C57.3548 121.223 56.9396 121.394 56.5069 121.394C56.0741 121.394 55.659 121.223 55.3522 120.917C55.0454 120.612 54.872 120.198 54.8697 119.765V117.225Z" fill="#2F2E41"/>
<path d="M57.8362 31.4082C65.2069 31.4082 71.1821 25.432 71.1821 18.06C71.1821 10.6881 65.2069 4.71191 57.8362 4.71191C50.4654 4.71191 44.4902 10.6881 44.4902 18.06C44.4902 25.432 50.4654 31.4082 57.8362 31.4082Z" fill="#FFB6B6"/>
<path d="M73.8147 15.7252C72.3758 16.172 70.9887 16.4354 70.053 15.2549C69.1173 14.0745 69.3618 12.7248 67.97 12.1557C66.8462 11.6949 65.5484 11.8924 64.4152 12.3203C64.213 12.3956 64.0155 12.4802 63.8227 12.5649C63.7146 12.4708 63.6064 12.3815 63.4888 12.2968C62.6042 11.6676 61.512 11.4017 60.4372 11.5538C61.2228 11.9333 61.8692 12.5503 62.2851 13.3173C61.8995 13.5102 61.4853 13.6543 61.1143 13.8676C56.0175 16.7984 50.3494 17.9787 50.812 13.0869C52.3543 17.1502 51.1552 18.5987 48.8935 22.3092L48.8042 22.5255C49.0299 21.5521 47.4431 21.5059 46.0723 21.8389C45.0598 22.0849 45.715 24.4455 47.0127 26.0715C44.1115 21.7025 39.7662 15.032 43.5237 11.6854C44.0779 11.1919 44.4257 10.4955 44.5253 8.71321C44.5843 7.65649 46.3826 7.39171 47.3324 7.86199C47.4699 6.27309 48.0251 4.74883 48.9418 3.44384C49.8584 2.13885 51.1039 1.09958 52.5518 0.431463C55.4577 -0.861826 58.413 1.12764 61.5704 1.51312C63.3223 1.727 64.6508 2.43268 64.7208 4.66875C64.7674 6.15783 67.0107 6.69098 68.4778 6.95434C69.4088 7.11896 70.4574 7.02019 71.2003 7.60805C72.0608 8.28997 72.0702 9.4892 72.0655 10.6414C71.2235 10.6174 70.3935 10.845 69.6815 11.2951C70.5531 11.317 71.3955 11.6132 72.089 12.1416C72.1024 12.1499 72.1149 12.1593 72.1266 12.1698C72.3805 14.1074 72.2771 14.5166 73.8147 15.7252Z" fill="#2F2E41"/>
<path d="M133.509 74.0161C127.002 75.6434 120.035 73.8836 113.492 75.3856C111.987 75.7169 110.565 76.2545 109.287 76.9749C108.197 77.64 107.174 78.3729 106.226 79.1669C104.258 80.7334 102.121 82.3783 99.1637 82.3602C95.2696 82.3363 92.2797 80.0086 89.6842 77.9533C89.3173 77.6628 88.7519 78.1171 89.1192 78.4079C91.5042 80.2966 94.081 82.289 97.4758 82.8528C98.9987 83.1246 100.588 83.0183 102.035 82.548C103.289 82.0892 104.436 81.4585 105.422 80.684C106.468 79.9125 107.432 79.0725 108.492 78.3132C109.598 77.5033 110.872 76.8561 112.257 76.4009C115.256 75.4397 118.546 75.3238 121.737 75.3518C125.741 75.3869 129.842 75.6063 133.721 74.6361C134.211 74.5137 134.002 73.8928 133.509 74.0161Z" fill="#3F3D56"/>
<path d="M140.894 79.4986H126.159C126.079 79.4989 125.999 79.4833 125.924 79.4527C125.849 79.4221 125.782 79.3771 125.724 79.3203C125.667 79.2634 125.622 79.1958 125.59 79.1214C125.559 79.047 125.543 78.9671 125.543 78.8864C125.543 78.8057 125.558 78.7258 125.589 78.6511C125.62 78.5765 125.665 78.5086 125.722 78.4514C125.779 78.3942 125.846 78.3488 125.921 78.3178C125.995 78.2867 126.075 78.2707 126.156 78.2705C126.157 78.2705 126.158 78.2705 126.159 78.2705H140.894C140.974 78.2702 141.054 78.2857 141.129 78.3163C141.204 78.3469 141.272 78.3919 141.329 78.4488C141.386 78.5057 141.432 78.5732 141.463 78.6477C141.494 78.7221 141.51 78.802 141.51 78.8827C141.51 78.9634 141.495 79.0433 141.464 79.118C141.433 79.1926 141.388 79.2605 141.331 79.3177C141.274 79.3749 141.207 79.4203 141.132 79.4513C141.058 79.4824 140.978 79.4984 140.897 79.4986C140.896 79.4986 140.895 79.4986 140.894 79.4986Z" fill="#E6E6E6"/>
<path d="M140.895 89.3882H126.161C126.08 89.3885 126 89.3728 125.926 89.3422C125.851 89.3116 125.783 89.2665 125.726 89.2097C125.669 89.1528 125.623 89.0853 125.592 89.0109C125.561 88.9365 125.545 88.8567 125.545 88.776C125.545 88.6954 125.56 88.6155 125.591 88.5409C125.622 88.4663 125.667 88.3985 125.723 88.3413C125.78 88.2841 125.848 88.2387 125.922 88.2076C125.997 88.1765 126.076 88.1604 126.157 88.1602C126.158 88.1602 126.159 88.1602 126.161 88.1602H140.895C140.976 88.1599 141.055 88.1756 141.13 88.2062C141.205 88.2368 141.272 88.2818 141.33 88.3387C141.387 88.3955 141.432 88.4631 141.463 88.5375C141.494 88.6119 141.51 88.6917 141.511 88.7723C141.511 88.853 141.495 88.9329 141.465 89.0075C141.434 89.082 141.389 89.1499 141.332 89.2071C141.275 89.2642 141.208 89.3097 141.133 89.3408C141.059 89.3718 140.979 89.388 140.899 89.3882C140.897 89.3882 140.896 89.3882 140.895 89.3882Z" fill="#E6E6E6"/>
<path d="M155.358 84.4439H126.159C126.079 84.4442 125.999 84.4287 125.924 84.3981C125.85 84.3675 125.782 84.3225 125.724 84.2656C125.667 84.2088 125.622 84.1412 125.59 84.0667C125.559 83.9923 125.543 83.9124 125.543 83.8317C125.543 83.751 125.558 83.6711 125.589 83.5964C125.62 83.5218 125.665 83.4539 125.722 83.3967C125.779 83.3395 125.846 83.2941 125.921 83.2631C125.995 83.232 126.075 83.216 126.156 83.2158C126.157 83.2158 126.158 83.2158 126.159 83.2158H155.358C155.438 83.2155 155.518 83.2311 155.593 83.2617C155.668 83.2922 155.736 83.3373 155.793 83.3941C155.85 83.451 155.896 83.5185 155.927 83.593C155.958 83.6674 155.974 83.7473 155.974 83.828C155.975 83.9087 155.959 83.9886 155.928 84.0633C155.897 84.1379 155.852 84.2058 155.796 84.263C155.739 84.3202 155.671 84.3656 155.596 84.3966C155.522 84.4277 155.442 84.4437 155.361 84.4439C155.36 84.4439 155.359 84.4439 155.358 84.4439Z" fill="#E6E6E6"/>
<path d="M136.14 73.7376C140.796 69.3269 148.747 67.4251 153.541 63.0983C154.656 62.1146 155.52 61.0038 156.094 59.815C156.542 58.7601 156.87 57.6824 157.076 56.5916C157.574 54.3924 158.162 52.0494 160.92 50.6552C164.551 48.8192 169.295 49.2692 173.444 49.6877C173.562 49.6975 173.681 49.6747 173.776 49.6242C173.871 49.5737 173.934 49.4994 173.952 49.4169C173.97 49.3345 173.942 49.2504 173.873 49.1824C173.804 49.1144 173.7 49.0678 173.582 49.0524C169.771 48.6678 165.693 48.291 162.067 49.4544C160.425 49.9611 159.041 50.8039 158.098 51.8717C157.323 52.839 156.795 53.893 156.536 54.9867C156.22 56.1061 156.038 57.2419 155.698 58.3583C155.359 59.5375 154.725 60.6658 153.827 61.692C151.86 63.895 148.907 65.5559 145.925 67.0533C142.182 68.933 138.194 70.7097 135.418 73.3395C135.068 73.6712 135.787 74.0717 136.14 73.7376Z" fill="#3F3D56"/>
<path d="M171.232 45.6446L175.484 46.9515L177.541 47.5838C177.907 47.6962 178.275 47.805 178.638 47.9211C178.861 47.9924 179.3 48.1027 179.222 48.3162C179.17 48.4616 178.886 48.5786 178.724 48.6607C178.398 48.826 178.066 48.9859 177.737 49.1484L175.887 50.0629L172.063 51.9528C171.97 52.0035 171.909 52.0771 171.893 52.1581C171.877 52.2392 171.908 52.3213 171.978 52.3871C172.049 52.453 172.154 52.4975 172.271 52.5112C172.388 52.525 172.509 52.5069 172.607 52.4608C174.827 51.3636 177.066 50.2825 179.268 49.1687C179.679 48.9998 179.987 48.7334 180.132 48.4196C180.173 48.238 180.13 48.052 180.008 47.8881C179.887 47.7242 179.694 47.5907 179.456 47.5063C178.89 47.2904 178.303 47.1018 177.7 46.9417L175.848 46.3726L171.596 45.0658C171.485 45.0359 171.362 45.0367 171.252 45.0682C171.142 45.0996 171.054 45.1592 171.006 45.2343C170.959 45.3094 170.956 45.3942 170.998 45.4707C171.04 45.5473 171.124 45.6096 171.232 45.6446Z" fill="#3F3D56"/>
<path d="M30.1312 95.7645C29.8523 96.3173 29.4565 96.803 28.9715 97.1878C28.4864 97.5727 27.9235 97.8475 27.3218 97.9934C26.72 98.1393 26.0938 98.1527 25.4864 98.0327C24.879 97.9127 24.3048 97.6622 23.8038 97.2984L8.45812 104.602L7.42969 100.301L23.0576 91.0895C23.7325 90.2915 24.6767 89.7687 25.7112 89.6204C26.7457 89.472 27.7987 89.7084 28.6706 90.2846C29.5425 90.8609 30.1728 91.737 30.442 92.747C30.7112 93.757 30.6006 94.8306 30.1312 95.7645Z" fill="#FFB6B6"/>
<path d="M24.2175 73.5798L13.4193 95.6471L17.9828 93.5785L21.1588 92.1375L22.7511 98.1875C22.7511 98.1875 21.6967 99.2122 20.034 100.559C17.6498 102.493 14.0191 105.096 10.4631 106.3C7.67981 107.243 4.94559 107.331 2.89226 105.572C-1.00524 102.233 2.80475 88.9738 6.48666 78.8783C8.95194 72.1174 11.3575 66.7783 11.3575 66.7783C11.3575 59.6481 25.1926 49.3954 27.7603 47.9929C29.2267 47.1945 29.6322 48.3573 29.6322 48.3573L21.5857 60.1391L23.9912 69.8951L24.6721 72.6511L24.2175 73.5798Z" fill="#1A87EC"/>
</g>
<path d="M183.879 110.4L184.062 44.8134C184.067 43.4859 184.602 42.2147 185.55 41.2787C186.497 40.3426 187.78 39.8181 189.116 39.8203L238.975 39.9576C240.311 39.9628 241.59 40.4944 242.533 41.4356C243.475 42.3769 244.003 43.651 244 44.9785L243.817 110.565C243.812 111.892 243.277 113.163 242.33 114.1C241.382 115.036 240.1 115.56 238.764 115.558L188.905 115.421C187.569 115.415 186.289 114.884 185.347 113.943C184.405 113.001 183.877 111.727 183.879 110.4Z" fill="#E6E6E6"/>
<path d="M187.781 90.6142L187.899 48.4056C187.904 47.1611 188.404 45.9693 189.289 45.0918C190.175 44.2142 191.374 43.7225 192.623 43.7246L235.396 43.8428C236.645 43.8476 237.842 44.3459 238.722 45.2283C239.603 46.1107 240.097 47.3053 240.095 48.5498L239.932 106.973C239.927 108.218 239.427 109.41 238.541 110.287C237.656 111.165 236.457 111.656 235.207 111.654L208.711 111.581C203.146 111.559 197.818 109.34 193.894 105.409C189.971 101.478 187.772 96.1577 187.781 90.6142Z" fill="white"/>
<path d="M230.302 62.0739H197.188C196.661 62.0739 196.156 61.8683 195.783 61.5022C195.411 61.1361 195.201 60.6396 195.201 60.1219C195.201 59.6042 195.411 59.1077 195.783 58.7417C196.156 58.3756 196.661 58.1699 197.188 58.1699H230.302C230.829 58.1699 231.335 58.3756 231.707 58.7417C232.08 59.1077 232.289 59.6042 232.289 60.1219C232.289 60.6396 232.08 61.1361 231.707 61.5022C231.335 61.8683 230.829 62.0739 230.302 62.0739Z" fill="#4370FF"/>
<path d="M204.525 53.0942H197.199C196.669 53.0942 196.161 52.868 195.786 52.4653C195.412 52.0626 195.201 51.5165 195.201 50.947C195.201 50.3775 195.412 49.8314 195.786 49.4287C196.161 49.026 196.669 48.7998 197.199 48.7998H204.525C205.055 48.7998 205.563 49.026 205.938 49.4287C206.312 49.8314 206.523 50.3775 206.523 50.947C206.523 51.5165 206.312 52.0626 205.938 52.4653C205.563 52.868 205.055 53.0942 204.525 53.0942Z" fill="#4370FF"/>
<path d="M230.302 71.4431H197.188C196.661 71.4431 196.156 71.2374 195.783 70.8713C195.411 70.5053 195.201 70.0088 195.201 69.4911C195.201 68.9734 195.411 68.4769 195.783 68.1108C196.156 67.7447 196.661 67.5391 197.188 67.5391H230.302C230.829 67.5391 231.335 67.7447 231.707 68.1108C232.08 68.4769 232.289 68.9734 232.289 69.4911C232.289 70.0088 232.08 70.5053 231.707 70.8713C231.335 71.2374 230.829 71.4431 230.302 71.4431Z" fill="#4370FF"/>
<path d="M230.302 80.813H197.188C196.661 80.813 196.156 80.5867 195.783 80.1841C195.411 79.7814 195.201 79.2352 195.201 78.6658C195.201 78.0963 195.411 77.5501 195.783 77.1475C196.156 76.7448 196.661 76.5186 197.188 76.5186H230.302C230.829 76.5186 231.335 76.7448 231.707 77.1475C232.08 77.5501 232.289 78.0963 232.289 78.6658C232.289 79.2352 232.08 79.7814 231.707 80.1841C231.335 80.5867 230.829 80.813 230.302 80.813Z" fill="#4370FF"/>
<path d="M227.798 104.628C232.218 104.628 235.801 101.132 235.801 96.8197C235.801 92.5075 232.218 89.0117 227.798 89.0117C223.378 89.0117 219.795 92.5075 219.795 96.8197C219.795 101.132 223.378 104.628 227.798 104.628Z" fill="#00BB34"/>
<path d="M226.726 101.113C226.59 101.113 226.456 101.082 226.334 101.021C226.212 100.96 226.107 100.872 226.025 100.763L223.877 97.8988C223.808 97.8068 223.757 97.7021 223.729 97.5906C223.7 97.4791 223.694 97.3631 223.71 97.2491C223.726 97.1352 223.765 97.0255 223.823 96.9265C223.882 96.8274 223.959 96.7409 224.052 96.6718C224.144 96.6027 224.248 96.5525 224.36 96.524C224.471 96.4954 224.588 96.4892 224.701 96.5055C224.815 96.5219 224.925 96.5605 225.024 96.6193C225.123 96.678 225.209 96.7557 225.278 96.8479L226.684 98.7216L230.293 93.3073C230.357 93.2112 230.439 93.1287 230.535 93.0643C230.63 93 230.738 92.9551 230.851 92.9323C230.964 92.9095 231.08 92.9093 231.193 92.9316C231.306 92.9538 231.414 92.9982 231.51 93.0621C231.605 93.1261 231.688 93.2083 231.752 93.3041C231.816 93.3999 231.86 93.5074 231.883 93.6205C231.905 93.7335 231.905 93.8499 231.883 93.9629C231.86 94.0759 231.815 94.1833 231.751 94.279L227.455 100.723C227.377 100.84 227.272 100.936 227.15 101.004C227.027 101.072 226.89 101.109 226.75 101.113C226.742 101.113 226.734 101.113 226.726 101.113Z" fill="white"/>
<defs>
<clipPath id="clip0_1147_15707">
<rect width="198.714" height="170.214" fill="white"/>
</clipPath>
</defs>
</svg>
