<svg width="644" height="413" viewBox="0 0 644 413" fill="none" xmlns="http://www.w3.org/2000/svg">
<g clip-path="url(#clip0_678_25556)">
<path d="M601.973 364.913H439.239C433.319 364.906 427.643 362.552 423.456 358.366C419.27 354.181 416.915 348.506 416.908 342.587V85.9557C416.915 80.0365 419.27 74.3617 423.456 70.1763C427.643 65.9908 433.319 63.6365 439.239 63.6299H601.973C607.894 63.6365 613.57 65.9908 617.756 70.1763C621.943 74.3617 624.298 80.0365 624.304 85.9557V342.587C624.298 348.506 621.943 354.181 617.756 358.366C613.57 362.552 607.894 364.906 601.973 364.913Z" fill="#E6E6E6"/>
<path d="M604.672 76.9521H438.933C437.08 76.9544 435.303 77.6915 433.992 79.0017C432.682 80.3119 431.945 82.0882 431.942 83.9411V343.919C431.945 345.771 432.683 347.547 433.993 348.857C435.303 350.168 437.08 350.905 438.933 350.908H604.672C606.526 350.905 608.302 350.168 609.613 348.858C610.923 347.548 611.661 345.772 611.663 343.919V83.9411C611.661 82.0882 610.923 80.3119 609.613 79.0017C608.302 77.6915 606.526 76.9544 604.672 76.9521Z" fill="white"/>
<path d="M443.218 63.6298C443.218 63.177 443.398 62.7429 443.719 62.4227C444.039 62.1025 444.473 61.9224 444.926 61.9219H456.543C456.996 61.9219 457.431 62.1018 457.751 62.4221C458.071 62.7424 458.251 63.1768 458.251 63.6298C458.251 64.0828 458.071 64.5172 457.751 64.8375C457.431 65.1578 456.996 65.3378 456.543 65.3378H444.926C444.473 65.3372 444.039 65.1571 443.719 64.8369C443.398 64.5167 443.218 64.0826 443.218 63.6298Z" fill="#E6E6E6"/>
<path d="M462.352 63.6298C462.352 63.177 462.532 62.7429 462.853 62.4227C463.173 62.1025 463.607 61.9224 464.06 61.9219H475.677C476.13 61.9219 476.564 62.1018 476.885 62.4221C477.205 62.7424 477.385 63.1768 477.385 63.6298C477.385 64.0828 477.205 64.5172 476.885 64.8375C476.564 65.1578 476.13 65.3378 475.677 65.3378H464.06C463.607 65.3372 463.173 65.1571 462.853 64.8369C462.532 64.5168 462.352 64.0826 462.352 63.6298Z" fill="#E6E6E6"/>
<path d="M577.153 63.6298C577.154 63.177 577.334 62.7429 577.654 62.4227C577.975 62.1025 578.409 61.9224 578.862 61.9219H590.479C590.932 61.9219 591.366 62.1018 591.687 62.4221C592.007 62.7424 592.187 63.1768 592.187 63.6298C592.187 64.0828 592.007 64.5172 591.687 64.8375C591.366 65.1578 590.932 65.3378 590.479 65.3378H578.862C578.409 65.3372 577.975 65.1571 577.654 64.8369C577.334 64.5168 577.154 64.0826 577.153 63.6298Z" fill="#E6E6E6"/>
<path d="M544.77 345.552C544.77 347.349 544.736 349.138 544.654 350.908H438.933C437.08 350.905 435.303 350.168 433.993 348.858C432.683 347.548 431.945 345.772 431.942 343.919V213.062C463.425 218.148 492.069 234.273 512.743 258.549C533.417 282.826 544.771 313.668 544.77 345.552Z" fill="#F2F2F2"/>
<path d="M541.18 143.762H501.752C499.957 143.762 498.503 145.216 498.503 147.01V151.063C498.503 152.856 499.957 154.31 501.752 154.31H541.18C542.974 154.31 544.429 152.856 544.429 151.063V147.01C544.429 145.216 542.974 143.762 541.18 143.762Z" fill="#1A87EC"/>
<path d="M566.239 164.858H476.692C474.898 164.858 473.443 166.313 473.443 168.106V172.159C473.443 173.953 474.898 175.407 476.692 175.407H566.239C568.033 175.407 569.488 173.953 569.488 172.159V168.106C569.488 166.313 568.033 164.858 566.239 164.858Z" fill="#E6E6E6"/>
<path d="M566.239 185.956H476.692C474.898 185.956 473.443 187.41 473.443 189.204V193.257C473.443 195.051 474.898 196.505 476.692 196.505H566.239C568.033 196.505 569.488 195.051 569.488 193.257V189.204C569.488 187.41 568.033 185.956 566.239 185.956Z" fill="#E6E6E6"/>
<path d="M596.388 99.905H447.217C446.895 99.8979 446.588 99.7647 446.362 99.534C446.136 99.3034 446.01 98.9935 446.01 98.6708C446.01 98.3481 446.136 98.0382 446.362 97.8075C446.588 97.5768 446.895 97.4436 447.217 97.4365H596.388C596.71 97.4436 597.017 97.5768 597.243 97.8075C597.469 98.0382 597.595 98.3481 597.595 98.6708C597.595 98.9935 597.469 99.3034 597.243 99.534C597.017 99.7647 596.71 99.8979 596.388 99.905Z" fill="#CACACA"/>
<path d="M455.176 93.867C457.18 93.867 458.805 92.2067 458.805 90.1586C458.805 88.1105 457.18 86.4502 455.176 86.4502C453.172 86.4502 451.548 88.1105 451.548 90.1586C451.548 92.2067 453.172 93.867 455.176 93.867Z" fill="#3F3D56"/>
<path d="M467.71 93.867C469.714 93.867 471.339 92.2067 471.339 90.1586C471.339 88.1105 469.714 86.4502 467.71 86.4502C465.707 86.4502 464.082 88.1105 464.082 90.1586C464.082 92.2067 465.707 93.867 467.71 93.867Z" fill="#3F3D56"/>
<path d="M480.246 93.867C482.25 93.867 483.874 92.2067 483.874 90.1586C483.874 88.1105 482.25 86.4502 480.246 86.4502C478.242 86.4502 476.617 88.1105 476.617 90.1586C476.617 92.2067 478.242 93.867 480.246 93.867Z" fill="#3F3D56"/>
<path d="M590.557 87.8828H582.437C582.276 87.886 582.123 87.9522 582.01 88.0671C581.897 88.182 581.834 88.3365 581.834 88.4975C581.834 88.6584 581.897 88.813 582.01 88.9279C582.123 89.0428 582.276 89.109 582.437 89.1122H590.557C590.718 89.109 590.871 89.0428 590.984 88.9279C591.096 88.813 591.16 88.6584 591.16 88.4975C591.16 88.3365 591.096 88.182 590.984 88.0671C590.871 87.9522 590.718 87.886 590.557 87.8828Z" fill="#3F3D56"/>
<path d="M590.557 90.1904H582.437C582.276 90.1936 582.123 90.2598 582.01 90.3747C581.897 90.4896 581.834 90.6442 581.834 90.8051C581.834 90.9661 581.897 91.1206 582.01 91.2355C582.123 91.3505 582.276 91.4166 582.437 91.4198H590.557C590.718 91.4166 590.871 91.3505 590.984 91.2355C591.096 91.1206 591.16 90.9661 591.16 90.8051C591.16 90.6442 591.096 90.4896 590.984 90.3747C590.871 90.2598 590.718 90.1936 590.557 90.1904Z" fill="#3F3D56"/>
<path d="M590.557 92.4951H582.437C582.276 92.4983 582.123 92.5644 582.01 92.6794C581.897 92.7943 581.834 92.9488 581.834 93.1098C581.834 93.2707 581.897 93.4253 582.01 93.5402C582.123 93.6551 582.276 93.7213 582.437 93.7245H590.557C590.718 93.7213 590.871 93.6551 590.984 93.5402C591.096 93.4253 591.16 93.2707 591.16 93.1098C591.16 92.9488 591.096 92.7943 590.984 92.6794C590.871 92.5644 590.718 92.4983 590.557 92.4951Z" fill="#3F3D56"/>
<path d="M348.529 213.16H262.044C260.821 213.162 259.648 213.65 258.784 214.516C257.92 215.382 257.435 216.555 257.437 217.778V354.366H353.148V217.778C353.149 217.172 353.029 216.571 352.797 216.011C352.565 215.45 352.225 214.941 351.796 214.512C351.367 214.083 350.858 213.743 350.297 213.511C349.736 213.279 349.136 213.16 348.529 213.16ZM305.577 290.767C302.873 290.755 300.283 289.675 298.37 287.763C296.458 285.851 295.378 283.261 295.365 280.558V264.803C295.367 262.097 296.444 259.502 298.359 257.589C300.274 255.677 302.87 254.602 305.577 254.602C308.284 254.602 310.881 255.677 312.796 257.589C314.711 259.502 315.788 262.097 315.79 264.803V280.558C315.777 283.261 314.697 285.851 312.785 287.763C310.872 289.675 308.282 290.755 305.577 290.767Z" fill="#E6E6E6"/>
<path d="M257.14 349.996V363.174C257.141 363.857 257.413 364.511 257.896 364.994C258.379 365.477 259.034 365.749 259.717 365.75H350.868C351.551 365.747 352.204 365.474 352.687 364.992C353.169 364.51 353.442 363.856 353.445 363.174V349.996L257.14 349.996Z" fill="#CCCCCC"/>
<path d="M491.741 0H122.051C118.875 0.00505176 115.83 1.26872 113.584 3.51409C111.338 5.75946 110.074 8.80338 110.069 11.9788V261.386C110.072 264.562 111.336 267.607 113.582 269.853C115.828 272.099 118.874 273.362 122.051 273.365H491.741C494.918 273.362 497.963 272.099 500.21 269.853C502.456 267.607 503.719 264.562 503.723 261.386V11.9788C503.717 8.80338 502.453 5.75946 500.207 3.51409C497.962 1.26872 494.917 0.00504979 491.741 0Z" fill="#E6E6E6"/>
<path d="M488.655 8.65234H125.14C123.44 8.65604 121.81 9.334 120.609 10.5375C119.407 11.741 118.733 13.3717 118.732 15.0719V258.297C118.735 259.995 119.411 261.623 120.612 262.824C121.814 264.025 123.442 264.7 125.14 264.703H488.655C490.354 264.7 491.982 264.025 493.183 262.824C494.384 261.623 495.06 259.995 495.063 258.297V15.0719C495.063 13.3717 494.388 11.741 493.187 10.5375C491.986 9.334 490.356 8.65604 488.655 8.65234Z" fill="white"/>
<path d="M495.062 15.0719V258.297C495.059 259.995 494.383 261.623 493.182 262.824C491.981 264.025 490.353 264.7 488.655 264.703H360.471C346.291 251.556 334.657 235.907 326.154 218.541C325.594 217.422 325.061 216.29 324.555 215.145C316.808 198.336 312.116 180.283 310.7 161.83C310.607 160.698 310.527 159.566 310.474 158.42C310.301 155.49 310.221 152.52 310.221 149.537C310.195 129.695 313.943 110.03 321.265 91.5875C321.704 90.4421 322.171 89.31 322.65 88.1779C337.385 53.5665 364.01 25.3611 397.719 8.65234H488.655C490.355 8.65604 491.985 9.334 493.186 10.5375C494.387 11.741 495.062 13.3717 495.062 15.0719Z" fill="#1A87EC"/>
<path d="M470.382 42.1636H130.242C129.888 42.1561 129.552 42.0103 129.304 41.7575C129.057 41.5047 128.918 41.165 128.918 40.8113C128.918 40.4575 129.057 40.1179 129.304 39.8651C129.552 39.6123 129.888 39.4665 130.242 39.459H470.382C470.735 39.4665 471.072 39.6123 471.32 39.8651C471.567 40.1179 471.706 40.4575 471.706 40.8113C471.706 41.165 471.567 41.5047 471.32 41.7575C471.072 42.0103 470.735 42.1561 470.382 42.1636Z" fill="#CACACA"/>
<path d="M153.396 32.5541C157.774 32.5541 161.323 28.9269 161.323 24.4524C161.323 19.9779 157.774 16.3506 153.396 16.3506C149.018 16.3506 145.469 19.9779 145.469 24.4524C145.469 28.9269 149.018 32.5541 153.396 32.5541Z" fill="#3F3D56"/>
<path d="M180.781 32.5541C185.159 32.5541 188.708 28.9269 188.708 24.4524C188.708 19.9779 185.159 16.3506 180.781 16.3506C176.403 16.3506 172.854 19.9779 172.854 24.4524C172.854 28.9269 176.403 32.5541 180.781 32.5541Z" fill="#3F3D56"/>
<path d="M208.164 32.5541C212.542 32.5541 216.092 28.9269 216.092 24.4524C216.092 19.9779 212.542 16.3506 208.164 16.3506C203.786 16.3506 200.237 19.9779 200.237 24.4524C200.237 28.9269 203.786 32.5541 208.164 32.5541Z" fill="#3F3D56"/>
<path d="M453.894 18.3584H434.441C434.056 18.366 433.688 18.5245 433.418 18.7998C433.148 19.0752 432.997 19.4454 432.997 19.8309C432.997 20.2165 433.148 20.5867 433.418 20.862C433.688 21.1374 434.056 21.2959 434.441 21.3035H453.894C454.279 21.2959 454.647 21.1374 454.917 20.862C455.187 20.5867 455.338 20.2165 455.338 19.8309C455.338 19.4454 455.187 19.0752 454.917 18.7998C454.647 18.5245 454.279 18.366 453.894 18.3584Z" fill="#3F3D56"/>
<path d="M453.894 23.8857H434.441C434.056 23.8934 433.688 24.0519 433.418 24.3272C433.148 24.6025 432.997 24.9727 432.997 25.3583C432.997 25.7439 433.148 26.1141 433.418 26.3894C433.688 26.6647 434.056 26.8232 434.441 26.8308H453.894C454.279 26.8232 454.647 26.6647 454.917 26.3894C455.187 26.1141 455.338 25.7439 455.338 25.3583C455.338 24.9727 455.187 24.6025 454.917 24.3272C454.647 24.0519 454.279 23.8934 453.894 23.8857Z" fill="#3F3D56"/>
<path d="M453.894 29.4062H434.441C434.056 29.4139 433.688 29.5724 433.418 29.8477C433.148 30.123 432.997 30.4932 432.997 30.8788C432.997 31.2644 433.148 31.6346 433.418 31.9099C433.688 32.1852 434.056 32.3437 434.441 32.3514H453.894C454.279 32.3437 454.647 32.1852 454.917 31.9099C455.187 31.6346 455.338 31.2644 455.338 30.8788C455.338 30.4932 455.187 30.123 454.917 29.8477C454.647 29.5724 454.279 29.4139 453.894 29.4062Z" fill="#3F3D56"/>
<path d="M234.388 121.166H186.823C185.029 121.166 183.574 122.62 183.574 124.414V129.476C183.574 131.27 185.029 132.724 186.823 132.724H234.388C236.183 132.724 237.637 131.27 237.637 129.476V124.414C237.637 122.62 236.183 121.166 234.388 121.166Z" fill="#1A87EC"/>
<path d="M261.845 144.282H159.366C157.572 144.282 156.117 145.736 156.117 147.53V152.592C156.117 154.386 157.572 155.84 159.366 155.84H261.845C263.639 155.84 265.093 154.386 265.093 152.592V147.53C265.093 145.736 263.639 144.282 261.845 144.282Z" fill="#E6E6E6"/>
<path d="M261.845 167.398H159.366C157.572 167.398 156.117 168.853 156.117 170.646V175.708C156.117 177.502 157.572 178.956 159.366 178.956H261.845C263.639 178.956 265.093 177.502 265.093 175.708V170.646C265.093 168.853 263.639 167.398 261.845 167.398Z" fill="#E6E6E6"/>
<path d="M165.013 250.759C165.021 255.519 164.172 260.243 162.508 264.703H125.14C123.442 264.7 121.814 264.024 120.612 262.824C119.411 261.623 118.735 259.995 118.732 258.297V211.309C120.82 210.971 122.932 210.802 125.047 210.803C130.295 210.802 135.493 211.836 140.342 213.844C145.191 215.851 149.597 218.795 153.308 222.505C157.019 226.215 159.963 230.62 161.971 235.468C163.98 240.316 165.013 245.511 165.013 250.759Z" fill="#6C63FF"/>
<path opacity="0.2" d="M495.396 91.5871V88.1775H438.232V48.6611H434.835V88.1775H369.317V48.6611H365.92V88.1775H322.651C322.171 89.3096 321.705 90.4417 321.265 91.5871H365.92V158.42H310.475C310.528 159.565 310.608 160.698 310.701 161.83H365.92V215.144H324.556C325.062 216.29 325.595 217.422 326.155 218.541H365.92V263.358H369.317V218.54H434.835V263.358H438.232V218.54H495.396V215.144H438.232C438.232 208.143 439.611 201.21 442.291 194.742C444.971 188.273 448.899 182.396 453.851 177.445C458.803 172.494 464.682 168.567 471.152 165.888C477.622 163.209 484.556 161.83 491.559 161.83H495.396V158.42H438.232V91.5871H495.396ZM434.835 215.144H369.317V161.83H434.835V215.144ZM434.835 158.42H369.317V157.088C369.317 139.716 376.22 123.056 388.507 110.772C400.794 98.4881 417.458 91.5871 434.835 91.5871L434.835 158.42Z" fill="black"/>
<path d="M197.645 173.37V135.387C197.645 129.557 195.328 123.965 191.204 119.842C187.081 115.719 181.488 113.403 175.656 113.403H95.1629C89.3311 113.403 83.7381 115.719 79.6143 119.842C75.4905 123.965 73.1738 129.557 73.1738 135.387V343.767C73.1738 349.597 75.4905 355.189 79.6143 359.312C83.738 363.435 89.331 365.751 95.1629 365.751H175.656C178.543 365.751 181.403 365.182 184.071 364.077C186.738 362.972 189.162 361.353 191.204 359.312C193.246 357.27 194.866 354.847 195.971 352.18C197.076 349.513 197.645 346.654 197.645 343.767V200.408C198.013 200.408 198.365 200.262 198.625 200.002C198.886 199.742 199.032 199.389 199.032 199.021V174.757C199.032 174.389 198.886 174.037 198.625 173.777C198.365 173.517 198.013 173.37 197.645 173.37Z" fill="#E6E6E6"/>
<path d="M192.966 135.539V343.617C192.966 347.94 191.261 352.087 188.22 355.16C185.179 358.232 181.049 359.98 176.726 360.025C176.666 360.032 176.606 360.034 176.546 360.033H95.6617C91.3071 360.033 87.1309 358.303 84.0518 355.225C80.9726 352.146 79.2426 347.971 79.2422 343.617V135.539C79.2426 131.185 80.9726 127.01 84.0518 123.931C87.131 120.853 91.3071 119.123 95.6617 119.123H105.477C104.995 120.308 104.811 121.593 104.942 122.865C105.073 124.138 105.515 125.359 106.228 126.42C106.942 127.482 107.906 128.352 109.035 128.954C110.163 129.556 111.423 129.871 112.703 129.872H158.816C160.095 129.869 161.353 129.551 162.48 128.949C163.607 128.346 164.569 127.476 165.282 126.415C165.994 125.354 166.435 124.134 166.567 122.863C166.698 121.591 166.515 120.307 166.034 119.123H176.546C180.901 119.123 185.077 120.853 188.156 123.931C191.235 127.01 192.965 131.185 192.966 135.539Z" fill="white"/>
<path d="M176.928 353.61C176.928 355.766 176.861 357.904 176.726 360.025C176.666 360.031 176.606 360.033 176.546 360.032H95.6617C91.3071 360.032 87.1309 358.302 84.0518 355.224C80.9726 352.145 79.2426 347.97 79.2422 343.617V250.888C105.596 252.216 130.431 263.619 148.612 282.737C166.794 301.856 176.931 327.229 176.928 353.61Z" fill="#F2F2F2"/>
<path d="M73.6189 194.62C73.1226 194.62 72.6469 194.422 72.296 194.071C71.945 193.721 71.7477 193.245 71.7471 192.749V180.024C71.7471 179.527 71.9443 179.051 72.2953 178.7C72.6463 178.35 73.1224 178.152 73.6189 178.152C74.1153 178.152 74.5914 178.35 74.9424 178.7C75.2935 179.051 75.4907 179.527 75.4907 180.024V192.749C75.4901 193.245 75.2927 193.721 74.9418 194.071C74.5909 194.422 74.1151 194.62 73.6189 194.62Z" fill="#E6E6E6"/>
<path d="M146.035 184.459H126.173C124.378 184.459 122.924 185.913 122.924 187.707V192.769C122.924 194.563 124.378 196.017 126.173 196.017H146.035C147.829 196.017 149.284 194.563 149.284 192.769V187.707C149.284 185.913 147.829 184.459 146.035 184.459Z" fill="#1A87EC"/>
<path d="M173.492 207.575H98.7155C96.9213 207.575 95.4668 209.029 95.4668 210.823V215.885C95.4668 217.679 96.9213 219.133 98.7155 219.133H173.492C175.286 219.133 176.74 217.679 176.74 215.885V210.823C176.74 209.029 175.286 207.575 173.492 207.575Z" fill="#E6E6E6"/>
<path d="M173.492 230.69H98.7155C96.9213 230.69 95.4668 232.145 95.4668 233.938V239C95.4668 240.794 96.9213 242.248 98.7155 242.248H173.492C175.286 242.248 176.74 240.794 176.74 239V233.938C176.74 232.145 175.286 230.69 173.492 230.69Z" fill="#E6E6E6"/>
<path d="M73.2449 169.918C72.7486 169.917 72.2728 169.72 71.9219 169.369C71.571 169.018 71.3736 168.543 71.373 168.047V155.322C71.373 154.825 71.5703 154.349 71.9213 153.998C72.2723 153.647 72.7484 153.45 73.2449 153.45C73.7413 153.45 74.2174 153.647 74.5684 153.998C74.9194 154.349 75.1167 154.825 75.1167 155.322V168.047C75.1161 168.543 74.9187 169.018 74.5678 169.369C74.2169 169.72 73.7411 169.917 73.2449 169.918Z" fill="#E6E6E6"/>
<path d="M123.035 121.263C123.036 120.767 123.233 120.291 123.584 119.94C123.935 119.59 124.411 119.392 124.907 119.392H137.635C138.132 119.392 138.608 119.589 138.959 119.94C139.31 120.291 139.507 120.767 139.507 121.263C139.507 121.759 139.31 122.235 138.959 122.586C138.608 122.937 138.132 123.134 137.635 123.134H124.907C124.411 123.134 123.935 122.936 123.584 122.586C123.233 122.235 123.036 121.759 123.035 121.263Z" fill="white"/>
<path d="M73.6189 216.327C73.1226 216.327 72.6469 216.129 72.296 215.778C71.945 215.428 71.7477 214.952 71.7471 214.456V201.731C71.7471 201.234 71.9443 200.758 72.2953 200.407C72.6463 200.057 73.1224 199.859 73.6189 199.859C74.1153 199.859 74.5914 200.057 74.9424 200.407C75.2935 200.758 75.4907 201.234 75.4907 201.731V214.456C75.4901 214.952 75.2927 215.428 74.9418 215.778C74.5909 216.129 74.1151 216.327 73.6189 216.327Z" fill="#E6E6E6"/>
<path d="M144.748 123.134C145.782 123.134 146.62 122.296 146.62 121.263C146.62 120.229 145.782 119.392 144.748 119.392C143.714 119.392 142.876 120.229 142.876 121.263C142.876 122.296 143.714 123.134 144.748 123.134Z" fill="white"/>
<path d="M643.109 365.745L0.891844 365.975C0.655853 365.975 0.429766 365.881 0.263136 365.714C0.0965069 365.546 0.00292969 365.32 0.00292969 365.084C0.00292969 364.848 0.0965069 364.622 0.263136 364.455C0.429766 364.288 0.655853 364.194 0.891844 364.193L643.109 363.963C643.345 363.963 643.572 364.057 643.739 364.224C643.906 364.391 644 364.618 644 364.854C644 365.091 643.906 365.317 643.739 365.484C643.572 365.652 643.345 365.745 643.109 365.745Z" fill="#CACACA"/>
<path d="M274.611 169.25L271.233 169.973C271.211 168.561 271.035 167.155 270.708 165.78C270.401 167.463 269.754 169.066 268.806 170.491L249.432 174.628L230.831 155.003C230.803 145.19 236.253 137.734 246.025 137.734C246.614 137.734 247.225 137.762 247.842 137.819C253.122 136.935 258.539 138.134 262.952 141.164C267.365 144.193 270.431 148.816 271.503 154.059C278.429 160.878 275.917 164.886 274.611 169.25Z" fill="#2F2E41"/>
<path d="M284.136 398.755H291.164L294.508 371.654L284.135 371.655L284.136 398.755Z" fill="#FFB6B6"/>
<path d="M282.394 395.289L293.503 394.626V399.385L304.065 406.677C304.587 407.037 304.98 407.555 305.186 408.154C305.393 408.753 305.403 409.403 305.214 410.008C305.026 410.613 304.648 411.142 304.138 411.517C303.627 411.893 303.01 412.096 302.376 412.095H289.15L286.87 407.389L285.98 412.095H280.993L282.394 395.289Z" fill="#2F2E41"/>
<path d="M201.804 391.107L207.916 394.574L224.201 372.653L215.18 367.536L201.804 391.107Z" fill="#FFB6B6"/>
<path d="M201.999 387.233L211.988 392.138L209.639 396.277L215.226 407.83C215.502 408.401 215.588 409.045 215.472 409.668C215.356 410.291 215.044 410.861 214.581 411.294C214.118 411.727 213.529 412.001 212.9 412.076C212.27 412.151 211.633 412.022 211.082 411.709L199.579 405.184L199.919 399.965L196.822 403.62L192.484 401.16L201.999 387.233Z" fill="#2F2E41"/>
<path d="M310.113 173.997C309.213 174.127 308.352 174.453 307.591 174.952C306.83 175.451 306.188 176.111 305.71 176.885C305.231 177.659 304.929 178.528 304.823 179.431C304.717 180.335 304.81 181.251 305.097 182.114L294.343 191.42L298.405 199.332L313.407 185.978C314.826 185.401 315.984 184.323 316.662 182.949C317.339 181.576 317.489 180.001 317.083 178.525C316.677 177.048 315.743 175.771 314.459 174.937C313.174 174.102 311.628 173.768 310.113 173.997Z" fill="#FFB6B6"/>
<path d="M299.284 205.998C295.696 211.43 287.657 216.675 275.725 221.326C275.067 221.59 274.361 221.714 273.652 221.691C272.944 221.667 272.248 221.497 271.608 221.191C267.105 219.142 264.219 211.526 263.948 210.787L255.227 199.026C255.073 198.855 250.995 194.227 251.461 189.678C251.566 188.725 251.876 187.806 252.37 186.984C252.864 186.162 253.531 185.456 254.323 184.916C260.925 180.023 275.721 197.016 277.641 199.276L287.297 193.394L294.333 190.255L300.012 183.346L308.01 191.52L300.817 202.96C300.433 204.032 299.918 205.052 299.284 205.998Z" fill="#2F2E41"/>
<path d="M274.203 226.837C274.203 226.837 294.866 259.743 291.123 263.486C287.379 267.229 281.554 268.211 281.554 268.211L268.661 251.509L274.203 226.837Z" fill="#2F2E41"/>
<path d="M255.934 181.896L265.672 188.482C270.199 191.543 273.604 195.997 275.37 201.167C277.136 206.338 277.168 211.943 275.46 217.133L272.718 225.465L255.934 181.896Z" fill="#2F2E41"/>
<path d="M238.712 271.72L237.41 276.254L232.967 330.928L210.771 372.285L221.364 379.85L251.633 340.51L263.605 301.449L282.406 387.92L296.531 386.911L286.721 267.021L268.105 233.274L238.712 271.72Z" fill="#2F2E41"/>
<path d="M254.277 183.552L267.831 194.626C270.806 197.057 272.948 200.355 273.959 204.061C274.418 205.743 274.636 207.482 274.607 209.226L274.203 233.275L286.631 266.48C286.631 266.48 252.938 279.206 248.446 267.978C243.954 256.749 254.277 183.552 254.277 183.552Z" fill="#1A87EC"/>
<path d="M258.331 273.805C241.499 273.805 237.397 273.932 237.131 273.878L236.865 273.824V263.704L240.958 245.521C240.48 239.876 239.359 232.432 239.461 226.059C239.828 203.022 238.695 180.52 238.695 180.52L247.603 172.299L251.65 174.932L259.157 182.437C267.883 203.906 274.807 224.118 274.851 225.417L275.4 247.766L273.153 256.749C262.992 263.92 272.276 273.805 258.331 273.805Z" fill="#2F2E41"/>
<path opacity="0.2" d="M242.471 200.588L240.425 213.356L254.277 219.069L242.471 200.588Z" fill="black"/>
<path d="M256.425 169.904C263.916 169.904 269.988 163.833 269.988 156.345C269.988 148.857 263.916 142.786 256.425 142.786C248.935 142.786 242.863 148.857 242.863 156.345C242.863 163.833 248.935 169.904 256.425 169.904Z" fill="#FFB6B6"/>
<path opacity="0.2" d="M233.701 225.141C237.311 229.319 242.207 232.18 247.62 233.274C253.032 234.368 258.655 233.632 263.605 231.183L266.557 229.723L233.701 225.141Z" fill="black"/>
<path d="M280.893 222.019C280.288 221.34 279.542 220.801 278.706 220.441C277.87 220.081 276.966 219.909 276.056 219.937C275.147 219.964 274.255 220.191 273.442 220.6C272.63 221.01 271.917 221.592 271.354 222.307L257.661 218.464L253.295 226.214L272.709 231.37C273.973 232.235 275.51 232.607 277.03 232.416C278.55 232.224 279.946 231.481 280.955 230.329C281.964 229.176 282.515 227.694 282.504 226.162C282.492 224.631 281.919 223.157 280.893 222.019Z" fill="#FFB6B6"/>
<path d="M248.216 230.62C241.706 230.62 232.897 226.804 222.44 219.413C221.857 219.009 221.364 218.489 220.993 217.885C220.622 217.281 220.38 216.606 220.283 215.904C219.512 211.019 224.279 204.414 224.746 203.781L229.757 190.024C229.815 189.8 231.429 183.848 235.483 181.73C236.337 181.293 237.275 181.045 238.233 181.004C239.192 180.963 240.148 181.13 241.035 181.494C248.757 184.305 242.728 206.013 241.9 208.859L252.131 213.674L258.627 217.814L267.525 218.744L265.109 229.921L251.597 230.225C250.491 230.496 249.355 230.628 248.216 230.62Z" fill="#2F2E41"/>
<path d="M272.689 147.425C271.603 148.837 267.863 150.085 263.42 151.093C263.427 151.001 263.427 150.909 263.427 150.816C263.405 149.404 263.229 147.998 262.902 146.623C262.595 148.306 261.948 149.909 261 151.334C260.929 151.441 260.858 151.547 260.78 151.653C256.969 152.406 252.938 152.987 249.78 153.378C251.952 161.196 260.277 167.61 259.375 172.364L234.984 177.345C235.134 175.369 234.976 173.383 234.515 171.456C234.049 173.999 232.815 176.338 230.981 178.161L228.909 178.586L228.291 175.542C222.94 162.693 230.399 149.539 242.62 142.735C244.799 139.47 248.182 137.199 252.03 136.42L255.075 135.796C256.995 135.403 258.974 135.392 260.898 135.764C262.823 136.136 264.655 136.883 266.291 137.963C267.926 139.043 269.333 140.434 270.431 142.058C271.529 143.681 272.296 145.505 272.689 147.425Z" fill="#2F2E41"/>
<path d="M330.956 393.235L331.317 385.127C335.077 383.118 339.271 382.056 343.534 382.035C337.666 386.831 338.4 396.077 334.421 402.526C333.165 404.528 331.475 406.222 329.475 407.482C327.475 408.742 325.217 409.536 322.868 409.805L317.958 412.811C317.284 409.056 317.432 405.199 318.393 401.506C319.354 397.814 321.104 394.374 323.522 391.423C324.896 389.781 326.47 388.318 328.209 387.069C329.385 390.169 330.956 393.235 330.956 393.235Z" fill="#F2F2F2"/>
<path d="M342.86 413H171.865C171.629 413 171.403 412.905 171.237 412.738C171.07 412.571 170.977 412.345 170.977 412.109C170.977 411.873 171.07 411.647 171.237 411.48C171.403 411.313 171.629 411.218 171.865 411.218H342.86C342.978 411.217 343.094 411.24 343.202 411.285C343.311 411.329 343.409 411.395 343.492 411.478C343.575 411.561 343.641 411.659 343.686 411.767C343.731 411.876 343.754 411.992 343.754 412.109C343.754 412.226 343.731 412.342 343.686 412.451C343.641 412.559 343.575 412.657 343.492 412.74C343.409 412.823 343.311 412.889 343.202 412.933C343.094 412.978 342.978 413.001 342.86 413Z" fill="#CACACA"/>
<g clip-path="url(#clip1_678_25556)">
<path d="M469.24 137.417C470.329 132.98 469.293 127.806 465.775 124.888C465.706 129.855 463.88 134.637 460.621 138.389C459.359 139.832 457.804 141.305 457.743 143.22C457.705 144.411 458.287 145.556 459.09 146.438C459.892 147.32 460.904 147.981 461.905 148.631L462.052 148.89C465.271 145.646 468.151 141.853 469.24 137.417Z" fill="#F0F0F0"/>
<path d="M465.703 124.952C467.053 128.485 467.253 132.352 466.277 136.005C466.081 136.796 465.761 137.55 465.329 138.241C464.887 138.9 464.277 139.429 463.561 139.773C462.9 140.107 462.185 140.372 461.616 140.86C461.329 141.115 461.099 141.427 460.941 141.776C460.783 142.126 460.701 142.505 460.7 142.888C460.672 143.844 460.99 144.752 461.332 145.629C461.712 146.603 462.121 147.609 462.033 148.676C462.023 148.805 462.224 148.814 462.235 148.685C462.387 146.829 461.126 145.262 460.925 143.462C460.832 142.622 460.992 141.749 461.613 141.137C462.157 140.601 462.894 140.327 463.566 139.995C464.27 139.67 464.883 139.178 465.352 138.561C465.817 137.895 466.165 137.154 466.382 136.371C466.897 134.615 467.133 132.79 467.08 130.961C467.032 128.873 466.627 126.81 465.882 124.859C465.836 124.738 465.657 124.832 465.703 124.952Z" fill="white"/>
<path d="M466.661 134.848C467.297 134.928 467.941 134.78 468.478 134.43C469.014 134.08 469.409 133.551 469.591 132.938C469.628 132.813 469.436 132.751 469.4 132.875C469.231 133.447 468.863 133.94 468.363 134.265C467.862 134.59 467.262 134.725 466.67 134.647C466.542 134.63 466.533 134.831 466.661 134.848Z" fill="white"/>
<path d="M463.919 139.647C463.107 138.62 462.712 137.325 462.814 136.021C462.824 135.891 462.622 135.882 462.612 136.011C462.509 137.369 462.922 138.716 463.77 139.783C463.85 139.885 463.999 139.748 463.919 139.647Z" fill="white"/>
<path d="M466.79 128.985C466.537 129.005 466.284 128.962 466.052 128.86C465.82 128.758 465.617 128.6 465.461 128.401C465.382 128.298 465.234 128.435 465.313 128.536C465.486 128.756 465.71 128.93 465.966 129.044C466.222 129.157 466.501 129.206 466.781 129.186C466.807 129.186 466.833 129.177 466.852 129.159C466.872 129.141 466.884 129.116 466.886 129.09C466.887 129.063 466.877 129.037 466.859 129.018C466.841 128.998 466.816 128.986 466.79 128.985Z" fill="white"/>
<path d="M450.559 127.76C450.606 127.825 450.654 127.891 450.702 127.958C451.34 128.842 451.905 129.776 452.392 130.751C452.431 130.826 452.469 130.902 452.506 130.978C453.654 133.34 454.352 135.894 454.567 138.51C454.651 139.552 454.656 140.598 454.581 141.64C454.478 143.079 454.252 144.631 454.62 145.981C454.656 146.122 454.702 146.261 454.756 146.396L461.724 149.049C461.742 149.047 461.761 149.047 461.78 149.045L462.053 149.163C462.061 149.11 462.067 149.054 462.075 149.001C462.08 148.97 462.083 148.938 462.087 148.907C462.09 148.886 462.092 148.865 462.096 148.847C462.096 148.84 462.097 148.833 462.097 148.827C462.101 148.809 462.102 148.791 462.105 148.774C462.144 148.463 462.18 148.152 462.214 147.839C462.215 147.837 462.215 147.837 462.214 147.835C462.498 145.457 462.499 143.053 462.216 140.675C462.206 140.604 462.197 140.532 462.185 140.46C462.038 139.399 461.805 138.352 461.488 137.329C461.313 136.769 461.109 136.219 460.878 135.68C460.277 134.288 459.462 132.999 458.461 131.861C456.465 129.592 453.764 127.985 450.786 127.774C450.71 127.768 450.635 127.764 450.559 127.76Z" fill="#F0F0F0"/>
<path d="M450.541 127.854C453.748 129.864 456.239 132.831 457.661 136.335C457.981 137.084 458.18 137.878 458.252 138.689C458.297 139.481 458.128 140.271 457.764 140.976C457.437 141.64 457.026 142.282 456.867 143.014C456.791 143.39 456.795 143.777 456.88 144.151C456.964 144.525 457.127 144.877 457.358 145.184C457.912 145.963 458.713 146.497 459.515 146.992C460.405 147.542 461.338 148.099 461.911 149.003C461.98 149.113 462.147 148.999 462.077 148.889C461.08 147.316 459.128 146.823 457.883 145.506C457.303 144.892 456.904 144.099 457.031 143.236C457.142 142.482 457.566 141.82 457.902 141.15C458.268 140.468 458.46 139.706 458.463 138.932C458.433 138.12 458.265 137.319 457.965 136.564C457.318 134.852 456.406 133.253 455.262 131.824C453.965 130.186 452.398 128.782 450.627 127.672C450.517 127.604 450.432 127.786 450.541 127.854Z" fill="white"/>
<path d="M457.27 135.18C457.826 134.862 458.251 134.356 458.468 133.754C458.686 133.152 458.682 132.492 458.458 131.893C458.412 131.771 458.221 131.837 458.267 131.958C458.477 132.516 458.481 133.131 458.277 133.691C458.073 134.251 457.675 134.72 457.156 135.014C457.043 135.078 457.158 135.243 457.27 135.18Z" fill="white"/>
<path d="M457.973 140.661C456.706 140.329 455.61 139.532 454.905 138.429C454.835 138.32 454.669 138.434 454.738 138.543C455.475 139.689 456.616 140.516 457.936 140.858C458.062 140.891 458.098 140.693 457.973 140.661Z" fill="white"/>
<path d="M453.838 130.421C453.649 130.589 453.421 130.707 453.174 130.765C452.927 130.823 452.67 130.819 452.426 130.753C452.3 130.719 452.264 130.917 452.389 130.951C452.659 131.022 452.943 131.026 453.216 130.963C453.488 130.9 453.741 130.77 453.952 130.587C453.974 130.571 453.988 130.548 453.993 130.522C453.998 130.496 453.993 130.469 453.979 130.447C453.963 130.425 453.94 130.41 453.914 130.405C453.888 130.4 453.861 130.406 453.838 130.421Z" fill="white"/>
<path d="M441.346 227.975C417.987 227.975 398.982 208.994 398.982 185.663C398.982 162.333 417.987 143.352 441.346 143.352C443.815 143.351 446.28 143.565 448.713 143.989C448.743 143.994 448.772 144.006 448.798 144.022C448.824 144.038 448.847 144.06 448.865 144.085C448.882 144.11 448.895 144.139 448.902 144.169C448.908 144.199 448.909 144.23 448.904 144.26C448.898 144.29 448.887 144.319 448.871 144.345C448.854 144.371 448.833 144.393 448.807 144.411C448.782 144.429 448.754 144.441 448.724 144.448C448.694 144.454 448.663 144.455 448.632 144.45C446.226 144.03 443.788 143.819 441.346 143.819C418.245 143.819 399.451 162.59 399.451 185.663C399.451 208.736 418.245 227.507 441.346 227.507C464.447 227.507 483.241 208.736 483.241 185.663C483.251 175.234 479.353 165.18 472.312 157.478C472.271 157.432 472.249 157.372 472.252 157.31C472.255 157.249 472.282 157.191 472.328 157.149C472.374 157.107 472.434 157.086 472.496 157.088C472.558 157.091 472.616 157.118 472.658 157.163C479.777 164.951 483.72 175.118 483.709 185.663C483.709 208.994 464.705 227.975 441.346 227.975Z" fill="#E4E4E4"/>
<path d="M460.025 157.863C464.654 157.863 468.407 154.115 468.407 149.492C468.407 144.868 464.654 141.12 460.025 141.12C455.396 141.12 451.644 144.868 451.644 149.492C451.644 154.115 455.396 157.863 460.025 157.863Z" fill="#0BA800"/>
<path d="M458.882 153.849C458.737 153.849 458.594 153.816 458.465 153.751C458.336 153.686 458.223 153.592 458.136 153.477L455.85 150.432C455.776 150.334 455.723 150.222 455.692 150.104C455.662 149.985 455.655 149.862 455.672 149.741C455.69 149.62 455.731 149.504 455.793 149.398C455.856 149.293 455.938 149.201 456.036 149.128C456.134 149.055 456.245 149.001 456.364 148.971C456.483 148.94 456.606 148.934 456.727 148.951C456.848 148.968 456.965 149.009 457.07 149.072C457.176 149.134 457.268 149.216 457.341 149.314L458.837 151.306L462.68 145.55C462.817 145.345 463.03 145.203 463.272 145.155C463.514 145.108 463.766 145.157 463.971 145.294C464.176 145.431 464.319 145.643 464.368 145.885C464.416 146.126 464.367 146.378 464.231 146.583L459.658 153.435C459.575 153.559 459.464 153.661 459.333 153.733C459.203 153.805 459.057 153.845 458.908 153.849C458.899 153.849 458.891 153.849 458.882 153.849Z" fill="white"/>
<path d="M440.256 179.098L427.331 143.184L427.659 143.066L425.281 136.461L424.954 136.579L420.985 125.552C420.837 125.14 420.609 124.761 420.314 124.438C420.019 124.114 419.664 123.851 419.267 123.665C418.871 123.478 418.442 123.371 418.004 123.35C417.566 123.33 417.129 123.395 416.717 123.543L393.351 131.932C392.938 132.08 392.559 132.308 392.235 132.602C391.911 132.896 391.648 133.252 391.461 133.647C391.274 134.043 391.167 134.472 391.146 134.909C391.125 135.346 391.191 135.783 391.339 136.195L394.106 143.884L393.588 144.083L395.355 148.664L395.769 148.504L396.136 149.523L395.695 149.693L397.461 154.274L397.799 154.144L410.61 189.741C410.758 190.153 410.985 190.532 411.28 190.857C411.574 191.181 411.93 191.444 412.327 191.631C412.723 191.817 413.153 191.924 413.591 191.944C414.029 191.965 414.466 191.899 414.879 191.75L438.245 183.361C439.077 183.061 439.756 182.444 440.133 181.645C440.51 180.845 440.554 179.929 440.256 179.098Z" fill="#3F3D56"/>
<path d="M413.65 190.566C413.321 190.565 413 190.463 412.731 190.274C412.462 190.085 412.258 189.818 412.147 189.508L392.672 135.398C392.529 134.999 392.55 134.56 392.731 134.177C392.911 133.794 393.237 133.498 393.636 133.355L398.608 131.57L398.6 131.744C398.587 132.045 398.649 132.345 398.78 132.617C398.911 132.89 399.106 133.125 399.35 133.304C399.593 133.483 399.877 133.599 400.176 133.643C400.475 133.686 400.78 133.656 401.065 133.553L412.098 129.592C412.364 129.47 412.598 129.288 412.781 129.059C412.963 128.83 413.089 128.561 413.148 128.275C413.207 127.993 413.198 127.701 413.123 127.424C413.047 127.146 412.906 126.89 412.713 126.677L412.596 126.548L417.732 124.704C418.131 124.561 418.57 124.582 418.954 124.763C419.337 124.943 419.633 125.268 419.777 125.667L438.357 177.293C438.737 178.35 438.68 179.515 438.201 180.531C437.721 181.547 436.858 182.332 435.8 182.713L414.192 190.471C414.018 190.534 413.835 190.566 413.65 190.566Z" fill="white"/>
<path d="M411.746 152.186C415.236 152.186 418.066 149.36 418.066 145.874C418.066 142.388 415.236 139.562 411.746 139.562C408.256 139.562 405.427 142.388 405.427 145.874C405.427 149.36 408.256 152.186 411.746 152.186Z" fill="#FFA929"/>
<path d="M427.406 155.054L405.521 162.91C405.453 162.935 405.38 162.946 405.308 162.943C405.235 162.94 405.164 162.922 405.098 162.891C405.032 162.86 404.973 162.817 404.924 162.763C404.875 162.709 404.837 162.646 404.813 162.578C404.788 162.51 404.777 162.437 404.781 162.365C404.784 162.292 404.802 162.221 404.833 162.155C404.864 162.09 404.908 162.031 404.962 161.982C405.016 161.933 405.079 161.896 405.147 161.871L427.032 154.014C427.169 153.965 427.321 153.973 427.454 154.035C427.586 154.098 427.688 154.21 427.737 154.348C427.787 154.485 427.78 154.637 427.718 154.769C427.655 154.902 427.543 155.004 427.406 155.054Z" fill="#E6E6E6"/>
<path d="M420.907 160.035L413.709 162.619C413.64 162.644 413.568 162.655 413.495 162.651C413.422 162.648 413.351 162.63 413.285 162.599C413.22 162.569 413.161 162.525 413.112 162.471C413.063 162.418 413.025 162.355 413 162.286C412.976 162.218 412.965 162.146 412.968 162.073C412.972 162.001 412.99 161.93 413.021 161.864C413.052 161.798 413.095 161.739 413.149 161.691C413.203 161.642 413.266 161.604 413.335 161.58L420.533 158.995C420.671 158.946 420.823 158.953 420.956 159.016C421.088 159.078 421.191 159.19 421.24 159.328C421.29 159.466 421.283 159.618 421.22 159.75C421.158 159.883 421.045 159.985 420.907 160.035Z" fill="#E6E6E6"/>
<path d="M422.619 164.792L415.42 167.377C415.352 167.401 415.28 167.412 415.207 167.409C415.135 167.405 415.064 167.388 414.998 167.357C414.932 167.326 414.873 167.282 414.824 167.229C414.776 167.175 414.738 167.112 414.713 167.044C414.689 166.976 414.678 166.903 414.681 166.831C414.685 166.758 414.702 166.687 414.733 166.622C414.764 166.556 414.808 166.497 414.862 166.449C414.915 166.4 414.978 166.362 415.046 166.338L422.245 163.753C422.383 163.704 422.535 163.711 422.667 163.773C422.8 163.836 422.902 163.948 422.952 164.086C423.002 164.224 422.994 164.376 422.932 164.508C422.869 164.641 422.757 164.743 422.619 164.792Z" fill="#E6E6E6"/>
<path d="M423.496 167.228L416.298 169.813C416.229 169.837 416.157 169.848 416.084 169.845C416.012 169.842 415.94 169.824 415.874 169.793C415.809 169.762 415.75 169.719 415.701 169.665C415.652 169.612 415.614 169.549 415.589 169.48C415.565 169.412 415.554 169.339 415.557 169.267C415.561 169.194 415.579 169.123 415.61 169.058C415.641 168.992 415.684 168.933 415.738 168.884C415.792 168.836 415.855 168.798 415.924 168.774L423.122 166.189C423.19 166.165 423.263 166.153 423.336 166.157C423.408 166.16 423.48 166.178 423.545 166.209C423.611 166.24 423.67 166.283 423.719 166.337C423.768 166.39 423.806 166.453 423.831 166.522C423.855 166.59 423.866 166.662 423.862 166.735C423.859 166.807 423.841 166.879 423.81 166.944C423.779 167.01 423.735 167.069 423.681 167.118C423.628 167.166 423.565 167.204 423.496 167.228Z" fill="#E6E6E6"/>
<path d="M425.788 160.93L410.515 166.414C410.447 166.438 410.374 166.449 410.302 166.446C410.229 166.443 410.158 166.425 410.092 166.394C410.026 166.363 409.967 166.32 409.918 166.266C409.869 166.212 409.832 166.15 409.807 166.081C409.782 166.013 409.772 165.94 409.775 165.868C409.779 165.795 409.796 165.724 409.827 165.659C409.858 165.593 409.902 165.534 409.956 165.485C410.01 165.437 410.073 165.399 410.141 165.374L425.414 159.891C425.482 159.867 425.555 159.856 425.627 159.859C425.7 159.862 425.771 159.88 425.837 159.911C425.903 159.942 425.962 159.985 426.011 160.039C426.06 160.093 426.098 160.155 426.122 160.224C426.147 160.292 426.158 160.365 426.154 160.437C426.151 160.51 426.133 160.581 426.102 160.646C426.071 160.712 426.027 160.771 425.973 160.82C425.919 160.868 425.856 160.906 425.788 160.93Z" fill="#E6E6E6"/>
<path d="M422.712 173.143L420.098 174.082C419.864 174.166 419.605 174.153 419.38 174.047C419.154 173.941 418.981 173.75 418.896 173.516C418.812 173.281 418.824 173.023 418.93 172.798C419.036 172.573 419.228 172.399 419.462 172.315L422.076 171.376C422.31 171.292 422.569 171.305 422.794 171.411C423.02 171.517 423.194 171.708 423.278 171.943C423.362 172.177 423.35 172.435 423.244 172.66C423.138 172.885 422.946 173.059 422.712 173.143Z" fill="#6C63FF"/>
<path d="M402.114 131.745C402.315 131.745 402.478 131.582 402.478 131.382C402.478 131.181 402.315 131.019 402.114 131.019C401.914 131.019 401.751 131.181 401.751 131.382C401.751 131.582 401.914 131.745 402.114 131.745Z" fill="white"/>
<path d="M360.314 151.8C364.387 147.01 370.997 143.992 377.091 145.557C371.603 149.638 367.736 155.526 366.176 162.18C365.584 164.749 365.193 167.667 363.105 169.279C361.806 170.282 360.059 170.556 358.427 170.374C356.796 170.192 355.242 169.598 353.71 169.008L353.303 169.053C354.328 162.853 356.24 156.589 360.314 151.8Z" fill="#F0F0F0"/>
<path d="M377.076 145.688C372.045 147.033 367.567 149.928 364.277 153.96C363.553 154.816 362.969 155.78 362.546 156.817C362.166 157.841 362.068 158.947 362.262 160.022C362.422 161.027 362.702 162.037 362.615 163.064C362.563 163.588 362.4 164.096 362.137 164.554C361.874 165.012 361.518 165.409 361.091 165.719C360.046 166.52 358.776 166.898 357.522 167.225C356.128 167.588 354.676 167.942 353.556 168.9C353.42 169.016 353.248 168.799 353.383 168.683C355.331 167.017 358.098 167.158 360.268 165.93C361.281 165.357 362.127 164.476 362.309 163.29C362.469 162.253 362.18 161.211 362.009 160.195C361.805 159.149 361.86 158.07 362.17 157.051C362.539 155.996 363.085 155.011 363.784 154.138C365.328 152.149 367.176 150.415 369.259 148.999C371.628 147.369 374.258 146.157 377.037 145.413C377.208 145.367 377.247 145.642 377.076 145.688Z" fill="white"/>
<path d="M365.259 152.6C364.656 151.957 364.302 151.12 364.26 150.241C364.218 149.361 364.49 148.495 365.028 147.797C365.138 147.656 365.362 147.819 365.252 147.96C364.75 148.609 364.497 149.416 364.538 150.235C364.579 151.054 364.911 151.832 365.476 152.427C365.598 152.557 365.381 152.729 365.259 152.6Z" fill="white"/>
<path d="M362.113 159.523C363.914 159.599 365.678 158.994 367.052 157.829C367.188 157.713 367.361 157.93 367.225 158.046C365.792 159.255 363.956 159.881 362.082 159.798C361.903 159.79 361.936 159.515 362.113 159.523Z" fill="white"/>
<path d="M371.699 147.73C371.88 148.027 372.132 148.275 372.433 148.451C372.734 148.627 373.073 148.725 373.422 148.738C373.6 148.743 373.568 149.019 373.39 149.013C373.005 148.997 372.63 148.888 372.297 148.694C371.965 148.501 371.685 148.229 371.481 147.902C371.46 147.873 371.45 147.837 371.454 147.8C371.458 147.764 371.476 147.731 371.504 147.708C371.533 147.685 371.569 147.674 371.606 147.679C371.642 147.683 371.676 147.701 371.699 147.73Z" fill="white"/>
<path d="M386.153 164.814C386.041 164.814 385.93 164.813 385.817 164.815C384.316 164.817 382.817 164.94 381.336 165.184C381.222 165.201 381.105 165.22 380.991 165.241C377.43 165.867 374.016 167.148 370.922 169.019C369.692 169.765 368.52 170.603 367.417 171.526C365.894 172.801 364.344 174.304 362.541 174.983C362.354 175.055 362.162 175.117 361.968 175.166L353.39 169.546C353.376 169.524 353.362 169.503 353.349 169.481L352.996 169.272C353.05 169.22 353.106 169.168 353.16 169.116C353.191 169.086 353.224 169.058 353.255 169.028C353.276 169.008 353.297 168.988 353.315 168.969C353.322 168.963 353.329 168.956 353.335 168.952C353.353 168.933 353.372 168.917 353.389 168.9C353.705 168.607 354.023 168.315 354.344 168.025C354.345 168.023 354.345 168.023 354.349 168.022C356.801 165.818 359.459 163.799 362.339 162.247C362.426 162.201 362.514 162.152 362.604 162.108C363.907 161.416 365.263 160.831 366.661 160.359C367.427 160.104 368.206 159.887 368.994 159.71C371.031 159.256 373.127 159.125 375.204 159.322C379.347 159.715 383.317 161.427 385.954 164.572C386.021 164.652 386.087 164.732 386.153 164.814Z" fill="#F0F0F0"/>
<path d="M386.062 164.91C381.234 162.959 375.913 162.578 370.855 163.819C369.762 164.067 368.714 164.485 367.751 165.059C366.831 165.648 366.086 166.473 365.593 167.447C365.114 168.346 364.73 169.321 364.041 170.088C363.683 170.476 363.247 170.783 362.761 170.991C362.275 171.198 361.751 171.301 361.223 171.292C359.907 171.303 358.665 170.841 357.466 170.348C356.135 169.8 354.761 169.209 353.289 169.301C353.111 169.312 353.104 169.035 353.282 169.024C355.842 168.865 357.966 170.642 360.439 170.966C361.593 171.117 362.8 170.922 363.66 170.085C364.413 169.353 364.81 168.348 365.287 167.433C365.754 166.476 366.448 165.647 367.31 165.02C368.241 164.399 369.27 163.941 370.355 163.665C372.787 163.005 375.307 162.731 377.824 162.854C380.698 162.977 383.529 163.591 386.195 164.668C386.36 164.734 386.225 164.977 386.062 164.91Z" fill="white"/>
<path d="M372.46 163.323C372.367 162.448 372.588 161.567 373.085 160.839C373.582 160.112 374.321 159.584 375.171 159.35C375.344 159.304 375.424 159.569 375.252 159.615C374.46 159.831 373.771 160.323 373.31 161.002C372.849 161.68 372.646 162.501 372.738 163.316C372.757 163.494 372.48 163.5 372.46 163.323Z" fill="white"/>
<path d="M365.775 166.959C367.167 168.103 368.94 168.681 370.739 168.577C370.918 168.566 370.924 168.843 370.746 168.854C368.873 168.958 367.03 168.353 365.584 167.16C365.446 167.046 365.638 166.846 365.775 166.959Z" fill="white"/>
<path d="M380.538 163.307C380.503 163.653 380.555 164.003 380.689 164.324C380.824 164.645 381.035 164.928 381.306 165.148C381.445 165.26 381.253 165.46 381.115 165.348C380.817 165.105 380.583 164.792 380.435 164.437C380.286 164.083 380.226 163.697 380.261 163.314C380.261 163.277 380.275 163.243 380.3 163.216C380.325 163.19 380.359 163.174 380.396 163.172C380.432 163.171 380.468 163.185 380.495 163.21C380.521 163.235 380.537 163.27 380.538 163.307Z" fill="white"/>
<path d="M482.574 243.855C487.016 244.942 492.197 243.908 495.118 240.394C490.145 240.325 485.357 238.502 481.6 235.246C480.156 233.985 478.681 232.433 476.764 232.372C475.571 232.334 474.425 232.915 473.542 233.717C472.658 234.518 471.997 235.529 471.346 236.528L471.087 236.675C474.335 239.891 478.132 242.767 482.574 243.855Z" fill="#F0F0F0"/>
<path d="M495.053 240.323C491.516 241.671 487.644 241.871 483.987 240.896C483.195 240.7 482.44 240.381 481.749 239.95C481.089 239.508 480.559 238.898 480.215 238.183C479.88 237.523 479.615 236.809 479.126 236.241C478.871 235.954 478.558 235.724 478.208 235.567C477.859 235.409 477.479 235.327 477.095 235.326C476.139 235.298 475.23 235.616 474.351 235.957C473.376 236.336 472.369 236.745 471.301 236.658C471.171 236.647 471.163 236.848 471.292 236.859C473.15 237.011 474.719 235.751 476.521 235.551C477.362 235.458 478.236 235.617 478.849 236.238C479.385 236.781 479.659 237.517 479.992 238.189C480.318 238.891 480.811 239.503 481.428 239.972C482.095 240.437 482.837 240.784 483.621 241.001C485.378 241.515 487.206 241.751 489.037 241.699C491.127 241.65 493.193 241.246 495.147 240.501C495.268 240.455 495.173 240.277 495.053 240.323Z" fill="white"/>
<path d="M485.146 241.279C485.066 241.914 485.214 242.557 485.564 243.093C485.915 243.629 486.444 244.024 487.059 244.206C487.183 244.242 487.246 244.051 487.121 244.014C486.549 243.846 486.055 243.478 485.73 242.979C485.405 242.479 485.269 241.879 485.348 241.288C485.365 241.16 485.163 241.151 485.146 241.279Z" fill="white"/>
<path d="M480.341 238.54C481.369 237.729 482.666 237.335 483.972 237.436C484.101 237.447 484.11 237.245 483.981 237.235C482.622 237.132 481.273 237.545 480.205 238.391C480.103 238.472 480.24 238.62 480.341 238.54Z" fill="white"/>
<path d="M491.016 241.408C490.996 241.156 491.039 240.902 491.141 240.671C491.243 240.439 491.401 240.237 491.601 240.081C491.704 240.002 491.567 239.854 491.465 239.933C491.245 240.105 491.071 240.329 490.957 240.585C490.844 240.841 490.795 241.12 490.815 241.399C490.814 241.425 490.824 241.451 490.842 241.47C490.86 241.49 490.885 241.502 490.911 241.504C490.938 241.505 490.964 241.495 490.983 241.478C491.003 241.46 491.015 241.435 491.016 241.408Z" fill="white"/>
<path d="M492.243 225.196C492.178 225.244 492.112 225.292 492.045 225.339C491.16 225.977 490.225 226.541 489.249 227.027C489.174 227.066 489.097 227.104 489.021 227.141C486.657 228.287 484.099 228.985 481.479 229.199C480.437 229.284 479.389 229.288 478.346 229.214C476.905 229.111 475.351 228.885 474 229.252C473.859 229.289 473.72 229.335 473.584 229.389L470.928 236.348C470.93 236.366 470.93 236.385 470.932 236.404L470.813 236.677C470.867 236.684 470.923 236.691 470.976 236.699C471.007 236.703 471.039 236.706 471.07 236.711C471.091 236.713 471.112 236.716 471.13 236.719C471.137 236.72 471.144 236.721 471.15 236.721C471.168 236.725 471.186 236.726 471.203 236.729C471.514 236.767 471.827 236.804 472.139 236.838C472.141 236.838 472.141 236.838 472.143 236.837C474.524 237.121 476.931 237.122 479.312 236.839C479.383 236.83 479.456 236.821 479.528 236.808C480.59 236.662 481.638 236.429 482.663 236.113C483.223 235.937 483.774 235.734 484.314 235.503C485.707 234.903 486.997 234.089 488.137 233.089C490.409 231.095 492.017 228.398 492.229 225.424C492.235 225.348 492.239 225.273 492.243 225.196Z" fill="#F0F0F0"/>
<path d="M492.149 225.178C490.137 228.381 487.166 230.87 483.658 232.29C482.908 232.61 482.113 232.809 481.301 232.881C480.507 232.925 479.717 232.756 479.011 232.392C478.346 232.066 477.704 231.656 476.971 231.497C476.594 231.421 476.206 231.425 475.832 231.51C475.457 231.594 475.105 231.757 474.798 231.987C474.018 232.54 473.483 233.34 472.987 234.141C472.437 235.03 471.88 235.963 470.974 236.535C470.865 236.604 470.979 236.77 471.088 236.701C472.663 235.705 473.157 233.755 474.475 232.512C475.09 231.932 475.884 231.534 476.748 231.661C477.503 231.772 478.166 232.195 478.837 232.531C479.52 232.896 480.283 233.088 481.058 233.091C481.871 233.061 482.672 232.893 483.429 232.594C485.143 231.948 486.744 231.037 488.174 229.894C489.814 228.599 491.22 227.033 492.331 225.264C492.4 225.155 492.217 225.07 492.149 225.178Z" fill="white"/>
<path d="M484.814 231.899C485.133 232.455 485.638 232.879 486.241 233.097C486.844 233.314 487.505 233.31 488.105 233.086C488.227 233.04 488.161 232.85 488.04 232.896C487.481 233.106 486.865 233.109 486.304 232.905C485.744 232.702 485.274 232.305 484.98 231.786C484.916 231.673 484.75 231.787 484.814 231.899Z" fill="white"/>
<path d="M479.326 232.602C479.658 231.336 480.456 230.242 481.56 229.537C481.669 229.468 481.555 229.302 481.446 229.371C480.298 230.107 479.47 231.247 479.128 232.565C479.095 232.691 479.293 232.727 479.326 232.602Z" fill="white"/>
<path d="M489.578 228.472C489.41 228.283 489.291 228.055 489.233 227.809C489.175 227.562 489.179 227.306 489.245 227.061C489.279 226.936 489.081 226.9 489.047 227.024C488.976 227.295 488.971 227.578 489.035 227.851C489.099 228.123 489.228 228.375 489.412 228.586C489.427 228.607 489.45 228.622 489.477 228.627C489.503 228.632 489.529 228.627 489.552 228.612C489.574 228.597 489.589 228.574 489.594 228.548C489.599 228.521 489.593 228.494 489.578 228.472Z" fill="white"/>
<path d="M500.373 201.213L493.6 212.597L493.857 212.733L491.564 217.076L491.086 216.824L489.579 219.356L489.953 219.571L487.496 223.821L487.07 223.575L464.968 260.725C464.389 261.697 463.447 262.4 462.349 262.679C461.251 262.959 460.087 262.791 459.112 262.214L418.025 237.83C417.051 237.251 416.347 236.31 416.068 235.214C415.788 234.117 415.956 232.955 416.534 231.981L451.939 172.469C452.518 171.497 453.46 170.794 454.558 170.515C455.656 170.236 456.82 170.403 457.795 170.98L498.882 195.364C499.856 195.943 500.559 196.884 500.838 197.981C501.118 199.077 500.951 200.24 500.373 201.213Z" fill="#3F3D56"/>
<path d="M460.577 259.917L419.344 235.447C419.044 235.268 418.827 234.978 418.741 234.64C418.655 234.302 418.706 233.944 418.884 233.644L454.524 173.736C454.703 173.436 454.994 173.22 455.332 173.133C455.67 173.047 456.029 173.099 456.33 173.277L497.562 197.747C497.862 197.925 498.079 198.215 498.165 198.553C498.251 198.891 498.2 199.25 498.022 199.55L462.382 259.458C462.203 259.757 461.912 259.974 461.574 260.06C461.236 260.146 460.877 260.094 460.577 259.917Z" fill="white"/>
<path d="M477.514 184.565C477.715 184.565 477.877 184.402 477.877 184.202C477.877 184.001 477.715 183.839 477.514 183.839C477.313 183.839 477.15 184.001 477.15 184.202C477.15 184.402 477.313 184.565 477.514 184.565Z" fill="white"/>
<path d="M475.265 227.479L440.846 207.053C440.738 206.989 440.643 206.905 440.568 206.805C440.493 206.705 440.438 206.591 440.407 206.47C440.376 206.349 440.369 206.223 440.387 206.099C440.404 205.975 440.446 205.856 440.51 205.748C440.574 205.641 440.659 205.547 440.76 205.472C440.86 205.397 440.974 205.343 441.096 205.312C441.217 205.281 441.343 205.275 441.467 205.293C441.591 205.312 441.71 205.354 441.818 205.418L476.237 225.845C476.345 225.908 476.439 225.992 476.514 226.092C476.59 226.192 476.644 226.306 476.676 226.427C476.707 226.549 476.714 226.675 476.696 226.799C476.678 226.922 476.636 227.042 476.572 227.149C476.508 227.257 476.423 227.351 476.323 227.425C476.222 227.5 476.108 227.555 475.987 227.585C475.865 227.616 475.739 227.622 475.615 227.604C475.491 227.586 475.372 227.543 475.265 227.479Z" fill="#E6E6E6"/>
<path d="M461.52 224.315L450.199 217.596C450.092 217.532 449.998 217.448 449.923 217.348C449.848 217.248 449.794 217.134 449.763 217.013C449.732 216.892 449.725 216.766 449.743 216.643C449.761 216.519 449.803 216.4 449.867 216.293C449.931 216.186 450.015 216.092 450.115 216.017C450.215 215.943 450.329 215.888 450.45 215.857C450.572 215.827 450.698 215.82 450.821 215.838C450.945 215.856 451.064 215.898 451.171 215.962L462.493 222.68C462.6 222.744 462.694 222.828 462.769 222.928C462.844 223.028 462.898 223.142 462.929 223.263C462.96 223.384 462.966 223.51 462.948 223.633C462.931 223.757 462.889 223.876 462.825 223.983C462.761 224.09 462.677 224.184 462.576 224.259C462.476 224.334 462.362 224.388 462.241 224.419C462.12 224.449 461.994 224.456 461.871 224.438C461.747 224.42 461.628 224.378 461.52 224.315Z" fill="#E6E6E6"/>
<path d="M457.07 231.797L445.749 225.078C445.532 224.949 445.375 224.74 445.313 224.495C445.25 224.251 445.288 223.992 445.417 223.776C445.546 223.559 445.755 223.402 446 223.34C446.245 223.278 446.504 223.315 446.721 223.444L458.042 230.163C458.15 230.226 458.243 230.311 458.318 230.411C458.393 230.511 458.448 230.624 458.478 230.745C458.509 230.866 458.516 230.992 458.498 231.116C458.48 231.239 458.438 231.358 458.374 231.465C458.31 231.573 458.226 231.666 458.126 231.741C458.026 231.816 457.912 231.87 457.791 231.901C457.67 231.932 457.544 231.938 457.42 231.92C457.296 231.903 457.177 231.861 457.07 231.797Z" fill="#E6E6E6"/>
<path d="M454.79 235.629L443.468 228.91C443.361 228.847 443.267 228.763 443.191 228.663C443.116 228.563 443.062 228.449 443.031 228.328C443 228.207 442.993 228.081 443.011 227.957C443.028 227.833 443.071 227.714 443.134 227.607C443.198 227.499 443.283 227.405 443.383 227.33C443.484 227.256 443.598 227.201 443.719 227.171C443.84 227.14 443.966 227.134 444.09 227.152C444.214 227.17 444.333 227.212 444.441 227.276L455.762 233.995C455.87 234.058 455.964 234.143 456.04 234.243C456.115 234.343 456.17 234.456 456.201 234.578C456.232 234.699 456.239 234.825 456.221 234.949C456.203 235.073 456.161 235.192 456.097 235.299C456.033 235.407 455.949 235.501 455.848 235.576C455.748 235.651 455.634 235.705 455.512 235.736C455.391 235.766 455.264 235.773 455.14 235.754C455.016 235.736 454.897 235.693 454.79 235.629Z" fill="#E6E6E6"/>
<path d="M465.676 231.771L441.656 217.516C441.44 217.386 441.284 217.177 441.222 216.933C441.161 216.689 441.198 216.431 441.327 216.215C441.455 215.999 441.665 215.842 441.908 215.78C442.152 215.717 442.411 215.754 442.628 215.881L466.648 230.136C466.756 230.2 466.85 230.284 466.926 230.384C467.001 230.484 467.056 230.598 467.087 230.719C467.118 230.84 467.125 230.966 467.107 231.09C467.089 231.214 467.047 231.333 466.983 231.441C466.919 231.549 466.835 231.642 466.734 231.717C466.634 231.792 466.519 231.846 466.398 231.877C466.276 231.908 466.15 231.914 466.026 231.896C465.902 231.877 465.783 231.835 465.676 231.771Z" fill="#E6E6E6"/>
<path d="M461.098 249.988L456.987 247.549C456.619 247.33 456.353 246.973 456.247 246.558C456.141 246.143 456.205 245.703 456.424 245.335C456.643 244.966 457 244.7 457.415 244.594C457.831 244.488 458.272 244.551 458.641 244.77L462.751 247.209C463.12 247.428 463.387 247.785 463.493 248.2C463.599 248.616 463.535 249.056 463.316 249.424C463.097 249.793 462.74 250.059 462.324 250.165C461.908 250.271 461.467 250.207 461.098 249.988Z" fill="#1A87EC"/>
<path d="M468.768 210.379C473.421 210.379 477.194 206.611 477.194 201.963C477.194 197.316 473.421 193.548 468.768 193.548C464.114 193.548 460.342 197.316 460.342 201.963C460.342 206.611 464.114 210.379 468.768 210.379Z" fill="#944CFF"/>
<path d="M330.622 236.162H444.648V170.229C444.647 169.735 444.45 169.261 444.101 168.912C443.751 168.562 443.277 168.366 442.782 168.365H332.488C331.993 168.366 331.519 168.562 331.169 168.912C330.819 169.261 330.623 169.735 330.622 170.229V236.162Z" fill="#CACACA"/>
<path d="M441.124 170.942H334.145V231.603H441.124V170.942Z" fill="white"/>
<path d="M330.522 234.378V242.514C330.522 242.851 330.589 243.185 330.718 243.497C330.847 243.809 331.037 244.092 331.276 244.33C331.514 244.569 331.798 244.758 332.11 244.887C332.422 245.016 332.756 245.083 333.094 245.083H375.18V261.14H374.621C374.577 261.14 374.534 261.148 374.493 261.165C374.453 261.182 374.416 261.206 374.385 261.237C374.354 261.268 374.329 261.305 374.312 261.346C374.295 261.386 374.287 261.43 374.287 261.473V262.59C374.287 262.634 374.295 262.677 374.312 262.718C374.329 262.758 374.354 262.795 374.385 262.826C374.416 262.857 374.453 262.882 374.493 262.898C374.534 262.915 374.577 262.924 374.621 262.924H400.747C400.791 262.924 400.835 262.915 400.875 262.898C400.916 262.882 400.953 262.857 400.984 262.826C401.015 262.795 401.039 262.758 401.056 262.718C401.073 262.677 401.081 262.634 401.081 262.59V261.473C401.081 261.43 401.073 261.386 401.056 261.346C401.039 261.305 401.015 261.268 400.984 261.237C400.953 261.206 400.916 261.182 400.875 261.165C400.835 261.148 400.791 261.14 400.747 261.14H400.188V245.083H442.274C442.612 245.083 442.946 245.016 443.258 244.887C443.57 244.758 443.854 244.569 444.093 244.33C444.331 244.092 444.521 243.809 444.65 243.497C444.779 243.185 444.846 242.851 444.846 242.514V234.378L330.522 234.378Z" fill="#3F3D56"/>
<path d="M425.644 191.229H374.983C374.663 191.229 374.357 191.102 374.131 190.876C373.905 190.651 373.778 190.345 373.778 190.026C373.778 189.707 373.905 189.401 374.131 189.176C374.357 188.95 374.663 188.823 374.983 188.823H425.644C425.963 188.823 426.27 188.95 426.495 189.176C426.721 189.401 426.848 189.707 426.848 190.026C426.848 190.345 426.721 190.651 426.495 190.876C426.27 191.102 425.963 191.229 425.644 191.229Z" fill="#E6E6E6"/>
<path d="M408.646 196.658H391.982C391.662 196.658 391.356 196.532 391.13 196.306C390.904 196.081 390.777 195.775 390.777 195.456C390.777 195.137 390.904 194.831 391.13 194.605C391.356 194.38 391.662 194.253 391.982 194.253H408.646C408.965 194.253 409.271 194.38 409.497 194.605C409.723 194.831 409.85 195.137 409.85 195.456C409.85 195.775 409.723 196.081 409.497 196.306C409.271 196.532 408.965 196.658 408.646 196.658Z" fill="#E6E6E6"/>
<path d="M408.646 207.671H391.982C391.662 207.671 391.356 207.544 391.13 207.319C390.904 207.093 390.777 206.787 390.777 206.468C390.777 206.149 390.904 205.843 391.13 205.618C391.356 205.392 391.662 205.266 391.982 205.266H408.646C408.965 205.266 409.271 205.392 409.497 205.618C409.723 205.843 409.85 206.149 409.85 206.468C409.85 206.787 409.723 207.093 409.497 207.319C409.271 207.544 408.965 207.671 408.646 207.671Z" fill="#E6E6E6"/>
<path d="M408.646 213.313H391.982C391.823 213.313 391.667 213.282 391.521 213.221C391.375 213.161 391.242 213.072 391.13 212.96C391.018 212.849 390.93 212.716 390.869 212.57C390.808 212.424 390.777 212.268 390.777 212.11C390.777 211.952 390.808 211.796 390.869 211.65C390.93 211.504 391.018 211.371 391.13 211.26C391.242 211.148 391.375 211.059 391.521 210.999C391.667 210.938 391.823 210.907 391.982 210.907H408.646C408.804 210.907 408.96 210.938 409.106 210.999C409.252 211.059 409.385 211.148 409.497 211.26C409.609 211.371 409.698 211.504 409.758 211.65C409.819 211.796 409.85 211.952 409.85 212.11C409.85 212.268 409.819 212.424 409.758 212.57C409.698 212.716 409.609 212.849 409.497 212.96C409.385 213.072 409.252 213.161 409.106 213.221C408.96 213.282 408.804 213.313 408.646 213.313Z" fill="#E6E6E6"/>
<path d="M417.991 202.088H382.636C382.316 202.088 382.01 201.961 381.784 201.736C381.559 201.51 381.432 201.204 381.432 200.885C381.432 200.566 381.559 200.26 381.784 200.035C382.01 199.809 382.316 199.683 382.636 199.683H417.991C418.311 199.683 418.617 199.809 418.843 200.035C419.068 200.26 419.195 200.566 419.195 200.885C419.195 201.204 419.068 201.51 418.843 201.736C418.617 201.961 418.311 202.088 417.991 202.088Z" fill="#E6E6E6"/>
<path d="M424.8 224.861H418.75C418.207 224.861 417.686 224.645 417.302 224.262C416.918 223.878 416.702 223.358 416.702 222.816C416.702 222.273 416.918 221.753 417.302 221.37C417.686 220.986 418.207 220.771 418.75 220.771H424.8C425.344 220.771 425.864 220.986 426.248 221.37C426.632 221.753 426.848 222.273 426.848 222.816C426.848 223.358 426.632 223.878 426.248 224.262C425.864 224.645 425.344 224.861 424.8 224.861Z" fill="#1A87EC"/>
<path d="M359.052 210.017C364.869 210.017 369.584 205.308 369.584 199.498C369.584 193.688 364.869 188.979 359.052 188.979C353.235 188.979 348.52 193.688 348.52 199.498C348.52 205.308 353.235 210.017 359.052 210.017Z" fill="#1A87EC"/>
<path d="M482.302 263.357H330.801C330.728 263.357 330.657 263.328 330.605 263.276C330.553 263.223 330.523 263.153 330.523 263.079C330.523 263.005 330.553 262.935 330.605 262.883C330.657 262.83 330.728 262.801 330.801 262.801H482.302C482.376 262.801 482.446 262.83 482.498 262.883C482.55 262.935 482.58 263.005 482.58 263.079C482.58 263.153 482.55 263.223 482.498 263.276C482.446 263.328 482.376 263.357 482.302 263.357Z" fill="#CACACA"/>
<path d="M387.584 169.653C387.804 169.653 387.981 169.476 387.981 169.257C387.981 169.038 387.804 168.86 387.584 168.86C387.365 168.86 387.188 169.038 387.188 169.257C387.188 169.476 387.365 169.653 387.584 169.653Z" fill="white"/>
</g>
</g>
<defs>
<clipPath id="clip0_678_25556">
<rect width="644" height="413" fill="white"/>
</clipPath>
<clipPath id="clip1_678_25556">
<rect width="170.449" height="140.013" fill="white" transform="translate(330.522 123.345)"/>
</clipPath>
</defs>
</svg>
