<svg width="3000" height="2000" viewBox="0 0 3000 2000" fill="none" xmlns="http://www.w3.org/2000/svg">
<path d="M1031.56 1601.61C922.805 1569.32 818.128 1527.35 727.463 1469.51C335.819 1219.65 421.906 640.873 729.231 359.647C825.601 271.461 950.46 209.928 1081.58 199.021C1228.32 186.814 1381.95 232.861 1492.4 331.497C1592.76 421.12 1651.71 544.095 1782.25 597.205C1933.66 658.806 2101.58 634.679 2260.28 652.928C2572.23 688.799 2776.08 962.128 2707.18 1274.02C2627.33 1635.5 2295.07 1715.95 1973.02 1728.54C1786.3 1735.84 1599.58 1717.11 1415.74 1685.36C1292.8 1664.13 1159.37 1639.56 1031.56 1601.61Z" fill="#F6F9FF"/>
<path d="M668.98 1165.44C653.016 1179.46 629.25 1183.93 609.284 1176.67C589.318 1169.41 573.974 1150.72 570.742 1129.72C566.94 1105.02 577.456 1075.33 559.993 1057.44C551.218 1048.46 537.269 1045.37 529.832 1035.25C523.588 1026.75 523.451 1015.38 523.567 1004.83C523.773 986.107 523.98 967.382 524.186 948.657C515.855 938.264 499.044 938.891 489.095 930.033C479.254 921.27 477.119 906.968 475.354 893.91C470.141 855.34 462.842 817.051 453.5 779.268C482.701 787.85 511.607 797.154 539.287 809.81C554.735 816.873 570.884 825.493 578.636 840.607C586.436 855.815 583.939 873.947 583.702 891.037C583.626 896.557 583.847 902.262 586.18 907.265C592.193 920.16 608.743 923.129 621.078 930.221C634.705 938.057 644.206 952.666 645.841 968.3C647.326 982.491 642.713 996.97 645.395 1010.98C651.34 1042.05 688.563 1056.39 703.439 1084.3C718.992 1113.49 693.831 1143.62 668.98 1165.44Z" fill="#D4DFFF"/>
<path d="M745.604 1443.06C745.097 1443.06 744.647 1442.69 744.558 1442.17C738.702 1408.26 718.228 1316.56 682.665 1212.29C656.564 1135.76 626.339 1063.43 592.83 997.297C550.952 914.654 503.8 841.527 452.682 779.944C452.307 779.492 452.369 778.823 452.821 778.448C453.272 778.073 453.942 778.135 454.318 778.587C505.542 840.296 552.786 913.565 594.737 996.358C628.292 1062.58 658.556 1135.01 684.69 1211.64C720.293 1316.03 740.79 1407.85 746.653 1441.81C746.753 1442.39 746.365 1442.94 745.786 1443.04C745.725 1443.05 745.664 1443.06 745.604 1443.06Z" fill="#1C056D"/>
<path d="M207.844 1077.86C217.88 1085.94 222.131 1098.96 227.234 1110.79C232.337 1122.61 240.112 1134.97 252.629 1138C266.202 1141.29 280.457 1132.32 294.086 1135.37C305.125 1137.83 312.949 1147.54 318.781 1157.23C324.613 1166.92 329.684 1177.57 338.693 1184.41C352.677 1195.03 372.094 1193.66 389.487 1191.25C406.88 1188.85 425.812 1186.2 440.983 1195.04C459.442 1205.79 466.323 1230.28 484.648 1241.27C492.443 1245.94 501.647 1247.7 510.71 1248.38C537.712 1250.38 565.316 1243.13 587.842 1228.1C586.543 1203.48 577.977 1176.86 562.5 1157.66C547.023 1138.46 523.773 1125.11 499.146 1123.8C491.289 1123.39 483.345 1124.15 475.584 1122.86C442.972 1117.43 426.023 1079.57 395.801 1066.16C382.961 1060.47 368.034 1059.63 354.64 1063.87C341.533 1068.01 329.83 1076.78 316.161 1078.23C302.806 1079.65 289.906 1073.86 276.977 1070.23C252.179 1063.25 232.077 1069.13 207.844 1077.86Z" fill="#D4DFFF"/>
<path d="M736.46 1434.35C735.986 1434.35 735.554 1434.03 735.431 1433.55C719.906 1372.86 685.163 1314.71 634.958 1265.38C591.817 1223 536.414 1186.3 470.287 1156.31C399.134 1124.05 317.054 1099.58 211.977 1079.31C211.4 1079.2 211.023 1078.65 211.135 1078.07C211.247 1077.49 211.807 1077.12 212.38 1077.23C317.626 1097.52 399.857 1122.04 471.166 1154.38C537.52 1184.47 593.129 1221.31 636.448 1263.87C686.93 1313.46 721.87 1371.96 737.491 1433.02C737.637 1433.59 737.293 1434.17 736.724 1434.31C736.636 1434.34 736.547 1434.35 736.46 1434.35Z" fill="#1C056D"/>
<path d="M778.27 1076.78C762.766 1079.78 746.024 1075.57 733.771 1065.61C721.518 1055.66 713.983 1040.13 713.744 1024.34C713.563 1012.34 717.343 1000.67 721.468 989.401C722.879 985.548 724.359 981.522 723.848 977.45C723.442 974.219 721.81 971.278 720.034 968.548C713.357 958.284 704.051 949.364 700.531 937.637C694.283 916.82 708.184 894.408 703.827 873.115C702.309 865.695 698.651 858.915 696.042 851.804C686.855 826.766 691.665 797.088 708.291 776.233C731.698 785.624 746.972 810.581 747.204 835.8C747.32 848.374 743.868 861.69 749.214 873.072C752.409 879.876 758.329 884.925 763.871 890.002C773.579 898.896 782.95 909.084 786.384 921.795C791.778 941.766 781.452 963.801 788.146 983.375C794.788 1002.8 816.424 1014.35 822.3 1034.02C823.874 1039.29 824.201 1044.88 823.756 1050.36C823.072 1058.78 820.298 1067.49 813.95 1073.07C804.064 1081.78 791.2 1074.29 778.27 1076.78Z" fill="#D4DFFF"/>
<path d="M787.07 1439.58C786.524 1439.58 786.06 1439.16 786.012 1438.6C781.42 1384.65 782.679 1329.42 783.897 1276.01C785.582 1202.14 787.323 1125.75 773.509 1052.12C766.364 1014.04 754.942 976.149 743.896 939.509C728.529 888.536 712.639 835.827 708.096 781.948C708.047 781.363 708.481 780.849 709.066 780.8C709.641 780.752 710.165 781.184 710.214 781.77C714.737 835.427 730.595 888.028 745.931 938.896C756.993 975.59 768.432 1013.53 775.598 1051.73C789.454 1125.57 787.709 1202.08 786.022 1276.06C784.806 1329.41 783.547 1384.58 788.13 1438.42C788.18 1439.01 787.746 1439.52 787.161 1439.57C787.131 1439.58 787.101 1439.58 787.07 1439.58Z" fill="#1C056D"/>
<path d="M670.117 1779.34C670.117 1779.34 571.9 1447.45 587.716 1438.67C603.532 1429.88 991.253 1429.53 991.253 1429.53C991.253 1429.53 946.791 1778.59 934.446 1779.34C922.1 1780.08 702.813 1780.85 670.117 1779.34Z" fill="#1B3D9E"/>
<mask id="mask0_3956_16372" style="mask-type:luminance" maskUnits="userSpaceOnUse" x="585" y="1429" width="407" height="352">
<path d="M670.117 1779.34C670.117 1779.34 571.9 1447.45 587.716 1438.67C603.532 1429.88 991.253 1429.53 991.253 1429.53C991.253 1429.53 946.791 1778.59 934.446 1779.34C922.1 1780.08 702.813 1780.85 670.117 1779.34Z" fill="white"/>
</mask>
<g mask="url(#mask0_3956_16372)">
<path d="M765.84 1403.86C765.84 1403.86 652.412 1548.77 658.857 1552.64C665.302 1556.5 983.937 1622.24 983.805 1618.37C983.673 1614.51 1016.21 1429.53 1016.21 1429.53L765.84 1403.86Z" fill="#1C056D"/>
</g>
<path d="M1697.89 1494.29H1420.46V1730.06H1697.89V1494.29Z" fill="#1B3D9E"/>
<path d="M1789.36 1780.21H1335.7C1324.18 1780.21 1314.84 1770.87 1314.84 1759.35V1750.91C1314.84 1739.39 1324.18 1730.06 1335.7 1730.06H1789.36C1800.88 1730.06 1810.21 1739.39 1810.21 1750.91V1759.35C1810.21 1770.87 1800.88 1780.21 1789.36 1780.21Z" fill="#1C056D"/>
<path d="M862.117 672.05C862.705 670.878 863.897 670.144 865.208 670.136C921.159 669.759 2206.43 661.206 2263.37 670.149C2285.82 673.675 2280.24 1528.23 2263.37 1560.88C2250.97 1584.89 879.261 1563.78 863.326 1560.88C843.678 1557.31 833.947 728.189 862.117 672.05Z" fill="#6880E4"/>
<path d="M895.945 711.361C895.945 711.361 891.547 1441.01 909.138 1443.01C926.729 1445 2208.64 1452.97 2219.64 1443.01C2230.63 1433.04 2235.03 705.38 2219.64 705.38C2204.25 705.38 895.945 711.361 895.945 711.361Z" fill="#D4DFFF"/>
<mask id="mask1_3956_16372" style="mask-type:luminance" maskUnits="userSpaceOnUse" x="895" y="705" width="1335" height="743">
<path d="M895.945 711.361C895.945 711.361 891.547 1441.01 909.138 1443.01C926.729 1445 2208.64 1452.97 2219.64 1443.01C2230.63 1433.04 2235.03 705.38 2219.64 705.38C2204.25 705.38 895.945 711.361 895.945 711.361Z" fill="white"/>
</mask>
<g mask="url(#mask1_3956_16372)">
<path opacity="0.46" d="M1737.88 688.827L1239.68 1462.3H871.433L895.945 711.361L1737.88 688.827Z" fill="#6880E4"/>
</g>
<mask id="mask2_3956_16372" style="mask-type:luminance" maskUnits="userSpaceOnUse" x="895" y="705" width="1335" height="743">
<path d="M895.945 711.361C895.945 711.361 891.547 1441.01 909.138 1443.01C926.729 1445 2208.64 1452.97 2219.64 1443.01C2230.63 1433.04 2235.03 705.38 2219.64 705.38C2204.25 705.38 895.945 711.361 895.945 711.361Z" fill="white"/>
</mask>
<g mask="url(#mask2_3956_16372)">
<path opacity="0.46" d="M1353.42 1468.61L1832.25 684.679H2042.37L1581.05 1464.51L1353.42 1468.61Z" fill="#6880E4"/>
</g>
<mask id="mask3_3956_16372" style="mask-type:luminance" maskUnits="userSpaceOnUse" x="895" y="705" width="1335" height="743">
<path d="M895.945 711.361C895.945 711.361 891.547 1441.01 909.138 1443.01C926.729 1445 2208.64 1452.97 2219.64 1443.01C2230.63 1433.04 2235.03 705.38 2219.64 705.38C2204.25 705.38 895.945 711.361 895.945 711.361Z" fill="white"/>
</mask>
<g mask="url(#mask3_3956_16372)">
<path opacity="0.46" d="M2131.23 687.589L1667.64 1469.29L1954.81 1465.65L2263.21 898.032L2257 692.521L2131.23 687.589Z" fill="#6880E4"/>
</g>
<path d="M1572.14 1547.59C1589.34 1540.46 1597.51 1520.74 1590.39 1503.54C1583.26 1486.33 1563.54 1478.16 1546.33 1485.29C1529.13 1492.42 1520.96 1512.14 1528.09 1529.34C1535.21 1546.55 1554.94 1554.72 1572.14 1547.59Z" fill="#1B3D9E"/>
<path d="M1241.17 1026.61C1242.82 1018.9 1246.06 1013.04 1250.89 1009.04C1255.71 1005.05 1261.02 1002.98 1266.81 1002.84C1272.6 1002.7 1278.11 1004.43 1283.35 1008.01C1288.58 1011.59 1292.3 1017.1 1294.51 1024.55C1294.78 1042.47 1294.93 1060.18 1294.93 1077.69C1294.93 1095.2 1295.2 1112.77 1295.75 1130.41C1307.88 1130.41 1319.67 1130.28 1331.11 1130C1342.55 1129.73 1353.51 1129.58 1363.99 1129.58C1371.43 1131.79 1376.94 1135.31 1380.53 1140.13C1384.11 1144.96 1385.83 1149.99 1385.7 1155.22C1385.55 1160.46 1383.49 1165.29 1379.49 1169.7C1375.49 1174.11 1369.63 1177.14 1361.92 1178.8C1351.17 1178.8 1340.42 1178.87 1329.66 1179C1318.91 1179.14 1308.16 1179.07 1297.41 1178.8C1297.96 1192.58 1298.3 1207.54 1298.44 1223.66C1298.58 1239.79 1298.78 1254.75 1299.06 1268.53C1298.51 1277.63 1295.55 1284.39 1290.17 1288.8C1284.79 1293.21 1278.8 1295.41 1272.18 1295.41C1265.57 1295.41 1259.29 1293.14 1253.37 1288.59C1247.43 1284.04 1243.92 1277.36 1242.82 1268.53C1242.54 1254.47 1242.75 1239.66 1243.44 1224.08C1244.13 1208.51 1244.2 1193.68 1243.65 1179.62C1231.79 1179.35 1219.04 1178.73 1205.4 1177.76C1191.75 1176.8 1178.52 1174.8 1165.7 1171.77C1152.88 1168.74 1141.09 1164.47 1130.34 1158.95C1119.59 1153.44 1110.9 1146.13 1104.29 1137.03C1098.22 1128.49 1094.78 1119.25 1093.95 1109.32C1093.12 1099.4 1094.08 1089.2 1096.84 1078.72C1099.6 1068.25 1103.73 1057.63 1109.25 1046.88C1114.76 1036.13 1120.76 1025.79 1127.24 1015.86C1133.71 1005.94 1140.19 996.634 1146.67 987.949C1153.15 979.265 1158.87 971.614 1163.84 964.998C1174.86 950.111 1186.17 935.637 1197.75 921.577C1209.32 907.517 1220.9 893.321 1232.48 878.983C1238.54 874.021 1244.82 871.475 1251.3 871.332C1257.77 871.196 1263.36 872.78 1268.05 876.088C1272.73 879.396 1275.97 884.087 1277.77 890.148C1279.55 896.215 1279.07 902.967 1276.32 910.411C1266.94 921.99 1255.91 935.158 1243.24 949.903C1230.55 964.655 1218.07 980.091 1205.81 996.219C1193.54 1012.35 1182.37 1028.75 1172.31 1045.43C1162.25 1062.11 1155.15 1078.31 1151.02 1094.02C1149.36 1099.54 1149.98 1104.29 1152.88 1108.29C1155.77 1112.29 1160.04 1115.6 1165.7 1118.21C1171.34 1120.84 1177.89 1122.97 1185.34 1124.62C1192.78 1126.28 1200.16 1127.52 1207.46 1128.34C1214.76 1129.17 1221.52 1129.79 1227.73 1130.21C1233.93 1130.62 1238.69 1130.97 1241.99 1131.24C1241.44 1113.87 1241.17 1096.44 1241.17 1078.93C1241.17 1061.42 1241.17 1043.98 1241.17 1026.61Z" fill="white"/>
<path d="M1441.73 1217.25C1438.15 1205.4 1434.56 1190.58 1430.98 1172.8C1427.39 1155.02 1424.71 1135.79 1422.92 1115.11C1421.12 1094.43 1420.5 1073.21 1421.06 1051.43C1421.6 1029.65 1424.01 1008.83 1428.29 988.983C1432.56 969.133 1439.11 951.08 1447.93 934.81C1456.76 918.546 1468.47 905.727 1483.09 896.351C1501.28 884.772 1520.03 876.501 1539.33 871.539C1558.62 866.577 1577.51 864.651 1595.98 865.749C1614.45 866.854 1632.02 870.783 1648.71 877.535C1665.38 884.294 1679.99 893.456 1692.54 905.035C1705.08 916.614 1715.14 930.539 1722.73 946.802C1730.31 963.072 1734.37 981.268 1734.93 1001.39C1735.2 1020.41 1735.89 1040.75 1737 1062.39C1738.09 1084.03 1738.17 1105.74 1737.2 1127.52C1736.23 1149.3 1733.41 1170.32 1728.72 1190.58C1724.03 1210.84 1716.32 1229.11 1705.57 1245.37C1696.47 1259.16 1684.27 1270.33 1668.97 1278.87C1653.67 1287.42 1637.13 1293.42 1619.34 1296.86C1601.56 1300.3 1583.3 1301.2 1564.55 1299.55C1545.8 1297.89 1528.22 1293.69 1511.82 1286.93C1495.42 1280.18 1480.94 1271.01 1468.4 1259.43C1455.86 1247.86 1446.97 1233.8 1441.73 1217.25ZM1510.79 943.907C1503.62 949.425 1497.21 957.489 1491.56 968.099C1485.91 978.715 1482.67 989.952 1481.85 1001.8C1480.74 1018.34 1479.64 1035.09 1478.54 1052.05C1477.43 1069 1477.02 1085.75 1477.3 1102.29C1477.57 1118.83 1478.95 1135.1 1481.43 1151.09C1483.91 1167.08 1488.46 1182.38 1495.08 1196.99C1499.21 1206.64 1505.35 1214.77 1513.48 1221.39C1521.61 1228.01 1530.71 1233.11 1540.77 1236.69C1550.83 1240.28 1561.51 1242.27 1572.82 1242.69C1584.12 1243.1 1595.15 1242 1605.91 1239.38C1616.66 1236.76 1626.79 1232.55 1636.3 1226.77C1645.81 1220.98 1653.88 1213.53 1660.49 1204.43C1665.18 1198.64 1668.97 1190.58 1671.86 1180.24C1674.76 1169.9 1676.89 1158.4 1678.27 1145.71C1679.65 1133.04 1680.48 1119.94 1680.76 1106.43C1681.03 1092.92 1681.03 1080.1 1680.76 1067.97C1680.48 1055.84 1680.2 1045.02 1679.93 1035.5C1679.65 1025.99 1679.52 1019.03 1679.52 1014.62C1679.79 1001.39 1677.65 989.052 1673.11 977.608C1668.56 966.171 1662.28 956.176 1654.29 947.627C1646.29 939.085 1636.85 932.191 1625.96 926.95C1615.07 921.717 1603.35 918.68 1590.81 917.852C1578.26 917.025 1565.17 918.679 1551.53 922.814C1537.88 926.952 1524.3 933.982 1510.79 943.907Z" fill="white"/>
<path d="M1930.12 1026.61C1931.77 1018.9 1935.01 1013.04 1939.84 1009.04C1944.66 1005.05 1949.97 1002.98 1955.76 1002.84C1961.55 1002.7 1967.06 1004.43 1972.3 1008.01C1977.53 1011.59 1981.25 1017.1 1983.46 1024.55C1983.73 1042.47 1983.88 1060.18 1983.88 1077.69C1983.88 1095.2 1984.15 1112.77 1984.7 1130.41C1996.83 1130.41 2008.62 1130.28 2020.06 1130C2031.5 1129.73 2042.46 1129.58 2052.94 1129.58C2060.38 1131.79 2065.89 1135.31 2069.48 1140.13C2073.06 1144.96 2074.78 1149.99 2074.65 1155.22C2074.51 1160.46 2072.44 1165.29 2068.44 1169.7C2064.44 1174.11 2058.58 1177.14 2050.87 1178.8C2040.12 1178.8 2029.37 1178.87 2018.61 1179C2007.86 1179.14 1997.11 1179.07 1986.36 1178.8C1986.91 1192.58 1987.25 1207.54 1987.39 1223.66C1987.53 1239.79 1987.73 1254.75 1988.01 1268.53C1987.46 1277.63 1984.5 1284.39 1979.12 1288.8C1973.74 1293.21 1967.75 1295.41 1961.13 1295.41C1954.52 1295.41 1948.24 1293.14 1942.32 1288.59C1936.38 1284.04 1932.87 1277.36 1931.77 1268.53C1931.49 1254.47 1931.7 1239.66 1932.39 1224.08C1933.08 1208.51 1933.15 1193.68 1932.6 1179.62C1920.74 1179.35 1907.99 1178.73 1894.35 1177.76C1880.7 1176.8 1867.47 1174.8 1854.65 1171.77C1841.83 1168.74 1830.04 1164.47 1819.29 1158.95C1808.54 1153.44 1799.85 1146.13 1793.24 1137.03C1787.17 1128.49 1783.73 1119.25 1782.9 1109.32C1782.07 1099.4 1783.03 1089.2 1785.79 1078.72C1788.55 1068.25 1792.68 1057.63 1798.2 1046.88C1803.71 1036.13 1809.71 1025.79 1816.19 1015.86C1822.66 1005.94 1829.14 996.634 1835.62 987.949C1842.1 979.265 1847.82 971.614 1852.79 964.998C1863.81 950.111 1875.12 935.637 1886.7 921.577C1898.27 907.517 1909.85 893.321 1921.43 878.983C1927.49 874.021 1933.77 871.475 1940.25 871.332C1946.72 871.196 1952.31 872.78 1957 876.088C1961.68 879.396 1964.92 884.087 1966.72 890.148C1968.51 896.215 1968.02 902.967 1965.27 910.411C1955.89 921.99 1944.86 935.158 1932.19 949.903C1919.5 964.655 1907.03 980.091 1894.76 996.219C1882.49 1012.35 1871.32 1028.75 1861.26 1045.43C1851.2 1062.11 1844.1 1078.31 1839.97 1094.02C1838.31 1099.54 1838.93 1104.29 1841.83 1108.29C1844.72 1112.29 1848.99 1115.6 1854.65 1118.21C1860.29 1120.84 1866.85 1122.97 1874.29 1124.62C1881.73 1126.28 1889.11 1127.52 1896.41 1128.34C1903.72 1129.17 1910.47 1129.79 1916.68 1130.21C1922.88 1130.62 1927.64 1130.97 1930.94 1131.24C1930.39 1113.87 1930.12 1096.44 1930.12 1078.93C1930.12 1061.42 1930.12 1043.98 1930.12 1026.61Z" fill="white"/>
<path opacity="0.54" d="M1160.5 1566.56L1027.91 1193.8L1061.58 1199.21C1063.48 1199.51 1065.07 1200.82 1065.73 1202.63L1198.42 1566.91C1198.45 1566.99 1198.39 1567.08 1198.3 1567.08L1160.5 1566.56Z" fill="#1B3D9E"/>
<path d="M734.25 1582.39C739.849 1581.4 1014.93 1190.94 1027.91 1193.8C1040.89 1196.65 1192.05 1655.53 1186.44 1654.64C1180.82 1653.74 720.339 1584.85 734.25 1582.39Z" fill="#FC476A"/>
<path d="M985.145 1519.24C983.008 1521.15 980.841 1522.39 978.639 1522.96C976.436 1523.53 974.326 1523.51 972.309 1522.9C970.293 1522.3 968.465 1521.17 966.829 1519.5C965.193 1517.83 963.953 1515.66 963.11 1512.99C964.448 1496.59 965.475 1479.92 966.192 1462.99C966.908 1446.07 967.821 1429.24 968.929 1412.51C970.033 1395.79 971.63 1379.32 973.715 1363.1C975.795 1346.88 978.875 1331.28 982.945 1316.29C983.276 1315.08 984.4 1313.99 986.316 1313.03C988.228 1312.06 990.555 1311.38 993.297 1310.97C996.037 1310.56 999.02 1310.4 1002.25 1310.49C1005.47 1310.58 1008.58 1310.96 1011.57 1311.65C1014.56 1312.34 1017.21 1313.36 1019.53 1314.71C1021.85 1316.07 1023.55 1317.81 1024.61 1319.95C1026.35 1322.34 1027.39 1326.45 1027.73 1332.28C1028.07 1338.11 1027.94 1345.13 1027.34 1353.34C1026.74 1361.56 1025.64 1370.68 1024.05 1380.71C1022.46 1390.74 1020.57 1401.04 1018.4 1411.6C1016.23 1422.17 1013.84 1432.78 1011.24 1443.42C1008.63 1454.07 1005.87 1464.12 1002.96 1473.58C1000.05 1483.05 997.128 1491.67 994.203 1499.45C991.278 1507.22 988.449 1513.5 985.72 1518.27C985.698 1518.41 985.505 1518.73 985.145 1519.24ZM956.669 1581.47C953.655 1579.16 951.228 1576.49 949.387 1573.45C947.545 1570.41 946.486 1567.32 946.212 1564.18C945.935 1561.04 946.597 1557.97 948.2 1554.99C949.801 1552 952.468 1549.4 956.202 1547.18C961.346 1544.05 966.499 1542.86 971.661 1543.61C976.824 1544.36 980.796 1547.49 983.585 1553C986.205 1557.78 987.461 1562.95 987.356 1568.5C987.248 1574.04 984.833 1578.83 980.107 1582.87C976.655 1585.98 972.755 1587.27 968.406 1586.72C964.057 1586.17 960.142 1584.42 956.669 1581.47Z" fill="white"/>
<path d="M2508.61 1778.72H2175.73C2169.06 1778.72 2163.65 1773.31 2163.65 1766.64V1377.81C2163.65 1371.14 2169.06 1365.73 2175.73 1365.73H2508.61C2515.28 1365.73 2520.69 1371.14 2520.69 1377.81V1766.64C2520.69 1773.31 2515.28 1778.72 2508.61 1778.72Z" fill="#1B3D9E"/>
<mask id="mask4_3956_16372" style="mask-type:luminance" maskUnits="userSpaceOnUse" x="2163" y="1365" width="358" height="414">
<path d="M2508.61 1778.72H2175.73C2169.06 1778.72 2163.65 1773.31 2163.65 1766.64V1377.81C2163.65 1371.14 2169.06 1365.73 2175.73 1365.73H2508.61C2515.28 1365.73 2520.69 1371.14 2520.69 1377.81V1766.64C2520.69 1773.31 2515.28 1778.72 2508.61 1778.72Z" fill="white"/>
</mask>
<g mask="url(#mask4_3956_16372)">
<path d="M2530.74 1424.21C2530.74 1424.21 2390.9 1621.11 2137.81 1675.61V1796.13H2539.55C2539.55 1796.13 2550.04 1431.26 2530.74 1424.21Z" fill="#1C056D"/>
</g>
<path d="M2258.03 1365.73C2258.03 1365.73 2253.29 1025.76 2259.61 1021.81C2265.92 1017.87 2314.09 1013.92 2318.04 1023.39C2321.99 1032.87 2318.04 1365.73 2318.04 1365.73H2258.03V1365.73Z" fill="#FC476A"/>
<mask id="mask5_3956_16372" style="mask-type:luminance" maskUnits="userSpaceOnUse" x="2256" y="1017" width="64" height="349">
<path d="M2258.03 1365.73C2258.03 1365.73 2253.29 1025.76 2259.61 1021.81C2265.92 1017.87 2314.09 1013.92 2318.04 1023.39C2321.99 1032.87 2318.04 1365.73 2318.04 1365.73H2258.03V1365.73Z" fill="white"/>
</mask>
<g mask="url(#mask5_3956_16372)">
<path d="M2299.34 1070.31V1372.44H2276.78V1070.92L2299.34 1070.31Z" fill="#D40221"/>
</g>
<mask id="mask6_3956_16372" style="mask-type:luminance" maskUnits="userSpaceOnUse" x="2256" y="1017" width="64" height="349">
<path d="M2258.03 1365.73C2258.03 1365.73 2253.29 1025.76 2259.61 1021.81C2265.92 1017.87 2314.09 1013.92 2318.04 1023.39C2321.99 1032.87 2318.04 1365.73 2318.04 1365.73H2258.03V1365.73Z" fill="white"/>
</mask>
<g mask="url(#mask6_3956_16372)">
<path d="M2246.96 1083.37C2246.96 1083.37 2317.04 1078.05 2326.81 1082.94C2326.81 1082.94 2326.33 1013.08 2322.42 1011.61C2318.51 1010.15 2251.58 1009.77 2250.12 1017.53C2248.65 1025.29 2246.96 1083.37 2246.96 1083.37Z" fill="#D4DFFF"/>
</g>
<path d="M2492.85 1365.73H2353.37V875.058C2353.37 872.995 2355.04 871.323 2357.1 871.323H2489.12C2491.18 871.323 2492.85 872.995 2492.85 875.058V1365.73H2492.85Z" fill="#D4DFFF"/>
<mask id="mask7_3956_16372" style="mask-type:luminance" maskUnits="userSpaceOnUse" x="2353" y="871" width="140" height="495">
<path d="M2492.85 1365.73H2353.37V875.058C2353.37 872.995 2355.04 871.323 2357.1 871.323H2489.12C2491.18 871.323 2492.85 872.995 2492.85 875.058V1365.73H2492.85Z" fill="white"/>
</mask>
<g mask="url(#mask7_3956_16372)">
<path opacity="0.46" d="M2390.02 853.251H2342.17V1383.73H2390.02V853.251Z" fill="#6880E4"/>
</g>
<mask id="mask8_3956_16372" style="mask-type:luminance" maskUnits="userSpaceOnUse" x="2353" y="871" width="140" height="495">
<path d="M2492.85 1365.73H2353.37V875.058C2353.37 872.995 2355.04 871.323 2357.1 871.323H2489.12C2491.18 871.323 2492.85 872.995 2492.85 875.058V1365.73H2492.85Z" fill="white"/>
</mask>
<g mask="url(#mask8_3956_16372)">
<path d="M2370.94 909.253H2353.37V915.375H2370.94V909.253Z" fill="#6880E4"/>
</g>
<mask id="mask9_3956_16372" style="mask-type:luminance" maskUnits="userSpaceOnUse" x="2353" y="871" width="140" height="495">
<path d="M2492.85 1365.73H2353.37V875.058C2353.37 872.995 2355.04 871.323 2357.1 871.323H2489.12C2491.18 871.323 2492.85 872.995 2492.85 875.058V1365.73H2492.85Z" fill="white"/>
</mask>
<g mask="url(#mask9_3956_16372)">
<path d="M2370.94 937.437H2353.37V943.559H2370.94V937.437Z" fill="#6880E4"/>
</g>
<mask id="mask10_3956_16372" style="mask-type:luminance" maskUnits="userSpaceOnUse" x="2353" y="871" width="140" height="495">
<path d="M2492.85 1365.73H2353.37V875.058C2353.37 872.995 2355.04 871.323 2357.1 871.323H2489.12C2491.18 871.323 2492.85 872.995 2492.85 875.058V1365.73H2492.85Z" fill="white"/>
</mask>
<g mask="url(#mask10_3956_16372)">
<path d="M2370.94 965.62H2353.37V971.742H2370.94V965.62Z" fill="#6880E4"/>
</g>
<mask id="mask11_3956_16372" style="mask-type:luminance" maskUnits="userSpaceOnUse" x="2353" y="871" width="140" height="495">
<path d="M2492.85 1365.73H2353.37V875.058C2353.37 872.995 2355.04 871.323 2357.1 871.323H2489.12C2491.18 871.323 2492.85 872.995 2492.85 875.058V1365.73H2492.85Z" fill="white"/>
</mask>
<g mask="url(#mask11_3956_16372)">
<path d="M2370.94 993.805H2353.37V999.927H2370.94V993.805Z" fill="#6880E4"/>
</g>
<mask id="mask12_3956_16372" style="mask-type:luminance" maskUnits="userSpaceOnUse" x="2353" y="871" width="140" height="495">
<path d="M2492.85 1365.73H2353.37V875.058C2353.37 872.995 2355.04 871.323 2357.1 871.323H2489.12C2491.18 871.323 2492.85 872.995 2492.85 875.058V1365.73H2492.85Z" fill="white"/>
</mask>
<g mask="url(#mask12_3956_16372)">
<path d="M2370.94 1021.99H2353.37V1028.11H2370.94V1021.99Z" fill="#6880E4"/>
</g>
<mask id="mask13_3956_16372" style="mask-type:luminance" maskUnits="userSpaceOnUse" x="2353" y="871" width="140" height="495">
<path d="M2492.85 1365.73H2353.37V875.058C2353.37 872.995 2355.04 871.323 2357.1 871.323H2489.12C2491.18 871.323 2492.85 872.995 2492.85 875.058V1365.73H2492.85Z" fill="white"/>
</mask>
<g mask="url(#mask13_3956_16372)">
<path d="M2370.94 1050.17H2353.37V1056.29H2370.94V1050.17Z" fill="#6880E4"/>
</g>
<mask id="mask14_3956_16372" style="mask-type:luminance" maskUnits="userSpaceOnUse" x="2353" y="871" width="140" height="495">
<path d="M2492.85 1365.73H2353.37V875.058C2353.37 872.995 2355.04 871.323 2357.1 871.323H2489.12C2491.18 871.323 2492.85 872.995 2492.85 875.058V1365.73H2492.85Z" fill="white"/>
</mask>
<g mask="url(#mask14_3956_16372)">
<path d="M2370.94 1078.36H2353.37V1084.48H2370.94V1078.36Z" fill="#6880E4"/>
</g>
<mask id="mask15_3956_16372" style="mask-type:luminance" maskUnits="userSpaceOnUse" x="2353" y="871" width="140" height="495">
<path d="M2492.85 1365.73H2353.37V875.058C2353.37 872.995 2355.04 871.323 2357.1 871.323H2489.12C2491.18 871.323 2492.85 872.995 2492.85 875.058V1365.73H2492.85Z" fill="white"/>
</mask>
<g mask="url(#mask15_3956_16372)">
<path d="M2370.94 1106.54H2353.37V1112.66H2370.94V1106.54Z" fill="#6880E4"/>
</g>
<mask id="mask16_3956_16372" style="mask-type:luminance" maskUnits="userSpaceOnUse" x="2353" y="871" width="140" height="495">
<path d="M2492.85 1365.73H2353.37V875.058C2353.37 872.995 2355.04 871.323 2357.1 871.323H2489.12C2491.18 871.323 2492.85 872.995 2492.85 875.058V1365.73H2492.85Z" fill="white"/>
</mask>
<g mask="url(#mask16_3956_16372)">
<path d="M2370.94 1134.72H2353.37V1140.85H2370.94V1134.72Z" fill="#6880E4"/>
</g>
<mask id="mask17_3956_16372" style="mask-type:luminance" maskUnits="userSpaceOnUse" x="2353" y="871" width="140" height="495">
<path d="M2492.85 1365.73H2353.37V875.058C2353.37 872.995 2355.04 871.323 2357.1 871.323H2489.12C2491.18 871.323 2492.85 872.995 2492.85 875.058V1365.73H2492.85Z" fill="white"/>
</mask>
<g mask="url(#mask17_3956_16372)">
<path d="M2370.94 1162.91H2353.37V1169.03H2370.94V1162.91Z" fill="#6880E4"/>
</g>
<mask id="mask18_3956_16372" style="mask-type:luminance" maskUnits="userSpaceOnUse" x="2353" y="871" width="140" height="495">
<path d="M2492.85 1365.73H2353.37V875.058C2353.37 872.995 2355.04 871.323 2357.1 871.323H2489.12C2491.18 871.323 2492.85 872.995 2492.85 875.058V1365.73H2492.85Z" fill="white"/>
</mask>
<g mask="url(#mask18_3956_16372)">
<path d="M2370.94 1191.09H2353.37V1197.21H2370.94V1191.09Z" fill="#6880E4"/>
</g>
<mask id="mask19_3956_16372" style="mask-type:luminance" maskUnits="userSpaceOnUse" x="2353" y="871" width="140" height="495">
<path d="M2492.85 1365.73H2353.37V875.058C2353.37 872.995 2355.04 871.323 2357.1 871.323H2489.12C2491.18 871.323 2492.85 872.995 2492.85 875.058V1365.73H2492.85Z" fill="white"/>
</mask>
<g mask="url(#mask19_3956_16372)">
<path d="M2370.94 1219.27H2353.37V1225.4H2370.94V1219.27Z" fill="#6880E4"/>
</g>
<mask id="mask20_3956_16372" style="mask-type:luminance" maskUnits="userSpaceOnUse" x="2353" y="871" width="140" height="495">
<path d="M2492.85 1365.73H2353.37V875.058C2353.37 872.995 2355.04 871.323 2357.1 871.323H2489.12C2491.18 871.323 2492.85 872.995 2492.85 875.058V1365.73H2492.85Z" fill="white"/>
</mask>
<g mask="url(#mask20_3956_16372)">
<path d="M2370.94 1247.46H2353.37V1253.58H2370.94V1247.46Z" fill="#6880E4"/>
</g>
<mask id="mask21_3956_16372" style="mask-type:luminance" maskUnits="userSpaceOnUse" x="2353" y="871" width="140" height="495">
<path d="M2492.85 1365.73H2353.37V875.058C2353.37 872.995 2355.04 871.323 2357.1 871.323H2489.12C2491.18 871.323 2492.85 872.995 2492.85 875.058V1365.73H2492.85Z" fill="white"/>
</mask>
<g mask="url(#mask21_3956_16372)">
<path d="M2370.94 1275.64H2353.37V1281.76H2370.94V1275.64Z" fill="#6880E4"/>
</g>
<mask id="mask22_3956_16372" style="mask-type:luminance" maskUnits="userSpaceOnUse" x="2353" y="871" width="140" height="495">
<path d="M2492.85 1365.73H2353.37V875.058C2353.37 872.995 2355.04 871.323 2357.1 871.323H2489.12C2491.18 871.323 2492.85 872.995 2492.85 875.058V1365.73H2492.85Z" fill="white"/>
</mask>
<g mask="url(#mask22_3956_16372)">
<path d="M2370.94 1303.83H2353.37V1309.95H2370.94V1303.83Z" fill="#6880E4"/>
</g>
<mask id="mask23_3956_16372" style="mask-type:luminance" maskUnits="userSpaceOnUse" x="2353" y="871" width="140" height="495">
<path d="M2492.85 1365.73H2353.37V875.058C2353.37 872.995 2355.04 871.323 2357.1 871.323H2489.12C2491.18 871.323 2492.85 872.995 2492.85 875.058V1365.73H2492.85Z" fill="white"/>
</mask>
<g mask="url(#mask23_3956_16372)">
<path d="M2370.94 1332.01H2353.37V1338.13H2370.94V1332.01Z" fill="#6880E4"/>
</g>
<mask id="mask24_3956_16372" style="mask-type:luminance" maskUnits="userSpaceOnUse" x="2353" y="871" width="140" height="495">
<path d="M2492.85 1365.73H2353.37V875.058C2353.37 872.995 2355.04 871.323 2357.1 871.323H2489.12C2491.18 871.323 2492.85 872.995 2492.85 875.058V1365.73H2492.85Z" fill="white"/>
</mask>
<g mask="url(#mask24_3956_16372)">
<path opacity="0.17" d="M2462.68 852.67C2423.97 885.827 2410.4 945.129 2430.83 991.821C2440.55 1014.04 2457.17 1033.86 2460.28 1057.91C2463.31 1081.25 2453.04 1103.95 2444.93 1126.03C2436.93 1147.8 2430.77 1170.79 2432.4 1193.92C2435.05 1231.75 2458.26 1267.14 2454.47 1304.87C2450.83 1341.11 2422.64 1372.66 2424.26 1409.04C2424.73 1409.04 2423.77 1410.65 2424.24 1410.65H2514.86L2514.82 850.349L2525.96 850.46L2462.68 852.67Z" fill="#6880E4"/>
</g>
<path d="M2763.83 1784.46H474.319C471.971 1784.46 470.068 1782.56 470.068 1780.21C470.068 1777.86 471.971 1775.96 474.319 1775.96H2763.83C2766.17 1775.96 2768.08 1777.86 2768.08 1780.21C2768.08 1782.56 2766.17 1784.46 2763.83 1784.46Z" fill="#1C056D"/>
<path d="M1172.41 613.039L1119.44 619.892C1090.27 606.226 1062.03 597.376 1035.69 600.127C1009.24 602.891 994.046 630.586 1000.57 649.234C1006.31 665.635 1053.91 682.455 1074.44 682.85C1094.97 683.245 1126.16 678.507 1137.61 668.349C1137.62 668.334 1137.63 668.316 1137.65 668.301H1172.41V613.039H1172.41Z" fill="#FE8E9C"/>
<mask id="mask25_3956_16372" style="mask-type:luminance" maskUnits="userSpaceOnUse" x="999" y="599" width="174" height="84">
<path d="M1172.41 613.039L1119.44 619.892C1090.27 606.226 1062.03 597.376 1035.69 600.127C1009.24 602.891 994.046 630.586 1000.57 649.234C1006.31 665.635 1053.91 682.455 1074.44 682.85C1094.97 683.245 1126.16 678.507 1137.61 668.349C1137.62 668.334 1137.63 668.316 1137.65 668.301H1172.41V613.039H1172.41Z" fill="white"/>
</mask>
<g mask="url(#mask25_3956_16372)">
<path d="M1056 685.373C1056 685.373 1066.2 665.448 1065.73 650.157C1065.27 634.866 1044.25 611.038 1044.25 611.038L1026.81 611.929C1026.81 611.929 1032.5 667.765 1027.45 677.612L1056 685.373Z" fill="#E57492"/>
</g>
<path d="M1137.61 668.35C1137.61 668.35 1148.1 652.242 1123.71 635.982C1123.71 635.982 1145.46 639.498 1152.93 653.999C1160.41 668.501 1158.87 668.72 1158.87 668.72L1137.61 668.35Z" fill="#E57492"/>
<path d="M1119.44 619.893C1119.44 619.893 1102.46 621.4 1099.17 621.48C1087.28 621.768 1075.36 622.423 1075.36 622.423C1075.36 622.423 1067.95 598.375 1057.06 603.303C1041.06 610.541 1059.35 621.769 1059.35 621.769C1059.35 621.769 1030.91 617.03 1028.13 616.866C1025.36 616.703 1049.42 667.458 1023.75 682.874C998.078 698.29 969.483 690.166 965.909 650.198C962.335 610.23 1003.28 571.886 1040.97 573.186C1078.66 574.485 1119.44 619.893 1119.44 619.893Z" fill="#1B3D9E"/>
<mask id="mask26_3956_16372" style="mask-type:luminance" maskUnits="userSpaceOnUse" x="965" y="573" width="155" height="118">
<path d="M1119.44 619.893C1119.44 619.893 1102.46 621.4 1099.17 621.48C1087.28 621.768 1075.36 622.423 1075.36 622.423C1075.36 622.423 1067.95 598.375 1057.06 603.303C1041.06 610.541 1059.35 621.769 1059.35 621.769C1059.35 621.769 1030.91 617.03 1028.13 616.866C1025.36 616.703 1049.42 667.458 1023.75 682.874C998.078 698.29 969.483 690.166 965.909 650.198C962.335 610.23 1003.28 571.886 1040.97 573.186C1078.66 574.485 1119.44 619.893 1119.44 619.893Z" fill="white"/>
</mask>
<g mask="url(#mask26_3956_16372)">
<path d="M1001.92 690.178C1001.92 690.178 1021.47 673.808 1020.5 655.713C1019.54 637.619 1013.7 609.292 1016.57 607.412C1019.44 605.532 1049.54 617.546 1049.54 617.546C1049.54 617.546 1043.99 609.421 1053.65 605.261C1053.65 605.261 1068.95 622.008 1067.87 623.765C1066.78 625.522 1031.64 622.008 1031.64 622.008C1031.64 622.008 1045.43 655.872 1035.56 675.879C1025.69 695.886 1001.92 690.178 1001.92 690.178Z" fill="#1C056D"/>
</g>
<path d="M1118.32 668.721C1118.32 668.721 1110.23 666.396 1110.23 652.352C1110.23 638.307 1110.23 650.948 1110.23 650.948C1110.23 650.948 1118.45 665.894 1118.32 668.721Z" fill="#F6F9FF"/>
<path d="M1052.55 651.59C1052.55 651.59 1084.81 669.138 1087.84 667.275C1090.87 665.412 1085.39 645.728 1085.39 645.728C1085.39 645.728 1088.89 645.495 1089.7 648.64C1090.52 651.785 1095.06 670.303 1089.7 670.653C1084.35 671.002 1057.79 657.918 1052.55 651.59Z" fill="#E57492"/>
<path d="M1239.14 984.943C1239.14 984.943 1231.23 995.587 1228.61 1000.85C1226 1006.12 1225.16 1032.45 1225.71 1032.36C1226.25 1032.27 1232.1 1031.96 1233.32 1028.48L1239.79 1006.25C1239.79 1006.25 1240.23 1030.09 1239.44 1031.77C1238.65 1033.46 1224.93 1060.82 1226.13 1061.69C1227.34 1062.56 1232.54 1065.73 1236.59 1058.91C1240.64 1052.09 1250.22 1034.44 1251.4 1031.62C1252.57 1028.8 1232.64 1068.82 1233.44 1069.14C1234.24 1069.46 1239.35 1072.11 1241.37 1069.5C1243.39 1066.89 1261.24 1038.48 1261.83 1036.2C1262.41 1033.91 1250.71 1063.41 1251.32 1063.4C1251.93 1063.39 1254.26 1066.42 1257.45 1062.39C1260.65 1058.37 1271.37 1036.73 1271.89 1035.6C1272.4 1034.46 1272.24 1020.68 1272.24 1020.68C1272.24 1020.68 1274.91 1036.87 1274.29 1038.98C1273.66 1041.08 1268.75 1053.34 1271.03 1053.77C1272.76 1054.1 1275.77 1050.77 1278.14 1046.43C1280.5 1042.09 1283.51 1035.58 1283.29 1029.4C1283.06 1023.22 1271.68 988.624 1271.68 988.624L1239.14 984.943Z" fill="#FE8E9C"/>
<mask id="mask27_3956_16372" style="mask-type:luminance" maskUnits="userSpaceOnUse" x="1225" y="984" width="59" height="87">
<path d="M1239.14 984.943C1239.14 984.943 1231.23 995.587 1228.61 1000.85C1226 1006.12 1225.16 1032.45 1225.71 1032.36C1226.25 1032.27 1232.1 1031.96 1233.32 1028.48L1239.79 1006.25C1239.79 1006.25 1240.23 1030.09 1239.44 1031.77C1238.65 1033.46 1224.93 1060.82 1226.13 1061.69C1227.34 1062.56 1232.54 1065.73 1236.59 1058.91C1240.64 1052.09 1250.22 1034.44 1251.4 1031.62C1252.57 1028.8 1232.64 1068.82 1233.44 1069.14C1234.24 1069.46 1239.35 1072.11 1241.37 1069.5C1243.39 1066.89 1261.24 1038.48 1261.83 1036.2C1262.41 1033.91 1250.71 1063.41 1251.32 1063.4C1251.93 1063.39 1254.26 1066.42 1257.45 1062.39C1260.65 1058.37 1271.37 1036.73 1271.89 1035.6C1272.4 1034.46 1272.24 1020.68 1272.24 1020.68C1272.24 1020.68 1274.91 1036.87 1274.29 1038.98C1273.66 1041.08 1268.75 1053.34 1271.03 1053.77C1272.76 1054.1 1275.77 1050.77 1278.14 1046.43C1280.5 1042.09 1283.51 1035.58 1283.29 1029.4C1283.06 1023.22 1271.68 988.624 1271.68 988.624L1239.14 984.943Z" fill="white"/>
</mask>
<g mask="url(#mask27_3956_16372)">
<path d="M1222.65 1010.09C1223.15 1011.89 1247.4 998.437 1280.44 1003.6C1280.44 1003.6 1276 983.538 1272.39 981.736C1268.79 979.934 1240.43 979.934 1236.11 981.976C1231.78 984.018 1220.37 1001.8 1222.65 1010.09Z" fill="#E57492"/>
</g>
<path d="M1535.62 590.093C1535.62 587.971 1534.1 586.155 1532.02 585.779L1360.12 554.866C1215.93 542.533 1172.42 606.359 1172.42 606.359V668.328L1189.28 668.261C1201.77 704.733 1237.31 809.253 1240.92 828.241C1245.32 851.322 1216.96 990.304 1219.89 992.146C1222.83 993.988 1286.51 1001.83 1292.39 1000.85C1298.27 999.866 1327.66 846.808 1325.7 828.308C1324.2 814.106 1319.8 716.713 1308.98 667.785L1535.62 666.883V590.093Z" fill="#FC476A"/>
<path d="M1308.98 667.784C1308.98 667.784 1304.69 645.056 1285.62 629.279C1285.62 629.279 1387.52 649.657 1417.1 651.629C1446.68 653.601 1535.62 645.777 1535.62 645.777V666.881L1308.98 667.784Z" fill="#D40221"/>
<path d="M2046.74 728.963C2046.74 728.963 2082.57 720.454 2083.47 722.096C2084.36 723.738 2089.44 740.158 2087.5 746.129C2085.56 752.1 2050.33 764.938 2050.33 764.938L2046.74 728.963Z" fill="#E57492"/>
<path d="M2074.66 620.017C2074.66 620.017 1735.3 592.172 1664.82 577.38C1594.34 562.588 1535.62 594.743 1535.62 594.743V666.882C1535.62 666.882 1717.99 822.256 1799.77 824.3C1881.54 826.344 2052.59 780.686 2053.95 773.19C2055.32 765.694 2053.95 721.398 2047.14 718.673C2040.33 715.947 1814.08 741.843 1809.99 737.073C1807.33 733.975 1769.03 695.516 1735.41 666.883H2074.66V620.017H2074.66Z" fill="#1B3D9E"/>
<mask id="mask28_3956_16372" style="mask-type:luminance" maskUnits="userSpaceOnUse" x="1535" y="573" width="540" height="252">
<path d="M2074.66 620.017C2074.66 620.017 1735.3 592.172 1664.82 577.38C1594.34 562.588 1535.62 594.743 1535.62 594.743V666.882C1535.62 666.882 1717.99 822.256 1799.77 824.3C1881.54 826.344 2052.59 780.686 2053.95 773.19C2055.32 765.694 2053.95 721.398 2047.14 718.673C2040.33 715.947 1814.08 741.843 1809.99 737.073C1807.33 733.975 1769.03 695.516 1735.41 666.883H2074.66V620.017H2074.66Z" fill="white"/>
</mask>
<g mask="url(#mask28_3956_16372)">
<path d="M1816.44 783.356C1815.24 783.356 1814.28 783.314 1813.51 783.23C1813.33 783.209 1813.13 783.182 1812.93 783.146C1812.06 782.995 1811.48 782.169 1811.64 781.302C1811.79 780.434 1812.61 779.85 1813.48 780.006C1813.61 780.029 1813.74 780.048 1813.87 780.062C1814.87 780.174 1816.45 780.197 1818.46 780.134C1819.35 780.106 1820.08 780.796 1820.11 781.676C1820.13 782.556 1819.44 783.292 1818.56 783.32C1817.79 783.344 1817.08 783.356 1816.44 783.356ZM1823.84 783.034C1823.01 783.034 1822.31 782.392 1822.25 781.552C1822.19 780.674 1822.85 779.911 1823.73 779.85C1825.35 779.736 1827.12 779.594 1829.02 779.424C1829.88 779.345 1830.67 779.992 1830.75 780.87C1830.83 781.747 1830.18 782.521 1829.3 782.599C1827.38 782.771 1825.59 782.915 1823.95 783.03C1823.92 783.032 1823.88 783.034 1823.84 783.034ZM1834.47 782.099C1833.66 782.099 1832.97 781.487 1832.89 780.665C1832.8 779.789 1833.44 779.007 1834.31 778.918C1836 778.747 1837.76 778.562 1839.6 778.361C1840.47 778.268 1841.26 778.898 1841.36 779.774C1841.45 780.649 1840.82 781.436 1839.95 781.531C1838.1 781.732 1836.33 781.919 1834.63 782.09C1834.58 782.097 1834.52 782.099 1834.47 782.099ZM1808.16 781.498C1807.95 781.498 1807.74 781.457 1807.54 781.371C1806.1 780.761 1804.44 779.987 1802.61 779.069C1801.82 778.674 1801.5 777.716 1801.9 776.929C1802.29 776.141 1803.25 775.825 1804.03 776.218C1805.81 777.106 1807.4 777.852 1808.78 778.435C1809.59 778.778 1809.97 779.714 1809.63 780.525C1809.37 781.132 1808.78 781.498 1808.16 781.498ZM1845.06 780.947C1844.27 780.947 1843.58 780.348 1843.48 779.535C1843.38 778.66 1844.01 777.87 1844.88 777.769C1846.59 777.571 1848.36 777.364 1850.17 777.147C1851.04 777.039 1851.83 777.666 1851.94 778.54C1852.04 779.414 1851.42 780.208 1850.54 780.313C1848.73 780.53 1846.96 780.738 1845.25 780.936C1845.19 780.944 1845.13 780.947 1845.06 780.947ZM1855.64 779.68C1854.85 779.68 1854.16 779.089 1854.06 778.282C1853.95 777.408 1854.57 776.612 1855.45 776.504C1857.17 776.29 1858.93 776.069 1860.73 775.841C1861.6 775.728 1862.4 776.348 1862.51 777.221C1862.62 778.094 1862 778.892 1861.13 779.004C1859.33 779.232 1857.57 779.454 1855.84 779.668C1855.77 779.676 1855.71 779.68 1855.64 779.68ZM1866.2 778.337C1865.42 778.337 1864.73 777.752 1864.63 776.948C1864.51 776.075 1865.13 775.275 1866 775.162C1867.73 774.937 1869.49 774.706 1871.28 774.47C1872.15 774.357 1872.95 774.969 1873.07 775.841C1873.18 776.714 1872.57 777.515 1871.69 777.631C1869.91 777.867 1868.15 778.098 1866.41 778.324C1866.34 778.333 1866.27 778.337 1866.2 778.337ZM1876.76 776.94C1875.98 776.94 1875.29 776.359 1875.18 775.558C1875.07 774.685 1875.68 773.883 1876.55 773.766L1881.82 773.052C1882.69 772.927 1883.5 773.544 1883.62 774.416C1883.74 775.289 1883.13 776.092 1882.25 776.211L1876.98 776.926C1876.9 776.936 1876.83 776.94 1876.76 776.94ZM1798.59 776.763C1798.34 776.763 1798.08 776.7 1797.83 776.57C1796.35 775.765 1794.79 774.893 1793.15 773.96C1792.38 773.524 1792.11 772.551 1792.55 771.786C1792.98 771.021 1793.96 770.752 1794.72 771.189C1796.34 772.11 1797.89 772.971 1799.35 773.767C1800.13 774.187 1800.42 775.155 1800 775.929C1799.71 776.461 1799.16 776.763 1798.59 776.763ZM1887.31 775.502C1886.53 775.502 1885.84 774.924 1885.73 774.125C1885.61 773.253 1886.22 772.448 1887.09 772.328L1892.36 771.597C1893.23 771.48 1894.04 772.084 1894.16 772.956C1894.28 773.828 1893.68 774.634 1892.8 774.755L1887.53 775.486C1887.45 775.497 1887.38 775.502 1887.31 775.502ZM1897.85 774.031C1897.07 774.031 1896.39 773.455 1896.27 772.659C1896.15 771.787 1896.76 770.981 1897.63 770.858L1902.9 770.112C1903.76 769.981 1904.58 770.594 1904.7 771.466C1904.82 772.338 1904.22 773.145 1903.35 773.269L1898.08 774.015C1898 774.026 1897.93 774.031 1897.85 774.031ZM1908.39 772.532C1907.61 772.532 1906.93 771.959 1906.81 771.164C1906.69 770.292 1907.29 769.485 1908.17 769.36L1913.43 768.602C1914.31 768.479 1915.11 769.08 1915.24 769.952C1915.36 770.823 1914.76 771.632 1913.89 771.758L1908.62 772.517C1908.54 772.527 1908.46 772.532 1908.39 772.532ZM1789.32 771.498C1789.05 771.498 1788.77 771.427 1788.51 771.277C1787.03 770.404 1785.5 769.491 1783.92 768.539C1783.17 768.084 1782.93 767.104 1783.38 766.35C1783.84 765.597 1784.82 765.353 1785.57 765.809C1787.14 766.754 1788.66 767.662 1790.13 768.529C1790.89 768.976 1791.14 769.953 1790.7 770.712C1790.4 771.217 1789.87 771.498 1789.32 771.498ZM1918.92 771.01C1918.14 771.01 1917.46 770.439 1917.34 769.645C1917.22 768.774 1917.82 767.965 1918.69 767.838L1923.96 767.07C1924.84 766.943 1925.64 767.545 1925.77 768.416C1925.9 769.288 1925.29 770.097 1924.42 770.225L1919.15 770.994C1919.07 771.005 1919 771.01 1918.92 771.01ZM1929.45 769.467C1928.67 769.467 1927.99 768.897 1927.88 768.105C1927.75 767.234 1928.35 766.424 1929.22 766.296L1934.49 765.519C1935.35 765.389 1936.17 765.992 1936.3 766.862C1936.43 767.733 1935.82 768.544 1934.95 768.673L1929.68 769.45C1929.61 769.462 1929.53 769.467 1929.45 769.467ZM1940 767.905C1939.22 767.905 1938.54 767.337 1938.42 766.546C1938.29 765.675 1938.9 764.864 1939.77 764.734L1945.03 763.947C1945.91 763.814 1946.72 764.417 1946.85 765.288C1946.98 766.159 1946.38 766.97 1945.51 767.101L1940.24 767.888C1940.16 767.9 1940.08 767.905 1940 767.905ZM1950.52 766.33C1949.75 766.33 1949.07 765.763 1948.95 764.973C1948.82 764.102 1949.42 763.29 1950.29 763.159L1955.55 762.367C1956.42 762.234 1957.23 762.835 1957.36 763.705C1957.5 764.576 1956.9 765.388 1956.03 765.519L1950.76 766.313C1950.68 766.324 1950.6 766.33 1950.52 766.33ZM1780.2 765.996C1779.91 765.996 1779.62 765.92 1779.36 765.76C1777.88 764.85 1776.37 763.912 1774.83 762.947C1774.08 762.48 1773.85 761.497 1774.32 760.75C1774.79 760.004 1775.77 759.775 1776.52 760.243C1778.05 761.203 1779.56 762.137 1781.03 763.044C1781.78 763.506 1782.02 764.488 1781.56 765.237C1781.26 765.727 1780.73 765.996 1780.2 765.996ZM1961.05 764.741C1960.27 764.741 1959.59 764.176 1959.47 763.386C1959.34 762.515 1959.94 761.702 1960.81 761.571L1966.07 760.771C1966.94 760.644 1967.76 761.236 1967.89 762.107C1968.02 762.978 1967.42 763.791 1966.55 763.924L1961.29 764.724C1961.21 764.735 1961.13 764.741 1961.05 764.741ZM1971.57 763.138C1970.8 763.138 1970.12 762.573 1970 761.784C1969.86 760.914 1970.46 760.1 1971.33 759.968L1976.59 759.162C1977.47 759.03 1978.27 759.626 1978.41 760.495C1978.54 761.366 1977.94 762.179 1977.07 762.313L1971.81 763.119C1971.73 763.132 1971.65 763.138 1971.57 763.138ZM1982.09 761.523C1981.32 761.523 1980.64 760.959 1980.52 760.171C1980.38 759.3 1980.98 758.486 1981.85 758.353L1987.11 757.542C1987.97 757.41 1988.79 758.004 1988.93 758.875C1989.06 759.745 1988.47 760.559 1987.6 760.694L1982.33 761.505C1982.25 761.517 1982.17 761.523 1982.09 761.523ZM1771.16 760.354C1770.87 760.354 1770.58 760.274 1770.31 760.107C1768.84 759.173 1767.34 758.218 1765.81 757.243C1765.07 756.768 1764.86 755.782 1765.33 755.04C1765.81 754.299 1766.79 754.081 1767.53 754.558C1769.05 755.529 1770.55 756.481 1772.02 757.412C1772.76 757.883 1772.98 758.868 1772.51 759.612C1772.21 760.092 1771.69 760.354 1771.16 760.354ZM1992.61 759.897C1991.84 759.897 1991.16 759.334 1991.04 758.547C1990.9 757.677 1991.5 756.862 1992.37 756.728L1997.63 755.911C1998.5 755.776 1999.31 756.372 1999.45 757.241C1999.58 758.111 1998.99 758.926 1998.12 759.061L1992.86 759.878C1992.77 759.891 1992.69 759.897 1992.61 759.897ZM2003.13 758.26C2002.36 758.26 2001.68 757.698 2001.56 756.911C2001.42 756.041 2002.02 755.225 2002.89 755.09L2008.15 754.268C2009.01 754.137 2009.83 754.728 2009.97 755.597C2010.1 756.467 2009.51 757.282 2008.64 757.418L2003.38 758.24C2003.29 758.254 2003.21 758.26 2003.13 758.26ZM2013.65 756.614C2012.88 756.614 2012.2 756.053 2012.08 755.267C2011.94 754.397 2012.54 753.582 2013.41 753.445L2018.66 752.618C2019.54 752.482 2020.35 753.076 2020.49 753.945C2020.62 754.815 2020.03 755.631 2019.16 755.768L2013.9 756.596C2013.82 756.607 2013.73 756.614 2013.65 756.614ZM2024.17 754.957C2023.4 754.957 2022.72 754.397 2022.6 753.611C2022.46 752.741 2023.06 751.925 2023.92 751.788L2029.19 750.956C2030.05 750.817 2030.87 751.411 2031.01 752.281C2031.15 753.151 2030.55 753.967 2029.68 754.105L2024.42 754.938C2024.34 754.951 2024.25 754.957 2024.17 754.957ZM1762.19 754.615C1761.9 754.615 1761.6 754.533 1761.33 754.36C1759.86 753.409 1758.37 752.441 1756.86 751.459C1756.12 750.979 1755.92 749.991 1756.4 749.253C1756.88 748.517 1757.86 748.306 1758.6 748.788C1760.11 749.767 1761.59 750.733 1763.06 751.682C1763.8 752.16 1764.01 753.146 1763.54 753.886C1763.23 754.358 1762.72 754.615 1762.19 754.615ZM2034.7 753.289C2033.92 753.289 2033.25 752.73 2033.12 751.945C2032.98 751.075 2033.58 750.258 2034.45 750.12L2039.71 749.283C2040.58 749.137 2041.4 749.737 2041.54 750.606C2041.68 751.476 2041.08 752.293 2040.21 752.431L2034.95 753.269C2034.86 753.283 2034.78 753.289 2034.7 753.289ZM2045.23 751.611C2044.46 751.611 2043.78 751.052 2043.66 750.268C2043.52 749.398 2044.11 748.581 2044.98 748.442L2050.25 747.598C2051.11 747.46 2051.94 748.051 2052.08 748.92C2052.22 749.789 2051.62 750.607 2050.75 750.747L2045.48 751.591C2045.4 751.604 2045.31 751.611 2045.23 751.611ZM2055.78 749.917C2055.01 749.917 2054.34 749.36 2054.21 748.576C2054.07 747.707 2054.66 746.888 2055.53 746.749L2060.84 745.89C2061.71 745.752 2062.53 746.339 2062.67 747.208C2062.82 748.077 2062.23 748.896 2061.36 749.037L2056.04 749.896C2055.95 749.911 2055.86 749.917 2055.78 749.917ZM1753.27 748.805C1752.97 748.805 1752.67 748.721 1752.4 748.544C1750.93 747.579 1749.45 746.602 1747.95 745.614C1747.22 745.129 1747.02 744.139 1747.5 743.405C1747.99 742.67 1748.98 742.469 1749.71 742.954C1751.2 743.94 1752.68 744.915 1754.15 745.878C1754.89 746.361 1755.09 747.35 1754.61 748.085C1754.3 748.552 1753.79 748.805 1753.27 748.805ZM1744.39 742.938C1744.09 742.938 1743.78 742.852 1743.51 742.671C1742.04 741.696 1740.57 740.712 1739.08 739.718C1738.35 739.229 1738.15 738.239 1738.64 737.507C1739.13 736.776 1740.12 736.577 1740.85 737.067C1742.34 738.059 1743.81 739.042 1745.28 740.016C1746.01 740.503 1746.21 741.493 1745.72 742.226C1745.42 742.688 1744.91 742.938 1744.39 742.938ZM1735.54 737.027C1735.24 737.027 1734.93 736.94 1734.65 736.756L1730.24 733.784C1729.51 733.292 1729.31 732.301 1729.8 731.571C1730.3 730.843 1731.29 730.646 1732.02 731.14L1736.43 734.108C1737.16 734.599 1737.36 735.589 1736.87 736.32C1736.56 736.78 1736.05 737.027 1735.54 737.027ZM1726.72 731.078C1726.41 731.078 1726.1 730.99 1725.82 730.804L1721.42 727.816C1720.69 727.321 1720.5 726.329 1721 725.601C1721.49 724.872 1722.48 724.685 1723.21 725.178L1727.61 728.163C1728.34 728.657 1728.53 729.648 1728.04 730.377C1727.73 730.833 1727.23 731.078 1726.72 731.078ZM1717.91 725.098C1717.6 725.098 1717.29 725.008 1717.02 724.821L1712.63 721.826C1711.9 721.329 1711.72 720.337 1712.21 719.61C1712.71 718.883 1713.7 718.696 1714.43 719.193L1718.81 722.186C1719.54 722.682 1719.73 723.674 1719.23 724.401C1718.92 724.854 1718.42 725.098 1717.91 725.098ZM1709.14 719.096C1708.83 719.096 1708.51 719.006 1708.24 718.817L1703.84 715.794C1703.11 715.295 1702.93 714.302 1703.43 713.577C1703.93 712.85 1704.92 712.67 1705.65 713.167L1710.04 716.187C1710.77 716.685 1710.95 717.678 1710.45 718.404C1710.14 718.854 1709.65 719.096 1709.14 719.096ZM1700.36 713.055C1700.04 713.055 1699.73 712.964 1699.45 712.773L1695.07 709.748C1694.35 709.247 1694.17 708.254 1694.67 707.53C1695.17 706.805 1696.16 706.626 1696.89 707.125L1701.26 710.148C1701.99 710.648 1702.17 711.641 1701.67 712.366C1701.36 712.815 1700.86 713.055 1700.36 713.055ZM1691.6 707.003C1691.29 707.003 1690.97 706.911 1690.7 706.719L1686.32 703.685C1685.6 703.183 1685.42 702.189 1685.92 701.466C1686.43 700.742 1687.42 700.565 1688.14 701.067L1692.51 704.099C1693.24 704.601 1693.42 705.594 1692.92 706.318C1692.6 706.764 1692.11 707.003 1691.6 707.003ZM1682.86 700.931C1682.55 700.931 1682.23 700.838 1681.95 700.645L1677.58 697.602C1676.86 697.099 1676.68 696.105 1677.19 695.383C1677.69 694.66 1678.69 694.484 1679.41 694.987L1683.77 698.028C1684.5 698.531 1684.67 699.525 1684.17 700.247C1683.86 700.693 1683.37 700.931 1682.86 700.931ZM1674.13 694.843C1673.82 694.843 1673.5 694.75 1673.22 694.555L1668.89 691.525C1668.17 691.021 1667.98 690.016 1668.48 689.295C1668.99 688.573 1669.96 688.387 1670.69 688.892L1675.05 691.941C1675.77 692.445 1675.94 693.439 1675.44 694.161C1675.13 694.606 1674.64 694.843 1674.13 694.843ZM1665.41 688.74C1665.1 688.74 1664.78 688.646 1664.5 688.451L1660.14 685.393C1659.42 684.887 1659.24 683.892 1659.75 683.172C1660.26 682.45 1661.25 682.279 1661.97 682.783L1666.33 685.839C1667.05 686.345 1667.22 687.339 1666.72 688.06C1666.41 688.503 1665.91 688.74 1665.41 688.74ZM1656.7 682.623C1656.38 682.623 1656.06 682.529 1655.78 682.333L1651.43 679.269C1650.71 678.762 1650.54 677.767 1651.04 677.048C1651.55 676.328 1652.55 676.155 1653.27 676.663L1657.62 679.725C1658.34 680.231 1658.51 681.225 1658.01 681.946C1657.7 682.387 1657.2 682.623 1656.7 682.623ZM1648 676.494C1647.68 676.494 1647.36 676.4 1647.08 676.202L1642.73 673.134C1642.01 672.626 1641.83 671.631 1642.34 670.912C1642.85 670.192 1643.85 670.023 1644.56 670.528L1648.92 673.596C1649.64 674.103 1649.81 675.098 1649.3 675.817C1648.99 676.258 1648.5 676.494 1648 676.494ZM1639.3 670.354C1638.98 670.354 1638.66 670.259 1638.38 670.062L1634.03 666.987C1633.31 666.479 1633.14 665.484 1633.65 664.765C1634.16 664.047 1635.15 663.877 1635.87 664.384L1640.22 667.457C1640.94 667.965 1641.11 668.96 1640.6 669.679C1640.29 670.119 1639.8 670.354 1639.3 670.354ZM1630.6 664.205C1630.28 664.205 1629.96 664.11 1629.68 663.913L1625.33 660.835C1624.61 660.327 1624.44 659.331 1624.95 658.613C1625.46 657.894 1626.46 657.723 1627.17 658.233L1631.52 661.31C1632.24 661.818 1632.41 662.813 1631.9 663.532C1631.59 663.971 1631.1 664.205 1630.6 664.205ZM1621.9 658.049C1621.58 658.049 1621.26 657.954 1620.98 657.756L1616.63 654.677C1615.91 654.168 1615.74 653.173 1616.25 652.455C1616.76 651.735 1617.76 651.568 1618.47 652.075L1622.82 655.154C1623.54 655.663 1623.71 656.658 1623.2 657.376C1622.89 657.815 1622.4 658.049 1621.9 658.049ZM1613.2 651.892C1612.88 651.892 1612.56 651.797 1612.28 651.6L1607.92 648.524C1607.2 648.017 1607.02 647.023 1607.53 646.303C1608.04 645.584 1609.03 645.411 1609.75 645.918L1614.12 648.997C1614.84 649.505 1615.01 650.5 1614.5 651.219C1614.19 651.657 1613.7 651.892 1613.2 651.892ZM1604.46 645.743C1604.14 645.743 1603.82 645.65 1603.55 645.456C1601.55 644.061 1600.06 643.038 1599.16 642.437C1598.42 641.95 1598.22 640.961 1598.71 640.227C1599.2 639.494 1600.19 639.293 1600.92 639.78C1601.84 640.389 1603.35 641.427 1605.37 642.842C1606.09 643.346 1606.27 644.34 1605.77 645.062C1605.46 645.505 1604.96 645.743 1604.46 645.743Z" fill="#1C056D"/>
</g>
<mask id="mask29_3956_16372" style="mask-type:luminance" maskUnits="userSpaceOnUse" x="1535" y="573" width="540" height="252">
<path d="M2074.66 620.017C2074.66 620.017 1735.3 592.172 1664.82 577.38C1594.34 562.588 1535.62 594.743 1535.62 594.743V666.882C1535.62 666.882 1717.99 822.256 1799.77 824.3C1881.54 826.344 2052.59 780.686 2053.95 773.19C2055.32 765.694 2053.95 721.398 2047.14 718.673C2040.33 715.947 1814.08 741.843 1809.99 737.073C1807.33 733.975 1769.03 695.516 1735.41 666.883H2074.66V620.017H2074.66Z" fill="white"/>
</mask>
<g mask="url(#mask29_3956_16372)">
<path d="M1547.61 585.272C1547.61 585.272 1550.6 680.498 1549.1 681.992C1547.61 683.486 1530.81 671.162 1530.81 671.162C1530.81 671.162 1528.85 595.222 1530.43 590.5C1532.02 585.778 1547.61 585.272 1547.61 585.272Z" fill="#1C056D"/>
</g>
<mask id="mask30_3956_16372" style="mask-type:luminance" maskUnits="userSpaceOnUse" x="1535" y="573" width="540" height="252">
<path d="M2074.66 620.017C2074.66 620.017 1735.3 592.172 1664.82 577.38C1594.34 562.588 1535.62 594.743 1535.62 594.743V666.882C1535.62 666.882 1717.99 822.256 1799.77 824.3C1881.54 826.344 2052.59 780.686 2053.95 773.19C2055.32 765.694 2053.95 721.398 2047.14 718.673C2040.33 715.947 1814.08 741.843 1809.99 737.073C1807.33 733.975 1769.03 695.516 1735.41 666.883H2074.66V620.017H2074.66Z" fill="white"/>
</mask>
<g mask="url(#mask30_3956_16372)">
<path d="M1735.41 666.881C1735.41 666.881 1662.45 606.815 1651.21 603.902C1651.21 603.902 1724.89 620.551 1781.91 636.785C1838.94 653.018 2080.35 649.688 2080.35 649.688V673.83L1735.41 666.881Z" fill="#1C056D"/>
</g>
<path d="M2082.14 721.894C2082.14 721.894 2087.94 712.638 2098.79 711.125C2109.63 709.612 2113.16 711.125 2113.16 711.125C2113.16 711.125 2142.28 790.025 2137 791.693C2131.72 793.361 2119.76 793.639 2116.15 790.303C2112.54 786.967 2085.12 748.822 2085.12 748.822C2085.12 748.822 2086.89 728.195 2082.14 721.894Z" fill="#1B3D9E"/>
<mask id="mask31_3956_16372" style="mask-type:luminance" maskUnits="userSpaceOnUse" x="2082" y="710" width="56" height="83">
<path d="M2082.14 721.894C2082.14 721.894 2087.94 712.638 2098.79 711.125C2109.63 709.612 2113.16 711.125 2113.16 711.125C2113.16 711.125 2142.28 790.025 2137 791.693C2131.72 793.361 2119.76 793.639 2116.15 790.303C2112.54 786.967 2085.12 748.822 2085.12 748.822C2085.12 748.822 2086.89 728.195 2082.14 721.894Z" fill="white"/>
</mask>
<g mask="url(#mask31_3956_16372)">
<path d="M2090.32 759.323C2090.32 759.323 2098.06 750.505 2101.79 750.701C2104.09 750.822 2105.08 752.41 2105.5 753.601C2105.76 754.345 2105.59 755.169 2105.07 755.763C2102.9 758.244 2096.6 765.287 2095.22 764.938C2093.56 764.516 2090.32 759.323 2090.32 759.323Z" fill="#1C056D"/>
</g>
<mask id="mask32_3956_16372" style="mask-type:luminance" maskUnits="userSpaceOnUse" x="2082" y="710" width="56" height="83">
<path d="M2082.14 721.894C2082.14 721.894 2087.94 712.638 2098.79 711.125C2109.63 709.612 2113.16 711.125 2113.16 711.125C2113.16 711.125 2142.28 790.025 2137 791.693C2131.72 793.361 2119.76 793.639 2116.15 790.303C2112.54 786.967 2085.12 748.822 2085.12 748.822C2085.12 748.822 2086.89 728.195 2082.14 721.894Z" fill="white"/>
</mask>
<g mask="url(#mask32_3956_16372)">
<path d="M2098.11 770.754C2098.11 770.754 2105.85 761.936 2109.57 762.132C2111.88 762.253 2112.87 763.841 2113.29 765.032C2113.55 765.776 2113.37 766.6 2112.86 767.194C2110.69 769.675 2104.38 776.718 2103.01 776.369C2101.34 775.947 2098.11 770.754 2098.11 770.754Z" fill="#1C056D"/>
</g>
<mask id="mask33_3956_16372" style="mask-type:luminance" maskUnits="userSpaceOnUse" x="2082" y="710" width="56" height="83">
<path d="M2082.14 721.894C2082.14 721.894 2087.94 712.638 2098.79 711.125C2109.63 709.612 2113.16 711.125 2113.16 711.125C2113.16 711.125 2142.28 790.025 2137 791.693C2131.72 793.361 2119.76 793.639 2116.15 790.303C2112.54 786.967 2085.12 748.822 2085.12 748.822C2085.12 748.822 2086.89 728.195 2082.14 721.894Z" fill="white"/>
</mask>
<g mask="url(#mask33_3956_16372)">
<path d="M2105.27 709.178C2105.27 709.178 2132.58 790.942 2132.39 794.357C2132.39 794.357 2141.5 793.788 2141.5 791.511C2141.5 789.234 2119.11 709.557 2116.27 709.178C2113.42 708.799 2105.27 709.178 2105.27 709.178Z" fill="#1C056D"/>
</g>
<path d="M2074.65 636.268C2074.65 636.268 2108.19 640.932 2108.82 642.609C2109.45 644.286 2109.57 666.924 2109.57 666.924L2074.65 666.986V636.268Z" fill="#E57492"/>
<path d="M2107.44 641.936C2107.44 641.936 2111.38 632.017 2122.92 631.383C2134.46 630.749 2161.44 645.113 2163.85 646.127C2166.26 647.141 2198.77 655.887 2199.33 656.173C2206.29 659.695 2200.1 667.99 2200.1 667.99L2109.57 666.923L2107.44 641.936Z" fill="#1B3D9E"/>
<mask id="mask34_3956_16372" style="mask-type:luminance" maskUnits="userSpaceOnUse" x="2107" y="631" width="96" height="37">
<path d="M2107.44 641.936C2107.44 641.936 2111.38 632.017 2122.92 631.383C2134.46 630.749 2161.44 645.113 2163.85 646.127C2166.26 647.141 2198.77 655.887 2199.33 656.173C2206.29 659.695 2200.1 667.99 2200.1 667.99L2109.57 666.923L2107.44 641.936Z" fill="white"/>
</mask>
<g mask="url(#mask34_3956_16372)">
<path d="M2116.68 631.363C2117.79 632.38 2156.71 650.882 2162.49 651.628C2168.27 652.374 2203.88 661.961 2203.88 661.961C2203.88 661.961 2205.8 657.091 2202.64 655.265C2199.47 653.439 2165.08 645.221 2162.34 643.7C2159.6 642.178 2126.42 628.787 2123.68 629.243C2120.94 629.699 2116.68 631.363 2116.68 631.363Z" fill="#1C056D"/>
</g>
<mask id="mask35_3956_16372" style="mask-type:luminance" maskUnits="userSpaceOnUse" x="2107" y="631" width="96" height="37">
<path d="M2107.44 641.936C2107.44 641.936 2111.38 632.017 2122.92 631.383C2134.46 630.749 2161.44 645.113 2163.85 646.127C2166.26 647.141 2198.77 655.887 2199.33 656.173C2206.29 659.695 2200.1 667.99 2200.1 667.99L2109.57 666.923L2107.44 641.936Z" fill="white"/>
</mask>
<g mask="url(#mask35_3956_16372)">
<path d="M2126.51 668.759C2127.23 666.193 2129.77 653.79 2131.7 653.363C2133.64 652.935 2138.35 654.218 2138.2 654.931C2138.06 655.644 2137.06 669.187 2133.93 669.187C2130.79 669.187 2126.51 668.759 2126.51 668.759Z" fill="#1C056D"/>
</g>
<mask id="mask36_3956_16372" style="mask-type:luminance" maskUnits="userSpaceOnUse" x="2107" y="631" width="96" height="37">
<path d="M2107.44 641.936C2107.44 641.936 2111.38 632.017 2122.92 631.383C2134.46 630.749 2161.44 645.113 2163.85 646.127C2166.26 647.141 2198.77 655.887 2199.33 656.173C2206.29 659.695 2200.1 667.99 2200.1 667.99L2109.57 666.923L2107.44 641.936Z" fill="white"/>
</mask>
<g mask="url(#mask36_3956_16372)">
<path d="M2144.95 672.323C2145.66 669.757 2148.2 657.354 2150.14 656.927C2152.07 656.499 2156.78 657.782 2156.64 658.495C2156.49 659.208 2155.5 672.751 2152.36 672.751C2149.22 672.751 2144.95 672.323 2144.95 672.323Z" fill="#1C056D"/>
</g>
</svg>
