<svg width="540" height="391" viewBox="0 0 540 391" fill="none" xmlns="http://www.w3.org/2000/svg">
<path d="M379.129 80.9795C452.495 80.9795 511.97 136.056 511.97 203.996C511.97 271.936 452.495 327.012 379.129 327.012C305.763 327.012 204.227 259.652 246.288 203.996C288.349 148.34 305.763 80.9795 379.129 80.9795Z" fill="#F2F2F2"/>
<path d="M164.582 80.9795C163.391 80.9795 162.422 81.8766 162.422 82.9798V98.9818C162.422 100.085 163.391 100.982 164.582 100.982C165.773 100.982 166.742 100.085 166.742 98.9818V82.9797C166.742 81.8766 165.773 80.9795 164.582 80.9795Z" fill="#1869B8"/>
<path d="M321.582 0.979492C320.391 0.979492 319.422 1.87658 319.422 2.97976V33.9838C319.422 35.087 320.391 35.9841 321.582 35.9841C322.773 35.9841 323.742 35.087 323.742 33.9838V2.97976C323.742 1.87658 322.773 0.979492 321.582 0.979492Z" fill="#1869B8"/>
<path d="M294.181 202.696L219.422 202.696L219.422 200.696L294.181 200.696C300.675 200.696 305.959 195.803 305.959 189.788V142.979H308.119V189.788C308.119 196.906 301.866 202.696 294.181 202.696Z" fill="#1869B8"/>
<path d="M531.111 186.491L440.291 186.491C435.39 186.491 431.402 182.799 431.402 178.26V95.1832C431.402 90.6445 435.39 86.9521 440.291 86.9521L531.111 86.9521C536.012 86.9521 539.999 90.6445 539.999 95.1832V178.26C539.999 182.799 536.012 186.491 531.111 186.491Z" fill="#E6E6E6"/>
<path d="M457.204 89.4043C444.417 89.4043 434.051 99.0039 434.051 110.846V176.497C434.051 180.662 437.697 184.038 442.194 184.038H497.728C519.611 184.038 537.351 167.611 537.351 147.346V96.9455C537.351 92.7806 533.705 89.4043 529.207 89.4043L457.204 89.4043Z" fill="white"/>
<path d="M510.025 113.547L461.186 113.547C460.254 113.547 459.496 112.845 459.496 111.983C459.496 111.12 460.254 110.418 461.186 110.418L510.025 110.418C510.956 110.418 511.714 111.12 511.714 111.983C511.714 112.845 510.956 113.547 510.025 113.547Z" fill="#E6E6E6"/>
<path d="M510.025 146.916H461.186C460.254 146.916 459.496 146.214 459.496 145.351C459.496 144.488 460.254 143.786 461.186 143.786H510.025C510.956 143.786 511.714 144.488 511.714 145.351C511.714 146.214 510.956 146.916 510.025 146.916Z" fill="#E6E6E6"/>
<path d="M529.857 130.243L441.354 130.243C440.422 130.243 439.664 129.541 439.664 128.678C439.664 127.815 440.422 127.113 441.354 127.113L529.857 127.113C530.789 127.113 531.547 127.815 531.547 128.678C531.547 129.541 530.789 130.243 529.857 130.243Z" fill="#E6E6E6"/>
<path d="M530.76 160.483H498.788C497.856 160.483 497.098 159.781 497.098 158.918C497.098 158.055 497.856 157.354 498.788 157.354H530.76C531.691 157.354 532.449 158.055 532.449 158.918C532.449 159.781 531.691 160.483 530.76 160.483Z" fill="#E6E6E6"/>
<path d="M437.585 237.157C443.55 237.157 448.385 232.679 448.385 227.156C448.385 221.632 443.55 217.154 437.585 217.154C431.621 217.154 426.785 221.632 426.785 227.156C426.785 232.679 431.621 237.157 437.585 237.157Z" fill="#D8ECFF"/>
<path d="M308.222 148.982C314.187 148.982 319.022 144.504 319.022 138.981C319.022 133.457 314.187 128.979 308.222 128.979C302.257 128.979 297.422 133.457 297.422 138.981C297.422 144.504 302.257 148.982 308.222 148.982Z" fill="#1869B8"/>
<path d="M378.222 313.982C384.187 313.982 389.022 309.504 389.022 303.981C389.022 298.457 384.187 293.979 378.222 293.979C372.257 293.979 367.422 298.457 367.422 303.981C367.422 309.504 372.257 313.982 378.222 313.982Z" fill="#D8ECFF"/>
<path d="M342.753 30.8548C350.187 30.8548 356.214 25.3916 356.214 18.6525C356.214 11.9134 350.187 6.4502 342.753 6.4502C335.319 6.4502 329.293 11.9134 329.293 18.6525C329.293 25.3916 335.319 30.8548 342.753 30.8548Z" fill="#F2F2F2"/>
<path d="M450.659 14.4778L378.207 14.4778C375.722 14.4778 373.699 12.6051 373.699 10.3034C373.699 8.00165 375.722 6.12891 378.207 6.12891L450.659 6.12891C453.145 6.12891 455.167 8.00165 455.167 10.3034C455.167 12.6051 453.145 14.4778 450.659 14.4778Z" fill="#F2F2F2"/>
<path d="M507.201 28.6068L378.207 28.6068C375.722 28.6068 373.699 26.734 373.699 24.4323C373.699 22.1305 375.722 20.2578 378.207 20.2578L507.201 20.2578C509.687 20.2578 511.709 22.1305 511.709 24.4323C511.709 26.734 509.687 28.6068 507.201 28.6068Z" fill="#F2F2F2"/>
<path d="M184.645 99.1312C189.456 99.1312 193.356 95.5955 193.356 91.2341C193.356 86.8726 189.456 83.3369 184.645 83.3369C179.834 83.3369 175.934 86.8726 175.934 91.2341C175.934 95.5955 179.834 99.1312 184.645 99.1312Z" fill="#F2F2F2"/>
<path d="M254.479 88.5322L207.589 88.5322C205.981 88.5322 204.672 87.3202 204.672 85.8306C204.672 84.3409 205.981 83.1289 207.589 83.1289L254.479 83.1289C256.088 83.1289 257.397 84.3409 257.397 85.8306C257.397 87.3202 256.088 88.5322 254.479 88.5322Z" fill="#F2F2F2"/>
<path d="M291.073 97.6768L207.589 97.6768C205.981 97.6768 204.672 96.4647 204.672 94.9751C204.672 93.4854 205.981 92.2734 207.589 92.2734L291.073 92.2734C292.681 92.2734 293.99 93.4854 293.99 94.9751C293.99 96.4647 292.681 97.6768 291.073 97.6768Z" fill="#F2F2F2"/>
<path d="M338.582 94.9795H336.422V189.992H338.582V94.9795Z" fill="#E6E6E6"/>
<path d="M321.214 223.996C324.793 223.996 327.694 221.309 327.694 217.995C327.694 214.681 324.793 211.994 321.214 211.994C317.636 211.994 314.734 214.681 314.734 217.995C314.734 221.309 317.636 223.996 321.214 223.996Z" fill="#E6E6E6"/>
<path d="M435.902 293.981C439.481 293.981 442.382 291.294 442.382 287.98C442.382 284.666 439.481 281.979 435.902 281.979C432.323 281.979 429.422 284.666 429.422 287.98C429.422 291.294 432.323 293.981 435.902 293.981Z" fill="#1869B8"/>
<path d="M244.535 210.994C248.114 210.994 251.015 208.307 251.015 204.993C251.015 201.679 248.114 198.992 244.535 198.992C240.956 198.992 238.055 201.679 238.055 204.993C238.055 208.307 240.956 210.994 244.535 210.994Z" fill="#E6E6E6"/>
<path d="M242.141 205.003L206.703 205.996L206.769 207.996L242.207 207.003L242.141 205.003Z" fill="#E6E6E6"/>
<path d="M491.159 311.952H437.422V288.979H439.582V309.952H491.159V311.952Z" fill="#1869B8"/>
<path d="M241.875 276.517C245.453 276.517 248.355 273.831 248.355 270.516C248.355 267.202 245.453 264.516 241.875 264.516C238.296 264.516 235.395 267.202 235.395 270.516C235.395 273.831 238.296 276.517 241.875 276.517Z" fill="#E6E6E6"/>
<path d="M293.952 293.489H240.215V270.517H242.375V291.489H293.952V293.489Z" fill="#E6E6E6"/>
<path d="M464.525 245.979L206.422 245.979V247.98L464.525 247.98V245.979Z" fill="#E6E6E6"/>
<path d="M350.597 390.02H278.48C274.588 390.02 271.422 387.088 271.422 383.484V317.516C271.422 313.911 274.588 310.979 278.48 310.979H350.597C354.489 310.979 357.655 313.911 357.655 317.516V383.484C357.655 387.088 354.489 390.02 350.597 390.02Z" fill="#E6E6E6"/>
<path d="M291.909 312.927C281.755 312.927 273.523 320.549 273.523 329.953V382.084C273.523 385.392 276.419 388.073 279.99 388.073H324.088C341.464 388.073 355.551 375.028 355.551 358.937V318.915C355.551 315.608 352.656 312.927 349.084 312.927L291.909 312.927Z" fill="white"/>
<path d="M333.854 332.097H295.072C294.333 332.097 293.73 331.54 293.73 330.855C293.73 330.17 294.332 329.612 295.072 329.612H333.854C334.593 329.612 335.195 330.17 335.195 330.855C335.195 331.54 334.593 332.097 333.854 332.097Z" fill="#E6E6E6"/>
<path d="M333.854 358.593H295.072C294.333 358.593 293.73 358.036 293.73 357.351C293.73 356.666 294.332 356.108 295.072 356.108H333.854C334.593 356.108 335.195 356.666 335.195 357.351C335.195 358.036 334.593 358.593 333.854 358.593Z" fill="#E6E6E6"/>
<path d="M349.6 345.354H279.322C278.583 345.354 277.98 344.797 277.98 344.112C277.98 343.426 278.582 342.869 279.322 342.869H349.6C350.34 342.869 350.942 343.426 350.942 344.112C350.942 344.797 350.34 345.354 349.6 345.354Z" fill="#E6E6E6"/>
<path d="M350.32 369.368H324.932C324.192 369.368 323.59 368.81 323.59 368.125C323.59 367.44 324.192 366.883 324.932 366.883H350.32C351.06 366.883 351.661 367.44 351.661 368.125C351.661 368.81 351.06 369.368 350.32 369.368Z" fill="#E6E6E6"/>
<path d="M525.454 260.979L355.422 260.979V262.98L525.454 262.98V260.979Z" fill="#D8ECFF"/>
<path d="M71.5814 175.013C69.6617 175.771 67.7015 176.413 65.7104 176.937C63.0804 177.602 61.5955 177.91 59.057 176.889C58.9678 176.853 58.8827 176.817 58.8025 176.782C53.991 174.662 49.8779 171.137 46.964 166.636C44.0502 162.136 42.4611 156.855 42.3903 151.435C42.3776 151.249 42.3776 151.054 42.3776 150.863C42.3751 149.944 42.4175 149.026 42.5045 148.112C42.6158 146.867 42.8079 145.631 43.0796 144.413L43.0542 144.408C40.999 142.229 40.2083 139.245 40.4704 136.247C40.6501 134.214 41.2724 132.249 42.2906 130.502C43.3088 128.755 44.6963 127.27 46.3485 126.159C48.9379 124.471 51.8575 123.403 54.895 123.032C55.7106 122.934 56.531 122.885 57.352 122.884H65.0654C66.6585 122.497 68.2769 122.233 69.9074 122.093H69.9201C85.4442 120.758 97.6867 131.427 96.5449 144.408C96.5364 144.422 96.5238 144.437 96.5153 144.451C96.1855 145.009 95.8937 145.538 95.6357 146.043C95.3862 146.515 95.1748 146.968 94.9929 147.397C93.5763 150.715 100.309 202.194 97.8939 202.976C96.5195 203.419 90.9797 165.112 91.9735 172.397C93.2253 181.535 78.7332 172.272 71.5814 175.013Z" fill="#2F2E41"/>
<path d="M95.1053 268.73L116.422 315.979L34.4219 307.339L51.539 261.979L95.1053 268.73Z" fill="#FFB6B6"/>
<path d="M138.422 364.516C123.989 369.534 108.779 371.662 93.5904 370.788L86.9857 359.6C86.9857 359.6 86.7091 363.767 86.2966 370.137C79.0665 369.262 71.9306 367.682 64.9825 365.417C51.8059 361.113 39.4542 354.444 26.9339 348.295C24.3979 332.504 23.4463 308.154 37.4667 293.979L112.931 308.424C112.931 308.424 125.039 317.883 121.8 321.272C118.561 324.655 118.059 324.131 120.187 326.354C122.316 328.577 126.914 331.549 126.961 333.493C126.98 334.252 132.141 348.015 138.422 364.516Z" fill="#2F2E41"/>
<path d="M82.2411 175.979L64.0129 177.305L52.2313 189.168L48.1051 189.935C44.3962 190.624 41.0589 192.708 38.726 195.79C36.3932 198.873 35.2269 202.74 35.4485 206.659C36.2973 221.643 38.1976 244.031 42.1694 251.295C48.3281 262.557 53.4151 259.024 48.3281 262.557C43.2411 266.091 39.8259 263.315 42.1694 268.899C44.5129 274.484 39.002 281.647 39.002 281.647L36.8083 283.933L39.135 284.927L113.275 294.979C113.275 294.979 106.864 264.945 110.873 257.567C114.882 250.189 124.603 227.887 115.927 219.161L107.445 188.056L92.8539 183.571L82.2411 175.979Z" fill="#1A87EC"/>
<path d="M191.829 298.976C190.62 298.936 189.434 298.625 188.352 298.063C187.27 297.502 186.319 296.704 185.565 295.725C184.81 294.745 184.27 293.608 183.982 292.391C183.693 291.174 183.664 289.907 183.895 288.677L149.422 264.499L153.535 252.979L194.276 282.007C196.246 282.563 197.951 283.849 199.066 285.62C200.182 287.391 200.632 289.525 200.33 291.617C200.029 293.708 198.997 295.613 197.43 296.969C195.863 298.325 193.87 299.039 191.829 298.976Z" fill="#FFB6B6"/>
<path d="M94.4303 186.51L89.4219 188.592L116.139 243.389L171.449 282.979L179.422 268.829L137.32 230.64L120.464 196.693C118.092 191.915 114.118 188.231 109.31 186.35C104.502 184.469 99.2007 184.526 94.4303 186.51Z" fill="#1A87EC"/>
<path d="M71.9219 171.979C82.1391 171.979 90.4219 163.249 90.4219 152.479C90.4219 141.71 82.1391 132.979 71.9219 132.979C61.7046 132.979 53.4219 141.71 53.4219 152.479C53.4219 163.249 61.7046 171.979 71.9219 171.979Z" fill="#FFB6B6"/>
<path d="M87.4219 144.629C87.1191 144.797 86.8205 144.952 86.5176 145.106C86.2022 145.265 85.8868 145.424 85.5672 145.574C79.4898 148.468 74.5396 148.79 71.5367 144.629C71.4545 142.44 70.9853 140.286 70.153 138.277C70.3001 140.522 69.7367 142.755 68.5506 144.629H62.5027C56.2739 148.971 53.0776 152.96 57.4011 167.215C57.6829 168.151 59.6133 201.422 60.1643 203.979C50.735 200.181 42.601 159.847 42.3949 149.219C42.3823 149.046 42.3823 148.865 42.3823 148.689C42.3798 147.837 42.422 146.986 42.5085 146.14C42.6195 144.984 42.8106 143.839 43.0805 142.712L43.0552 142.708C42.0958 141.744 41.3639 140.559 40.9178 139.246C40.4717 137.933 40.3236 136.529 40.4855 135.145C42.0673 132.97 44.0248 131.127 46.2558 129.712C48.2845 128.68 50.399 127.846 52.5729 127.221C52.6275 127.208 52.6738 127.194 52.7285 127.181C53.393 126.991 54.0743 126.819 54.7557 126.669C56.1598 126.359 57.5794 126.134 59.0077 125.993C59.1128 125.988 59.2138 125.979 59.3063 125.979C59.8776 125.98 60.4383 126.142 60.9297 126.448C60.9339 126.448 60.9339 126.452 60.9423 126.452C61.4145 126.748 61.8061 127.167 62.0793 127.669C62.3526 128.17 62.4984 128.737 62.5027 129.315H69.2403C69.4885 129.315 69.7366 129.323 69.9848 129.337C79.3678 129.73 86.9088 133.944 87.3924 143.631C87.4135 143.967 87.4219 144.293 87.4219 144.629Z" fill="#2F2E41"/>
<path d="M47.4219 144.979C54.0493 144.979 59.4219 139.383 59.4219 132.479C59.4219 125.576 54.0493 119.979 47.4219 119.979C40.7945 119.979 35.4219 125.576 35.4219 132.479C35.4219 139.383 40.7945 144.979 47.4219 144.979Z" fill="#2F2E41"/>
<path d="M63.9299 126.584C62.5749 133.256 55.8894 137.247 49.4937 135.614C46.4223 134.831 43.7776 132.816 42.1414 130.013C40.5052 127.211 40.0114 123.851 40.7688 120.672C42.346 114.052 50.108 115.96 55.205 111.641C62.4155 105.53 65.7573 117.585 63.9299 126.584Z" fill="#2F2E41"/>
<path d="M42.2285 316.291C41.0406 315.779 39.9727 315.003 39.0986 314.015C38.2244 313.028 37.5649 311.853 37.1656 310.571C36.7663 309.289 36.6368 307.931 36.786 306.592C36.9352 305.252 37.3595 303.963 38.0297 302.813L12.4219 264.993L20.6371 254.979L50.7393 300.132C52.4982 301.461 53.732 303.422 54.2068 305.643C54.6815 307.864 54.3643 310.191 53.3153 312.183C52.2662 314.175 50.5582 315.693 48.5148 316.45C46.4714 317.207 44.2347 317.151 42.2285 316.291Z" fill="#FFB6B6"/>
<path d="M43.1734 195.896C41.8756 195.096 40.3482 194.806 38.8652 195.08C37.3823 195.354 36.0409 196.172 35.0819 197.388L0.421875 248.179L32.5427 295.979L45.1117 281.834L25.5599 249.642L51.5444 223.72C53.6797 218.818 54.0059 213.261 52.4599 208.123C50.9139 202.984 47.6054 198.628 43.1734 195.896Z" fill="#1A87EC"/>
<path d="M386.19 285.313L386.055 283.317C389.956 283.053 393.868 282.518 397.681 281.728L398.086 283.687C394.184 284.495 390.182 285.042 386.19 285.313ZM374.171 285.136C370.135 284.772 366.146 284.194 362.314 283.418L362.712 281.457C366.472 282.22 370.388 282.787 374.351 283.143L374.171 285.136ZM409.65 280.449L408.979 278.564C412.655 277.257 416.274 275.68 419.739 273.881L420.661 275.656C417.116 277.498 413.411 279.11 409.65 280.449ZM350.728 280.323C346.897 279.038 343.162 277.504 339.627 275.761L340.511 273.968C343.966 275.67 347.617 277.171 351.364 278.427L350.728 280.323ZM329.259 269.701C325.957 267.437 322.799 264.914 319.874 262.2L321.234 260.733C324.088 263.381 327.168 265.843 330.39 268.051L329.259 269.701ZM430.909 269.408L429.753 267.775C432.939 265.521 436 263.027 438.85 260.363L440.215 261.824C437.299 264.55 434.168 267.101 430.909 269.408ZM311.686 253.391C309.198 250.286 306.904 246.955 304.869 243.492L306.593 242.478C308.58 245.859 310.818 249.11 313.247 252.141L311.686 253.391ZM448.413 253.051L446.862 251.787C449.329 248.757 451.609 245.531 453.638 242.201L455.346 243.242C453.27 246.649 450.937 249.949 448.413 253.051ZM299.52 232.737C298.002 229.069 296.711 225.241 295.685 221.358L297.618 220.846C298.622 224.643 299.884 228.387 301.368 231.971L299.52 232.737ZM460.88 232.581L459.046 231.782C460.603 228.204 461.926 224.481 462.978 220.718L464.903 221.257C463.827 225.107 462.474 228.918 460.88 232.581ZM293.377 209.576C292.866 205.624 292.605 201.594 292.602 197.598L294.602 197.596C294.605 201.508 294.86 205.452 295.361 209.32L293.377 209.576ZM467.334 209.497L465.353 209.227C465.877 205.373 466.143 201.433 466.143 197.518L466.142 197.338H468.142L468.143 197.511C468.143 201.523 467.871 205.554 467.334 209.497ZM295.341 185.872L293.356 185.618C293.864 181.644 294.633 177.679 295.643 173.833L297.577 174.341C296.589 178.103 295.837 181.983 295.341 185.872ZM465.329 185.633C464.794 181.763 463.986 177.899 462.93 174.146L464.854 173.604C465.937 177.444 466.762 181.399 467.31 185.359L465.329 185.633ZM301.306 163.211L299.457 162.449C300.986 158.735 302.778 155.115 304.782 151.689L306.509 152.699C304.551 156.045 302.8 159.581 301.306 163.211ZM458.978 163.097C457.417 159.529 455.593 156.031 453.556 152.7L455.262 151.656C457.347 155.065 459.214 158.645 460.811 162.297L458.978 163.097ZM446.766 143.133C444.297 140.112 441.597 137.231 438.74 134.571L440.103 133.107C443.026 135.829 445.789 138.777 448.314 141.867L446.766 143.133ZM313.14 143.028L311.577 141.781C314.075 138.648 316.821 135.681 319.738 132.962L321.102 134.425C318.256 137.078 315.578 139.972 313.14 143.028ZM429.627 127.173C426.432 124.921 423.056 122.871 419.592 121.08L420.511 119.304C424.055 121.137 427.51 123.234 430.779 125.538L429.627 127.173ZM330.24 127.087L329.105 125.44C332.373 123.19 335.856 121.143 339.46 119.357L340.349 121.149C336.83 122.893 333.429 124.891 330.24 127.087ZM351.192 116.666L350.552 114.771C354.266 113.518 358.163 112.47 362.133 111.656L362.535 113.615C358.645 114.412 354.828 115.439 351.192 116.666ZM408.818 116.415C405.139 115.114 401.333 114.056 397.504 113.271L397.906 111.312C401.824 112.116 405.72 113.198 409.485 114.529L408.818 116.415ZM374.169 111.909L373.987 109.918C375.989 109.735 378.047 109.6 380.104 109.519C382.05 109.496 384.067 109.583 386.006 109.71L385.875 111.706C383.98 111.581 382.051 111.518 380.144 111.518C378.16 111.597 376.137 111.73 374.169 111.909Z" fill="#3F3D56"/>
<path d="M313.578 279.34C328.49 279.34 340.578 267.252 340.578 252.34C340.578 237.428 328.49 225.34 313.578 225.34C298.666 225.34 286.578 237.428 286.578 252.34C286.578 267.252 298.666 279.34 313.578 279.34Z" fill="#004385"/>
<path d="M303.012 243.286C303.012 242.45 303.706 241.772 304.564 241.772H322.594C323.451 241.772 324.146 242.45 324.146 243.286V261.393C324.146 262.229 323.451 262.906 322.594 262.906H304.564C303.706 262.906 303.012 262.229 303.012 261.393V243.286ZM309.541 259.464V249.921H306.369V259.464H309.541ZM307.956 248.617C309.061 248.617 309.75 247.885 309.75 246.969C309.73 246.032 309.063 245.32 307.977 245.32C306.891 245.32 306.182 246.034 306.182 246.969C306.182 247.885 306.87 248.617 307.935 248.617H307.956ZM314.439 259.464V254.135C314.439 253.849 314.46 253.564 314.544 253.361C314.773 252.791 315.295 252.201 316.172 252.201C317.319 252.201 317.778 253.075 317.778 254.359V259.464H320.949V253.991C320.949 251.058 319.385 249.695 317.298 249.695C315.616 249.695 314.861 250.62 314.439 251.271V251.304H314.417L314.439 251.271V249.921H311.269C311.308 250.816 311.269 259.464 311.269 259.464H314.439Z" fill="white"/>
<path d="M393.309 137.979C408.22 137.979 420.309 125.891 420.309 110.979C420.309 96.0678 408.22 83.9795 393.309 83.9795C378.397 83.9795 366.309 96.0678 366.309 110.979C366.309 125.891 378.397 137.979 393.309 137.979Z" fill="#004385"/>
<path fill-rule="evenodd" clip-rule="evenodd" d="M393.653 106.088C395.13 104.09 396.763 102.518 398.852 102.518C402.794 102.518 406.041 107.536 406.043 113.511C406.043 117.156 404.474 119.441 401.655 119.441C399.199 119.441 397.843 118.062 395.409 113.991L394.347 112.203L394.159 111.89C393.883 111.422 393.601 110.956 393.316 110.494L391.441 113.804C388.778 118.46 387.278 119.441 385.197 119.441C382.303 119.441 380.574 117.188 380.574 113.617C380.574 107.91 383.75 102.518 387.893 102.518C388.401 102.518 388.888 102.58 389.364 102.712C389.857 102.849 390.336 103.062 390.817 103.36C391.735 103.931 392.654 104.816 393.653 106.088ZM396.066 109.628C395.665 108.975 395.28 108.375 394.909 107.824L394.9 107.812C396.245 105.734 397.356 104.701 398.675 104.701C401.418 104.701 403.612 108.74 403.612 113.699C403.612 115.59 402.992 116.687 401.71 116.687C400.48 116.687 399.893 115.875 397.556 112.119L396.065 109.628H396.066ZM388.288 105.313C389.442 105.472 390.492 106.322 392.012 108.498C391.135 109.841 390.268 111.19 389.41 112.545C387.25 115.929 386.503 116.689 385.302 116.689C384.065 116.689 383.328 115.603 383.328 113.664C383.328 109.523 385.394 105.286 387.858 105.286C388.003 105.286 388.146 105.295 388.288 105.314V105.313Z" fill="white"/>
<path d="M306.422 180.687C321.334 180.687 333.422 168.599 333.422 153.687C333.422 138.776 321.334 126.688 306.422 126.688C291.51 126.688 279.422 138.776 279.422 153.687C279.422 168.599 291.51 180.687 306.422 180.687Z" fill="#65A9ED"/>
<path d="M302.063 163.212C310.91 163.212 315.75 155.881 315.75 149.536C315.75 149.33 315.75 149.122 315.741 148.917C316.683 148.235 317.496 147.391 318.143 146.423C317.262 146.812 316.33 147.067 315.375 147.182C316.381 146.581 317.134 145.635 317.495 144.52C316.55 145.08 315.515 145.473 314.437 145.682C312.617 143.744 309.57 143.648 307.631 145.468C306.38 146.643 305.849 148.396 306.238 150.069C302.37 149.875 298.766 148.049 296.323 145.045C295.05 147.243 295.702 150.053 297.814 151.465C297.052 151.439 296.306 151.235 295.637 150.867V150.933C295.64 153.221 297.251 155.192 299.493 155.648C299.081 155.762 298.654 155.819 298.226 155.817C297.924 155.818 297.623 155.79 297.326 155.733C297.957 157.692 299.763 159.033 301.82 159.07C300.115 160.409 298.01 161.135 295.842 161.131C295.46 161.133 295.078 161.111 294.699 161.065C296.899 162.468 299.454 163.213 302.063 163.212Z" fill="white"/>
<path d="M403.629 309C418.541 309 430.629 296.912 430.629 282C430.629 267.088 418.541 255 403.629 255C388.717 255 376.629 267.088 376.629 282C376.629 296.912 388.717 309 403.629 309Z" fill="#65A9ED"/>
<path d="M403.629 270.484C400.504 270.484 400.111 270.499 398.883 270.553C397.655 270.611 396.819 270.804 396.086 271.089C395.318 271.378 394.621 271.831 394.046 272.418C393.461 272.993 393.007 273.689 392.718 274.457C392.433 275.188 392.239 276.026 392.182 277.25C392.128 278.48 392.113 278.872 392.113 282.001C392.113 285.128 392.128 285.519 392.182 286.747C392.24 287.974 392.433 288.81 392.718 289.542C393.013 290.3 393.406 290.942 394.046 291.582C394.686 292.223 395.328 292.617 396.085 292.911C396.819 293.196 397.654 293.39 398.88 293.446C400.109 293.501 400.501 293.515 403.629 293.515C406.757 293.515 407.147 293.501 408.376 293.446C409.601 293.389 410.44 293.196 411.173 292.911C411.941 292.622 412.636 292.168 413.211 291.582C413.852 290.942 414.245 290.3 414.54 289.542C414.823 288.81 415.018 287.974 415.075 286.747C415.13 285.519 415.144 285.128 415.144 282C415.144 278.872 415.13 278.48 415.075 277.251C415.018 276.026 414.823 275.188 414.54 274.457C414.25 273.689 413.797 272.993 413.211 272.418C412.636 271.831 411.94 271.378 411.171 271.089C410.437 270.804 409.6 270.61 408.375 270.553C407.145 270.499 406.755 270.484 403.626 270.484H403.629ZM402.597 272.56H403.63C406.705 272.56 407.069 272.57 408.282 272.626C409.405 272.677 410.016 272.865 410.421 273.022C410.958 273.231 411.343 273.481 411.746 273.884C412.149 274.287 412.398 274.67 412.606 275.209C412.765 275.613 412.952 276.223 413.002 277.346C413.058 278.56 413.07 278.924 413.07 281.997C413.07 285.07 413.058 285.436 413.002 286.649C412.952 287.772 412.763 288.381 412.606 288.787C412.422 289.287 412.127 289.739 411.744 290.11C411.341 290.513 410.958 290.762 410.42 290.97C410.017 291.129 409.407 291.316 408.282 291.368C407.069 291.422 406.705 291.435 403.63 291.435C400.556 291.435 400.19 291.422 398.977 291.368C397.854 291.316 397.245 291.129 396.839 290.97C396.339 290.786 395.886 290.492 395.515 290.11C395.131 289.738 394.836 289.286 394.651 288.785C394.494 288.381 394.306 287.771 394.255 286.648C394.2 285.434 394.189 285.07 394.189 281.994C394.189 278.919 394.2 278.557 394.255 277.343C394.307 276.221 394.494 275.61 394.652 275.204C394.861 274.667 395.112 274.283 395.515 273.88C395.918 273.477 396.301 273.228 396.839 273.019C397.245 272.861 397.854 272.674 398.977 272.622C400.039 272.573 400.45 272.559 402.597 272.557L402.597 272.56ZM409.777 274.472C409.013 274.472 408.395 275.09 408.395 275.853C408.395 276.617 409.013 277.235 409.777 277.235C410.54 277.235 411.158 276.617 411.158 275.853C411.158 275.09 410.54 274.472 409.777 274.472ZM403.63 276.087C400.364 276.036 397.675 278.642 397.624 281.908C397.573 285.174 400.179 287.863 403.446 287.914C403.507 287.915 403.569 287.915 403.63 287.914C406.896 287.863 409.503 285.174 409.452 281.908C409.402 278.714 406.825 276.136 403.63 276.087ZM403.63 278.161C405.75 278.16 407.47 279.878 407.471 281.998C407.472 284.118 405.754 285.838 403.633 285.839H403.63C401.51 285.839 399.791 284.12 399.791 282C399.791 279.88 401.51 278.161 403.63 278.161Z" fill="white"/>
<path d="M75.4113 308.081L100.969 206.768C101.488 204.718 102.797 202.957 104.606 201.871C106.416 200.785 108.58 200.464 110.623 200.976L186.823 220.201C188.864 220.718 190.616 222.028 191.695 223.842C192.773 225.656 193.089 227.827 192.574 229.878L167.017 331.191C166.497 333.241 165.189 335.002 163.379 336.088C161.569 337.174 159.406 337.495 157.363 336.983L81.1629 317.758C79.1213 317.241 77.3692 315.931 76.291 314.117C75.2127 312.303 74.8964 310.132 75.4113 308.081Z" fill="#E6E6E6"/>
<path d="M88.9026 279.02L105.398 213.627C105.887 211.7 107.114 210.043 108.811 209.021C110.508 207.999 112.536 207.695 114.45 208.176L179.967 224.706C181.88 225.191 183.521 226.42 184.53 228.125C185.54 229.83 185.834 231.87 185.35 233.799L162.518 324.313C162.029 326.24 160.802 327.897 159.105 328.919C157.408 329.941 155.38 330.245 153.466 329.764L112.879 319.524C104.358 317.364 97.0488 311.887 92.5539 304.293C88.059 296.7 86.7458 287.611 88.9026 279.02Z" fill="white"/>
<path d="M162.232 251.702L111.16 238.968C110.347 238.765 109.652 238.233 109.228 237.488C108.803 236.744 108.683 235.847 108.896 234.997C109.108 234.146 109.634 233.411 110.359 232.952C111.083 232.494 111.947 232.35 112.76 232.553L163.832 245.287C164.644 245.489 165.34 246.022 165.764 246.767C166.189 247.511 166.308 248.408 166.096 249.258C165.884 250.109 165.358 250.844 164.633 251.303C163.909 251.761 163.045 251.904 162.232 251.702Z" fill="#4370FF"/>
<path d="M127.527 229.503L116.112 226.657C115.286 226.451 114.572 225.944 114.125 225.247C113.679 224.55 113.537 223.72 113.732 222.94C113.926 222.16 114.441 221.494 115.162 221.089C115.883 220.683 116.752 220.57 117.578 220.776L128.993 223.622C129.819 223.828 130.533 224.335 130.98 225.032C131.426 225.729 131.568 226.559 131.373 227.339C131.179 228.119 130.664 228.785 129.943 229.19C129.222 229.596 128.353 229.709 127.527 229.503Z" fill="#4370FF"/>
<path d="M158.522 265.064L107.45 252.33C106.637 252.127 105.935 251.623 105.498 250.929C105.06 250.234 104.924 249.406 105.118 248.626C105.313 247.846 105.822 247.179 106.534 246.771C107.247 246.362 108.103 246.247 108.916 246.45L159.988 259.183C160.801 259.386 161.503 259.89 161.94 260.585C162.377 261.279 162.514 262.108 162.319 262.888C162.125 263.667 161.616 264.335 160.903 264.743C160.191 265.151 159.335 265.266 158.522 265.064Z" fill="#4370FF"/>
<path d="M155.069 278.715L103.997 265.981C103.184 265.779 102.482 265.275 102.045 264.58C101.607 263.885 101.471 263.057 101.665 262.277C101.86 261.497 102.369 260.83 103.081 260.422C103.793 260.014 104.65 259.898 105.463 260.101L156.535 272.835C157.348 273.037 158.05 273.541 158.487 274.236C158.924 274.931 159.061 275.759 158.866 276.539C158.672 277.319 158.162 277.986 157.45 278.394C156.738 278.802 155.881 278.918 155.069 278.715Z" fill="#4370FF"/>
<path d="M144.633 315.643C151.424 317.336 158.301 313.204 159.994 306.413C161.687 299.622 157.555 292.745 150.764 291.052C143.974 289.359 137.096 293.491 135.403 300.282C133.71 307.072 137.842 313.95 144.633 315.643Z" fill="#4370FF"/>
<path d="M144.417 309.344C144.204 309.291 144.007 309.189 143.84 309.047C143.674 308.904 143.543 308.725 143.458 308.522L141.213 303.202C141.141 303.031 141.103 302.847 141.102 302.662C141.1 302.476 141.136 302.292 141.205 302.12C141.275 301.948 141.378 301.791 141.509 301.659C141.639 301.527 141.794 301.422 141.965 301.35C142.136 301.278 142.32 301.24 142.506 301.239C142.691 301.238 142.875 301.273 143.047 301.343C143.219 301.413 143.376 301.517 143.508 301.647C143.64 301.778 143.745 301.933 143.817 302.104L145.285 305.585L153.046 298.52C153.183 298.395 153.344 298.297 153.519 298.234C153.693 298.17 153.879 298.142 154.064 298.151C154.25 298.159 154.432 298.204 154.601 298.283C154.769 298.362 154.92 298.473 155.045 298.611C155.17 298.748 155.267 298.909 155.33 299.084C155.393 299.259 155.42 299.445 155.411 299.63C155.402 299.816 155.357 299.998 155.277 300.166C155.198 300.334 155.086 300.485 154.948 300.609L145.71 309.018C145.543 309.17 145.342 309.28 145.124 309.338C144.905 309.397 144.676 309.402 144.455 309.353C144.443 309.35 144.43 309.347 144.417 309.344Z" fill="white"/>
</svg>
