<svg width="34" height="33" viewBox="0 0 34 33" fill="none" xmlns="http://www.w3.org/2000/svg">
<rect width="33.825" height="33" rx="16.5" fill="#4DA2F1"/>
<path d="M27.9856 7.62229C28.0911 8.34526 27.5905 9.01683 26.8675 9.12228C26.7904 9.13353 26.7125 9.13794 26.6346 9.13547L22.0955 18.7938L20.6719 16.8085L25.3446 7.67576C25.4164 6.9447 26.0672 6.41026 26.7982 6.48205C27.41 6.54212 27.9008 7.01352 27.9856 7.62229Z" fill="#D1AAB0"/>
<path d="M12.9215 20.747C12.9215 20.747 12.7998 22.4343 14.708 22.7652C16.6162 23.0962 21.7174 19.8704 22.5552 19.3751C23.393 18.8798 24.9542 12.648 24.9542 12.648L23.5964 10.3516C21.9201 12.4721 20.6037 14.4274 20.5238 15.8154L12.9215 20.747Z" fill="#B14949"/>
<path d="M14.2078 15.348L16.8117 15.1943C17.0368 15.181 17.2455 15.312 17.3315 15.5204L18.0673 17.3043L21.1256 19.832C21.1256 19.832 22.3365 21.3729 22.3393 23.3628C22.3421 25.3528 22.7689 29.9589 22.7689 29.9589C22.7689 29.9589 21.0017 27.4714 19.911 28.133C19.7254 28.2455 19.6601 28.4757 19.4658 28.592C19.3688 28.6501 19.1448 28.5937 19.0469 28.6518C17.5439 29.544 15.9764 30.4157 15.8299 30.2629C15.5423 29.9628 15.1935 28.4293 15.1935 28.4293L12.81 19.6718C12.5483 18.7388 12.7175 17.7377 13.2712 16.9425C13.4377 16.708 13.6122 16.5336 13.7743 16.5048C14.1384 16.4273 13.9447 15.6113 14.2078 15.348Z" fill="#7F1F1F"/>
<path d="M14.6643 17.7296C14.6643 17.7296 13.2857 16.7492 12.0117 18.2078C10.7376 19.6664 10.844 25.701 10.8321 26.6742C10.8283 26.9789 11.2683 27.6364 11.8746 28.396C12.1468 28.7369 12.4525 29.0985 12.7665 29.4579C12.9483 29.6658 12.7917 30.0987 12.9742 30.3009C13.1557 30.5019 13.6763 30.4722 13.8489 30.6588C14.6683 31.5445 15.334 32.2186 15.334 32.2186L18.0016 32.2514C18.0317 30.2684 16.6737 28.4983 14.9291 26.7875L14.6643 17.7296Z" fill="#B13636"/>
<path d="M11.9753 9.09526C11.7228 9.27755 11.4571 9.46534 11.1489 9.51051C10.8407 9.55568 10.4799 9.4067 10.3946 9.10714C10.2904 8.74086 10.6211 8.40736 10.9184 8.16932L11.861 7.41449C12.0336 7.2614 12.2285 7.13541 12.439 7.04082C12.6531 6.9466 12.8984 6.9548 13.1058 7.06311C13.3118 7.20222 13.4309 7.4382 13.4205 7.68656C13.4071 7.93135 13.3263 8.16768 13.187 8.36948C12.8335 8.92062 12.2702 9.30351 11.6276 9.42953" fill="#2F2E41"/>
<path d="M12.3929 7.18378C12.4204 6.50058 11.6924 5.95961 11.0102 6.00237C10.328 6.04514 9.74152 6.525 9.35463 7.08874C8.96787 7.652 8.73553 8.30441 8.43084 8.91597C8.12614 9.52754 7.72038 10.1263 7.11491 10.4433C6.50955 10.7597 5.6669 10.7032 5.24848 10.1629C4.98461 10.5631 4.92722 11.065 5.09396 11.5144C5.26525 11.958 5.5847 12.3287 5.99813 12.5635C6.16269 12.6611 6.33847 12.7384 6.52163 12.7937C6.59714 12.5899 6.7034 12.3988 6.8367 12.2271C6.77649 12.4304 6.75351 12.6429 6.76886 12.8543C7.05115 12.9084 7.34156 12.9039 7.62202 12.8409C8.18042 12.716 8.6473 12.3352 8.88196 11.8133C9.13784 11.2076 9.00751 10.5171 9.06224 9.86185C9.11649 9.20653 9.51138 8.45843 10.1689 8.44775C10.6697 8.43951 10.6034 8.4808 10.9207 8.86824" fill="#2F2E41"/>
<path d="M16.9397 10.7739C16.9397 12.4095 15.6139 13.7354 13.9783 13.7354C12.3427 13.7354 10.7891 11.84 10.7891 10.2044C10.7891 8.56887 12.3427 7.8125 13.9783 7.8125C15.6139 7.8125 16.9397 9.13838 16.9397 10.7739Z" fill="#2F2E41"/>
<path d="M15.4379 14.3231C16.9666 14.0103 17.9523 12.5174 17.6395 10.9887C17.3267 9.46002 15.8338 8.47433 14.3051 8.78713C12.7764 9.09994 11.7907 10.5928 12.1035 12.1215C12.4163 13.6502 13.9091 14.6359 15.4379 14.3231Z" fill="#D1AAB0"/>
<path d="M18.4192 11.1155C17.5828 11.3438 16.7384 11.5832 16.4123 11.1155C16.3489 10.8053 16.2288 10.5095 16.058 10.243C16.0259 10.5415 15.9559 10.8347 15.8496 11.1155C14.7929 11.3451 13.8053 11.4001 12.9519 11.1155C12.8346 11.3277 12.7665 11.5636 12.7526 11.8057C12.7104 11.7792 12.6662 11.756 12.6205 11.7362C12.5656 11.7052 12.5 11.6994 12.4405 11.7203C12.3994 11.7451 12.3721 11.7876 12.3665 11.8353C12.3608 11.8828 12.3631 11.931 12.3733 11.9777C12.3853 12.1406 12.434 12.2987 12.5157 12.4401C12.5811 12.5386 12.6848 12.6052 12.8016 12.6235C12.9201 13.2898 13.8632 14.1908 13.8632 14.1908C11.0156 14.3047 11.0156 12.3729 11.0156 10.546L11.3573 9.86255H12.4963V8.38184H15.6856C17.1952 8.38223 18.4188 9.60589 18.4192 11.1155Z" fill="#2F2E41"/>
</svg>
