<svg width="34" height="33" viewBox="0 0 34 33" fill="none" xmlns="http://www.w3.org/2000/svg">
<rect width="33.825" height="33" rx="16.5" fill="#4DA2F1"/>
<path d="M15.9148 10.0549L17.5998 9.95996L18.8697 10.6587L22.4009 30.8154C22.4009 30.8154 18.7911 32.4972 16.554 31.853C14.3168 31.2087 11.9609 31.245 11.9609 31.245L13.6777 11.9878L15.0626 10.6992L15.9148 10.0549Z" fill="#E6E6E6"/>
<path d="M18.3889 9.95996L21.5486 11.0822C22.0338 11.1028 22.4967 11.2656 22.8618 11.5442C23.227 11.8228 23.473 12.2006 23.5598 12.6163L23.3501 18.0437L22.2105 20.6256L23.0232 26.5073L22.5977 27.2481L22.9654 28.0043C22.4257 28.7663 22.5355 29.7648 22.8558 30.84H22.4687L21.6943 30.7277C21.6943 30.7277 19.9895 31.2425 19.6403 29.3937C18.726 24.5542 18.2098 26.6869 18.2098 26.6869L17.7598 11.6715L18.3889 9.95996Z" fill="#3F3D56"/>
<path d="M15.4388 9.95996L12.6792 12.6958C12.2256 12.7167 11.7928 12.8822 11.4514 13.1654C11.1099 13.4486 10.8799 13.8327 10.7988 14.2552L11.9396 22.739L11.4042 25.9943L11.6983 26.7324L11.4854 27.5668L11.819 28.3298L11.5777 29.3567L11.9396 30.84L13.7496 30.3836L13.7357 29.1671L14.2184 12.6228L15.4388 9.95996Z" fill="#3F3D56"/>
<path d="M11.1333 13.7136C10.5163 14.0167 8.99221 21.7762 8.5449 21.9407C8.09758 22.1052 8.26837 22.0805 8.20561 22.2179C8.14286 22.3552 8.12768 22.9702 7.69825 23.0424C7.26883 23.1145 5 25.3176 5 25.3176L5.57512 27.3595C5.57512 27.3595 9.94108 24.7028 11.1449 23.2317C12.3487 21.7606 12.9969 14.195 12.9969 14.195L13.12 13.4403C13.12 13.4403 11.7503 13.4105 11.1333 13.7136Z" fill="#3F3D56"/>
<path d="M21.4653 22.7197L18.3746 25.8012C18.244 25.8272 18.1222 25.8884 18.0216 25.9788C17.921 26.0692 17.8451 26.1855 17.8015 26.316C17.758 26.4465 17.7483 26.5866 17.7735 26.7223C17.7986 26.8579 17.8578 26.9842 17.9449 27.0886C18.0321 27.193 18.1442 27.2716 18.27 27.3167C18.3957 27.3618 18.5307 27.3716 18.6613 27.3453C18.7919 27.319 18.9135 27.2575 19.0139 27.1668C19.1143 27.0762 19.1899 26.9597 19.2332 26.8291L23.5598 23.5691L21.4653 22.7197Z" fill="#FFB6B6"/>
<path d="M22.1503 14.3611C21.5259 14.7435 23.8986 20.2911 23.4381 20.5148C22.9777 20.7385 23.1588 20.6901 23.1103 20.8324C23.0617 20.9747 23.1316 21.5739 22.6775 21.7054C22.2235 21.8369 20.0801 24.3001 20.0801 24.3001L20.9883 26.2003C20.9883 26.2003 25.335 22.9968 26.4299 21.3964C27.5247 19.796 26.8122 19.2556 26.8122 19.2556C25.4539 16.4959 24.1835 11.9953 22.264 12.2945C22.264 12.2945 22.7747 13.9786 22.1503 14.3611Z" fill="#3F3D56"/>
<path d="M16.0191 9.96016C17.6208 9.96016 18.9191 8.66179 18.9191 7.06016C18.9191 5.45853 17.6208 4.16016 16.0191 4.16016C14.4175 4.16016 13.1191 5.45853 13.1191 7.06016C13.1191 8.66179 14.4175 9.96016 16.0191 9.96016Z" fill="#FFB6B6"/>
<path d="M19.5151 8.51566C19.5151 8.51566 18.7551 8.69832 18.3127 8.80001C18.3356 8.51154 18.4781 8.24149 18.5505 7.95929C18.6229 7.67708 18.6072 7.34519 18.3679 7.14594C18.1286 6.94668 17.6302 7.02431 17.5917 7.31102C17.3893 6.93163 17.1864 6.55154 16.9831 6.17076C16.4035 7.21638 15.2185 6.32533 13.9265 6.58953C13.2674 6.72561 12.4413 6.66716 12.093 6.15813C12.2887 6.01418 12.4536 5.84082 12.5799 5.64619C12.3791 5.69784 12.1701 5.72104 11.9609 5.71492C11.9657 5.53284 12.0203 5.35444 12.1202 5.19471C12.22 5.03498 12.3622 4.89861 12.5347 4.79706C12.7205 4.69058 12.2605 4.31169 12.4227 4.17831C12.7554 3.9061 12.9786 4.09095 13.1751 3.73214C13.3018 3.51026 13.497 3.32401 13.7386 3.19458C13.9801 3.06516 14.2582 2.99776 14.5413 3.00006C15.1061 3.01165 16.1181 3.00687 16.3372 3.46289C17.0355 3.06223 18.0076 3.17543 18.6902 3.59574C19.2576 3.94373 19.9033 4.99562 20.0458 5.58943C20.1883 6.18322 19.8743 7.99815 19.5151 8.51566Z" fill="#2F2E41"/>
<path d="M21.1523 10.7998C21.0756 10.7146 20.955 10.6539 20.8161 10.6306C20.6772 10.6073 20.531 10.6232 20.4084 10.6749C20.5893 10.4968 20.453 10.1925 20.1693 10.0695C19.8479 9.93011 19.4419 9.9532 19.0671 9.98091L15.9945 10.2082C15.6402 10.2344 15.2761 10.2626 14.9607 10.3799C14.6454 10.4971 14.3859 10.726 14.4041 10.9779C14.1633 10.9153 13.9061 10.8906 13.6504 10.9055C13.3979 10.9337 13.1488 11.0644 13.1218 11.2444C13.0786 11.5333 13.5633 11.7002 13.9581 11.7794C14.6911 11.9264 15.4241 12.0735 16.1571 12.2206L15.9311 12.2548C17.3735 12.344 18.8256 12.1953 20.1731 11.8202C20.4819 11.734 20.7946 11.6308 21.0108 11.4524C21.2271 11.2741 21.3214 11.0021 21.1523 10.7998Z" fill="#E6E6E6"/>
</svg>
