<svg width="19" height="19" viewBox="0 0 19 19" fill="none" xmlns="http://www.w3.org/2000/svg">
<g clip-path="url(#clip0_1868_3959)">
<path d="M10.3383 2.599C10.1157 2.37662 9.81385 2.25171 9.49916 2.25171C9.18447 2.25171 8.88265 2.37662 8.66 2.599L4.17995 7.07666C3.95718 7.29943 3.83203 7.60158 3.83203 7.91662C3.83203 8.23167 3.95718 8.53381 4.17995 8.75658C4.40272 8.97935 4.70487 9.1045 5.01991 9.1045C5.33496 9.1045 5.6371 8.97935 5.85987 8.75658L8.31166 6.30558V15.4375C8.31166 15.7524 8.43677 16.0544 8.65947 16.2771C8.88217 16.4998 9.18422 16.625 9.49916 16.625C9.81411 16.625 10.1162 16.4998 10.3389 16.2771C10.5616 16.0544 10.6867 15.7524 10.6867 15.4375V6.30558L13.1377 8.75658C13.248 8.86689 13.3789 8.95438 13.523 9.01408C13.6672 9.07378 13.8216 9.1045 13.9776 9.1045C14.1336 9.1045 14.2881 9.07378 14.4322 9.01408C14.5763 8.95438 14.7073 8.86689 14.8176 8.75658C14.9279 8.64628 15.0154 8.51532 15.0751 8.3712C15.1348 8.22708 15.1655 8.07262 15.1655 7.91662C15.1655 7.76063 15.1348 7.60616 15.0751 7.46204C15.0154 7.31792 14.9279 7.18697 14.8176 7.07666L10.3383 2.599Z" fill="#944CFF"/>
</g>
<defs>
<clipPath id="clip0_1868_3959">
<rect width="19" height="19" fill="white"/>
</clipPath>
</defs>
</svg>
