<svg width="614" height="390" viewBox="0 0 614 390" fill="none" xmlns="http://www.w3.org/2000/svg">
<path d="M587 20H28V306H587V20Z" fill="#2563EB" fill-opacity="0.05" stroke="#2563EB" stroke-width="2"/>
<path d="M33 15H23V25H33V15Z" fill="white" stroke="#2563EB" stroke-width="2"/>
<path d="M33 301H23V311H33V301Z" fill="white" stroke="#2563EB" stroke-width="2"/>
<path d="M592 301H582V311H592V301Z" fill="white" stroke="#2563EB" stroke-width="2"/>
<path d="M592 15H582V25H592V15Z" fill="white" stroke="#2563EB" stroke-width="2"/>
<path d="M453.383 343L448 317L471 331L459.745 333.5L453.383 343Z" fill="#2563EB" stroke="white" stroke-width="2"/>
<path d="M587.002 343H469.934V376H587.002V343Z" fill="#2563EB"/>
<path d="M495.882 356.16C495.882 355.553 496.059 355.077 496.414 354.732C496.769 354.377 497.268 354.2 497.912 354.2H500.446C501.799 354.2 502.817 354.471 503.498 355.012C504.189 355.553 504.534 356.351 504.534 357.406C504.534 358.405 504.231 359.179 503.624 359.73C503.017 360.281 502.177 360.556 501.104 360.556L503.428 362.908C503.577 363.057 503.652 363.221 503.652 363.398C503.652 363.594 503.559 363.771 503.372 363.93C503.195 364.061 503.022 364.126 502.854 364.126C502.621 364.126 502.397 364.014 502.182 363.79L499.102 360.598H497.52V363.384C497.52 363.617 497.441 363.804 497.282 363.944C497.133 364.075 496.937 364.14 496.694 364.14C496.442 364.14 496.241 364.075 496.092 363.944C495.952 363.804 495.882 363.617 495.882 363.384V356.16ZM500.432 359.31C501.328 359.31 501.958 359.17 502.322 358.89C502.695 358.601 502.882 358.106 502.882 357.406C502.882 356.725 502.681 356.235 502.28 355.936C501.879 355.637 501.263 355.488 500.432 355.488H498.15C497.954 355.488 497.8 355.553 497.688 355.684C497.576 355.805 497.52 355.978 497.52 356.202V359.31H500.432ZM508.384 364.14C507.497 364.14 506.788 363.93 506.256 363.51C505.724 363.09 505.458 362.53 505.458 361.83C505.458 361.139 505.738 360.589 506.298 360.178C506.867 359.767 507.633 359.562 508.594 359.562C509.527 359.562 510.255 359.777 510.778 360.206V359.674C510.778 359.207 510.629 358.853 510.33 358.61C510.041 358.358 509.611 358.232 509.042 358.232C508.239 358.232 507.549 358.409 506.97 358.764C506.774 358.876 506.597 358.932 506.438 358.932C506.27 358.932 506.116 358.857 505.976 358.708C505.883 358.605 505.836 358.484 505.836 358.344C505.836 358.12 505.934 357.943 506.13 357.812C506.466 357.56 506.891 357.364 507.404 357.224C507.917 357.075 508.454 357 509.014 357C510.069 357 510.895 357.238 511.492 357.714C512.089 358.19 512.388 358.848 512.388 359.688V363.44C512.388 363.655 512.318 363.827 512.178 363.958C512.038 364.079 511.847 364.14 511.604 364.14C511.361 364.14 511.17 364.079 511.03 363.958C510.899 363.837 510.834 363.669 510.834 363.454V363.188C510.283 363.823 509.467 364.14 508.384 364.14ZM508.72 362.992C509.355 362.992 509.859 362.889 510.232 362.684C510.605 362.469 510.792 362.18 510.792 361.816C510.792 361.461 510.61 361.181 510.246 360.976C509.882 360.771 509.383 360.668 508.748 360.668C508.197 360.668 507.768 360.771 507.46 360.976C507.161 361.181 507.012 361.466 507.012 361.83C507.012 362.203 507.157 362.493 507.446 362.698C507.745 362.894 508.169 362.992 508.72 362.992ZM518.919 362.334C519.059 362.446 519.129 362.577 519.129 362.726C519.129 362.885 519.068 363.043 518.947 363.202C518.751 363.491 518.471 363.72 518.107 363.888C517.743 364.056 517.341 364.14 516.903 364.14C516.203 364.14 515.652 363.944 515.251 363.552C514.849 363.16 514.649 362.623 514.649 361.942V358.386H514.019C513.767 358.386 513.566 358.33 513.417 358.218C513.277 358.106 513.207 357.957 513.207 357.77C513.207 357.574 513.277 357.42 513.417 357.308C513.566 357.196 513.767 357.14 514.019 357.14H514.649V354.928C514.649 354.695 514.719 354.513 514.859 354.382C514.999 354.251 515.19 354.186 515.433 354.186C515.675 354.186 515.867 354.251 516.007 354.382C516.147 354.513 516.217 354.695 516.217 354.928V357.14H517.743C517.985 357.14 518.177 357.196 518.317 357.308C518.466 357.42 518.541 357.574 518.541 357.77C518.541 357.957 518.471 358.106 518.331 358.218C518.191 358.33 517.995 358.386 517.743 358.386H516.217V362.068C516.217 362.32 516.287 362.521 516.427 362.67C516.567 362.81 516.763 362.88 517.015 362.88C517.36 362.88 517.668 362.745 517.939 362.474C518.153 362.278 518.349 362.18 518.527 362.18C518.676 362.18 518.807 362.231 518.919 362.334ZM521.319 355.922C521.02 355.922 520.773 355.838 520.577 355.67C520.39 355.493 520.297 355.269 520.297 354.998C520.297 354.727 520.39 354.508 520.577 354.34C520.773 354.163 521.02 354.074 521.319 354.074C521.618 354.074 521.865 354.163 522.061 354.34C522.257 354.508 522.355 354.727 522.355 354.998C522.355 355.269 522.257 355.493 522.061 355.67C521.865 355.838 521.618 355.922 521.319 355.922ZM521.319 364.14C521.076 364.14 520.885 364.075 520.745 363.944C520.614 363.813 520.549 363.631 520.549 363.398V357.742C520.549 357.509 520.614 357.327 520.745 357.196C520.885 357.065 521.076 357 521.319 357C521.562 357 521.753 357.065 521.893 357.196C522.042 357.327 522.117 357.509 522.117 357.742V363.398C522.117 363.631 522.042 363.813 521.893 363.944C521.753 364.075 521.562 364.14 521.319 364.14ZM529.059 354.214C529.246 354.345 529.339 354.503 529.339 354.69C529.339 354.821 529.297 354.942 529.213 355.054C529.073 355.25 528.915 355.348 528.737 355.348C528.635 355.348 528.495 355.311 528.317 355.236C527.963 355.059 527.603 354.97 527.239 354.97C526.95 354.97 526.721 355.059 526.553 355.236C526.395 355.404 526.315 355.642 526.315 355.95V357.14H528.051C528.294 357.14 528.485 357.196 528.625 357.308C528.775 357.42 528.849 357.574 528.849 357.77C528.849 357.957 528.775 358.106 528.625 358.218C528.485 358.33 528.294 358.386 528.051 358.386H526.315V363.398C526.315 363.631 526.245 363.813 526.105 363.944C525.965 364.075 525.774 364.14 525.531 364.14C525.289 364.14 525.097 364.075 524.957 363.944C524.817 363.813 524.747 363.631 524.747 363.398V358.386H524.313C524.071 358.386 523.875 358.33 523.725 358.218C523.585 358.106 523.515 357.957 523.515 357.77C523.515 357.574 523.585 357.42 523.725 357.308C523.865 357.196 524.061 357.14 524.313 357.14H524.747V356.006C524.747 355.315 524.962 354.76 525.391 354.34C525.821 353.92 526.385 353.71 527.085 353.71C527.524 353.71 527.902 353.752 528.219 353.836C528.537 353.911 528.817 354.037 529.059 354.214ZM532.94 367.5C532.259 367.5 531.638 367.393 531.078 367.178C530.528 366.973 530.112 366.688 529.832 366.324C529.73 366.175 529.678 366.035 529.678 365.904C529.678 365.699 529.776 365.517 529.972 365.358C530.094 365.274 530.224 365.232 530.364 365.232C530.598 365.232 530.808 365.339 530.994 365.554C531.2 365.778 531.466 365.951 531.792 366.072C532.128 366.193 532.497 366.254 532.898 366.254C533.617 366.254 534.172 366.053 534.564 365.652C534.956 365.251 535.152 364.681 535.152 363.944V363.23C534.91 363.501 534.597 363.715 534.214 363.874C533.832 364.033 533.44 364.112 533.038 364.112C531.881 364.112 530.976 363.799 530.322 363.174C529.678 362.539 529.356 361.657 529.356 360.528V357.7C529.356 357.504 529.431 357.341 529.58 357.21C529.73 357.07 529.921 357 530.154 357C530.369 357 530.551 357.07 530.7 357.21C530.85 357.341 530.924 357.504 530.924 357.7V360.528C530.924 361.275 531.111 361.858 531.484 362.278C531.858 362.689 532.376 362.894 533.038 362.894C533.682 362.894 534.182 362.693 534.536 362.292C534.9 361.881 535.082 361.307 535.082 360.57V357.84C535.082 357.579 535.152 357.373 535.292 357.224C535.432 357.075 535.628 357 535.88 357C536.132 357 536.328 357.075 536.468 357.224C536.608 357.373 536.678 357.579 536.678 357.84V363.762C536.678 364.919 536.342 365.829 535.67 366.492C535.008 367.164 534.098 367.5 532.94 367.5ZM539.076 364.14C538.833 364.14 538.637 364.075 538.488 363.944C538.348 363.813 538.278 363.631 538.278 363.398V357.434C538.278 356.379 538.577 355.553 539.174 354.956C539.781 354.359 540.607 354.06 541.652 354.06C542.184 354.06 542.683 354.195 543.15 354.466C543.626 354.737 544.013 355.11 544.312 355.586C544.611 355.101 544.993 354.727 545.46 354.466C545.927 354.195 546.44 354.06 547 354.06C548.055 354.06 548.876 354.359 549.464 354.956C550.061 355.553 550.36 356.379 550.36 357.434V363.398C550.36 363.622 550.285 363.804 550.136 363.944C549.996 364.075 549.805 364.14 549.562 364.14C549.319 364.14 549.123 364.075 548.974 363.944C548.834 363.813 548.764 363.631 548.764 363.398V357.434C548.764 356.715 548.619 356.188 548.33 355.852C548.05 355.516 547.588 355.348 546.944 355.348C546.356 355.348 545.903 355.53 545.586 355.894C545.269 356.258 545.11 356.771 545.11 357.434V363.398C545.11 363.631 545.035 363.813 544.886 363.944C544.746 364.075 544.555 364.14 544.312 364.14C544.069 364.14 543.878 364.075 543.738 363.944C543.607 363.813 543.542 363.631 543.542 363.398V357.434C543.542 356.781 543.379 356.272 543.052 355.908C542.725 355.535 542.277 355.348 541.708 355.348C541.055 355.348 540.583 355.516 540.294 355.852C540.014 356.188 539.874 356.715 539.874 357.434V363.398C539.874 363.622 539.799 363.804 539.65 363.944C539.51 364.075 539.319 364.14 539.076 364.14ZM554.228 364C553.566 364 553.048 363.827 552.674 363.482C552.31 363.127 552.128 362.637 552.128 362.012V356.146C552.128 355.539 552.306 355.063 552.66 354.718C553.015 354.373 553.51 354.2 554.144 354.2H558.498C558.741 354.2 558.928 354.256 559.058 354.368C559.189 354.471 559.254 354.625 559.254 354.83C559.254 355.026 559.189 355.18 559.058 355.292C558.928 355.395 558.741 355.446 558.498 355.446H554.368C554.163 355.446 554.004 355.511 553.892 355.642C553.78 355.773 553.724 355.95 553.724 356.174V358.372H557.434C557.677 358.372 557.864 358.428 557.994 358.54C558.125 358.643 558.19 358.797 558.19 359.002C558.19 359.198 558.125 359.352 557.994 359.464C557.864 359.567 557.677 359.618 557.434 359.618H553.724V362.026C553.724 362.25 553.78 362.427 553.892 362.558C554.004 362.689 554.163 362.754 554.368 362.754H558.806C559.049 362.754 559.236 362.81 559.366 362.922C559.497 363.025 559.562 363.179 559.562 363.384C559.562 363.58 559.497 363.734 559.366 363.846C559.236 363.949 559.049 364 558.806 364H554.228Z" fill="white"/>
<path d="M69.0137 112.43C66.0238 112.43 63.4188 111.812 61.1987 110.577C58.9787 109.341 57.251 107.605 56.0156 105.367C54.7803 103.129 54.1626 100.506 54.1626 97.498V72.415H60.769V97.7935C60.769 99.548 61.1092 101.079 61.7896 102.386C62.4878 103.693 63.4546 104.704 64.6899 105.42C65.9432 106.137 67.3844 106.495 69.0137 106.495C71.5381 106.495 73.5433 105.698 75.0293 104.104C76.5153 102.511 77.2583 100.407 77.2583 97.7935V72.415H83.8379V97.498C83.8379 100.506 83.2292 103.129 82.0117 105.367C80.8122 107.605 79.1024 109.341 76.8823 110.577C74.6623 111.812 72.0394 112.43 69.0137 112.43ZM91.3037 112V83.3452H97.5073V86.9707H98.689L96.4868 89.4146C96.9165 87.9823 97.6147 86.7917 98.5815 85.8428C99.5662 84.876 100.721 84.1509 102.046 83.6675C103.389 83.1662 104.83 82.9155 106.37 82.9155C108.554 82.9155 110.362 83.4079 111.794 84.3926C113.245 85.3773 114.328 86.6663 115.044 88.2598C115.76 89.8532 116.118 91.5809 116.118 93.4429V112H109.78V94.8125C109.78 92.6999 109.261 91.1064 108.223 90.0322C107.184 88.958 105.77 88.4209 103.979 88.4209C102.798 88.4209 101.724 88.6715 100.757 89.1729C99.79 89.6562 99.0291 90.3724 98.4741 91.3213C97.9191 92.2702 97.6416 93.4429 97.6416 94.8394V112H91.3037ZM129.17 112.43C127.666 112.43 126.422 112.107 125.437 111.463C124.47 110.818 123.745 109.923 123.262 108.777C122.778 107.632 122.537 106.307 122.537 104.803V70.6426H128.875V104.292C128.875 104.704 128.919 105.107 129.009 105.501C129.098 105.895 129.277 106.226 129.546 106.495C129.832 106.745 130.28 106.871 130.889 106.871C131.139 106.871 131.363 106.853 131.56 106.817C131.775 106.763 131.963 106.709 132.124 106.656V111.946C131.748 112.107 131.292 112.224 130.754 112.295C130.235 112.385 129.707 112.43 129.17 112.43ZM149.526 112.43C146.805 112.43 144.361 111.803 142.195 110.55C140.028 109.279 138.31 107.533 137.039 105.313C135.767 103.075 135.132 100.497 135.132 97.5786C135.132 94.6782 135.767 92.127 137.039 89.9248C138.31 87.7227 140.028 86.0039 142.195 84.7686C144.361 83.5332 146.805 82.9155 149.526 82.9155C152.284 82.9155 154.745 83.5332 156.912 84.7686C159.078 86.0039 160.788 87.7227 162.041 89.9248C163.294 92.127 163.921 94.6782 163.921 97.5786C163.921 100.497 163.285 103.075 162.014 105.313C160.761 107.533 159.042 109.279 156.858 110.55C154.692 111.803 152.248 112.43 149.526 112.43ZM149.526 106.817C151.102 106.817 152.507 106.432 153.743 105.662C154.978 104.892 155.945 103.818 156.643 102.439C157.359 101.043 157.717 99.4227 157.717 97.5786C157.717 95.7703 157.368 94.1859 156.67 92.8252C155.972 91.4645 155.005 90.4082 153.77 89.6562C152.552 88.9043 151.147 88.5283 149.553 88.5283C147.978 88.5283 146.572 88.9043 145.337 89.6562C144.102 90.4082 143.126 91.4645 142.41 92.8252C141.711 94.1859 141.362 95.7703 141.362 97.5786C141.362 99.4227 141.711 101.043 142.41 102.439C143.126 103.818 144.093 104.892 145.31 105.662C146.545 106.432 147.951 106.817 149.526 106.817ZM182.478 112.322C180.419 112.322 178.494 111.946 176.704 111.194C174.914 110.442 173.338 109.404 171.978 108.079C170.635 106.736 169.578 105.17 168.809 103.379C168.057 101.571 167.681 99.6196 167.681 97.5249C167.681 95.4123 168.066 93.4697 168.835 91.6973C169.605 89.9069 170.662 88.3582 172.004 87.0513C173.347 85.7264 174.896 84.7059 176.65 83.9897C178.423 83.2557 180.303 82.8887 182.29 82.8887C183.937 82.8887 185.54 83.1393 187.097 83.6406C188.655 84.124 190.024 84.7865 191.206 85.6279L188.843 90.8379C188.324 90.3545 187.715 89.9427 187.017 89.6025C186.318 89.2624 185.575 89.0028 184.788 88.8237C184 88.6268 183.221 88.5283 182.451 88.5283C180.804 88.5283 179.336 88.9132 178.047 89.6831C176.776 90.453 175.764 91.5272 175.012 92.9058C174.278 94.2664 173.911 95.8241 173.911 97.5786C173.911 99.2974 174.278 100.846 175.012 102.225C175.746 103.603 176.758 104.695 178.047 105.501C179.336 106.289 180.813 106.683 182.478 106.683C183.803 106.683 185.047 106.459 186.211 106.011C187.393 105.546 188.306 105.009 188.95 104.4L191.287 109.69C190.248 110.424 188.968 111.051 187.446 111.57C185.924 112.072 184.268 112.322 182.478 112.322ZM195.691 112V70.6426H202.029V94.8662H204.338L202.002 96.1553L213.362 83.3184H221.204L207.131 98.7871V95.2153L221.956 112H214.167L201.948 98.0083L204.338 99.3511H202.029V112H195.691ZM251.443 112.43C248.399 112.43 246.099 111.57 244.541 109.852C243.001 108.133 242.231 105.931 242.231 103.245V74.5366H248.569V102.789C248.569 104.167 248.892 105.179 249.536 105.823C250.181 106.468 250.986 106.79 251.953 106.79C252.383 106.79 252.786 106.736 253.162 106.629C253.538 106.504 253.878 106.36 254.182 106.199L256.357 111.382C255.695 111.705 254.952 111.955 254.128 112.134C253.305 112.331 252.41 112.43 251.443 112.43ZM237.505 88.6357V83.3452H255.444V88.6357H237.505ZM260.627 112V70.6426H266.965V86.353H268.254L265.811 88.8237C266.204 87.5526 266.876 86.4784 267.825 85.6011C268.792 84.7059 269.928 84.0345 271.235 83.5869C272.56 83.1393 273.966 82.9155 275.452 82.9155C277.761 82.9155 279.65 83.4168 281.118 84.4194C282.604 85.4041 283.696 86.6932 284.395 88.2866C285.093 89.88 285.442 91.5988 285.442 93.4429V112H279.104V94.7856C279.104 92.673 278.567 91.0885 277.493 90.0322C276.436 88.958 275.031 88.4209 273.276 88.4209C272.095 88.4209 271.029 88.6626 270.081 89.146C269.15 89.6294 268.398 90.3455 267.825 91.2944C267.252 92.2433 266.965 93.425 266.965 94.8394V112H260.627ZM304.59 112.43C301.689 112.43 299.156 111.812 296.99 110.577C294.823 109.323 293.132 107.587 291.914 105.367C290.697 103.147 290.088 100.586 290.088 97.686C290.088 94.6782 290.697 92.0732 291.914 89.8711C293.132 87.6689 294.77 85.9681 296.829 84.7686C298.888 83.5511 301.17 82.9424 303.677 82.9424C306.076 82.9424 308.242 83.4974 310.176 84.6074C312.127 85.7174 313.676 87.2661 314.822 89.2534C315.968 91.2228 316.541 93.5324 316.541 96.1821C316.541 96.8625 316.505 97.498 316.433 98.0889C316.361 98.6797 316.272 99.2705 316.165 99.8613H294.841V95.3765H310.605C310.605 94.0158 310.319 92.8073 309.746 91.751C309.173 90.6768 308.368 89.8353 307.329 89.2266C306.291 88.5999 305.073 88.2866 303.677 88.2866C302.101 88.2866 300.723 88.6805 299.541 89.4683C298.377 90.2381 297.464 91.3213 296.802 92.7178C296.157 94.0964 295.835 95.7077 295.835 97.5518C295.835 99.4316 296.184 101.088 296.882 102.52C297.598 103.952 298.601 105.071 299.89 105.877C301.197 106.683 302.746 107.085 304.536 107.085C305.557 107.085 306.523 106.96 307.437 106.709C308.35 106.459 309.182 106.137 309.934 105.743C310.686 105.331 311.331 104.901 311.868 104.454L314.043 109.664C312.915 110.469 311.528 111.132 309.88 111.651C308.251 112.17 306.488 112.43 304.59 112.43ZM335.769 123.279V83.3452H341.919V86.6753H342.751L341.355 89.522V105.367L343.154 108.643H342.107V123.279H335.769ZM350.781 112.43C348.382 112.43 346.234 111.776 344.336 110.469C342.456 109.162 340.97 107.381 339.878 105.125C338.786 102.869 338.231 100.336 338.213 97.5249C338.231 94.714 338.768 92.2075 339.824 90.0054C340.898 87.7853 342.367 86.0397 344.229 84.7686C346.108 83.4974 348.257 82.8618 350.674 82.8618C352.912 82.8618 355.015 83.4437 356.985 84.6074C358.954 85.7712 360.539 87.4541 361.738 89.6562C362.956 91.8584 363.547 94.535 363.511 97.686C363.529 100.031 363.188 102.126 362.49 103.97C361.792 105.796 360.843 107.336 359.644 108.589C358.444 109.843 357.074 110.8 355.535 111.463C354.013 112.107 352.428 112.43 350.781 112.43ZM349.465 106.951C350.969 106.951 352.312 106.548 353.494 105.743C354.675 104.937 355.588 103.836 356.233 102.439C356.895 101.025 357.218 99.4137 357.2 97.6055C357.218 95.7435 356.895 94.1232 356.233 92.7446C355.57 91.3481 354.639 90.265 353.44 89.4951C352.258 88.7253 350.907 88.3493 349.385 88.3672C347.952 88.3493 346.654 88.7163 345.491 89.4683C344.345 90.2023 343.423 91.2586 342.725 92.6372C342.044 94.0158 341.704 95.6719 341.704 97.6055C341.704 99.4137 342.035 101.025 342.698 102.439C343.378 103.836 344.3 104.937 345.464 105.743C346.628 106.548 347.961 106.951 349.465 106.951ZM381.611 112.43C378.89 112.43 376.446 111.803 374.28 110.55C372.113 109.279 370.395 107.533 369.124 105.313C367.852 103.075 367.217 100.497 367.217 97.5786C367.217 94.6782 367.852 92.127 369.124 89.9248C370.395 87.7227 372.113 86.0039 374.28 84.7686C376.446 83.5332 378.89 82.9155 381.611 82.9155C384.368 82.9155 386.83 83.5332 388.997 84.7686C391.163 86.0039 392.873 87.7227 394.126 89.9248C395.379 92.127 396.006 94.6782 396.006 97.5786C396.006 100.497 395.37 103.075 394.099 105.313C392.846 107.533 391.127 109.279 388.943 110.55C386.777 111.803 384.333 112.43 381.611 112.43ZM381.611 106.817C383.187 106.817 384.592 106.432 385.828 105.662C387.063 104.892 388.03 103.818 388.728 102.439C389.444 101.043 389.802 99.4227 389.802 97.5786C389.802 95.7703 389.453 94.1859 388.755 92.8252C388.057 91.4645 387.09 90.4082 385.854 89.6562C384.637 88.9043 383.232 88.5283 381.638 88.5283C380.063 88.5283 378.657 88.9043 377.422 89.6562C376.187 90.4082 375.211 91.4645 374.495 92.8252C373.796 94.1859 373.447 95.7703 373.447 97.5786C373.447 99.4227 373.796 101.043 374.495 102.439C375.211 103.818 376.178 104.892 377.395 105.662C378.63 106.432 380.036 106.817 381.611 106.817ZM412.307 112.43C409.264 112.43 406.963 111.57 405.405 109.852C403.866 108.133 403.096 105.931 403.096 103.245V74.5366H409.434V102.789C409.434 104.167 409.756 105.179 410.4 105.823C411.045 106.468 411.851 106.79 412.817 106.79C413.247 106.79 413.65 106.736 414.026 106.629C414.402 106.504 414.742 106.36 415.046 106.199L417.222 111.382C416.559 111.705 415.816 111.955 414.993 112.134C414.169 112.331 413.274 112.43 412.307 112.43ZM398.369 88.6357V83.3452H416.309V88.6357H398.369ZM433.604 112.43C430.703 112.43 428.17 111.812 426.003 110.577C423.837 109.323 422.145 107.587 420.928 105.367C419.71 103.147 419.102 100.586 419.102 97.686C419.102 94.6782 419.71 92.0732 420.928 89.8711C422.145 87.6689 423.783 85.9681 425.842 84.7686C427.901 83.5511 430.184 82.9424 432.69 82.9424C435.09 82.9424 437.256 83.4974 439.189 84.6074C441.141 85.7174 442.69 87.2661 443.835 89.2534C444.981 91.2228 445.554 93.5324 445.554 96.1821C445.554 96.8625 445.518 97.498 445.447 98.0889C445.375 98.6797 445.286 99.2705 445.178 99.8613H423.855V95.3765H439.619C439.619 94.0158 439.333 92.8073 438.76 91.751C438.187 90.6768 437.381 89.8353 436.343 89.2266C435.304 88.5999 434.087 88.2866 432.69 88.2866C431.115 88.2866 429.736 88.6805 428.555 89.4683C427.391 90.2381 426.478 91.3213 425.815 92.7178C425.171 94.0964 424.849 95.7077 424.849 97.5518C424.849 99.4316 425.198 101.088 425.896 102.52C426.612 103.952 427.615 105.071 428.904 105.877C430.211 106.683 431.759 107.085 433.55 107.085C434.57 107.085 435.537 106.96 436.45 106.709C437.363 106.459 438.196 106.137 438.948 105.743C439.7 105.331 440.344 104.901 440.881 104.454L443.057 109.664C441.929 110.469 440.541 111.132 438.894 111.651C437.265 112.17 435.501 112.43 433.604 112.43ZM450.791 112V83.3452H456.995V86.9707H458.176L455.974 89.4146C456.404 87.9823 457.102 86.7917 458.069 85.8428C459.054 84.876 460.208 84.1509 461.533 83.6675C462.876 83.1662 464.317 82.9155 465.857 82.9155C468.041 82.9155 469.849 83.4079 471.282 84.3926C472.732 85.3773 473.815 86.6663 474.531 88.2598C475.247 89.8532 475.605 91.5809 475.605 93.4429V112H469.268V94.8125C469.268 92.6999 468.748 91.1064 467.71 90.0322C466.672 88.958 465.257 88.4209 463.467 88.4209C462.285 88.4209 461.211 88.6715 460.244 89.1729C459.277 89.6562 458.516 90.3724 457.961 91.3213C457.406 92.2702 457.129 93.4429 457.129 94.8394V112H450.791ZM493.303 112.43C490.26 112.43 487.959 111.57 486.401 109.852C484.862 108.133 484.092 105.931 484.092 103.245V74.5366H490.43V102.789C490.43 104.167 490.752 105.179 491.396 105.823C492.041 106.468 492.847 106.79 493.813 106.79C494.243 106.79 494.646 106.736 495.022 106.629C495.398 106.504 495.738 106.36 496.042 106.199L498.218 111.382C497.555 111.705 496.812 111.955 495.989 112.134C495.165 112.331 494.27 112.43 493.303 112.43ZM479.365 88.6357V83.3452H497.305V88.6357H479.365ZM502.676 112V83.3452H509.014V112H502.676ZM505.845 79.3438C504.645 79.3438 503.634 78.932 502.81 78.1084C502.004 77.2848 501.602 76.2822 501.602 75.1006C501.602 73.9189 502.004 72.9163 502.81 72.0928C503.634 71.2692 504.645 70.8574 505.845 70.8574C507.026 70.8574 508.029 71.2692 508.853 72.0928C509.676 72.9163 510.088 73.9189 510.088 75.1006C510.088 76.2822 509.676 77.2848 508.853 78.1084C508.029 78.932 507.026 79.3438 505.845 79.3438ZM523.999 112.43C522.137 112.43 520.481 112.063 519.031 111.329C517.581 110.577 516.444 109.556 515.62 108.267C514.797 106.96 514.385 105.456 514.385 103.755C514.385 101.965 514.868 100.416 515.835 99.1094C516.802 97.7845 518.234 96.764 520.132 96.0479C522.03 95.3138 524.348 94.9468 527.087 94.9468H533.291V99.3779H527.249C525.1 99.3779 523.435 99.7271 522.253 100.425C521.072 101.124 520.481 102.162 520.481 103.541C520.481 104.364 520.687 105.062 521.099 105.635C521.51 106.208 522.074 106.647 522.791 106.951C523.525 107.256 524.339 107.408 525.234 107.408C526.165 107.408 527.186 107.202 528.296 106.79C529.406 106.378 530.364 105.743 531.169 104.883C531.975 104.024 532.378 102.932 532.378 101.607V98.6528L532.029 97.1221V93.604C532.029 93.049 531.957 92.4671 531.814 91.8584C531.689 91.2497 531.429 90.6857 531.035 90.1665C530.659 89.6294 530.113 89.1997 529.397 88.8774C528.681 88.5373 527.75 88.3672 526.604 88.3672C525.691 88.3672 524.733 88.4746 523.73 88.6895C522.728 88.8864 521.761 89.1639 520.83 89.522C519.917 89.88 519.12 90.2829 518.44 90.7305L516.265 85.6011C517.088 85.1356 518.082 84.6969 519.246 84.2852C520.427 83.8734 521.716 83.5422 523.113 83.2915C524.509 83.0409 525.933 82.9155 527.383 82.9155C529.746 82.9155 531.635 83.2467 533.049 83.9092C534.482 84.5716 535.556 85.4399 536.272 86.5142C536.988 87.5705 537.463 88.7163 537.695 89.9517C537.946 91.1691 538.071 92.3507 538.071 93.4966V102.869C538.071 103.997 538.188 104.865 538.42 105.474C538.671 106.083 539.128 106.504 539.79 106.736L540.381 106.951L538.071 112.43L537.239 112.107C535.878 111.57 534.84 110.899 534.124 110.093C533.407 109.288 533.022 108.482 532.969 107.676L534.177 108.348H532.029L533.479 107.596C532.834 108.903 531.653 110.04 529.934 111.006C528.215 111.955 526.237 112.43 523.999 112.43ZM551.875 112.43C550.371 112.43 549.127 112.107 548.142 111.463C547.175 110.818 546.45 109.923 545.967 108.777C545.483 107.632 545.242 106.307 545.242 104.803V70.6426H551.58V104.292C551.58 104.704 551.624 105.107 551.714 105.501C551.803 105.895 551.982 106.226 552.251 106.495C552.537 106.745 552.985 106.871 553.594 106.871C553.844 106.871 554.068 106.853 554.265 106.817C554.48 106.763 554.668 106.709 554.829 106.656V111.946C554.453 112.107 553.997 112.224 553.459 112.295C552.94 112.385 552.412 112.43 551.875 112.43ZM66.167 183.43C63.4456 183.43 61.0018 182.803 58.8354 181.55C56.6691 180.279 54.9504 178.533 53.6792 176.313C52.408 174.075 51.7725 171.497 51.7725 168.579C51.7725 165.678 52.408 163.127 53.6792 160.925C54.9504 158.723 56.6691 157.004 58.8354 155.769C61.0018 154.533 63.4456 153.916 66.167 153.916C68.9242 153.916 71.3859 154.533 73.5522 155.769C75.7186 157.004 77.4284 158.723 78.6816 160.925C79.9349 163.127 80.5615 165.678 80.5615 168.579C80.5615 171.497 79.9259 174.075 78.6548 176.313C77.4015 178.533 75.6828 180.279 73.4985 181.55C71.3322 182.803 68.8883 183.43 66.167 183.43ZM66.167 177.817C67.7425 177.817 69.1479 177.432 70.3833 176.662C71.6187 175.892 72.5854 174.818 73.2837 173.439C73.9998 172.043 74.3579 170.423 74.3579 168.579C74.3579 166.77 74.0088 165.186 73.3105 163.825C72.6123 162.465 71.6455 161.408 70.4102 160.656C69.1927 159.904 67.7873 159.528 66.1938 159.528C64.6183 159.528 63.2129 159.904 61.9775 160.656C60.7422 161.408 59.7664 162.465 59.0503 163.825C58.3521 165.186 58.0029 166.77 58.0029 168.579C58.0029 170.423 58.3521 172.043 59.0503 173.439C59.7664 174.818 60.7332 175.892 61.9507 176.662C63.186 177.432 64.5915 177.817 66.167 177.817ZM82.7637 159.877V154.345H101.24V159.877H82.7637ZM87.8931 183V150.371C87.8931 147.613 88.6808 145.367 90.2563 143.63C91.8498 141.893 94.2131 141.025 97.3462 141.025C98.3488 141.025 99.2708 141.105 100.112 141.267C100.954 141.428 101.67 141.643 102.261 141.911L100.059 147.255C99.7184 147.058 99.3424 146.924 98.9307 146.853C98.5368 146.763 98.134 146.718 97.7222 146.718C96.6659 146.718 95.8154 147.058 95.1709 147.739C94.5443 148.419 94.231 149.422 94.231 150.747V183H87.8931ZM146.465 183.43C145.265 182.964 144.272 182.472 143.484 181.953C142.714 181.416 142.123 180.834 141.711 180.207C141.318 179.562 141.076 178.855 140.986 178.085L142.034 178.649H139.456L140.798 175.373V160.227L139.456 157.326H140.127V141.643H146.465V174.165C146.465 175.292 146.626 176.116 146.948 176.635C147.271 177.137 147.879 177.575 148.774 177.951L146.465 183.43ZM131.479 183.43C129.832 183.43 128.239 183.107 126.699 182.463C125.177 181.8 123.808 180.843 122.59 179.589C121.391 178.336 120.442 176.796 119.744 174.97C119.063 173.126 118.732 171.031 118.75 168.686C118.714 165.535 119.296 162.858 120.496 160.656C121.713 158.454 123.306 156.771 125.276 155.607C127.245 154.444 129.349 153.862 131.587 153.862C134.004 153.862 136.143 154.497 138.005 155.769C139.885 157.04 141.353 158.785 142.41 161.005C143.484 163.208 144.03 165.714 144.048 168.525C144.03 171.336 143.475 173.869 142.383 176.125C141.291 178.381 139.796 180.162 137.898 181.469C136.018 182.776 133.879 183.43 131.479 183.43ZM132.795 177.951C134.299 177.951 135.633 177.548 136.797 176.743C137.961 175.937 138.874 174.836 139.536 173.439C140.199 172.025 140.539 170.414 140.557 168.605C140.539 166.672 140.19 165.016 139.509 163.637C138.829 162.259 137.907 161.202 136.743 160.468C135.579 159.716 134.29 159.349 132.876 159.367C131.354 159.349 129.993 159.725 128.794 160.495C127.612 161.265 126.69 162.348 126.028 163.745C125.365 165.123 125.043 166.743 125.061 168.605C125.043 170.414 125.356 172.025 126.001 173.439C126.663 174.836 127.585 175.937 128.767 176.743C129.949 177.548 131.292 177.951 132.795 177.951ZM154.253 183V154.345H160.591V183H154.253ZM157.422 150.344C156.222 150.344 155.211 149.932 154.387 149.108C153.582 148.285 153.179 147.282 153.179 146.101C153.179 144.919 153.582 143.916 154.387 143.093C155.211 142.269 156.222 141.857 157.422 141.857C158.604 141.857 159.606 142.269 160.43 143.093C161.253 143.916 161.665 144.919 161.665 146.101C161.665 147.282 161.253 148.285 160.43 149.108C159.606 149.932 158.604 150.344 157.422 150.344ZM179.229 194.709C177.008 194.709 174.932 194.423 172.998 193.85C171.082 193.277 169.561 192.668 168.433 192.023L170.662 186.76C171.557 187.386 172.738 187.95 174.207 188.452C175.675 188.953 177.17 189.204 178.691 189.204C179.98 189.204 181.296 188.971 182.639 188.505C184 188.04 185.146 187.288 186.077 186.25C187.008 185.211 187.473 183.833 187.473 182.114V178.864H186.614L187.715 176.206V160.388L186.077 157.514H187.527V154.345H193.542V181.765C193.542 183.985 193.158 185.9 192.388 187.512C191.636 189.141 190.597 190.484 189.272 191.54C187.948 192.614 186.417 193.411 184.68 193.93C182.961 194.449 181.144 194.709 179.229 194.709ZM178.638 182.839C176.991 182.839 175.406 182.517 173.884 181.872C172.362 181.228 170.993 180.288 169.775 179.052C168.558 177.817 167.591 176.304 166.875 174.514C166.177 172.705 165.828 170.646 165.828 168.337C165.828 165.257 166.445 162.644 167.681 160.495C168.934 158.347 170.554 156.717 172.542 155.607C174.529 154.479 176.641 153.916 178.879 153.916C181.314 153.916 183.454 154.533 185.298 155.769C187.16 157.004 188.61 158.696 189.648 160.844C190.687 162.975 191.206 165.383 191.206 168.068C191.206 170.826 190.66 173.323 189.568 175.561C188.476 177.781 186.981 179.554 185.083 180.878C183.203 182.185 181.055 182.839 178.638 182.839ZM179.954 177.36C181.44 177.36 182.764 176.975 183.928 176.206C185.092 175.418 186.005 174.335 186.667 172.956C187.33 171.577 187.661 169.993 187.661 168.203C187.661 166.394 187.33 164.828 186.667 163.503C186.005 162.178 185.092 161.158 183.928 160.441C182.782 159.707 181.466 159.34 179.98 159.34C178.459 159.34 177.107 159.716 175.925 160.468C174.744 161.202 173.822 162.241 173.159 163.583C172.497 164.908 172.166 166.457 172.166 168.229C172.166 170.002 172.497 171.577 173.159 172.956C173.822 174.317 174.735 175.391 175.898 176.179C177.08 176.966 178.432 177.36 179.954 177.36ZM200.229 183V154.345H206.567V183H200.229ZM203.398 150.344C202.199 150.344 201.187 149.932 200.364 149.108C199.558 148.285 199.155 147.282 199.155 146.101C199.155 144.919 199.558 143.916 200.364 143.093C201.187 142.269 202.199 141.857 203.398 141.857C204.58 141.857 205.583 142.269 206.406 143.093C207.23 143.916 207.642 144.919 207.642 146.101C207.642 147.282 207.23 148.285 206.406 149.108C205.583 149.932 204.58 150.344 203.398 150.344ZM225.071 183.43C222.027 183.43 219.727 182.57 218.169 180.852C216.629 179.133 215.859 176.931 215.859 174.245V145.537H222.197V173.789C222.197 175.167 222.52 176.179 223.164 176.823C223.809 177.468 224.614 177.79 225.581 177.79C226.011 177.79 226.414 177.736 226.79 177.629C227.166 177.504 227.506 177.36 227.81 177.199L229.985 182.382C229.323 182.705 228.58 182.955 227.756 183.134C226.933 183.331 226.038 183.43 225.071 183.43ZM211.133 159.636V154.345H229.072V159.636H211.133ZM242.285 183.43C240.423 183.43 238.767 183.063 237.317 182.329C235.867 181.577 234.73 180.556 233.906 179.267C233.083 177.96 232.671 176.456 232.671 174.755C232.671 172.965 233.154 171.416 234.121 170.109C235.088 168.785 236.52 167.764 238.418 167.048C240.316 166.314 242.634 165.947 245.374 165.947H251.577V170.378H245.535C243.386 170.378 241.721 170.727 240.54 171.425C239.358 172.124 238.767 173.162 238.767 174.541C238.767 175.364 238.973 176.062 239.385 176.635C239.797 177.208 240.361 177.647 241.077 177.951C241.811 178.256 242.625 178.408 243.521 178.408C244.451 178.408 245.472 178.202 246.582 177.79C247.692 177.378 248.65 176.743 249.456 175.883C250.261 175.024 250.664 173.932 250.664 172.607V169.653L250.315 168.122V164.604C250.315 164.049 250.243 163.467 250.1 162.858C249.975 162.25 249.715 161.686 249.321 161.167C248.945 160.629 248.399 160.2 247.683 159.877C246.967 159.537 246.036 159.367 244.89 159.367C243.977 159.367 243.019 159.475 242.017 159.689C241.014 159.886 240.047 160.164 239.116 160.522C238.203 160.88 237.406 161.283 236.726 161.73L234.551 156.601C235.374 156.136 236.368 155.697 237.532 155.285C238.713 154.873 240.002 154.542 241.399 154.292C242.795 154.041 244.219 153.916 245.669 153.916C248.032 153.916 249.921 154.247 251.335 154.909C252.768 155.572 253.842 156.44 254.558 157.514C255.274 158.57 255.749 159.716 255.981 160.952C256.232 162.169 256.357 163.351 256.357 164.497V173.869C256.357 174.997 256.474 175.865 256.707 176.474C256.957 177.083 257.414 177.504 258.076 177.736L258.667 177.951L256.357 183.43L255.525 183.107C254.164 182.57 253.126 181.899 252.41 181.093C251.694 180.288 251.309 179.482 251.255 178.676L252.463 179.348H250.315L251.765 178.596C251.121 179.903 249.939 181.04 248.22 182.006C246.501 182.955 244.523 183.43 242.285 183.43ZM270.161 183.43C268.657 183.43 267.413 183.107 266.428 182.463C265.461 181.818 264.736 180.923 264.253 179.777C263.77 178.632 263.528 177.307 263.528 175.803V141.643H269.866V175.292C269.866 175.704 269.91 176.107 270 176.501C270.09 176.895 270.269 177.226 270.537 177.495C270.824 177.745 271.271 177.871 271.88 177.871C272.131 177.871 272.354 177.853 272.551 177.817C272.766 177.763 272.954 177.709 273.115 177.656V182.946C272.739 183.107 272.283 183.224 271.746 183.295C271.226 183.385 270.698 183.43 270.161 183.43ZM305.1 183.322C303.041 183.322 301.117 182.946 299.326 182.194C297.536 181.442 295.96 180.404 294.6 179.079C293.257 177.736 292.201 176.17 291.431 174.379C290.679 172.571 290.303 170.62 290.303 168.525C290.303 166.412 290.688 164.47 291.458 162.697C292.227 160.907 293.284 159.358 294.626 158.051C295.969 156.726 297.518 155.706 299.272 154.99C301.045 154.256 302.925 153.889 304.912 153.889C306.559 153.889 308.162 154.139 309.719 154.641C311.277 155.124 312.646 155.786 313.828 156.628L311.465 161.838C310.946 161.354 310.337 160.943 309.639 160.603C308.94 160.262 308.197 160.003 307.41 159.824C306.622 159.627 305.843 159.528 305.073 159.528C303.426 159.528 301.958 159.913 300.669 160.683C299.398 161.453 298.386 162.527 297.634 163.906C296.9 165.266 296.533 166.824 296.533 168.579C296.533 170.297 296.9 171.846 297.634 173.225C298.368 174.603 299.38 175.695 300.669 176.501C301.958 177.289 303.435 177.683 305.1 177.683C306.425 177.683 307.669 177.459 308.833 177.011C310.015 176.546 310.928 176.009 311.572 175.4L313.909 180.69C312.87 181.424 311.59 182.051 310.068 182.57C308.547 183.072 306.89 183.322 305.1 183.322ZM330.425 183.43C327.524 183.43 324.991 182.812 322.825 181.577C320.658 180.323 318.966 178.587 317.749 176.367C316.532 174.147 315.923 171.586 315.923 168.686C315.923 165.678 316.532 163.073 317.749 160.871C318.966 158.669 320.605 156.968 322.664 155.769C324.722 154.551 327.005 153.942 329.512 153.942C331.911 153.942 334.077 154.497 336.011 155.607C337.962 156.717 339.511 158.266 340.657 160.253C341.803 162.223 342.375 164.532 342.375 167.182C342.375 167.862 342.34 168.498 342.268 169.089C342.196 169.68 342.107 170.271 342 170.861H320.676V166.376H336.44C336.44 165.016 336.154 163.807 335.581 162.751C335.008 161.677 334.202 160.835 333.164 160.227C332.126 159.6 330.908 159.287 329.512 159.287C327.936 159.287 326.558 159.681 325.376 160.468C324.212 161.238 323.299 162.321 322.637 163.718C321.992 165.096 321.67 166.708 321.67 168.552C321.67 170.432 322.019 172.088 322.717 173.52C323.433 174.952 324.436 176.071 325.725 176.877C327.032 177.683 328.581 178.085 330.371 178.085C331.392 178.085 332.358 177.96 333.271 177.709C334.185 177.459 335.017 177.137 335.769 176.743C336.521 176.331 337.166 175.901 337.703 175.454L339.878 180.664C338.75 181.469 337.362 182.132 335.715 182.651C334.086 183.17 332.323 183.43 330.425 183.43ZM347.585 183V154.345H353.816V158.562H354.622L352.876 160.441C353.359 159.403 354.04 158.382 354.917 157.38C355.794 156.377 356.877 155.554 358.167 154.909C359.456 154.247 360.942 153.916 362.625 153.916C363.305 153.916 363.923 153.969 364.478 154.077C365.05 154.166 365.453 154.274 365.686 154.399L363.135 160.468C362.992 160.397 362.714 160.325 362.302 160.253C361.908 160.182 361.452 160.146 360.933 160.146C360.181 160.146 359.393 160.298 358.569 160.603C357.764 160.907 357.003 161.363 356.287 161.972C355.588 162.581 355.015 163.342 354.568 164.255C354.138 165.15 353.923 166.188 353.923 167.37V183H347.585ZM380.94 183.43C377.896 183.43 375.596 182.57 374.038 180.852C372.498 179.133 371.729 176.931 371.729 174.245V145.537H378.066V173.789C378.066 175.167 378.389 176.179 379.033 176.823C379.678 177.468 380.483 177.79 381.45 177.79C381.88 177.79 382.283 177.736 382.659 177.629C383.035 177.504 383.375 177.36 383.679 177.199L385.854 182.382C385.192 182.705 384.449 182.955 383.625 183.134C382.802 183.331 381.907 183.43 380.94 183.43ZM367.002 159.636V154.345H384.941V159.636H367.002ZM390.312 183V154.345H396.65V183H390.312ZM393.481 150.344C392.282 150.344 391.27 149.932 390.447 149.108C389.641 148.285 389.238 147.282 389.238 146.101C389.238 144.919 389.641 143.916 390.447 143.093C391.27 142.269 392.282 141.857 393.481 141.857C394.663 141.857 395.666 142.269 396.489 143.093C397.313 143.916 397.725 144.919 397.725 146.101C397.725 147.282 397.313 148.285 396.489 149.108C395.666 149.932 394.663 150.344 393.481 150.344ZM401.323 159.877V154.345H419.8V159.877H401.323ZM406.453 183V150.371C406.453 147.613 407.24 145.367 408.816 143.63C410.409 141.893 412.773 141.025 415.906 141.025C416.908 141.025 417.83 141.105 418.672 141.267C419.513 141.428 420.229 141.643 420.82 141.911L418.618 147.255C418.278 147.058 417.902 146.924 417.49 146.853C417.096 146.763 416.694 146.718 416.282 146.718C415.225 146.718 414.375 147.058 413.73 147.739C413.104 148.419 412.791 149.422 412.791 150.747V183H406.453ZM425.01 183V154.345H431.348V183H425.01ZM428.179 150.344C426.979 150.344 425.968 149.932 425.144 149.108C424.338 148.285 423.936 147.282 423.936 146.101C423.936 144.919 424.338 143.916 425.144 143.093C425.968 142.269 426.979 141.857 428.179 141.857C429.36 141.857 430.363 142.269 431.187 143.093C432.01 143.916 432.422 144.919 432.422 146.101C432.422 147.282 432.01 148.285 431.187 149.108C430.363 149.932 429.36 150.344 428.179 150.344ZM450.657 183.322C448.598 183.322 446.673 182.946 444.883 182.194C443.092 181.442 441.517 180.404 440.156 179.079C438.813 177.736 437.757 176.17 436.987 174.379C436.235 172.571 435.859 170.62 435.859 168.525C435.859 166.412 436.244 164.47 437.014 162.697C437.784 160.907 438.84 159.358 440.183 158.051C441.526 156.726 443.075 155.706 444.829 154.99C446.602 154.256 448.481 153.889 450.469 153.889C452.116 153.889 453.718 154.139 455.276 154.641C456.833 155.124 458.203 155.786 459.385 156.628L457.021 161.838C456.502 161.354 455.894 160.943 455.195 160.603C454.497 160.262 453.754 160.003 452.966 159.824C452.179 159.627 451.4 159.528 450.63 159.528C448.983 159.528 447.515 159.913 446.226 160.683C444.954 161.453 443.943 162.527 443.191 163.906C442.457 165.266 442.09 166.824 442.09 168.579C442.09 170.297 442.457 171.846 443.191 173.225C443.925 174.603 444.937 175.695 446.226 176.501C447.515 177.289 448.992 177.683 450.657 177.683C451.982 177.683 453.226 177.459 454.39 177.011C455.571 176.546 456.484 176.009 457.129 175.4L459.465 180.69C458.427 181.424 457.147 182.051 455.625 182.57C454.103 183.072 452.447 183.322 450.657 183.322ZM471.953 183.43C470.091 183.43 468.435 183.063 466.985 182.329C465.535 181.577 464.398 180.556 463.574 179.267C462.751 177.96 462.339 176.456 462.339 174.755C462.339 172.965 462.822 171.416 463.789 170.109C464.756 168.785 466.188 167.764 468.086 167.048C469.984 166.314 472.302 165.947 475.042 165.947H481.245V170.378H475.203C473.054 170.378 471.389 170.727 470.208 171.425C469.026 172.124 468.435 173.162 468.435 174.541C468.435 175.364 468.641 176.062 469.053 176.635C469.465 177.208 470.028 177.647 470.745 177.951C471.479 178.256 472.293 178.408 473.188 178.408C474.119 178.408 475.14 178.202 476.25 177.79C477.36 177.378 478.318 176.743 479.124 175.883C479.929 175.024 480.332 173.932 480.332 172.607V169.653L479.983 168.122V164.604C479.983 164.049 479.911 163.467 479.768 162.858C479.643 162.25 479.383 161.686 478.989 161.167C478.613 160.629 478.067 160.2 477.351 159.877C476.635 159.537 475.704 159.367 474.558 159.367C473.645 159.367 472.687 159.475 471.685 159.689C470.682 159.886 469.715 160.164 468.784 160.522C467.871 160.88 467.074 161.283 466.394 161.73L464.219 156.601C465.042 156.136 466.036 155.697 467.2 155.285C468.381 154.873 469.67 154.542 471.067 154.292C472.463 154.041 473.887 153.916 475.337 153.916C477.7 153.916 479.589 154.247 481.003 154.909C482.436 155.572 483.51 156.44 484.226 157.514C484.942 158.57 485.417 159.716 485.649 160.952C485.9 162.169 486.025 163.351 486.025 164.497V173.869C486.025 174.997 486.142 175.865 486.375 176.474C486.625 177.083 487.082 177.504 487.744 177.736L488.335 177.951L486.025 183.43L485.193 183.107C483.832 182.57 482.794 181.899 482.078 181.093C481.361 180.288 480.977 179.482 480.923 178.676L482.131 179.348H479.983L481.433 178.596C480.789 179.903 479.607 181.04 477.888 182.006C476.169 182.955 474.191 183.43 471.953 183.43ZM504.26 183.43C501.217 183.43 498.916 182.57 497.358 180.852C495.819 179.133 495.049 176.931 495.049 174.245V145.537H501.387V173.789C501.387 175.167 501.709 176.179 502.354 176.823C502.998 177.468 503.804 177.79 504.771 177.79C505.2 177.79 505.603 177.736 505.979 177.629C506.355 177.504 506.695 177.36 507 177.199L509.175 182.382C508.512 182.705 507.769 182.955 506.946 183.134C506.122 183.331 505.227 183.43 504.26 183.43ZM490.322 159.636V154.345H508.262V159.636H490.322ZM525.557 183.43C522.656 183.43 520.123 182.812 517.957 181.577C515.79 180.323 514.098 178.587 512.881 176.367C511.663 174.147 511.055 171.586 511.055 168.686C511.055 165.678 511.663 163.073 512.881 160.871C514.098 158.669 515.736 156.968 517.795 155.769C519.854 154.551 522.137 153.942 524.644 153.942C527.043 153.942 529.209 154.497 531.143 155.607C533.094 156.717 534.643 158.266 535.789 160.253C536.934 162.223 537.507 164.532 537.507 167.182C537.507 167.862 537.472 168.498 537.4 169.089C537.328 169.68 537.239 170.271 537.131 170.861H515.808V166.376H531.572C531.572 165.016 531.286 163.807 530.713 162.751C530.14 161.677 529.334 160.835 528.296 160.227C527.257 159.6 526.04 159.287 524.644 159.287C523.068 159.287 521.689 159.681 520.508 160.468C519.344 161.238 518.431 162.321 517.769 163.718C517.124 165.096 516.802 166.708 516.802 168.552C516.802 170.432 517.151 172.088 517.849 173.52C518.565 174.952 519.568 176.071 520.857 176.877C522.164 177.683 523.713 178.085 525.503 178.085C526.523 178.085 527.49 177.96 528.403 177.709C529.316 177.459 530.149 177.137 530.901 176.743C531.653 176.331 532.297 175.901 532.834 175.454L535.01 180.664C533.882 181.469 532.494 182.132 530.847 182.651C529.218 183.17 527.454 183.43 525.557 183.43ZM551.58 183.43C549.861 183.43 548.267 183.116 546.799 182.49C545.331 181.863 544.069 181.031 543.013 179.992C541.974 178.936 541.222 177.79 540.757 176.555L546.128 174.245C546.522 175.248 547.211 176.143 548.196 176.931C549.198 177.718 550.326 178.112 551.58 178.112C552.349 178.112 553.057 177.969 553.701 177.683C554.346 177.378 554.865 176.975 555.259 176.474C555.653 175.973 555.85 175.418 555.85 174.809C555.85 174.129 555.617 173.547 555.151 173.063C554.704 172.562 554.131 172.141 553.433 171.801C552.752 171.461 552.036 171.175 551.284 170.942C550.55 170.709 549.906 170.503 549.351 170.324C548.133 169.948 546.925 169.429 545.725 168.767C544.543 168.104 543.559 167.236 542.771 166.162C541.983 165.069 541.589 163.7 541.589 162.053C541.589 160.388 542.019 158.946 542.878 157.729C543.738 156.494 544.884 155.554 546.316 154.909C547.748 154.247 549.333 153.916 551.069 153.916C553.468 153.916 555.536 154.497 557.273 155.661C559.01 156.807 560.236 158.186 560.952 159.797L555.688 161.999C555.33 161.337 554.793 160.692 554.077 160.065C553.361 159.439 552.412 159.125 551.23 159.125C550.21 159.125 549.333 159.394 548.599 159.931C547.882 160.45 547.524 161.184 547.524 162.133C547.524 162.939 547.784 163.592 548.303 164.094C548.84 164.577 549.548 164.989 550.425 165.329C551.302 165.651 552.251 165.983 553.271 166.323C554.023 166.556 554.874 166.869 555.823 167.263C556.79 167.639 557.721 168.14 558.616 168.767C559.529 169.393 560.272 170.19 560.845 171.157C561.436 172.106 561.731 173.269 561.731 174.648C561.731 176.367 561.265 177.889 560.334 179.213C559.403 180.538 558.168 181.577 556.628 182.329C555.089 183.063 553.406 183.43 551.58 183.43ZM81.1792 254L62.085 231.817C61.333 230.94 60.6169 230.027 59.9365 229.078C59.2741 228.111 58.728 227.1 58.2983 226.043C57.8866 224.969 57.6807 223.841 57.6807 222.66C57.6807 221.03 58.1014 219.571 58.9429 218.282C59.7843 216.975 60.9391 215.946 62.4072 215.194C63.8753 214.442 65.5404 214.066 67.4023 214.066C69.2643 214.066 70.8936 214.433 72.29 215.167C73.6865 215.883 74.7786 216.868 75.5664 218.121C76.3542 219.374 76.748 220.771 76.748 222.311C76.748 223.725 76.4437 225.032 75.835 226.231C75.2262 227.431 74.4564 228.496 73.5254 229.427C72.6123 230.358 71.6992 231.146 70.7861 231.791L68.5303 233.429L65.5493 229.427L67.1606 228.487C67.8768 228.076 68.5303 227.574 69.1211 226.983C69.7298 226.393 70.2132 225.739 70.5713 225.023C70.9473 224.307 71.1353 223.564 71.1353 222.794C71.1353 221.738 70.804 220.869 70.1416 220.189C69.4792 219.491 68.575 219.142 67.4292 219.142C66.2476 219.142 65.2987 219.509 64.5825 220.243C63.8664 220.959 63.5083 221.818 63.5083 222.821C63.5083 223.519 63.6694 224.226 63.9917 224.942C64.3319 225.641 64.7705 226.357 65.3076 227.091C65.8447 227.807 66.4176 228.523 67.0264 229.239L88.3765 254H81.1792ZM66.5161 254.43C64.6899 254.43 62.9533 254.161 61.3062 253.624C59.6769 253.069 58.2267 252.281 56.9556 251.261C55.6844 250.24 54.6818 249.032 53.9478 247.635C53.2137 246.221 52.8467 244.654 52.8467 242.936C52.8467 241.611 53.0615 240.393 53.4912 239.283C53.9209 238.155 54.4938 237.135 55.21 236.222C55.9261 235.291 56.7139 234.458 57.5732 233.724C58.4326 232.99 59.292 232.328 60.1514 231.737L62.6221 230.072L65.8984 234.234L63.6963 235.658C62.819 236.213 62.0223 236.848 61.3062 237.564C60.59 238.263 60.026 239.042 59.6143 239.901C59.2025 240.76 58.9966 241.673 58.9966 242.64C58.9966 243.822 59.3188 244.896 59.9634 245.863C60.6079 246.83 61.5031 247.608 62.6489 248.199C63.7948 248.772 65.1107 249.059 66.5967 249.059C68.4766 249.059 70.1953 248.602 71.7529 247.689C73.3105 246.776 74.6533 245.541 75.7812 243.983C76.9092 242.425 77.7775 240.662 78.3862 238.692C79.0129 236.705 79.3172 234.655 79.2993 232.542H85.3149C85.3149 234.78 85.0195 236.974 84.4287 239.122C83.8558 241.253 83.0233 243.24 81.9312 245.084C80.839 246.928 79.5231 248.557 77.9834 249.972C76.4437 251.368 74.707 252.46 72.7734 253.248C70.8398 254.036 68.7541 254.43 66.5161 254.43ZM107.068 254V212.643H113.406V228.434H113.943L112.761 232.086V247.582L114.211 250.401H113.218V254H107.068ZM122.134 254.43C119.735 254.43 117.586 253.776 115.688 252.469C113.809 251.162 112.323 249.381 111.23 247.125C110.138 244.869 109.583 242.336 109.565 239.525C109.583 236.714 110.12 234.208 111.177 232.005C112.251 229.785 113.719 228.04 115.581 226.769C117.461 225.497 119.609 224.862 122.026 224.862C124.264 224.862 126.368 225.444 128.337 226.607C130.307 227.771 131.891 229.454 133.091 231.656C134.308 233.858 134.899 236.535 134.863 239.686C134.881 242.031 134.541 244.126 133.843 245.97C133.145 247.796 132.196 249.336 130.996 250.589C129.797 251.843 128.427 252.8 126.887 253.463C125.365 254.107 123.781 254.43 122.134 254.43ZM120.818 248.951C122.322 248.951 123.665 248.548 124.846 247.743C126.028 246.937 126.941 245.836 127.585 244.439C128.248 243.025 128.57 241.414 128.552 239.605C128.57 237.743 128.248 236.123 127.585 234.745C126.923 233.348 125.992 232.265 124.792 231.495C123.611 230.725 122.259 230.349 120.737 230.367C119.305 230.349 118.007 230.716 116.843 231.468C115.697 232.202 114.775 233.259 114.077 234.637C113.397 236.016 113.057 237.672 113.057 239.605C113.057 241.414 113.388 243.025 114.05 244.439C114.731 245.836 115.653 246.937 116.816 247.743C117.98 248.548 119.314 248.951 120.818 248.951ZM147.969 254.43C146.107 254.43 144.451 254.063 143 253.329C141.55 252.577 140.413 251.556 139.59 250.267C138.766 248.96 138.354 247.456 138.354 245.755C138.354 243.965 138.838 242.416 139.805 241.109C140.771 239.785 142.204 238.764 144.102 238.048C145.999 237.314 148.318 236.947 151.057 236.947H157.261V241.378H151.218C149.07 241.378 147.405 241.727 146.223 242.425C145.042 243.124 144.451 244.162 144.451 245.541C144.451 246.364 144.657 247.062 145.068 247.635C145.48 248.208 146.044 248.647 146.76 248.951C147.494 249.256 148.309 249.408 149.204 249.408C150.135 249.408 151.156 249.202 152.266 248.79C153.376 248.378 154.333 247.743 155.139 246.883C155.945 246.024 156.348 244.932 156.348 243.607V240.653L155.999 239.122V235.604C155.999 235.049 155.927 234.467 155.784 233.858C155.658 233.25 155.399 232.686 155.005 232.167C154.629 231.629 154.083 231.2 153.367 230.877C152.651 230.537 151.72 230.367 150.574 230.367C149.661 230.367 148.703 230.475 147.7 230.689C146.698 230.886 145.731 231.164 144.8 231.522C143.887 231.88 143.09 232.283 142.41 232.73L140.234 227.601C141.058 227.136 142.052 226.697 143.215 226.285C144.397 225.873 145.686 225.542 147.083 225.292C148.479 225.041 149.902 224.916 151.353 224.916C153.716 224.916 155.605 225.247 157.019 225.909C158.451 226.572 159.526 227.44 160.242 228.514C160.958 229.57 161.432 230.716 161.665 231.952C161.916 233.169 162.041 234.351 162.041 235.497V244.869C162.041 245.997 162.157 246.865 162.39 247.474C162.641 248.083 163.097 248.504 163.76 248.736L164.351 248.951L162.041 254.43L161.208 254.107C159.848 253.57 158.809 252.899 158.093 252.093C157.377 251.288 156.992 250.482 156.938 249.676L158.147 250.348H155.999L157.449 249.596C156.804 250.903 155.623 252.04 153.904 253.006C152.185 253.955 150.207 254.43 147.969 254.43ZM195.073 254.43C193.874 253.964 192.88 253.472 192.092 252.953C191.322 252.416 190.732 251.834 190.32 251.207C189.926 250.562 189.684 249.855 189.595 249.085L190.642 249.649H188.064L189.407 246.373V231.227L188.064 228.326H188.735V212.643H195.073V245.165C195.073 246.292 195.234 247.116 195.557 247.635C195.879 248.137 196.488 248.575 197.383 248.951L195.073 254.43ZM180.088 254.43C178.441 254.43 176.847 254.107 175.308 253.463C173.786 252.8 172.416 251.843 171.199 250.589C169.999 249.336 169.05 247.796 168.352 245.97C167.672 244.126 167.34 242.031 167.358 239.686C167.323 236.535 167.904 233.858 169.104 231.656C170.321 229.454 171.915 227.771 173.884 226.607C175.854 225.444 177.957 224.862 180.195 224.862C182.612 224.862 184.752 225.497 186.614 226.769C188.494 228.04 189.962 229.785 191.018 232.005C192.092 234.208 192.638 236.714 192.656 239.525C192.638 242.336 192.083 244.869 190.991 247.125C189.899 249.381 188.404 251.162 186.506 252.469C184.626 253.776 182.487 254.43 180.088 254.43ZM181.404 248.951C182.908 248.951 184.242 248.548 185.405 247.743C186.569 246.937 187.482 245.836 188.145 244.439C188.807 243.025 189.147 241.414 189.165 239.605C189.147 237.672 188.798 236.016 188.118 234.637C187.437 233.259 186.515 232.202 185.352 231.468C184.188 230.716 182.899 230.349 181.484 230.367C179.963 230.349 178.602 230.725 177.402 231.495C176.221 232.265 175.299 233.348 174.636 234.745C173.974 236.123 173.652 237.743 173.669 239.605C173.652 241.414 173.965 243.025 174.609 244.439C175.272 245.836 176.194 246.937 177.375 247.743C178.557 248.548 179.9 248.951 181.404 248.951ZM214.302 265.709C212.082 265.709 210.005 265.423 208.071 264.85C206.156 264.277 204.634 263.668 203.506 263.023L205.735 257.76C206.63 258.386 207.812 258.95 209.28 259.452C210.748 259.953 212.243 260.204 213.765 260.204C215.054 260.204 216.37 259.971 217.712 259.505C219.073 259.04 220.219 258.288 221.15 257.25C222.081 256.211 222.546 254.833 222.546 253.114V249.864H221.687L222.788 247.206V231.388L221.15 228.514H222.6V225.345H228.616V252.765C228.616 254.985 228.231 256.9 227.461 258.512C226.709 260.141 225.671 261.484 224.346 262.54C223.021 263.614 221.49 264.411 219.753 264.93C218.035 265.449 216.217 265.709 214.302 265.709ZM213.711 253.839C212.064 253.839 210.479 253.517 208.958 252.872C207.436 252.228 206.066 251.288 204.849 250.052C203.631 248.817 202.664 247.304 201.948 245.514C201.25 243.705 200.901 241.646 200.901 239.337C200.901 236.257 201.519 233.644 202.754 231.495C204.007 229.347 205.627 227.717 207.615 226.607C209.602 225.479 211.715 224.916 213.953 224.916C216.388 224.916 218.527 225.533 220.371 226.769C222.233 228.004 223.683 229.696 224.722 231.844C225.76 233.975 226.279 236.383 226.279 239.068C226.279 241.826 225.733 244.323 224.641 246.561C223.549 248.781 222.054 250.554 220.156 251.878C218.276 253.185 216.128 253.839 213.711 253.839ZM215.027 248.36C216.513 248.36 217.838 247.975 219.001 247.206C220.165 246.418 221.078 245.335 221.741 243.956C222.403 242.577 222.734 240.993 222.734 239.203C222.734 237.394 222.403 235.828 221.741 234.503C221.078 233.178 220.165 232.158 219.001 231.441C217.856 230.707 216.54 230.34 215.054 230.34C213.532 230.34 212.18 230.716 210.999 231.468C209.817 232.202 208.895 233.241 208.232 234.583C207.57 235.908 207.239 237.457 207.239 239.229C207.239 241.002 207.57 242.577 208.232 243.956C208.895 245.317 209.808 246.391 210.972 247.179C212.153 247.966 213.505 248.36 215.027 248.36ZM248.14 254.43C245.239 254.43 242.706 253.812 240.54 252.577C238.373 251.323 236.681 249.587 235.464 247.367C234.246 245.147 233.638 242.586 233.638 239.686C233.638 236.678 234.246 234.073 235.464 231.871C236.681 229.669 238.319 227.968 240.378 226.769C242.437 225.551 244.72 224.942 247.227 224.942C249.626 224.942 251.792 225.497 253.726 226.607C255.677 227.717 257.226 229.266 258.372 231.253C259.517 233.223 260.09 235.532 260.09 238.182C260.09 238.862 260.055 239.498 259.983 240.089C259.911 240.68 259.822 241.271 259.714 241.861H238.391V237.376H254.155C254.155 236.016 253.869 234.807 253.296 233.751C252.723 232.677 251.917 231.835 250.879 231.227C249.84 230.6 248.623 230.287 247.227 230.287C245.651 230.287 244.272 230.681 243.091 231.468C241.927 232.238 241.014 233.321 240.352 234.718C239.707 236.096 239.385 237.708 239.385 239.552C239.385 241.432 239.734 243.088 240.432 244.52C241.148 245.952 242.151 247.071 243.44 247.877C244.747 248.683 246.296 249.085 248.086 249.085C249.106 249.085 250.073 248.96 250.986 248.709C251.899 248.459 252.732 248.137 253.484 247.743C254.236 247.331 254.88 246.901 255.417 246.454L257.593 251.664C256.465 252.469 255.077 253.132 253.43 253.651C251.801 254.17 250.037 254.43 248.14 254.43ZM274.163 254.43C272.444 254.43 270.85 254.116 269.382 253.49C267.914 252.863 266.652 252.031 265.596 250.992C264.557 249.936 263.805 248.79 263.34 247.555L268.711 245.245C269.105 246.248 269.794 247.143 270.779 247.931C271.781 248.718 272.909 249.112 274.163 249.112C274.932 249.112 275.64 248.969 276.284 248.683C276.929 248.378 277.448 247.975 277.842 247.474C278.236 246.973 278.433 246.418 278.433 245.809C278.433 245.129 278.2 244.547 277.734 244.063C277.287 243.562 276.714 243.141 276.016 242.801C275.335 242.461 274.619 242.175 273.867 241.942C273.133 241.709 272.489 241.503 271.934 241.324C270.716 240.948 269.508 240.429 268.308 239.767C267.126 239.104 266.142 238.236 265.354 237.162C264.566 236.069 264.172 234.7 264.172 233.053C264.172 231.388 264.602 229.946 265.461 228.729C266.321 227.494 267.467 226.554 268.899 225.909C270.331 225.247 271.916 224.916 273.652 224.916C276.051 224.916 278.119 225.497 279.856 226.661C281.593 227.807 282.819 229.186 283.535 230.797L278.271 232.999C277.913 232.337 277.376 231.692 276.66 231.065C275.944 230.439 274.995 230.125 273.813 230.125C272.793 230.125 271.916 230.394 271.182 230.931C270.465 231.45 270.107 232.184 270.107 233.133C270.107 233.939 270.367 234.592 270.886 235.094C271.423 235.577 272.131 235.989 273.008 236.329C273.885 236.651 274.834 236.983 275.854 237.323C276.606 237.556 277.457 237.869 278.406 238.263C279.373 238.639 280.304 239.14 281.199 239.767C282.112 240.393 282.855 241.19 283.428 242.157C284.019 243.106 284.314 244.269 284.314 245.648C284.314 247.367 283.848 248.889 282.917 250.213C281.986 251.538 280.751 252.577 279.211 253.329C277.672 254.063 275.989 254.43 274.163 254.43ZM292.478 254.43C291.314 254.43 290.321 254.027 289.497 253.221C288.691 252.398 288.289 251.404 288.289 250.24C288.289 249.076 288.691 248.092 289.497 247.286C290.321 246.48 291.314 246.078 292.478 246.078C293.642 246.078 294.626 246.48 295.432 247.286C296.238 248.092 296.641 249.076 296.641 250.24C296.641 251.404 296.238 252.398 295.432 253.221C294.626 254.027 293.642 254.43 292.478 254.43Z" fill="#0B3558"/>
</svg>
