<svg width="700" height="609" viewBox="0 0 700 609" fill="none" xmlns="http://www.w3.org/2000/svg">
<g clip-path="url(#clip0_722_21902)">
<path d="M327.648 598.486C327.897 598.497 328.144 598.432 328.354 598.299C328.565 598.165 328.73 597.97 328.826 597.74C328.922 597.51 328.945 597.256 328.892 597.012C328.839 596.768 328.712 596.547 328.529 596.378L328.446 596.046L328.479 595.967C328.73 595.374 329.151 594.868 329.688 594.514C330.225 594.159 330.855 593.971 331.499 593.974C332.143 593.976 332.772 594.169 333.307 594.527C333.841 594.886 334.258 595.394 334.505 595.989C335.49 598.363 336.745 600.74 337.054 603.25C337.19 604.359 337.132 605.484 336.884 606.574C339.199 601.524 340.401 596.036 340.409 590.482C340.409 589.088 340.332 587.695 340.177 586.31C340.048 585.175 339.871 584.047 339.643 582.928C338.403 576.854 335.739 571.161 331.871 566.317C329.999 565.295 328.485 563.725 327.533 561.816C327.188 561.13 326.945 560.398 326.81 559.642C327.22 558.56 327.435 557.414 327.447 556.256C327.741 555.81 328.268 555.588 328.589 555.152C330.188 552.984 332.39 553.363 333.54 556.308C335.996 557.548 336.02 559.604 334.513 561.581C333.554 562.839 333.422 564.541 332.581 565.888C332.667 565.998 332.757 566.106 332.844 566.216C334.426 568.251 335.805 570.436 336.961 572.739C336.68 570.158 337.015 567.548 337.94 565.122C338.877 562.862 340.633 560.958 342.18 559.004C342.589 558.479 343.145 558.087 343.777 557.878C344.408 557.668 345.088 557.651 345.73 557.828C346.371 558.005 346.946 558.368 347.381 558.871C347.816 559.375 348.093 559.996 348.175 560.657L348.184 560.743C347.955 560.873 347.73 561.01 347.51 561.156C347.233 561.34 347.019 561.604 346.895 561.913C346.771 562.221 346.744 562.56 346.815 562.884C346.887 563.209 347.056 563.504 347.298 563.732C347.541 563.959 347.846 564.108 348.175 564.158L348.208 564.163C348.127 564.991 347.982 565.812 347.776 566.618C349.76 574.292 345.476 577.086 339.359 577.212C339.224 577.281 339.093 577.35 338.958 577.416C340.119 580.708 340.848 584.136 341.125 587.615C341.282 589.668 341.273 591.73 341.097 593.781L341.108 593.709C341.551 591.428 342.768 589.37 344.553 587.882C347.204 585.704 350.949 584.902 353.809 583.152C354.113 582.957 354.466 582.853 354.827 582.852C355.188 582.851 355.542 582.953 355.847 583.147C356.152 583.341 356.395 583.618 356.548 583.945C356.701 584.272 356.757 584.636 356.709 584.994L356.697 585.071C356.271 585.244 355.856 585.444 355.455 585.67C355.225 585.799 355 585.937 354.78 586.082C354.503 586.267 354.289 586.531 354.165 586.839C354.042 587.148 354.014 587.487 354.086 587.811C354.158 588.136 354.326 588.431 354.568 588.658C354.811 588.886 355.117 589.034 355.445 589.085L355.479 589.09L355.548 589.101C354.82 590.84 353.797 592.441 352.526 593.833C351.285 600.532 345.956 601.167 340.256 599.217H340.253C339.627 601.934 338.721 604.58 337.549 607.11H327.89C327.855 607.003 327.824 606.892 327.793 606.785C328.687 606.841 329.584 606.787 330.466 606.625C329.749 605.746 329.032 604.86 328.316 603.981C328.3 603.964 328.285 603.947 328.271 603.929C327.907 603.479 327.54 603.032 327.177 602.582C327.157 601.202 327.316 599.825 327.648 598.486Z" fill="#F2F2F2"/>
<path d="M86.983 598.486C86.7339 598.497 86.4872 598.432 86.2765 598.299C86.0658 598.165 85.9012 597.97 85.8049 597.74C85.7087 597.51 85.6856 597.256 85.7386 597.012C85.7916 596.768 85.9183 596.547 86.1015 596.378L86.1848 596.046L86.1517 595.967C85.9007 595.374 85.4801 594.868 84.9428 594.514C84.4054 594.159 83.7753 593.971 83.1315 593.974C82.4877 593.976 81.8589 594.169 81.3242 594.527C80.7895 594.886 80.3727 595.394 80.1261 595.989C79.1406 598.363 77.8859 600.74 77.577 603.25C77.4409 604.359 77.4983 605.484 77.7466 606.574C75.4319 601.524 74.23 596.036 74.2222 590.482C74.2218 589.088 74.2992 587.695 74.4542 586.31C74.5823 585.175 74.7601 584.047 74.9874 582.928C76.228 576.854 78.8917 571.161 82.7597 566.317C84.6318 565.295 86.1457 563.725 87.0976 561.816C87.4424 561.13 87.6862 560.398 87.8212 559.642C87.411 558.56 87.1953 557.414 87.1842 556.256C86.8899 555.81 86.3631 555.588 86.0417 555.152C84.4431 552.984 82.2407 553.363 81.091 556.308C78.6348 557.548 78.611 559.604 80.1181 561.581C81.0769 562.839 81.2087 564.541 82.05 565.888C81.9634 565.998 81.8734 566.106 81.7869 566.216C80.2047 568.251 78.8257 570.436 77.6697 572.739C77.9508 570.158 77.6153 567.548 76.6907 565.122C75.7536 562.862 73.9973 560.958 72.4506 559.004C72.0415 558.479 71.4859 558.087 70.8542 557.878C70.2224 557.668 69.5428 557.651 68.9012 557.828C68.2596 558.005 67.6848 558.368 67.2496 558.871C66.8143 559.375 66.538 559.996 66.4558 560.657L66.4465 560.743C66.6762 560.873 66.9011 561.01 67.1211 561.156C67.3975 561.34 67.6117 561.604 67.7356 561.913C67.8595 562.221 67.8873 562.56 67.8154 562.884C67.7434 563.209 67.5752 563.504 67.3326 563.732C67.09 563.959 66.7845 564.108 66.4559 564.158L66.4223 564.163C66.5041 564.991 66.6488 565.812 66.855 566.618C64.8708 574.292 69.1546 577.086 75.2713 577.212C75.4063 577.281 75.5378 577.35 75.6729 577.416C74.5114 580.708 73.7829 584.136 73.5056 587.615C73.3486 589.668 73.3579 591.73 73.5333 593.781L73.5229 593.709C73.0798 591.428 71.863 589.37 70.0782 587.882C67.4273 585.704 63.682 584.902 60.8222 583.152C60.5182 582.957 60.1648 582.853 59.8036 582.852C59.4425 582.851 59.0886 582.953 58.7837 583.147C58.4788 583.341 58.2357 583.618 58.0829 583.945C57.9302 584.272 57.8742 584.636 57.9217 584.994L57.9334 585.071C58.3597 585.244 58.7748 585.444 59.1763 585.67C59.406 585.799 59.6309 585.937 59.8509 586.082C60.1273 586.267 60.3415 586.531 60.4653 586.839C60.5892 587.148 60.617 587.487 60.5451 587.811C60.4732 588.136 60.3049 588.431 60.0624 588.658C59.8198 588.886 59.5142 589.034 59.1857 589.085L59.152 589.09L59.0828 589.101C59.8112 590.84 60.8336 592.441 62.1051 593.833C63.3458 600.532 68.6745 601.167 74.3746 599.217H74.3781C75.0035 601.934 75.9097 604.58 77.082 607.11H86.741C86.7757 607.003 86.8069 606.892 86.8381 606.785C85.944 606.841 85.0464 606.787 84.1653 606.625C84.882 605.746 85.5986 604.86 86.3153 603.981C86.3312 603.964 86.3463 603.947 86.3603 603.929C86.7238 603.479 87.0908 603.032 87.4543 602.582C87.4737 601.202 87.3151 599.825 86.983 598.486Z" fill="#F2F2F2"/>
<path d="M232.965 79.4778C234.919 75.5433 238.042 72.2766 239.953 68.3207C241.863 64.3648 242.235 59.0701 239.052 56.0422C236.349 53.4712 232.116 53.4352 228.884 51.573C220.65 46.8286 220.659 31.7593 211.245 30.4572C206.668 29.824 202.526 33.2569 199.759 36.9582C196.993 40.6596 194.788 44.9786 190.951 47.5537C186.607 50.4688 180.992 50.5956 176.168 52.6204C166.92 56.5025 162.072 66.4849 158.018 75.6588C155.406 81.5686 152.735 87.9429 153.947 94.2894C151.313 95.9283 152.487 100.336 155.116 101.983C157.745 103.629 161.046 103.592 164.065 104.306C170.41 105.805 175.606 110.855 178.069 116.892C179.988 121.597 180.381 126.762 180.751 131.83C181.394 140.624 182.037 149.418 182.679 158.212C182.965 162.124 183.341 166.282 185.722 169.4C188.103 172.517 193.26 173.823 195.937 170.956C198.496 168.215 197.343 163.877 197.291 160.128C197.24 156.38 200.628 151.712 203.823 153.673L204.95 151.116C212.248 148.503 218.639 143.842 223.357 137.691C228.075 131.541 230.92 124.161 231.553 116.435C232.369 103.99 227.417 90.647 232.965 79.4778Z" fill="#E6E6E6"/>
<path d="M240.423 158.39C241.128 157.725 241.628 156.873 241.864 155.934C242.101 154.994 242.064 154.007 241.758 153.088C241.451 152.169 240.889 151.357 240.136 150.747C239.383 150.137 238.472 149.756 237.509 149.647L237.521 150.069C236.148 150.871 234.581 151.283 232.991 151.26C231.406 151.235 229.829 151.485 228.329 151.998C227.584 152.27 226.938 152.76 226.476 153.405C226.015 154.051 225.76 154.82 225.744 155.613C225.831 156.221 226.064 156.799 226.422 157.298C226.78 157.797 227.253 158.202 227.802 158.479C228.902 159.021 230.084 159.38 231.3 159.541C234.434 160.131 238.102 160.577 240.423 158.39Z" fill="#E6E6E6"/>
<path d="M301.539 79.6864C302.852 78.7937 303.966 77.6397 304.813 76.2966C305.223 75.617 305.418 74.8293 305.373 74.0369C305.327 73.2444 305.043 72.4843 304.558 71.8562C303.569 70.9988 302.298 70.5394 300.99 70.5673C297.438 70.3021 293.868 70.723 290.475 71.8072C293.959 74.8938 297.442 77.9804 300.926 81.0671L301.539 79.6864Z" fill="#E6E6E6"/>
<path d="M284.116 87.7139C285.524 89.2681 285.075 91.6791 284.677 93.7382C284.278 95.7973 284.227 98.3704 285.998 99.4937C287.533 100.467 289.688 99.6728 290.811 98.2432C291.815 96.7185 292.426 94.9694 292.591 93.1514C293.143 90.5091 293.392 87.8127 293.334 85.1141C293.268 82.3954 292.308 79.774 290.605 77.6542C289.395 76.2757 287.785 75.3101 285.999 74.8929C284.214 74.4758 282.342 74.6279 280.647 75.3279L282.266 75.2481C281.089 76.759 280.197 78.4712 279.633 80.3012C279.363 81.2206 279.344 82.1955 279.577 83.1248C279.811 84.054 280.29 84.9036 280.963 85.5854C281.924 86.4211 283.261 86.7705 284.116 87.7139Z" fill="#E6E6E6"/>
<path d="M363.536 61.6461L363.824 60.7598C362.62 61.4561 361.692 62.5447 361.195 63.8434C360.699 65.142 360.663 66.5719 361.094 67.8938C362.02 67.1636 362.735 66.1997 363.164 65.1015C363.593 64.0033 363.722 62.8105 363.536 61.6461Z" fill="#E6E6E6"/>
<path d="M347.891 74.332C349.424 73.4641 350.732 72.2493 351.71 70.7848C352.689 69.3204 353.31 67.647 353.526 65.899C353.692 64.8121 353.566 63.7006 353.161 62.6783C352.953 62.1708 352.623 61.7225 352.2 61.3733C351.777 61.0241 351.275 60.7849 350.737 60.6768L350.082 61.7085C349.141 60.8995 347.563 61.7315 347.167 62.9071C346.912 64.1277 347.018 65.3962 347.472 66.5575C347.925 67.7259 347.905 69.0249 347.415 70.1783C346.886 70.8566 346.292 71.481 345.641 72.0421C345.322 72.3318 345.114 72.7231 345.052 73.1491C344.991 73.5751 345.079 74.0093 345.302 74.3775C345.919 75.0821 347.073 74.7864 347.891 74.332Z" fill="#E6E6E6"/>
<path d="M341.221 68.5684C341.782 67.5587 342.046 66.4111 341.984 65.2577L340.551 64.8081C339.634 65.1796 338.822 65.7674 338.182 66.5212C337.988 66.716 337.839 66.9513 337.747 67.2103C337.654 67.4693 337.62 67.7456 337.646 68.0193C337.673 68.2931 337.76 68.5576 337.901 68.7938C338.042 69.0301 338.233 69.2323 338.461 69.386C338.689 69.5397 338.948 69.6411 339.22 69.6828C339.492 69.7246 339.77 69.7057 340.034 69.6276C340.297 69.5494 340.54 69.414 340.746 69.2309C340.951 69.0477 341.113 68.8215 341.221 68.5684Z" fill="#E6E6E6"/>
<path d="M411.287 61.314C411.417 61.4225 411.546 61.5341 411.675 61.6437C411.789 61.6197 411.898 61.5766 412.015 61.5624L411.287 61.314Z" fill="#E6E6E6"/>
<path d="M408.99 73.8945C410.306 72.8298 411.622 71.7651 412.938 70.7005C413.637 70.2057 414.233 69.5793 414.692 68.8563C415.006 68.1718 415.142 67.419 415.086 66.668C415.03 65.917 414.786 65.1924 414.374 64.5616C413.646 63.4434 412.733 62.4568 411.675 61.6436C410.513 61.9187 409.492 62.6105 408.805 63.588C408.119 64.5655 407.815 65.7608 407.95 66.9476C408.188 68.4571 409.136 70.0713 408.362 71.3891C408.061 71.9022 407.543 72.2515 407.195 72.7347C406.848 73.2178 406.735 73.9872 407.212 74.3425C407.742 74.7369 408.476 74.31 408.99 73.8945Z" fill="#E6E6E6"/>
<path d="M411.868 80.4118C412.357 80.438 412.846 80.3587 413.302 80.1792C413.758 79.9997 414.171 79.7242 414.511 79.3715C416.27 77.9299 417.809 76.2389 419.079 74.3521C416.118 75.2901 413.157 76.2281 410.195 77.166L411.118 78.2457C410.298 78.7809 410.906 80.2276 411.868 80.4118Z" fill="#E6E6E6"/>
<path d="M420.168 86.507C420.349 86.9689 420.676 87.3588 421.099 87.6173C421.522 87.8757 422.018 87.9884 422.512 87.9381C423.003 87.8726 423.474 87.7002 423.892 87.433C424.309 87.1657 424.663 86.8102 424.928 86.3914C425.378 85.7276 425.643 84.9556 425.695 84.1552C425.746 83.3549 425.583 82.5552 425.223 81.839C424.862 81.1227 424.316 80.5159 423.642 80.0813C422.968 79.6466 422.19 79.3999 421.389 79.3667L422.206 80.6158C422.415 82.748 419.516 84.4662 420.168 86.507Z" fill="#E6E6E6"/>
<path d="M477.681 109.86C478.482 110.457 479.455 110.779 480.454 110.777C481.453 110.774 482.425 110.448 483.223 109.847C483.74 109.405 484.161 108.861 484.458 108.248C484.756 107.636 484.924 106.969 484.951 106.29C484.979 105.61 484.866 104.931 484.62 104.297C484.373 103.663 483.998 103.086 483.518 102.604L482.006 103.448C481.167 102.909 480.152 102.716 479.174 102.91C478.196 103.105 477.331 103.671 476.762 104.49C476.251 105.348 476.064 106.36 476.232 107.344C476.401 108.328 476.914 109.22 477.681 109.86Z" fill="#E6E6E6"/>
<path d="M495.268 111.851C496.005 111.637 496.674 111.238 497.212 110.691C497.75 110.144 498.139 109.469 498.341 108.729L495.401 108.342C494.583 107.725 493.631 107.309 492.622 107.129C492.116 107.053 491.599 107.153 491.159 107.413C490.718 107.673 490.38 108.076 490.201 108.555C490.138 108.963 490.181 109.38 490.325 109.766C490.47 110.153 490.711 110.496 491.025 110.763C491.58 111.292 492.262 111.67 493.005 111.861C493.748 112.051 494.527 112.048 495.268 111.851Z" fill="#E6E6E6"/>
<path d="M483.126 117.729C483.178 118.208 483.365 118.661 483.665 119.037C483.965 119.413 484.366 119.696 484.821 119.853C485.318 120.089 485.874 120.17 486.418 120.086C486.961 120.001 487.467 119.756 487.869 119.381C488.047 119.18 488.174 118.94 488.24 118.681C488.307 118.422 488.31 118.15 488.25 117.889C488.191 117.628 488.069 117.385 487.897 117.18C487.724 116.976 487.506 116.815 487.258 116.712L485.053 116.311C484.202 115.869 483.112 116.77 483.126 117.729Z" fill="#E6E6E6"/>
<path d="M355.183 133.234L353.477 131.675C353.931 132.308 354.512 132.839 355.183 133.234Z" fill="#E6E6E6"/>
<path d="M342.148 124.057C343.198 128.937 348.454 132.912 353.225 131.446L353.477 131.675C351.958 129.596 351.7 126.52 352.055 123.845C352.713 119.261 354.515 114.917 357.295 111.213C360.075 107.509 363.743 104.565 367.961 102.653C369.116 102.292 370.149 101.619 370.946 100.708C371.625 99.7135 371.372 98.0084 370.2 97.7275C369.564 97.6548 368.922 97.8034 368.382 98.1485L359.515 102.512C355.037 104.716 350.47 106.983 346.952 110.525C343.435 114.066 341.097 119.178 342.148 124.057Z" fill="#E6E6E6"/>
<path d="M199.026 291.84C190.765 285.926 181.717 281.197 172.145 277.792C166.262 275.701 159.94 274.105 153.81 275.293C150.449 275.988 147.299 277.466 144.616 279.608C141.933 281.75 139.793 284.494 138.37 287.618C136.999 290.764 136.355 294.179 136.484 297.609C136.613 301.039 137.513 304.395 139.117 307.429C141.944 312.727 146.839 316.945 148.476 322.722C149.579 326.617 149.056 330.763 148.525 334.776C147.44 342.976 146.355 351.177 145.269 359.377C144.281 366.843 143.319 374.613 145.682 381.764C148.046 388.914 154.792 395.217 162.285 394.458L163.769 394.346C158.813 390.976 157.424 383.998 158.899 378.189C160.375 372.379 164.121 367.453 167.778 362.704C178.631 348.612 189.483 334.52 200.336 320.427C204.727 314.726 209.371 307.678 207.03 300.873C205.699 297.005 202.352 294.222 199.026 291.84Z" fill="#E6E6E6"/>
<path d="M125.065 256.214C123.966 255.842 122.805 256.67 122.159 257.634C121.636 258.669 121.023 259.655 120.325 260.581C118.634 262.324 115.553 261.978 113.73 260.375C111.907 258.771 111.117 256.292 110.763 253.89C110.338 251.008 110.522 247.792 112.424 245.586C114.382 243.314 117.6 242.705 120.562 242.233C123.621 241.746 127.049 241.339 129.555 243.16C131.134 244.307 132.054 246.157 133.516 247.449C134.979 248.741 137.58 249.23 138.68 247.619C138.969 247.048 139.114 246.416 139.105 245.776C139.096 245.137 138.932 244.509 138.628 243.946C138.009 242.826 137.637 241.586 137.536 240.31C137.61 238.539 139.032 237.131 140.487 236.119C141.942 235.106 143.586 234.233 144.54 232.739C145.715 230.902 145.59 228.535 146.318 226.48C148.081 221.506 154.374 219.293 156.207 214.345C156.648 213.304 156.698 212.138 156.346 211.063C155.579 209.092 153.506 209.479 153.378 207.069C153.257 204.765 155.179 202.505 157.132 201.542C159.826 200.215 162.965 200.323 165.967 200.242C168.968 200.162 172.201 199.763 174.404 197.722C175.117 196.987 175.666 196.11 176.017 195.148C176.367 194.186 176.511 193.161 176.438 192.14C176.365 191.119 176.077 190.125 175.593 189.222C175.109 188.32 174.441 187.53 173.63 186.904C171.989 185.771 169.914 185.376 168.318 184.181C166.328 182.693 165.387 180.214 163.838 178.272C162.549 176.793 161.074 175.487 159.45 174.387C158.121 173.401 156.792 172.414 155.462 171.428C153.059 169.645 150.559 167.816 147.635 167.181C144.71 166.546 141.228 167.445 139.764 170.054C139.186 171.217 138.87 172.493 138.839 173.791C138.706 176.848 138.833 179.91 139.22 182.945C139.462 185.388 139.703 187.831 139.945 190.274C140.161 192.464 139.929 195.351 137.803 195.919C133.086 197.18 134.678 190.207 133.632 188.07C132.031 184.8 124.675 183.23 121.53 181.867C119.566 181.016 117.493 180.077 116.307 178.295C114.831 176.077 115.134 173.059 116.292 170.659C117.449 168.26 119.335 166.307 121.048 164.267C122.795 162.187 124.385 159.982 125.973 157.779C127.816 155.225 129.658 152.67 131.5 150.116C133.863 146.839 136.347 142.841 135.005 139.031C134.714 138.521 134.279 138.108 133.755 137.845C133.23 137.581 132.64 137.478 132.057 137.548C131.475 137.618 130.926 137.859 130.479 138.239C130.033 138.62 129.708 139.124 129.547 139.689C128.959 141.745 130.528 144.372 129.027 145.896C128.513 146.31 127.869 146.53 127.209 146.518C126.549 146.506 125.914 146.261 125.416 145.828C124.443 144.93 123.703 143.811 123.257 142.564C121.439 138.523 119.667 134.456 117.8 130.436C117.21 129.166 116.594 126.99 114.805 127.204C113.252 127.39 112.414 129.653 112.468 130.966C112.546 132.878 113.603 134.585 114.41 136.32C115.218 138.054 115.782 140.136 114.896 141.831C113.773 143.977 110.93 144.459 108.51 144.389C103.946 144.25 99.475 143.071 95.4376 140.939C95.3322 143.182 95.2267 145.425 95.1212 147.668C91.9078 146.323 88.6944 144.978 85.481 143.633C84.8569 143.372 84.2328 143.111 83.6087 142.849C80.8981 141.715 78.1841 140.579 75.3936 139.658C73.8094 139.135 72.2033 138.682 70.5976 138.23C69.6216 137.954 68.6455 137.679 67.6695 137.404C65.7435 136.722 63.7007 136.43 61.6607 136.547C59.5174 136.816 57.6057 137.967 55.6236 138.828C51.2012 140.748 45.4812 138.816 40.7421 138.782C38.8623 136.038 36.3244 133.809 33.3605 132.298C30.3966 130.788 27.1014 130.045 23.7762 130.137C20.451 130.229 17.202 131.154 14.3263 132.826C11.4506 134.498 9.04002 136.864 7.31503 139.708C6.48182 141.149 5.7398 142.641 5.09335 144.175C4.45034 145.616 3.80732 147.057 3.16428 148.498C2.22098 150.612 1.25687 152.839 1.44228 155.147C1.62769 157.454 3.39655 159.811 5.71127 159.791C0.252963 162.262 -0.882843 170.909 3.75217 174.706C5.03562 175.757 6.60946 176.445 7.76443 177.636C8.63737 178.536 9.22137 179.677 9.4415 180.911C9.66162 182.146 9.50783 183.418 8.99985 184.564C8.49187 185.711 7.65287 186.679 6.59055 187.346C5.52822 188.012 4.29104 188.345 3.03775 188.304C6.27145 189.553 9.83337 189.67 13.1417 188.633C16.45 187.597 19.3091 185.47 21.252 182.598C23.2336 179.496 24.0949 175.62 26.7906 173.112C30.3607 169.792 36.2576 170.05 40.3752 172.661C44.4928 175.271 47.0976 179.717 48.8894 184.251C51.2374 190.193 52.7401 196.983 57.7424 200.958C60.1611 202.88 63.2242 203.961 65.3621 206.191C68.4066 209.367 68.9334 214.16 68.8647 218.559C68.796 222.958 68.3223 227.522 69.9247 231.619C71.5271 235.717 76.121 239.087 80.2404 237.542C79.0603 241.043 79.0965 244.841 80.3431 248.319C81.5897 251.797 83.9738 254.753 87.1093 256.707C86.3588 252.052 85.6083 247.397 84.8578 242.742C88.5984 243.795 91.0229 247.423 92.423 251.048C93.8232 254.673 94.563 258.593 96.5925 261.907C99.7885 267.126 105.576 269.374 111.463 269.354C117.823 269.333 120.238 266.301 124.429 261.835C125.271 261.073 125.91 260.113 126.289 259.043C126.46 258.503 126.43 257.92 126.205 257.4C125.98 256.88 125.576 256.459 125.065 256.214Z" fill="#E6E6E6"/>
<path d="M143.074 255.983C139.519 255.424 135.964 254.865 132.409 254.307C134.273 255.427 136.136 256.547 138 257.668C139.554 258.702 141.243 259.516 143.021 260.087C143.912 260.367 144.851 260.461 145.781 260.363C146.71 260.266 147.609 259.978 148.422 259.518L147.967 258.648C147.25 256.836 144.999 256.286 143.074 255.983Z" fill="#E6E6E6"/>
<path d="M140.659 275.743L140.683 275.681C140.468 275.325 140.152 275.041 139.774 274.866C139.396 274.69 138.975 274.632 138.564 274.699C137.745 274.845 136.908 274.859 136.085 274.739C135.562 274.534 135.095 274.208 134.724 273.786C134.354 273.365 134.089 272.861 133.953 272.316C133.6 271.253 133.495 270.115 133.093 269.07C132.802 268.243 132.289 267.512 131.609 266.958C130.93 266.404 130.111 266.048 129.243 265.93C128.371 265.86 127.507 266.136 126.838 266.698C126.168 267.26 125.746 268.063 125.664 268.933C125.732 269.829 126.017 270.696 126.494 271.458C126.877 272.195 127.261 272.933 127.644 273.67C127.967 274.331 128.339 274.967 128.756 275.573C129.435 276.508 130.323 277.272 131.348 277.805C132.374 278.337 133.51 278.622 134.665 278.639C135.821 278.655 136.964 278.402 138.004 277.899C139.045 277.397 139.954 276.658 140.659 275.743Z" fill="#E6E6E6"/>
<path d="M119.898 86.5682C122.604 88.164 125.994 89.2638 127.28 92.1308L128.022 92.3705C127.213 93.3762 126.404 94.3819 125.594 95.3875C124.594 96.6303 123.542 98.0151 123.566 99.6102C123.598 101.807 125.711 103.464 127.846 103.982C130.125 104.451 132.496 104.057 134.5 102.875C136.504 101.694 137.998 99.8105 138.691 97.5901C138.945 96.664 139.05 95.7035 139.272 94.7695C139.921 92.5542 140.901 90.4496 142.178 88.5267C149.366 76.434 156.554 64.3413 163.742 52.2487C164.637 50.7427 165.56 48.9411 164.887 47.3237C164.527 46.6395 163.972 46.0786 163.291 45.7132C162.61 45.3479 161.835 45.1947 161.066 45.2736C159.532 45.4599 158.052 45.9576 156.718 46.7361C156.125 45.6944 155.288 44.8122 154.278 44.1652C153.269 43.5183 152.118 43.1259 150.924 43.0219C148.536 42.8376 146.134 43.0468 143.814 43.6411C138.573 44.432 133.518 46.1683 128.897 48.7655C126.369 50.0435 123.587 51.6218 122.854 54.3579C121.952 57.7235 124.859 61.1536 128.207 62.1208C131.554 63.0881 135.127 62.2758 138.515 61.4616C138.898 63.104 138.739 64.8263 138.06 66.3703C137.382 67.9144 136.222 69.197 134.753 70.026C133.285 70.855 131.587 71.1857 129.914 70.9686C128.242 70.7515 126.685 69.9982 125.477 68.8216C123.048 66.4569 121.859 62.3518 118.524 61.7415C115.201 61.1332 112.559 64.6782 111.825 67.9765C111.108 71.5291 111.497 75.2162 112.94 78.5406C114.384 81.865 116.812 84.6669 119.898 86.5682Z" fill="#E6E6E6"/>
<path d="M161.586 144.756C159.985 140.245 157.881 135.928 155.314 131.887C153.369 128.692 150.967 125.798 148.186 123.297C145.644 121.102 142.722 119.39 139.565 118.247C136.5 117.138 133.087 116.591 129.989 117.601C126.89 118.612 124.254 121.493 124.317 124.752C124.386 128.355 127.539 131.173 130.824 132.653C134.11 134.134 137.765 134.778 140.865 136.616C142.972 137.895 144.734 139.671 145.994 141.789C147.254 143.908 147.975 146.303 148.093 148.766L148.873 150.057C147.105 150.643 145.455 151.541 144.003 152.708C143.284 153.302 142.734 154.075 142.409 154.949C142.085 155.822 141.996 156.767 142.153 157.686C142.695 159.868 144.923 161.12 146.937 162.117C150.66 163.961 154.382 165.805 158.104 167.648C156.209 161.997 162.414 156.738 162.758 150.787C162.771 148.719 162.372 146.669 161.586 144.756Z" fill="#E6E6E6"/>
<path d="M67.9882 129.497C70.2463 131.251 73.7181 130.43 75.7867 128.457C77.8553 126.483 78.8628 123.675 79.8024 120.975C79.4592 123.647 79.4917 126.355 79.8989 129.019C80.111 130.351 80.5973 131.624 81.327 132.758C82.0567 133.893 83.014 134.863 84.1382 135.608C85.1589 136.168 86.2592 136.569 87.401 136.796C92.7088 138.004 98.2558 137.608 103.338 135.657L103.384 133.92C100.83 134.211 98.8985 131.411 98.7299 128.847C98.5614 126.283 99.4919 123.768 99.5737 121.2C99.6556 118.631 98.4177 115.631 95.8891 115.174C96.3316 116.062 96.493 117.065 96.3518 118.048C96.2105 119.031 95.7733 119.947 95.0983 120.676C94.4233 121.404 93.5425 121.909 92.5732 122.124C91.6038 122.34 90.5919 122.255 89.6721 121.881C86.7451 120.691 85.6818 117.125 83.4199 114.919C82.0224 113.676 80.2884 112.874 78.4362 112.613C76.5839 112.352 74.6959 112.645 73.0097 113.455C71.3448 114.304 69.8842 115.505 68.7288 116.974C67.5735 118.444 66.7509 120.146 66.3179 121.964C65.631 124.603 65.8349 127.825 67.9882 129.497Z" fill="#E6E6E6"/>
<path d="M137.677 111.197L137.782 111.027C137.152 109.207 135.198 108.139 133.291 107.868C131.368 107.741 129.438 107.805 127.527 108.059C125.6 108.308 123.646 107.878 122.001 106.842C120.688 105.86 119.94 104.316 118.891 103.057C117.841 101.798 116.143 100.762 114.618 101.365C112.967 102.016 112.527 104.33 113.328 105.913C114.272 107.433 115.695 108.595 117.373 109.215C123.728 112.132 130.878 112.83 137.677 111.197Z" fill="#E6E6E6"/>
<path d="M115.985 116.653C115.457 117.04 115.099 117.616 114.986 118.26C114.873 118.905 115.014 119.568 115.379 120.112C115.744 120.655 116.304 121.036 116.944 121.175C117.583 121.314 118.252 121.201 118.809 120.859L119.366 121.408C120.107 120.082 120.412 118.305 119.465 117.118C119.044 116.625 118.456 116.306 117.814 116.22C117.172 116.134 116.521 116.289 115.985 116.653Z" fill="#E6E6E6"/>
<path d="M109.469 121.411C109.477 120.937 109.341 120.472 109.08 120.077C108.819 119.681 108.444 119.374 108.005 119.196C107.706 119.145 107.399 119.154 107.104 119.225C106.809 119.295 106.532 119.424 106.288 119.604C106.044 119.785 105.839 120.013 105.686 120.274C105.533 120.536 105.434 120.826 105.395 121.127C105.349 121.74 105.43 122.355 105.632 122.936C105.834 123.516 106.153 124.049 106.57 124.501C106.812 124.865 107.129 125.173 107.499 125.406C107.869 125.639 108.285 125.79 108.718 125.851C109.591 125.879 110.48 124.967 110.127 124.168L108.794 124.142C109.205 123.288 109.434 122.358 109.469 121.411Z" fill="#E6E6E6"/>
<path d="M83.41 107.764C83.8994 108.161 84.3888 108.557 84.8783 108.954C85.7259 109.687 86.6416 110.337 87.6129 110.896C89.3118 111.837 91.3097 112.081 93.1854 111.578C94.1115 111.314 94.9561 110.821 95.6416 110.145C96.327 109.468 96.8311 108.63 97.1074 107.708C97.6926 105.503 96.7381 103.213 95.804 101.132C95.5908 100.537 95.2391 100 94.7778 99.5675C94.5414 99.3582 94.24 99.2371 93.9245 99.2247C93.609 99.2123 93.299 99.3094 93.047 99.4995C92.8642 99.7272 92.7426 99.9977 92.6939 100.286C92.6451 100.573 92.6707 100.869 92.7683 101.144C92.9691 101.692 93.0609 102.274 93.0385 102.858C92.9454 103.433 92.3414 103.977 91.8093 103.739L91.7246 105.698C89.1836 104.412 87.8397 100.991 85.0119 100.653C84.3772 100.578 83.7339 100.678 83.1522 100.943C82.5705 101.207 82.0726 101.627 81.7131 102.155C81.3535 102.684 81.1459 103.301 81.113 103.939C81.0801 104.578 81.2232 105.213 81.5266 105.775C82.0175 106.556 82.6576 107.231 83.41 107.764Z" fill="#E6E6E6"/>
<path d="M77.3576 99.3071C77.9454 98.904 78.4105 98.3465 78.7016 97.696C78.9927 97.0455 79.0985 96.3272 79.0073 95.6204C78.937 95.2781 78.792 94.9554 78.5829 94.6754C78.3737 94.3954 78.1054 94.1649 77.797 94.0004C77.4887 93.8358 77.1479 93.7413 76.7988 93.7233C76.4498 93.7054 76.1011 93.7646 75.7775 93.8968C75.0515 94.4396 74.5415 95.2222 74.3382 96.1056C73.6685 97.9946 72.9988 99.8837 72.3291 101.773L73.4547 100.954C74.8472 100.654 76.1711 100.095 77.3576 99.3071Z" fill="#E6E6E6"/>
<path d="M90.401 87.7141C90.6021 87.4605 90.7452 87.166 90.8201 86.8511C90.8951 86.5363 90.9002 86.2088 90.8349 85.8918C90.7697 85.5748 90.6358 85.276 90.4426 85.0163C90.2495 84.7567 90.0017 84.5425 89.7169 84.3889L88.3095 84.2573C87.9895 84.3383 87.6929 84.4932 87.4436 84.7096C87.1943 84.9259 86.9992 85.1977 86.8739 85.5031C86.7486 85.8085 86.6966 86.1389 86.7221 86.468C86.7477 86.7972 86.85 87.1157 87.0208 87.3981C87.1917 87.6805 87.4264 87.919 87.7061 88.0943C87.9858 88.2696 88.3027 88.377 88.6313 88.4077C88.96 88.4384 89.2912 88.3917 89.5986 88.2712C89.9059 88.1508 90.1807 87.96 90.401 87.7141Z" fill="#E6E6E6"/>
<path d="M103.349 89.8863C104.662 90.5147 106.325 91.1134 107.467 90.2112C107.806 89.9049 108.057 89.5148 108.197 89.0802C108.337 88.6457 108.359 88.182 108.263 87.7359C108.058 86.8459 107.661 86.0113 107.101 85.2899C105.354 82.7814 103.134 80.6379 100.566 78.9795L99.9312 79.8045C99.0443 82.1075 98.1879 84.796 99.425 86.9315C100.259 88.371 101.848 89.1682 103.349 89.8863Z" fill="#E6E6E6"/>
<path d="M113.133 91.9362L115.589 93.047C115.348 92.6274 114.981 92.2942 114.54 92.0948C114.099 91.8954 113.607 91.8399 113.133 91.9362Z" fill="#E6E6E6"/>
<path d="M106.514 99.6627L105.354 100.045C104.367 101.667 104.795 103.74 105.254 105.582C105.544 106.746 106.17 108.179 107.369 108.126C108.535 108.075 109.051 106.66 109.275 105.514C109.625 104.269 109.663 102.957 109.386 101.694C109.228 101.069 108.851 100.521 108.325 100.148C107.798 99.776 107.156 99.6037 106.514 99.6627Z" fill="#E6E6E6"/>
<path d="M88.0085 94.2051L88.8672 94.5509C89.0685 94.5222 89.2547 94.4278 89.397 94.2825C89.5392 94.1372 89.6296 93.949 89.654 93.7472C89.6785 93.5453 89.6357 93.341 89.5322 93.1659C89.4287 92.9908 89.2704 92.8548 89.0818 92.7788C88.8932 92.7028 88.6847 92.6912 88.4888 92.7458C88.2929 92.8003 88.1205 92.9179 87.9982 93.0804C87.8759 93.2429 87.8107 93.4412 87.8125 93.6445C87.8144 93.8479 87.8833 94.0449 88.0085 94.2051Z" fill="#E6E6E6"/>
<path d="M131.297 159.862C130.881 159.871 130.473 159.98 130.107 160.179C129.742 160.378 129.429 160.661 129.196 161.005C128.962 161.349 128.814 161.745 128.764 162.158C128.714 162.571 128.764 162.99 128.908 163.38C129.752 165.195 132.656 165.203 133.946 163.673C134.277 163.238 134.514 162.739 134.642 162.208C134.77 161.677 134.787 161.126 134.691 160.588C134.595 160.05 134.389 159.538 134.085 159.084C133.782 158.63 133.387 158.244 132.927 157.95L131.297 159.862Z" fill="#E6E6E6"/>
<path d="M173.122 202.873C172.785 202.963 172.469 203.12 172.193 203.334C171.917 203.548 171.687 203.816 171.516 204.12C171.345 204.425 171.237 204.761 171.199 205.108C171.16 205.455 171.191 205.807 171.291 206.142L173.701 206.309C174.518 205.899 175.334 205.489 176.151 205.08C176.101 204.734 175.983 204.401 175.803 204.102C175.623 203.803 175.385 203.542 175.103 203.337C174.82 203.131 174.5 202.984 174.159 202.904C173.819 202.825 173.467 202.814 173.122 202.873Z" fill="#E6E6E6"/>
<path d="M163.323 205.856C162.633 206.345 162.08 207.003 161.714 207.766C161.349 208.529 161.184 209.372 161.235 210.217C161.313 211.059 161.658 211.855 162.218 212.488C162.779 213.122 163.527 213.561 164.353 213.741C165.188 213.872 166.041 213.681 166.74 213.207C167.439 212.733 167.932 212.011 168.119 211.187C168.526 208.694 165.846 206.867 164.883 204.531L163.323 205.856Z" fill="#E6E6E6"/>
<path d="M256.958 189.386C257.213 191.258 255.526 192.898 255.464 194.786C255.389 197.027 257.828 198.77 260.059 198.55C261.166 198.358 262.214 197.912 263.119 197.247C264.025 196.581 264.764 195.715 265.278 194.716L265.326 194.506C264.24 193.278 263.153 192.05 262.067 190.822C260.732 189.314 259.318 187.597 259.37 185.584C259.396 184.591 259.787 183.63 259.765 182.637C259.713 181.923 259.553 181.221 259.292 180.555C258.998 179.677 258.598 178.687 257.72 178.391C256.622 178.02 255.514 178.993 254.99 180.027C254.518 180.981 254.289 182.036 254.323 183.099C254.356 184.162 254.651 185.2 255.181 186.123C255.816 187.2 256.79 188.148 256.958 189.386Z" fill="#E6E6E6"/>
<path d="M246.712 195.973C246.949 196.101 247.212 196.177 247.481 196.194C247.751 196.211 248.021 196.17 248.273 196.073C249.241 195.908 250.172 195.57 251.02 195.075C251.441 194.822 251.788 194.461 252.024 194.03C252.26 193.599 252.377 193.113 252.364 192.622C252.217 192.004 251.89 191.444 251.425 191.012C250.96 190.579 250.377 190.295 249.75 190.195C249.315 190.041 248.849 189.998 248.392 190.067C247.936 190.137 247.504 190.318 247.135 190.594C246.325 191.353 246.422 192.642 246.58 193.741L246.41 194.027C246.258 194.706 246.16 195.55 246.712 195.973Z" fill="#E6E6E6"/>
<path d="M417.739 275.976C417.503 275.392 417.268 274.807 417.033 274.223C416.711 275.016 416.831 275.828 417.739 275.976Z" fill="#E6E6E6"/>
<path d="M558.815 153.049C555.8 149.777 553.953 147.89 552.048 143.835C551.012 141.598 549.438 139.652 547.466 138.172C545.495 136.691 543.188 135.722 540.751 135.351C534.494 134.32 528.1 135.952 521.768 135.625C511.624 135.101 502.478 129.661 492.764 126.693C487.325 125.169 481.787 124.027 476.189 123.275C472.963 122.764 469.738 122.254 466.512 121.744C455.939 120.072 445.298 118.395 434.596 118.617C431.51 118.681 427.211 117.754 427.458 114.677C427.765 110.855 434.64 111.357 435.963 107.759C436.781 105.533 434.823 103.195 432.675 102.189C430.528 101.182 428.049 100.88 426.1 99.5282C424.151 98.1769 423.084 95.0442 424.875 93.4897C419.91 96.0349 414.945 98.58 409.981 101.125C405.853 103.241 401.241 105.994 400.512 110.575C398.025 111.232 395.848 112.744 394.364 114.846C391.572 114.861 389.377 117.542 388.916 120.296C388.456 123.051 389.293 125.838 390.121 128.506C389.108 126.565 388.032 124.551 386.246 123.285C384.461 122.019 381.743 121.778 380.221 123.35C378.659 124.964 379.024 127.672 380.129 129.628C381.234 131.583 382.931 133.161 383.974 135.151C387.231 141.364 381.33 150.112 374.349 149.42C374.817 143.004 375.285 136.588 375.754 130.172C376.05 128.198 375.884 126.183 375.269 124.284C374.507 122.448 372.557 120.939 370.617 121.373C367.128 122.153 367.426 127.264 368.878 130.531C370.329 133.798 371.776 138.341 368.813 140.342C366.9 141.634 364.306 140.836 362.24 139.805C360.175 138.774 357.965 137.503 355.707 137.985C353.449 138.466 352.03 141.918 354.025 143.08C350.716 142.505 347.408 141.93 344.1 141.355C343.936 142.329 343.57 143.258 343.025 144.081C342.479 144.904 341.768 145.604 340.935 146.136C340.103 146.667 339.168 147.017 338.191 147.165C337.215 147.312 336.218 147.253 335.266 146.991C334.941 145.645 334.617 144.299 334.292 142.953C333.808 142.818 333.324 142.684 332.84 142.549C334.359 142.972 331.982 149.381 329.85 154.276C326.985 153.94 322.797 153.875 322.32 153.054C320.032 149.122 320.303 139.757 316.328 137.545C314.334 136.435 312.29 135.424 310.195 134.512C309.094 133.988 307.932 133.607 306.735 133.376C304.293 132.991 301.832 133.748 299.477 134.497C296.693 135.38 293.845 136.298 291.54 138.092C289.572 139.799 287.885 141.805 286.541 144.037C281.99 150.772 277.44 157.506 272.889 164.241C271.533 166.04 270.467 168.039 269.727 170.166C269.379 171.224 269.263 172.345 269.387 173.451C269.512 174.558 269.873 175.625 270.448 176.58C271.053 177.515 271.955 178.22 273.01 178.58C274.064 178.94 275.209 178.935 276.26 178.566C277.579 177.995 278.9 176.701 280.207 177.298C281.197 177.751 281.444 179.052 281.34 180.135C281.089 181.196 281.069 182.299 281.282 183.368C281.877 185.055 284.166 185.641 285.799 184.912C287.387 184.045 288.576 182.597 289.117 180.872C290.691 176.837 290.53 172.372 290.922 168.059C291.314 163.747 292.493 159.134 295.893 156.452C296.911 155.649 298.406 155.07 299.454 155.834C299.846 156.19 300.117 156.661 300.23 157.179C300.342 157.697 300.29 158.237 300.08 158.724C299.642 159.687 299.071 160.585 298.383 161.39C297.221 163.024 296.408 164.88 295.995 166.842C295.581 168.805 295.576 170.831 295.979 172.795L296.674 173.225C299.326 172.538 302.874 173.769 306.394 174.95C303.839 175.71 301.589 177.257 299.966 179.371C295.897 185.08 292.952 190.482 284.903 190.414C282.994 190.398 281.1 190.021 279.191 190.017C277.264 189.898 275.365 190.53 273.894 191.781C272.446 193.198 271.999 195.356 270.76 196.96C269.132 199.068 266.41 199.925 263.924 200.883C262.108 201.583 260.193 202.527 259.358 204.286C258.833 205.728 258.712 207.286 259.008 208.792C259.288 211.455 259.783 214.484 262.043 215.922C262.887 216.363 263.812 216.631 264.761 216.712C265.711 216.792 266.667 216.683 267.574 216.39C269.924 215.819 272.223 214.742 274.636 214.903C278.426 215.155 281.547 218.793 281.585 222.591C281.604 224.513 281.043 226.718 282.318 228.158C283.515 229.51 285.89 229.269 287.13 227.956C287.707 227.257 288.104 226.428 288.286 225.541C288.468 224.653 288.43 223.735 288.175 222.866C287.649 221.134 286.839 219.502 285.778 218.035C287.039 217.708 288.375 217.828 289.557 218.375C290.74 218.922 291.697 219.861 292.265 221.034C293.107 222.904 292.835 225.062 293.103 227.095C293.372 229.128 294.609 231.388 296.657 231.505C297.326 231.524 297.981 231.307 298.508 230.894C299.035 230.48 299.4 229.896 299.541 229.241C299.563 228.209 299.506 227.177 299.373 226.154C299.443 225.146 299.896 224.204 300.638 223.52C301.381 222.835 302.357 222.461 303.367 222.474C302.744 223.625 302.541 224.956 302.793 226.241C303.045 227.525 303.737 228.681 304.748 229.511C306.306 230.717 308.366 230.986 310.307 231.323C312.248 231.66 314.318 232.193 315.571 233.714C317.658 236.246 315.105 237.387 314.707 239.532C314.219 242.165 316.419 246.054 317.263 248.573C321.146 254.004 325.028 259.436 328.911 264.867C329.777 266.187 330.799 267.399 331.955 268.476C335.787 271.768 342.106 271.443 345.781 267.977C347.563 266.174 348.72 263.847 349.082 261.338C349.444 258.83 348.993 256.271 347.794 254.038C345.522 249.903 341.022 247.343 338.8 243.182C342.499 246.244 347.04 248.111 351.823 248.537C360.285 250.257 368.325 253.629 375.483 258.46C375.819 265.938 378.688 273.079 383.619 278.711C384.506 272.329 387.481 266.421 392.08 261.908C395.071 258.991 399.158 256.64 403.261 257.424C407.365 258.208 410.478 263.441 407.996 266.802C410.076 266.957 412.155 267.111 414.235 267.266C415.168 269.585 416.1 271.904 417.033 274.223C417.199 273.735 417.517 273.314 417.94 273.02C418.363 272.727 418.869 272.576 419.383 272.591C421.33 272.885 422.696 274.697 424.548 275.366C428.039 276.626 431.77 273.134 432.222 269.45C432.673 265.766 430.921 262.209 429.218 258.911C432.979 259.608 436.862 259.192 440.391 257.716C443.92 256.24 446.942 253.767 449.087 250.599C451.232 247.432 452.407 243.708 452.468 239.883C452.529 236.059 451.473 232.299 449.431 229.065C453.478 224.814 458.241 221.307 463.502 218.705C468.371 216.3 473.696 214.649 477.952 211.275C482.207 207.901 485.191 202.042 483.144 197.012C481.698 193.458 478.072 191.046 476.987 187.367C475.416 182.04 480.188 176.531 485.58 175.2C490.971 173.869 496.602 175.505 501.913 177.128C501.097 171.663 507.431 166.54 512.605 168.48C514.772 167.603 516.938 166.725 519.105 165.848C516.594 171.386 511.151 174.909 507.149 179.487C503.147 184.065 500.763 191.52 504.944 195.936C510.936 190.505 516.928 185.074 522.921 179.642C529.189 173.961 535.457 168.28 541.725 162.599C541.425 161.72 541.126 160.841 540.827 159.962C546.757 157.709 553.143 155.846 558.815 153.049Z" fill="#E6E6E6"/>
<path d="M247.572 226.145C247.33 226.494 247.201 226.909 247.203 227.333C247.205 227.757 247.338 228.171 247.584 228.517C247.906 228.79 248.313 228.943 248.735 228.949C249.157 228.954 249.568 228.813 249.897 228.548C250.541 227.999 251.044 227.303 251.363 226.519C251.674 227.122 252.163 227.613 252.764 227.928C253.364 228.242 254.047 228.364 254.719 228.277C256.062 228.075 257.334 227.544 258.423 226.733C259.286 226.227 260.049 225.565 260.671 224.782C260.98 224.387 261.191 223.926 261.289 223.435C261.387 222.944 261.369 222.437 261.237 221.955C260.913 221.214 260.411 220.566 259.775 220.068C258.19 218.603 256.604 217.139 255.018 215.674L254.481 215.513C254.201 215.216 253.865 214.978 253.491 214.814C253.117 214.649 252.714 214.563 252.305 214.558C251.897 214.554 251.492 214.632 251.115 214.788C250.737 214.944 250.395 215.175 250.109 215.467C249.125 216.569 249.12 218.215 249.271 219.686C249.421 221.156 249.656 222.722 249.001 224.047C248.626 224.807 247.99 225.408 247.572 226.145Z" fill="#E6E6E6"/>
<path d="M339.568 276.176C333.406 274.804 327.765 271.697 323.313 267.222C318.861 262.747 315.783 257.091 314.443 250.922C313.858 248.011 313.593 244.83 311.657 242.58C309.782 240.401 306.719 239.614 303.845 239.615C300.97 239.615 298.137 240.276 295.268 240.455C290.252 240.768 284.937 239.443 281.35 235.923C279.652 234.256 278.366 232.139 276.382 230.824C273.716 229.057 270.181 229.058 267.144 230.06C263.76 231.175 261.052 234.226 257.352 233.806C253.504 233.37 249.044 232.009 247.536 237.076C247.101 238.535 247.249 240.135 246.699 241.554C245.852 243.741 243.601 244.975 241.821 246.503C238.235 249.58 236.33 254.256 235.687 258.937C235.045 263.619 235.542 268.373 236.039 273.072C236.308 275.607 236.66 278.334 238.401 280.196C240.828 282.791 244.901 282.69 248.441 282.398C252.555 282.058 256.669 281.719 260.782 281.379C263 281.196 265.526 281.118 267.105 282.686C268.051 283.626 268.451 284.985 269.283 286.027C270.03 286.914 271.055 287.521 272.192 287.75C273.328 287.979 274.509 287.816 275.541 287.289C274.706 288.779 274.252 290.452 274.218 292.159C274.185 293.867 274.572 295.556 275.347 297.078C276.122 298.6 277.26 299.907 278.661 300.884C280.062 301.862 281.682 302.478 283.378 302.68L283.695 302.88C281.061 307.39 278.328 312.454 279.421 317.561C280.357 321.94 283.984 325.451 284.577 329.889C285.121 333.961 282.996 338.126 283.936 342.126C284.888 346.176 288.978 348.999 293.128 349.301C297.277 349.602 301.354 347.762 304.568 345.12C307.783 342.478 310.268 339.076 312.717 335.712C314.229 333.635 315.78 331.474 316.299 328.958C316.852 326.281 316.211 323.314 317.513 320.91C319.014 318.138 322.578 317.099 324.377 314.51C326.706 311.158 325.334 306.592 325.849 302.542C327.123 292.52 339.857 286.274 339.568 276.176Z" fill="#E6E6E6"/>
<path d="M337.729 310.39C337.38 311.955 335.915 312.985 334.519 313.773C333.123 314.56 331.587 315.355 330.876 316.792C330.147 318.263 330.48 320.016 330.861 321.614C331.654 324.936 332.588 328.22 333.663 331.467C335.747 327.53 337.566 323.459 339.109 319.28C339.762 317.724 340.165 316.075 340.304 314.394C340.368 313.552 340.254 312.706 339.971 311.911C339.688 311.116 339.242 310.389 338.661 309.776L337.729 310.39Z" fill="#E6E6E6"/>
<path d="M423.418 292.96C421.669 290.94 419.919 288.92 418.169 286.9C416.973 285.519 415.608 284.043 413.795 283.813L413.049 284.29C414.566 287.902 416.083 291.514 417.6 295.127C418.137 296.776 419.083 298.263 420.348 299.449C421.706 300.516 423.908 300.721 425.041 299.418C425.406 298.929 425.636 298.352 425.708 297.747C425.781 297.141 425.692 296.527 425.452 295.966C424.958 294.851 424.27 293.833 423.418 292.96Z" fill="#E6E6E6"/>
<path d="M440.372 296.828C441.034 296.598 441.64 296.233 442.152 295.755C442.664 295.278 443.071 294.699 443.346 294.055C443.889 292.766 444.247 291.407 444.41 290.018C444.709 288.209 445.008 286.4 445.307 284.592L444.916 284.491C444.536 284.309 444.103 284.271 443.697 284.383C443.291 284.496 442.939 284.752 442.707 285.104C442.267 285.822 441.933 286.601 441.718 287.416C441.607 287.823 441.405 288.199 441.129 288.518C440.852 288.836 440.507 289.088 440.119 289.254C438.714 289.678 437.384 288.189 435.918 288.247C435.326 288.323 434.777 288.596 434.36 289.024C433.943 289.452 433.684 290.008 433.624 290.602C433.539 291.801 433.879 292.992 434.584 293.966C435.834 295.907 438.154 297.466 440.372 296.828Z" fill="#E6E6E6"/>
<path d="M450.046 300.257L454.078 289.637C452.444 290.822 451.193 292.458 450.476 294.345C449.76 296.231 449.61 298.286 450.046 300.257Z" fill="#E6E6E6"/>
<path d="M470.625 291.695L469.809 291.73C469.445 292.451 469.251 293.246 469.243 294.053C469.236 294.861 469.414 295.66 469.765 296.387C470.48 297.838 471.521 299.103 472.807 300.085C474.799 301.73 477.073 302.999 479.518 303.832C483.103 304.878 486.811 305.449 490.545 305.531C492.679 305.67 494.814 305.81 496.949 305.95C497.965 306.016 499.281 305.887 499.563 304.909C499.797 304.1 499.108 303.34 498.465 302.797C492.817 298.045 485.971 294.937 478.675 293.815C475.908 293.394 472.971 293.221 470.625 291.695Z" fill="#E6E6E6"/>
<path d="M493.41 319.88C491.875 318.392 490.34 316.903 488.805 315.414C487.312 313.967 485.075 312.432 483.364 313.614C482.381 314.294 482.077 315.619 481.244 316.476C480.736 316.931 480.123 317.252 479.46 317.41C478.797 317.567 478.105 317.557 477.446 317.38C476.135 317.012 474.896 316.424 473.78 315.642L469.971 313.279C468.656 312.463 467.342 311.647 466.027 310.832L463.061 313.714C463.19 312.296 461.298 311.374 459.989 311.935C459.366 312.284 458.831 312.769 458.422 313.354C458.012 313.939 457.741 314.608 457.626 315.312C457.408 316.721 457.027 318.099 456.492 319.419C454.986 322.303 451.329 323.157 448.112 323.64C444.894 324.123 441.25 324.803 439.528 327.563C438.093 329.862 438.523 332.814 439.002 335.481L440.815 345.571C440.901 346.794 441.391 347.953 442.209 348.866C443.802 350.271 446.269 349.417 448.213 348.559C452.277 346.605 456.638 345.341 461.118 344.819C465.636 344.313 470.184 345.478 473.903 348.094C476.208 349.849 477.967 352.28 480.409 353.839C482.092 354.851 483.984 355.466 485.94 355.637C487.896 355.808 489.866 355.53 491.698 354.824C495.372 353.361 498.412 350.65 500.284 347.168C501.947 344.097 502.781 340.646 502.705 337.155C502.629 333.664 501.645 330.252 499.851 327.257C498.018 324.54 495.855 322.062 493.41 319.88Z" fill="#E6E6E6"/>
<path d="M488.883 360.988C488.515 361.436 488.3 361.989 488.269 362.568C488.238 363.146 488.393 363.72 488.711 364.204C489.38 365.163 490.4 365.819 491.55 366.031C492.688 366.235 493.848 366.288 495.001 366.189L495.036 365.328C494.729 363.817 494.032 362.413 493.015 361.255C491.902 360.198 489.937 359.873 488.883 360.988Z" fill="#E6E6E6"/>
<path d="M528.416 361.909L527.866 361.708C526.556 363.682 525.246 365.657 523.936 367.631C523.231 368.693 522.496 369.969 522.926 371.169C523.435 372.59 525.316 373.006 526.777 372.631C527.893 372.328 528.899 371.713 529.677 370.859C530.455 370.005 530.974 368.946 531.172 367.807C531.333 366.663 531.158 365.496 530.669 364.449C530.18 363.402 529.397 362.52 528.416 361.909Z" fill="#E6E6E6"/>
<path d="M538.402 355.643L534.786 352.768C534.737 354.102 534.689 355.436 534.641 356.769L534.505 356.772C535.339 357.503 536.126 358.286 536.862 359.116C537.709 359.836 539.129 360.165 539.852 359.322C540.069 359.02 540.192 358.661 540.206 358.29C540.22 357.918 540.124 357.551 539.93 357.234C539.533 356.607 539.013 356.066 538.402 355.643Z" fill="#E6E6E6"/>
<path d="M473.068 230.564C471.55 230.517 469.871 230.424 468.695 231.385C468.308 231.73 467.968 232.126 467.686 232.561L467.271 233.141C466.65 233.954 466.109 234.824 465.655 235.739C465.418 236.169 465.276 236.644 465.238 237.133C465.2 237.621 465.267 238.113 465.436 238.573C465.533 238.794 465.677 238.99 465.859 239.148C466.04 239.306 466.254 239.422 466.485 239.489C466.717 239.555 466.96 239.57 467.197 239.532C467.435 239.494 467.661 239.405 467.861 239.27C468.509 238.669 468.358 237.579 468.848 236.843C469.064 236.566 469.341 236.343 469.658 236.192C469.975 236.04 470.323 235.964 470.674 235.97C471.375 235.988 472.072 236.067 472.759 236.206C474.661 236.467 476.599 236.177 478.342 235.372C480.085 234.567 481.561 233.28 482.597 231.663C483.632 230.046 484.183 228.166 484.184 226.246C484.185 224.326 483.637 222.446 482.604 220.827L482.482 220.454C481.431 220.414 480.4 220.744 479.567 221.386C478.734 222.028 478.153 222.941 477.925 223.968C477.585 225.736 478.305 227.79 477.233 229.236C476.329 230.456 474.585 230.611 473.068 230.564Z" fill="#E6E6E6"/>
<path d="M486.652 211.819L486.42 211.799C485.063 212.047 483.761 212.533 482.572 213.233C482.182 213.414 481.871 213.73 481.695 214.123C481.644 214.331 481.645 214.549 481.698 214.756C481.751 214.964 481.856 215.155 482.002 215.313C482.296 215.624 482.641 215.884 483.022 216.081C483.589 216.46 484.216 216.74 484.876 216.91C485.208 216.992 485.554 216.99 485.885 216.905C486.215 216.82 486.519 216.653 486.769 216.421C487.004 216.099 487.166 215.729 487.242 215.337C487.319 214.945 487.309 214.542 487.214 214.154C487.105 213.359 486.917 212.577 486.652 211.819Z" fill="#E6E6E6"/>
<path d="M463.263 231.014C463.625 230.433 463.883 229.793 464.024 229.122C464.166 228.602 464.307 228.081 464.448 227.561L462.936 226.642C462.213 227.018 461.547 227.493 460.956 228.053C460.662 228.335 460.429 228.676 460.273 229.052C460.116 229.429 460.04 229.833 460.047 230.241C460.068 230.648 460.226 231.037 460.496 231.343C460.766 231.649 461.131 231.854 461.532 231.927C461.875 231.937 462.214 231.858 462.518 231.698C462.821 231.538 463.078 231.303 463.263 231.014Z" fill="#E6E6E6"/>
<path d="M298.477 90.3504C297.879 90.7233 298.048 91.6246 298.291 92.2864C298.569 93.0462 298.848 93.8059 299.126 94.5657L299.516 93.0908C299.858 92.5188 300.009 91.8525 299.947 91.1888C299.812 90.5405 299.039 90.0002 298.477 90.3504Z" fill="#E6E6E6"/>
<path d="M676.142 227.21H423.142C417.044 227.204 411.198 224.778 406.886 220.466C402.574 216.154 400.148 210.308 400.142 204.21V23.2104C400.149 17.1126 402.574 11.2665 406.886 6.95465C411.198 2.64282 417.044 0.217386 423.142 0.210449H676.142C682.239 0.217384 688.086 2.64282 692.397 6.95465C696.709 11.2665 699.135 17.1126 699.142 23.2104V204.21C699.135 210.308 696.709 216.154 692.397 220.466C688.086 224.778 682.239 227.204 676.142 227.21Z" fill="white"/>
<path d="M641.528 40H495.472C494.551 40 493.668 39.6313 493.017 38.9749C492.366 38.3185 492 37.4283 492 36.5C492 35.5718 492.366 34.6815 493.017 34.0251C493.668 33.3687 494.551 33 495.472 33H641.528C642.449 33 643.332 33.3687 643.983 34.0251C644.634 34.6815 645 35.5718 645 36.5C645 37.4283 644.634 38.3185 643.983 38.9749C643.332 39.6313 642.449 40 641.528 40Z" fill="#E6E6E6"/>
<path d="M592.527 55H544.473C543.552 55 542.668 54.6839 542.017 54.1213C541.366 53.5587 541 52.7956 541 52C541 51.2043 541.366 50.4413 542.017 49.8787C542.668 49.3161 543.552 49 544.473 49H592.527C593.448 49 594.332 49.3161 594.983 49.8787C595.634 50.4413 596 51.2043 596 52C596 52.7956 595.634 53.5587 594.983 54.1213C594.332 54.6839 593.448 55 592.527 55Z" fill="#E6E6E6"/>
<path d="M592.527 87H544.473C543.552 87 542.668 86.6839 542.017 86.1213C541.366 85.5587 541 84.7956 541 84C541 83.2044 541.366 82.4413 542.017 81.8787C542.668 81.3161 543.552 81 544.473 81H592.527C593.448 81 594.332 81.3161 594.983 81.8787C595.634 82.4413 596 83.2044 596 84C596 84.7956 595.634 85.5587 594.983 86.1213C594.332 86.6839 593.448 87 592.527 87Z" fill="#E6E6E6"/>
<path d="M592.527 104H544.473C544.017 104 543.565 103.909 543.144 103.734C542.722 103.558 542.34 103.3 542.017 102.975C541.695 102.65 541.439 102.264 541.264 101.839C541.09 101.415 541 100.96 541 100.5C541 100.04 541.09 99.5852 541.264 99.1606C541.439 98.736 541.695 98.3501 542.017 98.0251C542.34 97.7001 542.722 97.4423 543.144 97.2664C543.565 97.0905 544.017 97 544.473 97H592.527C592.983 97 593.435 97.0905 593.856 97.2664C594.278 97.4423 594.66 97.7001 594.983 98.0251C595.305 98.3501 595.561 98.736 595.736 99.1606C595.91 99.5852 596 100.04 596 100.5C596 100.96 595.91 101.415 595.736 101.839C595.561 102.264 595.305 102.65 594.983 102.975C594.66 103.3 594.278 103.558 593.856 103.734C593.435 103.909 592.983 104 592.527 104Z" fill="#E6E6E6"/>
<path d="M619.524 71H517.476C516.554 71 515.67 70.6839 515.018 70.1213C514.366 69.5587 514 68.7957 514 68C514 67.2043 514.366 66.4413 515.018 65.8787C515.67 65.3161 516.554 65 517.476 65H619.524C620.446 65 621.33 65.3161 621.982 65.8787C622.634 66.4413 623 67.2043 623 68C623 68.7957 622.634 69.5587 621.982 70.1213C621.33 70.6839 620.446 71 619.524 71Z" fill="#E6E6E6"/>
<path d="M647.528 123H501.472C500.551 123 499.668 122.631 499.017 121.975C498.366 121.319 498 120.428 498 119.5C498 118.572 498.366 117.681 499.017 117.025C499.668 116.369 500.551 116 501.472 116H647.528C648.449 116 649.332 116.369 649.983 117.025C650.634 117.681 651 118.572 651 119.5C651 120.428 650.634 121.319 649.983 121.975C649.332 122.631 648.449 123 647.528 123Z" fill="#E6E6E6"/>
<path d="M598.527 138H550.473C549.552 138 548.668 137.684 548.017 137.121C547.366 136.559 547 135.796 547 135C547 134.204 547.366 133.441 548.017 132.879C548.668 132.316 549.552 132 550.473 132H598.527C599.448 132 600.332 132.316 600.983 132.879C601.634 133.441 602 134.204 602 135C602 135.796 601.634 136.559 600.983 137.121C600.332 137.684 599.448 138 598.527 138Z" fill="#E6E6E6"/>
<path d="M598.527 170H550.473C549.552 170 548.668 169.684 548.017 169.121C547.366 168.559 547 167.796 547 167C547 166.204 547.366 165.441 548.017 164.879C548.668 164.316 549.552 164 550.473 164H598.527C599.448 164 600.332 164.316 600.983 164.879C601.634 165.441 602 166.204 602 167C602 167.796 601.634 168.559 600.983 169.121C600.332 169.684 599.448 170 598.527 170Z" fill="#E6E6E6"/>
<path d="M625.524 154H523.476C522.554 154 521.67 153.684 521.018 153.121C520.366 152.559 520 151.796 520 151C520 150.204 520.366 149.441 521.018 148.879C521.67 148.316 522.554 148 523.476 148H625.524C626.446 148 627.33 148.316 627.982 148.879C628.634 149.441 629 150.204 629 151C629 151.796 628.634 152.559 627.982 153.121C627.33 153.684 626.446 154 625.524 154Z" fill="#E6E6E6"/>
<path d="M660.147 198H642.853C641.301 198 639.812 197.368 638.714 196.243C637.617 195.117 637 193.591 637 192C637 190.409 637.617 188.883 638.714 187.757C639.812 186.632 641.301 186 642.853 186H660.147C661.699 186 663.188 186.632 664.286 187.757C665.383 188.883 666 190.409 666 192C666 193.591 665.383 195.117 664.286 196.243C663.188 197.368 661.699 198 660.147 198Z" fill="#1A87EC"/>
<path d="M449.5 94C466.345 94 480 80.3447 480 63.5C480 46.6553 466.345 33 449.5 33C432.655 33 419 46.6553 419 63.5C419 80.3447 432.655 94 449.5 94Z" fill="#1A87EC"/>
<path d="M446.332 77C445.868 77 445.41 76.8918 444.994 76.6839C444.578 76.4761 444.217 76.1743 443.938 75.8026L436.598 66.015C436.363 65.7006 436.191 65.3428 436.094 64.962C435.996 64.5813 435.975 64.1851 436.03 63.796C436.086 63.4069 436.217 63.0326 436.418 62.6944C436.618 62.3562 436.883 62.0608 437.197 61.825C437.512 61.5891 437.869 61.4176 438.25 61.32C438.631 61.2225 439.027 61.2009 439.416 61.2565C439.805 61.3121 440.179 61.4438 440.517 61.6441C440.856 61.8443 441.151 62.1092 441.387 62.4237L446.189 68.8264L458.522 50.3251C458.964 49.6673 459.648 49.2114 460.425 49.0572C461.202 48.9031 462.008 49.0633 462.667 49.5027C463.326 49.9421 463.784 50.6249 463.941 51.4015C464.098 52.1781 463.94 52.985 463.502 53.6455L448.823 75.6671C448.557 76.0654 448.2 76.3942 447.781 76.6259C447.362 76.8577 446.894 76.9856 446.416 76.999C446.388 76.9995 446.36 77 446.332 77Z" fill="white"/>
<path d="M676.142 227.21H423.142C417.044 227.204 411.198 224.778 406.886 220.466C402.574 216.154 400.148 210.308 400.142 204.21V23.2104C400.149 17.1126 402.574 11.2665 406.886 6.95465C411.198 2.64282 417.044 0.217386 423.142 0.210449H676.142C682.239 0.217384 688.086 2.64282 692.397 6.95465C696.709 11.2665 699.135 17.1126 699.142 23.2104V204.21C699.135 210.308 696.709 216.154 692.397 220.466C688.086 224.778 682.239 227.204 676.142 227.21ZM423.142 2.21045C417.574 2.21669 412.236 4.43119 408.299 8.3681C404.362 12.305 402.148 17.6428 402.142 23.2104V204.21C402.148 209.778 404.362 215.116 408.299 219.053C412.236 222.99 417.574 225.204 423.142 225.21H676.142C681.709 225.204 687.047 222.99 690.984 219.053C694.921 215.116 697.135 209.778 697.142 204.21V23.2104C697.135 17.6428 694.921 12.305 690.984 8.3681C687.047 4.43119 681.709 2.21669 676.142 2.21045H423.142Z" fill="#3F3D56"/>
<path d="M90.8154 226.77C94.1291 226.77 96.8154 224.083 96.8154 220.77C96.8154 217.456 94.1291 214.77 90.8154 214.77C87.5017 214.77 84.8154 217.456 84.8154 220.77C84.8154 224.083 87.5017 226.77 90.8154 226.77Z" fill="#00B0FF"/>
<path d="M106.815 197.77C110.129 197.77 112.815 195.083 112.815 191.77C112.815 188.456 110.129 185.77 106.815 185.77C103.502 185.77 100.815 188.456 100.815 191.77C100.815 195.083 103.502 197.77 106.815 197.77Z" fill="#00B0FF"/>
<path d="M282.815 174.77C286.129 174.77 288.815 172.083 288.815 168.77C288.815 165.456 286.129 162.77 282.815 162.77C279.502 162.77 276.815 165.456 276.815 168.77C276.815 172.083 279.502 174.77 282.815 174.77Z" fill="#00B0FF"/>
<path d="M145.09 597.677L154.14 597.677L158.445 562.77L145.088 562.771L145.09 597.677Z" fill="#FFB6B6"/>
<path d="M144.771 607.118L172.6 607.117V606.765C172.6 603.892 171.459 601.137 169.428 599.106C167.396 597.075 164.641 595.933 161.768 595.933L156.684 592.077L147.2 595.934L144.771 595.934L144.771 607.118Z" fill="#2F2E41"/>
<path d="M213.09 597.677L222.14 597.677L226.445 562.77L213.088 562.771L213.09 597.677Z" fill="#FFB6B6"/>
<path d="M212.771 607.118L240.6 607.117V606.765C240.6 603.892 239.459 601.137 237.428 599.106C235.396 597.075 232.641 595.933 229.768 595.933L224.684 592.077L215.2 595.934L212.771 595.934L212.771 607.118Z" fill="#2F2E41"/>
<path d="M144.737 313.716L160.798 311.416C166.23 320.499 168.16 344.674 168.16 344.674L183.878 382.033C184.919 382.74 185.755 383.709 186.303 384.842C186.85 385.975 187.09 387.232 186.997 388.487C186.904 389.742 186.482 390.95 185.774 391.99C185.066 393.03 184.096 393.865 182.962 394.411C181.829 394.958 180.571 395.196 179.316 395.101C178.062 395.007 176.854 394.584 175.814 393.874C174.775 393.165 173.941 392.194 173.396 391.06C172.852 389.925 172.615 388.668 172.711 387.413L146.904 343.929L144.737 313.716Z" fill="#FFB6B6"/>
<path d="M153.443 269.128C150.957 269.513 148.586 270.441 146.5 271.847C144.413 273.252 142.662 275.1 141.371 277.258C140.08 279.417 139.281 281.834 139.03 284.337C138.779 286.84 139.083 289.368 139.92 291.74L143.328 301.4C143.328 301.4 139.035 330.487 146.11 338.698L167.821 336.733C167.821 336.733 163.852 322.058 166.899 314.957C168.765 310.609 168.662 295.591 166.823 283.373C165.419 274.044 162.765 267.684 153.443 269.128Z" fill="#3F3D56"/>
<path d="M228.315 356.77C228.315 356.77 245.05 373.09 241.476 376.86C237.902 380.63 229.727 385.91 237.315 386.77C244.902 387.63 248.05 389.494 241.476 391.062C234.902 392.63 235.918 396.656 235.918 396.656C235.918 396.656 245.815 443.77 238.315 474.77C238.315 474.77 234.141 559.441 231.521 566.035C228.902 572.63 227.902 568.63 228.902 572.63C229.902 576.63 231.902 569.63 229.902 576.63C228.811 580.286 227.947 584.006 227.315 587.77L207.752 584.77C207.752 584.77 204.603 574.842 207.752 572.236C210.902 569.63 213.727 571.236 210.315 565.433C206.902 559.63 205.902 567.63 206.902 559.63C207.902 551.63 203.727 508.362 210.315 485.496L198.141 421.333L178.815 487.77C178.815 487.77 168.563 568.91 165.233 571.77C161.902 574.629 156.902 569.63 161.902 574.63C166.902 579.63 166.815 578.77 166.902 579.63C167.833 588.802 139.204 578.77 139.204 578.77C139.363 576.439 139.363 574.1 139.204 571.77C138.902 569.629 142.505 568.945 139.204 566.787C135.902 564.63 140.815 566.77 140.815 566.77C140.815 566.77 148.198 506.91 153.815 488.77L160.315 400.433C160.315 400.433 160.727 402.195 160.315 397.912C159.902 393.629 156.902 396.629 159.902 393.629C162.902 390.629 164.902 389.101 162.902 386.865C160.902 384.629 155.385 380.106 158.643 377.368C161.902 374.629 168.315 356.77 168.315 356.77L230.815 357.27" fill="#2F2E41"/>
<path d="M204.816 257.596L193.547 244.906L175.74 246.885L164.339 262.84C158.271 264.235 152.968 267.903 149.522 273.089C146.075 278.274 144.747 284.584 145.811 290.719C150.235 316.194 165.27 340.902 160.306 353.471C152.77 372.551 152.31 380.333 170.349 377.658C188.388 374.983 248.823 368.816 237.106 357.099C225.389 345.382 222.815 325.803 222.815 325.803L222.345 281.009C222.844 278.307 222.777 275.532 222.151 272.857C221.524 270.182 220.35 267.666 218.704 265.467C217.057 263.267 214.974 261.433 212.583 260.078C210.193 258.724 207.549 257.878 204.816 257.596Z" fill="#3F3D56"/>
<path d="M201.737 306.716L217.798 304.416C223.23 313.499 225.16 337.674 225.16 337.674L240.878 375.033C241.919 375.74 242.755 376.709 243.303 377.842C243.85 378.975 244.09 380.232 243.997 381.487C243.904 382.742 243.482 383.95 242.774 384.99C242.066 386.03 241.096 386.865 239.962 387.411C238.829 387.958 237.571 388.196 236.316 388.101C235.062 388.007 233.854 387.584 232.814 386.874C231.775 386.165 230.941 385.194 230.396 384.06C229.852 382.925 229.615 381.668 229.711 380.413L203.904 336.929L201.737 306.716Z" fill="#FFB6B6"/>
<path d="M210.443 262.128C207.957 262.513 205.586 263.441 203.5 264.847C201.413 266.252 199.662 268.1 198.371 270.258C197.08 272.417 196.281 274.834 196.03 277.337C195.779 279.84 196.083 282.368 196.92 284.74L200.328 294.4C200.328 294.4 196.035 323.487 203.11 331.698L224.821 329.733C224.821 329.733 220.852 315.058 223.899 307.957C225.765 303.609 225.662 288.591 223.823 276.373C222.419 267.044 219.765 260.684 210.443 262.128Z" fill="#3F3D56"/>
<path d="M179.747 243.814C191.634 243.814 201.27 234.178 201.27 222.291C201.27 210.404 191.634 200.768 179.747 200.768C167.86 200.768 158.224 210.404 158.224 222.291C158.224 234.178 167.86 243.814 179.747 243.814Z" fill="#FFB6B6"/>
<path d="M175.789 243.36C181.783 241.858 181.987 240.145 187.982 238.644C189.89 238.165 192.102 237.412 192.667 235.527C192.802 234.838 192.774 234.127 192.587 233.45C192.4 232.773 192.059 232.149 191.589 231.627C190.645 230.592 189.76 229.505 188.94 228.37C188.396 227.458 188.082 226.428 188.026 225.368C187.97 224.308 188.173 223.25 188.617 222.286C189.061 221.322 189.734 220.48 190.576 219.834C191.418 219.188 192.405 218.757 193.452 218.578C195.306 218.261 197.218 218.752 199.084 218.514C201.644 218.188 205.408 208.692 203.767 206.701C202.17 204.763 199.549 203.607 198.668 201.255C198.092 199.716 198.407 197.996 198.15 196.374C197.77 193.968 192.902 200.629 193.55 198.281C195.139 192.522 168.246 191.615 165.446 199.003C164.4 201.765 161.567 202.204 159.388 204.197C157.96 205.503 154.545 209.684 154.049 211.937C153.639 214.215 153.718 216.555 154.281 218.8C156.514 229.326 160.206 238.655 170.032 243.04" fill="#2F2E41"/>
<path d="M6.06035 608.482L395.786 608.789C395.943 608.79 396.098 608.759 396.243 608.7C396.388 608.64 396.519 608.552 396.63 608.442C396.741 608.331 396.829 608.2 396.889 608.055C396.949 607.91 396.98 607.755 396.98 607.599C396.98 607.442 396.949 607.287 396.889 607.142C396.829 606.997 396.741 606.866 396.63 606.755C396.519 606.645 396.388 606.557 396.243 606.498C396.098 606.438 395.943 606.407 395.786 606.408L6.06035 606.101C5.9037 606.1 5.7485 606.131 5.60364 606.19C5.45878 606.25 5.3271 606.338 5.21617 606.448C5.10524 606.559 5.01724 606.69 4.95718 606.835C4.89713 606.98 4.86621 607.135 4.86621 607.291C4.86621 607.448 4.89713 607.603 4.95718 607.748C5.01724 607.892 5.10524 608.024 5.21617 608.134C5.3271 608.245 5.45878 608.333 5.60364 608.392C5.7485 608.452 5.9037 608.482 6.06035 608.482Z" fill="#CACACA"/>
</g>
<defs>
<clipPath id="clip0_722_21902">
<rect width="698.284" height="608.579" fill="white" transform="translate(0.858398 0.210449)"/>
</clipPath>
</defs>
</svg>
