<svg width="452" height="130" viewBox="0 0 452 130" fill="none" xmlns="http://www.w3.org/2000/svg">
<path d="M28.1044 72.2126C27.2338 71.8499 26.3391 71.4267 25.4202 70.9431C24.5255 70.4594 23.4736 69.5768 22.2645 68.2952C21.0796 66.9894 19.9673 65.3088 18.9275 63.2533C16.4609 58.4654 15.2277 52.8674 15.2277 46.4593C15.2277 39.6884 17.0413 33.6793 20.6685 28.4319C22.9416 25.1916 25.4807 22.9427 28.2857 21.6853C29.7124 21.0565 31.1875 20.7422 32.7109 20.7422C34.2586 20.7422 35.6127 21.0324 36.7734 21.6127C37.9583 22.1689 38.9256 22.846 39.6752 23.644C40.4249 24.4178 40.9689 25.2037 41.3075 26.0017C41.6702 26.7997 41.8516 27.646 41.8516 28.5407C41.8516 29.4113 41.5614 30.3664 40.981 31.4063C40.4007 32.4461 39.6873 33.4012 38.841 34.2718C38.0188 35.1423 37.1241 35.9766 36.1568 36.7746C35.1895 37.5484 34.3311 38.3464 33.5815 39.1685C31.8404 42.7716 30.9699 46.2779 30.9699 49.6875C30.9699 53.2664 31.9009 55.9868 33.7628 57.8488C34.3432 58.4291 34.9961 58.8523 35.7215 59.1183C38.4782 58.2236 42.4803 54.8019 47.7277 48.8532C51.6451 44.162 54.4139 40.7282 56.034 38.5519L60.1328 32.8571C64.026 27.247 68.016 23.5231 72.1027 21.6853C73.6745 20.9598 75.1737 20.6092 76.6004 20.6334C78.0513 20.6576 79.2 20.8389 80.0463 21.1775C80.9169 21.4918 81.6302 21.915 82.1864 22.447C83.2504 23.511 83.7824 24.7201 83.7824 26.0742C83.7824 28.5649 82.936 30.7896 81.2433 32.7483C76.1652 38.3101 72.2961 42.4451 69.6362 45.1535L62.0915 52.5167L55.1998 58.8281C44.5841 68.138 37.2087 72.793 33.0737 72.793C30.6555 72.793 28.9991 72.5995 28.1044 72.2126ZM124.879 43.3398C126.04 43.3398 126.62 43.9927 126.62 45.2985C126.62 46.1691 126.318 47.2693 125.713 48.5993C125.133 49.9051 124.286 51.1384 123.174 52.2991C122.062 53.4356 120.78 54.6205 119.329 55.8538C117.903 57.0871 116.222 58.3808 114.287 59.7349C112.377 61.0891 110.261 62.4312 107.94 63.7612C105.618 65.0911 103.152 66.2881 100.54 67.3521C94.7608 69.7219 89.1628 70.9068 83.7461 70.9068C79.611 70.9068 75.9959 69.8307 72.9007 67.6786C69.6603 65.4297 68.0402 62.6972 68.0402 59.481C68.0402 54.4271 70.7606 49.627 76.2014 45.0809C80.8927 41.1635 86.4182 38.1287 92.7779 35.9766C96.6469 34.6708 99.9235 34.0179 102.608 34.0179C104.784 34.0179 106.622 34.5499 108.121 35.6138C109.717 36.7746 110.515 38.3343 110.515 40.293C110.515 43.364 108.085 46.7615 103.224 50.4855C102.451 51.09 101.749 51.5978 101.121 52.0089L99.8147 52.8795C97.3966 54.5722 93.721 56.4704 88.7879 58.5742C90.3114 59.3722 91.726 59.7712 93.0318 59.7712C94.3618 59.7712 95.5467 59.614 96.5865 59.2997C97.6505 58.9853 98.8475 58.5379 100.177 57.9576C101.507 57.3772 102.922 56.6881 104.421 55.8901C105.945 55.0679 107.48 54.1732 109.028 53.2059C112.486 51.0538 115.484 48.8532 118.023 46.6044C119.353 45.3711 121.046 44.3917 123.102 43.6663C123.779 43.4487 124.371 43.3398 124.879 43.3398ZM84.8705 53.5324L86.8655 52.5167C87.5184 52.1782 88.0988 51.8638 88.6066 51.5737C93.4913 48.7686 96.2721 47.0396 96.9492 46.3867C97.6263 45.7338 97.9648 45.2865 97.9648 45.0446C97.9648 44.7786 97.8923 44.4764 97.7472 44.1378C97.6021 43.7993 97.4087 43.497 97.1668 43.231C96.5865 42.5539 95.9699 42.2154 95.317 42.2154C94.6641 42.2154 93.9386 42.3363 93.1406 42.5781C92.3668 42.8199 91.5809 43.1585 90.7829 43.5938C89.9849 44.0048 89.2111 44.5126 88.4615 45.1172C87.736 45.6975 87.0952 46.3263 86.5391 47.0033C85.2574 48.5268 84.6166 49.8447 84.6166 50.957C84.6166 52.0694 84.7013 52.9278 84.8705 53.5324ZM115.92 58.0301C115.46 58.0301 115.013 57.9213 114.578 57.7037C114.118 57.486 113.695 57.1354 113.308 56.6518C112.462 55.5878 112.038 54.1369 112.038 52.2991C112.038 50.3404 113.211 47.8981 115.557 44.9721C117.83 42.1429 120.478 39.7005 123.501 37.6451C126.741 35.4204 129.522 34.308 131.843 34.308C133.899 34.308 135.289 34.8884 136.015 36.0491L136.522 36.8471C136.909 37.4516 137.296 37.7539 137.683 37.7539C138.07 37.7539 138.674 37.7176 139.497 37.6451L144.647 37.2824C145.445 37.2098 146.074 37.1735 146.533 37.1735C146.993 37.1735 147.513 37.3428 148.093 37.6814C148.698 37.9957 149.23 38.4189 149.689 38.9509C150.705 40.16 151.213 41.49 151.213 42.9408C151.213 44.4401 149.556 46.7978 146.243 50.014L143.849 52.4079C142.132 54.1732 141.274 55.2855 141.274 55.745C141.274 56.2044 141.492 56.6155 141.927 56.9782C142.362 57.3168 142.834 57.486 143.342 57.486C143.849 57.486 144.418 57.3531 145.046 57.0871C145.699 56.7969 146.497 56.3858 147.44 55.8538C148.383 55.2976 149.459 54.6326 150.669 53.8588C153.981 51.6825 156.194 50.1832 157.306 49.361L160.317 47.221C162.372 45.7701 163.835 45.0446 164.706 45.0446C165.576 45.0446 166.29 45.2381 166.846 45.625C167.402 45.9877 167.68 46.6285 167.68 47.5474C167.68 48.4663 167.209 49.6996 166.266 51.2472C165.323 52.7948 164.295 54.1369 163.182 55.2734C162.094 56.41 161.03 57.4619 159.991 58.4291C158.951 59.3964 157.717 60.4483 156.291 61.5848C154.888 62.6972 153.328 63.8337 151.612 64.9944C149.895 66.131 148.081 67.1587 146.171 68.0776C141.842 70.1814 137.864 71.2333 134.237 71.2333C128.941 71.2333 125.713 69.867 124.552 67.1345C124.19 66.3123 124.008 65.3934 124.008 64.3778C124.008 63.3622 124.202 62.274 124.589 61.1133C124.976 59.9284 125.483 58.7556 126.112 57.5949C127.37 55.2976 128.857 53.2664 130.574 51.5011C132.025 49.9777 132.75 49.0709 132.75 48.7807C132.75 48.3212 132.484 48.0311 131.952 47.9102C131.444 47.7892 130.682 47.7288 129.667 47.7288C129.232 47.7288 128.301 48.3575 126.874 49.615L123.319 52.8795C119.547 56.3132 117.08 58.0301 115.92 58.0301ZM192.563 28.0692C191.862 28.6496 191.1 29.1332 190.278 29.5201C189.456 29.8828 188.537 30.0642 187.521 30.0642C186.506 30.0642 185.526 29.8949 184.583 29.5564C183.64 29.2178 182.818 28.7463 182.117 28.1417C180.593 26.8359 179.831 25.1674 179.831 23.1362C179.831 20.0167 182.443 17.6953 187.666 16.1719C189.432 15.6399 190.882 15.3739 192.019 15.3739C193.155 15.3739 194.002 15.5069 194.558 15.7729C195.138 16.0147 195.61 16.3411 195.973 16.7522C196.698 17.5744 197.061 18.4208 197.061 19.2913C197.061 20.1376 196.952 20.9115 196.734 21.6127C196.541 22.314 196.251 23.0394 195.864 23.7891C195.477 24.5387 195.005 25.2883 194.449 26.0379C193.893 26.7876 193.264 27.4647 192.563 28.0692ZM183.422 68.005C181.585 68.9481 179.795 69.6977 178.054 70.2539C176.313 70.8343 174.596 71.1244 172.903 71.1244C171.235 71.1244 169.494 70.7254 167.68 69.9275C165.891 69.1053 164.295 68.0171 162.892 66.6629C159.773 63.6403 158.213 60.279 158.213 56.5792C158.213 53.1696 159.229 49.7117 161.26 46.2054C163.122 43.0376 165.492 40.3776 168.369 38.2254C171.247 36.0733 173.919 34.9972 176.386 34.9972C179.916 34.9972 181.802 35.9887 182.044 37.9715C182.117 38.5761 182.153 39.2773 182.153 40.0753C182.153 40.8733 181.959 41.7922 181.573 42.832C181.21 43.8477 180.726 44.8754 180.122 45.9152C179.541 46.9308 178.888 47.9343 178.163 48.9258C177.462 49.893 176.785 50.7757 176.132 51.5737C174.874 53.0971 173.871 54.1974 173.121 54.8744C173.121 55.6966 173.738 56.543 174.971 57.4135C176.132 58.2357 177.111 58.6468 177.909 58.6468C178.731 58.6468 179.686 58.4533 180.775 58.0664C181.887 57.6795 183.023 57.1596 184.184 56.5067C185.369 55.8538 186.566 55.1042 187.775 54.2578C189.008 53.4115 190.217 52.5409 191.402 51.6462L198.04 46.4593C200.676 44.5489 202.816 43.5938 204.46 43.5938C205.113 43.5938 205.609 43.8356 205.948 44.3192C206.31 44.7786 206.492 45.3227 206.492 45.9515C206.492 46.5802 206.177 47.4507 205.549 48.5631C204.92 49.6512 204.049 50.8603 202.937 52.1903C201.849 53.5203 200.567 54.9107 199.092 56.3616C197.617 57.8125 196.021 59.2392 194.304 60.6417C192.587 62.0443 190.798 63.3863 188.936 64.668C187.098 65.9254 185.26 67.0378 183.422 68.005ZM219.223 64.3415C216.926 65.5506 214.58 66.542 212.186 67.3158C209.817 68.0655 207.592 68.4403 205.512 68.4403C203.433 68.4403 201.087 67.4972 198.475 65.611C198.089 67.7148 197.738 69.8065 197.424 71.8862C197.085 73.99 196.686 75.997 196.227 77.9074C195.767 79.8177 195.199 81.5951 194.522 83.2394C193.82 84.8837 192.914 86.2984 191.801 87.4833C189.359 90.0707 185.961 91.3644 181.609 91.3644C180.932 91.3644 180.376 91.1105 179.94 90.6027C179.166 89.6838 178.852 88.6319 178.997 87.447C179.142 86.2863 179.602 84.6177 180.376 82.4414C181.149 80.2651 182.129 77.859 183.314 75.2232C184.499 72.6116 185.828 69.8307 187.304 66.8806L191.983 57.9576C191.451 56.7001 191.185 55.5757 191.185 54.5843C191.185 53.5928 191.354 52.6014 191.693 51.6099C192.031 50.6185 192.503 49.6875 193.107 48.817C194.485 46.7615 196.021 45.7338 197.714 45.7338C198.028 45.7338 198.355 45.7701 198.693 45.8426C205.029 35.106 208.668 28.9881 209.611 27.4888L211.606 24.3694C215.33 18.8802 218.86 15.5915 222.198 14.5033C223.334 14.1406 224.495 13.9593 225.68 13.9593C226.865 13.9593 227.832 14.3704 228.581 15.1925C229.355 16.0147 229.742 17.3205 229.742 19.1099C229.742 24.2122 226.889 30.0763 221.182 36.702L211.751 47.1484C210.083 48.9621 208.487 50.824 206.963 52.7344C207.761 53.6533 208.499 54.4513 209.176 55.1283C209.853 55.7813 210.409 56.1077 210.844 56.1077C211.304 56.1077 211.969 55.9626 212.839 55.6724C213.71 55.3581 214.701 54.947 215.814 54.4392C216.95 53.9314 218.159 53.351 219.441 52.6981C220.722 52.021 221.968 51.3318 223.177 50.6306C225.837 49.083 227.747 47.8134 228.908 46.822C230.939 45.1051 232.535 44.2467 233.696 44.2467C234.542 44.2467 235.159 44.4401 235.546 44.827C236.174 45.4557 236.489 46.2054 236.489 47.0759C236.489 47.9222 236.017 49.1192 235.074 50.6669C234.155 52.1903 232.898 53.7621 231.302 55.3823C229.73 56.9782 227.904 58.5621 225.825 60.1339C223.745 61.7057 221.545 63.1083 219.223 64.3415ZM241.857 54.5843C241.857 55.6966 242.595 56.2528 244.07 56.2528C247.068 56.2528 252.171 52.5167 259.377 45.0446L262.895 41.49C265.289 39.1443 266.873 37.9715 267.647 37.9715C268.421 37.9715 269.11 38.1045 269.714 38.3705C270.319 38.6365 270.851 38.9751 271.31 39.3862C272.253 40.2325 272.725 41.1393 272.725 42.1066C272.725 43.0497 272.616 44.1016 272.398 45.2623C272.205 46.3988 271.891 47.6804 271.455 49.1071C270.657 51.7671 269.219 55.3339 267.139 59.8075L265.652 62.9994L271.818 57.4135L284.441 46.6044C285.722 45.6371 286.786 45.1535 287.633 45.1535C289.471 45.1535 290.39 46.0361 290.39 47.8013C290.39 49.615 289.205 51.9485 286.835 54.8019C286.109 55.6966 285.323 56.5309 284.477 57.3047L275.917 64.7405L259.232 78.8504C257.757 80.1321 256.644 81.1477 255.895 81.8973C255 83.3482 254.299 84.4243 253.791 85.1256C253.307 85.851 252.823 86.6127 252.34 87.4107C251.856 88.2329 251.385 88.9342 250.925 89.5145C249.934 90.7719 248.942 91.4007 247.951 91.4007C246.911 91.4007 245.908 90.9775 244.94 90.1311C243.151 88.5593 242.256 87.1568 242.256 85.9235C242.256 84.6903 242.595 83.2515 243.272 81.6071C243.949 79.987 244.831 78.125 245.92 76.0212L253.609 61.8387C249.91 65.1758 247.008 67.3884 244.904 68.4766C242.8 69.5406 241.023 70.2418 239.572 70.5804C238.145 70.9431 236.622 71.1244 235.002 71.1244C233.406 71.1244 232.003 70.7859 230.794 70.1088C229.585 69.4559 228.581 68.5733 227.783 67.4609C226.236 65.2604 225.462 62.3949 225.462 58.8644C225.462 55.1163 226.405 51.4165 228.291 47.7651C230.105 44.1862 232.499 41.3086 235.473 39.1323C238.617 36.8108 241.845 35.6501 245.158 35.6501C248.471 35.6501 250.127 36.9438 250.127 39.5313C250.127 41.1514 248.749 43.5575 245.992 46.7494C243.235 49.9172 241.857 52.5288 241.857 54.5843ZM350.021 61.1858L350.094 58.7193C350.142 57.1717 350.287 55.479 350.529 53.6412L351.109 49.361C351.23 48.3454 351.351 47.4265 351.472 46.6044C349.175 49.1192 347.325 51.0779 345.922 52.4805L341.751 56.543C332.417 65.2725 326.855 69.6373 325.066 69.6373C322.43 69.6373 319.661 69.069 316.759 67.9325C315.188 67.3038 314.293 66.6509 314.075 65.9738C313.737 65.1274 313.568 63.9788 313.568 62.5279C313.568 61.0528 313.616 59.6987 313.713 58.4654C313.809 57.2321 313.93 56.011 314.075 54.8019C314.22 53.5686 314.366 52.3958 314.511 51.2835C314.68 50.1469 314.813 49.1555 314.91 48.3092C315.151 46.3988 315.2 45.4436 315.055 45.4436L301.561 62.0201C295.202 69.4922 291.587 73.6272 290.716 74.4252C288.854 76.1179 286.799 76.9643 284.55 76.9643C283.437 76.9643 282.518 76.6862 281.793 76.13C281.068 75.5738 280.705 74.8847 280.705 74.0625C280.705 72.4182 281.394 70.7013 282.772 68.9118L314.982 27.9604L318.754 23.4263C323.252 18.1306 326.202 15.4827 327.605 15.4827C329.564 15.4827 331.426 15.9784 333.191 16.9699C334.763 17.8404 335.657 18.6868 335.875 19.5089C335.972 19.8233 335.766 21.2863 335.258 23.8979L333.989 30.7533C332.562 38.3947 331.849 43.3278 331.849 45.5525C331.849 47.753 332.103 48.8532 332.61 48.8532C334.255 48.8532 337.423 46.157 342.114 40.7645L353.866 26.6908C356.454 23.7165 358.17 22.0238 359.017 21.6127C359.259 21.4918 359.609 21.4314 360.069 21.4314C360.528 21.4314 361.036 21.4918 361.592 21.6127C362.172 21.7336 362.753 21.8908 363.333 22.0843C363.938 22.2777 364.518 22.5074 365.074 22.7734C365.63 23.0394 366.126 23.3175 366.561 23.6077C367.504 24.2364 367.964 24.7563 367.94 25.1674C367.94 25.5543 367.843 26.4128 367.65 27.7427C367.456 29.0485 367.214 30.6445 366.924 32.5307C364.917 45.0326 363.865 52.287 363.768 54.2941C363.696 56.3012 363.901 57.5586 364.385 58.0664C364.893 58.5742 365.63 58.8281 366.598 58.8281C368.363 58.8281 370.926 57.7762 374.287 55.6724C376.56 54.2457 378.435 53.5324 379.91 53.5324C381.409 53.5324 382.158 54.2457 382.158 55.6724C382.158 57.1475 381.36 58.9369 379.765 61.0407C377.467 64.0876 374.033 66.8443 369.463 69.3108C365.618 71.3663 361.967 72.394 358.509 72.394C352.85 72.394 350.021 68.6579 350.021 61.1858ZM391.372 69.0206C389.51 68.1985 388.047 67.1708 386.983 65.9375C385.943 64.7042 385.254 63.5435 384.915 62.4554C384.383 60.8352 384.117 59.4448 384.117 58.284C384.117 57.1233 384.492 55.7933 385.242 54.2941C386.015 52.7948 387.285 51.3077 389.05 49.8326C392.919 46.6164 398.856 43.8597 406.86 41.5625C404.297 40.4743 402.834 38.7454 402.471 36.3756C402.108 33.6672 403.269 31.2612 405.953 29.1574C410.91 25.2641 420.438 22.6283 434.536 21.25C438.888 20.8389 442.044 20.6334 444.003 20.6334C445.986 20.6334 447.388 20.9477 448.21 21.5765C449.057 22.2052 449.552 23.1483 449.698 24.4057C449.867 25.639 449.637 26.6788 449.008 27.5251C448.38 28.3715 447.485 29.0485 446.324 29.5564C444.172 30.4994 441.234 30.971 437.51 30.971C434.778 30.971 432.287 30.5599 430.038 29.7377C429.433 29.4959 428.962 29.242 428.623 28.976C423.787 30.4753 421.042 32.1559 420.389 34.0179C420.196 34.5015 420.123 34.9488 420.172 35.3599C420.389 36.835 421.357 37.9232 423.074 38.6244C424.791 39.3257 427.402 39.7731 430.908 39.9665C432.069 40.0632 432.928 40.3776 433.484 40.9096C434.064 41.4416 434.391 41.9978 434.463 42.5781C434.56 43.1585 434.524 43.6179 434.354 43.9565C434.185 44.2708 433.931 44.5368 433.593 44.7545C433.012 45.1414 431.864 45.4678 430.147 45.7338C428.43 45.9998 426.435 46.3746 424.162 46.8583C421.889 47.3177 419.725 47.8134 417.669 48.3454C415.614 48.8774 413.703 49.4215 411.938 49.9777C410.197 50.5339 408.686 51.0658 407.404 51.5737C404.696 52.7102 403.39 53.6291 403.487 54.3304C403.583 55.0074 403.861 55.5999 404.321 56.1077C404.78 56.6155 405.397 57.0629 406.171 57.4498C407.622 58.1269 409.387 58.5621 411.467 58.7556C413.57 58.9249 415.602 59.0095 417.56 59.0095C419.543 59.0095 421.659 58.8523 423.908 58.5379C426.181 58.1994 428.297 57.7762 430.256 57.2684C432.238 56.7606 434.052 56.2286 435.696 55.6724C437.365 55.0921 438.816 54.548 440.049 54.0402L443.023 52.8069C443.797 52.4684 444.498 52.2991 445.127 52.2991C446.796 52.2991 447.739 53.1817 447.956 54.947C448.247 57.341 445.562 60.0372 439.904 63.0357C432.335 67.074 423.968 69.7098 414.804 70.9431C412.676 71.2333 410.112 71.3783 407.114 71.3783C404.139 71.3783 401.238 71.1849 398.408 70.798C395.579 70.4111 393.234 69.8186 391.372 69.0206Z" fill="#1A87EC"/>
<path d="M343.796 111.11C344.423 111.21 344.993 111.465 345.505 111.878C346.033 112.291 346.446 112.803 346.743 113.413C347.056 114.024 347.213 114.676 347.213 115.37C347.213 116.244 346.99 117.037 346.545 117.747C346.099 118.44 345.447 118.993 344.588 119.406C343.746 119.802 342.748 120 341.592 120H335.154V102.741H341.345C342.517 102.741 343.515 102.939 344.341 103.335C345.166 103.715 345.785 104.235 346.198 104.895C346.611 105.556 346.817 106.298 346.817 107.124C346.817 108.147 346.536 108.997 345.975 109.674C345.43 110.335 344.704 110.813 343.796 111.11ZM337.407 110.194H341.196C342.252 110.194 343.07 109.947 343.647 109.451C344.225 108.956 344.514 108.271 344.514 107.396C344.514 106.521 344.225 105.836 343.647 105.341C343.07 104.846 342.236 104.598 341.146 104.598H337.407V110.194ZM341.394 118.143C342.517 118.143 343.392 117.879 344.019 117.35C344.646 116.822 344.96 116.088 344.96 115.147C344.96 114.189 344.63 113.438 343.969 112.893C343.309 112.332 342.426 112.051 341.32 112.051H337.407V118.143H341.394ZM362.028 106.43L353.856 126.389H351.529L354.203 119.851L348.731 106.43H351.232L355.491 117.425L359.7 106.43H362.028ZM381.517 102.741V104.573H376.812V120H374.559V104.573H369.83V102.741H381.517ZM396.672 112.695C396.672 113.124 396.647 113.578 396.598 114.057H385.752C385.834 115.394 386.288 116.443 387.114 117.202C387.956 117.945 388.971 118.316 390.16 118.316C391.134 118.316 391.942 118.093 392.586 117.648C393.247 117.185 393.709 116.575 393.973 115.815H396.4C396.036 117.119 395.31 118.184 394.22 119.01C393.131 119.818 391.777 120.223 390.16 120.223C388.872 120.223 387.716 119.934 386.693 119.356C385.686 118.778 384.894 117.961 384.316 116.905C383.738 115.832 383.449 114.594 383.449 113.19C383.449 111.787 383.73 110.557 384.291 109.501C384.852 108.444 385.636 107.636 386.643 107.074C387.667 106.497 388.839 106.208 390.16 106.208C391.447 106.208 392.586 106.488 393.577 107.05C394.567 107.611 395.327 108.387 395.855 109.377C396.4 110.351 396.672 111.457 396.672 112.695ZM394.344 112.225C394.344 111.366 394.154 110.632 393.775 110.021C393.395 109.394 392.875 108.923 392.215 108.61C391.571 108.279 390.853 108.114 390.06 108.114C388.921 108.114 387.947 108.477 387.139 109.204C386.346 109.93 385.892 110.937 385.777 112.225H394.344ZM398.804 113.19C398.804 111.787 399.085 110.566 399.646 109.526C400.208 108.469 400.983 107.652 401.974 107.074C402.981 106.497 404.128 106.208 405.416 106.208C407.083 106.208 408.453 106.612 409.526 107.421C410.616 108.23 411.334 109.352 411.681 110.789H409.254C409.023 109.963 408.569 109.311 407.892 108.832C407.232 108.354 406.406 108.114 405.416 108.114C404.128 108.114 403.088 108.56 402.296 109.451C401.503 110.326 401.107 111.573 401.107 113.19C401.107 114.825 401.503 116.088 402.296 116.979C403.088 117.87 404.128 118.316 405.416 118.316C406.406 118.316 407.232 118.085 407.892 117.623C408.552 117.161 409.006 116.5 409.254 115.642H411.681C411.317 117.029 410.591 118.143 409.501 118.985C408.412 119.81 407.05 120.223 405.416 120.223C404.128 120.223 402.981 119.934 401.974 119.356C400.983 118.778 400.208 117.961 399.646 116.905C399.085 115.848 398.804 114.61 398.804 113.19ZM421.422 106.183C422.446 106.183 423.37 106.406 424.196 106.851C425.021 107.281 425.665 107.933 426.127 108.808C426.606 109.683 426.845 110.747 426.845 112.002V120H424.617V112.324C424.617 110.97 424.278 109.938 423.601 109.229C422.925 108.502 422 108.139 420.828 108.139C419.64 108.139 418.69 108.51 417.981 109.253C417.287 109.996 416.941 111.077 416.941 112.497V120H414.687V101.676H416.941V108.362C417.386 107.669 417.997 107.132 418.773 106.752C419.565 106.373 420.448 106.183 421.422 106.183ZM447.33 116.162H439.802L438.415 120H436.038L442.278 102.84H444.878L451.093 120H448.716L447.33 116.162ZM446.686 114.33L443.566 105.613L440.446 114.33H446.686Z" fill="#707070"/>
</svg>
