<svg width="100" height="100" viewBox="0 0 100 100" fill="none" xmlns="http://www.w3.org/2000/svg">
<rect width="100" height="100" rx="12" fill="#FFE4BD"/>
<path opacity="0.5" d="M20.75 49.5C20.75 35.9472 20.75 29.1709 24.959 24.959C29.1737 20.75 35.9472 20.75 49.5 20.75C63.0527 20.75 69.8291 20.75 74.0381 24.959C78.25 29.1737 78.25 35.9472 78.25 49.5C78.25 63.0527 78.25 69.8291 74.0381 74.0381C69.832 78.25 63.0527 78.25 49.5 78.25C35.9472 78.25 29.1709 78.25 24.959 74.0381C20.75 69.832 20.75 63.0527 20.75 49.5Z" fill="#FFA929"/>
<path d="M78.2509 29.375C78.2509 31.6625 77.3422 33.8563 75.7247 35.4738C74.1072 37.0913 71.9134 38 69.6259 38C67.3384 38 65.1446 37.0913 63.5271 35.4738C61.9096 33.8563 61.0009 31.6625 61.0009 29.375C61.0009 27.0875 61.9096 24.8937 63.5271 23.2762C65.1446 21.6587 67.3384 20.75 69.6259 20.75C71.9134 20.75 74.1072 21.6587 75.7247 23.2762C77.3422 24.8937 78.2509 27.0875 78.2509 29.375ZM56.6884 45.9062C56.1165 45.9062 55.5681 45.6791 55.1637 45.2747C54.7593 44.8703 54.5322 44.3219 54.5322 43.75C54.5322 43.1781 54.7593 42.6297 55.1637 42.2253C55.5681 41.8209 56.1165 41.5938 56.6884 41.5938H63.8759C64.4478 41.5938 64.9962 41.8209 65.4006 42.2253C65.805 42.6297 66.0322 43.1781 66.0322 43.75V50.9375C66.0322 51.5094 65.805 52.0578 65.4006 52.4622C64.9962 52.8666 64.4478 53.0938 63.8759 53.0938C63.304 53.0938 62.7556 52.8666 62.3512 52.4622C61.9468 52.0578 61.7197 51.5094 61.7197 50.9375V48.9538L55.9323 54.7411C54.9888 55.6839 53.7097 56.2135 52.3759 56.2135C51.0421 56.2135 49.763 55.6839 48.8195 54.7411L44.2598 50.1814C44.193 50.1144 44.1137 50.0613 44.0264 50.0251C43.9391 49.9889 43.8454 49.9702 43.7509 49.9702C43.6564 49.9702 43.5627 49.9889 43.4754 50.0251C43.3881 50.0613 43.3088 50.1144 43.242 50.1814L36.6497 56.7738C36.2409 57.1546 35.7003 57.362 35.1416 57.3521C34.583 57.3423 34.0501 57.116 33.655 56.7209C33.2599 56.3258 33.0336 55.7929 33.0238 55.2343C33.0139 54.6756 33.2213 54.135 33.6022 53.7262L40.1945 47.1339C41.138 46.1911 42.4171 45.6615 43.7509 45.6615C45.0847 45.6615 46.3638 46.1911 47.3073 47.1339L51.867 51.6936C51.9338 51.7606 52.0131 51.8137 52.1004 51.8499C52.1877 51.8861 52.2814 51.9048 52.3759 51.9048C52.4704 51.9048 52.5641 51.8861 52.6514 51.8499C52.7387 51.8137 52.818 51.7606 52.8848 51.6936L58.6693 45.9062H56.6884Z" fill="#FFA929"/>
</svg>
