<svg width="24" height="24" viewBox="0 0 24 24" fill="none" xmlns="http://www.w3.org/2000/svg">
<g clip-path="url(#clip0_3150_14614)">
<path d="M10.325 14.763C9.07728 14.4003 7.98104 13.6423 7.2011 12.603C6.42116 11.5637 5.99967 10.2994 6 9V1H18V10M6 3H1V7C1 9.509 2.791 11 5 11H6M20.034 10.885C21.742 10.49 23 9.103 23 7V3H18M10 19H5V23H16.5M16.5 23C14.7761 23 13.1228 22.3152 11.9038 21.0962C10.6848 19.8772 10 18.2239 10 16.5C10 14.7761 10.6848 13.1228 11.9038 11.9038C13.1228 10.6848 14.7761 10 16.5 10C18.2239 10 19.8772 10.6848 21.0962 11.9038C22.3152 13.1228 23 14.7761 23 16.5C23 18.2239 22.3152 19.8772 21.0962 21.0962C19.8772 22.3152 18.2239 23 16.5 23ZM20 14L15.5 18.5L13 16M10.206 15.424C9.5428 15.7568 8.98524 16.2675 8.59566 16.899C8.20608 17.5305 7.99984 18.258 8 19" stroke="#2D2934" stroke-width="2"/>
</g>
<defs>
<clipPath id="clip0_3150_14614">
<rect width="24" height="24" fill="white"/>
</clipPath>
</defs>
</svg>
