<svg width="24" height="24" viewBox="0 0 24 24" fill="none" xmlns="http://www.w3.org/2000/svg">
<path d="M6 22C5.45 22 4.97933 21.8043 4.588 21.413C4.19667 21.0217 4.00067 20.5507 4 20V8C4 7.06667 4.28333 6.25 4.85 5.55C5.41667 4.85 6.13333 4.38333 7 4.15V2H10V4H14V2H17V4.15C17.8667 4.38333 18.5833 4.85 19.15 5.55C19.7167 6.25 20 7.06667 20 8V20C20 20.55 19.8043 21.021 19.413 21.413C19.0217 21.805 18.5507 22.0007 18 22H6ZM6 20H18V8C18 7.45 17.8043 6.97933 17.413 6.588C17.0217 6.19667 16.5507 6.00067 16 6H8C7.45 6 6.97933 6.196 6.588 6.588C6.19667 6.98 6.00067 7.45067 6 8V20ZM14.5 16H16.5V12H7.5V14H14.5V16Z" fill="black"/>
</svg>
