<svg width="35" height="35" viewBox="0 0 35 35" fill="none" xmlns="http://www.w3.org/2000/svg">
<rect x="0.5" y="0.5" width="34" height="34" rx="17" stroke="#E2E2E2"/>
<path d="M25.3125 26H10.6875C9.75375 26 9 25.2462 9 24.3125V10.8125C9 9.87875 9.75375 9.125 10.6875 9.125H25.3125C26.2462 9.125 27 9.87875 27 10.8125V24.3125C27 25.2462 26.2462 26 25.3125 26ZM10.6875 10.25C10.3725 10.25 10.125 10.4975 10.125 10.8125V24.3125C10.125 24.6275 10.3725 24.875 10.6875 24.875H25.3125C25.6275 24.875 25.875 24.6275 25.875 24.3125V10.8125C25.875 10.4975 25.6275 10.25 25.3125 10.25H10.6875Z" fill="black"/>
<path d="M14.0625 12.5C13.7475 12.5 13.5 12.2525 13.5 11.9375V8.5625C13.5 8.2475 13.7475 8 14.0625 8C14.3775 8 14.625 8.2475 14.625 8.5625V11.9375C14.625 12.2525 14.3775 12.5 14.0625 12.5ZM21.9375 12.5C21.6225 12.5 21.375 12.2525 21.375 11.9375V8.5625C21.375 8.2475 21.6225 8 21.9375 8C22.2525 8 22.5 8.2475 22.5 8.5625V11.9375C22.5 12.2525 22.2525 12.5 21.9375 12.5ZM26.4375 14.75H9.5625C9.2475 14.75 9 14.5025 9 14.1875C9 13.8725 9.2475 13.625 9.5625 13.625H26.4375C26.7525 13.625 27 13.8725 27 14.1875C27 14.5025 26.7525 14.75 26.4375 14.75Z" fill="black"/>
<path d="M19.8994 19.8384C20.5107 20.127 21.0319 20.5765 21.4072 21.1388C21.7824 21.701 21.9976 22.3548 22.0296 23.03C22.0338 23.0919 22.0257 23.154 22.0056 23.2126C21.9856 23.2713 21.954 23.3253 21.9128 23.3716C21.8715 23.4179 21.8215 23.4555 21.7655 23.4822C21.7095 23.5089 21.6488 23.5241 21.5869 23.527C21.525 23.5299 21.4631 23.5204 21.4049 23.4991C21.3467 23.4777 21.2933 23.445 21.2479 23.4027C21.2026 23.3605 21.1661 23.3096 21.1406 23.253C21.1152 23.1965 21.1013 23.1355 21.0998 23.0735C21.0659 22.3563 20.7572 21.6797 20.2377 21.1841C19.7182 20.6885 19.0278 20.412 18.3098 20.412C17.5918 20.412 16.9014 20.6885 16.3819 21.1841C15.8623 21.6797 15.5536 22.3563 15.5198 23.0735C15.5114 23.1949 15.4559 23.3082 15.365 23.3891C15.2741 23.47 15.1552 23.5122 15.0336 23.5065C14.9121 23.5008 14.7976 23.4478 14.7147 23.3587C14.6317 23.2697 14.587 23.1517 14.59 23.03C14.6219 22.3549 14.837 21.7011 15.2121 21.1389C15.5873 20.5766 16.1084 20.1271 16.7196 19.8384C16.3279 19.5118 16.0464 19.0724 15.9133 18.58C15.7802 18.0877 15.802 17.5663 15.9758 17.0868C16.1495 16.6073 16.4667 16.193 16.8843 15.9001C17.3018 15.6073 17.7995 15.4502 18.3095 15.4502C18.8195 15.4502 19.3171 15.6073 19.7347 15.9001C20.1522 16.193 20.4694 16.6073 20.6432 17.0868C20.8169 17.5663 20.8387 18.0877 20.7056 18.58C20.5725 19.0724 20.291 19.5118 19.8994 19.8384ZM19.8615 17.9311C19.8615 17.5195 19.698 17.1248 19.407 16.8338C19.116 16.5428 18.7213 16.3793 18.3098 16.3793C17.8982 16.3793 17.5035 16.5428 17.2125 16.8338C16.9215 17.1248 16.7581 17.5195 16.7581 17.9311C16.7581 18.3426 16.9215 18.7373 17.2125 19.0283C17.5035 19.3193 17.8982 19.4828 18.3098 19.4828C18.7213 19.4828 19.116 19.3193 19.407 19.0283C19.698 18.7373 19.8615 18.3426 19.8615 17.9311Z" fill="black"/>
</svg>
