<svg width="72" height="72" viewBox="0 0 72 72" fill="none" xmlns="http://www.w3.org/2000/svg">
<path d="M39.375 36C39.375 36.6675 39.1771 37.32 38.8062 37.875C38.4354 38.4301 37.9083 38.8626 37.2916 39.1181C36.6749 39.3735 35.9963 39.4404 35.3416 39.3101C34.6869 39.1799 34.0855 38.8585 33.6135 38.3865C33.1415 37.9145 32.8201 37.3131 32.6899 36.6584C32.5596 36.0037 32.6265 35.3251 32.8819 34.7084C33.1374 34.0917 33.5699 33.5646 34.125 33.1938C34.68 32.8229 35.3325 32.625 36 32.625C36.8951 32.625 37.7536 32.9806 38.3865 33.6135C39.0194 34.2464 39.375 35.1049 39.375 36Z" fill="black"/>
</svg>
