<svg width="608" height="402" viewBox="0 0 608 402" fill="none" xmlns="http://www.w3.org/2000/svg">
<g clip-path="url(#clip0_646_10473)">
<path d="M38.511 335.737L36.6145 347.392C36.4716 348.283 36.3222 349.19 36.1599 350.089C34.5748 349.687 32.9313 349.799 31.3927 350.415C32.6134 352.552 33.7073 354.793 34.666 357.122C33.471 361.633 31.7174 365.802 28.7817 368.817C26.8211 370.786 24.4793 372.103 21.9822 372.641C19.4852 373.179 16.9171 372.919 14.5256 371.888L14.6101 371.427C11.4536 363.924 13.1682 354.465 17.0911 347.535C19.0919 344.117 21.4625 341.047 24.138 338.41C26.7878 335.705 29.6521 333.279 32.4903 330.884C33.1278 330.347 33.8814 330.055 34.655 330.045C35.4286 330.036 36.187 330.309 36.8333 330.83C37.4796 331.351 37.9844 332.096 38.2832 332.97C38.5821 333.844 38.6614 334.807 38.511 335.737Z" fill="#E4E4E4"/>
<path d="M15.2016 399.932C14.4033 392.809 13.5824 385.596 14.1423 378.396C14.6398 372.003 16.2316 365.759 19.4739 360.638C21.1947 357.926 23.2886 355.602 25.6615 353.77C26.2804 353.293 26.8494 354.493 26.2337 354.969C22.1281 358.148 18.9526 362.841 17.1649 368.372C15.1905 374.524 14.8736 381.23 15.2165 387.764C15.4224 391.715 15.8582 395.64 16.2979 399.562C16.3333 399.739 16.312 399.927 16.2383 400.086C16.1647 400.244 16.0443 400.363 15.9017 400.416C15.7567 400.464 15.6021 400.44 15.4715 400.349C15.3409 400.258 15.2448 400.108 15.2042 399.931L15.2016 399.932Z" fill="#F2F2F2"/>
<path d="M22.0511 42.669C49.8732 42.0764 77.6982 41.9913 105.526 42.4136C133.35 42.8385 161.165 43.7731 188.97 45.2174C204.573 46.0279 220.169 46.9989 235.759 48.1304C237.012 48.2211 237.007 45.8341 235.759 45.7437C207.982 43.7302 180.184 42.2236 152.366 41.2239C124.551 40.2269 96.7291 39.7397 68.8988 39.7622C53.2821 39.775 37.6662 39.9483 22.0511 40.2823C20.7987 40.309 20.7948 42.6958 22.0511 42.669Z" fill="#E6E6E6"/>
<path d="M215.945 27.7037L228.11 26.5945C229.353 26.4812 229.363 24.0936 228.11 24.2078L215.945 25.317C214.702 25.4303 214.692 27.8179 215.945 27.7037Z" fill="#E6E6E6"/>
<path d="M215.945 42.0237L228.11 40.9146C229.353 40.8013 229.363 38.4137 228.11 38.5279L215.945 39.637C214.702 39.7503 214.692 42.138 215.945 42.0237Z" fill="#E6E6E6"/>
<path d="M215.03 35.4841L232.327 37.409C233.575 37.5479 233.568 35.1603 232.327 35.0223L215.03 33.0974C213.782 32.9585 213.789 35.346 215.03 35.4841Z" fill="#E6E6E6"/>
<path d="M29.251 24.494C28.405 24.4876 27.5762 24.7864 26.8678 25.353C26.1595 25.9197 25.603 26.7292 25.2677 27.6807C24.8926 28.6119 24.7768 29.668 24.938 30.6875C25.0992 31.7069 25.5286 32.6337 26.1605 33.3259C26.7545 33.945 27.4669 34.3694 28.2312 34.5596C28.9954 34.7498 29.7866 34.6995 30.5307 34.4135C31.2917 34.0879 31.9516 33.4814 32.4195 32.6775C32.8875 31.8736 33.1405 30.9117 33.1438 29.9243C33.1778 28.8289 32.9355 27.7472 32.4499 26.8264C31.9644 25.9056 31.259 25.1903 30.4299 24.7778C30.1808 24.6949 29.915 24.736 29.6905 24.8921C29.466 25.0482 29.301 25.3067 29.2315 25.6113C29.17 25.9161 29.2063 26.2382 29.3329 26.5113C29.4595 26.7844 29.6667 26.9876 29.9119 27.0792C30.0817 27.1596 29.7568 26.977 29.9154 27.0828C29.9805 27.1263 30.047 27.1656 30.111 27.212C30.1654 27.2515 30.2175 27.2947 30.2704 27.3371C30.4523 27.4825 30.1816 27.2303 30.2979 27.361C30.3987 27.4744 30.4986 27.585 30.5902 27.71C30.6248 27.7573 30.7606 27.8888 30.6551 27.7969C30.5744 27.7266 30.624 27.7431 30.655 27.7996C30.6786 27.8424 30.7036 27.8841 30.7269 27.9272C30.8029 28.068 30.8719 28.2142 30.9337 28.3651C30.948 28.4 30.9611 28.4357 30.9757 28.4704C31.0029 28.5355 31.0425 28.5526 30.9783 28.4711C30.9171 28.3932 30.9561 28.3985 30.978 28.4734C30.9924 28.5227 31.0081 28.5714 31.0222 28.6208C31.0679 28.7818 31.1062 28.9457 31.137 29.1119C31.1513 29.1887 31.1628 29.266 31.1751 29.3433C31.2186 29.6173 31.1687 29.1729 31.1792 29.3765C31.188 29.5465 31.1983 29.7146 31.1958 29.8852C31.1947 29.9633 31.192 30.0413 31.1875 30.1192C31.1853 30.1581 31.1818 30.1968 31.1797 30.2357C31.1696 30.4229 31.1692 30.1673 31.1906 30.1498C31.1461 30.3087 31.1166 30.4734 31.1026 30.6406C31.0851 30.7148 31.0644 30.7874 31.045 30.8608C30.9772 31.1168 31.1086 30.7212 31.0364 30.8962C30.9769 31.0465 30.9105 31.1926 30.8374 31.3335C30.8056 31.3926 30.6859 31.526 30.7838 31.4331C30.89 31.3324 30.7281 31.5059 30.6936 31.5505C30.6492 31.6078 30.6032 31.6632 30.5554 31.7165C30.5249 31.7531 30.4926 31.7874 30.4588 31.8194C30.4526 31.8156 30.6216 31.6812 30.5305 31.7523C30.4147 31.8427 30.3051 31.9395 30.1831 32.0182C30.1689 32.0274 30.013 32.1159 30.0136 32.119C30.0069 32.0868 30.2141 32.0296 30.0719 32.0859C30.042 32.0978 30.0127 32.1121 29.9829 32.1243C29.8534 32.1777 29.7212 32.2209 29.5872 32.2535C29.5565 32.261 29.524 32.2648 29.4938 32.2743C29.3931 32.3062 29.59 32.2556 29.5959 32.2598C29.5215 32.2559 29.447 32.264 29.3742 32.2838C29.236 32.2935 29.0974 32.2935 28.9592 32.2838C28.9272 32.2816 28.8953 32.2776 28.8634 32.2754C28.7891 32.2701 28.7346 32.2046 28.8334 32.2757C28.9096 32.3306 28.9033 32.2905 28.8358 32.2753C28.8042 32.2681 28.7725 32.2621 28.7409 32.2548C28.6041 32.2235 28.4688 32.1829 28.3356 32.1332C28.264 32.1065 28.1938 32.0754 28.1231 32.0451C28.0923 32.0342 28.0623 32.02 28.0335 32.0028C28.033 31.993 28.2156 32.1097 28.1192 32.0461C27.9975 31.9657 27.8717 31.8984 27.7529 31.8106C27.6895 31.7637 27.6285 31.7128 27.5669 31.6626C27.5398 31.6426 27.514 31.62 27.4898 31.595C27.4918 31.5849 27.6408 31.754 27.5626 31.6627C27.4637 31.5473 27.3579 31.4439 27.2642 31.3209C27.2428 31.2928 27.2225 31.2634 27.2011 31.2352L27.1805 31.2062C27.1277 31.1272 27.1267 31.1275 27.1775 31.2074C27.2292 31.226 27.2268 31.2954 27.1778 31.2053C27.1604 31.1731 27.1418 31.1419 27.1244 31.1098C27.0453 30.9717 26.9778 30.8241 26.923 30.6693C26.9277 30.6648 27.0074 30.9565 26.9465 30.7364C26.935 30.6948 26.922 30.6539 26.9108 30.6122C26.8884 30.5295 26.8687 30.4459 26.8517 30.3614C26.8348 30.2777 26.8262 30.1913 26.8092 30.1079C26.7806 29.9674 26.8259 30.2188 26.8208 30.2125C26.8045 30.1929 26.8114 30.071 26.8102 30.0418C26.8024 29.8546 26.8198 29.6728 26.8226 29.4867C26.8247 29.3425 26.8128 29.5991 26.8104 29.5915C26.811 29.5483 26.8172 29.5056 26.8289 29.4648C26.8465 29.3666 26.8629 29.2686 26.8845 29.1715C26.9092 29.0603 26.9377 28.9505 26.9699 28.8421C26.9819 28.8015 26.9966 28.7616 27.0078 28.7207C27.0488 28.5708 26.9266 28.9016 26.9939 28.7665C27.0866 28.5806 27.1557 28.3794 27.2541 28.1958C27.2774 28.1523 27.4192 27.9098 27.3439 28.0322C27.269 28.1542 27.4209 27.9231 27.4497 27.8838C27.5692 27.7208 27.7097 27.587 27.8335 27.4309C27.9067 27.3386 27.7823 27.4764 27.775 27.4829C27.8133 27.4493 27.8508 27.4145 27.8896 27.3818C27.9573 27.3247 28.0266 27.2707 28.0975 27.2198C28.1775 27.1624 28.2678 27.1197 28.3453 27.0589C28.4368 26.9872 28.2753 27.0904 28.2724 27.0926C28.3142 27.0672 28.3579 27.0468 28.4029 27.0317C28.4784 26.9989 28.8064 26.8255 28.8753 26.8797C28.8722 26.8773 28.6261 26.904 28.825 26.8883C28.872 26.8846 28.9188 26.879 28.9659 26.8766C29.0611 26.8718 29.156 26.8747 29.2511 26.8808C29.5089 26.8787 29.7557 26.7523 29.9381 26.5289C30.1204 26.3056 30.2236 26.0033 30.2253 25.6874C30.2198 25.373 30.1154 25.0734 29.9338 24.851C29.7523 24.6287 29.5077 24.5008 29.251 24.494Z" fill="#E6E6E6"/>
<path d="M42.8907 24.494C42.0447 24.4876 41.2158 24.7864 40.5075 25.353C39.7991 25.9197 39.2426 26.7292 38.9073 27.6807C38.5322 28.6119 38.4164 29.668 38.5777 30.6875C38.7389 31.7069 39.1683 32.6337 39.8001 33.3259C40.3941 33.945 41.1065 34.3694 41.8708 34.5596C42.6351 34.7498 43.4262 34.6995 44.1703 34.4135C44.9313 34.0879 45.5912 33.4814 46.0592 32.6775C46.5271 31.8736 46.7802 30.9117 46.7834 29.9243C46.8174 28.8289 46.5752 27.7472 46.0896 26.8264C45.604 25.9056 44.8987 25.1903 44.0695 24.7778C43.8204 24.6949 43.5547 24.736 43.3302 24.8921C43.1057 25.0482 42.9407 25.3067 42.8711 25.6113C42.8097 25.9161 42.846 26.2382 42.9726 26.5113C43.0991 26.7844 43.3064 26.9876 43.5516 27.0792C43.7214 27.1596 43.3965 26.977 43.555 27.0828C43.6202 27.1263 43.6866 27.1656 43.7506 27.212C43.805 27.2515 43.8571 27.2947 43.9101 27.3371C44.0919 27.4825 43.8213 27.2303 43.9375 27.361C44.0383 27.4744 44.1382 27.585 44.2298 27.71C44.2645 27.7573 44.4002 27.8888 44.2947 27.7969C44.214 27.7266 44.2636 27.7431 44.2947 27.7996C44.3183 27.8424 44.3433 27.8841 44.3666 27.9272C44.4425 28.068 44.5116 28.2142 44.5733 28.3651C44.5877 28.4 44.6007 28.4357 44.6153 28.4704C44.6426 28.5355 44.6821 28.5526 44.618 28.4711C44.5567 28.3932 44.5957 28.3985 44.6176 28.4734C44.6321 28.5227 44.6478 28.5714 44.6618 28.6208C44.7075 28.7818 44.7458 28.9457 44.7767 29.1119C44.791 29.1887 44.8024 29.266 44.8147 29.3433C44.8582 29.6173 44.8084 29.1729 44.8189 29.3765C44.8277 29.5465 44.8379 29.7146 44.8355 29.8852C44.8344 29.9633 44.8316 30.0413 44.8272 30.1192C44.8249 30.1581 44.8214 30.1968 44.8193 30.2357C44.8092 30.4229 44.8089 30.1673 44.8303 30.1498C44.7858 30.3087 44.7562 30.4734 44.7422 30.6406C44.7248 30.7148 44.7041 30.7874 44.6846 30.8608C44.6169 31.1168 44.7483 30.7212 44.676 30.8962C44.6166 31.0465 44.5501 31.1926 44.477 31.3335C44.4453 31.3926 44.3256 31.526 44.4235 31.4331C44.5297 31.3324 44.3678 31.5059 44.3332 31.5505C44.2888 31.6078 44.2428 31.6632 44.1951 31.7165C44.1645 31.7531 44.1322 31.7874 44.0984 31.8194C44.0922 31.8156 44.2612 31.6812 44.1701 31.7523C44.0544 31.8427 43.9448 31.9395 43.8228 32.0182C43.8086 32.0274 43.6526 32.1159 43.6533 32.119C43.6465 32.0868 43.8538 32.0296 43.7115 32.0859C43.6816 32.0978 43.6523 32.1121 43.6226 32.1243C43.4931 32.1777 43.3609 32.2209 43.2268 32.2535C43.1961 32.261 43.1637 32.2648 43.1334 32.2743C43.0327 32.3062 43.2297 32.2556 43.2356 32.2598C43.1612 32.2559 43.0866 32.264 43.0139 32.2838C42.8757 32.2935 42.7371 32.2935 42.5989 32.2838C42.5669 32.2816 42.535 32.2776 42.503 32.2754C42.4288 32.2701 42.3743 32.2046 42.4731 32.2757C42.5493 32.3306 42.543 32.2905 42.4754 32.2753C42.4439 32.2681 42.4121 32.2621 42.3806 32.2548C42.2437 32.2235 42.1084 32.1829 41.9753 32.1332C41.9036 32.1065 41.8334 32.0754 41.7627 32.0451C41.7319 32.0342 41.7019 32.02 41.6731 32.0028C41.6727 31.993 41.8553 32.1097 41.7589 32.0461C41.6372 31.9657 41.5113 31.8984 41.3925 31.8106C41.3291 31.7637 41.2682 31.7128 41.2065 31.6626C41.1794 31.6426 41.1536 31.62 41.1294 31.595C41.1315 31.5849 41.2805 31.754 41.2023 31.6627C41.1033 31.5473 40.9975 31.4439 40.9038 31.3209C40.8824 31.2928 40.8621 31.2634 40.8408 31.2352L40.8201 31.2062C40.7673 31.1272 40.7663 31.1275 40.8172 31.2074C40.8688 31.226 40.8665 31.2954 40.8175 31.2053C40.8 31.1731 40.7814 31.1419 40.764 31.1098C40.6849 30.9717 40.6174 30.8241 40.5626 30.6693C40.5674 30.6648 40.647 30.9565 40.5861 30.7364C40.5746 30.6948 40.5617 30.6539 40.5504 30.6122C40.528 30.5295 40.5083 30.4459 40.4913 30.3614C40.4745 30.2777 40.4658 30.1913 40.4488 30.1079C40.4202 29.9674 40.4656 30.2188 40.4604 30.2125C40.4442 30.1929 40.4511 30.071 40.4499 30.0418C40.4421 29.8546 40.4595 29.6728 40.4622 29.4867C40.4643 29.3425 40.4525 29.5991 40.45 29.5915C40.4506 29.5483 40.4568 29.5056 40.4685 29.4648C40.4861 29.3666 40.5025 29.2686 40.5241 29.1715C40.5489 29.0603 40.5773 28.9505 40.6095 28.8421C40.6215 28.8015 40.6362 28.7616 40.6474 28.7207C40.6884 28.5708 40.5662 28.9016 40.6336 28.7665C40.7263 28.5806 40.7953 28.3794 40.8937 28.1958C40.917 28.1523 41.0588 27.9098 40.9836 28.0322C40.9086 28.1542 41.0606 27.9231 41.0894 27.8838C41.2089 27.7208 41.3494 27.587 41.4731 27.4309C41.5463 27.3386 41.422 27.4764 41.4147 27.4829C41.453 27.4493 41.4905 27.4145 41.5293 27.3818C41.5969 27.3247 41.6662 27.2707 41.7372 27.2198C41.8171 27.1624 41.9075 27.1197 41.9849 27.0589C42.0764 26.9872 41.9149 27.0904 41.9121 27.0926C41.9539 27.0672 41.9976 27.0468 42.0426 27.0317C42.118 26.9989 42.4461 26.8255 42.5149 26.8797C42.5118 26.8773 42.2658 26.904 42.4647 26.8883C42.5117 26.8846 42.5585 26.879 42.6055 26.8766C42.7007 26.8718 42.7956 26.8747 42.8907 26.8808C43.1486 26.8787 43.3954 26.7523 43.5777 26.5289C43.7601 26.3056 43.8633 26.0033 43.8649 25.6874C43.8594 25.373 43.755 25.0734 43.5735 24.851C43.392 24.6287 43.1473 24.5008 42.8907 24.494Z" fill="#E6E6E6"/>
<path d="M56.5294 24.494C55.6833 24.4876 54.8545 24.7864 54.1462 25.353C53.4378 25.9197 52.8813 26.7292 52.546 27.6807C52.1709 28.6119 52.0551 29.668 52.2163 30.6875C52.3776 31.7069 52.8069 32.6337 53.4388 33.3259C54.0328 33.945 54.7452 34.3694 55.5095 34.5596C56.2737 34.7498 57.0649 34.6995 57.809 34.4135C58.57 34.0879 59.2299 33.4814 59.6979 32.6775C60.1658 31.8736 60.4188 30.9117 60.4221 29.9243C60.4561 28.8289 60.2138 27.7472 59.7283 26.8264C59.2427 25.9056 58.5374 25.1903 57.7082 24.7778C57.4591 24.6949 57.1933 24.736 56.9688 24.8921C56.7444 25.0482 56.5794 25.3067 56.5098 25.6113C56.4484 25.9161 56.4847 26.2382 56.6112 26.5113C56.7378 26.7844 56.945 26.9876 57.1902 27.0792C57.36 27.1596 57.0351 26.977 57.1937 27.0828C57.2589 27.1263 57.3253 27.1656 57.3893 27.212C57.4437 27.2515 57.4958 27.2947 57.5487 27.3371C57.7306 27.4825 57.4599 27.2303 57.5762 27.361C57.677 27.4744 57.7769 27.585 57.8685 27.71C57.9031 27.7573 58.0389 27.8888 57.9334 27.7969C57.8527 27.7266 57.9023 27.7431 57.9334 27.7996C57.957 27.8424 57.9819 27.8841 58.0052 27.9272C58.0812 28.068 58.1502 28.2142 58.212 28.3651C58.2263 28.4 58.2394 28.4357 58.254 28.4704C58.2812 28.5355 58.3208 28.5526 58.2567 28.4711C58.1954 28.3932 58.2344 28.3985 58.2563 28.4734C58.2707 28.5227 58.2865 28.5714 58.3005 28.6208C58.3462 28.7818 58.3845 28.9457 58.4154 29.1119C58.4296 29.1887 58.4411 29.266 58.4534 29.3433C58.4969 29.6173 58.4471 29.1729 58.4576 29.3765C58.4663 29.5465 58.4766 29.7146 58.4742 29.8852C58.4731 29.9633 58.4703 30.0413 58.4659 30.1192C58.4636 30.1581 58.4601 30.1968 58.458 30.2357C58.4479 30.4229 58.4476 30.1673 58.469 30.1498C58.4244 30.3087 58.3949 30.4734 58.3809 30.6406C58.3635 30.7148 58.3427 30.7874 58.3233 30.8608C58.2555 31.1168 58.387 30.7212 58.3147 30.8962C58.2553 31.0465 58.1888 31.1926 58.1157 31.3335C58.0839 31.3926 57.9643 31.526 58.0621 31.4331C58.1683 31.3324 58.0064 31.5059 57.9719 31.5505C57.9275 31.6078 57.8815 31.6632 57.8337 31.7165C57.8032 31.7531 57.7709 31.7874 57.7371 31.8194C57.7309 31.8156 57.8999 31.6812 57.8088 31.7523C57.693 31.8427 57.5834 31.9395 57.4614 32.0182C57.4472 32.0274 57.2913 32.1159 57.2919 32.119C57.2852 32.0868 57.4924 32.0296 57.3502 32.0859C57.3203 32.0978 57.291 32.1121 57.2612 32.1243C57.1317 32.1777 56.9995 32.2209 56.8655 32.2535C56.8348 32.261 56.8023 32.2648 56.7721 32.2743C56.6714 32.3062 56.8684 32.2556 56.8743 32.2598C56.7998 32.2559 56.7253 32.264 56.6526 32.2838C56.5143 32.2935 56.3758 32.2935 56.2375 32.2838C56.2056 32.2816 56.1737 32.2776 56.1417 32.2754C56.0674 32.2701 56.013 32.2046 56.1118 32.2757C56.188 32.3306 56.1816 32.2905 56.1141 32.2753C56.0825 32.2681 56.0508 32.2621 56.0192 32.2548C55.8824 32.2235 55.7471 32.1829 55.614 32.1332C55.5423 32.1065 55.4721 32.0754 55.4014 32.0451C55.3706 32.0342 55.3406 32.02 55.3118 32.0028C55.3113 31.993 55.494 32.1097 55.3975 32.0461C55.2759 31.9657 55.15 31.8984 55.0312 31.8106C54.9678 31.7637 54.9069 31.7128 54.8452 31.6626C54.8181 31.6426 54.7923 31.62 54.7681 31.595C54.7701 31.5849 54.9191 31.754 54.8409 31.6627C54.742 31.5473 54.6362 31.4439 54.5425 31.3209C54.5211 31.2928 54.5008 31.2634 54.4795 31.2352L54.4588 31.2062C54.406 31.1272 54.405 31.1275 54.4558 31.2074C54.5075 31.226 54.5051 31.2954 54.4561 31.2053C54.4387 31.1731 54.4201 31.1419 54.4027 31.1098C54.3236 30.9717 54.2561 30.8241 54.2013 30.6693C54.2061 30.6648 54.2857 30.9565 54.2248 30.7364C54.2133 30.6948 54.2004 30.6539 54.1891 30.6122C54.1667 30.5295 54.147 30.4459 54.13 30.3614C54.1131 30.2777 54.1045 30.1913 54.0875 30.1079C54.0589 29.9674 54.1042 30.2188 54.0991 30.2125C54.0828 30.1929 54.0897 30.071 54.0885 30.0418C54.0807 29.8546 54.0982 29.6728 54.1009 29.4867C54.103 29.3425 54.0911 29.5991 54.0887 29.5915C54.0893 29.5483 54.0955 29.5056 54.1072 29.4648C54.1248 29.3666 54.1412 29.2686 54.1628 29.1715C54.1875 29.0603 54.216 28.9505 54.2482 28.8421C54.2602 28.8015 54.2749 28.7616 54.2861 28.7207C54.3271 28.5708 54.2049 28.9016 54.2723 28.7665C54.3649 28.5806 54.434 28.3794 54.5324 28.1958C54.5557 28.1523 54.6975 27.9098 54.6222 28.0322C54.5473 28.1542 54.6993 27.9231 54.728 27.8838C54.8475 27.7208 54.9881 27.587 55.1118 27.4309C55.185 27.3386 55.0607 27.4764 55.0533 27.4829C55.0916 27.4493 55.1292 27.4145 55.168 27.3818C55.2356 27.3247 55.3049 27.2707 55.3759 27.2198C55.4558 27.1624 55.5461 27.1197 55.6236 27.0589C55.7151 26.9872 55.5536 27.0904 55.5507 27.0926C55.5925 27.0672 55.6362 27.0468 55.6812 27.0317C55.7567 26.9989 56.0848 26.8255 56.1536 26.8797C56.1505 26.8773 55.9045 26.904 56.1033 26.8883C56.1503 26.8846 56.1971 26.879 56.2442 26.8766C56.3394 26.8718 56.4343 26.8747 56.5294 26.8808C56.7872 26.8787 57.0341 26.7523 57.2164 26.5289C57.3987 26.3056 57.5019 26.0033 57.5036 25.6874C57.4981 25.373 57.3937 25.0734 57.2122 24.851C57.0306 24.6287 56.786 24.5008 56.5294 24.494Z" fill="#E6E6E6"/>
<path d="M253.565 288.792H14.6174C11.5959 288.788 8.69906 287.316 6.5625 284.699C4.42593 282.082 3.2241 278.534 3.2207 274.833V13.9595C3.22409 10.2583 4.4259 6.70985 6.56246 4.0927C8.69902 1.47555 11.5958 0.00341795 14.6174 -0.000732422H253.565C256.587 0.00341796 259.483 1.47555 261.62 4.0927C263.757 6.70985 264.958 10.2583 264.962 13.9595V274.833C264.958 278.534 263.757 282.082 261.62 284.699C259.483 287.316 256.587 288.788 253.565 288.792ZM14.6174 1.59041C11.9403 1.59415 9.37362 2.89851 7.48059 5.21735C5.58755 7.5362 4.52271 10.6801 4.51967 13.9595V274.833C4.52278 278.112 5.58766 281.256 7.48069 283.575C9.37371 285.893 11.9403 287.198 14.6174 287.201H253.565C256.242 287.198 258.809 285.893 260.702 283.575C262.595 281.256 263.66 278.112 263.663 274.833V13.9595C263.66 10.6801 262.595 7.5362 260.702 5.21735C258.809 2.89851 256.242 1.59415 253.565 1.59041H14.6174Z" fill="#E6E6E6"/>
<path d="M14.2213 177.497L98.2507 177.183L181.851 176.872L229.011 176.696C229.263 176.686 229.503 176.555 229.678 176.333C229.854 176.11 229.952 175.812 229.952 175.503C229.952 175.193 229.854 174.896 229.678 174.673C229.503 174.451 229.263 174.32 229.011 174.31L144.981 174.623L61.3807 174.934L14.2213 175.11C13.9688 175.121 13.7295 175.251 13.554 175.474C13.3784 175.696 13.2803 175.994 13.2803 176.303C13.2803 176.613 13.3784 176.91 13.554 177.133C13.7295 177.355 13.9688 177.486 14.2213 177.497Z" fill="#E6E6E6"/>
<path d="M56.6127 175.562L57.1323 137.981C57.1535 136.445 55.2051 136.444 55.1838 137.981L54.6642 175.562C54.643 177.098 56.5914 177.098 56.6127 175.562Z" fill="#E6E6E6"/>
<path d="M96.7733 175.968L98.0395 128.731L98.4013 115.235C98.4425 113.699 96.494 113.701 96.4528 115.235L95.1866 162.472L94.8249 175.968C94.7837 177.504 96.7322 177.503 96.7733 175.968Z" fill="#E6E6E6"/>
<path d="M136.826 92.8437C136.063 109.575 134.649 158.924 133.886 175.655C133.816 177.19 135.764 177.185 135.834 175.655C136.598 158.924 138.011 109.575 138.775 92.8437C138.845 91.3091 136.896 91.314 136.826 92.8437Z" fill="#E6E6E6"/>
<path d="M176.686 158.866L176.447 174.947C176.425 176.484 178.373 176.484 178.396 174.947C178.678 155.955 179.401 156.574 179.481 151.213C179.504 149.677 177.555 149.677 177.533 151.213C177.533 151.213 176.968 139.873 176.686 158.866Z" fill="#E6E6E6"/>
<path d="M215.728 116.621L215.948 161.737L216.011 174.656C216.02 174.965 216.126 175.258 216.308 175.473C216.49 175.688 216.733 175.809 216.985 175.809C217.238 175.809 217.481 175.688 217.662 175.473C217.844 175.258 217.951 174.965 217.959 174.656L217.739 129.54L217.676 116.621C217.667 116.312 217.561 116.019 217.379 115.804C217.197 115.589 216.954 115.469 216.702 115.469C216.449 115.469 216.206 115.589 216.025 115.804C215.843 116.019 215.736 116.312 215.728 116.621Z" fill="#E6E6E6"/>
<path d="M14.3777 176.154C12.7649 170.725 16.4005 165.503 20.1362 163.157C24.6118 160.346 29.7604 159.709 34.2834 156.999C41.0265 152.959 45.9379 145.709 50.3082 138.451C54.8064 130.981 58.9222 122.964 64.6379 116.758C67.6498 113.414 71.207 110.893 75.0742 109.36C79.9468 107.497 85.1144 107.369 90.1492 108.12C100.553 109.671 110.197 114.935 120.236 118.28C129.7 121.434 140.128 123.208 149.417 118.303C154.137 115.811 157.997 111.632 162.142 108.015C166.154 104.478 170.64 101.827 175.397 100.183C184.722 97.0063 194.906 97.8545 203.588 103.224C211.568 108.097 217.887 116.266 221.429 126.29C225.545 138.334 225.009 151.792 223.664 164.469C223.317 167.746 222.903 171.012 222.485 174.276C222.293 175.779 224.17 176.426 224.364 174.911C226.038 161.839 227.707 148.353 225.624 135.199C223.823 123.713 218.667 113.424 211.121 106.258C203.542 99.0731 194.122 95.4312 184.549 95.9864C179.533 96.2716 174.595 97.6169 169.953 99.963C165.134 102.404 161.054 106.023 156.909 109.831C152.648 113.746 148.255 116.984 142.964 118.261C137.832 119.5 132.493 119.035 127.384 117.866C116.841 115.453 107.015 109.922 96.5614 107.088C86.8766 104.463 76.4258 104.2 67.7534 110.902C61.0823 116.057 56.3684 124.061 51.8445 131.789C47.3602 139.45 42.8192 147.641 36.2621 152.874C32.2621 156.066 27.7656 157.244 23.291 159.039C18.8049 160.839 14.4981 163.875 12.6689 169.505C11.8806 171.824 11.82 174.418 12.4989 176.788C12.9243 178.22 14.8079 177.602 14.3777 176.154Z" fill="#E6E6E6"/>
<path d="M55.9666 132.784L55.9639 132.786L55.9694 132.784H55.9666Z" fill="#E6E6E6"/>
<path d="M59.3451 130.589C58.8948 129.612 58.1763 128.863 57.3174 128.473C56.4586 128.084 55.5148 128.08 54.6538 128.462C54.2258 128.654 53.8335 128.948 53.5 129.329C53.1666 129.709 52.8987 130.167 52.7124 130.677C52.6751 130.785 52.6533 130.899 52.6229 131.01C52.5807 131.093 52.5299 131.169 52.4921 131.256C52.0883 132.242 51.9777 133.369 52.1794 134.444C52.3812 135.519 52.8825 136.474 53.5972 137.145C54.312 137.815 55.1952 138.16 56.0949 138.119C56.9946 138.077 57.8545 137.653 58.5263 136.919C59.2324 136.137 59.6987 135.083 59.8477 133.931C59.9967 132.78 59.8193 131.6 59.3451 130.589ZM56.9048 132.616C56.9099 132.732 56.9128 132.676 56.9048 132.616V132.616ZM56.6568 131.925C56.6472 131.912 56.6484 131.913 56.6568 131.925V131.925ZM55.5635 132.464C55.5474 132.432 55.5488 132.436 55.5635 132.464V132.464ZM55.8226 132.733C55.8599 132.753 55.8843 132.759 55.8226 132.733V132.733ZM55.9383 132.8L55.964 132.786C55.9577 132.787 55.9514 132.785 55.9458 132.782L55.9466 132.781L55.9667 132.784L55.9704 132.782L55.9588 132.779C55.9689 132.779 55.9698 132.78 55.9704 132.782C56.0863 132.717 56.0081 132.749 55.9409 132.774L55.9365 132.773C55.8945 132.747 55.8494 132.729 55.8029 132.72C55.7986 132.717 55.7935 132.715 55.7899 132.712C55.7526 132.679 55.564 132.499 55.7389 132.688C55.7009 132.647 55.6633 132.607 55.6275 132.562C55.6064 132.536 55.5872 132.507 55.5703 132.476C55.5474 132.428 55.5251 132.379 55.5036 132.33L55.5003 132.304C55.4975 132.282 55.4953 132.273 55.4929 132.259C55.494 132.246 55.4958 132.231 55.4976 132.217C55.5106 132.174 55.519 132.129 55.5223 132.083L55.5298 132.072C55.5578 132.024 55.5823 131.968 55.609 131.918C55.4678 132.181 55.6643 131.889 55.6789 131.853C55.6814 131.846 55.6771 131.85 55.6781 131.845C55.6839 131.841 55.6821 131.844 55.689 131.839C55.7328 131.808 55.7742 131.772 55.8187 131.742C55.8716 131.706 56.0801 131.634 55.8639 131.709C55.913 131.692 55.9601 131.671 56.0097 131.655C56.0187 131.652 56.0915 131.639 56.1307 131.631C56.1652 131.63 56.1986 131.628 56.2021 131.628C56.2183 131.629 56.2344 131.631 56.2506 131.632C56.2147 131.638 56.3737 131.68 56.4209 131.689C56.4278 131.695 56.4312 131.7 56.4405 131.708C56.4804 131.744 56.529 131.775 56.5711 131.809C56.3827 131.66 56.5736 131.821 56.6096 131.865C56.6311 131.891 56.6509 131.919 56.6712 131.947C56.6898 131.973 56.7065 132.002 56.7214 132.031C56.7523 132.101 56.7851 132.171 56.8176 132.239L56.8266 132.256C56.8264 132.259 56.8263 132.261 56.8263 132.263C56.8432 132.374 56.8682 132.482 56.9009 132.588C56.9025 132.597 56.9038 132.606 56.9046 132.615C56.9076 132.675 56.9117 132.736 56.9118 132.797L56.9114 132.809C56.7614 132.713 56.5949 132.662 56.4257 132.661C56.2565 132.659 56.0895 132.707 55.9383 132.8Z" fill="#E6E6E6"/>
<path d="M55.9723 132.783C55.9758 132.784 55.9717 132.784 55.9717 132.784L55.9723 132.783Z" fill="#E6E6E6"/>
<path d="M55.9727 132.784L55.9688 132.785C55.9737 132.786 55.9727 132.784 55.9727 132.784Z" fill="#E6E6E6"/>
<path d="M55.9707 132.782L55.9714 132.783L55.9707 132.782Z" fill="#E6E6E6"/>
<path d="M97.5339 110.509L97.5312 110.51L97.5366 110.509H97.5339Z" fill="#E6E6E6"/>
<path d="M100.911 108.313C100.461 107.336 99.7427 106.586 98.8838 106.197C98.0249 105.808 97.0812 105.804 96.2202 106.186C95.7922 106.377 95.3999 106.672 95.0664 107.052C94.733 107.433 94.4652 107.891 94.2788 108.4C94.2415 108.509 94.2197 108.622 94.1893 108.733C94.1471 108.817 94.0963 108.892 94.0585 108.98C93.6547 109.966 93.5441 111.093 93.7458 112.168C93.9476 113.243 94.4489 114.198 95.1636 114.868C95.8783 115.539 96.7616 115.883 97.6613 115.842C98.561 115.801 99.4209 115.377 100.093 114.643C100.799 113.861 101.265 112.806 101.414 111.655C101.563 110.503 101.386 109.324 100.911 108.313ZM98.4712 110.34C98.4763 110.455 98.4792 110.4 98.4712 110.34V110.34ZM98.2232 109.649C98.2136 109.635 98.2148 109.637 98.2232 109.649V109.649ZM97.1299 110.187C97.1138 110.155 97.1152 110.16 97.1299 110.187V110.187ZM97.389 110.456C97.4263 110.477 97.4507 110.482 97.389 110.456V110.456ZM97.5047 110.524L97.5304 110.51C97.5241 110.51 97.5178 110.509 97.5122 110.505L97.5129 110.505L97.533 110.508L97.5368 110.506L97.5252 110.503C97.5352 110.502 97.5361 110.504 97.5368 110.506C97.6527 110.441 97.5745 110.472 97.5073 110.498L97.5028 110.496C97.4608 110.47 97.4157 110.453 97.3692 110.444C97.3649 110.441 97.3598 110.439 97.3562 110.436C97.3189 110.403 97.1304 110.223 97.3053 110.412C97.2672 110.371 97.2296 110.33 97.1938 110.286C97.1727 110.259 97.1536 110.23 97.1367 110.2C97.1137 110.152 97.0915 110.103 97.0699 110.054L97.0667 110.027C97.0638 110.005 97.0617 109.996 97.0593 109.983C97.0604 109.969 97.0622 109.955 97.0639 109.941C97.077 109.898 97.0853 109.853 97.0887 109.807L97.0962 109.795C97.1242 109.748 97.1487 109.692 97.1754 109.642C97.0342 109.905 97.2306 109.613 97.2453 109.576C97.2478 109.57 97.2434 109.573 97.2445 109.569C97.2502 109.565 97.2485 109.568 97.2554 109.563C97.2991 109.531 97.3406 109.496 97.385 109.466C97.438 109.43 97.6464 109.357 97.4302 109.433C97.4793 109.416 97.5265 109.394 97.5761 109.378C97.5851 109.375 97.6579 109.363 97.6971 109.354C97.7315 109.353 97.7649 109.352 97.7684 109.352C97.7846 109.352 97.8008 109.355 97.817 109.356C97.7811 109.362 97.9401 109.404 97.9873 109.412C97.9941 109.419 97.9976 109.423 98.0069 109.432C98.0468 109.467 98.0954 109.499 98.1375 109.532C97.9491 109.383 98.14 109.544 98.176 109.588C98.1975 109.615 98.2173 109.643 98.2376 109.671C98.2561 109.697 98.2729 109.725 98.2877 109.755C98.3186 109.824 98.3515 109.894 98.384 109.963L98.393 109.98C98.3928 109.982 98.3927 109.985 98.3927 109.987C98.4096 110.098 98.4346 110.206 98.4673 110.311C98.4689 110.32 98.4701 110.329 98.471 110.338C98.474 110.399 98.4781 110.459 98.4782 110.52L98.4778 110.533C98.3278 110.437 98.1613 110.386 97.9921 110.384C97.8229 110.383 97.6558 110.431 97.5047 110.524Z" fill="#E6E6E6"/>
<path d="M97.54 110.508L97.5361 110.509C97.5411 110.509 97.54 110.508 97.54 110.508Z" fill="#E6E6E6"/>
<path d="M97.5371 110.506L97.5378 110.506L97.5371 110.506Z" fill="#E6E6E6"/>
<path d="M97.5397 110.507C97.5431 110.508 97.5391 110.508 97.5391 110.508L97.5397 110.507Z" fill="#E6E6E6"/>
<path d="M137.805 121.644L137.805 121.644L137.805 121.644Z" fill="#E6E6E6"/>
<path d="M141.179 86.037C140.729 85.0602 140.01 84.3105 139.151 83.9211C138.293 83.5317 137.349 83.5278 136.488 83.9102C136.06 84.1016 135.667 84.3961 135.334 84.7764C135.001 85.1567 134.733 85.6151 134.546 86.1244C134.509 86.2326 134.487 86.3465 134.457 86.4574C134.415 86.541 134.364 86.6165 134.326 86.7039C133.922 87.6896 133.812 88.817 134.013 89.8918C134.215 90.9666 134.717 91.9216 135.431 92.5924C136.146 93.2631 137.029 93.6075 137.929 93.5663C138.829 93.5251 139.688 93.1009 140.36 92.3668C141.066 91.5849 141.533 90.5305 141.682 89.3789C141.831 88.2273 141.653 87.048 141.179 86.037ZM138.739 88.0638C138.744 88.1795 138.747 88.1241 138.739 88.0638V88.0638ZM138.491 87.373C138.481 87.3595 138.482 87.361 138.491 87.373V87.373ZM137.397 87.9115C137.381 87.8793 137.383 87.8839 137.397 87.9115V87.9115ZM137.657 88.1806C137.694 88.2009 137.718 88.2063 137.657 88.1806V88.1806ZM137.772 88.2481L137.798 88.2338C137.792 88.2345 137.785 88.233 137.78 88.2294L137.781 88.2292L137.801 88.2322L137.804 88.2302L137.793 88.2269C137.803 88.2264 137.804 88.2282 137.804 88.2302C137.92 88.1651 137.842 88.1963 137.775 88.2218L137.77 88.2205C137.728 88.1944 137.683 88.1767 137.637 88.168C137.633 88.1651 137.627 88.1629 137.624 88.1598C137.587 88.1272 137.398 87.9468 137.573 88.136C137.535 88.0948 137.497 88.0544 137.461 88.0099C137.44 87.9834 137.421 87.9546 137.404 87.9239C137.381 87.8757 137.359 87.827 137.337 87.778L137.334 87.7515C137.331 87.7295 137.329 87.7204 137.327 87.7072C137.328 87.6935 137.33 87.6789 137.332 87.6646C137.345 87.6217 137.353 87.5769 137.356 87.5312L137.364 87.5196C137.392 87.4718 137.416 87.416 137.443 87.3662C137.302 87.6289 137.498 87.3373 137.513 87.3003C137.515 87.294 137.511 87.2974 137.512 87.2931C137.518 87.2892 137.516 87.2918 137.523 87.2869C137.567 87.2553 137.608 87.2201 137.653 87.19C137.706 87.154 137.914 87.0815 137.698 87.1572C137.747 87.1401 137.794 87.1184 137.844 87.1025C137.853 87.0996 137.925 87.0871 137.965 87.0785C137.999 87.0774 138.033 87.0762 138.036 87.0762C138.052 87.0764 138.068 87.0789 138.085 87.0797C138.049 87.0856 138.208 87.1277 138.255 87.1366C138.262 87.1432 138.265 87.1474 138.274 87.1557C138.314 87.1914 138.363 87.2232 138.405 87.2565C138.217 87.1074 138.408 87.2684 138.444 87.3125C138.465 87.3389 138.485 87.367 138.505 87.3947C138.524 87.4211 138.54 87.4493 138.555 87.479C138.586 87.5484 138.619 87.6185 138.652 87.6867L138.661 87.7043C138.66 87.7065 138.66 87.7088 138.66 87.711C138.677 87.8217 138.702 87.9302 138.735 88.0354C138.736 88.0443 138.738 88.0533 138.739 88.0624C138.742 88.123 138.746 88.1834 138.746 88.2443L138.745 88.2566C138.595 88.1608 138.429 88.1101 138.26 88.1086C138.09 88.1071 137.923 88.155 137.772 88.2481Z" fill="#E6E6E6"/>
<path d="M137.802 121.646L137.799 121.648L137.804 121.646H137.802Z" fill="#E6E6E6"/>
<path d="M137.808 121.646L137.804 121.647C137.809 121.647 137.808 121.646 137.808 121.646Z" fill="#E6E6E6"/>
<path d="M137.807 121.645C137.811 121.646 137.807 121.646 137.807 121.646L137.807 121.645Z" fill="#E6E6E6"/>
<path d="M182.097 147.296C181.647 146.319 180.928 145.57 180.069 145.18C179.21 144.791 178.267 144.787 177.406 145.169C176.978 145.361 176.585 145.655 176.252 146.035C175.919 146.416 175.651 146.874 175.464 147.383C175.427 147.492 175.405 147.605 175.375 147.716C175.333 147.8 175.282 147.876 175.244 147.963C174.84 148.949 174.73 150.076 174.931 151.151C175.133 152.226 175.634 153.181 176.349 153.851C177.064 154.522 177.947 154.867 178.847 154.825C179.747 154.784 180.606 154.36 181.278 153.626C181.984 152.844 182.451 151.79 182.6 150.638C182.749 149.486 182.571 148.307 182.097 147.296ZM179.657 149.323C179.662 149.438 179.665 149.383 179.657 149.323V149.323ZM179.409 148.632C179.399 148.619 179.4 148.62 179.409 148.632V148.632ZM178.315 149.171C178.299 149.138 178.301 149.143 178.315 149.171V149.171ZM178.575 149.44C178.612 149.46 178.636 149.465 178.575 149.44V149.44ZM178.69 149.507L178.716 149.493C178.71 149.494 178.703 149.492 178.698 149.488L178.698 149.488L178.719 149.491L178.722 149.489L178.711 149.486C178.721 149.485 178.722 149.487 178.722 149.489C178.838 149.424 178.76 149.455 178.693 149.481L178.688 149.48C178.646 149.453 178.601 149.436 178.555 149.427C178.55 149.424 178.545 149.422 178.542 149.419C178.504 149.386 178.316 149.206 178.491 149.395C178.453 149.354 178.415 149.313 178.379 149.269C178.358 149.242 178.339 149.214 178.322 149.183C178.299 149.135 178.277 149.086 178.255 149.037L178.252 149.011C178.249 148.989 178.247 148.979 178.245 148.966C178.246 148.953 178.248 148.938 178.249 148.924C178.263 148.881 178.271 148.836 178.274 148.79L178.282 148.779C178.31 148.731 178.334 148.675 178.361 148.625C178.22 148.888 178.416 148.596 178.431 148.559C178.433 148.553 178.429 148.556 178.43 148.552C178.436 148.548 178.434 148.551 178.441 148.546C178.485 148.514 178.526 148.479 178.571 148.449C178.624 148.413 178.832 148.341 178.616 148.416C178.665 148.399 178.712 148.377 178.762 148.362C178.771 148.359 178.843 148.346 178.883 148.338C178.917 148.336 178.95 148.335 178.954 148.335C178.97 148.335 178.986 148.338 179.003 148.339C178.967 148.345 179.126 148.387 179.173 148.396C179.18 148.402 179.183 148.406 179.192 148.415C179.232 148.45 179.281 148.482 179.323 148.516C179.135 148.366 179.326 148.527 179.362 148.572C179.383 148.598 179.403 148.626 179.423 148.654C179.442 148.68 179.458 148.708 179.473 148.738C179.504 148.807 179.537 148.878 179.57 148.946L179.579 148.963C179.578 148.966 179.578 148.968 179.578 148.97C179.595 149.081 179.62 149.189 179.653 149.294C179.654 149.303 179.656 149.312 179.657 149.321C179.66 149.382 179.664 149.442 179.664 149.503L179.663 149.516C179.513 149.42 179.347 149.369 179.178 149.368C179.008 149.366 178.841 149.414 178.69 149.507Z" fill="#E6E6E6"/>
<path d="M178.718 96.9839L178.716 96.9854L178.721 96.9839H178.718Z" fill="#E6E6E6"/>
<path d="M178.725 96.9834L178.721 96.984C178.726 96.9845 178.725 96.9834 178.725 96.9834Z" fill="#E6E6E6"/>
<path d="M178.724 96.9822C178.728 96.9832 178.724 96.9834 178.724 96.9834L178.724 96.9822Z" fill="#E6E6E6"/>
<path d="M178.723 96.9812L178.723 96.9816L178.723 96.9812Z" fill="#E6E6E6"/>
<path d="M220.416 110.7C219.966 109.723 219.248 108.973 218.389 108.584C217.53 108.194 216.586 108.19 215.725 108.573C215.297 108.764 214.905 109.059 214.571 109.439C214.238 109.819 213.97 110.278 213.784 110.787C213.746 110.895 213.725 111.009 213.694 111.12C213.652 111.204 213.601 111.279 213.563 111.367C213.16 112.352 213.049 113.48 213.251 114.554C213.452 115.629 213.954 116.584 214.669 117.255C215.383 117.926 216.267 118.27 217.166 118.229C218.066 118.188 218.926 117.764 219.598 117.029C220.304 116.247 220.77 115.193 220.919 114.042C221.068 112.89 220.891 111.711 220.416 110.7ZM217.976 112.726C217.981 112.842 217.984 112.787 217.976 112.726V112.726ZM217.728 112.036C217.719 112.022 217.72 112.024 217.728 112.036V112.036ZM216.635 112.574C216.619 112.542 216.62 112.546 216.635 112.574V112.574ZM216.894 112.843C216.931 112.864 216.956 112.869 216.894 112.843V112.843ZM217.01 112.911L217.035 112.896C217.029 112.897 217.023 112.896 217.017 112.892L217.018 112.892L217.038 112.895L217.042 112.893L217.03 112.889C217.04 112.889 217.041 112.891 217.042 112.893C217.158 112.828 217.079 112.859 217.012 112.884L217.008 112.883C216.966 112.857 216.921 112.839 216.874 112.831C216.87 112.828 216.865 112.826 216.861 112.822C216.824 112.79 216.635 112.609 216.81 112.799C216.772 112.757 216.735 112.717 216.699 112.673C216.678 112.646 216.658 112.617 216.642 112.586C216.619 112.538 216.596 112.49 216.575 112.441L216.572 112.414C216.569 112.392 216.567 112.383 216.564 112.37C216.565 112.356 216.567 112.341 216.569 112.327C216.582 112.284 216.59 112.239 216.594 112.194L216.601 112.182C216.629 112.134 216.654 112.079 216.68 112.029C216.539 112.292 216.736 112 216.75 111.963C216.753 111.957 216.748 111.96 216.749 111.956C216.755 111.952 216.753 111.954 216.76 111.949C216.804 111.918 216.845 111.883 216.89 111.853C216.943 111.817 217.151 111.744 216.935 111.82C216.984 111.803 217.031 111.781 217.081 111.765C217.09 111.762 217.163 111.75 217.202 111.741C217.236 111.74 217.27 111.739 217.273 111.739C217.29 111.739 217.306 111.741 217.322 111.742C217.286 111.748 217.445 111.79 217.492 111.799C217.499 111.806 217.502 111.81 217.512 111.818C217.552 111.854 217.6 111.886 217.642 111.919C217.454 111.77 217.645 111.931 217.681 111.975C217.702 112.001 217.722 112.03 217.742 112.057C217.761 112.084 217.778 112.112 217.793 112.142C217.824 112.211 217.856 112.281 217.889 112.349L217.898 112.367C217.898 112.369 217.898 112.371 217.898 112.374C217.914 112.484 217.939 112.593 217.972 112.698C217.974 112.707 217.975 112.716 217.976 112.725C217.979 112.786 217.983 112.846 217.983 112.907L217.983 112.919C217.833 112.823 217.666 112.773 217.497 112.771C217.328 112.77 217.161 112.818 217.01 112.911Z" fill="#E6E6E6"/>
<path d="M217.038 112.895L217.035 112.897L217.041 112.895H217.038Z" fill="#E6E6E6"/>
<path d="M217.042 112.893L217.043 112.893L217.042 112.893Z" fill="#E6E6E6"/>
<path d="M217.044 112.894C217.047 112.895 217.043 112.895 217.043 112.895L217.044 112.894Z" fill="#E6E6E6"/>
<path d="M217.044 112.895L217.04 112.895C217.045 112.896 217.044 112.895 217.044 112.895Z" fill="#E6E6E6"/>
<path d="M206.537 149.355L176.339 151.411C176.168 151.423 176.001 151.354 175.871 151.219C175.741 151.084 175.658 150.893 175.64 150.685C175.621 150.477 175.668 150.269 175.772 150.103C175.875 149.937 176.026 149.825 176.195 149.792L207.061 143.639L206.537 149.355Z" fill="#3F3D56"/>
<path d="M244.916 231.709L256.296 208.257L264.707 213.123C264.707 213.123 250.214 235.297 249.752 235.935C249.949 237.013 249.875 238.139 249.539 239.164C249.203 240.189 248.621 241.065 247.87 241.676C247.119 242.287 246.234 242.604 245.332 242.586C244.43 242.567 243.554 242.214 242.82 241.572C242.086 240.931 241.528 240.031 241.22 238.993C240.913 237.955 240.87 236.826 241.097 235.757C241.324 234.688 241.811 233.729 242.493 233.006C243.174 232.283 244.019 231.831 244.916 231.709Z" fill="#FFB6B6"/>
<path d="M249.649 177.232L268.086 189.015C269.238 190.032 270.205 191.332 270.923 192.832C271.642 194.332 272.097 196 272.26 197.728C272.423 199.456 272.289 201.207 271.868 202.868C271.447 204.529 270.747 206.064 269.814 207.376L257.104 225.236L251.566 216.045L255.834 205.114L247.57 202.444L249.649 177.232Z" fill="#1A87EC"/>
<path d="M197.108 149.738L195.032 176.901L185.729 176.92C185.729 176.92 191.066 149.277 191.26 148.459C190.705 147.589 190.378 146.533 190.323 145.43C190.267 144.327 190.487 143.23 190.952 142.284C191.417 141.337 192.106 140.586 192.927 140.129C193.748 139.673 194.663 139.532 195.551 139.727C196.439 139.921 197.257 140.441 197.899 141.217C198.54 141.994 198.974 142.991 199.142 144.076C199.311 145.161 199.207 146.283 198.844 147.294C198.481 148.305 197.875 149.157 197.108 149.738Z" fill="#FFB6B6"/>
<path d="M215.624 205.286L194.214 200.477C185.199 199.149 181.499 191.882 183.126 184.795L188.361 161.986L196.579 167.383L196.548 179.5L208.052 177.573L215.624 205.286Z" fill="#1A87EC"/>
<path d="M206.86 393.006H200.973L198.173 365.191H206.862L206.86 393.006Z" fill="#FFB6B6"/>
<path d="M207.068 400.529L188.965 400.528V400.248C188.965 397.959 189.707 395.764 191.029 394.145C192.35 392.526 194.142 391.617 196.011 391.617L199.318 388.544L205.488 391.617L207.068 391.617L207.068 400.529Z" fill="#2F2E41"/>
<path d="M248.515 393.006H254.402L257.202 365.191H248.514L248.515 393.006Z" fill="#FFB6B6"/>
<path d="M248.308 400.529L266.411 400.528V400.248C266.411 397.959 265.669 395.764 264.347 394.145C263.026 392.526 261.234 391.617 259.365 391.617L256.058 388.544L249.888 391.617L248.308 391.617L248.308 400.529Z" fill="#2F2E41"/>
<path d="M197.915 344.751C198.002 343.164 198.693 334.387 198.693 334.387L200.349 315.772L203.267 266.43L205.868 253.46L218.745 259.604L229.193 253.469L241.612 258.332L251.282 262.774C251.282 262.774 251.298 264.675 251.373 266.972C251.472 269.979 251.646 273.666 252.06 274.624C252.751 276.318 252.577 285.409 252.577 285.409C252.577 285.409 253.264 303.907 254.13 305.935C254.995 307.964 255.169 312.188 254.908 313.034C254.647 313.881 255.773 336.096 255.773 336.096C255.773 336.096 258.663 375.407 256.85 381.335C255.037 387.263 248.185 383.38 248.185 383.38C248.185 383.38 248.516 381.798 246.529 381.052C244.542 380.307 238.49 324.565 238.49 324.565C238.49 324.565 237.364 313.136 236.33 309.86C235.295 306.584 234.343 297.381 234.343 297.381C234.343 297.381 227.951 282.149 227.868 278.762C227.868 278.762 227.032 275.592 226.242 279.081C225.451 282.57 223.12 290.926 223.12 290.926L220.848 301.189L218.174 316.523L216.443 329.433C216.443 329.433 213.852 346.567 213.438 347.307C213.024 348.047 213.438 363.701 213.438 363.701C213.438 363.701 211.434 377.031 208.603 379.359C205.771 381.686 198.27 379.396 198.27 379.396C198.27 379.396 197.828 346.338 197.915 344.751Z" fill="#2F2E41"/>
<path d="M207.54 211.727L205.895 237.836L203.423 240.97C203.2 241.252 203.026 241.587 202.911 241.954C202.796 242.321 202.743 242.712 202.755 243.105C202.766 243.498 202.843 243.883 202.979 244.239C203.115 244.595 203.309 244.913 203.548 245.175L202.186 248.036L201.703 257.05C201.566 257.751 201.557 258.481 201.676 259.188C201.795 259.894 202.041 260.559 202.394 261.136C202.748 261.713 203.201 262.187 203.721 262.524C204.242 262.862 204.817 263.054 205.405 263.088L248.032 265.541C248.617 265.575 249.2 265.451 249.742 265.178C250.283 264.905 250.769 264.489 251.165 263.961C251.561 263.433 251.858 262.804 252.034 262.12C252.21 261.436 252.261 260.713 252.184 260.002L248.559 226.577V224.078L246.937 219.251L247.771 203.082L249.711 177.418L238.434 173.85L232.32 168.697L221.698 168.904L215.253 175.388L206.659 177.037L200.16 178.619L199.332 180.823L200.988 180.382L206.989 209.056L207.54 211.727Z" fill="#1A87EC"/>
<path d="M226.772 165.198C233.682 165.198 239.285 158.336 239.285 149.871C239.285 141.406 233.682 134.543 226.772 134.543C219.861 134.543 214.259 141.406 214.259 149.871C214.259 158.336 219.861 165.198 226.772 165.198Z" fill="#FFB6B6"/>
<path d="M223.755 164.21L232.795 163.645C233.954 163.572 235.218 163.447 236.061 162.471C236.514 161.868 236.863 161.158 237.086 160.385C237.921 158.007 238.757 155.629 239.572 153.24C240.698 149.935 241.805 146.446 241.517 142.882C241.45 141.254 240.892 139.715 239.953 138.561C239.473 138.005 238.857 137.659 238.2 137.578C237.543 137.496 236.883 137.683 236.322 138.11C236.183 136.983 235.836 135.909 235.308 134.97C234.78 134.031 234.085 133.252 233.275 132.691C231.639 131.583 229.771 131.098 227.909 131.297C225.207 131.51 222.627 132.756 220.533 134.858C219.944 135.523 219.315 136.134 218.651 136.684C218.318 136.958 217.942 137.145 217.547 137.234C217.152 137.324 216.746 137.314 216.355 137.205C215.967 137.078 215.63 136.783 215.406 136.375C215.181 135.967 215.085 135.474 215.135 134.986C214.498 135.569 214.062 136.422 213.91 137.378C213.759 138.334 213.904 139.325 214.317 140.157C213.848 140.398 213.335 140.486 212.83 140.412C212.325 140.339 211.844 140.107 211.433 139.739C210.993 140.006 210.604 140.383 210.29 140.845C209.976 141.308 209.744 141.845 209.61 142.423C209.475 143.002 209.441 143.608 209.508 144.204C209.576 144.799 209.745 145.371 210.003 145.882C210.262 146.393 210.605 146.833 211.01 147.172C211.415 147.512 211.874 147.744 212.356 147.854C212.839 147.963 213.335 147.949 213.813 147.81C214.29 147.671 214.739 147.412 215.13 147.049C215.679 147.99 215.475 149.27 215.403 150.423C215.332 151.576 215.584 153.01 216.492 153.328C217.719 153.759 218.713 151.735 219.99 151.757C220.305 151.788 220.608 151.914 220.874 152.124C221.139 152.334 221.359 152.62 221.512 152.959C221.813 153.638 222.019 154.375 222.121 155.138L223.755 164.147" fill="#2F2E41"/>
<path d="M576.257 302.028C576.257 299.655 575.606 297.728 574.807 297.724H357.007C356.204 297.728 355.557 299.655 355.554 302.028V399.732C355.554 399.952 355.487 400.165 355.366 400.328C355.245 400.491 355.079 400.594 354.9 400.615C354.315 400.684 353.731 400.748 353.146 400.807C353.132 400.807 353.117 400.811 353.103 400.811C352.785 400.847 352.466 400.873 352.148 400.904H352.145C351.981 400.534 351.819 400.16 351.659 399.783C351.605 399.656 351.577 399.515 351.577 399.371V296.444C351.577 295.789 351.599 295.129 351.635 294.478C351.687 293.584 351.777 292.694 351.906 291.812C352.517 287.699 353.898 284.913 355.467 284.905H576.344C576.572 284.906 576.799 284.965 577.009 285.077C577.317 285.244 577.596 285.483 577.829 285.781C578.146 286.185 578.417 286.639 578.635 287.132C579.535 289.329 580.054 291.731 580.157 294.186C580.157 294.212 580.161 294.239 580.161 294.266C580.212 294.983 580.237 295.714 580.233 296.444L580.284 305.934L580.316 311.593L580.414 329.35L580.45 335.656L580.609 400.395C580.609 400.63 580.533 400.855 580.397 401.021C580.262 401.187 580.078 401.281 579.886 401.281H576.98C576.788 401.281 576.604 401.187 576.469 401.021C576.333 400.855 576.257 400.63 576.257 400.395V302.028Z" fill="#E6E6E6"/>
<path d="M517.074 240.501H493.606C493.274 240.502 492.956 240.664 492.721 240.952C492.487 241.24 492.355 241.63 492.355 242.037V287.449H518.328V242.037C518.328 241.835 518.295 241.635 518.232 241.449C518.169 241.263 518.077 241.093 517.961 240.951C517.844 240.808 517.706 240.695 517.554 240.618C517.402 240.541 517.239 240.501 517.074 240.501ZM505.419 266.304C504.685 266.3 503.982 265.941 503.463 265.305C502.944 264.669 502.651 263.808 502.648 262.909V257.671C502.648 256.771 502.94 255.908 503.459 255.271C503.979 254.634 504.684 254.277 505.419 254.277C506.154 254.277 506.859 254.634 507.378 255.271C507.898 255.908 508.19 256.771 508.19 257.671V262.909C508.187 263.808 507.894 264.669 507.375 265.305C506.856 265.941 506.153 266.3 505.419 266.304Z" fill="#CCCCCC"/>
<path d="M492.274 285.996V290.377C492.275 290.604 492.349 290.822 492.48 290.983C492.611 291.143 492.788 291.234 492.974 291.234H517.708C517.894 291.233 518.071 291.142 518.202 290.982C518.333 290.821 518.407 290.604 518.408 290.377V285.996H492.274Z" fill="#3F3D56"/>
<path d="M555.936 169.63H455.618C454.756 169.632 453.93 170.052 453.32 170.799C452.711 171.545 452.368 172.557 452.366 173.613V256.535C452.367 257.591 452.71 258.604 453.319 259.35C453.929 260.097 454.756 260.517 455.618 260.518H555.936C556.798 260.517 557.624 260.097 558.234 259.35C558.843 258.604 559.186 257.591 559.187 256.535V173.613C559.186 172.557 558.843 171.545 558.233 170.799C557.624 170.052 556.798 169.632 555.936 169.63Z" fill="#E6E6E6"/>
<path d="M555.098 172.507H456.456C455.994 172.508 455.552 172.733 455.226 173.134C454.9 173.534 454.717 174.076 454.717 174.641V255.508C454.718 256.073 454.901 256.614 455.227 257.013C455.553 257.412 455.995 257.637 456.456 257.638H555.098C555.559 257.637 556.001 257.412 556.327 257.013C556.653 256.614 556.836 256.073 556.837 255.508V174.641C556.837 174.076 556.654 173.534 556.328 173.134C556.002 172.733 555.56 172.508 555.098 172.507Z" fill="white"/>
<path d="M535.884 292.759H477.197C477.036 292.759 476.878 292.715 476.732 292.63C476.587 292.546 476.46 292.422 476.358 292.27C476.257 292.117 476.185 291.938 476.147 291.747C476.11 291.556 476.107 291.356 476.14 291.164L477.051 285.866C477.103 285.57 477.236 285.304 477.428 285.113C477.62 284.922 477.86 284.817 478.107 284.816H534.973C535.221 284.817 535.46 284.922 535.652 285.113C535.845 285.304 535.978 285.57 536.03 285.866L536.94 291.164C536.973 291.356 536.971 291.556 536.933 291.747C536.895 291.938 536.823 292.117 536.722 292.27C536.621 292.422 536.493 292.546 536.348 292.63C536.203 292.715 536.044 292.759 535.884 292.759Z" fill="#CCCCCC"/>
<path d="M480.015 285.77H478.841C478.666 285.77 478.524 285.944 478.524 286.158V286.71C478.524 286.925 478.666 287.098 478.841 287.098H480.015C480.19 287.098 480.332 286.925 480.332 286.71V286.158C480.332 285.944 480.19 285.77 480.015 285.77Z" fill="#E6E6E6"/>
<path d="M483.63 285.77H482.457C482.282 285.77 482.14 285.944 482.14 286.158V286.71C482.14 286.925 482.282 287.098 482.457 287.098H483.63C483.805 287.098 483.947 286.925 483.947 286.71V286.158C483.947 285.944 483.805 285.77 483.63 285.77Z" fill="#E6E6E6"/>
<path d="M487.244 285.77H486.071C485.896 285.77 485.754 285.944 485.754 286.158V286.71C485.754 286.925 485.896 287.098 486.071 287.098H487.244C487.419 287.098 487.561 286.925 487.561 286.71V286.158C487.561 285.944 487.419 285.77 487.244 285.77Z" fill="#E6E6E6"/>
<path d="M490.86 285.77H489.686C489.511 285.77 489.369 285.944 489.369 286.158V286.71C489.369 286.925 489.511 287.098 489.686 287.098H490.86C491.035 287.098 491.177 286.925 491.177 286.71V286.158C491.177 285.944 491.035 285.77 490.86 285.77Z" fill="#E6E6E6"/>
<path d="M494.475 285.77H493.301C493.126 285.77 492.984 285.944 492.984 286.158V286.71C492.984 286.925 493.126 287.098 493.301 287.098H494.475C494.65 287.098 494.792 286.925 494.792 286.71V286.158C494.792 285.944 494.65 285.77 494.475 285.77Z" fill="#E6E6E6"/>
<path d="M498.09 285.77H496.917C496.742 285.77 496.6 285.944 496.6 286.158V286.71C496.6 286.925 496.742 287.098 496.917 287.098H498.09C498.265 287.098 498.407 286.925 498.407 286.71V286.158C498.407 285.944 498.265 285.77 498.09 285.77Z" fill="#E6E6E6"/>
<path d="M501.704 285.77H500.531C500.356 285.77 500.214 285.944 500.214 286.158V286.71C500.214 286.925 500.356 287.098 500.531 287.098H501.704C501.879 287.098 502.021 286.925 502.021 286.71V286.158C502.021 285.944 501.879 285.77 501.704 285.77Z" fill="#E6E6E6"/>
<path d="M505.32 285.77H504.146C503.971 285.77 503.829 285.944 503.829 286.158V286.71C503.829 286.925 503.971 287.098 504.146 287.098H505.32C505.495 287.098 505.637 286.925 505.637 286.71V286.158C505.637 285.944 505.495 285.77 505.32 285.77Z" fill="#E6E6E6"/>
<path d="M508.935 285.77H507.761C507.586 285.77 507.444 285.944 507.444 286.158V286.71C507.444 286.925 507.586 287.098 507.761 287.098H508.935C509.11 287.098 509.252 286.925 509.252 286.71V286.158C509.252 285.944 509.11 285.77 508.935 285.77Z" fill="#E6E6E6"/>
<path d="M512.55 285.77H511.377C511.202 285.77 511.06 285.944 511.06 286.158V286.71C511.06 286.925 511.202 287.098 511.377 287.098H512.55C512.725 287.098 512.867 286.925 512.867 286.71V286.158C512.867 285.944 512.725 285.77 512.55 285.77Z" fill="#E6E6E6"/>
<path d="M516.164 285.77H514.991C514.816 285.77 514.674 285.944 514.674 286.158V286.71C514.674 286.925 514.816 287.098 514.991 287.098H516.164C516.339 287.098 516.481 286.925 516.481 286.71V286.158C516.481 285.944 516.339 285.77 516.164 285.77Z" fill="#E6E6E6"/>
<path d="M519.779 285.77H518.606C518.431 285.77 518.289 285.944 518.289 286.158V286.71C518.289 286.925 518.431 287.098 518.606 287.098H519.779C519.955 287.098 520.097 286.925 520.097 286.71V286.158C520.097 285.944 519.955 285.77 519.779 285.77Z" fill="#E6E6E6"/>
<path d="M523.395 285.77H522.221C522.046 285.77 521.904 285.944 521.904 286.158V286.71C521.904 286.925 522.046 287.098 522.221 287.098H523.395C523.57 287.098 523.712 286.925 523.712 286.71V286.158C523.712 285.944 523.57 285.77 523.395 285.77Z" fill="#E6E6E6"/>
<path d="M527.01 285.77H525.837C525.662 285.77 525.52 285.944 525.52 286.158V286.71C525.52 286.925 525.662 287.098 525.837 287.098H527.01C527.185 287.098 527.327 286.925 527.327 286.71V286.158C527.327 285.944 527.185 285.77 527.01 285.77Z" fill="#E6E6E6"/>
<path d="M530.624 285.77H529.451C529.276 285.77 529.134 285.944 529.134 286.158V286.71C529.134 286.925 529.276 287.098 529.451 287.098H530.624C530.799 287.098 530.941 286.925 530.941 286.71V286.158C530.941 285.944 530.799 285.77 530.624 285.77Z" fill="#E6E6E6"/>
<path d="M534.239 285.77H533.066C532.891 285.77 532.749 285.944 532.749 286.158V286.71C532.749 286.925 532.891 287.098 533.066 287.098H534.239C534.415 287.098 534.557 286.925 534.557 286.71V286.158C534.557 285.944 534.415 285.77 534.239 285.77Z" fill="#E6E6E6"/>
<path d="M479.972 287.984H478.799C478.623 287.984 478.481 288.158 478.481 288.373V288.924C478.481 289.139 478.623 289.313 478.799 289.313H479.972C480.147 289.313 480.289 289.139 480.289 288.924V288.373C480.289 288.158 480.147 287.984 479.972 287.984Z" fill="#E6E6E6"/>
<path d="M483.587 287.984H482.414C482.239 287.984 482.097 288.158 482.097 288.373V288.924C482.097 289.139 482.239 289.313 482.414 289.313H483.587C483.762 289.313 483.904 289.139 483.904 288.924V288.373C483.904 288.158 483.762 287.984 483.587 287.984Z" fill="#E6E6E6"/>
<path d="M487.202 287.984H486.029C485.854 287.984 485.712 288.158 485.712 288.373V288.924C485.712 289.139 485.854 289.313 486.029 289.313H487.202C487.377 289.313 487.519 289.139 487.519 288.924V288.373C487.519 288.158 487.377 287.984 487.202 287.984Z" fill="#E6E6E6"/>
<path d="M490.817 287.984H489.643C489.468 287.984 489.326 288.158 489.326 288.373V288.924C489.326 289.139 489.468 289.313 489.643 289.313H490.817C490.992 289.313 491.134 289.139 491.134 288.924V288.373C491.134 288.158 490.992 287.984 490.817 287.984Z" fill="#E6E6E6"/>
<path d="M494.432 287.984H493.258C493.083 287.984 492.941 288.158 492.941 288.373V288.924C492.941 289.139 493.083 289.313 493.258 289.313H494.432C494.607 289.313 494.749 289.139 494.749 288.924V288.373C494.749 288.158 494.607 287.984 494.432 287.984Z" fill="#E6E6E6"/>
<path d="M498.047 287.984H496.874C496.699 287.984 496.557 288.158 496.557 288.373V288.924C496.557 289.139 496.699 289.313 496.874 289.313H498.047C498.222 289.313 498.364 289.139 498.364 288.924V288.373C498.364 288.158 498.222 287.984 498.047 287.984Z" fill="#E6E6E6"/>
<path d="M501.662 287.984H500.489C500.314 287.984 500.172 288.158 500.172 288.373V288.924C500.172 289.139 500.314 289.313 500.489 289.313H501.662C501.837 289.313 501.979 289.139 501.979 288.924V288.373C501.979 288.158 501.837 287.984 501.662 287.984Z" fill="#E6E6E6"/>
<path d="M505.277 287.984H504.103C503.928 287.984 503.786 288.158 503.786 288.373V288.924C503.786 289.139 503.928 289.313 504.103 289.313H505.277C505.452 289.313 505.594 289.139 505.594 288.924V288.373C505.594 288.158 505.452 287.984 505.277 287.984Z" fill="#E6E6E6"/>
<path d="M508.892 287.984H507.718C507.543 287.984 507.401 288.158 507.401 288.373V288.924C507.401 289.139 507.543 289.313 507.718 289.313H508.892C509.067 289.313 509.209 289.139 509.209 288.924V288.373C509.209 288.158 509.067 287.984 508.892 287.984Z" fill="#E6E6E6"/>
<path d="M512.507 287.984H511.334C511.159 287.984 511.017 288.158 511.017 288.373V288.924C511.017 289.139 511.159 289.313 511.334 289.313H512.507C512.682 289.313 512.824 289.139 512.824 288.924V288.373C512.824 288.158 512.682 287.984 512.507 287.984Z" fill="#E6E6E6"/>
<path d="M516.122 287.984H514.949C514.774 287.984 514.632 288.158 514.632 288.373V288.924C514.632 289.139 514.774 289.313 514.949 289.313H516.122C516.297 289.313 516.439 289.139 516.439 288.924V288.373C516.439 288.158 516.297 287.984 516.122 287.984Z" fill="#E6E6E6"/>
<path d="M519.737 287.984H518.563C518.388 287.984 518.246 288.158 518.246 288.373V288.924C518.246 289.139 518.388 289.313 518.563 289.313H519.737C519.912 289.313 520.054 289.139 520.054 288.924V288.373C520.054 288.158 519.912 287.984 519.737 287.984Z" fill="#E6E6E6"/>
<path d="M523.352 287.984H522.178C522.003 287.984 521.861 288.158 521.861 288.373V288.924C521.861 289.139 522.003 289.313 522.178 289.313H523.352C523.527 289.313 523.669 289.139 523.669 288.924V288.373C523.669 288.158 523.527 287.984 523.352 287.984Z" fill="#E6E6E6"/>
<path d="M526.967 287.984H525.794C525.618 287.984 525.477 288.158 525.477 288.373V288.924C525.477 289.139 525.618 289.313 525.794 289.313H526.967C527.142 289.313 527.284 289.139 527.284 288.924V288.373C527.284 288.158 527.142 287.984 526.967 287.984Z" fill="#E6E6E6"/>
<path d="M530.582 287.984H529.409C529.234 287.984 529.092 288.158 529.092 288.373V288.924C529.092 289.139 529.234 289.313 529.409 289.313H530.582C530.757 289.313 530.899 289.139 530.899 288.924V288.373C530.899 288.158 530.757 287.984 530.582 287.984Z" fill="#E6E6E6"/>
<path d="M534.197 287.984H533.024C532.849 287.984 532.707 288.158 532.707 288.373V288.924C532.707 289.139 532.849 289.313 533.024 289.313H534.197C534.373 289.313 534.515 289.139 534.515 288.924V288.373C534.515 288.158 534.373 287.984 534.197 287.984Z" fill="#E6E6E6"/>
<path d="M509.977 290.641H496.151C495.976 290.641 495.834 290.815 495.834 291.03V291.581C495.834 291.796 495.976 291.97 496.151 291.97H509.977C510.152 291.97 510.294 291.796 510.294 291.581V291.03C510.294 290.815 510.152 290.641 509.977 290.641Z" fill="#E6E6E6"/>
<path d="M550.139 183.648H457.839C457.743 183.646 457.652 183.597 457.585 183.513C457.518 183.429 457.48 183.316 457.48 183.199C457.48 183.081 457.518 182.968 457.585 182.884C457.652 182.8 457.743 182.752 457.839 182.749H550.139C550.235 182.752 550.326 182.8 550.393 182.884C550.46 182.968 550.498 183.081 550.498 183.199C550.498 183.316 550.46 183.429 550.393 183.513C550.326 183.597 550.235 183.646 550.139 183.648Z" fill="#CACACA"/>
<path d="M464.123 180.454C465.311 180.454 466.274 179.248 466.274 177.76C466.274 176.273 465.311 175.067 464.123 175.067C462.935 175.067 461.972 176.273 461.972 177.76C461.972 179.248 462.935 180.454 464.123 180.454Z" fill="#CCCCCC"/>
<path d="M471.553 180.454C472.741 180.454 473.705 179.248 473.705 177.76C473.705 176.273 472.741 175.067 471.553 175.067C470.365 175.067 469.402 176.273 469.402 177.76C469.402 179.248 470.365 180.454 471.553 180.454Z" fill="#CCCCCC"/>
<path d="M478.985 180.454C480.173 180.454 481.136 179.248 481.136 177.76C481.136 176.273 480.173 175.067 478.985 175.067C477.797 175.067 476.834 176.273 476.834 177.76C476.834 179.248 477.797 180.454 478.985 180.454Z" fill="#CCCCCC"/>
<path d="M545.666 175.734H540.387C540.282 175.737 540.183 175.789 540.109 175.881C540.036 175.972 539.995 176.096 539.995 176.224C539.995 176.352 540.036 176.475 540.109 176.567C540.183 176.658 540.282 176.711 540.387 176.713H545.666C545.77 176.711 545.87 176.658 545.943 176.567C546.016 176.475 546.057 176.352 546.057 176.224C546.057 176.096 546.016 175.972 545.943 175.881C545.87 175.789 545.77 175.737 545.666 175.734Z" fill="#CCCCCC"/>
<path d="M545.665 177.572H540.387C540.282 177.574 540.183 177.627 540.109 177.719C540.036 177.81 539.995 177.933 539.995 178.061C539.995 178.19 540.036 178.313 540.109 178.404C540.183 178.496 540.282 178.548 540.387 178.551H545.665C545.77 178.548 545.87 178.496 545.943 178.404C546.016 178.313 546.057 178.19 546.057 178.061C546.057 177.933 546.016 177.81 545.943 177.719C545.87 177.627 545.77 177.574 545.665 177.572Z" fill="#CCCCCC"/>
<path d="M545.666 179.407H540.387C540.282 179.41 540.183 179.462 540.109 179.554C540.036 179.645 539.995 179.768 539.995 179.897C539.995 180.025 540.036 180.148 540.109 180.239C540.183 180.331 540.282 180.384 540.387 180.386H545.666C545.77 180.384 545.87 180.331 545.943 180.239C546.016 180.148 546.057 180.025 546.057 179.897C546.057 179.768 546.016 179.645 545.943 179.554C545.87 179.462 545.77 179.41 545.666 179.407Z" fill="#CCCCCC"/>
<path d="M511.442 208.144H499.908C499.042 208.144 498.34 209.004 498.34 210.065C498.34 211.127 499.042 211.987 499.908 211.987H511.442C512.308 211.987 513.01 211.127 513.01 210.065C513.01 209.004 512.308 208.144 511.442 208.144Z" fill="#1A87EC"/>
<path d="M518.893 215.83H492.458C491.592 215.83 490.89 216.69 490.89 217.751C490.89 218.812 491.592 219.672 492.458 219.672H518.893C519.759 219.672 520.461 218.812 520.461 217.751C520.461 216.69 519.759 215.83 518.893 215.83Z" fill="#E6E6E6"/>
<path d="M518.893 223.515H492.458C491.592 223.515 490.89 224.375 490.89 225.437C490.89 226.498 491.592 227.358 492.458 227.358H518.893C519.759 227.358 520.461 226.498 520.461 225.437C520.461 224.375 519.759 223.515 518.893 223.515Z" fill="#E6E6E6"/>
<path d="M340.8 343.247L335.483 340.132L342.787 312.91L350.634 317.507L340.8 343.247Z" fill="#FFB6B6"/>
<path d="M376.445 338.858C376.059 339.155 375.672 339.446 375.281 339.738C374.504 340.322 373.719 340.896 372.934 341.46C372.54 341.743 372.141 342.025 371.747 342.302V342.317L371.724 342.321L371.716 342.326L371.114 342.508L370.251 339.714L369.853 338.427L369.291 336.605L368.26 333.27L362.831 315.714L371.271 313.164L371.587 314.747H371.591L371.747 315.532L374.696 330.18L375.297 333.175L375.317 333.266L375.68 335.055L375.992 336.605L376.34 338.337L376.445 338.858Z" fill="#FFB6B6"/>
<path d="M426.79 277.203C426.255 278.255 425.708 279.303 425.158 280.341C424.134 282.274 423.084 284.178 422.006 286.053C422.006 286.058 422.002 286.058 421.998 286.063C421.369 286.776 420.675 287.398 419.928 287.914C419.897 287.943 419.862 287.962 419.831 287.986C419.281 288.358 418.696 288.646 418.089 288.842C417.87 288.909 417.648 288.976 417.429 289.043C416.64 289.273 415.859 289.469 415.082 289.641C413.699 289.942 412.332 290.158 410.973 290.292C410.864 290.306 410.755 290.315 410.645 290.325C405.057 290.827 399.616 290.019 393.938 288.694C391.134 288.043 388.271 287.263 385.307 286.455C384.339 286.187 383.366 285.924 382.382 285.661C382.308 285.642 382.23 285.618 382.152 285.599C380.746 285.221 379.316 284.848 377.852 284.479C376.008 284.015 374.106 283.565 372.13 283.14L372.271 286.551C372.388 289.174 372.833 291.761 373.591 294.219C374.435 297.242 375.102 299.634 373.693 304.614L373.013 307.026C373.365 308.223 373.486 309.504 373.366 310.768C373.246 312.032 372.889 313.245 372.322 314.311L372.185 314.565L377.852 332.126L378.219 333.265H375.317L371.748 333.27H365.698L356.97 311.819L356.552 310.795V310.743L357.454 269.52C357.466 269.157 357.489 268.788 357.528 268.425C357.687 266.772 358.113 265.174 358.782 263.725C359.45 262.277 360.348 261.005 361.422 259.986C362.451 259.001 363.63 258.276 364.889 257.854C366.149 257.432 367.465 257.321 368.76 257.527L371.748 258.001L377.852 258.967L382.152 259.651L382.237 259.665L394.918 261.675L395.828 257.13L395.996 257.053L401.335 254.657L419.799 246.366L419.846 246.347L421.061 245.802L421.205 246.089C421.248 246.175 421.291 246.261 421.33 246.347C422.531 248.983 423.508 251.763 424.248 254.642C425.491 259.346 426.515 264.133 427.313 268.98C427.349 269.19 427.38 269.381 427.407 269.554L427.419 269.606C427.431 269.688 427.438 269.74 427.442 269.755C427.808 272.263 427.582 274.847 426.79 277.203Z" fill="#2F2E41"/>
<path d="M427.57 262.011C427.511 261.705 427.437 261.394 427.359 261.093C426.739 258.81 426.016 256.571 425.195 254.386C424.273 251.898 423.168 249.233 421.852 246.349C421.215 244.952 420.531 243.499 419.798 241.991C419.431 241.235 419.049 240.465 418.654 239.68C418.638 239.644 418.621 239.609 418.603 239.575L418.49 239.345L400.22 242.34L393.417 243.455L393.011 247.607L392.913 248.635C392.909 248.635 392.909 248.635 392.913 248.64L392.64 251.444V251.448L392.277 255.151L392.245 255.146L382.15 253.544L371.746 251.893L366.157 251.008C364.862 250.802 363.546 250.912 362.287 251.335C361.027 251.757 359.848 252.482 358.819 253.467C357.745 254.487 356.848 255.758 356.18 257.207C355.511 258.656 355.085 260.253 354.925 261.906C354.89 262.241 354.867 262.585 354.855 262.925L349.583 278.228C346.428 287.381 344.419 297.064 343.623 306.951L339.757 322.092L340.307 322.154L348.501 323.087L350.665 323.335L355.429 314.815C355.972 313.844 356.488 312.844 356.968 311.821C357.759 310.149 358.462 308.416 359.073 306.635L369.379 276.592C370.176 276.76 370.965 276.919 371.746 277.071C375.358 277.788 378.826 278.374 382.15 278.826C392.956 280.305 402.313 280.419 410.644 279.166C412.983 278.817 415.244 278.358 417.427 277.788C418.228 277.583 419.018 277.361 419.798 277.123C419.981 277.071 420.161 277.018 420.341 276.961C421.955 276.451 423.439 275.453 424.656 274.059C425.874 272.665 426.787 270.919 427.312 268.981C427.938 266.735 428.027 264.317 427.57 262.011Z" fill="#2F2E41"/>
<path d="M342.498 338.801L336.745 335.424L335.843 334.893L334.402 339.227L324.342 341.94C323.844 342.073 323.395 342.398 323.059 342.867C322.723 343.336 322.518 343.924 322.475 344.545C322.431 345.167 322.551 345.789 322.816 346.321C323.082 346.854 323.48 347.268 323.951 347.503L333.781 352.416L336.902 348.977L336.136 353.593L339.838 355.445L343.896 339.624L342.498 338.801Z" fill="#2F2E41"/>
<path d="M377.852 332.126L378.219 333.265H377.852V332.126Z" fill="#2F2E41"/>
<path d="M375.848 333.508L369.82 336.066L368.874 336.466L370.34 340.788L364.749 351.387C364.473 351.91 364.34 352.529 364.371 353.151C364.401 353.774 364.593 354.368 364.919 354.847C365.245 355.327 365.688 355.666 366.182 355.815C366.677 355.964 367.197 355.916 367.668 355.677L377.475 350.695L377.716 345.562L379.824 349.502L383.518 347.626L377.314 332.888L375.848 333.508Z" fill="#2F2E41"/>
<path d="M339.263 175.223C339.549 175.906 339.953 176.503 340.448 176.972C340.942 177.442 341.515 177.774 342.125 177.943C342.736 178.113 343.369 178.116 343.981 177.953C344.592 177.791 345.167 177.466 345.665 177.001L358.34 187.308L358.365 177.624L346.324 169.321C345.632 168.348 344.672 167.72 343.627 167.556C342.582 167.392 341.524 167.703 340.654 168.43C339.783 169.158 339.161 170.251 338.905 171.503C338.648 172.755 338.776 174.079 339.263 175.223Z" fill="#FFB6B6"/>
<path d="M348.732 179.7L354.646 171.459L378.725 188.969L410.644 185.388C412.222 185.211 413.812 185.462 415.302 186.123C416.792 186.783 418.145 187.837 419.264 189.21C420.384 190.583 421.243 192.241 421.781 194.067C422.319 195.892 422.522 197.841 422.376 199.773C422.109 203.263 420.723 206.481 418.522 208.721C416.32 210.96 413.484 212.039 410.634 211.719L374.685 207.644L348.732 179.7Z" fill="#CCCCCC"/>
<path d="M422.816 179.827L422.761 179.742C418.271 179.199 413.748 180.263 409.742 182.806C405.736 185.349 402.418 189.261 400.19 194.067L397.481 199.912C388.719 213.034 395.086 222.083 395.467 223.428L392.426 240.606L393.107 246.355L393.448 248.062L428.165 270.283C430.142 258.65 428.231 248.737 421.03 241.165L427.997 214.61C429.542 208.738 429.877 202.49 428.973 196.421C428.069 190.353 425.954 184.652 422.816 179.827Z" fill="#CCCCCC"/>
<path d="M395.212 308.835H384.076C383.463 308.834 382.871 308.563 382.409 308.071C381.947 307.579 381.645 306.899 381.559 306.156C380.871 299.958 380.871 293.674 381.559 287.476C381.644 286.742 381.939 286.069 382.393 285.579C382.846 285.088 383.428 284.811 384.033 284.798C387.537 282.874 391.31 282.874 395.25 284.798C395.617 284.804 395.978 284.908 396.309 285.103C396.64 285.298 396.931 285.58 397.163 285.928C397.406 286.29 397.579 286.714 397.671 287.168C397.763 287.622 397.771 288.096 397.694 288.555C396.8 294.008 396.8 299.624 397.694 305.077C397.771 305.536 397.763 306.01 397.671 306.464C397.579 306.918 397.406 307.342 397.163 307.704C396.927 308.058 396.629 308.343 396.292 308.539C395.954 308.734 395.585 308.836 395.212 308.835Z" fill="#1A87EC"/>
<path d="M394.046 291.919H384.673C384.596 291.92 384.519 291.902 384.447 291.867C384.376 291.831 384.31 291.778 384.255 291.711C384.2 291.645 384.157 291.565 384.127 291.478C384.097 291.39 384.082 291.297 384.082 291.202C384.082 291.107 384.097 291.013 384.127 290.926C384.157 290.838 384.2 290.759 384.255 290.692C384.31 290.625 384.376 290.573 384.447 290.537C384.519 290.501 384.596 290.483 384.673 290.484H394.046C394.123 290.483 394.2 290.501 394.272 290.537C394.343 290.573 394.409 290.625 394.464 290.692C394.518 290.759 394.562 290.838 394.592 290.926C394.622 291.013 394.637 291.107 394.637 291.202C394.637 291.297 394.622 291.39 394.592 291.478C394.562 291.565 394.518 291.645 394.464 291.711C394.409 291.778 394.343 291.831 394.272 291.867C394.2 291.902 394.123 291.92 394.046 291.919Z" fill="white"/>
<path d="M394.046 297.66H384.673C384.596 297.661 384.519 297.643 384.447 297.607C384.376 297.572 384.31 297.519 384.255 297.452C384.2 297.385 384.157 297.306 384.127 297.219C384.097 297.131 384.082 297.037 384.082 296.942C384.082 296.848 384.097 296.754 384.127 296.666C384.157 296.579 384.2 296.5 384.255 296.433C384.31 296.366 384.376 296.313 384.447 296.278C384.519 296.242 384.596 296.224 384.673 296.225H394.046C394.123 296.224 394.2 296.242 394.272 296.278C394.343 296.313 394.409 296.366 394.464 296.433C394.518 296.5 394.562 296.579 394.592 296.666C394.622 296.754 394.637 296.848 394.637 296.942C394.637 297.037 394.622 297.131 394.592 297.219C394.562 297.306 394.518 297.385 394.464 297.452C394.409 297.519 394.343 297.572 394.272 297.607C394.2 297.643 394.123 297.661 394.046 297.66Z" fill="white"/>
<path d="M394.045 303.4H384.672C384.595 303.401 384.518 303.383 384.447 303.348C384.375 303.312 384.31 303.259 384.255 303.193C384.2 303.126 384.156 303.046 384.126 302.959C384.096 302.871 384.081 302.778 384.081 302.683C384.081 302.588 384.096 302.494 384.126 302.407C384.156 302.319 384.2 302.24 384.255 302.173C384.31 302.106 384.375 302.053 384.447 302.018C384.518 301.982 384.595 301.964 384.672 301.965H394.045C394.123 301.964 394.2 301.982 394.271 302.018C394.343 302.053 394.408 302.106 394.463 302.173C394.518 302.24 394.562 302.319 394.592 302.407C394.621 302.494 394.637 302.588 394.637 302.683C394.637 302.778 394.621 302.871 394.592 302.959C394.562 303.046 394.518 303.126 394.463 303.193C394.408 303.259 394.343 303.312 394.271 303.348C394.2 303.383 394.123 303.401 394.045 303.4Z" fill="white"/>
<path d="M341.304 179.951H330.168C329.556 179.951 328.964 179.68 328.502 179.188C328.039 178.695 327.737 178.016 327.651 177.273C326.964 171.075 326.964 164.791 327.651 158.593C327.736 157.859 328.032 157.186 328.486 156.695C328.939 156.205 329.521 155.928 330.126 155.915C333.63 153.991 337.403 153.991 341.343 155.914C341.71 155.92 342.071 156.025 342.402 156.22C342.732 156.415 343.024 156.697 343.256 157.045C343.498 157.407 343.672 157.83 343.764 158.285C343.855 158.739 343.863 159.213 343.787 159.671C342.893 165.125 342.893 170.741 343.787 176.194C343.863 176.653 343.855 177.127 343.764 177.581C343.672 178.035 343.498 178.459 343.256 178.821C343.02 179.175 342.722 179.46 342.384 179.656C342.047 179.851 341.678 179.952 341.304 179.951Z" fill="#1A87EC"/>
<path d="M340.139 163.037H330.766C330.688 163.037 330.612 163.019 330.54 162.984C330.468 162.948 330.403 162.895 330.348 162.829C330.293 162.762 330.25 162.682 330.22 162.595C330.19 162.508 330.175 162.414 330.175 162.319C330.175 162.224 330.19 162.13 330.22 162.043C330.25 161.955 330.293 161.876 330.348 161.809C330.403 161.743 330.468 161.69 330.54 161.654C330.612 161.618 330.688 161.601 330.766 161.601H340.139C340.216 161.601 340.293 161.618 340.364 161.654C340.436 161.69 340.501 161.743 340.556 161.809C340.611 161.876 340.655 161.955 340.685 162.043C340.714 162.13 340.73 162.224 340.73 162.319C340.73 162.414 340.714 162.508 340.685 162.595C340.655 162.682 340.611 162.762 340.556 162.829C340.501 162.895 340.436 162.948 340.364 162.984C340.293 163.019 340.216 163.037 340.139 163.037Z" fill="white"/>
<path d="M340.139 168.777H330.766C330.688 168.778 330.612 168.76 330.54 168.724C330.468 168.688 330.403 168.636 330.348 168.569C330.293 168.502 330.25 168.423 330.22 168.335C330.19 168.248 330.175 168.154 330.175 168.059C330.175 167.964 330.19 167.871 330.22 167.783C330.25 167.696 330.293 167.616 330.348 167.55C330.403 167.483 330.468 167.43 330.54 167.394C330.612 167.359 330.688 167.341 330.766 167.342H340.139C340.216 167.341 340.293 167.359 340.364 167.394C340.436 167.43 340.501 167.483 340.556 167.55C340.611 167.616 340.655 167.696 340.685 167.783C340.714 167.871 340.73 167.964 340.73 168.059C340.73 168.154 340.714 168.248 340.685 168.335C340.655 168.423 340.611 168.502 340.556 168.569C340.501 168.636 340.436 168.688 340.364 168.724C340.293 168.76 340.216 168.778 340.139 168.777Z" fill="white"/>
<path d="M340.138 174.518H330.765C330.688 174.519 330.611 174.501 330.539 174.465C330.468 174.429 330.402 174.377 330.347 174.31C330.292 174.243 330.249 174.164 330.219 174.076C330.189 173.989 330.174 173.895 330.174 173.8C330.174 173.705 330.189 173.611 330.219 173.524C330.249 173.436 330.292 173.357 330.347 173.29C330.402 173.224 330.468 173.171 330.539 173.135C330.611 173.1 330.688 173.082 330.765 173.083H340.138C340.215 173.082 340.292 173.1 340.364 173.135C340.436 173.171 340.501 173.224 340.556 173.29C340.611 173.357 340.655 173.436 340.684 173.524C340.714 173.611 340.729 173.705 340.729 173.8C340.729 173.895 340.714 173.989 340.684 174.076C340.655 174.164 340.611 174.243 340.556 174.31C340.501 174.377 340.436 174.429 340.364 174.465C340.292 174.501 340.215 174.519 340.138 174.518Z" fill="white"/>
<path d="M145.811 214.957H134.675C134.063 214.956 133.471 214.685 133.009 214.193C132.546 213.701 132.244 213.021 132.158 212.278C131.471 206.08 131.471 199.796 132.158 193.598C132.243 192.864 132.539 192.191 132.993 191.701C133.446 191.21 134.027 190.933 134.633 190.92C138.136 188.996 141.91 188.996 145.85 190.92C146.217 190.926 146.578 191.03 146.909 191.225C147.239 191.42 147.531 191.702 147.763 192.05C148.005 192.412 148.179 192.836 148.27 193.29C148.362 193.744 148.37 194.218 148.294 194.677C147.399 200.13 147.399 205.746 148.294 211.199C148.37 211.658 148.362 212.132 148.27 212.586C148.179 213.04 148.005 213.464 147.763 213.826C147.527 214.18 147.229 214.465 146.891 214.661C146.554 214.857 146.185 214.958 145.811 214.957Z" fill="#1A87EC"/>
<path d="M144.645 198.041H135.272C135.194 198.042 135.118 198.024 135.046 197.989C134.974 197.953 134.909 197.9 134.854 197.833C134.799 197.767 134.756 197.687 134.726 197.6C134.696 197.512 134.681 197.419 134.681 197.324C134.681 197.229 134.696 197.135 134.726 197.048C134.756 196.96 134.799 196.881 134.854 196.814C134.909 196.747 134.974 196.695 135.046 196.659C135.118 196.623 135.194 196.605 135.272 196.606H144.645C144.722 196.605 144.799 196.623 144.87 196.659C144.942 196.695 145.007 196.747 145.062 196.814C145.117 196.881 145.161 196.96 145.19 197.048C145.22 197.135 145.236 197.229 145.236 197.324C145.236 197.419 145.22 197.512 145.19 197.6C145.161 197.687 145.117 197.767 145.062 197.833C145.007 197.9 144.942 197.953 144.87 197.989C144.799 198.024 144.722 198.042 144.645 198.041Z" fill="white"/>
<path d="M144.645 203.782H135.272C135.194 203.783 135.118 203.765 135.046 203.729C134.974 203.694 134.909 203.641 134.854 203.574C134.799 203.507 134.756 203.428 134.726 203.341C134.696 203.253 134.681 203.159 134.681 203.065C134.681 202.97 134.696 202.876 134.726 202.788C134.756 202.701 134.799 202.622 134.854 202.555C134.909 202.488 134.974 202.435 135.046 202.4C135.118 202.364 135.194 202.346 135.272 202.347H144.645C144.722 202.346 144.799 202.364 144.87 202.4C144.942 202.435 145.007 202.488 145.062 202.555C145.117 202.622 145.161 202.701 145.19 202.788C145.22 202.876 145.236 202.97 145.236 203.065C145.236 203.159 145.22 203.253 145.19 203.341C145.161 203.428 145.117 203.507 145.062 203.574C145.007 203.641 144.942 203.694 144.87 203.729C144.799 203.765 144.722 203.783 144.645 203.782Z" fill="white"/>
<path d="M144.645 209.523H135.272C135.195 209.524 135.118 209.506 135.046 209.47C134.974 209.435 134.909 209.382 134.854 209.315C134.799 209.249 134.756 209.169 134.726 209.082C134.696 208.994 134.681 208.9 134.681 208.806C134.681 208.711 134.696 208.617 134.726 208.529C134.756 208.442 134.799 208.362 134.854 208.296C134.909 208.229 134.974 208.176 135.046 208.141C135.118 208.105 135.195 208.087 135.272 208.088H144.645C144.722 208.087 144.799 208.105 144.871 208.141C144.943 208.176 145.008 208.229 145.063 208.296C145.118 208.362 145.161 208.442 145.191 208.529C145.221 208.617 145.236 208.711 145.236 208.806C145.236 208.9 145.221 208.994 145.191 209.082C145.161 209.169 145.118 209.249 145.063 209.315C145.008 209.382 144.943 209.435 144.871 209.47C144.799 209.506 144.722 209.524 144.645 209.523Z" fill="white"/>
<path d="M398.475 291.397C399.013 291.007 399.476 290.477 399.83 289.844C400.183 289.212 400.419 288.492 400.521 287.736C400.623 286.979 400.588 286.205 400.419 285.466C400.25 284.728 399.951 284.044 399.543 283.463L407.191 267.353L399.298 267.898L393.246 283.113C392.494 284.017 392.039 285.228 391.967 286.516C391.895 287.803 392.212 289.079 392.856 290.1C393.501 291.121 394.429 291.817 395.464 292.056C396.5 292.295 397.571 292.061 398.475 291.397Z" fill="#FFB6B6"/>
<path d="M401.561 279.553L394.494 272.81L407.335 242.328L402.524 203.51C402.286 201.592 402.396 199.632 402.846 197.772C403.296 195.911 404.074 194.194 405.127 192.743C406.179 191.293 407.48 190.144 408.935 189.378C410.391 188.612 411.967 188.248 413.55 188.312C416.41 188.431 419.115 189.935 421.07 192.494C423.026 195.053 424.073 198.458 423.982 201.961L422.793 246.161L401.561 279.553Z" fill="#CCCCCC"/>
<path d="M60.0028 271.224C60.4479 270.676 60.7895 270.016 61.0035 269.288C61.2175 268.561 61.2988 267.785 61.2415 267.016C61.1843 266.246 60.99 265.501 60.6722 264.833C60.3545 264.165 59.9211 263.59 59.4025 263.15L66.2753 221.334L58.6856 224.319L53.1842 264.766C52.6379 265.882 52.4447 267.205 52.6415 268.484C52.8382 269.762 53.411 270.909 54.2515 271.705C55.092 272.501 56.1416 272.892 57.2016 272.803C58.2616 272.715 59.2583 272.153 60.0028 271.224Z" fill="#9E616A"/>
<path d="M70.1508 182.754L65.4418 178.4C65.4418 178.4 61.2876 178.039 60.5519 187.216C59.8161 196.392 58.3054 214.276 58.3054 214.276L51.0996 255.158L61.0744 257.84L68.7924 213.721L73.4224 200.62L70.1508 182.754Z" fill="#CCCCCC"/>
<path d="M62.3877 249.509L88.9236 248.967L91.135 226.756H62.3877V249.509Z" fill="#9E616A"/>
<path d="M86.2689 386.192H92.3948L95.309 357.249L86.2676 357.249L86.2689 386.192Z" fill="#9E616A"/>
<path d="M47.8916 386.887L54.0175 386.834L56.7661 357.866L48.7989 360.105L47.8916 386.887Z" fill="#9E616A"/>
<path d="M67.051 207.628L65.6631 212.048L65.9404 216.469L93.1063 227.995L91.7586 208.648L88.7047 204.227L67.051 207.628Z" fill="#FFB6B6"/>
<path d="M78.7055 167.846C84.0641 167.846 88.408 162.525 88.408 155.961C88.408 149.397 84.0641 144.076 78.7055 144.076C73.3469 144.076 69.0029 149.397 69.0029 155.961C69.0029 162.525 73.3469 167.846 78.7055 167.846Z" fill="#9E616A"/>
<path d="M84.7504 382.491L94.4342 381.783V386.865L103.641 394.654C104.096 395.038 104.438 395.591 104.618 396.231C104.799 396.871 104.807 397.565 104.643 398.211C104.478 398.857 104.149 399.422 103.704 399.823C103.259 400.224 102.721 400.441 102.168 400.441H90.6393L88.6521 395.414L87.8762 400.441H83.5293L84.7504 382.491Z" fill="#2F2E41"/>
<path d="M45.7962 383.203L55.4758 382.412L55.5048 387.494L64.7558 395.204C65.2128 395.585 65.5584 396.134 65.7423 396.773C65.9261 397.411 65.9386 398.105 65.7778 398.752C65.6171 399.4 65.2915 399.968 64.8486 400.373C64.4058 400.778 63.8689 400.999 63.3163 401.003L51.7876 401.102L49.7717 396.092L49.0245 401.126L44.6777 401.163L45.7962 383.203Z" fill="#2F2E41"/>
<path d="M45.9857 364.695L50.4463 321.02L55.7535 274.972C51.867 266.13 60.6184 238.675 60.6184 238.675L61.8538 238.747L89.8139 245.208L89.8079 245.175C95.5267 264.282 97.4214 273.721 97.108 294.067L95.9813 367.208H96.3348C96.9213 367.208 97.4837 367.494 97.8984 368.002C98.3131 368.51 98.5461 369.199 98.5461 369.917C98.5461 370.635 98.3131 371.324 97.8984 371.832C97.4837 372.34 96.9213 372.626 96.3348 372.626H85.2782C84.9875 372.626 84.6995 372.557 84.4308 372.421C84.162 372.285 83.9178 372.086 83.7121 371.834C83.5063 371.582 83.3431 371.284 83.2317 370.955C83.1204 370.626 83.063 370.273 83.063 369.917C83.063 369.561 83.1204 369.208 83.2317 368.879C83.3431 368.55 83.5063 368.252 83.7121 368C83.9178 367.748 84.162 367.549 84.4308 367.413C84.6995 367.277 84.9875 367.208 85.2782 367.208H85.5633L75.4146 280.119L66.8102 316.686L57.0803 364.36C60.6184 363.276 60.0691 365.787 60.0691 367.208C60.0691 367.927 59.8361 368.616 59.4214 369.124C59.0067 369.632 58.4442 369.917 57.8577 369.917H46.8012C46.2869 369.918 45.7886 369.699 45.3921 369.297C44.9956 368.896 44.7258 368.338 44.6292 367.72C44.5326 367.101 44.6152 366.46 44.8628 365.908C45.1104 365.356 45.5075 364.927 45.9857 364.695Z" fill="#2F2E41"/>
<path d="M58.441 240.097L59.3256 229.262C59.4174 228.82 59.6212 228.425 59.9076 228.133C60.194 227.842 60.5484 227.669 60.92 227.639C61.2885 222.478 62.8391 200.212 62.9318 199.24L62.9354 199.199L63.6405 180.749C63.6661 180.079 63.8923 179.444 64.2759 178.965C64.6596 178.486 65.1738 178.197 65.7202 178.154L69.4444 177.855C69.4955 177.853 69.5439 177.827 69.5795 177.782C69.615 177.737 69.6349 177.677 69.6349 177.614C69.6349 177.11 69.7159 176.612 69.8733 176.146C70.0307 175.681 70.2613 175.258 70.5522 174.901C70.843 174.545 71.1882 174.263 71.5682 174.07C71.9482 173.877 72.3554 173.778 72.7667 173.778H83.7929C84.5071 173.778 85.1966 174.098 85.732 174.677C86.2675 175.256 86.6121 176.054 86.7011 176.922C86.7059 176.982 86.7291 177.037 86.7658 177.077C86.8025 177.117 86.8502 177.138 86.8992 177.137H86.9005C88.1534 177.105 89.374 177.625 90.3408 178.601C91.3077 179.578 91.9568 180.946 92.1703 182.459C93.6777 193.202 96.6987 217.586 95.205 231.141C94.6851 235.86 95.8059 232.123 96.0026 236.071C96.0221 236.453 95.98 236.835 95.8786 237.197C95.7773 237.558 95.6187 237.892 95.4119 238.178C95.8352 238.367 96.1808 238.752 96.3735 239.251C96.5663 239.749 96.5907 240.321 96.4415 240.842L96.6353 240.783C96.5785 241.059 96.4779 241.318 96.3393 241.547C96.2006 241.775 96.0266 241.968 95.8271 242.114C95.6277 242.26 95.4067 242.356 95.1769 242.397C94.947 242.439 94.7128 242.424 94.4875 242.354L65.6403 247.142C64.6929 246.85 58.2022 241.257 58.441 240.097Z" fill="#CCCCCC"/>
<path d="M135.524 196.044C135.344 196.785 135.033 197.468 134.613 198.045C134.194 198.623 133.676 199.081 133.096 199.386C132.517 199.692 131.889 199.839 131.259 199.815C130.628 199.792 130.009 199.6 129.445 199.252L118.293 211.719L116.812 202.124L127.637 191.787C128.177 190.666 129.034 189.827 130.045 189.428C131.056 189.03 132.152 189.099 133.124 189.624C134.097 190.149 134.878 191.092 135.32 192.276C135.763 193.459 135.835 194.8 135.524 196.044Z" fill="#9E616A"/>
<path d="M96.7091 186.515C96.7091 186.515 92.8204 175.751 87.909 177.89C82.9975 180.03 85.5334 190.475 85.5334 190.475L103.986 224.534C103.986 224.534 130.601 203.621 127.365 203.473C124.128 203.325 123.16 196.115 123.16 196.115L109.093 204.724L108.618 201.659L107.855 202.594L105.886 200.696L96.7091 186.515Z" fill="#CCCCCC"/>
<path d="M414.813 174.69C422.294 174.69 428.359 167.261 428.359 158.097C428.359 148.932 422.294 141.503 414.813 141.503C407.331 141.503 401.267 148.932 401.267 158.097C401.267 167.261 407.331 174.69 414.813 174.69Z" fill="#FFB6B6"/>
<path d="M458.287 182.513C456.723 185.227 454.442 187.194 451.829 188.082C450.783 188.463 449.704 188.688 448.614 188.751C448.48 187.242 448.157 185.766 447.659 184.376C447.709 185.856 447.541 187.334 447.163 188.741C445.526 188.627 443.927 188.102 442.463 187.198C441.026 186.313 439.776 185.028 438.815 183.448C437.853 181.868 437.205 180.035 436.922 178.094C436.348 173.555 438.028 169.099 438.635 164.567C439.246 160.035 438.101 154.296 434.479 153.105C431.721 152.197 432.03 152.589 429.738 154.674C432.123 158.994 423.314 174.823 419.709 173.443C417.671 172.662 416.366 170.372 415.945 170.372C413.112 176.35 418.447 186.424 413.07 188.516L413.513 187.973C416.759 183.083 409.975 172.733 413.221 167.843C414.126 166.475 415.09 164.854 414.822 163.124C414.569 161.479 412.438 160.609 411.814 161.96C412.936 158.81 411.279 154.606 408.535 153.797C406.097 153.077 406.142 153.965 403.696 154.35C403.536 153.055 403.237 151.792 402.807 150.593C402.852 151.885 402.729 153.177 402.442 154.422C401.578 154.401 400.744 154.032 400.069 153.371C398.074 151.402 398.478 147.266 400.258 145.01C402.041 142.755 404.69 141.943 407.217 141.417C407.952 135.152 422.064 134.498 423.935 140.758C424.732 136.083 429.509 133.657 433.223 135.108C436.936 136.558 439.513 140.806 440.87 145.283C442.226 149.757 442.605 154.572 443.441 159.233C444.277 163.895 445.689 168.642 448.598 171.819C451.506 174.992 456.245 176.043 459.309 173.095C459.755 174.653 459.894 176.317 459.716 177.954C459.539 179.59 459.049 181.152 458.287 182.513Z" fill="#2F2E41"/>
<path d="M585.374 220.379L583.478 232.034C583.335 232.925 583.186 233.832 583.023 234.731C581.438 234.329 579.795 234.441 578.256 235.057C579.477 237.194 580.571 239.435 581.529 241.764C580.334 246.275 578.581 250.444 575.645 253.459C573.684 255.428 571.343 256.745 568.845 257.283C566.348 257.821 563.78 257.561 561.389 256.53L561.473 256.068C558.317 248.566 560.031 239.107 563.954 232.177C565.955 228.759 568.326 225.689 571.001 223.052C573.651 220.347 576.515 217.921 579.354 215.526C579.991 214.989 580.745 214.697 581.518 214.687C582.292 214.678 583.05 214.951 583.697 215.472C584.343 215.993 584.848 216.738 585.147 217.612C585.445 218.486 585.525 219.449 585.374 220.379Z" fill="#E4E4E4"/>
<path d="M562.065 284.574C561.267 277.451 560.446 270.237 561.006 263.038C561.503 256.645 563.095 250.401 566.337 245.28C568.058 242.568 570.152 240.243 572.525 238.412C573.144 237.935 573.713 239.135 573.097 239.611C568.991 242.789 565.816 247.483 564.028 253.014C562.054 259.165 561.737 265.871 562.08 272.405C562.286 276.357 562.721 280.282 563.161 284.204C563.197 284.381 563.175 284.569 563.102 284.727C563.028 284.886 562.908 285.005 562.765 285.058C562.62 285.106 562.465 285.082 562.335 284.991C562.204 284.9 562.108 284.75 562.067 284.573L562.065 284.574Z" fill="#F2F2F2"/>
<path d="M607.226 401.755L0.773044 401.999C0.568333 401.999 0.372213 401.899 0.22767 401.721C0.0831269 401.543 0.00195312 401.303 0.00195312 401.052C0.00195312 400.801 0.0831269 400.561 0.22767 400.383C0.372213 400.206 0.568333 400.106 0.773044 400.105L607.226 399.86C607.431 399.861 607.627 399.961 607.772 400.139C607.916 400.316 607.997 400.557 607.997 400.808C607.997 401.058 607.916 401.299 607.772 401.477C607.627 401.654 607.431 401.754 607.226 401.755Z" fill="#CACACA"/>
<path d="M67.2859 148.684C65.7978 149.559 64.1321 148.242 62.8473 146.938L63.3069 147.425C61.0363 150.131 59.9747 154.024 59.456 157.856C58.9368 161.685 58.8789 165.6 58.2251 169.401C57.5709 173.198 56.2137 177.014 53.6787 179.339C50.2825 182.455 45.5985 182.255 41.4308 181.3C41.3753 181.286 41.3235 181.275 41.268 181.262C42.3894 177.295 42.8453 173.093 42.6082 168.905C41.4911 173.102 39.5892 176.92 37.0543 180.056C34.291 179.125 31.5939 177.921 28.9892 176.457C27.3039 175.506 25.4892 174.207 25.0215 172.007C24.5525 169.824 25.6414 167.534 27.0975 166.155C28.5535 164.776 30.3406 164.057 31.9993 163.075C33.6554 162.097 35.2942 160.704 35.9572 158.6C37.4866 153.759 33.1299 148.205 34.8278 143.447C35.6651 141.108 37.7159 139.835 39.6435 138.854C42.5861 137.36 45.6078 136.111 48.6879 135.117C51.3918 134.243 54.2151 133.564 56.9696 134.137C59.7241 134.71 62.4226 136.762 63.414 139.966C65.0681 140.651 66.8243 141.423 67.8859 143.128C68.9469 144.83 68.8614 147.759 67.2859 148.684Z" fill="#2F2E41"/>
<path d="M80.5265 143.075C76.2694 138.958 72.8275 139.661 70.1722 142.219C69.7258 141.61 67.8262 143.284 67.183 143.043L64.8567 148.393C63.6596 150.981 63.1684 153.622 63.362 155.109C61.16 162.673 66.3817 167.781 72.557 170.478C75.021 171.562 77.7096 171.609 80.1982 170.613L80.2741 169.325L80.7417 170.381C80.7417 170.381 86.3871 184.62 87.7211 185.259C86.9116 182.687 84.7767 170.462 84.1808 167.914C83.3637 164.447 83.9219 158.939 84.4021 155.562C84.7014 153.48 84.7171 151.352 84.4485 149.263L84.4366 149.172L85.7574 152.438L88.721 150.156C87.5883 146.115 87.5657 141.28 80.5265 143.075Z" fill="#2F2E41"/>
</g>
<defs>
<clipPath id="clip0_646_10473">
<rect width="608" height="402" fill="white"/>
</clipPath>
</defs>
</svg>
