<svg width="35" height="35" viewBox="0 0 35 35" fill="none" xmlns="http://www.w3.org/2000/svg">
<rect x="0.5" y="0.5" width="34" height="34" rx="17" stroke="#E2E2E2"/>
<g clip-path="url(#clip0_2229_16670)">
<path d="M22.6157 7C20.9165 7 19.5388 8.37923 19.5388 10.0769C19.5388 12.1269 22.2311 14.9277 22.2311 17.7454H23.0003C23.0011 14.9277 25.6926 12.2077 25.6926 10.0769C25.6926 8.37923 24.3149 7 22.6157 7ZM22.6157 8.49077C22.8241 8.49087 23.0304 8.53202 23.2229 8.61186C23.4154 8.6917 23.5903 8.80868 23.7376 8.95611C23.8849 9.10354 24.0017 9.27854 24.0813 9.47111C24.161 9.66369 24.2019 9.87006 24.2018 10.0785C24.2017 10.2869 24.1606 10.4932 24.0807 10.6857C24.0009 10.8782 23.8839 11.0531 23.7365 11.2004C23.5891 11.3476 23.4141 11.4645 23.2215 11.5441C23.0289 11.6238 22.8225 11.6647 22.6141 11.6646C22.1932 11.6644 21.7895 11.497 21.492 11.1992C21.1944 10.9013 21.0274 10.4975 21.0276 10.0765C21.0278 9.65556 21.1952 9.2519 21.4931 8.95437C21.7909 8.65683 22.1947 8.49057 22.6157 8.49077ZM18.0003 8.53846C12.9103 8.53846 8.76953 12.6792 8.76953 17.7692C8.76953 22.8592 12.9103 27 18.0003 27C23.0903 27 27.2311 22.8592 27.2311 17.7692C27.2311 16.2231 26.848 14.7723 26.1734 13.49C26.0711 13.6931 25.968 13.8862 25.8611 14.0915C25.6588 14.4823 25.4457 14.8769 25.2595 15.2692C25.4518 15.8192 25.5841 16.4008 25.6441 17H24.6349C24.5795 17.2577 24.5388 17.5 24.5388 17.7454V18.5385H25.6449C25.5401 19.6228 25.2038 20.6721 24.6588 21.6154H22.4003C22.5695 20.8938 22.6672 20.0962 22.7365 19.2838H21.2211C21.1484 20.0708 21.0121 20.8505 20.8134 21.6154H15.1872C14.927 20.6087 14.7739 19.5773 14.7303 18.5385H20.6918V17.7454C20.6858 17.4943 20.6535 17.2444 20.5957 17H14.7311C14.7746 15.9611 14.9278 14.9298 15.188 13.9231H19.2988C19.0317 13.4193 18.7829 12.9062 18.5526 12.3846H15.7165C16.3526 10.9331 17.1934 10.0769 18.0003 10.0769C18.0003 9.54231 18.0965 9.04 18.2649 8.56231C18.1765 8.55923 18.0895 8.53846 18.0003 8.53846ZM14.8272 10.7738C14.521 11.2855 14.2635 11.8248 14.058 12.3846H12.5195C13.1832 11.7104 13.9655 11.1643 14.8272 10.7738ZM11.3418 13.9231H13.6003C13.3675 14.9336 13.2308 15.9638 13.1918 17H10.3557C10.4605 15.9156 10.7968 14.8664 11.3418 13.9231ZM10.3557 18.5385H13.1926C13.238 19.6346 13.3795 20.6692 13.6011 21.6154H11.3418C10.7968 20.6721 10.4605 19.6228 10.3557 18.5385ZM12.5195 23.1538H14.058C14.2795 23.7508 14.5388 24.2869 14.8272 24.7646C13.9655 24.3742 13.1832 23.8281 12.5195 23.1538ZM15.7165 23.1538H20.2841C19.648 24.6054 18.8072 25.4615 18.0003 25.4615C17.1934 25.4615 16.3518 24.6054 15.7165 23.1538ZM21.9426 23.1538H23.4811C22.8174 23.8281 22.0351 24.3742 21.1734 24.7646C21.4618 24.2877 21.7211 23.7515 21.9426 23.1538Z" fill="black"/>
</g>
<defs>
<clipPath id="clip0_2229_16670">
<rect width="20" height="20" fill="white" transform="translate(8 7)"/>
</clipPath>
</defs>
</svg>
