<svg width="35" height="35" viewBox="0 0 35 35" fill="none" xmlns="http://www.w3.org/2000/svg">
<rect x="0.5" y="0.5" width="34" height="34" rx="17" stroke="#E2E2E2"/>
<path d="M25 11H11C9.89543 11 9 11.8954 9 13V24C9 25.1046 9.89543 26 11 26H25C26.1046 26 27 25.1046 27 24V13C27 11.8954 26.1046 11 25 11Z" stroke="black" stroke-width="1.8"/>
<path d="M9 15C9 13.114 9 12.172 9.586 11.586C10.172 11 11.114 11 13 11H23C24.886 11 25.828 11 26.414 11.586C27 12.172 27 13.114 27 15H9Z" fill="black"/>
<path d="M13 8V11M23 8V11" stroke="black" stroke-width="1.8" stroke-linecap="round"/>
<path d="M16.5 17H13.5C13.2239 17 13 17.2239 13 17.5V18.5C13 18.7761 13.2239 19 13.5 19H16.5C16.7761 19 17 18.7761 17 18.5V17.5C17 17.2239 16.7761 17 16.5 17Z" fill="black"/>
<path d="M16.5 21H13.5C13.2239 21 13 21.2239 13 21.5V22.5C13 22.7761 13.2239 23 13.5 23H16.5C16.7761 23 17 22.7761 17 22.5V21.5C17 21.2239 16.7761 21 16.5 21Z" fill="black"/>
<path d="M22.5 17H19.5C19.2239 17 19 17.2239 19 17.5V18.5C19 18.7761 19.2239 19 19.5 19H22.5C22.7761 19 23 18.7761 23 18.5V17.5C23 17.2239 22.7761 17 22.5 17Z" fill="black"/>
<path d="M22.5 21H19.5C19.2239 21 19 21.2239 19 21.5V22.5C19 22.7761 19.2239 23 19.5 23H22.5C22.7761 23 23 22.7761 23 22.5V21.5C23 21.2239 22.7761 21 22.5 21Z" fill="black"/>
</svg>
