<svg width="1122" height="807" viewBox="0 0 1122 807" fill="none" xmlns="http://www.w3.org/2000/svg">
<path d="M671.152 293.833H451.819C436.699 293.833 424.402 306.129 424.402 321.25V485.75C424.402 500.87 436.699 513.166 451.819 513.166H671.152C686.273 513.166 698.569 500.87 698.569 485.75V321.25C698.569 306.129 686.273 293.833 671.152 293.833ZM486.09 334.958C491.543 334.958 496.774 337.124 500.63 340.981C504.486 344.837 506.652 350.067 506.652 355.521C506.652 360.974 504.486 366.204 500.63 370.06C496.774 373.917 491.543 376.083 486.09 376.083C480.636 376.083 475.406 373.917 471.55 370.06C467.694 366.204 465.527 360.974 465.527 355.521C465.527 350.067 467.694 344.837 471.55 340.981C475.406 337.124 480.636 334.958 486.09 334.958ZM561.486 472.041H465.527L520.361 403.5L540.923 430.916L582.048 376.083L657.444 472.041H561.486Z" fill="#C0C0C0"/>
</svg>
