<svg width="16" height="16" viewBox="0 0 16 16" fill="none" xmlns="http://www.w3.org/2000/svg">
<path d="M13.0685 5.15711L8.38346 9.76811C8.28124 9.86924 8.14325 9.92596 7.99946 9.92596C7.85567 9.92596 7.71768 9.86924 7.61546 9.76811L2.93046 5.15811C2.8276 5.05704 2.68917 5.0004 2.54496 5.0004C2.40075 5.0004 2.26231 5.05704 2.15946 5.15811C2.10881 5.20749 2.06856 5.2665 2.04107 5.33168C2.01359 5.39686 1.99943 5.46688 1.99943 5.53761C1.99943 5.60835 2.01359 5.67836 2.04107 5.74354C2.06856 5.80872 2.10881 5.86773 2.15946 5.91711L6.84346 10.5271C7.15198 10.83 7.56708 10.9998 7.99946 10.9998C8.43184 10.9998 8.84694 10.83 9.15546 10.5271L13.8395 5.91711C13.8903 5.86772 13.9306 5.80864 13.9582 5.74337C13.9858 5.6781 14 5.60797 14 5.53711C14 5.46626 13.9858 5.39612 13.9582 5.33085C13.9306 5.26558 13.8903 5.2065 13.8395 5.15711C13.7366 5.05604 13.5982 4.9994 13.454 4.9994C13.3098 4.9994 13.1713 5.05604 13.0685 5.15711Z" fill="black"/>
</svg>
