<svg width="35" height="35" viewBox="0 0 35 35" fill="none" xmlns="http://www.w3.org/2000/svg">
<rect x="0.5" y="0.5" width="34" height="34" rx="17" stroke="#E2E2E2"/>
<path d="M18 5.80713L29.835 13.5001L28 14.6931V21.0001H26V15.9931L25 16.6431V22.5001C25 23.9701 23.986 25.1151 22.747 25.8391C21.482 26.5761 19.802 26.9991 18 26.9991C16.198 26.9991 14.517 26.5761 13.253 25.8391C12.013 25.1151 11 23.9691 11 22.4991V16.6431L6.16504 13.5001L18 5.80713ZM13 17.9431V22.5001C13 22.9631 13.33 23.5671 14.261 24.1101C15.169 24.6401 16.488 25.0001 18 25.0001C19.512 25.0001 20.831 24.6401 21.739 24.1101C22.671 23.5671 22.999 22.9631 22.999 22.5001V17.9431L17.999 21.1931L13 17.9431ZM26.165 13.5001L18 8.19313L9.83504 13.5001L18 18.8071L26.165 13.5001Z" fill="black"/>
</svg>
