<svg width="35" height="35" viewBox="0 0 35 35" fill="none" xmlns="http://www.w3.org/2000/svg">
<rect x="0.5" y="0.5" width="34" height="34" rx="17" stroke="#E2E2E2"/>
<path d="M18 7L30 14.2603L28.1394 15.3862V21.3384H26.1115V16.6131L25.0976 17.2265V22.7541C25.0976 24.1414 24.0695 25.222 22.8132 25.9052C21.5305 26.6008 19.8271 27 18 27C16.1729 27 14.4684 26.6008 13.1868 25.9052C11.9295 25.222 10.9024 24.1404 10.9024 22.7531V17.2265L6 14.2603L18 7ZM12.9303 18.4534V22.7541C12.9303 23.191 13.2649 23.761 14.2089 24.2735C15.1295 24.7737 16.4669 25.1134 18 25.1134C19.5331 25.1134 20.8705 24.7737 21.7911 24.2735C22.7361 23.761 23.0687 23.191 23.0687 22.7541V18.4534L17.999 21.5206L12.9303 18.4534ZM26.2788 14.2603L18 9.25179L9.72117 14.2603L18 19.2688L26.2788 14.2603Z" fill="black"/>
</svg>
