<svg width="35" height="35" viewBox="0 0 35 35" fill="none" xmlns="http://www.w3.org/2000/svg">
<rect x="0.5" y="0.5" width="34" height="34" rx="17" stroke="#E2E2E2"/>
<path d="M21.4241 17.0337L26.8064 11.6511V22.355L21.4241 17.0337ZM14.4886 17.9453L16.3786 19.8339C16.6753 20.124 17.062 20.2992 17.4847 20.2992H17.4996H17.5109C17.9345 20.2992 18.3212 20.1229 18.6214 19.8308L18.6187 19.8329L20.5088 17.9443L26.2543 23.6241H8.7457L14.4886 17.9453ZM8.73782 10.3749H26.2648L17.8461 18.7914C17.7518 18.8784 17.6344 18.9254 17.5136 18.9243H17.5013H17.4899C17.3687 18.9253 17.2509 18.878 17.1565 18.7904L17.1574 18.7914L8.73782 10.3749ZM8.19442 11.65L13.5759 17.0327L8.19442 22.351V11.65ZM27.0952 9.19138C26.8852 9.07051 26.6384 9 26.3768 9H8.62669C8.37318 9.00116 8.12326 9.06903 7.89604 9.19843L7.90566 9.19339C7.63428 9.34798 7.40575 9.58665 7.24576 9.88256C7.08576 10.1785 7.00066 10.5199 7 10.8684V23.1285C7.00046 23.6247 7.1719 24.1004 7.4767 24.4513C7.7815 24.8021 8.19477 24.9995 8.62582 25H26.3742C26.8052 24.9995 27.2185 24.8021 27.5233 24.4513C27.8281 24.1004 27.9995 23.6247 28 23.1285V10.8684C28 10.1362 27.6334 9.50161 27.0996 9.19641L27.09 9.19138H27.0952Z" fill="black"/>
</svg>
