<svg width="35" height="35" viewBox="0 0 35 35" fill="none" xmlns="http://www.w3.org/2000/svg">
<rect x="0.5" y="0.5" width="34" height="34" rx="17" stroke="#E2E2E2"/>
<path d="M24.7923 9.16675H10.209C9.38018 9.16675 8.58533 9.49599 7.99928 10.082C7.41322 10.6681 7.08398 11.4629 7.08398 12.2917V22.7084C7.08398 23.5372 7.41322 24.3321 7.99928 24.9181C8.58533 25.5042 9.38018 25.8334 10.209 25.8334H24.7923C25.6211 25.8334 26.416 25.5042 27.002 24.9181C27.5881 24.3321 27.9173 23.5372 27.9173 22.7084V12.2917C27.9173 11.4629 27.5881 10.6681 27.002 10.082C26.416 9.49599 25.6211 9.16675 24.7923 9.16675ZM24.0944 11.2501L17.5007 16.198L10.9069 11.2501H24.0944ZM24.7923 23.7501H10.209C9.93272 23.7501 9.66777 23.6403 9.47242 23.445C9.27706 23.2496 9.16732 22.9847 9.16732 22.7084V12.5522L16.8757 18.3334C17.056 18.4686 17.2753 18.5417 17.5007 18.5417C17.726 18.5417 17.9453 18.4686 18.1257 18.3334L25.834 12.5522V22.7084C25.834 22.9847 25.7242 23.2496 25.5289 23.445C25.3335 23.6403 25.0686 23.7501 24.7923 23.7501Z" fill="black"/>
</svg>
