<svg width="35" height="35" viewBox="0 0 35 35" fill="none" xmlns="http://www.w3.org/2000/svg">
<g clip-path="url(#clip0_2814_14948)">
<g clip-path="url(#clip1_2814_14948)">
<path d="M16.75 24.5C16.75 24.5 15.5 24.5 15.5 23.25C15.5 22 16.75 18.25 21.75 18.25C26.75 18.25 28 22 28 23.25C28 24.5 26.75 24.5 26.75 24.5H16.75ZM21.75 17C22.7446 17 23.6984 16.6049 24.4017 15.9017C25.1049 15.1984 25.5 14.2446 25.5 13.25C25.5 12.2554 25.1049 11.3016 24.4017 10.5983C23.6984 9.89509 22.7446 9.5 21.75 9.5C20.7554 9.5 19.8016 9.89509 19.0983 10.5983C18.3951 11.3016 18 12.2554 18 13.25C18 14.2446 18.3951 15.1984 19.0983 15.9017C19.8016 16.6049 20.7554 17 21.75 17ZM14.52 24.5C14.3348 24.1097 14.2424 23.6819 14.25 23.25C14.25 21.5562 15.1 19.8125 16.67 18.6C15.8865 18.358 15.07 18.24 14.25 18.25C9.25 18.25 8 22 8 23.25C8 24.5 9.25 24.5 9.25 24.5H14.52ZM13.625 17C14.4538 17 15.2487 16.6708 15.8347 16.0847C16.4208 15.4987 16.75 14.7038 16.75 13.875C16.75 13.0462 16.4208 12.2513 15.8347 11.6653C15.2487 11.0792 14.4538 10.75 13.625 10.75C12.7962 10.75 12.0013 11.0792 11.4153 11.6653C10.8292 12.2513 10.5 13.0462 10.5 13.875C10.5 14.7038 10.8292 15.4987 11.4153 16.0847C12.0013 16.6708 12.7962 17 13.625 17Z" fill="black"/>
</g>
</g>
<rect x="0.5" y="0.5" width="34" height="34" rx="17" stroke="#E2E2E2"/>
<defs>
<clipPath id="clip0_2814_14948">
<rect width="35" height="35" rx="17.5" fill="white"/>
</clipPath>
<clipPath id="clip1_2814_14948">
<rect width="20" height="20" fill="white" transform="translate(8 7)"/>
</clipPath>
</defs>
</svg>
