<svg width="270" height="270" viewBox="0 0 270 270" fill="none" xmlns="http://www.w3.org/2000/svg">
<path d="M134.933 268.913C208.902 268.913 268.866 208.939 268.866 134.956C268.866 60.9744 208.902 1 134.933 1C60.9638 1 1 60.9744 1 134.956C1 208.939 60.9638 268.913 134.933 268.913Z" fill="#FFF6EA" stroke="#FFE4BD" stroke-width="1.054" stroke-linecap="round" stroke-linejoin="round" stroke-dasharray="2 2"/>
<path d="M125.155 47.9645C127.868 46.0381 131.14 45 134.5 45C137.86 45 141.132 46.0381 143.845 47.9645L211.047 95.6538C219.894 101.923 215.339 115.527 204.4 115.554H64.5911C53.652 115.527 49.1061 101.923 57.9443 95.6538L125.155 47.9645ZM143.556 82.5252C143.556 80.1899 142.601 77.9502 140.903 76.2989C139.205 74.6476 136.902 73.7199 134.5 73.7199C132.098 73.7199 129.795 74.6476 128.097 76.2989C126.399 77.9502 125.444 80.1899 125.444 82.5252C125.444 84.8605 126.399 87.1001 128.097 88.7514C129.795 90.4027 132.098 91.3304 134.5 91.3304C136.902 91.3304 139.205 90.4027 140.903 88.7514C142.601 87.1001 143.556 84.8605 143.556 82.5252ZM127.708 168.376H109.597V124.35H127.708V168.376ZM159.403 168.376H141.292V124.35H159.403V168.376ZM193.361 168.376H172.986V124.35H193.361V168.376ZM195.625 177.182H73.375C67.9712 177.182 62.7888 179.269 58.9677 182.984C55.1466 186.7 53 191.739 53 196.993V201.396C53 205.05 56.0427 208 59.7917 208H209.208C211.01 208 212.737 207.304 214.011 206.066C215.284 204.827 216 203.148 216 201.396V196.993C216 191.739 213.853 186.7 210.032 182.984C206.211 179.269 201.029 177.182 195.625 177.182ZM96.0139 168.376H75.6389V124.35H96.0139V168.376Z" fill="#FFA929"/>
</svg>
