<svg width="35" height="35" viewBox="0 0 35 35" fill="none" xmlns="http://www.w3.org/2000/svg">
<rect x="0.5" y="0.5" width="34" height="34" rx="17" stroke="#E2E2E2"/>
<path d="M17.0715 22.22C17.1677 22.3158 17.244 22.4296 17.296 22.555C17.3481 22.6803 17.3749 22.8147 17.3749 22.9504C17.3749 23.0862 17.3481 23.2205 17.296 23.3459C17.244 23.4712 17.1677 23.5851 17.0715 23.6809L16.6315 24.1209C16.1645 24.5897 15.6091 24.9613 14.9975 25.2141C14.386 25.4669 13.7303 25.596 13.0686 25.5939C12.072 25.5942 11.0977 25.2989 10.269 24.7454C9.44022 24.1919 8.79428 23.405 8.41286 22.4843C8.03144 21.5635 7.93167 20.5504 8.12618 19.573C8.3207 18.5955 8.80075 17.6978 9.5056 16.9932L12.4919 14.0069C13.1271 13.3718 13.9205 12.918 14.79 12.6925C15.6595 12.4671 16.5734 12.4781 17.4372 12.7244C18.301 12.9708 19.0832 13.4435 19.7029 14.0938C20.3227 14.744 20.7573 15.548 20.9619 16.4226C20.9958 16.5556 21.0028 16.694 20.9825 16.8297C20.9622 16.9655 20.9151 17.0958 20.8438 17.213C20.7725 17.3303 20.6785 17.4321 20.5673 17.5126C20.4562 17.5931 20.3301 17.6506 20.1964 17.6817C20.0628 17.7128 19.9242 17.7169 19.789 17.6938C19.6537 17.6707 19.5244 17.6208 19.4086 17.5471C19.2929 17.4734 19.193 17.3773 19.1149 17.2645C19.0367 17.1517 18.9819 17.0244 18.9536 16.8901C18.8322 16.3738 18.575 15.8993 18.2088 15.5157C17.8426 15.1321 17.3806 14.8532 16.8705 14.7079C16.3604 14.5627 15.8208 14.5563 15.3074 14.6894C14.794 14.8226 14.3255 15.0904 13.9503 15.4653L10.964 18.4516C10.5477 18.8675 10.2641 19.3976 10.1491 19.9747C10.0341 20.5518 10.0928 21.1501 10.3178 21.6938C10.5428 22.2375 10.924 22.7023 11.4132 23.0294C11.9023 23.3565 12.4775 23.5312 13.066 23.5314C13.457 23.5325 13.8443 23.4561 14.2056 23.3065C14.5669 23.1569 14.8949 22.9372 15.1706 22.66L15.6097 22.22C15.7056 22.1237 15.8195 22.0473 15.9449 21.9952C16.0703 21.943 16.2048 21.9162 16.3406 21.9162C16.4765 21.9162 16.611 21.943 16.7364 21.9952C16.8618 22.0473 16.9757 22.1237 17.0715 22.22ZM26.4946 9.88191C25.5494 8.93705 24.2677 8.40625 22.9312 8.40625C21.5947 8.40625 20.313 8.93705 19.3678 9.88191L18.9286 10.3211C18.7349 10.5148 18.6261 10.7775 18.6261 11.0515C18.6261 11.3255 18.7349 11.5883 18.9286 11.782C19.1224 11.9757 19.3851 12.0846 19.6591 12.0846C19.9331 12.0846 20.1959 11.9757 20.3896 11.782L20.8296 11.342C21.388 10.7836 22.1454 10.4699 22.9351 10.4699C23.7248 10.4699 24.4821 10.7836 25.0405 11.342C25.5989 11.9004 25.9126 12.6578 25.9126 13.4475C25.9126 14.2372 25.5989 14.9945 25.0405 15.5529L22.049 18.535C21.7733 18.8122 21.4453 19.0319 21.084 19.1815C20.7228 19.3311 20.3354 19.4075 19.9444 19.4064C19.2737 19.4059 18.6228 19.1788 18.0972 18.762C17.5717 18.3452 17.2024 17.7631 17.0492 17.1101C16.9872 16.8437 16.8219 16.6128 16.5897 16.4682C16.3574 16.3237 16.0773 16.2773 15.8108 16.3393C15.5444 16.4013 15.3135 16.5665 15.1689 16.7988C15.0244 17.031 14.978 17.3112 15.04 17.5776C15.2987 18.6835 15.9235 19.6696 16.8129 20.3759C17.7024 21.0822 18.8044 21.4674 19.9401 21.4689H19.9444C20.6065 21.4707 21.2624 21.3412 21.8741 21.0879C22.4858 20.8347 23.0412 20.4626 23.5083 19.9933L26.4946 17.007C26.9625 16.5392 27.3337 15.9838 27.5869 15.3725C27.8401 14.7613 27.9705 14.1061 27.9705 13.4445C27.9705 12.7828 27.8401 12.1276 27.5869 11.5164C27.3337 10.9051 26.9625 10.3497 26.4946 9.88191Z" fill="black"/>
</svg>
