<svg width="192" height="198" viewBox="0 0 192 198" fill="none" xmlns="http://www.w3.org/2000/svg">
<path d="M115.808 142.75L90.3517 169.001C86.276 173.261 81.4234 176.647 76.0734 178.965C70.7234 181.283 64.9816 182.487 59.1787 182.507C53.3757 182.527 47.6263 181.363 42.2613 179.082C36.8963 176.801 32.0219 173.448 27.9186 169.217C23.8152 164.985 20.5641 159.958 18.3524 154.426C16.1407 148.893 15.0121 142.964 15.0315 136.98C15.051 130.996 16.2181 125.074 18.4657 119.557C20.7133 114.04 23.997 109.036 28.1277 104.833L36.6077 96.0877C37.7142 94.9052 39.0379 93.9618 40.5016 93.3125C41.9654 92.6633 43.5398 92.3211 45.1332 92.3061C46.7265 92.291 48.3068 92.6034 49.7818 93.2249C51.2569 93.8464 52.5971 94.7646 53.7243 95.926C54.8516 97.0874 55.7432 98.4686 56.3473 99.9892C56.9514 101.51 57.2557 103.139 57.2427 104.782C57.2296 106.425 56.8993 108.049 56.2711 109.559C55.6429 111.07 54.7293 112.436 53.5837 113.578L45.0957 122.339C41.3727 126.213 39.2894 131.451 39.3017 136.905C39.314 142.36 41.421 147.587 45.1615 151.443C48.902 155.3 53.9715 157.471 59.2607 157.482C64.5498 157.493 69.6279 155.343 73.3837 151.503L98.8397 125.251C101.592 122.414 103.482 118.81 104.278 114.881C105.074 110.952 104.741 106.87 103.32 103.133C102.808 101.802 102.285 100.554 101.752 99.3876L100.016 95.5596C97.7757 90.4446 96.8157 86.5094 101.664 81.5016C108.64 74.3076 115.08 76.1721 120.944 84.9419C126.773 93.6779 129.451 104.243 128.513 114.804C127.574 125.364 123.079 135.251 115.808 142.75ZM163.888 93.1671L155.408 101.912C153.146 104.167 150.115 105.416 146.968 105.39C143.822 105.363 140.812 104.063 138.586 101.77C136.36 99.4763 135.096 96.3731 135.068 93.1284C135.039 89.8837 136.247 86.7572 138.432 84.4221L146.912 75.6689C148.822 73.7669 150.347 71.4914 151.396 68.9754C152.444 66.4594 152.997 63.7531 153.021 61.0146C153.045 58.276 152.539 55.56 151.534 53.025C150.529 50.4899 149.045 48.1867 147.168 46.2496C145.29 44.3125 143.058 42.7804 140.6 41.7426C138.142 40.7049 135.509 40.1823 132.853 40.2053C130.198 40.2283 127.573 40.7965 125.133 41.8767C122.693 42.9569 120.485 44.5275 118.64 46.4969L93.1837 72.7484C90.4311 75.5858 88.5411 79.1898 87.7453 83.1186C86.9495 87.0473 87.2826 91.1302 88.7037 94.8666C89.2157 96.1976 89.7384 97.4461 90.2717 98.6121L92.0077 102.44C94.2477 107.555 95.2077 111.499 90.3597 116.498C83.3837 123.692 76.9437 121.828 71.0797 113.058C65.2506 104.322 62.5726 93.7564 63.5108 83.1962C64.4491 72.6361 68.9443 62.7483 76.2157 55.2501L101.672 28.9986C105.747 24.7388 110.6 21.3525 115.95 19.0347C121.3 16.7168 127.042 15.5132 132.845 15.4932C138.648 15.4731 144.397 16.637 149.762 18.9179C155.127 21.1987 160.002 24.5514 164.105 28.783C168.208 33.0145 171.459 38.0413 173.671 43.5739C175.883 49.1065 177.011 55.0357 176.992 61.0199C176.972 67.0042 175.805 72.9254 173.558 78.4426C171.31 83.9598 168.018 88.964 163.888 93.1671Z" fill="#808080"/>
</svg>
