<svg width="35" height="35" viewBox="0 0 35 35" fill="none" xmlns="http://www.w3.org/2000/svg">
<g clip-path="url(#clip0_1391_14455)">
<path d="M29.8216 29.8221H24.6358V21.7006C24.6358 19.764 24.6012 17.2709 21.9386 17.2709C19.2376 17.2709 18.8243 19.3811 18.8243 21.5597V29.8216H13.6385V13.1206H18.6169V15.403H18.6866C19.1848 14.5511 19.9048 13.8503 20.7698 13.3752C21.6348 12.9001 22.6124 12.6685 23.5986 12.7051C28.8548 12.7051 29.8238 16.1624 29.8238 20.6602L29.8216 29.8221ZM7.78695 10.8378C6.12486 10.8381 4.77723 9.49083 4.77695 7.82874C4.77668 6.16665 6.12377 4.81901 7.78586 4.81874C9.44795 4.81833 10.7956 6.16556 10.7959 7.82764C10.796 8.62581 10.4791 9.39135 9.91481 9.95586C9.35053 10.5204 8.58512 10.8376 7.78695 10.8378ZM10.38 29.8223H5.18861V13.1206H10.3798L10.38 29.8223ZM32.407 0.00254733H2.58275C1.17318 -0.013312 0.0172266 1.11585 0 2.52542V32.4741C0.0166797 33.8843 1.1725 35.0146 2.58262 34.9998H32.407C33.8201 35.0173 34.9804 33.8871 35 32.4741V2.52309C34.9799 1.11079 33.8194 -0.0182339 32.407 0.00022311" fill="#0A66C2"/>
</g>
<defs>
<clipPath id="clip0_1391_14455">
<rect width="35" height="35" fill="white"/>
</clipPath>
</defs>
</svg>
