<svg width="146" height="42" viewBox="0 0 146 42" fill="none" xmlns="http://www.w3.org/2000/svg">
<path d="M4.91016 22.7148C4.62891 22.5977 4.33984 22.4609 4.04297 22.3047C3.75391 22.1484 3.41406 21.8633 3.02344 21.4492C2.64062 21.0273 2.28125 20.4844 1.94531 19.8203C1.14844 18.2734 0.75 16.4648 0.75 14.3945C0.75 12.207 1.33594 10.2656 2.50781 8.57031C3.24219 7.52344 4.0625 6.79688 4.96875 6.39062C5.42969 6.1875 5.90625 6.08594 6.39844 6.08594C6.89844 6.08594 7.33594 6.17969 7.71094 6.36719C8.09375 6.54687 8.40625 6.76562 8.64844 7.02344C8.89062 7.27344 9.06641 7.52734 9.17578 7.78516C9.29297 8.04297 9.35156 8.31641 9.35156 8.60547C9.35156 8.88672 9.25781 9.19531 9.07031 9.53125C8.88281 9.86719 8.65234 10.1758 8.37891 10.457C8.11328 10.7383 7.82422 11.0078 7.51172 11.2656C7.19922 11.5156 6.92188 11.7734 6.67969 12.0391C6.11719 13.2031 5.83594 14.3359 5.83594 15.4375C5.83594 16.5938 6.13672 17.4727 6.73828 18.0742C6.92578 18.2617 7.13672 18.3984 7.37109 18.4844C8.26172 18.1953 9.55469 17.0898 11.25 15.168C12.5156 13.6523 13.4102 12.543 13.9336 11.8398L15.2578 10C16.5156 8.1875 17.8047 6.98438 19.125 6.39062C19.6328 6.15625 20.1172 6.04297 20.5781 6.05078C21.0469 6.05859 21.418 6.11719 21.6914 6.22656C21.9727 6.32813 22.2031 6.46484 22.3828 6.63672C22.7266 6.98047 22.8984 7.37109 22.8984 7.80859C22.8984 8.61328 22.625 9.33203 22.0781 9.96484C20.4375 11.7617 19.1875 13.0977 18.3281 13.9727L15.8906 16.3516L13.6641 18.3906C10.2344 21.3984 7.85156 22.9023 6.51562 22.9023C5.73438 22.9023 5.19922 22.8398 4.91016 22.7148ZM36.1758 13.3867C36.5508 13.3867 36.7383 13.5977 36.7383 14.0195C36.7383 14.3008 36.6406 14.6562 36.4453 15.0859C36.2578 15.5078 35.9844 15.9062 35.625 16.2812C35.2656 16.6484 34.8516 17.0312 34.3828 17.4297C33.9219 17.8281 33.3789 18.2461 32.7539 18.6836C32.1367 19.1211 31.4531 19.5547 30.7031 19.9844C29.9531 20.4141 29.1562 20.8008 28.3125 21.1445C26.4453 21.9102 24.6367 22.293 22.8867 22.293C21.5508 22.293 20.3828 21.9453 19.3828 21.25C18.3359 20.5234 17.8125 19.6406 17.8125 18.6016C17.8125 16.9688 18.6914 15.418 20.4492 13.9492C21.9648 12.6836 23.75 11.7031 25.8047 11.0078C27.0547 10.5859 28.1133 10.375 28.9805 10.375C29.6836 10.375 30.2773 10.5469 30.7617 10.8906C31.2773 11.2656 31.5352 11.7695 31.5352 12.4023C31.5352 13.3945 30.75 14.4922 29.1797 15.6953C28.9297 15.8906 28.7031 16.0547 28.5 16.1875L28.0781 16.4688C27.2969 17.0156 26.1094 17.6289 24.5156 18.3086C25.0078 18.5664 25.4648 18.6953 25.8867 18.6953C26.3164 18.6953 26.6992 18.6445 27.0352 18.543C27.3789 18.4414 27.7656 18.2969 28.1953 18.1094C28.625 17.9219 29.082 17.6992 29.5664 17.4414C30.0586 17.1758 30.5547 16.8867 31.0547 16.5742C32.1719 15.8789 33.1406 15.168 33.9609 14.4414C34.3906 14.043 34.9375 13.7266 35.6016 13.4922C35.8203 13.4219 36.0117 13.3867 36.1758 13.3867ZM23.25 16.6797L23.8945 16.3516C24.1055 16.2422 24.293 16.1406 24.457 16.0469C26.0352 15.1406 26.9336 14.582 27.1523 14.3711C27.3711 14.1602 27.4805 14.0156 27.4805 13.9375C27.4805 13.8516 27.457 13.7539 27.4102 13.6445C27.3633 13.5352 27.3008 13.4375 27.2227 13.3516C27.0352 13.1328 26.8359 13.0234 26.625 13.0234C26.4141 13.0234 26.1797 13.0625 25.9219 13.1406C25.6719 13.2188 25.418 13.3281 25.1602 13.4688C24.9023 13.6016 24.6523 13.7656 24.4102 13.9609C24.1758 14.1484 23.9688 14.3516 23.7891 14.5703C23.375 15.0625 23.168 15.4883 23.168 15.8477C23.168 16.207 23.1953 16.4844 23.25 16.6797ZM33.2812 18.1328C33.1328 18.1328 32.9883 18.0977 32.8477 18.0273C32.6992 17.957 32.5625 17.8438 32.4375 17.6875C32.1641 17.3438 32.0273 16.875 32.0273 16.2812C32.0273 15.6484 32.4062 14.8594 33.1641 13.9141C33.8984 13 34.7539 12.2109 35.7305 11.5469C36.7773 10.8281 37.6758 10.4688 38.4258 10.4688C39.0898 10.4688 39.5391 10.6562 39.7734 11.0312L39.9375 11.2891C40.0625 11.4844 40.1875 11.582 40.3125 11.582C40.4375 11.582 40.6328 11.5703 40.8984 11.5469L42.5625 11.4297C42.8203 11.4062 43.0234 11.3945 43.1719 11.3945C43.3203 11.3945 43.4883 11.4492 43.6758 11.5586C43.8711 11.6602 44.043 11.7969 44.1914 11.9688C44.5195 12.3594 44.6836 12.7891 44.6836 13.2578C44.6836 13.7422 44.1484 14.5039 43.0781 15.543L42.3047 16.3164C41.75 16.8867 41.4727 17.2461 41.4727 17.3945C41.4727 17.543 41.543 17.6758 41.6836 17.793C41.8242 17.9023 41.9766 17.957 42.1406 17.957C42.3047 17.957 42.4883 17.9141 42.6914 17.8281C42.9023 17.7344 43.1602 17.6016 43.4648 17.4297C43.7695 17.25 44.1172 17.0352 44.5078 16.7852C45.5781 16.082 46.293 15.5977 46.6523 15.332L47.625 14.6406C48.2891 14.1719 48.7617 13.9375 49.043 13.9375C49.3242 13.9375 49.5547 14 49.7344 14.125C49.9141 14.2422 50.0039 14.4492 50.0039 14.7461C50.0039 15.043 49.8516 15.4414 49.5469 15.9414C49.2422 16.4414 48.9102 16.875 48.5508 17.2422C48.1992 17.6094 47.8555 17.9492 47.5195 18.2617C47.1836 18.5742 46.7852 18.9141 46.3242 19.2812C45.8711 19.6406 45.3672 20.0078 44.8125 20.3828C44.2578 20.75 43.6719 21.082 43.0547 21.3789C41.6562 22.0586 40.3711 22.3984 39.1992 22.3984C37.4883 22.3984 36.4453 21.957 36.0703 21.0742C35.9531 20.8086 35.8945 20.5117 35.8945 20.1836C35.8945 19.8555 35.957 19.5039 36.082 19.1289C36.207 18.7461 36.3711 18.3672 36.5742 17.9922C36.9805 17.25 37.4609 16.5938 38.0156 16.0234C38.4844 15.5312 38.7188 15.2383 38.7188 15.1445C38.7188 14.9961 38.6328 14.9023 38.4609 14.8633C38.2969 14.8242 38.0508 14.8047 37.7227 14.8047C37.582 14.8047 37.2812 15.0078 36.8203 15.4141L35.6719 16.4688C34.4531 17.5781 33.6562 18.1328 33.2812 18.1328ZM58.043 8.45312C57.8164 8.64062 57.5703 8.79688 57.3047 8.92188C57.0391 9.03906 56.7422 9.09766 56.4141 9.09766C56.0859 9.09766 55.7695 9.04297 55.4648 8.93359C55.1602 8.82422 54.8945 8.67188 54.668 8.47656C54.1758 8.05469 53.9297 7.51562 53.9297 6.85938C53.9297 5.85156 54.7734 5.10156 56.4609 4.60938C57.0312 4.4375 57.5 4.35156 57.8672 4.35156C58.2344 4.35156 58.5078 4.39453 58.6875 4.48047C58.875 4.55859 59.0273 4.66406 59.1445 4.79688C59.3789 5.0625 59.4961 5.33594 59.4961 5.61719C59.4961 5.89062 59.4609 6.14063 59.3906 6.36719C59.3281 6.59375 59.2344 6.82812 59.1094 7.07031C58.9844 7.3125 58.832 7.55469 58.6523 7.79688C58.4727 8.03906 58.2695 8.25781 58.043 8.45312ZM55.0898 21.3555C54.4961 21.6602 53.918 21.9023 53.3555 22.082C52.793 22.2695 52.2383 22.3633 51.6914 22.3633C51.1523 22.3633 50.5898 22.2344 50.0039 21.9766C49.4258 21.7109 48.9102 21.3594 48.457 20.9219C47.4492 19.9453 46.9453 18.8594 46.9453 17.6641C46.9453 16.5625 47.2734 15.4453 47.9297 14.3125C48.5312 13.2891 49.2969 12.4297 50.2266 11.7344C51.1562 11.0391 52.0195 10.6914 52.8164 10.6914C53.957 10.6914 54.5664 11.0117 54.6445 11.6523C54.668 11.8477 54.6797 12.0742 54.6797 12.332C54.6797 12.5898 54.6172 12.8867 54.4922 13.2227C54.375 13.5508 54.2188 13.8828 54.0234 14.2188C53.8359 14.5469 53.625 14.8711 53.3906 15.1914C53.1641 15.5039 52.9453 15.7891 52.7344 16.0469C52.3281 16.5391 52.0039 16.8945 51.7617 17.1133C51.7617 17.3789 51.9609 17.6523 52.3594 17.9336C52.7344 18.1992 53.0508 18.332 53.3086 18.332C53.5742 18.332 53.8828 18.2695 54.2344 18.1445C54.5938 18.0195 54.9609 17.8516 55.3359 17.6406C55.7188 17.4297 56.1055 17.1875 56.4961 16.9141C56.8945 16.6406 57.2852 16.3594 57.668 16.0703L59.8125 14.3945C60.6641 13.7773 61.3555 13.4688 61.8867 13.4688C62.0977 13.4688 62.2578 13.5469 62.3672 13.7031C62.4844 13.8516 62.543 14.0273 62.543 14.2305C62.543 14.4336 62.4414 14.7148 62.2383 15.0742C62.0352 15.4258 61.7539 15.8164 61.3945 16.2461C61.043 16.6758 60.6289 17.125 60.1523 17.5938C59.6758 18.0625 59.1602 18.5234 58.6055 18.9766C58.0508 19.4297 57.4727 19.8633 56.8711 20.2773C56.2773 20.6836 55.6836 21.043 55.0898 21.3555ZM66.6562 20.1719C65.9141 20.5625 65.1562 20.8828 64.3828 21.1328C63.6172 21.375 62.8984 21.4961 62.2266 21.4961C61.5547 21.4961 60.7969 21.1914 59.9531 20.582C59.8281 21.2617 59.7148 21.9375 59.6133 22.6094C59.5039 23.2891 59.375 23.9375 59.2266 24.5547C59.0781 25.1719 58.8945 25.7461 58.6758 26.2773C58.4492 26.8086 58.1562 27.2656 57.7969 27.6484C57.0078 28.4844 55.9102 28.9023 54.5039 28.9023C54.2852 28.9023 54.1055 28.8203 53.9648 28.6562C53.7148 28.3594 53.6133 28.0195 53.6602 27.6367C53.707 27.2617 53.8555 26.7227 54.1055 26.0195C54.3555 25.3164 54.6719 24.5391 55.0547 23.6875C55.4375 22.8438 55.8672 21.9453 56.3438 20.9922L57.8555 18.1094C57.6836 17.7031 57.5977 17.3398 57.5977 17.0195C57.5977 16.6992 57.6523 16.3789 57.7617 16.0586C57.8711 15.7383 58.0234 15.4375 58.2188 15.1562C58.6641 14.4922 59.1602 14.1602 59.707 14.1602C59.8086 14.1602 59.9141 14.1719 60.0234 14.1953C62.0703 10.7266 63.2461 8.75 63.5508 8.26562L64.1953 7.25781C65.3984 5.48438 66.5391 4.42188 67.6172 4.07031C67.9844 3.95312 68.3594 3.89453 68.7422 3.89453C69.125 3.89453 69.4375 4.02734 69.6797 4.29297C69.9297 4.55859 70.0547 4.98047 70.0547 5.55859C70.0547 7.20703 69.1328 9.10156 67.2891 11.2422L64.2422 14.6172C63.7031 15.2031 63.1875 15.8047 62.6953 16.4219C62.9531 16.7188 63.1914 16.9766 63.4102 17.1953C63.6289 17.4062 63.8086 17.5117 63.9492 17.5117C64.0977 17.5117 64.3125 17.4648 64.5938 17.3711C64.875 17.2695 65.1953 17.1367 65.5547 16.9727C65.9219 16.8086 66.3125 16.6211 66.7266 16.4102C67.1406 16.1914 67.543 15.9688 67.9336 15.7422C68.793 15.2422 69.4102 14.832 69.7852 14.5117C70.4414 13.957 70.957 13.6797 71.332 13.6797C71.6055 13.6797 71.8047 13.7422 71.9297 13.8672C72.1328 14.0703 72.2344 14.3125 72.2344 14.5938C72.2344 14.8672 72.082 15.2539 71.7773 15.7539C71.4805 16.2461 71.0742 16.7539 70.5586 17.2773C70.0508 17.793 69.4609 18.3047 68.7891 18.8125C68.1172 19.3203 67.4062 19.7734 66.6562 20.1719ZM73.9688 17.0195C73.9688 17.3789 74.207 17.5586 74.6836 17.5586C75.6523 17.5586 77.3008 16.3516 79.6289 13.9375L80.7656 12.7891C81.5391 12.0312 82.0508 11.6523 82.3008 11.6523C82.5508 11.6523 82.7734 11.6953 82.9688 11.7812C83.1641 11.8672 83.3359 11.9766 83.4844 12.1094C83.7891 12.3828 83.9414 12.6758 83.9414 12.9883C83.9414 13.293 83.9062 13.6328 83.8359 14.0078C83.7734 14.375 83.6719 14.7891 83.5312 15.25C83.2734 16.1094 82.8086 17.2617 82.1367 18.707L81.6562 19.7383L83.6484 17.9336L87.7266 14.4414C88.1406 14.1289 88.4844 13.9727 88.7578 13.9727C89.3516 13.9727 89.6484 14.2578 89.6484 14.8281C89.6484 15.4141 89.2656 16.168 88.5 17.0898C88.2656 17.3789 88.0117 17.6484 87.7383 17.8984L84.9727 20.3008L79.582 24.8594C79.1055 25.2734 78.7461 25.6016 78.5039 25.8438C78.2148 26.3125 77.9883 26.6602 77.8242 26.8867C77.668 27.1211 77.5117 27.3672 77.3555 27.625C77.1992 27.8906 77.0469 28.1172 76.8984 28.3047C76.5781 28.7109 76.2578 28.9141 75.9375 28.9141C75.6016 28.9141 75.2773 28.7773 74.9648 28.5039C74.3867 27.9961 74.0977 27.543 74.0977 27.1445C74.0977 26.7461 74.207 26.2812 74.4258 25.75C74.6445 25.2266 74.9297 24.625 75.2812 23.9453L77.7656 19.3633C76.5703 20.4414 75.6328 21.1562 74.9531 21.5078C74.2734 21.8516 73.6992 22.0781 73.2305 22.1875C72.7695 22.3047 72.2773 22.3633 71.7539 22.3633C71.2383 22.3633 70.7852 22.2539 70.3945 22.0352C70.0039 21.8242 69.6797 21.5391 69.4219 21.1797C68.9219 20.4688 68.6719 19.543 68.6719 18.4023C68.6719 17.1914 68.9766 15.9961 69.5859 14.8164C70.1719 13.6602 70.9453 12.7305 71.9062 12.0273C72.9219 11.2773 73.9648 10.9023 75.0352 10.9023C76.1055 10.9023 76.6406 11.3203 76.6406 12.1562C76.6406 12.6797 76.1953 13.457 75.3047 14.4883C74.4141 15.5117 73.9688 16.3555 73.9688 17.0195ZM108.914 19.1523L108.938 18.3555C108.953 17.8555 109 17.3086 109.078 16.7148L109.266 15.332C109.305 15.0039 109.344 14.707 109.383 14.4414C108.641 15.2539 108.043 15.8867 107.59 16.3398L106.242 17.6523C103.227 20.4727 101.43 21.8828 100.852 21.8828C100 21.8828 99.1055 21.6992 98.168 21.332C97.6602 21.1289 97.3711 20.918 97.3008 20.6992C97.1914 20.4258 97.1367 20.0547 97.1367 19.5859C97.1367 19.1094 97.1523 18.6719 97.1836 18.2734C97.2148 17.875 97.2539 17.4805 97.3008 17.0898C97.3477 16.6914 97.3945 16.3125 97.4414 15.9531C97.4961 15.5859 97.5391 15.2656 97.5703 14.9922C97.6484 14.375 97.6641 14.0664 97.6172 14.0664L93.2578 19.4219C91.2031 21.8359 90.0352 23.1719 89.7539 23.4297C89.1523 23.9766 88.4883 24.25 87.7617 24.25C87.4023 24.25 87.1055 24.1602 86.8711 23.9805C86.6367 23.8008 86.5195 23.5781 86.5195 23.3125C86.5195 22.7812 86.7422 22.2266 87.1875 21.6484L97.5938 8.41797L98.8125 6.95312C100.266 5.24219 101.219 4.38672 101.672 4.38672C102.305 4.38672 102.906 4.54688 103.477 4.86719C103.984 5.14844 104.273 5.42187 104.344 5.6875C104.375 5.78906 104.309 6.26172 104.145 7.10547L103.734 9.32031C103.273 11.7891 103.043 13.3828 103.043 14.1016C103.043 14.8125 103.125 15.168 103.289 15.168C103.82 15.168 104.844 14.2969 106.359 12.5547L110.156 8.00781C110.992 7.04688 111.547 6.5 111.82 6.36719C111.898 6.32813 112.012 6.30859 112.16 6.30859C112.309 6.30859 112.473 6.32813 112.652 6.36719C112.84 6.40625 113.027 6.45703 113.215 6.51953C113.41 6.58203 113.598 6.65625 113.777 6.74219C113.957 6.82812 114.117 6.91797 114.258 7.01172C114.562 7.21484 114.711 7.38281 114.703 7.51562C114.703 7.64063 114.672 7.91797 114.609 8.34766C114.547 8.76953 114.469 9.28516 114.375 9.89453C113.727 13.9336 113.387 16.2773 113.355 16.9258C113.332 17.5742 113.398 17.9805 113.555 18.1445C113.719 18.3086 113.957 18.3906 114.27 18.3906C114.84 18.3906 115.668 18.0508 116.754 17.3711C117.488 16.9102 118.094 16.6797 118.57 16.6797C119.055 16.6797 119.297 16.9102 119.297 17.3711C119.297 17.8477 119.039 18.4258 118.523 19.1055C117.781 20.0898 116.672 20.9805 115.195 21.7773C113.953 22.4414 112.773 22.7734 111.656 22.7734C109.828 22.7734 108.914 21.5664 108.914 19.1523ZM122.273 21.6836C121.672 21.418 121.199 21.0859 120.855 20.6875C120.52 20.2891 120.297 19.9141 120.188 19.5625C120.016 19.0391 119.93 18.5898 119.93 18.2148C119.93 17.8398 120.051 17.4102 120.293 16.9258C120.543 16.4414 120.953 15.9609 121.523 15.4844C122.773 14.4453 124.691 13.5547 127.277 12.8125C126.449 12.4609 125.977 11.9023 125.859 11.1367C125.742 10.2617 126.117 9.48438 126.984 8.80469C128.586 7.54688 131.664 6.69531 136.219 6.25C137.625 6.11719 138.645 6.05078 139.277 6.05078C139.918 6.05078 140.371 6.15234 140.637 6.35547C140.91 6.55859 141.07 6.86328 141.117 7.26953C141.172 7.66797 141.098 8.00391 140.895 8.27734C140.691 8.55078 140.402 8.76953 140.027 8.93359C139.332 9.23828 138.383 9.39062 137.18 9.39062C136.297 9.39062 135.492 9.25781 134.766 8.99219C134.57 8.91406 134.418 8.83203 134.309 8.74609C132.746 9.23047 131.859 9.77344 131.648 10.375C131.586 10.5312 131.562 10.6758 131.578 10.8086C131.648 11.2852 131.961 11.6367 132.516 11.8633C133.07 12.0898 133.914 12.2344 135.047 12.2969C135.422 12.3281 135.699 12.4297 135.879 12.6016C136.066 12.7734 136.172 12.9531 136.195 13.1406C136.227 13.3281 136.215 13.4766 136.16 13.5859C136.105 13.6875 136.023 13.7734 135.914 13.8438C135.727 13.9688 135.355 14.0742 134.801 14.1602C134.246 14.2461 133.602 14.3672 132.867 14.5234C132.133 14.6719 131.434 14.832 130.77 15.0039C130.105 15.1758 129.488 15.3516 128.918 15.5312C128.355 15.7109 127.867 15.8828 127.453 16.0469C126.578 16.4141 126.156 16.7109 126.188 16.9375C126.219 17.1562 126.309 17.3477 126.457 17.5117C126.605 17.6758 126.805 17.8203 127.055 17.9453C127.523 18.1641 128.094 18.3047 128.766 18.3672C129.445 18.4219 130.102 18.4492 130.734 18.4492C131.375 18.4492 132.059 18.3984 132.785 18.2969C133.52 18.1875 134.203 18.0508 134.836 17.8867C135.477 17.7227 136.062 17.5508 136.594 17.3711C137.133 17.1836 137.602 17.0078 138 16.8438L138.961 16.4453C139.211 16.3359 139.438 16.2812 139.641 16.2812C140.18 16.2812 140.484 16.5664 140.555 17.1367C140.648 17.9102 139.781 18.7812 137.953 19.75C135.508 21.0547 132.805 21.9062 129.844 22.3047C129.156 22.3984 128.328 22.4453 127.359 22.4453C126.398 22.4453 125.461 22.3828 124.547 22.2578C123.633 22.1328 122.875 21.9414 122.273 21.6836Z" fill="#1A87EC"/>
<path d="M83.6814 36.128C83.8841 36.16 84.0681 36.2427 84.2334 36.376C84.4041 36.5093 84.5374 36.6747 84.6334 36.872C84.7348 37.0693 84.7854 37.28 84.7854 37.504C84.7854 37.7867 84.7134 38.0427 84.5694 38.272C84.4254 38.496 84.2148 38.6747 83.9374 38.808C83.6654 38.936 83.3428 39 82.9694 39H80.8894V33.424H82.8894C83.2681 33.424 83.5908 33.488 83.8574 33.616C84.1241 33.7387 84.3241 33.9067 84.4574 34.12C84.5908 34.3333 84.6574 34.5733 84.6574 34.84C84.6574 35.1707 84.5668 35.4453 84.3854 35.664C84.2094 35.8773 83.9748 36.032 83.6814 36.128ZM81.6174 35.832H82.8414C83.1828 35.832 83.4468 35.752 83.6334 35.592C83.8201 35.432 83.9134 35.2107 83.9134 34.928C83.9134 34.6453 83.8201 34.424 83.6334 34.264C83.4468 34.104 83.1774 34.024 82.8254 34.024H81.6174V35.832ZM82.9054 38.4C83.2681 38.4 83.5508 38.3147 83.7534 38.144C83.9561 37.9733 84.0574 37.736 84.0574 37.432C84.0574 37.1227 83.9508 36.88 83.7374 36.704C83.5241 36.5227 83.2388 36.432 82.8814 36.432H81.6174V38.4H82.9054ZM89.5717 34.616L86.9317 41.064H86.1797L87.0437 38.952L85.2757 34.616H86.0837L87.4597 38.168L88.8197 34.616H89.5717ZM95.8683 33.424V34.016H94.3483V39H93.6203V34.016H92.0923V33.424H95.8683ZM100.764 36.64C100.764 36.7787 100.756 36.9253 100.74 37.08H97.2364C97.2631 37.512 97.4098 37.8507 97.6764 38.096C97.9484 38.336 98.2764 38.456 98.6604 38.456C98.9751 38.456 99.2364 38.384 99.4444 38.24C99.6578 38.0907 99.8071 37.8933 99.8924 37.648H100.676C100.559 38.0693 100.324 38.4133 99.9724 38.68C99.6204 38.9413 99.1831 39.072 98.6604 39.072C98.2444 39.072 97.8711 38.9787 97.5404 38.792C97.2151 38.6053 96.9591 38.3413 96.7724 38C96.5858 37.6533 96.4924 37.2533 96.4924 36.8C96.4924 36.3467 96.5831 35.9493 96.7644 35.608C96.9458 35.2667 97.1991 35.0053 97.5244 34.824C97.8551 34.6373 98.2338 34.544 98.6604 34.544C99.0764 34.544 99.4444 34.6347 99.7644 34.816C100.084 34.9973 100.33 35.248 100.5 35.568C100.676 35.8827 100.764 36.24 100.764 36.64ZM100.012 36.488C100.012 36.2107 99.9511 35.9733 99.8284 35.776C99.7058 35.5733 99.5378 35.4213 99.3244 35.32C99.1164 35.2133 98.8844 35.16 98.6284 35.16C98.2604 35.16 97.9458 35.2773 97.6844 35.512C97.4284 35.7467 97.2818 36.072 97.2444 36.488H100.012ZM101.453 36.8C101.453 36.3467 101.544 35.952 101.725 35.616C101.907 35.2747 102.157 35.0107 102.477 34.824C102.803 34.6373 103.173 34.544 103.589 34.544C104.128 34.544 104.571 34.6747 104.917 34.936C105.269 35.1973 105.501 35.56 105.613 36.024H104.829C104.755 35.7573 104.608 35.5467 104.389 35.392C104.176 35.2373 103.909 35.16 103.589 35.16C103.173 35.16 102.837 35.304 102.581 35.592C102.325 35.8747 102.197 36.2773 102.197 36.8C102.197 37.328 102.325 37.736 102.581 38.024C102.837 38.312 103.173 38.456 103.589 38.456C103.909 38.456 104.176 38.3813 104.389 38.232C104.603 38.0827 104.749 37.8693 104.829 37.592H105.613C105.496 38.04 105.261 38.4 104.909 38.672C104.557 38.9387 104.117 39.072 103.589 39.072C103.173 39.072 102.803 38.9787 102.477 38.792C102.157 38.6053 101.907 38.3413 101.725 38C101.544 37.6587 101.453 37.2587 101.453 36.8ZM108.761 34.536C109.091 34.536 109.39 34.608 109.657 34.752C109.923 34.8907 110.131 35.1013 110.281 35.384C110.435 35.6667 110.513 36.0107 110.513 36.416V39H109.793V36.52C109.793 36.0827 109.683 35.7493 109.465 35.52C109.246 35.2853 108.947 35.168 108.569 35.168C108.185 35.168 107.878 35.288 107.649 35.528C107.425 35.768 107.313 36.1173 107.313 36.576V39H106.585V33.08H107.313V35.24C107.457 35.016 107.654 34.8427 107.905 34.72C108.161 34.5973 108.446 34.536 108.761 34.536ZM116.182 39.304V39.976H111.926V39.304H116.182ZM120.865 37.76H118.433L117.985 39H117.217L119.233 33.456H120.073L122.081 39H121.313L120.865 37.76ZM120.657 37.168L119.649 34.352L118.641 37.168H120.657ZM125.981 35.216V37.8C125.981 38.0133 126.026 38.1653 126.117 38.256C126.207 38.3413 126.365 38.384 126.589 38.384H127.125V39H126.469C126.063 39 125.759 38.9067 125.557 38.72C125.354 38.5333 125.253 38.2267 125.253 37.8V35.216H124.685V34.616H125.253V33.512H125.981V34.616H127.125V35.216H125.981ZM132.007 36.64C132.007 36.7787 131.999 36.9253 131.983 37.08H128.479C128.505 37.512 128.652 37.8507 128.919 38.096C129.191 38.336 129.519 38.456 129.903 38.456C130.217 38.456 130.479 38.384 130.687 38.24C130.9 38.0907 131.049 37.8933 131.135 37.648H131.919C131.801 38.0693 131.567 38.4133 131.215 38.68C130.863 38.9413 130.425 39.072 129.903 39.072C129.487 39.072 129.113 38.9787 128.783 38.792C128.457 38.6053 128.201 38.3413 128.015 38C127.828 37.6533 127.735 37.2533 127.735 36.8C127.735 36.3467 127.825 35.9493 128.007 35.608C128.188 35.2667 128.441 35.0053 128.767 34.824C129.097 34.6373 129.476 34.544 129.903 34.544C130.319 34.544 130.687 34.6347 131.007 34.816C131.327 34.9973 131.572 35.248 131.743 35.568C131.919 35.8827 132.007 36.24 132.007 36.64ZM131.255 36.488C131.255 36.2107 131.193 35.9733 131.071 35.776C130.948 35.5733 130.78 35.4213 130.567 35.32C130.359 35.2133 130.127 35.16 129.871 35.16C129.503 35.16 129.188 35.2773 128.927 35.512C128.671 35.7467 128.524 36.072 128.487 36.488H131.255ZM132.696 36.792C132.696 36.344 132.786 35.952 132.968 35.616C133.149 35.2747 133.397 35.0107 133.712 34.824C134.032 34.6373 134.386 34.544 134.776 34.544C135.16 34.544 135.493 34.6267 135.776 34.792C136.058 34.9573 136.269 35.1653 136.408 35.416V34.616H137.144V39H136.408V38.184C136.264 38.44 136.048 38.6533 135.76 38.824C135.477 38.9893 135.146 39.072 134.768 39.072C134.378 39.072 134.026 38.976 133.712 38.784C133.397 38.592 133.149 38.3227 132.968 37.976C132.786 37.6293 132.696 37.2347 132.696 36.792ZM136.408 36.8C136.408 36.4693 136.341 36.1813 136.208 35.936C136.074 35.6907 135.893 35.504 135.664 35.376C135.44 35.2427 135.192 35.176 134.92 35.176C134.648 35.176 134.4 35.24 134.176 35.368C133.952 35.496 133.773 35.6827 133.64 35.928C133.506 36.1733 133.44 36.4613 133.44 36.792C133.44 37.128 133.506 37.4213 133.64 37.672C133.773 37.9173 133.952 38.1067 134.176 38.24C134.4 38.368 134.648 38.432 134.92 38.432C135.192 38.432 135.44 38.368 135.664 38.24C135.893 38.1067 136.074 37.9173 136.208 37.672C136.341 37.4213 136.408 37.1307 136.408 36.8ZM143.646 34.536C143.987 34.536 144.291 34.608 144.558 34.752C144.824 34.8907 145.035 35.1013 145.19 35.384C145.344 35.6667 145.422 36.0107 145.422 36.416V39H144.702V36.52C144.702 36.0827 144.592 35.7493 144.374 35.52C144.16 35.2853 143.87 35.168 143.502 35.168C143.123 35.168 142.822 35.2907 142.598 35.536C142.374 35.776 142.262 36.1253 142.262 36.584V39H141.542V36.52C141.542 36.0827 141.432 35.7493 141.214 35.52C141 35.2853 140.71 35.168 140.342 35.168C139.963 35.168 139.662 35.2907 139.438 35.536C139.214 35.776 139.102 36.1253 139.102 36.584V39H138.374V34.616H139.102V35.248C139.246 35.0187 139.438 34.8427 139.678 34.72C139.923 34.5973 140.192 34.536 140.486 34.536C140.854 34.536 141.179 34.6187 141.462 34.784C141.744 34.9493 141.955 35.192 142.094 35.512C142.216 35.2027 142.419 34.9627 142.702 34.792C142.984 34.6213 143.299 34.536 143.646 34.536Z" fill="#707070"/>
</svg>
