<svg width="24" height="24" viewBox="0 0 24 24" fill="none" xmlns="http://www.w3.org/2000/svg">
<g clip-path="url(#clip0_1199_9176)">
<path d="M9.78596 9.8732C8.89434 9.8732 8.02276 9.60872 7.2815 9.11322C6.54024 8.61773 5.96261 7.91349 5.62171 7.08962C5.28081 6.26574 5.19195 5.35926 5.36638 4.48487C5.54081 3.61048 5.9707 2.80748 6.60163 2.17748C7.23257 1.54748 8.0362 1.11879 8.91085 0.945648C9.78549 0.772511 10.6918 0.86271 11.5152 1.20483C12.3386 1.54695 13.042 2.12562 13.5364 2.86761C14.0308 3.60961 14.2939 4.48158 14.2926 5.3732C14.2891 6.56674 13.813 7.7103 12.9684 8.55364C12.1238 9.39698 10.9795 9.87144 9.78596 9.8732ZM9.78596 2.19987C9.15833 2.19987 8.5448 2.38598 8.02295 2.73467C7.5011 3.08336 7.09437 3.57897 6.85418 4.15882C6.614 4.73867 6.55116 5.37672 6.6736 5.99229C6.79605 6.60785 7.09828 7.17329 7.54208 7.61708C7.98587 8.06088 8.55131 8.36311 9.16687 8.48556C9.78244 8.608 10.4205 8.54516 11.0003 8.30498C11.5802 8.06479 12.0758 7.65806 12.4245 7.13621C12.7732 6.61436 12.9593 6.00082 12.9593 5.3732C12.9593 4.53158 12.625 3.72443 12.0298 3.12931C11.4347 2.5342 10.6276 2.19987 9.78596 2.19987Z" fill="black"/>
<path d="M10.9473 21.1199C10.8016 20.9741 10.6892 20.7985 10.6179 20.6052C10.5465 20.4118 10.5179 20.2053 10.534 19.9999H2.66732V16.1465C3.61233 15.1375 4.75882 14.3384 6.03247 13.8009C7.30612 13.2635 8.6785 12.9996 10.0607 13.0265H10.5407C10.5101 12.803 10.5314 12.5754 10.6031 12.3615C10.6748 12.1476 10.7949 11.9531 10.954 11.7932L11.034 11.7199C10.7207 11.7199 10.3673 11.6799 10.0607 11.6799C8.43425 11.6412 6.8196 11.9645 5.33343 12.6263C3.84727 13.2881 2.52674 14.2719 1.46732 15.5065C1.38077 15.6219 1.33398 15.7623 1.33398 15.9065V19.9999C1.33398 20.3535 1.47446 20.6926 1.72451 20.9427C1.97456 21.1927 2.3137 21.3332 2.66732 21.3332H11.134L10.9473 21.1199Z" fill="black"/>
<path d="M22.4542 15.5465L21.1208 15.1398C21.0256 14.8137 20.896 14.4986 20.7342 14.1998L21.4008 12.9598C21.4225 12.9102 21.4277 12.855 21.4157 12.8022C21.4037 12.7494 21.3752 12.7018 21.3342 12.6665L20.3675 11.6998C20.3309 11.6602 20.2821 11.6341 20.2289 11.6257C20.1757 11.6172 20.1212 11.6269 20.0742 11.6532L18.8475 12.3198C18.5458 12.1493 18.226 12.0129 17.8942 11.9132L17.4875 10.5798C17.4702 10.5307 17.4375 10.4886 17.3942 10.4597C17.3509 10.4309 17.2994 10.4169 17.2475 10.4198H15.8808C15.8283 10.4192 15.7771 10.4358 15.7349 10.4671C15.6928 10.4985 15.6621 10.5427 15.6475 10.5932L15.2408 11.9265C14.9069 12.0236 14.5849 12.1578 14.2808 12.3265L13.0675 11.6598C13.0215 11.6341 12.9681 11.6246 12.916 11.6331C12.864 11.6416 12.8163 11.6675 12.7808 11.7065L11.7942 12.6665C11.7576 12.705 11.734 12.7541 11.7268 12.8067C11.7197 12.8593 11.7292 12.9129 11.7542 12.9598L12.4208 14.1732C12.2447 14.4737 12.1037 14.7936 12.0008 15.1265L10.6675 15.5265C10.6171 15.5411 10.5728 15.5718 10.5415 15.6139C10.5102 15.6561 10.4935 15.7073 10.4942 15.7598V17.1265C10.4981 17.1746 10.5169 17.2204 10.5479 17.2574C10.579 17.2944 10.6208 17.3209 10.6675 17.3332L12.0008 17.7398C12.0994 18.0668 12.2335 18.3821 12.4008 18.6798L11.7342 19.9532C11.7087 19.9988 11.6989 20.0515 11.7061 20.1032C11.7133 20.1549 11.7372 20.2029 11.7742 20.2398L12.7408 21.2065C12.7786 21.2442 12.8273 21.2689 12.8799 21.2773C12.9326 21.2857 12.9866 21.2772 13.0342 21.2532L14.2808 20.5865C14.5773 20.7465 14.8902 20.8739 15.2142 20.9665L15.6142 22.2998C15.6306 22.3492 15.6617 22.3923 15.7035 22.4233C15.7452 22.4543 15.7955 22.4717 15.8475 22.4732H17.2142C17.2664 22.4727 17.3171 22.4557 17.3591 22.4245C17.401 22.3934 17.432 22.3497 17.4475 22.2998L17.8542 20.9332C18.1735 20.8396 18.4819 20.7123 18.7742 20.5532L20.0342 21.2198C20.0805 21.2444 20.1336 21.2532 20.1854 21.2448C20.2371 21.2363 20.2847 21.2112 20.3208 21.1732L21.3342 20.2665C21.3614 20.2274 21.376 20.1808 21.376 20.1332C21.376 20.0855 21.3614 20.0389 21.3342 19.9998L20.6675 18.7465C20.8293 18.4524 20.959 18.1417 21.0542 17.8198L22.3875 17.4132C22.4379 17.3986 22.4822 17.3679 22.5135 17.3257C22.5448 17.2836 22.5614 17.2323 22.5608 17.1798V15.7798C22.5669 15.7348 22.5602 15.689 22.5413 15.6477C22.5224 15.6064 22.4922 15.5713 22.4542 15.5465ZM16.5675 18.6665C16.1265 18.6678 15.6951 18.5382 15.3279 18.294C14.9607 18.0498 14.6743 17.7022 14.5049 17.295C14.3356 16.8879 14.2909 16.4396 14.3766 16.0071C14.4623 15.5745 14.6745 15.1771 14.9863 14.8653C15.2981 14.5535 15.6955 14.3413 16.1281 14.2556C16.5606 14.1699 17.0089 14.2146 17.416 14.3839C17.8232 14.5533 18.1708 14.8397 18.415 15.2069C18.6592 15.5741 18.7888 16.0055 18.7875 16.4465C18.7857 17.0347 18.5513 17.5984 18.1353 18.0143C17.7194 18.4303 17.1557 18.6647 16.5675 18.6665Z" fill="black"/>
</g>
<defs>
<clipPath id="clip0_1199_9176">
<rect width="24" height="24" fill="white"/>
</clipPath>
</defs>
</svg>
