<svg width="32" height="32" viewBox="0 0 32 32" fill="none" xmlns="http://www.w3.org/2000/svg">
<path d="M20.0007 22.6667H26.6673L24.794 20.7933C24.5423 20.5418 24.3427 20.2431 24.2065 19.9143C24.0704 19.5856 24.0004 19.2332 24.0006 18.8773V14.6667C24.0012 13.0118 23.4886 11.3975 22.5334 10.0462C21.5783 8.69483 20.2275 7.67295 18.6673 7.12133V6.66667C18.6673 5.95942 18.3864 5.28115 17.8863 4.78105C17.3862 4.28095 16.7079 4 16.0007 4C15.2934 4 14.6151 4.28095 14.115 4.78105C13.6149 5.28115 13.334 5.95942 13.334 6.66667V7.12133C10.2273 8.22 8.00065 11.184 8.00065 14.6667V18.8787C8.00065 19.596 7.71532 20.2853 7.20732 20.7933L5.33398 22.6667H12.0007M20.0007 22.6667V24C20.0007 25.0609 19.5792 26.0783 18.8291 26.8284C18.0789 27.5786 17.0615 28 16.0007 28C14.9398 28 13.9224 27.5786 13.1722 26.8284C12.4221 26.0783 12.0007 25.0609 12.0007 24V22.6667M20.0007 22.6667H12.0007" stroke="#ADADAD" stroke-width="2" stroke-linecap="round" stroke-linejoin="round"/>
</svg>
