<svg width="35" height="35" viewBox="0 0 35 35" fill="none" xmlns="http://www.w3.org/2000/svg">
<rect x="0.5" y="0.5" width="34" height="34" rx="17" stroke="#E2E2E2"/>
<g clip-path="url(#clip0_2229_16656)">
<path d="M10.9688 26C10.4466 26 9.94585 25.7926 9.57663 25.4234C9.20742 25.0542 9 24.5534 9 24.0312V9.96875C9 8.882 9.882 8 10.9688 8H20.5312C21.618 8 22.5 8.882 22.5 9.96875V24.0312C22.5 24.1265 22.4933 24.2202 22.4798 24.3125H25.0312C25.1058 24.3125 25.1774 24.2829 25.2301 24.2301C25.2829 24.1774 25.3125 24.1058 25.3125 24.0312V17.3206C25.3125 17.2744 25.3012 17.2288 25.2794 17.188C25.2576 17.1472 25.2261 17.1123 25.1876 17.0866L24.0007 16.2957C23.9086 16.2343 23.8294 16.1553 23.7677 16.0632C23.7061 15.9712 23.6632 15.8679 23.6414 15.7592C23.6197 15.6506 23.6196 15.5387 23.6411 15.43C23.6626 15.3213 23.7053 15.2179 23.7668 15.1258C23.8282 15.0336 23.9072 14.9544 23.9993 14.8927C24.0913 14.8311 24.1946 14.7882 24.3033 14.7664C24.4119 14.7447 24.5238 14.7446 24.6325 14.7661C24.7412 14.7876 24.8446 14.8303 24.9368 14.8917L26.1236 15.6826C26.6715 16.0483 27 16.6625 27 17.3206V24.0312C27 24.5534 26.7926 25.0542 26.4234 25.4234C26.0542 25.7926 25.5534 26 25.0312 26H21.0938C21.0189 25.9995 20.9445 25.9897 20.8721 25.9708C20.7611 25.9902 20.6475 26 20.5312 26H17.1562C16.9325 26 16.7179 25.9111 16.5596 25.7529C16.4014 25.5946 16.3125 25.38 16.3125 25.1562V23.75H15.1875V25.1562C15.1875 25.38 15.0986 25.5946 14.9404 25.7529C14.7821 25.9111 14.5675 26 14.3438 26H10.9688ZM10.6875 24.0312C10.6875 24.1865 10.8135 24.3125 10.9688 24.3125H13.5V22.9062C13.5 22.6825 13.5889 22.4679 13.7471 22.3096C13.9054 22.1514 14.12 22.0625 14.3438 22.0625H17.1562C17.38 22.0625 17.5946 22.1514 17.7529 22.3096C17.9111 22.4679 18 22.6825 18 22.9062V24.3125H20.5312C20.6058 24.3125 20.6774 24.2829 20.7301 24.2301C20.7829 24.1774 20.8125 24.1058 20.8125 24.0312V9.96875C20.8125 9.89416 20.7829 9.82262 20.7301 9.76988C20.6774 9.71713 20.6058 9.6875 20.5312 9.6875H10.9688C10.8942 9.6875 10.8226 9.71713 10.7699 9.76988C10.7171 9.82262 10.6875 9.89416 10.6875 9.96875V24.0312ZM13.2188 14.75H13.7812C14.005 14.75 14.2196 14.8389 14.3779 14.9971C14.5361 15.1554 14.625 15.37 14.625 15.5938C14.625 15.8175 14.5361 16.0321 14.3779 16.1904C14.2196 16.3486 14.005 16.4375 13.7812 16.4375H13.2188C12.995 16.4375 12.7804 16.3486 12.6221 16.1904C12.4639 16.0321 12.375 15.8175 12.375 15.5938C12.375 15.37 12.4639 15.1554 12.6221 14.9971C12.7804 14.8389 12.995 14.75 13.2188 14.75ZM12.375 12.2188C12.375 11.995 12.4639 11.7804 12.6221 11.6221C12.7804 11.4639 12.995 11.375 13.2188 11.375H13.7812C14.005 11.375 14.2196 11.4639 14.3779 11.6221C14.5361 11.7804 14.625 11.995 14.625 12.2188C14.625 12.4425 14.5361 12.6571 14.3779 12.8154C14.2196 12.9736 14.005 13.0625 13.7812 13.0625H13.2188C12.995 13.0625 12.7804 12.9736 12.6221 12.8154C12.4639 12.6571 12.375 12.4425 12.375 12.2188ZM16.875 15.5938C16.875 15.37 16.9639 15.1554 17.1221 14.9971C17.2804 14.8389 17.495 14.75 17.7188 14.75H18.2812C18.505 14.75 18.7196 14.8389 18.8779 14.9971C19.0361 15.1554 19.125 15.37 19.125 15.5938C19.125 15.8175 19.0361 16.0321 18.8779 16.1904C18.7196 16.3486 18.505 16.4375 18.2812 16.4375H17.7188C17.495 16.4375 17.2804 16.3486 17.1221 16.1904C16.9639 16.0321 16.875 15.8175 16.875 15.5938ZM17.7188 11.375H18.2812C18.505 11.375 18.7196 11.4639 18.8779 11.6221C19.0361 11.7804 19.125 11.995 19.125 12.2188C19.125 12.4425 19.0361 12.6571 18.8779 12.8154C18.7196 12.9736 18.505 13.0625 18.2812 13.0625H17.7188C17.495 13.0625 17.2804 12.9736 17.1221 12.8154C16.9639 12.6571 16.875 12.4425 16.875 12.2188C16.875 11.995 16.9639 11.7804 17.1221 11.6221C17.2804 11.4639 17.495 11.375 17.7188 11.375ZM12.375 18.9688C12.375 18.745 12.4639 18.5304 12.6221 18.3721C12.7804 18.2139 12.995 18.125 13.2188 18.125H13.7812C14.005 18.125 14.2196 18.2139 14.3779 18.3721C14.5361 18.5304 14.625 18.745 14.625 18.9688C14.625 19.1925 14.5361 19.4071 14.3779 19.5654C14.2196 19.7236 14.005 19.8125 13.7812 19.8125H13.2188C12.995 19.8125 12.7804 19.7236 12.6221 19.5654C12.4639 19.4071 12.375 19.1925 12.375 18.9688ZM17.7188 18.125H18.2812C18.505 18.125 18.7196 18.2139 18.8779 18.3721C19.0361 18.5304 19.125 18.745 19.125 18.9688C19.125 19.1925 19.0361 19.4071 18.8779 19.5654C18.7196 19.7236 18.505 19.8125 18.2812 19.8125H17.7188C17.495 19.8125 17.2804 19.7236 17.1221 19.5654C16.9639 19.4071 16.875 19.1925 16.875 18.9688C16.875 18.745 16.9639 18.5304 17.1221 18.3721C17.2804 18.2139 17.495 18.125 17.7188 18.125Z" fill="black"/>
</g>
<defs>
<clipPath id="clip0_2229_16656">
<rect width="18" height="18" fill="white" transform="translate(9 8)"/>
</clipPath>
</defs>
</svg>
