<svg width="24" height="24" viewBox="0 0 24 24" fill="none" xmlns="http://www.w3.org/2000/svg">
<path d="M2.79758 21.5672C2.33016 21.5672 1.96116 21.4169 1.69058 21.1164C1.44116 20.8386 1.30687 20.4744 1.28773 20.0235L1.28516 19.9091V3.80164C1.28516 3.29135 1.4203 2.8875 1.69058 2.59007C1.94001 2.31521 2.27358 2.16721 2.6913 2.14607L2.79801 2.14307H14.2867C14.7482 2.14307 15.1142 2.29192 15.3847 2.58964C15.6342 2.86392 15.7684 3.22921 15.7876 3.68549L15.7897 3.80121V6.62549H21.2112C21.6369 6.62549 21.9813 6.75364 22.2444 7.00992L22.3087 7.07678C22.5584 7.35392 22.6927 7.71807 22.7116 8.16921L22.7142 8.28364V19.9091C22.7142 20.4131 22.579 20.8155 22.3087 21.1164C22.0593 21.3935 21.7283 21.5429 21.3157 21.5646L21.2107 21.5672H2.79758ZM15.7893 19.9091C15.7893 19.9748 15.787 20.0386 15.7824 20.1006H20.7273C20.9036 20.1006 21.0343 20.0581 21.1194 19.9729C21.1923 19.8998 21.2339 19.7912 21.2442 19.6472L21.2472 19.5722V8.62092C21.2472 8.43864 21.2046 8.30492 21.1194 8.21978C21.0466 8.14692 20.9402 8.10535 20.8002 8.09507L20.7273 8.09249L15.7893 8.09207V19.9091ZM13.8037 3.61007H3.28058C3.0983 3.61007 2.96458 3.6525 2.87944 3.73735C2.80658 3.81049 2.76501 3.91907 2.75473 4.06307L2.75216 4.13849V19.5722C2.75216 19.7542 2.79458 19.8878 2.87944 19.9729C2.95258 20.0458 3.06116 20.0874 3.20516 20.0976L3.28058 20.1006L5.36644 20.1002V17.4131C5.36644 17.0539 5.44073 16.7815 5.5893 16.5958L5.63558 16.5426C5.79844 16.3741 6.04044 16.2822 6.36158 16.2671L6.46016 16.2649H10.6147C10.991 16.2649 11.2673 16.3575 11.4436 16.5426C11.6039 16.7112 11.6913 16.9662 11.7059 17.3076L11.708 17.4126L11.7076 20.1002H13.8033C13.9796 20.1002 14.1102 20.0578 14.195 19.9729C14.2679 19.8998 14.3096 19.7912 14.3202 19.6472L14.3227 19.5722V4.13849C14.3227 3.95621 14.2802 3.82249 14.195 3.73735C14.1102 3.6525 13.98 3.61007 13.8037 3.61007ZM10.223 17.4585H6.85187C6.6753 17.4585 6.57887 17.5388 6.56258 17.6994L6.56044 17.7499L6.56001 20.1002H10.514V17.7499C10.514 17.5734 10.4339 17.4769 10.2736 17.4606L10.223 17.4585ZM19.2517 16.5564C19.4409 16.5564 19.5433 16.6431 19.559 16.8165L19.5612 16.8662V18.2874C19.5612 18.4768 19.4744 18.5794 19.301 18.5951L19.2517 18.5972H17.7847C17.6013 18.5972 17.5017 18.5105 17.486 18.3371L17.4843 18.2874V16.8662C17.4843 16.6768 17.5686 16.5742 17.7372 16.5585L17.7847 16.5564H19.2517ZM19.2517 13.0764C19.4409 13.0764 19.5433 13.1631 19.559 13.3365L19.5612 13.3858V14.8069C19.5612 14.9964 19.4744 15.0989 19.301 15.1146L19.2517 15.1168H17.7847C17.6013 15.1168 17.5017 15.0301 17.486 14.8566L17.4843 14.8069V13.3858C17.4843 13.1964 17.5686 13.0938 17.7372 13.0781L17.7847 13.0759L19.2517 13.0764ZM7.28901 12.3379C7.5193 12.3379 7.64316 12.4441 7.66058 12.6564L7.66273 12.7116V14.4336C7.66273 14.6634 7.55658 14.7871 7.3443 14.8048L7.28901 14.8069H5.51258C5.29401 14.8069 5.1763 14.7009 5.15944 14.4889L5.1573 14.4332V12.7116C5.1573 12.4819 5.25816 12.3581 5.45987 12.3401L5.51258 12.3379H7.28901ZM11.5533 12.3379C11.783 12.3379 11.9067 12.4441 11.9244 12.6564L11.9266 12.7116V14.4336C11.9266 14.6634 11.8204 14.7871 11.6082 14.8048L11.5529 14.8069H9.78544C9.56116 14.8069 9.44044 14.7009 9.4233 14.4889L9.42116 14.4332V12.7116C9.42116 12.4819 9.52458 12.3581 9.73144 12.3401L9.78544 12.3379H11.5533ZM19.2517 9.59549C19.4409 9.59549 19.5433 9.68235 19.559 9.85607L19.5612 9.90535V11.3269C19.5612 11.5161 19.4744 11.6185 19.301 11.6342L19.2517 11.6364H17.7847C17.6013 11.6364 17.5017 11.5496 17.486 11.3762L17.4843 11.3269V9.90535C17.4843 9.71649 17.5686 9.61392 17.7372 9.59764L17.7847 9.59549H19.2517ZM7.28901 8.72978C7.5193 8.72978 7.64316 8.83607 7.66058 9.04864L7.66273 9.10349V10.8255C7.66273 11.0558 7.55658 11.1796 7.3443 11.1971L7.28901 11.1992H5.51258C5.29401 11.1992 5.1763 11.0931 5.15944 10.8808L5.1573 10.8255V9.10349C5.1573 8.87378 5.25816 8.75007 5.45987 8.73235L5.51258 8.73021L7.28901 8.72978ZM11.5533 8.72978C11.783 8.72978 11.9067 8.83607 11.9244 9.04864L11.9266 9.10349V10.8255C11.9266 11.0558 11.8204 11.1796 11.6082 11.1971L11.5529 11.1992H9.78544C9.56116 11.1992 9.44044 11.0931 9.4233 10.8808L9.42116 10.8255V9.10349C9.42116 8.87378 9.52458 8.75007 9.73144 8.73235L9.78544 8.73021L11.5533 8.72978ZM7.28901 5.12249C7.5193 5.12249 7.64316 5.22849 7.66058 5.44049L7.66273 5.49621V7.21778C7.66273 7.44749 7.55658 7.57121 7.3443 7.58892L7.28901 7.59149H5.51258C5.29401 7.59149 5.1763 7.48535 5.15944 7.27307L5.1573 7.21778V5.49578C5.1573 5.26607 5.25816 5.14235 5.45987 5.12464L5.51258 5.12249H7.28901ZM11.5533 5.12249C11.783 5.12249 11.9067 5.22849 11.9244 5.44049L11.9266 5.49621V7.21778C11.9266 7.44749 11.8204 7.57121 11.6082 7.58892L11.5529 7.59149H9.78544C9.56116 7.59149 9.44044 7.48535 9.4233 7.27307L9.42116 7.21778V5.49578C9.42116 5.26607 9.52458 5.14235 9.73144 5.12464L9.78544 5.12249H11.5533Z" fill="black"/>
</svg>
