<svg width="35" height="35" viewBox="0 0 35 35" fill="none" xmlns="http://www.w3.org/2000/svg">
<rect x="0.5" y="0.5" width="34" height="34" rx="17" stroke="#E2E2E2"/>
<path d="M28 10V24C28 24.55 27.8043 25.021 27.413 25.413C27.0217 25.805 26.5507 26.0007 26 26H23C22.7167 26 22.4793 25.904 22.288 25.712C22.0967 25.52 22.0007 25.2827 22 25C21.9993 24.7173 22.0953 24.48 22.288 24.288C22.4807 24.096 22.718 24 23 24H26V10H17V10.5C17 10.7833 16.904 11.021 16.712 11.213C16.52 11.405 16.2827 11.5007 16 11.5C15.7173 11.4993 15.48 11.4033 15.288 11.212C15.096 11.0207 15 10.7833 15 10.5V9.95C15 9.41667 15.1917 8.95833 15.575 8.575C15.9583 8.19167 16.4167 8 16.95 8H26C26.55 8 27.021 8.196 27.413 8.588C27.805 8.98 28.0007 9.45067 28 10ZM6 17.025C6 16.6917 6.075 16.3833 6.225 16.1C6.375 15.8167 6.58333 15.5833 6.85 15.4L11.85 11.825C12.0333 11.6917 12.221 11.5957 12.413 11.537C12.605 11.4783 12.8007 11.4493 13 11.45C13.1993 11.4507 13.3953 11.48 13.588 11.538C13.7807 11.596 13.968 11.6917 14.15 11.825L19.15 15.4C19.4167 15.5833 19.625 15.8167 19.775 16.1C19.925 16.3833 20 16.6917 20 17.025V24C20 24.55 19.8043 25.021 19.413 25.413C19.0217 25.805 18.5507 26.0007 18 26H16C15.45 26 14.9793 25.8043 14.588 25.413C14.1967 25.0217 14.0007 24.5507 14 24V21H12V24C12 24.55 11.8043 25.021 11.413 25.413C11.0217 25.805 10.5507 26.0007 10 26H8C7.45 26 6.97933 25.8043 6.588 25.413C6.19667 25.0217 6.00067 24.5507 6 24V17.025ZM8 17V24H10V21C10 20.45 10.196 19.9793 10.588 19.588C10.98 19.1967 11.4507 19.0007 12 19H14C14.55 19 15.021 19.196 15.413 19.588C15.805 19.98 16.0007 20.4507 16 21V24H18V17L13 13.45L8 17ZM22.5 14H23.5C23.6333 14 23.75 13.95 23.85 13.85C23.95 13.75 24 13.6333 24 13.5V12.5C24 12.3667 23.95 12.25 23.85 12.15C23.75 12.05 23.6333 12 23.5 12H22.5C22.3667 12 22.25 12.05 22.15 12.15C22.05 12.25 22 12.3667 22 12.5V13.5C22 13.6333 22.05 13.75 22.15 13.85C22.25 13.95 22.3667 14 22.5 14ZM22.5 18H23.5C23.6333 18 23.75 17.95 23.85 17.85C23.95 17.75 24 17.6333 24 17.5V16.5C24 16.3667 23.95 16.25 23.85 16.15C23.75 16.05 23.6333 16 23.5 16H22.5C22.3667 16 22.25 16.05 22.15 16.15C22.05 16.25 22 16.3667 22 16.5V17.5C22 17.6333 22.05 17.75 22.15 17.85C22.25 17.95 22.3667 18 22.5 18ZM22.5 22H23.5C23.6333 22 23.75 21.95 23.85 21.85C23.95 21.75 24 21.6333 24 21.5V20.5C24 20.3667 23.95 20.25 23.85 20.15C23.75 20.05 23.6333 20 23.5 20H22.5C22.3667 20 22.25 20.05 22.15 20.15C22.05 20.25 22 20.3667 22 20.5V21.5C22 21.6333 22.05 21.75 22.15 21.85C22.25 21.95 22.3667 22 22.5 22Z" fill="black"/>
</svg>
