<svg width="35" height="35" viewBox="0 0 35 35" fill="none" xmlns="http://www.w3.org/2000/svg">
<g clip-path="url(#clip0_2229_16628)">
<path fill-rule="evenodd" clip-rule="evenodd" d="M22.2414 25.9974C20.9432 25.9497 17.264 25.4413 13.4109 21.5899C9.55871 17.7376 9.05115 14.0601 9.00247 12.7613C8.93035 10.7819 10.4467 8.85938 12.1984 8.10856C12.4093 8.0175 12.6403 7.98282 12.8687 8.00795C13.0971 8.03307 13.315 8.11713 13.5011 8.25187C14.9435 9.30284 15.9388 10.8928 16.7934 12.143C16.9815 12.4176 17.0619 12.7519 17.0193 13.082C16.9768 13.4121 16.8142 13.715 16.5627 13.933L14.8038 15.2391C14.7188 15.3004 14.659 15.3905 14.6354 15.4926C14.6119 15.5947 14.6262 15.7019 14.6758 15.7943C15.0742 16.5181 15.7828 17.5961 16.5942 18.4073C17.4056 19.2185 18.5352 19.9738 19.3096 20.4172C19.4067 20.4717 19.521 20.487 19.629 20.4598C19.737 20.4327 19.8304 20.3652 19.8902 20.2712L21.0351 18.5289C21.2456 18.2494 21.5561 18.0621 21.9016 18.0063C22.2471 17.9506 22.6008 18.0306 22.8886 18.2297C24.1571 19.1076 25.6374 20.0856 26.721 21.4727C26.8667 21.6601 26.9594 21.8832 26.9894 22.1187C27.0194 22.3541 26.9855 22.5933 26.8914 22.8112C26.1368 24.5715 24.2274 26.0704 22.2414 25.9974Z" fill="black"/>
</g>
<rect x="0.5" y="0.5" width="34" height="34" rx="17" stroke="#E2E2E2"/>
<defs>
<clipPath id="clip0_2229_16628">
<rect width="35" height="35" rx="17.5" fill="white"/>
</clipPath>
</defs>
</svg>
