<svg width="35" height="35" viewBox="0 0 35 35" fill="none" xmlns="http://www.w3.org/2000/svg">
<circle cx="17.0105" cy="17.0105" r="17.0105" fill="white"/>
<path d="M17.6929 20.1445C19.5383 20.1445 21.0343 18.6733 21.0343 16.8584C21.0343 15.0435 19.5383 13.5723 17.6929 13.5723C15.8475 13.5723 14.3516 15.0435 14.3516 16.8584C14.3516 18.6733 15.8475 20.1445 17.6929 20.1445Z" fill="black"/>
<path d="M26.8835 10.2861H23.8031C23.6465 10.2861 23.4523 10.1865 23.3009 10.0294L21.9466 7.9273C21.9252 7.89394 21.9013 7.86219 21.8751 7.83231C21.4073 7.29575 20.775 7 20.0963 7H15.2931C14.6144 7 13.9822 7.29575 13.5144 7.83231C13.4882 7.86219 13.4643 7.89394 13.4429 7.9273L12.0886 10.0325C11.9727 10.1567 11.8098 10.2892 11.6385 10.2892V9.87844C11.6385 9.66056 11.5505 9.4516 11.3939 9.29753C11.2372 9.14346 11.0247 9.05691 10.8032 9.05691H9.55019C9.32864 9.05691 9.11617 9.14346 8.95951 9.29753C8.80286 9.4516 8.71485 9.66056 8.71485 9.87844V10.2892H8.50601C7.84159 10.2899 7.20458 10.5498 6.73476 11.0118C6.26494 11.4739 6.00069 12.1004 6 12.7538V22.6091C6.00069 23.2625 6.26494 23.889 6.73476 24.3511C7.20458 24.8131 7.84159 25.073 8.50601 25.0737H26.8835C27.5479 25.073 28.1849 24.8131 28.6547 24.3511C29.1245 23.889 29.3888 23.2625 29.3895 22.6091V12.7507C29.3888 12.0973 29.1245 11.4708 28.6547 11.0087C28.1849 10.5467 27.5479 10.2868 26.8835 10.2861ZM17.6947 21.7876C16.7035 21.7876 15.7344 21.4985 14.9102 20.9568C14.086 20.4152 13.4436 19.6454 13.0642 18.7447C12.6849 17.844 12.5856 16.8529 12.779 15.8967C12.9724 14.9406 13.4498 14.0623 14.1507 13.3729C14.8516 12.6836 15.7447 12.2141 16.7169 12.0239C17.6892 11.8337 18.6969 11.9313 19.6128 12.3044C20.5286 12.6775 21.3114 13.3093 21.8621 14.1199C22.4128 14.9305 22.7068 15.8835 22.7068 16.8584C22.7052 18.1652 22.1767 19.4181 21.2371 20.3422C20.2975 21.2663 19.0235 21.7861 17.6947 21.7876Z" fill="black"/>
</svg>
