<svg width="32" height="32" viewBox="0 0 32 32" fill="none" xmlns="http://www.w3.org/2000/svg">
<path d="M28 15.9999C28.0038 18.3822 27.2952 20.7113 25.9653 22.6879C24.8686 24.3239 23.3855 25.6645 21.6474 26.591C19.9093 27.5175 17.9696 28.0014 16 27.9999C14.0304 28.0014 12.0907 27.5175 10.3526 26.591C8.61447 25.6645 7.13144 24.3239 6.03467 22.6879C4.99031 21.1311 4.3252 19.3513 4.09267 17.4912C3.86015 15.631 4.06666 13.7422 4.69566 11.9763C5.32467 10.2103 6.35866 8.61629 7.71476 7.32198C9.07085 6.02766 10.7113 5.06906 12.5047 4.52302C14.298 3.97698 16.1944 3.8587 18.0417 4.17764C19.889 4.49659 21.6358 5.2439 23.1423 6.35966C24.6487 7.47542 25.8728 8.9286 26.7164 10.6027C27.5599 12.2768 27.9996 14.1253 28 15.9999Z" stroke="#ADADAD" stroke-width="2.5"/>
<path d="M17.0006 11.9998C17.0006 12.2651 16.8952 12.5194 16.7077 12.7069C16.5202 12.8945 16.2658 12.9998 16.0006 12.9998V16.3332C17.1499 16.3332 18.2521 15.8766 19.0647 15.064C19.8774 14.2513 20.3339 13.1491 20.3339 11.9998H17.0006ZM16.0006 12.9998C15.7354 12.9998 15.481 12.8945 15.2935 12.7069C15.1059 12.5194 15.0006 12.2651 15.0006 11.9998H11.6673C11.6673 13.1491 12.1238 14.2513 12.9365 15.064C13.7491 15.8766 14.8513 16.3332 16.0006 16.3332V12.9998ZM15.0006 11.9998C15.0006 11.7346 15.1059 11.4803 15.2935 11.2927C15.481 11.1052 15.7354 10.9998 16.0006 10.9998V7.6665C14.8513 7.6665 13.7491 8.12305 12.9365 8.93571C12.1238 9.74837 11.6673 10.8506 11.6673 11.9998H15.0006ZM16.0006 10.9998C16.2658 10.9998 16.5202 11.1052 16.7077 11.2927C16.8952 11.4803 17.0006 11.7346 17.0006 11.9998H20.3339C20.3339 10.8506 19.8774 9.74837 19.0647 8.93571C18.2521 8.12305 17.1499 7.6665 16.0006 7.6665V10.9998ZM6.88858 23.8078L5.29125 23.3332L5.03125 24.2038L5.62325 24.8932L6.88858 23.8078ZM25.1126 23.8078L26.3779 24.8932L26.9699 24.2038L26.7099 23.3332L25.1126 23.8078ZM12.0006 21.6665H20.0006V18.3332H12.0006V21.6665ZM12.0006 18.3332C10.4929 18.3329 9.02549 18.8195 7.81661 19.7203C6.60772 20.6212 5.72201 21.8884 5.29125 23.3332L8.48592 24.2838C8.71187 23.5273 9.17599 22.8639 9.80924 22.3924C10.4425 21.9208 11.211 21.6662 12.0006 21.6665V18.3332ZM16.0006 26.3332C14.5094 26.335 13.0356 26.0132 11.6809 25.3901C10.3262 24.7669 9.12287 23.8573 8.15392 22.7238L5.62325 24.8932C6.90512 26.3917 8.49667 27.5944 10.2882 28.4184C12.0797 29.2425 14.0286 29.6683 16.0006 29.6665V26.3332ZM20.0006 21.6665C21.6593 21.6665 23.0646 22.7692 23.5153 24.2838L26.7099 23.3332C26.2792 21.8884 25.3934 20.6212 24.1846 19.7203C22.9757 18.8195 21.5082 18.3329 20.0006 18.3332V21.6665ZM23.8473 22.7238C22.8783 23.8573 21.6749 24.7669 20.3202 25.3901C18.9655 26.0132 17.4917 26.335 16.0006 26.3332V29.6665C17.9725 29.6683 19.9215 29.2425 21.713 28.4184C23.5045 27.5944 25.096 26.3917 26.3779 24.8932L23.8473 22.7238Z" fill="#ADADAD"/>
</svg>
