<svg width="383" height="108" viewBox="0 0 383 108" fill="none" xmlns="http://www.w3.org/2000/svg">
<path d="M3.79688 32.5971C2.51116 32.5971 1.8683 31.9844 1.8683 30.7589C1.8683 30.1964 2.1596 29.1819 2.74219 27.7154C3.32478 26.2288 3.82701 25.0737 4.24888 24.25C5.21317 22.3214 6.19754 20.9855 7.20201 20.2422C8.80915 19.0569 15.0871 17.9821 26.0357 17.0179C30.7969 16.6161 34.2623 16.4152 36.4319 16.4152C38.6016 16.4152 40.1384 16.4453 41.0424 16.5056C41.9665 16.5658 42.9208 16.6763 43.9051 16.8371C44.8895 16.9777 45.8739 17.1685 46.8583 17.4096C47.8426 17.6306 48.7768 17.9118 49.6607 18.2533C51.5692 18.9967 52.9051 19.9208 53.6685 21.0257C56.0592 24.5011 57.2545 27.3337 57.2545 29.5234C57.2545 31.9743 55.3862 34.375 51.6496 36.7254C50.5246 37.4487 49.3192 38.1719 48.0335 38.8951C43.3527 41.4263 40.6105 42.923 39.8069 43.385C41.4944 46.6596 44.7991 50.0446 49.721 53.5402C50.3036 53.942 50.7656 54.2433 51.1071 54.4442C52.6138 55.3281 54.3917 55.1875 56.4408 54.0223C57.0033 53.6808 57.5759 53.51 58.1585 53.51C58.7411 53.51 59.2533 53.731 59.6953 54.173C60.1373 54.5949 60.3583 55.067 60.3583 55.5893C60.3583 57.9799 58.7612 60.5513 55.567 63.3036C53.1964 65.3527 51.0569 66.3772 49.1484 66.3772C47.6016 66.3772 44.2366 64.1071 39.0536 59.567C36.1205 56.9955 33.74 54.6953 31.9118 52.6663C30.0837 50.6373 28.8281 49.1306 28.1451 48.1462C27.4621 47.1417 27.1205 46.2779 27.1205 45.5547C27.1205 44.8315 27.2913 44.1886 27.6328 43.6261C27.9944 43.0636 28.4766 42.5212 29.0792 41.9989C30.0234 41.1953 31.3694 40.3415 33.1172 39.4375C34.865 38.5134 36.2913 37.6395 37.3962 36.8158C38.5011 35.9922 39.4554 35.1384 40.2589 34.2545C42.0268 32.3862 42.9107 30.6987 42.9107 29.192C42.9107 28.2076 42.6094 27.3839 42.0067 26.721C40.9018 25.5357 39.8772 24.9431 38.933 24.9431C37.3058 24.9431 35.317 25.0536 32.9665 25.2746L29.2902 31.7835C24.6094 40.2812 21.4152 47.9353 19.7076 54.7455C19.0246 57.3973 16.4431 58.7232 11.9632 58.7232C8.26674 58.7232 5.90625 57.8594 4.8817 56.1317C4.54018 55.5491 4.4096 54.9866 4.48996 54.4442C4.5904 53.8817 4.86161 53.1585 5.30357 52.2746C5.74554 51.3705 6.34821 50.2455 7.11161 48.8996L9.79353 44.3192L13.0781 38.9252L16.7846 33.1094L20.6417 27.3237C13.6306 28.8304 8.51786 30.4576 5.30357 32.2054C4.82143 32.4665 4.3192 32.5971 3.79688 32.5971ZM113.756 35.3694C114.398 35.3694 114.72 35.9118 114.72 36.9967C114.72 38.865 113.414 41.2857 110.802 44.2589L109.085 46.0067C103.882 51.2098 98.9799 54.6752 94.3795 56.4029C91.5268 57.4676 89.4777 57.4174 88.2321 56.2522C87.2076 55.2679 86.394 53.6808 85.7913 51.4911L85.0681 48.8694L78.6496 52.817L74.9431 54.9263C70.5234 57.3371 67.2087 58.5424 64.9989 58.5424C62.1663 58.5424 59.8058 57.4475 57.9174 55.2578C56.1094 53.1886 55.2054 50.7879 55.2054 48.0558C55.2054 45.3638 56.2801 42.9632 58.4297 40.8538C61.5034 37.8404 66.3549 35.0781 72.9844 32.567C79.2522 30.2165 84.3147 29.0413 88.1719 29.0413C89.4777 29.0413 90.1306 29.6842 90.1306 30.9699C90.1306 31.8538 89.9598 32.5167 89.6183 32.9587C89.2768 33.4007 88.5737 33.8527 87.5089 34.3147L83.7121 35.942C78.0871 38.2924 73.9688 40.7333 71.3571 43.2645C70.6138 43.9676 70.2422 44.6507 70.2422 45.3136C70.2422 45.9766 70.7746 46.308 71.8393 46.308C72.8839 46.308 75.3147 45.183 79.1317 42.933L81.6328 41.4565C85.51 39.1261 88.7545 37.9609 91.3661 37.9609C93.5759 37.9609 95.0424 38.9353 95.7656 40.8839C95.9464 41.4062 96.1172 41.9386 96.2779 42.481C96.4386 43.0033 96.5993 43.4754 96.76 43.8973C97.1217 44.8817 97.4431 45.3739 97.7243 45.3739C98.0257 45.3739 98.4475 45.2333 98.99 44.952C99.5324 44.6507 100.125 44.279 100.768 43.8371C101.431 43.375 102.114 42.8728 102.817 42.3304L106.463 39.4074C109.698 36.7154 112.128 35.3694 113.756 35.3694ZM140.816 37.3583C142.785 37.3583 143.769 38.0413 143.769 39.4074C143.769 40.7132 142.845 42.4007 140.997 44.4699L139.52 46.0067C137.732 47.8348 135.643 49.6328 133.252 51.4007C130.882 53.1685 128.792 54.5647 126.984 55.5893C122.786 57.9196 118.979 59.0848 115.564 59.0848C112.349 59.0848 109.728 58.1205 107.699 56.192C105.951 54.5246 105.077 52.7667 105.077 50.9185C105.077 49.0703 105.258 47.2321 105.619 45.404C105.981 43.5759 106.453 41.7879 107.036 40.0402C108.201 36.4844 109.477 33.4609 110.863 30.9699C111.224 30.2868 111.405 29.8449 111.405 29.644H107.518C106.051 29.644 104.916 29.3025 104.113 28.6194C103.309 27.9364 102.907 27.1629 102.907 26.2991C102.907 25.4353 103.068 24.8025 103.39 24.4007C103.711 23.9989 104.113 23.7076 104.595 23.5268C105.278 23.2455 106.282 23.1049 107.608 23.1049L114.991 23.135C115.152 23.0748 115.473 22.6429 115.955 21.8393L117.794 18.6752C118.577 17.269 119.36 16.2344 120.144 15.5714C120.948 14.9085 121.882 14.577 122.946 14.577C124.031 14.577 124.935 14.6775 125.658 14.8783C126.402 15.0792 127.025 15.3304 127.527 15.6317C128.511 16.2746 129.003 16.9777 129.003 17.7411C129.003 18.0625 128.893 18.4944 128.672 19.0368L126.984 23.135L141.298 23.1049C142.544 23.1049 143.166 23.7478 143.166 25.0335C143.166 28.0871 140.444 29.6138 135 29.6138L123.971 29.644C123.73 29.7645 123.318 30.3471 122.735 31.3917L121.379 33.8929C121.038 34.5156 120.797 34.9877 120.656 35.3092L119.993 36.7857C118.647 39.8192 117.974 42.0089 117.974 43.3549C117.974 44.7009 118.326 45.8259 119.029 46.7299C119.752 47.6339 120.706 48.0859 121.892 48.0859C123.077 48.0859 124.232 47.8549 125.357 47.3929C126.502 46.9308 127.617 46.3683 128.702 45.7054C130.671 44.4799 132.218 43.3449 133.343 42.3002C134.468 41.2556 135.402 40.4621 136.145 39.9196C136.145 39.9196 136.848 39.4275 138.254 38.4431C139.339 37.7199 140.193 37.3583 140.816 37.3583ZM164.441 23.1652C163.858 23.6473 163.225 24.0491 162.542 24.3705C161.859 24.6719 161.096 24.8225 160.252 24.8225C159.408 24.8225 158.595 24.6819 157.811 24.4007C157.028 24.1194 156.345 23.7277 155.762 23.2254C154.497 22.1406 153.864 20.7545 153.864 19.067C153.864 16.4754 156.033 14.5469 160.373 13.2812C161.839 12.8393 163.045 12.6183 163.989 12.6183C164.933 12.6183 165.636 12.7288 166.098 12.9498C166.58 13.1507 166.972 13.4219 167.273 13.7634C167.876 14.4464 168.177 15.1496 168.177 15.8728C168.177 16.5759 168.087 17.2187 167.906 17.8013C167.746 18.3839 167.504 18.9866 167.183 19.6094C166.862 20.2321 166.47 20.8549 166.008 21.4777C165.546 22.1004 165.023 22.6629 164.441 23.1652ZM156.847 56.3426C155.32 57.1261 153.834 57.7489 152.387 58.2109C150.941 58.6931 149.515 58.9342 148.108 58.9342C146.722 58.9342 145.276 58.6027 143.769 57.9397C142.282 57.2567 140.956 56.3527 139.791 55.2277C137.2 52.7165 135.904 49.9241 135.904 46.8504C135.904 44.0179 136.748 41.1451 138.435 38.2321C139.982 35.6004 141.951 33.3906 144.342 31.6027C146.732 29.8147 148.952 28.9208 151.001 28.9208C153.934 28.9208 155.501 29.7444 155.702 31.3917C155.762 31.894 155.792 32.4766 155.792 33.1395C155.792 33.8025 155.632 34.5658 155.31 35.4297C155.009 36.2734 154.607 37.1272 154.105 37.9911C153.623 38.8348 153.08 39.6685 152.478 40.4922C151.895 41.2958 151.333 42.029 150.79 42.692C149.746 43.9576 148.912 44.8717 148.289 45.4342C148.289 46.1172 148.801 46.8203 149.826 47.5435C150.79 48.2266 151.604 48.5681 152.267 48.5681C152.95 48.5681 153.743 48.4074 154.647 48.0859C155.571 47.7645 156.516 47.3326 157.48 46.7902C158.464 46.2478 159.459 45.625 160.463 44.9219C161.488 44.2187 162.492 43.4955 163.477 42.7522L168.991 38.4431C171.181 36.856 172.959 36.0625 174.325 36.0625C174.867 36.0625 175.279 36.2634 175.56 36.6652C175.862 37.0469 176.012 37.4989 176.012 38.0212C176.012 38.5435 175.751 39.2667 175.229 40.1908C174.706 41.0949 173.983 42.0993 173.059 43.2042C172.155 44.3092 171.09 45.4643 169.865 46.6696C168.64 47.875 167.314 49.0603 165.887 50.2254C164.461 51.3906 162.974 52.5056 161.427 53.5703C159.901 54.615 158.374 55.5391 156.847 56.3426ZM186.589 53.2991C184.681 54.3036 182.732 55.1272 180.743 55.7701C178.775 56.3929 176.926 56.7042 175.199 56.7042C173.471 56.7042 171.522 55.9208 169.353 54.3538C169.031 56.1016 168.74 57.8393 168.479 59.567C168.198 61.3147 167.866 62.9821 167.484 64.5692C167.103 66.1563 166.631 67.6328 166.068 68.9989C165.485 70.365 164.732 71.5402 163.808 72.5246C161.779 74.6741 158.956 75.7489 155.34 75.7489C154.778 75.7489 154.316 75.5379 153.954 75.1161C153.311 74.3527 153.05 73.4788 153.171 72.4944C153.291 71.5301 153.673 70.144 154.316 68.3359C154.959 66.5279 155.772 64.529 156.757 62.3393C157.741 60.1696 158.846 57.8594 160.071 55.4085L163.959 47.9955C163.517 46.9509 163.296 46.0167 163.296 45.1931C163.296 44.3694 163.436 43.5458 163.718 42.7221C163.999 41.8984 164.391 41.125 164.893 40.4018C166.038 38.6942 167.314 37.8404 168.72 37.8404C168.981 37.8404 169.252 37.8705 169.533 37.9308C174.797 29.0112 177.82 23.9286 178.604 22.683L180.261 20.0915C183.355 15.5312 186.288 12.7991 189.06 11.8951C190.004 11.5937 190.969 11.4431 191.953 11.4431C192.938 11.4431 193.741 11.7846 194.364 12.4676C195.007 13.1507 195.328 14.2355 195.328 15.7221C195.328 19.9609 192.958 24.8326 188.217 30.3371L180.382 39.0156C178.996 40.5223 177.67 42.0692 176.404 43.6562C177.067 44.4196 177.68 45.0826 178.242 45.6451C178.805 46.1875 179.267 46.4587 179.628 46.4587C180.01 46.4587 180.563 46.3382 181.286 46.0971C182.009 45.8359 182.833 45.4944 183.757 45.0725C184.701 44.6507 185.705 44.1685 186.77 43.6261C187.835 43.0636 188.869 42.4911 189.874 41.9085C192.084 40.6228 193.671 39.5681 194.635 38.7444C196.323 37.3181 197.648 36.6049 198.613 36.6049C199.316 36.6049 199.828 36.7656 200.15 37.0871C200.672 37.6094 200.933 38.2321 200.933 38.9554C200.933 39.6585 200.541 40.6529 199.758 41.9386C198.994 43.2042 197.95 44.51 196.624 45.856C195.318 47.1819 193.801 48.4978 192.074 49.8036C190.346 51.1094 188.518 52.2746 186.589 53.2991ZM205.393 45.1931C205.393 46.1172 206.006 46.5792 207.231 46.5792C209.722 46.5792 213.961 43.4754 219.948 37.2679L222.871 34.3147C224.859 32.3661 226.175 31.3917 226.818 31.3917C227.461 31.3917 228.033 31.5022 228.536 31.7232C229.038 31.9442 229.48 32.2254 229.862 32.567C230.645 33.2701 231.037 34.0234 231.037 34.827C231.037 35.6105 230.946 36.4844 230.766 37.4487C230.605 38.3929 230.344 39.4576 229.982 40.6429C229.319 42.8527 228.124 45.8158 226.396 49.5324L225.161 52.1842L230.283 47.5435L240.77 38.5636C241.835 37.76 242.719 37.3583 243.422 37.3583C244.949 37.3583 245.712 38.0915 245.712 39.558C245.712 41.0647 244.728 43.0033 242.759 45.3739C242.156 46.1172 241.503 46.8103 240.8 47.4531L233.689 53.6306L219.827 65.3527C218.602 66.4174 217.677 67.2612 217.055 67.8839C216.311 69.0893 215.729 69.9833 215.307 70.5658C214.905 71.1685 214.503 71.8013 214.102 72.4643C213.7 73.1473 213.308 73.7299 212.926 74.2121C212.103 75.2567 211.279 75.779 210.455 75.779C209.592 75.779 208.758 75.4275 207.954 74.7243C206.468 73.4185 205.724 72.2533 205.724 71.2288C205.724 70.2042 206.006 69.0089 206.568 67.6429C207.131 66.2969 207.864 64.75 208.768 63.0022L215.156 51.2199C212.083 53.9922 209.672 55.8304 207.924 56.7344C206.176 57.6183 204.7 58.2009 203.494 58.4821C202.309 58.7835 201.044 58.9342 199.698 58.9342C198.372 58.9342 197.206 58.6529 196.202 58.0904C195.198 57.548 194.364 56.8147 193.701 55.8906C192.415 54.0625 191.772 51.6819 191.772 48.7489C191.772 45.635 192.556 42.5614 194.123 39.5279C195.629 36.5547 197.618 34.1641 200.089 32.356C202.701 30.4275 205.383 29.4632 208.135 29.4632C210.887 29.4632 212.263 30.5379 212.263 32.6875C212.263 34.0335 211.118 36.0324 208.828 38.6842C206.538 41.3158 205.393 43.4855 205.393 45.1931ZM295.252 50.6775L295.313 48.6283C295.353 47.3426 295.473 45.9364 295.674 44.4096L296.156 40.8538C296.257 40.01 296.357 39.2467 296.458 38.5636C294.549 40.6529 293.012 42.2801 291.847 43.4453L288.382 46.8203C280.627 54.0725 276.007 57.6987 274.52 57.6987C272.33 57.6987 270.03 57.2266 267.619 56.2824C266.314 55.76 265.57 55.2176 265.39 54.6551C265.108 53.952 264.968 52.9978 264.968 51.7924C264.968 50.567 265.008 49.442 265.088 48.4174C265.169 47.3929 265.269 46.3783 265.39 45.3739C265.51 44.3493 265.631 43.375 265.751 42.4509C265.892 41.5067 266.002 40.683 266.083 39.9799C266.283 38.3929 266.324 37.5993 266.203 37.5993L254.993 51.3705C249.71 57.5781 246.706 61.0134 245.983 61.6763C244.436 63.0826 242.729 63.7857 240.86 63.7857C239.936 63.7857 239.173 63.5547 238.57 63.0926C237.968 62.6306 237.666 62.058 237.666 61.375C237.666 60.0089 238.239 58.5826 239.384 57.096L266.143 23.0748L269.277 19.308C273.013 14.9085 275.464 12.7087 276.629 12.7087C278.257 12.7087 279.804 13.1205 281.27 13.9442C282.576 14.6674 283.319 15.3705 283.5 16.0536C283.58 16.3147 283.41 17.5301 282.988 19.6998L281.933 25.3951C280.748 31.7433 280.155 35.8415 280.155 37.6897C280.155 39.5179 280.366 40.4319 280.788 40.4319C282.154 40.4319 284.786 38.192 288.683 33.7121L298.446 22.0201C300.596 19.5491 302.022 18.1429 302.725 17.8013C302.926 17.7009 303.218 17.6507 303.599 17.6507C303.981 17.6507 304.403 17.7009 304.865 17.8013C305.347 17.9018 305.829 18.0324 306.311 18.1931C306.814 18.3538 307.296 18.5446 307.758 18.7656C308.22 18.9866 308.632 19.2176 308.993 19.4587C309.777 19.981 310.158 20.4129 310.138 20.7545C310.138 21.0759 310.058 21.7891 309.897 22.894C309.737 23.9788 309.536 25.3047 309.295 26.8717C307.627 37.2578 306.753 43.2846 306.673 44.952C306.613 46.6194 306.783 47.6641 307.185 48.0859C307.607 48.5078 308.22 48.7187 309.023 48.7187C310.49 48.7187 312.619 47.8449 315.412 46.0971C317.3 44.9118 318.857 44.3192 320.083 44.3192C321.328 44.3192 321.951 44.9118 321.951 46.0971C321.951 47.3225 321.288 48.8092 319.962 50.5569C318.054 53.0882 315.201 55.3783 311.404 57.4275C308.21 59.135 305.176 59.9888 302.304 59.9888C297.603 59.9888 295.252 56.885 295.252 50.6775ZM329.605 57.1864C328.058 56.5033 326.843 55.6496 325.959 54.625C325.095 53.6004 324.522 52.6362 324.241 51.7321C323.799 50.3862 323.578 49.231 323.578 48.2667C323.578 47.3025 323.89 46.1975 324.512 44.952C325.155 43.7065 326.21 42.471 327.676 41.2455C330.891 38.5737 335.823 36.2835 342.472 34.375C340.343 33.471 339.127 32.0346 338.826 30.0658C338.525 27.8158 339.489 25.817 341.719 24.0692C345.837 20.8348 353.752 18.6451 365.464 17.5C369.08 17.1585 371.702 16.9877 373.329 16.9877C374.977 16.9877 376.142 17.2489 376.825 17.7712C377.528 18.2935 377.94 19.077 378.06 20.1217C378.201 21.1462 378.01 22.01 377.488 22.7132C376.965 23.4163 376.222 23.9788 375.258 24.4007C373.47 25.1842 371.029 25.5759 367.935 25.5759C365.665 25.5759 363.596 25.2344 361.728 24.5513C361.225 24.3504 360.834 24.1395 360.552 23.9185C356.535 25.1641 354.254 26.5603 353.712 28.1071C353.551 28.5089 353.491 28.8806 353.531 29.2221C353.712 30.4475 354.516 31.3516 355.942 31.9342C357.368 32.5167 359.538 32.8884 362.451 33.0491C363.415 33.1295 364.128 33.3906 364.59 33.8326C365.073 34.2746 365.344 34.7366 365.404 35.2187C365.484 35.7009 365.454 36.0826 365.314 36.3638C365.173 36.625 364.962 36.846 364.681 37.0268C364.199 37.3482 363.244 37.6194 361.818 37.8404C360.392 38.0614 358.734 38.3728 356.846 38.7746C354.958 39.1562 353.16 39.5681 351.452 40.01C349.744 40.452 348.157 40.904 346.691 41.3661C345.244 41.8281 343.989 42.2701 342.924 42.692C340.674 43.6362 339.589 44.3996 339.67 44.9821C339.75 45.5446 339.981 46.0368 340.363 46.4587C340.744 46.8806 341.257 47.2522 341.9 47.5737C343.105 48.1362 344.571 48.4978 346.299 48.6585C348.047 48.7991 349.734 48.8694 351.362 48.8694C353.009 48.8694 354.767 48.7388 356.635 48.4777C358.523 48.1964 360.281 47.8449 361.908 47.423C363.556 47.0011 365.063 46.5592 366.429 46.0971C367.815 45.615 369.02 45.1629 370.045 44.7411L372.516 43.7165C373.158 43.4353 373.741 43.2946 374.263 43.2946C375.65 43.2946 376.433 44.0279 376.614 45.4944C376.855 47.4833 374.625 49.7232 369.924 52.2143C363.636 55.5692 356.685 57.7589 349.071 58.7835C347.304 59.0246 345.174 59.1451 342.683 59.1451C340.212 59.1451 337.801 58.9844 335.451 58.6629C333.1 58.3415 331.152 57.8493 329.605 57.1864Z" fill="#1A87EC"/>
<path d="M232.355 92.6149C232.876 92.6971 233.349 92.9097 233.774 93.2526C234.213 93.5954 234.556 94.0206 234.803 94.528C235.064 95.0354 235.194 95.5771 235.194 96.1531C235.194 96.88 235.009 97.5383 234.638 98.128C234.268 98.704 233.726 99.1634 233.013 99.5063C232.314 99.8354 231.484 100 230.524 100H225.176V85.6617H230.318C231.292 85.6617 232.122 85.8263 232.808 86.1554C233.493 86.4709 234.008 86.9029 234.35 87.4514C234.693 88 234.865 88.6171 234.865 89.3029C234.865 90.1531 234.632 90.8594 234.165 91.4217C233.713 91.9703 233.109 92.368 232.355 92.6149ZM227.048 91.8537H230.195C231.073 91.8537 231.752 91.648 232.232 91.2366C232.712 90.8251 232.952 90.256 232.952 89.5291C232.952 88.8023 232.712 88.2331 232.232 87.8217C231.752 87.4103 231.059 87.2046 230.154 87.2046H227.048V91.8537ZM230.36 98.4571C231.292 98.4571 232.019 98.2377 232.54 97.7989C233.061 97.36 233.322 96.7497 233.322 95.968C233.322 95.1726 233.048 94.5486 232.499 94.096C231.95 93.6297 231.217 93.3966 230.298 93.3966H227.048V98.4571H230.36ZM247.501 88.7269L240.713 105.307H238.779L241.001 99.8766L236.454 88.7269H238.532L242.07 97.8606L245.568 88.7269H247.501ZM263.693 85.6617V87.184H259.784V100H257.912V87.184H253.983V85.6617H263.693ZM276.283 93.9314C276.283 94.288 276.262 94.6651 276.221 95.0629H267.211C267.279 96.1737 267.656 97.0446 268.342 97.6754C269.042 98.2926 269.885 98.6011 270.872 98.6011C271.682 98.6011 272.354 98.416 272.888 98.0457C273.437 97.6617 273.821 97.1543 274.04 96.5234H276.056C275.755 97.6069 275.151 98.4914 274.246 99.1771C273.341 99.8491 272.216 100.185 270.872 100.185C269.803 100.185 268.843 99.9451 267.992 99.4651C267.156 98.9851 266.498 98.3063 266.018 97.4286C265.538 96.5371 265.298 95.5086 265.298 94.3429C265.298 93.1771 265.531 92.1554 265.997 91.2777C266.463 90.4 267.115 89.728 267.951 89.2617C268.802 88.7817 269.775 88.5417 270.872 88.5417C271.942 88.5417 272.888 88.7749 273.711 89.2411C274.534 89.7074 275.165 90.352 275.604 91.1749C276.056 91.984 276.283 92.9029 276.283 93.9314ZM274.349 93.5406C274.349 92.8274 274.191 92.2171 273.876 91.7097C273.56 91.1886 273.128 90.7977 272.58 90.5371C272.045 90.2629 271.448 90.1257 270.79 90.1257C269.844 90.1257 269.035 90.4274 268.363 91.0309C267.704 91.6343 267.327 92.4709 267.231 93.5406H274.349ZM278.054 94.3429C278.054 93.1771 278.287 92.1623 278.754 91.2983C279.22 90.4206 279.865 89.7417 280.687 89.2617C281.524 88.7817 282.477 88.5417 283.547 88.5417C284.932 88.5417 286.07 88.8777 286.962 89.5497C287.867 90.2217 288.463 91.1543 288.751 92.3474H286.735C286.543 91.6617 286.166 91.12 285.604 90.7223C285.055 90.3246 284.37 90.1257 283.547 90.1257C282.477 90.1257 281.613 90.496 280.955 91.2366C280.297 91.9634 279.967 92.9989 279.967 94.3429C279.967 95.7006 280.297 96.7497 280.955 97.4903C281.613 98.2309 282.477 98.6011 283.547 98.6011C284.37 98.6011 285.055 98.4091 285.604 98.0251C286.153 97.6411 286.53 97.0926 286.735 96.3794H288.751C288.45 97.5314 287.846 98.4571 286.941 99.1566C286.036 99.8423 284.905 100.185 283.547 100.185C282.477 100.185 281.524 99.9451 280.687 99.4651C279.865 98.9851 279.22 98.3063 278.754 97.4286C278.287 96.5509 278.054 95.5223 278.054 94.3429ZM296.845 88.5211C297.695 88.5211 298.463 88.7063 299.149 89.0766C299.834 89.4331 300.369 89.9749 300.753 90.7017C301.151 91.4286 301.35 92.3131 301.35 93.3554V100H299.498V93.6229C299.498 92.4983 299.217 91.6411 298.655 91.0514C298.093 90.448 297.325 90.1463 296.351 90.1463C295.363 90.1463 294.575 90.4549 293.985 91.072C293.409 91.6891 293.121 92.5874 293.121 93.7669V100H291.249V84.7771H293.121V90.3314C293.491 89.7554 293.999 89.3097 294.643 88.9943C295.302 88.6789 296.035 88.5211 296.845 88.5211ZM318.367 96.8114H312.114L310.962 100H308.987L314.171 85.744H316.331L321.494 100H319.519L318.367 96.8114ZM317.833 95.2891L315.241 88.048L312.649 95.2891H317.833ZM331.521 90.2697V96.9143C331.521 97.4629 331.638 97.8537 331.871 98.0869C332.104 98.3063 332.509 98.416 333.085 98.416H334.463V100H332.776C331.734 100 330.952 99.76 330.431 99.28C329.91 98.8 329.649 98.0114 329.649 96.9143V90.2697H328.189V88.7269H329.649V85.888H331.521V88.7269H334.463V90.2697H331.521ZM347.017 93.9314C347.017 94.288 346.996 94.6651 346.955 95.0629H337.945C338.014 96.1737 338.391 97.0446 339.076 97.6754C339.776 98.2926 340.619 98.6011 341.607 98.6011C342.416 98.6011 343.088 98.416 343.623 98.0457C344.171 97.6617 344.555 97.1543 344.775 96.5234H346.791C346.489 97.6069 345.886 98.4914 344.98 99.1771C344.075 99.8491 342.951 100.185 341.607 100.185C340.537 100.185 339.577 99.9451 338.727 99.4651C337.89 98.9851 337.232 98.3063 336.752 97.4286C336.272 96.5371 336.032 95.5086 336.032 94.3429C336.032 93.1771 336.265 92.1554 336.731 91.2777C337.198 90.4 337.849 89.728 338.686 89.2617C339.536 88.7817 340.51 88.5417 341.607 88.5417C342.676 88.5417 343.623 88.7749 344.446 89.2411C345.268 89.7074 345.899 90.352 346.338 91.1749C346.791 91.984 347.017 92.9029 347.017 93.9314ZM345.083 93.5406C345.083 92.8274 344.926 92.2171 344.61 91.7097C344.295 91.1886 343.863 90.7977 343.314 90.5371C342.779 90.2629 342.183 90.1257 341.524 90.1257C340.578 90.1257 339.769 90.4274 339.097 91.0309C338.439 91.6343 338.062 92.4709 337.966 93.5406H345.083ZM348.789 94.3223C348.789 93.1703 349.022 92.1623 349.488 91.2983C349.954 90.4206 350.592 89.7417 351.401 89.2617C352.224 88.7817 353.136 88.5417 354.137 88.5417C355.125 88.5417 355.982 88.7543 356.709 89.1794C357.435 89.6046 357.977 90.1394 358.334 90.784V88.7269H360.226V100H358.334V97.9017C357.963 98.56 357.408 99.1086 356.667 99.5474C355.941 99.9726 355.09 100.185 354.117 100.185C353.115 100.185 352.21 99.9383 351.401 99.4446C350.592 98.9509 349.954 98.2583 349.488 97.3669C349.022 96.4754 348.789 95.4606 348.789 94.3223ZM358.334 94.3429C358.334 93.4926 358.162 92.752 357.819 92.1211C357.477 91.4903 357.01 91.0103 356.421 90.6811C355.845 90.3383 355.207 90.1669 354.507 90.1669C353.808 90.1669 353.17 90.3314 352.594 90.6606C352.018 90.9897 351.559 91.4697 351.216 92.1006C350.873 92.7314 350.702 93.472 350.702 94.3223C350.702 95.1863 350.873 95.9406 351.216 96.5851C351.559 97.216 352.018 97.7029 352.594 98.0457C353.17 98.3749 353.808 98.5394 354.507 98.5394C355.207 98.5394 355.845 98.3749 356.421 98.0457C357.01 97.7029 357.477 97.216 357.819 96.5851C358.162 95.9406 358.334 95.1931 358.334 94.3429ZM376.946 88.5211C377.824 88.5211 378.606 88.7063 379.292 89.0766C379.977 89.4331 380.519 89.9749 380.917 90.7017C381.314 91.4286 381.513 92.3131 381.513 93.3554V100H379.662V93.6229C379.662 92.4983 379.381 91.6411 378.818 91.0514C378.27 90.448 377.522 90.1463 376.576 90.1463C375.602 90.1463 374.828 90.4617 374.252 91.0926C373.676 91.7097 373.388 92.608 373.388 93.7874V100H371.536V93.6229C371.536 92.4983 371.255 91.6411 370.693 91.0514C370.144 90.448 369.397 90.1463 368.45 90.1463C367.477 90.1463 366.702 90.4617 366.126 91.0926C365.55 91.7097 365.262 92.608 365.262 93.7874V100H363.39V88.7269H365.262V90.352C365.632 89.7623 366.126 89.3097 366.743 88.9943C367.374 88.6789 368.066 88.5211 368.821 88.5211C369.767 88.5211 370.604 88.7337 371.33 89.1589C372.057 89.584 372.599 90.208 372.956 91.0309C373.271 90.2354 373.792 89.6183 374.519 89.1794C375.246 88.7406 376.055 88.5211 376.946 88.5211Z" fill="#707070"/>
</svg>
