<svg width="100" height="100" viewBox="0 0 100 100" fill="none" xmlns="http://www.w3.org/2000/svg">
<circle cx="50" cy="50" r="50" fill="#1A87EC"/>
<path d="M53.6602 56.0977C53.6602 54.7507 54.7521 53.6587 56.0992 53.6587H97.5626C98.9096 53.6587 100.002 54.7507 100.002 56.0977V97.5611C100.002 98.9082 98.9096 100 97.5626 100H56.0992C54.7521 100 53.6602 98.9082 53.6602 97.5611V56.0977Z" fill="#1869B8"/>
<path d="M50.1647 49.8585C52.1419 49.8585 53.859 49.6113 55.3159 49.117C56.7989 48.6227 58.0086 47.9463 58.9452 47.0877C59.9078 46.2032 60.6232 45.1625 61.0915 43.9658C61.5598 42.769 61.794 41.4552 61.794 40.0243C61.794 37.1625 60.8444 34.9642 58.9452 33.4292C57.072 31.8942 54.1972 31.1268 50.3208 31.1268H43.6086V49.8585H50.1647ZM77.1696 79.439H67.6867C65.8915 79.439 64.5907 78.7365 63.7842 77.3316L51.9208 59.2634C51.4785 58.5869 50.9842 58.1056 50.4379 57.8195C49.9176 57.5333 49.1371 57.3902 48.0964 57.3902H43.6086V79.439H33.1111V23.0097H50.3208C54.1452 23.0097 57.4232 23.4129 60.155 24.2194C62.9127 24.9999 65.1631 26.1056 66.9062 27.5365C68.6753 28.9674 69.9761 30.6845 70.8086 32.6877C71.6411 34.665 72.0574 36.8503 72.0574 39.2438C72.0574 41.143 71.7712 42.9382 71.1989 44.6292C70.6525 46.3203 69.846 47.8552 68.7793 49.2341C67.7387 50.6129 66.4379 51.8227 64.8769 52.8634C63.3419 53.904 61.5859 54.7235 59.6086 55.3219C60.285 55.7121 60.9094 56.1804 61.4818 56.7268C62.0541 57.2471 62.5745 57.8715 63.0428 58.5999L77.1696 79.439Z" fill="white"/>
<rect x="97.5625" y="53.6587" width="2.43902" height="2.43902" fill="#1869B8"/>
<rect x="53.6602" y="97.561" width="2.43902" height="2.43902" fill="#1869B8"/>
<rect x="51.2188" y="97.561" width="2.43902" height="2.43902" fill="#1A87EC"/>
<rect x="97.5625" y="51.2197" width="2.43902" height="2.43902" fill="#1A87EC"/>
</svg>
