<svg width="24" height="24" viewBox="0 0 24 24" fill="none" xmlns="http://www.w3.org/2000/svg">
<mask id="path-1-inside-1_1424_24298" fill="white">
<path d="M13 11H19.95C19.7033 9.16667 18.94 7.61333 17.66 6.34C16.3867 5.06667 14.8333 4.30333 13 4.05M11 19.95V4.05C9 4.30333 7.33333 5.18333 6 6.69C4.66667 8.19667 4 9.96667 4 12C4 14.0333 4.66667 15.8033 6 17.31C7.33333 18.8233 9 19.7033 11 19.95ZM13 19.95C14.8333 19.7167 16.3933 18.96 17.68 17.68C18.96 16.3933 19.7167 14.8333 19.95 13H13M12 22C10.62 22 9.32 21.7367 8.1 21.21C6.88667 20.69 5.83 19.98 4.93 19.08C4.03 18.18 3.31667 17.12 2.79 15.9C2.26333 14.6867 2 13.3867 2 12C2 10.6133 2.26333 9.31333 2.79 8.1C3.31667 6.88667 4.03 5.83 4.93 4.93C5.83 4.03 6.88667 3.31667 8.1 2.79C9.32 2.26333 10.62 2 12 2C13.38 2 14.6767 2.26333 15.89 2.79C17.0967 3.31667 18.1533 4.03333 19.06 4.94C19.9733 5.84667 20.69 6.90333 21.21 8.11C21.7367 9.32333 22 10.62 22 12C22 13.3667 21.7367 14.66 21.21 15.88C20.69 17.0933 19.98 18.1533 19.08 19.06C18.18 19.9733 17.12 20.69 15.9 21.21C14.6867 21.7367 13.3867 22 12 22Z"/>
</mask>
<path d="M13 11H19.95C19.7033 9.16667 18.94 7.61333 17.66 6.34C16.3867 5.06667 14.8333 4.30333 13 4.05M11 19.95V4.05C9 4.30333 7.33333 5.18333 6 6.69C4.66667 8.19667 4 9.96667 4 12C4 14.0333 4.66667 15.8033 6 17.31C7.33333 18.8233 9 19.7033 11 19.95ZM13 19.95C14.8333 19.7167 16.3933 18.96 17.68 17.68C18.96 16.3933 19.7167 14.8333 19.95 13H13M12 22C10.62 22 9.32 21.7367 8.1 21.21C6.88667 20.69 5.83 19.98 4.93 19.08C4.03 18.18 3.31667 17.12 2.79 15.9C2.26333 14.6867 2 13.3867 2 12C2 10.6133 2.26333 9.31333 2.79 8.1C3.31667 6.88667 4.03 5.83 4.93 4.93C5.83 4.03 6.88667 3.31667 8.1 2.79C9.32 2.26333 10.62 2 12 2C13.38 2 14.6767 2.26333 15.89 2.79C17.0967 3.31667 18.1533 4.03333 19.06 4.94C19.9733 5.84667 20.69 6.90333 21.21 8.11C21.7367 9.32333 22 10.62 22 12C22 13.3667 21.7367 14.66 21.21 15.88C20.69 17.0933 19.98 18.1533 19.08 19.06C18.18 19.9733 17.12 20.69 15.9 21.21C14.6867 21.7367 13.3867 22 12 22Z" fill="black"/>
<path d="M19.95 11V11.5H20.5218L20.4455 10.9333L19.95 11ZM17.66 6.34L17.3064 6.69355L17.3074 6.69448L17.66 6.34ZM11 19.95L10.9388 20.4462L11.5 20.5155V19.95H11ZM11 4.05H11.5V3.48267L10.9372 3.55396L11 4.05ZM6 17.31L6.37516 16.9795L6.37444 16.9786L6 17.31ZM17.68 17.68L18.0326 18.0345L18.0345 18.0326L17.68 17.68ZM19.95 13L20.446 13.0631L20.5177 12.5H19.95V13ZM8.1 21.21L8.29817 20.7509L8.29696 20.7504L8.1 21.21ZM2.79 15.9L3.24905 15.7018L3.24866 15.7009L2.79 15.9ZM8.1 2.79L7.90183 2.33095L7.90091 2.33134L8.1 2.79ZM15.89 2.79L16.09 2.33175L16.0891 2.33134L15.89 2.79ZM19.06 4.94L18.7064 5.29356L18.7077 5.29485L19.06 4.94ZM21.21 8.11L20.7508 8.30788L20.7513 8.30909L21.21 8.11ZM21.21 15.88L20.7509 15.6818L20.7504 15.683L21.21 15.88ZM19.08 19.06L18.7251 18.7078L18.7239 18.7091L19.08 19.06ZM15.9 21.21L15.7039 20.75L15.7009 20.7513L15.9 21.21ZM13 11.5H19.95V10.5H13V11.5ZM20.4455 10.9333C20.1846 8.99384 19.3727 7.33849 18.0126 5.98552L17.3074 6.69448C18.5073 7.88818 19.2221 9.33949 19.4545 11.0667L20.4455 10.9333ZM18.0136 5.98645C16.6609 4.63379 15.0065 3.82251 13.0684 3.55471L12.9316 4.54529C14.6602 4.78416 16.1124 5.49954 17.3064 6.69355L18.0136 5.98645ZM11.5 19.95V4.05H10.5V19.95H11.5ZM10.9372 3.55396C8.81702 3.82252 7.03951 4.76088 5.62556 6.35864L6.37444 7.02136C7.62715 5.60579 9.18298 4.78415 11.0628 4.54604L10.9372 3.55396ZM5.62556 6.35864C4.21038 7.9578 3.5 9.84602 3.5 12H4.5C4.5 10.0873 5.12295 8.43554 6.37444 7.02136L5.62556 6.35864ZM3.5 12C3.5 14.154 4.21038 16.0422 5.62556 17.6414L6.37444 16.9786C5.12295 15.5645 4.5 13.9127 4.5 12H3.5ZM5.62484 17.6405C7.03896 19.2456 8.81728 20.1846 10.9388 20.4462L11.0612 19.4538C9.18272 19.2221 7.62771 18.4011 6.37516 16.9795L5.62484 17.6405ZM13.0631 20.446C15.0038 20.199 16.6662 19.3938 18.0326 18.0345L17.3274 17.3255C16.1205 18.5262 14.6629 19.2343 12.9369 19.454L13.0631 20.446ZM18.0345 18.0326C19.3938 16.6662 20.199 15.0038 20.446 13.0631L19.454 12.9369C19.2343 14.6629 18.5262 16.1205 17.3255 17.3274L18.0345 18.0326ZM19.95 12.5H13V13.5H19.95V12.5ZM12 21.5C10.6855 21.5 9.45318 21.2496 8.29817 20.7509L7.90183 21.6691C9.18682 22.2238 10.5545 22.5 12 22.5V21.5ZM8.29696 20.7504C7.13988 20.2545 6.1369 19.5798 5.28355 18.7264L4.57645 19.4336C5.5231 20.3802 6.63345 21.1255 7.90304 21.6696L8.29696 20.7504ZM5.28355 18.7264C4.43017 17.8731 3.7518 16.8664 3.24905 15.7018L2.33095 16.0982C2.88153 17.3736 3.62983 18.4869 4.57645 19.4336L5.28355 18.7264ZM3.24866 15.7009C2.75057 14.5534 2.5 13.3216 2.5 12H1.5C1.5 13.4518 1.77609 14.8199 2.33134 16.0991L3.24866 15.7009ZM2.5 12C2.5 10.6784 2.75057 9.44656 3.24866 8.29909L2.33134 7.90091C1.77609 9.1801 1.5 10.5482 1.5 12H2.5ZM3.24866 8.29909C3.7513 7.14109 4.42972 6.13739 5.28355 5.28355L4.57645 4.57645C3.63028 5.52261 2.88203 6.63224 2.33134 7.90091L3.24866 8.29909ZM5.28355 5.28355C6.13739 4.42972 7.14109 3.7513 8.29909 3.24866L7.90091 2.33134C6.63224 2.88203 5.52261 3.63028 4.57645 4.57645L5.28355 5.28355ZM8.29817 3.24905C9.45318 2.75044 10.6855 2.5 12 2.5V1.5C10.5545 1.5 9.18682 1.77622 7.90183 2.33095L8.29817 3.24905ZM12 2.5C13.3145 2.5 14.5431 2.75044 15.6909 3.24866L16.0891 2.33134C14.8102 1.77623 13.4455 1.5 12 1.5V2.5ZM15.69 3.24825C16.8409 3.7506 17.8452 4.43227 18.7064 5.29355L19.4136 4.58645C18.4615 3.6344 17.3524 2.88273 16.09 2.33175L15.69 3.24825ZM18.7077 5.29485C19.5748 6.15555 20.2556 7.15863 20.7508 8.30788L21.6692 7.91212C21.1244 6.64804 20.3719 5.53779 19.4123 4.58515L18.7077 5.29485ZM20.7513 8.30909C21.2496 9.45687 21.5 10.6855 21.5 12H22.5C22.5 10.5545 22.2238 9.1898 21.6687 7.91091L20.7513 8.30909ZM21.5 12C21.5 13.3005 21.2498 14.5262 20.7509 15.6818L21.6691 16.0782C22.2235 14.7938 22.5 13.4328 22.5 12H21.5ZM20.7504 15.683C20.2544 16.8404 19.5793 17.8473 18.7251 18.7078L19.4349 19.4122C20.3807 18.4594 21.1256 17.3462 21.6696 16.077L20.7504 15.683ZM18.7239 18.7091C17.8712 19.5744 16.8661 20.2547 15.704 20.75L16.096 21.67C17.3739 21.1253 18.4888 20.3723 19.4361 19.4109L18.7239 18.7091ZM15.7009 20.7513C14.5534 21.2494 13.3216 21.5 12 21.5V22.5C13.4518 22.5 14.8199 22.2239 16.0991 21.6687L15.7009 20.7513Z" fill="black" mask="url(#path-1-inside-1_1424_24298)"/>
</svg>
