<svg width="35" height="35" viewBox="0 0 35 35" fill="none" xmlns="http://www.w3.org/2000/svg">
<rect x="0.5" y="0.5" width="34" height="34" rx="17" stroke="#E2E2E2"/>
<g clip-path="url(#clip0_4222_22609)">
<path d="M20.2504 12.3307C20.2504 12.127 20.3294 11.9315 20.47 11.7874C20.6107 11.6433 20.8015 11.5624 21.0004 11.5624H29.2504C29.4493 11.5624 29.6401 11.6433 29.7807 11.7874C29.9214 11.9315 30.0004 12.127 30.0004 12.3307C30.0004 12.5345 29.9214 12.73 29.7807 12.8741C29.6401 13.0182 29.4493 13.0991 29.2504 13.0991H21.0004C20.8015 13.0991 20.6107 13.0182 20.47 12.8741C20.3294 12.73 20.2504 12.5345 20.2504 12.3307ZM29.2504 16.1727H21.0004C20.8015 16.1727 20.6107 16.2536 20.47 16.3977C20.3294 16.5418 20.2504 16.7373 20.2504 16.941C20.2504 17.1448 20.3294 17.3403 20.47 17.4844C20.6107 17.6285 20.8015 17.7094 21.0004 17.7094H29.2504C29.4493 17.7094 29.6401 17.6285 29.7807 17.4844C29.9214 17.3403 30.0004 17.1448 30.0004 16.941C30.0004 16.7373 29.9214 16.5418 29.7807 16.3977C29.6401 16.2536 29.4493 16.1727 29.2504 16.1727ZM29.2504 20.783H23.2504C23.0515 20.783 22.8607 20.8639 22.72 21.008C22.5794 21.1521 22.5004 21.3475 22.5004 21.5513C22.5004 21.7551 22.5794 21.9506 22.72 22.0947C22.8607 22.2388 23.0515 22.3197 23.2504 22.3197H29.2504C29.4493 22.3197 29.6401 22.2388 29.7807 22.0947C29.9214 21.9506 30.0004 21.7551 30.0004 21.5513C30.0004 21.3475 29.9214 21.1521 29.7807 21.008C29.6401 20.8639 29.4493 20.783 29.2504 20.783ZM16.2463 18.2857C16.9907 17.6983 17.5369 16.887 17.8084 15.9655C18.0799 15.044 18.0631 14.0585 17.7602 13.1473C17.4574 12.2361 16.8838 11.4449 16.1199 10.8846C15.3559 10.3242 14.4399 10.0229 13.5004 10.0229C12.5608 10.0229 11.6449 10.3242 10.8809 10.8846C10.1169 11.4449 9.54333 12.2361 9.24051 13.1473C8.9377 14.0585 8.92086 15.044 9.19236 15.9655C9.46387 16.887 10.0101 17.6983 10.7544 18.2857C8.82132 19.1242 7.29788 20.8118 6.77382 22.896C6.74519 23.0096 6.74233 23.1284 6.76545 23.2432C6.78857 23.3581 6.83705 23.4661 6.90719 23.5588C6.97733 23.6515 7.06725 23.7265 7.17007 23.7781C7.27289 23.8297 7.38588 23.8565 7.50038 23.8565H19.5004C19.6149 23.8565 19.7279 23.8297 19.8307 23.7781C19.9335 23.7265 20.0234 23.6515 20.0936 23.5588C20.1637 23.4661 20.2122 23.3581 20.2353 23.2432C20.2584 23.1284 20.2556 23.0096 20.2269 22.896C19.7029 20.8108 18.1794 19.1232 16.2463 18.2857Z" fill="black"/>
</g>
<defs>
<clipPath id="clip0_4222_22609">
<rect width="24" height="19" fill="white" transform="translate(6 8)"/>
</clipPath>
</defs>
</svg>
