<svg width="630" height="452" viewBox="0 0 630 452" fill="none" xmlns="http://www.w3.org/2000/svg">
<g filter="url(#filter0_d_1239_13962)">
<g clip-path="url(#clip0_1239_13962)">
<rect x="511" y="11" width="100" height="422" fill="#70ADC1" fill-opacity="0.34"/>
<g clip-path="url(#clip1_1239_13962)" filter="url(#filter1_f_1239_13962)">
<path d="M453.367 340.946H-20.3711C-20.538 340.945 -20.698 340.879 -20.8159 340.763C-20.9338 340.646 -21 340.488 -21 340.323C-21 340.158 -20.9338 339.999 -20.8159 339.882C-20.698 339.766 -20.538 339.7 -20.3711 339.699H453.367C453.534 339.7 453.694 339.766 453.812 339.882C453.93 339.999 453.996 340.158 453.996 340.323C453.996 340.488 453.93 340.646 453.812 340.763C453.694 340.879 453.534 340.945 453.367 340.946Z" fill="#3F3D56"/>
<path d="M127.512 129.074C129.404 129.074 130.937 127.558 130.937 125.688C130.937 123.818 129.404 122.303 127.512 122.303C125.62 122.303 124.086 123.818 124.086 125.688C124.086 127.558 125.62 129.074 127.512 129.074Z" fill="#F2F2F2"/>
<path d="M113.859 129.074C115.751 129.074 117.285 127.558 117.285 125.688C117.285 123.818 115.751 122.303 113.859 122.303C111.967 122.303 110.434 123.818 110.434 125.688C110.434 127.558 111.967 129.074 113.859 129.074Z" fill="#F2F2F2"/>
<path d="M100.207 129.074C102.099 129.074 103.633 127.558 103.633 125.688C103.633 123.818 102.099 122.303 100.207 122.303C98.315 122.303 96.7812 123.818 96.7812 125.688C96.7812 127.558 98.315 129.074 100.207 129.074Z" fill="#F2F2F2"/>
<path d="M86.5546 129.074C88.4466 129.074 89.9804 127.558 89.9804 125.688C89.9804 123.818 88.4466 122.303 86.5546 122.303C84.6627 122.303 83.1289 123.818 83.1289 125.688C83.1289 127.558 84.6627 129.074 86.5546 129.074Z" fill="#F2F2F2"/>
<path d="M127.512 143.208C129.404 143.208 130.937 141.693 130.937 139.823C130.937 137.953 129.404 136.438 127.512 136.438C125.62 136.438 124.086 137.953 124.086 139.823C124.086 141.693 125.62 143.208 127.512 143.208Z" fill="#944CFF"/>
<path d="M113.859 143.208C115.751 143.208 117.285 141.693 117.285 139.823C117.285 137.953 115.751 136.438 113.859 136.438C111.967 136.438 110.434 137.953 110.434 139.823C110.434 141.693 111.967 143.208 113.859 143.208Z" fill="#F2F2F2"/>
<path d="M100.207 143.208C102.099 143.208 103.633 141.693 103.633 139.823C103.633 137.953 102.099 136.438 100.207 136.438C98.315 136.438 96.7812 137.953 96.7812 139.823C96.7812 141.693 98.315 143.208 100.207 143.208Z" fill="#F2F2F2"/>
<path d="M86.5546 143.208C88.4466 143.208 89.9804 141.693 89.9804 139.823C89.9804 137.953 88.4466 136.438 86.5546 136.438C84.6627 136.438 83.1289 137.953 83.1289 139.823C83.1289 141.693 84.6627 143.208 86.5546 143.208Z" fill="#F2F2F2"/>
<path d="M127.512 157.343C129.404 157.343 130.937 155.827 130.937 153.958C130.937 152.088 129.404 150.572 127.512 150.572C125.62 150.572 124.086 152.088 124.086 153.958C124.086 155.827 125.62 157.343 127.512 157.343Z" fill="#F2F2F2"/>
<path d="M113.859 157.343C115.751 157.343 117.285 155.827 117.285 153.958C117.285 152.088 115.751 150.572 113.859 150.572C111.967 150.572 110.434 152.088 110.434 153.958C110.434 155.827 111.967 157.343 113.859 157.343Z" fill="#F2F2F2"/>
<path d="M100.207 157.343C102.099 157.343 103.633 155.827 103.633 153.958C103.633 152.088 102.099 150.572 100.207 150.572C98.315 150.572 96.7812 152.088 96.7812 153.958C96.7812 155.827 98.315 157.343 100.207 157.343Z" fill="#F2F2F2"/>
<path d="M86.5546 157.343C88.4466 157.343 89.9804 155.827 89.9804 153.958C89.9804 152.088 88.4466 150.572 86.5546 150.572C84.6627 150.572 83.1289 152.088 83.1289 153.958C83.1289 155.827 84.6627 157.343 86.5546 157.343Z" fill="#F2F2F2"/>
<path d="M127.512 171.477C129.404 171.477 130.937 169.961 130.937 168.091C130.937 166.222 129.404 164.706 127.512 164.706C125.62 164.706 124.086 166.222 124.086 168.091C124.086 169.961 125.62 171.477 127.512 171.477Z" fill="#F2F2F2"/>
<path d="M113.859 171.477C115.751 171.477 117.285 169.961 117.285 168.091C117.285 166.222 115.751 164.706 113.859 164.706C111.967 164.706 110.434 166.222 110.434 168.091C110.434 169.961 111.967 171.477 113.859 171.477Z" fill="#F2F2F2"/>
<path d="M100.207 171.477C102.099 171.477 103.633 169.961 103.633 168.091C103.633 166.222 102.099 164.706 100.207 164.706C98.315 164.706 96.7812 166.222 96.7812 168.091C96.7812 169.961 98.315 171.477 100.207 171.477Z" fill="#F2F2F2"/>
<path d="M86.5546 171.477C88.4466 171.477 89.9804 169.961 89.9804 168.091C89.9804 166.222 88.4466 164.706 86.5546 164.706C84.6627 164.706 83.1289 166.222 83.1289 168.091C83.1289 169.961 84.6627 171.477 86.5546 171.477Z" fill="#F2F2F2"/>
<path d="M127.512 185.612C129.404 185.612 130.937 184.096 130.937 182.226C130.937 180.357 129.404 178.841 127.512 178.841C125.62 178.841 124.086 180.357 124.086 182.226C124.086 184.096 125.62 185.612 127.512 185.612Z" fill="#F2F2F2"/>
<path d="M113.859 185.612C115.751 185.612 117.285 184.096 117.285 182.226C117.285 180.357 115.751 178.841 113.859 178.841C111.967 178.841 110.434 180.357 110.434 182.226C110.434 184.096 111.967 185.612 113.859 185.612Z" fill="#F2F2F2"/>
<path d="M100.207 185.612C102.099 185.612 103.633 184.096 103.633 182.226C103.633 180.357 102.099 178.841 100.207 178.841C98.315 178.841 96.7812 180.357 96.7812 182.226C96.7812 184.096 98.315 185.612 100.207 185.612Z" fill="#F2F2F2"/>
<path d="M86.5546 185.612C88.4466 185.612 89.9804 184.096 89.9804 182.226C89.9804 180.357 88.4466 178.841 86.5546 178.841C84.6627 178.841 83.1289 180.357 83.1289 182.226C83.1289 184.096 84.6627 185.612 86.5546 185.612Z" fill="#F2F2F2"/>
<path d="M127.512 199.746C129.404 199.746 130.937 198.231 130.937 196.361C130.937 194.491 129.404 192.976 127.512 192.976C125.62 192.976 124.086 194.491 124.086 196.361C124.086 198.231 125.62 199.746 127.512 199.746Z" fill="#F2F2F2"/>
<path d="M113.859 199.746C115.751 199.746 117.285 198.231 117.285 196.361C117.285 194.491 115.751 192.976 113.859 192.976C111.967 192.976 110.434 194.491 110.434 196.361C110.434 198.231 111.967 199.746 113.859 199.746Z" fill="#F2F2F2"/>
<path d="M100.207 199.746C102.099 199.746 103.633 198.231 103.633 196.361C103.633 194.491 102.099 192.976 100.207 192.976C98.315 192.976 96.7812 194.491 96.7812 196.361C96.7812 198.231 98.315 199.746 100.207 199.746Z" fill="#F2F2F2"/>
<path d="M86.5546 199.746C88.4466 199.746 89.9804 198.231 89.9804 196.361C89.9804 194.491 88.4466 192.976 86.5546 192.976C84.6627 192.976 83.1289 194.491 83.1289 196.361C83.1289 198.231 84.6627 199.746 86.5546 199.746Z" fill="#F2F2F2"/>
<path d="M97.4102 288.717V289.764C97.4117 291.499 98.1098 293.162 99.3513 294.389C100.593 295.616 102.276 296.306 104.032 296.307H151.708C153.464 296.307 155.148 295.617 156.389 294.39C157.631 293.163 158.329 291.499 158.33 289.764V288.717C158.333 287.185 157.789 285.702 156.793 284.529C156.462 284.139 156.087 283.788 155.676 283.482C155.676 283.482 129.464 282.895 129.464 282.173H104.032C102.276 282.175 100.594 282.865 99.3523 284.092C98.111 285.319 97.4126 286.982 97.4102 288.717Z" fill="#CCCCCC"/>
<path d="M131.695 296.048H124.809V340.022H131.695V296.048Z" fill="#CCCCCC"/>
<path d="M151.296 339.783C151.296 340.519 140.861 340.068 127.988 340.068C115.115 340.068 104.68 340.519 104.68 339.783C104.68 339.048 115.115 333.217 127.988 333.217C140.861 333.217 151.296 339.048 151.296 339.783Z" fill="#CCCCCC"/>
<path d="M141.828 287.829C142.325 287.17 142.67 286.411 142.839 285.606C143.007 284.801 142.994 283.969 142.802 283.169C142.61 282.369 142.242 281.62 141.726 280.976C141.209 280.332 140.556 279.807 139.812 279.439L125.216 230.29L114.102 235.669L131.944 282.29C131.401 283.566 131.351 284.994 131.803 286.305C132.255 287.615 133.178 288.716 134.396 289.398C135.615 290.081 137.044 290.299 138.414 290.009C139.784 289.72 140.999 288.944 141.828 287.829Z" fill="#A0616A"/>
<path d="M128.524 238.497L116.085 241.825C115.731 241.92 115.36 241.938 114.999 241.878C114.637 241.819 114.292 241.683 113.989 241.48C113.685 241.277 113.429 241.012 113.238 240.702C113.048 240.393 112.927 240.046 112.884 239.686L111.38 227.077C110.9 225.284 111.159 223.377 112.1 221.773C113.041 220.169 114.587 218.999 116.399 218.52C118.212 218.041 120.142 218.292 121.768 219.217C123.394 220.142 124.582 221.667 125.072 223.456L130.196 235.055C130.343 235.387 130.415 235.747 130.409 236.109C130.402 236.471 130.316 236.828 130.158 237.155C129.999 237.481 129.771 237.77 129.489 238.002C129.207 238.234 128.878 238.403 128.524 238.497Z" fill="#3C5C7B"/>
<path d="M145.079 334.628L151.574 334.628L154.664 317.982H145.078L145.079 334.628Z" fill="#A0616A"/>
<path d="M143.422 332.533L156.212 332.532H156.212C157.283 332.532 158.342 332.741 159.331 333.145C160.32 333.55 161.219 334.143 161.976 334.891C162.733 335.639 163.333 336.527 163.743 337.504C164.152 338.482 164.363 339.529 164.363 340.587V340.849L143.422 340.849L143.422 332.533Z" fill="#2F2E41"/>
<path d="M152.618 325.703C152.543 325.703 152.467 325.699 152.391 325.692L143.403 325.045C143.039 325.012 142.688 324.897 142.377 324.708C142.066 324.52 141.803 324.263 141.608 323.958C141.413 323.653 141.291 323.308 141.253 322.949C141.214 322.59 141.259 322.228 141.385 321.889L153.413 295.183C153.499 294.945 153.534 294.692 153.516 294.439C153.499 294.187 153.428 293.941 153.309 293.718C153.191 293.491 153.025 293.292 152.823 293.133C152.622 292.974 152.388 292.859 152.138 292.796C146.482 291.335 131.97 287.445 119.408 282.893C114.026 280.942 110.636 278.124 109.333 274.516C107.615 269.759 110.156 265.42 110.265 265.238L110.351 265.096L122.171 266.158L134.986 267.235L163.069 282.117C165.422 283.374 167.21 285.462 168.076 287.963C168.941 290.465 168.822 293.196 167.741 295.615L154.794 324.307C154.606 324.722 154.301 325.075 153.915 325.323C153.529 325.571 153.079 325.703 152.618 325.703Z" fill="#2F2E41"/>
<path d="M124.226 213.321C131.411 213.321 137.237 207.564 137.237 200.463C137.237 193.362 131.411 187.605 124.226 187.605C117.04 187.605 111.215 193.362 111.215 200.463C111.215 207.564 117.04 213.321 124.226 213.321Z" fill="#A0616A"/>
<path d="M141.372 334.105L147.867 334.104L150.957 317.459H141.371L141.372 334.105Z" fill="#A0616A"/>
<path d="M139.715 332.009L152.505 332.009H152.505C153.576 332.009 154.635 332.217 155.624 332.622C156.613 333.027 157.512 333.62 158.269 334.368C159.026 335.116 159.626 336.004 160.036 336.981C160.445 337.958 160.656 339.006 160.656 340.064V340.325L139.715 340.326L139.715 332.009Z" fill="#2F2E41"/>
<path d="M148.911 327.273C148.836 327.273 148.76 327.27 148.684 327.262L139.696 326.616C139.332 326.582 138.981 326.467 138.67 326.278C138.359 326.09 138.096 325.833 137.901 325.528C137.706 325.223 137.584 324.878 137.546 324.519C137.507 324.161 137.552 323.798 137.678 323.459L149.706 296.753C149.792 296.515 149.827 296.262 149.809 296.01C149.792 295.758 149.721 295.512 149.602 295.288C149.484 295.061 149.318 294.862 149.116 294.703C148.915 294.545 148.681 294.43 148.431 294.367C142.775 292.906 128.263 289.015 115.701 284.463C110.319 282.513 106.929 279.694 105.626 276.086C103.908 271.329 106.449 266.991 106.558 266.809L106.643 266.666L118.464 267.728L131.279 268.805L159.362 283.687C161.715 284.945 163.503 287.032 164.369 289.533C165.234 292.035 165.115 294.767 164.034 297.185L151.087 325.877C150.899 326.292 150.594 326.645 150.208 326.893C149.822 327.141 149.372 327.273 148.911 327.273Z" fill="#2F2E41"/>
<path d="M128.239 220.612L114.466 215.9C114.466 215.9 105.82 222.465 109.974 238.75C112.142 247.154 111.51 256.025 108.172 264.046C107.771 265.039 107.307 266.006 106.785 266.942C106.785 266.942 122.147 285.264 136.45 271.653L130.888 245.216C130.888 245.216 139.629 227.679 128.239 220.612Z" fill="#2F2E41"/>
<path d="M125.842 213.758C123.99 211.018 122.529 207.22 124.568 204.614C126.58 202.042 130.55 202.421 133.632 201.282C137.925 199.697 140.415 194.713 139.638 190.249C138.862 185.786 135.236 182.085 130.917 180.571C126.597 179.057 121.727 179.55 117.497 181.293C112.29 183.439 107.823 187.591 105.95 192.85C104.077 198.109 105.078 204.424 108.964 208.466C113.13 212.8 119.668 213.955 125.716 213.885" fill="#2F2E41"/>
<path d="M113.741 190.392C111.407 192.27 107.847 191.436 105.342 189.788C102.838 188.141 100.805 185.795 98.0951 184.503C93.3173 182.226 87.5408 183.74 82.8908 186.262C78.2408 188.785 74.1189 192.269 69.2071 194.249C64.2954 196.228 58.0276 196.326 54.3084 192.589C53.3931 195.209 53.3183 198.045 54.0942 200.709C54.87 203.373 56.4587 205.736 58.6435 207.475C60.8283 209.214 63.5027 210.244 66.302 210.425C69.1013 210.607 71.889 209.93 74.2848 208.488C79.6666 205.248 82.6392 198.456 88.6755 196.668C92.0157 195.678 95.6025 196.475 98.9784 197.338C102.354 198.202 105.874 199.134 109.281 198.399C112.688 197.665 115.875 194.639 115.441 191.22L113.741 190.392Z" fill="#2F2E41"/>
<path d="M156.092 311.545C154.714 302.702 154.714 293.702 156.092 284.859C156.179 284.333 156.453 283.854 156.864 283.509C157.275 283.163 157.797 282.973 158.336 282.972H179.458C179.8 282.971 180.139 283.047 180.447 283.194C180.755 283.342 181.024 283.557 181.236 283.823C181.451 284.093 181.602 284.408 181.676 284.744C181.75 285.08 181.746 285.428 181.663 285.762C179.688 293.941 179.687 302.464 181.663 310.642C181.746 310.976 181.75 311.324 181.676 311.66C181.602 311.996 181.451 312.311 181.236 312.581C181.024 312.847 180.755 313.062 180.447 313.21C180.139 313.357 179.8 313.434 179.458 313.433H158.336C157.797 313.431 157.275 313.241 156.864 312.896C156.453 312.55 156.179 312.071 156.092 311.545Z" fill="#3C5C7B"/>
<path d="M172.958 295.89H161.874C161.453 295.89 161.049 295.724 160.751 295.43C160.453 295.135 160.286 294.736 160.285 294.32V293.706C160.286 293.29 160.453 292.891 160.751 292.596C161.049 292.302 161.453 292.136 161.874 292.136H172.958C173.38 292.136 173.784 292.302 174.082 292.596C174.379 292.891 174.547 293.29 174.548 293.706V294.32C174.547 294.736 174.379 295.135 174.082 295.43C173.784 295.724 173.38 295.89 172.958 295.89Z" fill="white"/>
<path d="M172.958 302.352H161.874C161.453 302.352 161.049 302.186 160.751 301.892C160.453 301.597 160.286 301.198 160.285 300.782V300.168C160.286 299.752 160.453 299.353 160.751 299.058C161.049 298.764 161.453 298.598 161.874 298.598H172.958C173.38 298.598 173.784 298.764 174.082 299.058C174.379 299.353 174.547 299.752 174.548 300.168V300.782C174.547 301.198 174.379 301.597 174.082 301.892C173.784 302.186 173.38 302.352 172.958 302.352Z" fill="white"/>
<path d="M161.647 285.473C161.962 284.712 162.104 283.892 162.064 283.071C162.023 282.25 161.8 281.447 161.412 280.72C161.024 279.993 160.479 279.359 159.815 278.863C159.152 278.366 158.387 278.02 157.574 277.847L131.015 233.86L121.613 241.813L150.676 282.55C150.473 283.92 150.786 285.315 151.555 286.472C152.324 287.629 153.495 288.467 154.848 288.828C156.2 289.188 157.639 289.045 158.893 288.427C160.146 287.809 161.126 286.758 161.647 285.473Z" fill="#A0616A"/>
<path d="M136.292 240.992L125.088 247.285C124.769 247.464 124.415 247.574 124.05 247.605C123.685 247.637 123.317 247.59 122.971 247.469C122.626 247.347 122.311 247.154 122.048 246.901C121.785 246.648 121.58 246.343 121.448 246.005L116.804 234.166C115.886 232.549 115.655 230.638 116.161 228.853C116.666 227.068 117.867 225.553 119.501 224.642C121.135 223.731 123.067 223.497 124.875 223.991C126.683 224.486 128.219 225.669 129.146 227.28L137.04 237.246C137.266 237.531 137.427 237.861 137.513 238.214C137.598 238.566 137.605 238.933 137.534 239.288C137.463 239.644 137.315 239.98 137.101 240.274C136.886 240.568 136.61 240.813 136.292 240.992Z" fill="#2F2E41"/>
<path d="M255.504 256.443H40.4316C39.5183 256.443 38.6425 256.802 37.9968 257.44C37.3511 258.078 36.9883 258.944 36.9883 259.846C36.9883 260.749 37.3511 261.614 37.9968 262.252C38.6425 262.89 39.5183 263.249 40.4316 263.249H46.5235V337.324C46.5235 338.227 46.8863 339.092 47.532 339.73C48.1778 340.369 49.0536 340.727 49.9668 340.727C50.88 340.727 51.7558 340.369 52.4016 339.73C53.0473 339.092 53.4101 338.227 53.4101 337.324V269.787L92.0124 338.93C92.47 339.71 93.2219 340.278 94.1031 340.511C94.9842 340.743 95.9227 340.621 96.7126 340.17C97.5024 339.719 98.079 338.977 98.316 338.107C98.5529 337.237 98.4308 336.309 97.9763 335.528L57.6234 263.249H241.996V263.293L201.667 335.528C201.211 336.309 201.087 337.238 201.323 338.11C201.56 338.981 202.137 339.725 202.928 340.176C203.719 340.627 204.658 340.749 205.54 340.516C206.422 340.282 207.175 339.712 207.631 338.93L241.996 277.378V337.324C241.996 338.227 242.358 339.092 243.004 339.73C243.65 340.369 244.526 340.727 245.439 340.727C246.352 340.727 247.228 340.369 247.874 339.73C248.519 339.092 248.882 338.227 248.882 337.324V265.043L249.884 263.249H255.504C256.417 263.249 257.293 262.89 257.939 262.252C258.584 261.614 258.947 260.749 258.947 259.846C258.947 258.944 258.584 258.078 257.939 257.44C257.293 256.802 256.417 256.443 255.504 256.443Z" fill="#3F3D56"/>
<path d="M166.508 254.349H124.659C123.635 254.349 122.805 255.169 122.805 256.181C122.805 257.193 123.635 258.013 124.659 258.013H166.508C167.532 258.013 168.362 257.193 168.362 256.181C168.362 255.169 167.532 254.349 166.508 254.349Z" fill="#CCCCCC"/>
<path d="M194.586 258.014H147.439C146.526 258.013 145.651 257.654 145.006 257.016C144.36 256.378 143.997 255.513 143.996 254.611V228.959C143.997 228.057 144.36 227.192 145.006 226.554C145.651 225.916 146.526 225.558 147.439 225.557H194.586C195.499 225.558 196.374 225.916 197.019 226.554C197.665 227.192 198.028 228.057 198.029 228.959V254.611C198.028 255.513 197.665 256.378 197.019 257.016C196.374 257.654 195.499 258.013 194.586 258.014Z" fill="#CCCCCC"/>
<path d="M171.01 244.926C172.766 244.926 174.189 243.519 174.189 241.785C174.189 240.05 172.766 238.644 171.01 238.644C169.255 238.644 167.832 240.05 167.832 241.785C167.832 243.519 169.255 244.926 171.01 244.926Z" fill="white"/>
<path d="M230.566 194.812V102.937C230.568 101.894 230.988 100.893 231.735 100.155C232.482 99.4164 233.494 99.0012 234.551 99H308.04C309.096 99.0012 310.109 99.4164 310.856 100.155C311.603 100.893 312.023 101.894 312.024 102.937V194.812C312.023 195.856 311.603 196.857 310.856 197.595C310.109 198.333 309.096 198.748 308.04 198.749H234.551C233.494 198.748 232.482 198.333 231.735 197.595C230.988 196.857 230.568 195.856 230.566 194.812ZM234.551 99.875C233.729 99.8759 232.941 100.199 232.361 100.773C231.78 101.347 231.453 102.126 231.452 102.937V194.812C231.453 195.624 231.78 196.402 232.361 196.977C232.941 197.551 233.729 197.874 234.551 197.874H308.04C308.862 197.874 309.649 197.551 310.23 196.977C310.811 196.402 311.138 195.624 311.139 194.812V102.937C311.138 102.126 310.811 101.347 310.23 100.773C309.649 100.199 308.862 99.8759 308.04 99.875H234.551Z" fill="#E6E6E6"/>
<path d="M275.414 141.193V122.328C275.415 121.806 275.625 121.306 275.998 120.937C276.372 120.568 276.878 120.36 277.406 120.359H293.583C294.111 120.36 294.617 120.568 294.991 120.937C295.364 121.306 295.574 121.806 295.575 122.328V141.193C295.574 141.715 295.364 142.215 294.991 142.584C294.617 142.953 294.111 143.161 293.583 143.162H277.406C276.878 143.161 276.372 142.953 275.998 142.584C275.625 142.215 275.415 141.715 275.414 141.193Z" fill="#DEC8FF"/>
<path d="M243.984 149.943V131.078C243.985 130.556 244.195 130.056 244.569 129.687C244.942 129.318 245.448 129.11 245.977 129.109H262.153C262.681 129.11 263.188 129.318 263.561 129.687C263.935 130.056 264.145 130.556 264.145 131.078V149.943C264.145 150.465 263.935 150.965 263.561 151.334C263.188 151.703 262.681 151.911 262.153 151.912H245.977C245.448 151.911 244.942 151.703 244.569 151.334C244.195 150.965 243.985 150.465 243.984 149.943Z" fill="#CCCCCC"/>
<path d="M269.219 176.63V157.766C269.219 157.244 269.429 156.743 269.803 156.374C270.176 156.005 270.683 155.797 271.211 155.797H287.387C287.916 155.797 288.422 156.005 288.795 156.374C289.169 156.743 289.379 157.244 289.38 157.766V176.63C289.379 177.152 289.169 177.653 288.795 178.022C288.422 178.391 287.916 178.599 287.387 178.599H271.211C270.683 178.599 270.176 178.391 269.803 178.022C269.429 177.653 269.219 177.152 269.219 176.63Z" fill="#FF3838"/>
<path d="M392.586 108.574C394.478 108.574 396.012 107.058 396.012 105.188C396.012 103.318 394.478 101.803 392.586 101.803C390.694 101.803 389.16 103.318 389.16 105.188C389.16 107.058 390.694 108.574 392.586 108.574Z" fill="#F2F2F2"/>
<path d="M392.586 122.066C394.478 122.066 396.012 120.55 396.012 118.68C396.012 116.811 394.478 115.295 392.586 115.295C390.694 115.295 389.16 116.811 389.16 118.68C389.16 120.55 390.694 122.066 392.586 122.066Z" fill="#F2F2F2"/>
<path d="M392.586 135.558C394.478 135.558 396.012 134.042 396.012 132.173C396.012 130.303 394.478 128.787 392.586 128.787C390.694 128.787 389.16 130.303 389.16 132.173C389.16 134.042 390.694 135.558 392.586 135.558Z" fill="#F2F2F2"/>
<path d="M392.586 149.05C394.478 149.05 396.012 147.534 396.012 145.665C396.012 143.795 394.478 142.279 392.586 142.279C390.694 142.279 389.16 143.795 389.16 145.665C389.16 147.534 390.694 149.05 392.586 149.05Z" fill="#F2F2F2"/>
<path d="M378.281 108.574C380.173 108.574 381.707 107.058 381.707 105.188C381.707 103.318 380.173 101.803 378.281 101.803C376.389 101.803 374.855 103.318 374.855 105.188C374.855 107.058 376.389 108.574 378.281 108.574Z" fill="#F2F2F2"/>
<path d="M378.281 122.066C380.173 122.066 381.707 120.55 381.707 118.68C381.707 116.811 380.173 115.295 378.281 115.295C376.389 115.295 374.855 116.811 374.855 118.68C374.855 120.55 376.389 122.066 378.281 122.066Z" fill="#F2F2F2"/>
<path d="M378.281 135.558C380.173 135.558 381.707 134.042 381.707 132.173C381.707 130.303 380.173 128.787 378.281 128.787C376.389 128.787 374.855 130.303 374.855 132.173C374.855 134.042 376.389 135.558 378.281 135.558Z" fill="#F2F2F2"/>
<path d="M378.281 149.05C380.173 149.05 381.707 147.534 381.707 145.665C381.707 143.795 380.173 142.279 378.281 142.279C376.389 142.279 374.855 143.795 374.855 145.665C374.855 147.534 376.389 149.05 378.281 149.05Z" fill="#F2F2F2"/>
<path d="M363.98 108.574C365.872 108.574 367.406 107.058 367.406 105.188C367.406 103.318 365.872 101.803 363.98 101.803C362.088 101.803 360.555 103.318 360.555 105.188C360.555 107.058 362.088 108.574 363.98 108.574Z" fill="#F2F2F2"/>
<path d="M363.98 122.066C365.872 122.066 367.406 120.55 367.406 118.68C367.406 116.811 365.872 115.295 363.98 115.295C362.088 115.295 360.555 116.811 360.555 118.68C360.555 120.55 362.088 122.066 363.98 122.066Z" fill="#F2F2F2"/>
<path d="M363.98 135.558C365.872 135.558 367.406 134.042 367.406 132.173C367.406 130.303 365.872 128.787 363.98 128.787C362.088 128.787 360.555 130.303 360.555 132.173C360.555 134.042 362.088 135.558 363.98 135.558Z" fill="#F2F2F2"/>
<path d="M363.98 149.05C365.872 149.05 367.406 147.534 367.406 145.665C367.406 143.795 365.872 142.279 363.98 142.279C362.088 142.279 360.555 143.795 360.555 145.665C360.555 147.534 362.088 149.05 363.98 149.05Z" fill="#F2F2F2"/>
<path d="M349.676 108.574C351.568 108.574 353.101 107.058 353.101 105.188C353.101 103.318 351.568 101.803 349.676 101.803C347.784 101.803 346.25 103.318 346.25 105.188C346.25 107.058 347.784 108.574 349.676 108.574Z" fill="#F2F2F2"/>
<path d="M349.676 122.066C351.568 122.066 353.101 120.55 353.101 118.68C353.101 116.811 351.568 115.295 349.676 115.295C347.784 115.295 346.25 116.811 346.25 118.68C346.25 120.55 347.784 122.066 349.676 122.066Z" fill="#0BA800"/>
<path d="M349.676 135.558C351.568 135.558 353.101 134.042 353.101 132.173C353.101 130.303 351.568 128.787 349.676 128.787C347.784 128.787 346.25 130.303 346.25 132.173C346.25 134.042 347.784 135.558 349.676 135.558Z" fill="#F2F2F2"/>
<path d="M349.676 149.05C351.568 149.05 353.101 147.534 353.101 145.665C353.101 143.795 351.568 142.279 349.676 142.279C347.784 142.279 346.25 143.795 346.25 145.665C346.25 147.534 347.784 149.05 349.676 149.05Z" fill="#F2F2F2"/>
<path d="M335.375 108.574C337.267 108.574 338.801 107.058 338.801 105.188C338.801 103.318 337.267 101.803 335.375 101.803C333.483 101.803 331.949 103.318 331.949 105.188C331.949 107.058 333.483 108.574 335.375 108.574Z" fill="#F2F2F2"/>
<path d="M335.375 122.066C337.267 122.066 338.801 120.55 338.801 118.68C338.801 116.811 337.267 115.295 335.375 115.295C333.483 115.295 331.949 116.811 331.949 118.68C331.949 120.55 333.483 122.066 335.375 122.066Z" fill="#F2F2F2"/>
<path d="M335.375 135.558C337.267 135.558 338.801 134.042 338.801 132.173C338.801 130.303 337.267 128.787 335.375 128.787C333.483 128.787 331.949 130.303 331.949 132.173C331.949 134.042 333.483 135.558 335.375 135.558Z" fill="#F2F2F2"/>
<path d="M335.375 149.05C337.267 149.05 338.801 147.534 338.801 145.665C338.801 143.795 337.267 142.279 335.375 142.279C333.483 142.279 331.949 143.795 331.949 145.665C331.949 147.534 333.483 149.05 335.375 149.05Z" fill="#F2F2F2"/>
<path d="M321.07 108.574C322.962 108.574 324.496 107.058 324.496 105.188C324.496 103.318 322.962 101.803 321.07 101.803C319.178 101.803 317.645 103.318 317.645 105.188C317.645 107.058 319.178 108.574 321.07 108.574Z" fill="#F2F2F2"/>
<path d="M321.07 122.066C322.962 122.066 324.496 120.55 324.496 118.68C324.496 116.811 322.962 115.295 321.07 115.295C319.178 115.295 317.645 116.811 317.645 118.68C317.645 120.55 319.178 122.066 321.07 122.066Z" fill="#F2F2F2"/>
<path d="M321.07 135.558C322.962 135.558 324.496 134.042 324.496 132.173C324.496 130.303 322.962 128.787 321.07 128.787C319.178 128.787 317.645 130.303 317.645 132.173C317.645 134.042 319.178 135.558 321.07 135.558Z" fill="#F2F2F2"/>
<path d="M321.07 149.05C322.962 149.05 324.496 147.534 324.496 145.665C324.496 143.795 322.962 142.279 321.07 142.279C319.178 142.279 317.645 143.795 317.645 145.665C317.645 147.534 319.178 149.05 321.07 149.05Z" fill="#F2F2F2"/>
<path d="M334.872 225.296C334.59 224.533 334.476 223.721 334.535 222.911C334.593 222.102 334.825 221.314 335.213 220.599C335.602 219.884 336.139 219.259 336.789 218.763C337.439 218.268 338.188 217.913 338.986 217.724C339.239 217.665 339.496 217.624 339.755 217.6L352.629 195.3L349.378 189.781L357.47 183.611L363.661 192.109C364.399 193.13 364.785 194.36 364.76 195.615C364.735 196.87 364.301 198.084 363.523 199.076L345.849 221.437C345.913 221.614 345.968 221.795 346.013 221.978C346.205 222.767 346.226 223.588 346.074 224.385C345.923 225.183 345.603 225.94 345.134 226.607C344.666 227.273 344.061 227.835 343.358 228.254C342.655 228.674 341.87 228.941 341.055 229.04C340.818 229.07 340.58 229.084 340.342 229.084C339.147 229.081 337.983 228.715 337.005 228.038C336.027 227.361 335.283 226.404 334.872 225.296Z" fill="#FFB8B8"/>
<path d="M309.756 335.041L303.261 335.04L300.172 310.285L309.757 310.286L309.756 335.041Z" fill="#FFB8B8"/>
<path d="M298.62 333.206H311.145V340.999H290.734C290.734 339.976 290.938 338.963 291.335 338.017C291.731 337.071 292.312 336.212 293.044 335.489C293.776 334.765 294.646 334.191 295.603 333.799C296.559 333.408 297.585 333.206 298.62 333.206Z" fill="#2F2E41"/>
<path d="M363.26 335.041L356.765 335.04L353.676 310.285L363.261 310.286L363.26 335.041Z" fill="#FFB8B8"/>
<path d="M352.124 333.206H364.649V340.999H344.238C344.238 339.976 344.442 338.963 344.839 338.017C345.235 337.071 345.816 336.212 346.548 335.489C347.28 334.765 348.15 334.191 349.106 333.799C350.063 333.408 351.089 333.206 352.124 333.206Z" fill="#2F2E41"/>
<path d="M359.272 184.817L344.691 190.292L341.131 180.52C340.658 179.223 340.665 177.802 341.15 176.509C341.635 175.215 342.567 174.133 343.781 173.453C345.009 172.765 346.446 172.534 347.831 172.802C349.217 173.069 350.46 173.817 351.336 174.911L359.272 184.817Z" fill="#3C5C7B"/>
<path d="M310.318 314.991L298.089 312.235C297.439 312.087 296.869 311.702 296.495 311.156C296.12 310.61 295.968 309.945 296.07 309.293C300.977 278.559 305.697 260.56 317.863 237.703C318.033 237.277 319.933 228.627 321.173 222.896C321.158 222.264 321.377 221.649 321.788 221.166C322.198 220.682 322.773 220.362 323.405 220.266L346.207 216.798C346.551 216.68 346.914 216.626 347.278 216.639L347.506 216.681L347.503 216.903C347.5 217.132 347.269 217.167 347.183 217.18L346.879 217.226C347.225 217.385 347.543 217.599 347.82 217.858C357.81 229.733 363.006 268.658 369.604 311.661C369.641 312.01 369.598 312.363 369.478 312.693C369.358 313.024 369.165 313.324 368.913 313.571C368.675 313.828 368.385 314.035 368.063 314.179C367.741 314.324 367.393 314.401 367.039 314.409L352.471 314.76C351.831 314.774 351.207 314.558 350.717 314.151C350.226 313.745 349.902 313.176 349.804 312.551L339.991 256.511C339.923 256.073 339.716 255.668 339.399 255.355C339.083 255.042 338.673 254.836 338.23 254.769C337.788 254.701 337.334 254.775 336.937 254.98C336.54 255.184 336.219 255.509 336.021 255.906C328.104 271.839 320.721 285.617 313.45 313.107C313.306 313.664 312.979 314.159 312.519 314.512C312.059 314.865 311.494 315.057 310.912 315.058C310.712 315.058 310.513 315.035 310.318 314.991Z" fill="#2F2E41"/>
<path d="M322.185 223.535C321.878 223.32 321.621 223.044 321.431 222.723C321.241 222.403 321.122 222.046 321.082 221.677C319.214 204.449 320.515 190.966 325.058 180.459C325.858 178.647 327.063 177.038 328.583 175.752C330.103 174.466 331.898 173.538 333.834 173.036L345.62 172.448L345.681 172.477C348.341 173.765 350.51 175.865 351.867 178.466C353.223 181.068 353.696 184.032 353.213 186.92C349.423 196.795 346.248 207.076 348.669 215.37C348.771 215.717 348.8 216.08 348.756 216.439C348.712 216.797 348.595 217.143 348.413 217.456C348.236 217.758 347.998 218.021 347.714 218.229C347.43 218.437 347.106 218.585 346.762 218.664L324.313 223.942C323.949 224.027 323.572 224.035 323.205 223.965C322.838 223.895 322.49 223.748 322.185 223.535Z" fill="#3C5C7B"/>
<path d="M317.113 198.811L294.507 181.187C294.326 181.25 294.143 181.303 293.958 181.347C293.16 181.532 292.332 181.548 291.527 181.396C290.722 181.243 289.959 180.925 289.287 180.462C288.61 179.998 288.041 179.397 287.619 178.699C287.196 178.001 286.929 177.222 286.836 176.413C286.684 175.121 286.979 173.816 287.672 172.71C288.365 171.604 289.416 170.762 290.655 170.321C291.427 170.047 292.25 169.937 293.069 169.999C293.888 170.061 294.684 170.294 295.405 170.681C296.127 171.069 296.757 171.602 297.256 172.247C297.754 172.892 298.109 173.634 298.297 174.424C298.355 174.674 298.395 174.928 298.418 175.184L320.922 188.013L326.522 184.827L332.726 192.853L324.031 198.978C323.013 199.689 321.79 200.057 320.544 200.027C319.298 199.997 318.094 199.571 317.113 198.811Z" fill="#FFB8B8"/>
<path d="M335.484 195.353L322.586 186.685L328.648 178.201C329.453 177.074 330.635 176.265 331.985 175.917C333.335 175.568 334.766 175.702 336.026 176.295C337.3 176.896 338.316 177.926 338.888 179.202C339.461 180.477 339.553 181.912 339.149 183.249L335.484 195.353Z" fill="#3C5C7B"/>
<path d="M341.687 168.098C348.872 168.098 354.697 162.342 354.697 155.241C354.697 148.139 348.872 142.383 341.687 142.383C334.501 142.383 328.676 148.139 328.676 155.241C328.676 162.342 334.501 168.098 341.687 168.098Z" fill="#FFB8B8"/>
<path d="M336.916 153.326C333.572 155.588 329.181 157.913 325.765 155.504C323.523 153.922 322.816 150.994 323.725 148.424C325.361 143.802 329.854 141.767 334.151 140.207C339.737 138.18 345.819 136.567 351.585 138.019C357.351 139.471 362.448 144.988 361.407 150.778C360.57 155.434 356.125 159.309 356.756 163.996C357.391 168.714 362.76 171.198 367.5 172.041C372.24 172.884 377.544 173.155 380.95 176.52C385.296 180.812 384.211 188.483 380.122 193.015C376.033 197.546 369.862 199.601 363.883 200.997C355.961 202.847 347.393 203.819 339.869 200.749C332.346 197.678 326.491 189.413 328.67 181.662C329.591 178.388 331.759 175.621 333.855 172.928C335.951 170.234 338.074 167.417 338.873 164.113C339.54 161.359 339.046 158.161 337.198 156.095C336.862 155.734 336.651 155.276 336.594 154.788C336.538 154.301 336.639 153.808 336.883 153.38L336.916 153.326Z" fill="#2F2E41"/>
</g>
<path d="M543.941 91.7709C545.833 91.7709 547.367 90.2551 547.367 88.3854C547.367 86.5157 545.833 85 543.941 85C542.049 85 540.516 86.5157 540.516 88.3854C540.516 90.2551 542.049 91.7709 543.941 91.7709Z" fill="#B2AFAF"/>
<path d="M543.941 105.263C545.833 105.263 547.367 103.747 547.367 101.878C547.367 100.008 545.833 98.4922 543.941 98.4922C542.049 98.4922 540.516 100.008 540.516 101.878C540.516 103.747 542.049 105.263 543.941 105.263Z" fill="#B2AFAF"/>
<path d="M543.941 118.755C545.833 118.755 547.367 117.24 547.367 115.37C547.367 113.5 545.833 111.984 543.941 111.984C542.049 111.984 540.516 113.5 540.516 115.37C540.516 117.24 542.049 118.755 543.941 118.755Z" fill="#B2AFAF"/>
<path d="M543.941 132.247C545.833 132.247 547.367 130.732 547.367 128.862C547.367 126.992 545.833 125.477 543.941 125.477C542.049 125.477 540.516 126.992 540.516 128.862C540.516 130.732 542.049 132.247 543.941 132.247Z" fill="#ADADAD"/>
<path d="M529.637 91.7709C531.529 91.7709 533.062 90.2551 533.062 88.3854C533.062 86.5157 531.529 85 529.637 85C527.745 85 526.211 86.5157 526.211 88.3854C526.211 90.2551 527.745 91.7709 529.637 91.7709Z" fill="#B2AFAF"/>
<path d="M529.637 105.263C531.529 105.263 533.062 103.747 533.062 101.878C533.062 100.008 531.529 98.4922 529.637 98.4922C527.745 98.4922 526.211 100.008 526.211 101.878C526.211 103.747 527.745 105.263 529.637 105.263Z" fill="#B2AFAF"/>
<path d="M529.637 118.755C531.529 118.755 533.062 117.24 533.062 115.37C533.062 113.5 531.529 111.984 529.637 111.984C527.745 111.984 526.211 113.5 526.211 115.37C526.211 117.24 527.745 118.755 529.637 118.755Z" fill="#B2AFAF"/>
<path d="M529.637 132.247C531.529 132.247 533.062 130.732 533.062 128.862C533.062 126.992 531.529 125.477 529.637 125.477C527.745 125.477 526.211 126.992 526.211 128.862C526.211 130.732 527.745 132.247 529.637 132.247Z" fill="#ADADAD"/>
<path d="M515.332 91.7709C517.224 91.7709 518.758 90.2551 518.758 88.3854C518.758 86.5157 517.224 85 515.332 85C513.44 85 511.906 86.5157 511.906 88.3854C511.906 90.2551 513.44 91.7709 515.332 91.7709Z" fill="#B2AFAF"/>
<path d="M515.332 105.263C517.224 105.263 518.758 103.747 518.758 101.878C518.758 100.008 517.224 98.4922 515.332 98.4922C513.44 98.4922 511.906 100.008 511.906 101.878C511.906 103.747 513.44 105.263 515.332 105.263Z" fill="#FB7A7A"/>
<path d="M515.332 118.755C517.224 118.755 518.758 117.24 518.758 115.37C518.758 113.5 517.224 111.984 515.332 111.984C513.44 111.984 511.906 113.5 511.906 115.37C511.906 117.24 513.44 118.755 515.332 118.755Z" fill="#B2AFAF"/>
<path d="M515.332 132.247C517.224 132.247 518.758 130.732 518.758 128.862C518.758 126.992 517.224 125.477 515.332 125.477C513.44 125.477 511.906 126.992 511.906 128.862C511.906 130.732 513.44 132.247 515.332 132.247Z" fill="#ADADAD"/>
<path d="M501.031 91.7709C502.923 91.7709 504.457 90.2551 504.457 88.3854C504.457 86.5157 502.923 85 501.031 85C499.139 85 497.605 86.5157 497.605 88.3854C497.605 90.2551 499.139 91.7709 501.031 91.7709Z" fill="#B2AFAF"/>
<path d="M501.031 105.263C502.923 105.263 504.457 103.747 504.457 101.878C504.457 100.008 502.923 98.4922 501.031 98.4922C499.139 98.4922 497.605 100.008 497.605 101.878C497.605 103.747 499.139 105.263 501.031 105.263Z" fill="#0BA800"/>
<path d="M501.031 118.755C502.923 118.755 504.457 117.24 504.457 115.37C504.457 113.5 502.923 111.984 501.031 111.984C499.139 111.984 497.605 113.5 497.605 115.37C497.605 117.24 499.139 118.755 501.031 118.755Z" fill="#B2AFAF"/>
<path d="M501.031 132.247C502.923 132.247 504.457 130.732 504.457 128.862C504.457 126.992 502.923 125.477 501.031 125.477C499.139 125.477 497.605 126.992 497.605 128.862C497.605 130.732 499.139 132.247 501.031 132.247Z" fill="#ADADAD"/>
<path d="M486.73 91.7709C488.622 91.7709 490.156 90.2551 490.156 88.3854C490.156 86.5157 488.622 85 486.73 85C484.838 85 483.305 86.5157 483.305 88.3854C483.305 90.2551 484.838 91.7709 486.73 91.7709Z" fill="#B2AFAF"/>
<path d="M486.73 105.263C488.622 105.263 490.156 103.747 490.156 101.878C490.156 100.008 488.622 98.4922 486.73 98.4922C484.838 98.4922 483.305 100.008 483.305 101.878C483.305 103.747 484.838 105.263 486.73 105.263Z" fill="#B2AFAF"/>
<path d="M486.73 118.755C488.622 118.755 490.156 117.24 490.156 115.37C490.156 113.5 488.622 111.984 486.73 111.984C484.838 111.984 483.305 113.5 483.305 115.37C483.305 117.24 484.838 118.755 486.73 118.755Z" fill="#B2AFAF"/>
<path d="M486.73 132.247C488.622 132.247 490.156 130.732 490.156 128.862C490.156 126.992 488.622 125.477 486.73 125.477C484.838 125.477 483.305 126.992 483.305 128.862C483.305 130.732 484.838 132.247 486.73 132.247Z" fill="#ADADAD"/>
<path d="M472.426 91.7709C474.318 91.7709 475.851 90.2551 475.851 88.3854C475.851 86.5157 474.318 85 472.426 85C470.534 85 469 86.5157 469 88.3854C469 90.2551 470.534 91.7709 472.426 91.7709Z" fill="#949494"/>
<path d="M472.426 105.263C474.318 105.263 475.851 103.747 475.851 101.878C475.851 100.008 474.318 98.4922 472.426 98.4922C470.534 98.4922 469 100.008 469 101.878C469 103.747 470.534 105.263 472.426 105.263Z" fill="#B2AFAF"/>
<path d="M472.426 118.755C474.318 118.755 475.851 117.24 475.851 115.37C475.851 113.5 474.318 111.984 472.426 111.984C470.534 111.984 469 113.5 469 115.37C469 117.24 470.534 118.755 472.426 118.755Z" fill="#B2AFAF"/>
<path d="M472.426 132.247C474.318 132.247 475.851 130.732 475.851 128.862C475.851 126.992 474.318 125.477 472.426 125.477C470.534 125.477 469 126.992 469 128.862C469 130.732 470.534 132.247 472.426 132.247Z" fill="#ADADAD"/>
<g clip-path="url(#clip2_1239_13962)">
<path d="M582.696 368.117L581.051 382.073L576.97 416.739H494.973C495.613 408.97 496.488 397.786 497.423 385.713C497.516 384.508 497.612 383.294 497.704 382.073C500.049 351.726 502.615 317.384 502.615 317.384L513.395 319.524L534.31 323.669L542.833 325.357L565.655 329.886C577.034 332.139 584.861 349.699 582.696 368.117Z" fill="#F2F2F2"/>
<path d="M520.674 261.226L530.757 280.031L511.377 294.67L503.109 271.554L520.674 261.226Z" fill="#FFB6B6"/>
<path d="M507.836 279.017C521.632 279.017 532.816 267.097 532.816 252.394C532.816 237.69 521.632 225.771 507.836 225.771C494.039 225.771 482.855 237.69 482.855 252.394C482.855 267.097 494.039 279.017 507.836 279.017Z" fill="#FFB6B6"/>
<path d="M506.042 258.345C504.058 255.128 504.837 253.445 503.176 252.263C503.176 252.263 502.508 251.787 497.726 251.516C496.655 243.302 495.318 242.306 495.318 242.306C493.778 241.158 491.492 241.531 490.069 242.233C487.061 243.718 487.41 246.926 485.385 247.54C482.587 248.388 477.496 243.608 476.995 238.135C476.586 233.672 479.284 229.336 480.355 229.566C481.416 229.793 483.956 226.336 485.328 226.39C486.265 226.426 490.093 224.653 491.123 224.791C492.247 224.943 495.955 227.005 496.109 226.534C497.183 223.26 496.867 222.351 497.779 221.415C499.393 219.755 502.034 220.911 506.177 221.531C514.701 222.808 516.189 219.812 520.558 221.843C522.764 222.869 524.611 225.635 528.214 231.125C533.253 238.803 535.772 242.642 535.788 247.12C535.805 251.687 533.73 251.397 532.818 258.157C531.804 265.683 533.959 269.124 531.605 271.568C529.785 273.458 526.085 273.907 524.141 272.248C520.814 269.409 525.169 262.558 521.486 257.552C519.226 254.48 514.68 253.113 512.597 254.631C510.242 256.349 511.54 261.389 509.884 261.867C508.466 262.277 506.388 258.906 506.042 258.345Z" fill="#2F2E41"/>
<path d="M564.233 363.201C563.536 375.898 560.769 379.907 559.799 394.902C559.587 398.194 559.46 402.015 559.46 406.572C559.46 407.734 559.466 408.857 559.466 409.955C559.466 412.291 559.424 414.499 559.169 416.739C558.976 418.527 558.643 420.328 558.092 422.226H504.29C504.284 422.213 504.284 422.2 504.278 422.187C503.963 420.728 503.763 419.334 503.612 417.998C503.563 417.572 503.52 417.152 503.484 416.739C503.436 416.255 503.393 415.777 503.351 415.306C503.187 413.428 503.024 411.652 502.636 409.955C502.116 407.611 501.171 405.404 499.232 403.274C498.439 402.402 497.646 401.725 496.871 401.131C496.719 401.021 496.574 400.911 496.422 400.802C494.278 399.233 492.249 398.103 490.493 394.902C490.463 394.857 490.438 394.805 490.414 394.76C490.111 394.198 489.324 392.726 488.754 390.764C488.155 388.724 487.791 386.162 488.446 383.541C490.002 377.331 495.768 376.712 500.48 370.437C500.989 369.76 501.492 369.011 501.97 368.178C504.102 364.486 504.677 361.233 505.356 357.366C505.465 356.74 505.562 356.12 505.64 355.52C505.701 355.068 505.756 354.623 505.798 354.183C506.173 350.498 505.992 347.322 505.55 344.482C504.108 335.18 499.856 329.422 502.86 321.076C503.806 318.455 505.144 316.486 506.494 314.802C509.353 311.232 512.291 308.915 511.782 304.306C511.267 299.658 507.96 299.019 507.591 294.959C507.403 292.906 508.033 290.744 509.214 288.62V288.614C512.994 281.778 522.43 275.484 528.426 275.684C529.534 275.717 530.515 275.981 531.333 276.491C534.295 278.35 533.059 282.41 537.596 288.104C540.969 292.332 544.785 294.023 546.233 294.823C551.968 298.012 556.632 307.417 559.799 319.443C559.823 319.533 559.848 319.623 559.872 319.72C561.829 327.253 563.21 335.806 563.894 344.482C564.184 348.155 564.354 351.847 564.39 355.5C564.421 358.418 564.36 360.949 564.233 363.201Z" fill="#004385"/>
<path d="M523.946 406.702L522.849 409.955L522.159 411.995L520.56 416.739L518.706 422.226H506.793L508.792 416.739L509.718 414.183L511.257 409.955L513.837 402.854L523.946 406.702Z" fill="#FFB6B6"/>
<path d="M559.988 318.333C559.958 318.752 559.915 319.217 559.872 319.721C559.4 324.846 558.285 334.018 556.657 344.482C555.797 350.001 554.791 355.881 553.658 361.723C551.224 374.33 548.196 386.743 544.773 394.902C544.162 396.374 543.532 397.703 542.889 398.878C542.399 399.775 541.884 400.66 541.345 401.531C539.601 404.391 537.644 407.102 535.615 409.632C535.537 409.742 535.446 409.845 535.355 409.955C535.028 410.368 534.689 410.775 534.35 411.181C532.69 413.176 530.994 415.035 529.353 416.739C527.354 418.818 525.428 420.657 523.702 422.226H504.357L504.278 422.187L501.492 420.87C501.492 420.87 502.285 419.876 503.612 417.998C503.885 417.617 504.175 417.197 504.49 416.739C504.878 416.177 505.296 415.558 505.744 414.886C506.676 413.479 507.736 411.827 508.875 409.955C511.08 406.334 513.593 401.88 516.131 396.722C516.422 396.122 516.718 395.515 517.015 394.902C517.021 394.883 517.034 394.863 517.04 394.844C517.542 393.798 518.039 392.72 518.536 391.623C522.745 382.289 523.95 374.543 524.296 372.032C524.78 368.482 525.452 363.517 525.271 358.057C525.149 354.455 524.659 350.646 523.49 346.864V346.857C523.248 346.063 522.975 345.27 522.666 344.482C522.115 343.068 521.461 341.674 520.686 340.299C517.264 334.244 514.484 333.992 512.273 327.395C511.619 325.44 510.135 321.024 510.589 316.364V316.358C510.644 315.783 510.735 315.202 510.856 314.621V314.615C510.886 314.453 510.929 314.286 510.971 314.124C511.316 312.698 511.886 311.284 512.751 309.941C514.441 307.333 516.749 305.784 518.814 304.861L518.821 304.855C521.207 303.796 523.266 303.57 523.666 303.531C532.514 302.692 539.377 310.619 543.126 314.95C544.573 316.622 545.9 318.023 547.111 319.165C556.541 328.138 559.128 322.406 559.8 319.443C559.903 318.985 559.958 318.591 559.988 318.333Z" fill="#004385"/>
<path d="M560.019 317.997C560.019 318.029 560.013 318.139 559.988 318.32C560 318.223 560.007 318.126 560.013 318.036C560.013 318.016 560.013 318.003 560.019 317.997Z" fill="#004385"/>
<path d="M223.375 262.463L243.837 253.285L252.613 272.46L231.111 281.814L223.375 262.463Z" fill="#FFB6B6"/>
<path opacity="0.1" d="M223.375 262.463L243.837 253.285L252.613 272.46L231.111 281.814L223.375 262.463Z" fill="black"/>
<path d="M226.285 255.156L246.471 279.943C246.471 279.943 232.428 327.179 218.386 331.388C204.344 335.597 178.453 356.175 178.453 356.175L145.98 333.726L161.778 308.939C161.778 308.939 199.955 253.285 210.048 253.285C220.141 253.285 226.285 255.156 226.285 255.156Z" fill="#D8ECFF"/>
<path d="M199.01 416.74H152.021L149.05 412.507L136.921 395.226L134.131 391.251C134.131 391.251 123.599 370.673 125.793 351.966C127.987 333.259 150.806 329.05 150.806 329.05H151.745L179.68 355.212L178.013 379.559L186.859 395.226L199.01 416.74Z" fill="#2F2E41"/>
<path d="M161.645 416.74H149.051V396.863L161.645 416.74Z" fill="#2F2E41"/>
<path d="M433.283 386.564L431.716 395.226L427.828 416.739H349.723C350.333 411.917 351.166 404.977 352.057 397.485C352.145 396.736 352.237 395.983 352.325 395.226C354.558 376.392 357.003 355.08 357.003 355.08L367.271 356.408L387.194 358.981L395.312 360.028L417.051 362.839C427.89 364.237 435.345 375.134 433.283 386.564Z" fill="#F2F2F2"/>
<path d="M543.817 416.739H501.453C502.098 415.93 502.462 415.463 502.462 415.463L515.162 413.227L541.329 408.625C541.329 408.625 542.522 411.913 543.817 416.739Z" fill="#2F2E41"/>
<path d="M364.123 271.817L382.547 299.585L350.41 300.608L346.961 274.513L364.123 271.817Z" fill="#A0616A"/>
<path opacity="0.1" d="M364.123 271.817L382.547 299.585L350.41 300.608L346.961 274.513L364.123 271.817Z" fill="black"/>
<path d="M273.267 329.351C270.903 322.083 265.468 317.492 261.129 319.096C256.789 320.7 255.189 327.891 257.554 335.161C258.462 338.079 260.012 340.723 262.075 342.871L272.456 373.53L285.851 368.032L274.196 338.391C274.568 335.342 274.25 332.242 273.267 329.351Z" fill="#A0616A"/>
<path d="M397.976 315.201L397.951 343.5L395.48 353.953L390.399 375.452L386.699 395.226L383.944 409.958L382.961 415.219C382.219 415.747 381.482 416.253 380.745 416.739H316.558C312.912 414.405 310.871 412.591 310.871 412.591C310.871 412.591 311.88 411.58 313.034 409.958C314.983 407.217 317.339 402.727 315.896 398.439C315.593 397.541 315.514 396.446 315.606 395.226C316.194 387.172 324.119 373.553 324.119 373.553L322.478 353.34L321.758 344.482L326.832 301.292L343.372 291.045L346.227 290.751L374.412 289.128L386.062 289.843L386.593 289.998L397.976 315.201Z" fill="#CCCCCC"/>
<path d="M399.229 416.739H385.187L384.568 409.958L384.555 409.822L388.53 409.532L398.873 408.779L399.053 412.839L399.194 415.954L399.229 416.739Z" fill="#FFB6B6"/>
<path d="M402.685 322.044L408.583 358.93L403.77 395.226L403.019 400.876L401.694 410.851L401.286 413.919L401.299 414.252L401.4 416.74H384.725L384.11 409.958L384.058 409.35L382.803 395.46L382.781 395.226L380.117 365.772L385.339 344.483L385.725 342.916V342.912L387.997 306.461L386.238 289.896L386.22 289.741C386.255 289.765 386.286 289.788 386.321 289.811C386.413 289.872 386.505 289.933 386.593 289.998C396.844 296.93 402.952 309.089 402.685 322.044Z" fill="#CCCCCC"/>
<path d="M332.804 308.361L326.392 301.292C326.392 301.292 312.665 307.887 311.98 311.547C311.296 315.206 287.059 368.948 287.059 368.948L276.515 338.933L262.789 348.7C262.789 348.7 273.802 395.299 284.102 397.487C294.402 399.675 328.923 342.332 328.923 342.332L332.804 308.361Z" fill="#CCCCCC"/>
<path d="M593.178 394.901H93.8161C86.7479 394.901 81 401.034 81 408.567C81 416.099 86.7479 422.225 93.8161 422.225H593.178C600.246 422.225 606 416.1 606 408.567C606 401.033 600.246 394.901 593.178 394.901Z" fill="#EFE9DE"/>
<path d="M395.054 353.262L394.083 401.547C393.989 406.221 390.407 409.958 386.02 409.958H302.678C298.395 409.958 294.86 406.389 294.626 401.832L292.149 353.547C291.896 348.623 295.575 344.482 300.202 344.482H386.991C391.513 344.482 395.151 348.444 395.054 353.262Z" fill="#3F3D56"/>
<path d="M260.51 274.118C271.522 274.118 280.45 264.604 280.45 252.867C280.45 241.131 271.522 231.616 260.51 231.616C249.498 231.616 240.57 241.131 240.57 252.867C240.57 264.604 249.498 274.118 260.51 274.118Z" fill="#FFB6B6"/>
<path d="M227.162 308.472L229.356 333.727L244.276 397.799L231.386 402.614L209.609 332.791L206.602 304.73L227.162 308.472Z" fill="#FFB6B6"/>
<path d="M221.226 353.262L220.255 401.547C220.161 406.221 216.579 409.958 212.192 409.958H128.85C124.567 409.958 121.031 406.389 120.798 401.832L118.321 353.547C118.068 348.623 121.747 344.482 126.374 344.482H213.163C217.684 344.482 221.323 348.444 221.226 353.262Z" fill="#3F3D56"/>
<path d="M246.65 410.284C255.347 410.284 262.397 406.96 262.397 402.861C262.397 398.761 255.347 395.438 246.65 395.438C237.953 395.438 230.902 398.761 230.902 402.861C230.902 406.96 237.953 410.284 246.65 410.284Z" fill="#FFB6B6"/>
<path d="M196.223 312.333L205.218 261.236C205.218 261.236 230.231 257.495 231.109 266.38C231.987 275.266 230.482 318.693 230.482 318.693L196.223 312.333Z" fill="#D8ECFF"/>
<path d="M252.463 256.209C252.463 256.209 264.797 251.517 270.001 248.993C275.204 246.469 285.54 264.076 285.77 254.777C286 245.478 282.428 241.578 282.428 241.578C282.428 241.578 281.536 221.235 262.306 223.779C262.306 223.779 266.536 213.601 252.651 212.027C238.767 210.453 217.165 246.187 219.1 251.528C221.035 256.868 223.354 261.283 217.865 266.993C212.377 272.703 202.099 304.929 209.919 313.6C217.738 322.272 218.251 326.035 212.894 331.43C207.536 336.825 194.872 348.555 208.565 350.591C222.257 352.628 207.312 351.107 217.52 341.537C227.728 331.968 242.623 332.359 237.062 317.006C231.5 301.652 241.163 279.651 239.954 276.313C238.745 272.976 242.663 251.781 242.663 251.781C242.663 251.781 251.781 250.353 252.463 256.209Z" fill="#2F2E41"/>
<path d="M354.272 281.868C366.26 281.868 375.978 271.511 375.978 258.735C375.978 245.959 366.26 235.602 354.272 235.602C342.284 235.602 332.566 245.959 332.566 258.735C332.566 271.511 342.284 281.868 354.272 281.868Z" fill="#A0616A"/>
<path d="M356.006 227.633C355.378 228.024 354.537 227.433 354.335 226.688C354.134 225.943 354.369 225.153 354.601 224.418L355.772 220.721C356.603 218.099 357.484 215.386 359.283 213.39C361.998 210.378 366.313 209.612 370.198 210.167C375.186 210.88 380.108 213.759 382.427 218.519C384.746 223.279 383.759 229.922 379.568 232.892C385.541 240.188 387.623 248.32 387.294 257.996C386.966 267.673 377.071 276.578 370.619 283.395C369.178 282.464 367.868 278.102 368.66 276.517C369.452 274.932 368.317 273.096 369.298 271.636C370.28 270.176 371.101 272.5 370.109 271.049C369.483 270.133 371.926 268.026 370.996 267.477C366.494 264.826 364.997 258.846 362.17 254.268C358.761 248.745 352.925 245.004 346.749 244.384C343.346 244.042 339.753 244.661 336.964 246.766C334.176 248.871 332.37 252.633 333.017 256.209C331.342 254.397 330.509 251.741 330.823 249.219C331.138 246.698 332.593 244.366 334.654 243.083C333.401 238.667 334.474 233.587 337.383 230.17C340.291 226.752 352.089 227.334 356.335 228.234L356.006 227.633Z" fill="#2F2E41"/>
<path d="M356.664 244.518C362.288 245.165 366.348 250.356 369.777 255.151C371.753 257.914 373.823 260.966 373.773 264.44C373.723 267.952 371.52 270.965 370.466 274.294C368.745 279.735 370.423 286.208 374.52 289.936C370.472 290.755 366.095 287.519 365.396 283.191C364.582 278.152 368.166 273.289 367.742 268.196C367.368 263.709 364.05 260.256 361.229 256.901C358.409 253.547 355.76 249.095 357.058 244.808L356.664 244.518Z" fill="#2F2E41"/>
<path d="M440.734 397.825C435.164 401.202 432.283 407.002 434.3 410.78C436.317 414.557 442.466 414.882 448.038 411.503C450.281 410.186 452.196 408.316 453.621 406.048L477.053 391.424L470.379 379.852L447.989 395.497C445.43 395.645 442.943 396.443 440.734 397.825Z" fill="#FFB6B6"/>
<path d="M520.07 290.585C519.37 290.289 513.226 287.809 507.617 291.083C501.174 294.844 500.178 303.429 499.829 306.441C499.023 313.396 501.398 314.956 501.9 321.997C502.838 335.172 505.312 320.142 501.361 326.156C499.994 328.238 486.027 360.495 478.325 366.814C463.345 379.102 453.832 387.757 453.832 387.757L464.692 400.329C464.692 400.329 481.853 395.456 497.02 384.96C512.579 374.193 520.358 368.809 526.377 358.278C526.895 357.371 539.296 334.926 532.636 310.108C531.117 304.447 528.334 294.075 520.07 290.585Z" fill="#004385"/>
<path d="M576.148 353.262L575.177 401.547C575.083 406.221 571.501 409.958 567.114 409.958H483.772C479.489 409.958 475.953 406.389 475.72 401.832L473.243 353.547C472.99 348.623 476.668 344.482 481.295 344.482H568.085C572.606 344.482 576.244 348.444 576.148 353.262Z" fill="#3F3D56"/>
</g>
</g>
<rect x="11.5" y="11.5" width="599" height="421" rx="7.5" stroke="#E2E2E2" shape-rendering="crispEdges"/>
</g>
<defs>
<filter id="filter0_d_1239_13962" x="0" y="0" width="630" height="452" filterUnits="userSpaceOnUse" color-interpolation-filters="sRGB">
<feFlood flood-opacity="0" result="BackgroundImageFix"/>
<feColorMatrix in="SourceAlpha" type="matrix" values="0 0 0 0 0 0 0 0 0 0 0 0 0 0 0 0 0 0 127 0" result="hardAlpha"/>
<feOffset dx="4" dy="4"/>
<feGaussianBlur stdDeviation="7.5"/>
<feComposite in2="hardAlpha" operator="out"/>
<feColorMatrix type="matrix" values="0 0 0 0 0 0 0 0 0 0 0 0 0 0 0 0 0 0 0.2 0"/>
<feBlend mode="normal" in2="BackgroundImageFix" result="effect1_dropShadow_1239_13962"/>
<feBlend mode="normal" in="SourceGraphic" in2="effect1_dropShadow_1239_13962" result="shape"/>
</filter>
<filter id="filter1_f_1239_13962" x="-24" y="96" width="481" height="248" filterUnits="userSpaceOnUse" color-interpolation-filters="sRGB">
<feFlood flood-opacity="0" result="BackgroundImageFix"/>
<feBlend mode="normal" in="SourceGraphic" in2="BackgroundImageFix" result="shape"/>
<feGaussianBlur stdDeviation="1.5" result="effect1_foregroundBlur_1239_13962"/>
</filter>
<clipPath id="clip0_1239_13962">
<rect x="11" y="11" width="600" height="422" rx="8" fill="white"/>
</clipPath>
<clipPath id="clip1_1239_13962">
<rect width="475" height="242" fill="white" transform="translate(-21 99)"/>
</clipPath>
<clipPath id="clip2_1239_13962">
<rect width="525" height="286" fill="white" transform="translate(81 210)"/>
</clipPath>
</defs>
</svg>
