<svg width="600" height="422" viewBox="0 0 600 422" fill="none" xmlns="http://www.w3.org/2000/svg">
<g clip-path="url(#clip0_1587_14403)">
<rect x="500" width="100" height="422" fill="#70ADC1" fill-opacity="0.34"/>
<g clip-path="url(#clip1_1587_14403)" filter="url(#filter0_f_1587_14403)">
<path d="M442.369 329.946H-31.3691C-31.5361 329.945 -31.6961 329.879 -31.8139 329.763C-31.9318 329.646 -31.998 329.488 -31.998 329.323C-31.998 329.158 -31.9318 328.999 -31.8139 328.882C-31.6961 328.766 -31.5361 328.7 -31.3691 328.699H442.369C442.536 328.7 442.696 328.766 442.814 328.882C442.932 328.999 442.998 329.158 442.998 329.323C442.998 329.488 442.932 329.646 442.814 329.763C442.696 329.879 442.536 329.945 442.369 329.946Z" fill="#3F3D56"/>
<path d="M116.513 118.074C118.405 118.074 119.938 116.558 119.938 114.688C119.938 112.818 118.405 111.303 116.513 111.303C114.621 111.303 113.087 112.818 113.087 114.688C113.087 116.558 114.621 118.074 116.513 118.074Z" fill="#F2F2F2"/>
<path d="M102.859 118.074C104.751 118.074 106.285 116.558 106.285 114.688C106.285 112.818 104.751 111.303 102.859 111.303C100.967 111.303 99.4336 112.818 99.4336 114.688C99.4336 116.558 100.967 118.074 102.859 118.074Z" fill="#F2F2F2"/>
<path d="M89.207 118.074C91.099 118.074 92.6327 116.558 92.6327 114.688C92.6327 112.818 91.099 111.303 89.207 111.303C87.315 111.303 85.7812 112.818 85.7812 114.688C85.7812 116.558 87.315 118.074 89.207 118.074Z" fill="#F2F2F2"/>
<path d="M75.5537 118.074C77.4456 118.074 78.9794 116.558 78.9794 114.688C78.9794 112.818 77.4456 111.303 75.5537 111.303C73.6617 111.303 72.1279 112.818 72.1279 114.688C72.1279 116.558 73.6617 118.074 75.5537 118.074Z" fill="#F2F2F2"/>
<path d="M116.513 132.208C118.405 132.208 119.938 130.693 119.938 128.823C119.938 126.953 118.405 125.438 116.513 125.438C114.621 125.438 113.087 126.953 113.087 128.823C113.087 130.693 114.621 132.208 116.513 132.208Z" fill="#944CFF"/>
<path d="M102.859 132.208C104.751 132.208 106.285 130.693 106.285 128.823C106.285 126.953 104.751 125.438 102.859 125.438C100.967 125.438 99.4336 126.953 99.4336 128.823C99.4336 130.693 100.967 132.208 102.859 132.208Z" fill="#F2F2F2"/>
<path d="M89.207 132.208C91.099 132.208 92.6327 130.693 92.6327 128.823C92.6327 126.953 91.099 125.438 89.207 125.438C87.315 125.438 85.7812 126.953 85.7812 128.823C85.7812 130.693 87.315 132.208 89.207 132.208Z" fill="#F2F2F2"/>
<path d="M75.5537 132.208C77.4456 132.208 78.9794 130.693 78.9794 128.823C78.9794 126.953 77.4456 125.438 75.5537 125.438C73.6617 125.438 72.1279 126.953 72.1279 128.823C72.1279 130.693 73.6617 132.208 75.5537 132.208Z" fill="#F2F2F2"/>
<path d="M116.513 146.343C118.405 146.343 119.938 144.827 119.938 142.957C119.938 141.087 118.405 139.572 116.513 139.572C114.621 139.572 113.087 141.087 113.087 142.957C113.087 144.827 114.621 146.343 116.513 146.343Z" fill="#F2F2F2"/>
<path d="M102.859 146.343C104.751 146.343 106.285 144.827 106.285 142.957C106.285 141.087 104.751 139.572 102.859 139.572C100.967 139.572 99.4336 141.087 99.4336 142.957C99.4336 144.827 100.967 146.343 102.859 146.343Z" fill="#F2F2F2"/>
<path d="M89.207 146.343C91.099 146.343 92.6327 144.827 92.6327 142.957C92.6327 141.087 91.099 139.572 89.207 139.572C87.315 139.572 85.7812 141.087 85.7812 142.957C85.7812 144.827 87.315 146.343 89.207 146.343Z" fill="#F2F2F2"/>
<path d="M75.5537 146.343C77.4456 146.343 78.9794 144.827 78.9794 142.957C78.9794 141.087 77.4456 139.572 75.5537 139.572C73.6617 139.572 72.1279 141.087 72.1279 142.957C72.1279 144.827 73.6617 146.343 75.5537 146.343Z" fill="#F2F2F2"/>
<path d="M116.513 160.477C118.405 160.477 119.938 158.962 119.938 157.092C119.938 155.222 118.405 153.707 116.513 153.707C114.621 153.707 113.087 155.222 113.087 157.092C113.087 158.962 114.621 160.477 116.513 160.477Z" fill="#F2F2F2"/>
<path d="M102.859 160.477C104.751 160.477 106.285 158.962 106.285 157.092C106.285 155.222 104.751 153.707 102.859 153.707C100.967 153.707 99.4336 155.222 99.4336 157.092C99.4336 158.962 100.967 160.477 102.859 160.477Z" fill="#F2F2F2"/>
<path d="M89.207 160.477C91.099 160.477 92.6327 158.962 92.6327 157.092C92.6327 155.222 91.099 153.707 89.207 153.707C87.315 153.707 85.7812 155.222 85.7812 157.092C85.7812 158.962 87.315 160.477 89.207 160.477Z" fill="#F2F2F2"/>
<path d="M75.5537 160.477C77.4456 160.477 78.9794 158.962 78.9794 157.092C78.9794 155.222 77.4456 153.707 75.5537 153.707C73.6617 153.707 72.1279 155.222 72.1279 157.092C72.1279 158.962 73.6617 160.477 75.5537 160.477Z" fill="#F2F2F2"/>
<path d="M116.513 174.612C118.405 174.612 119.938 173.096 119.938 171.226C119.938 169.357 118.405 167.841 116.513 167.841C114.621 167.841 113.087 169.357 113.087 171.226C113.087 173.096 114.621 174.612 116.513 174.612Z" fill="#F2F2F2"/>
<path d="M102.859 174.612C104.751 174.612 106.285 173.096 106.285 171.226C106.285 169.357 104.751 167.841 102.859 167.841C100.967 167.841 99.4336 169.357 99.4336 171.226C99.4336 173.096 100.967 174.612 102.859 174.612Z" fill="#F2F2F2"/>
<path d="M89.207 174.612C91.099 174.612 92.6327 173.096 92.6327 171.226C92.6327 169.357 91.099 167.841 89.207 167.841C87.315 167.841 85.7812 169.357 85.7812 171.226C85.7812 173.096 87.315 174.612 89.207 174.612Z" fill="#F2F2F2"/>
<path d="M75.5537 174.612C77.4456 174.612 78.9794 173.096 78.9794 171.226C78.9794 169.357 77.4456 167.841 75.5537 167.841C73.6617 167.841 72.1279 169.357 72.1279 171.226C72.1279 173.096 73.6617 174.612 75.5537 174.612Z" fill="#F2F2F2"/>
<path d="M116.513 188.746C118.405 188.746 119.938 187.231 119.938 185.361C119.938 183.491 118.405 181.976 116.513 181.976C114.621 181.976 113.087 183.491 113.087 185.361C113.087 187.231 114.621 188.746 116.513 188.746Z" fill="#F2F2F2"/>
<path d="M102.859 188.746C104.751 188.746 106.285 187.231 106.285 185.361C106.285 183.491 104.751 181.976 102.859 181.976C100.967 181.976 99.4336 183.491 99.4336 185.361C99.4336 187.231 100.967 188.746 102.859 188.746Z" fill="#F2F2F2"/>
<path d="M89.207 188.746C91.099 188.746 92.6327 187.231 92.6327 185.361C92.6327 183.491 91.099 181.976 89.207 181.976C87.315 181.976 85.7812 183.491 85.7812 185.361C85.7812 187.231 87.315 188.746 89.207 188.746Z" fill="#F2F2F2"/>
<path d="M75.5537 188.746C77.4456 188.746 78.9794 187.231 78.9794 185.361C78.9794 183.491 77.4456 181.976 75.5537 181.976C73.6617 181.976 72.1279 183.491 72.1279 185.361C72.1279 187.231 73.6617 188.746 75.5537 188.746Z" fill="#F2F2F2"/>
<path d="M86.4102 277.717V278.764C86.4117 280.499 87.1098 282.163 88.3513 283.39C89.5928 284.616 91.2761 285.306 93.0318 285.308H140.708C142.464 285.307 144.148 284.618 145.389 283.391C146.631 282.164 147.329 280.499 147.33 278.764V277.717C147.333 276.186 146.789 274.703 145.793 273.529C145.462 273.139 145.087 272.788 144.676 272.482C144.676 272.482 118.464 271.896 118.464 271.173H93.0318C91.2764 271.176 89.5936 271.866 88.3523 273.093C87.111 274.319 86.4126 275.982 86.4102 277.717Z" fill="#CCCCCC"/>
<path d="M120.697 285.048H113.811V329.022H120.697V285.048Z" fill="#CCCCCC"/>
<path d="M140.297 328.783C140.297 329.518 129.862 329.067 116.989 329.067C104.116 329.067 93.6807 329.518 93.6807 328.783C93.6807 328.047 104.116 322.216 116.989 322.216C129.862 322.216 140.297 328.047 140.297 328.783Z" fill="#CCCCCC"/>
<path d="M130.829 276.829C131.326 276.17 131.671 275.411 131.84 274.606C132.008 273.801 131.995 272.969 131.803 272.169C131.611 271.369 131.243 270.62 130.727 269.976C130.21 269.332 129.557 268.807 128.813 268.439L114.217 219.29L103.103 224.669L120.944 271.29C120.402 272.566 120.352 273.994 120.804 275.305C121.256 276.615 122.179 277.716 123.397 278.398C124.616 279.081 126.045 279.299 127.415 279.009C128.785 278.72 130 277.944 130.829 276.829Z" fill="#A0616A"/>
<path d="M117.523 227.498L105.084 230.826C104.73 230.92 104.359 230.939 103.998 230.879C103.636 230.819 103.291 230.684 102.988 230.481C102.684 230.278 102.428 230.012 102.237 229.703C102.047 229.393 101.926 229.047 101.883 228.687L100.379 216.077C99.8995 214.285 100.158 212.378 101.099 210.774C102.04 209.17 103.586 208 105.398 207.521C107.211 207.042 109.141 207.292 110.767 208.217C112.393 209.143 113.581 210.667 114.071 212.457L119.195 224.055C119.342 224.388 119.414 224.747 119.408 225.109C119.401 225.472 119.315 225.828 119.157 226.155C118.998 226.482 118.77 226.771 118.488 227.002C118.206 227.234 117.877 227.403 117.523 227.498Z" fill="#3C5C7B"/>
<path d="M134.08 323.629L140.575 323.628L143.665 306.983H134.079L134.08 323.629Z" fill="#A0616A"/>
<path d="M132.424 321.533L145.214 321.533H145.214C146.285 321.533 147.344 321.741 148.333 322.146C149.322 322.551 150.221 323.144 150.978 323.892C151.735 324.64 152.335 325.528 152.745 326.505C153.154 327.482 153.365 328.53 153.365 329.587V329.849L132.424 329.85L132.424 321.533Z" fill="#2F2E41"/>
<path d="M141.618 314.702C141.543 314.702 141.467 314.699 141.391 314.692L132.403 314.045C132.039 314.012 131.688 313.896 131.377 313.708C131.066 313.519 130.803 313.262 130.608 312.957C130.413 312.653 130.291 312.307 130.253 311.949C130.214 311.59 130.259 311.227 130.385 310.889L142.413 284.182C142.499 283.944 142.534 283.691 142.516 283.439C142.499 283.187 142.428 282.941 142.309 282.717C142.191 282.491 142.025 282.291 141.823 282.133C141.622 281.974 141.388 281.859 141.138 281.796C135.482 280.335 120.97 276.444 108.408 271.892C103.026 269.942 99.6358 267.123 98.3327 263.515C96.6147 258.758 99.1563 254.42 99.2653 254.238L99.3505 254.095L111.171 255.157L123.986 256.234L152.069 271.116C154.422 272.374 156.21 274.461 157.076 276.963C157.941 279.464 157.822 282.196 156.741 284.614L143.794 313.306C143.606 313.722 143.301 314.075 142.915 314.322C142.529 314.57 142.079 314.702 141.618 314.702Z" fill="#2F2E41"/>
<path d="M113.227 202.32C120.412 202.32 126.237 196.564 126.237 189.463C126.237 182.362 120.412 176.605 113.227 176.605C106.041 176.605 100.216 182.362 100.216 189.463C100.216 196.564 106.041 202.32 113.227 202.32Z" fill="#A0616A"/>
<path d="M130.372 323.105L136.867 323.105L139.957 306.459H130.371L130.372 323.105Z" fill="#A0616A"/>
<path d="M128.716 321.01L141.506 321.009H141.506C142.577 321.009 143.636 321.218 144.625 321.622C145.614 322.027 146.513 322.62 147.27 323.368C148.026 324.116 148.627 325.004 149.036 325.982C149.446 326.959 149.657 328.006 149.657 329.064V329.326L128.716 329.327L128.716 321.01Z" fill="#2F2E41"/>
<path d="M137.91 316.273C137.835 316.273 137.759 316.27 137.683 316.262L128.695 315.616C128.331 315.582 127.98 315.467 127.669 315.278C127.358 315.09 127.095 314.833 126.9 314.528C126.705 314.223 126.583 313.878 126.545 313.519C126.506 313.161 126.551 312.798 126.677 312.459L138.705 285.753C138.791 285.515 138.826 285.262 138.808 285.01C138.791 284.758 138.72 284.512 138.601 284.288C138.483 284.061 138.317 283.862 138.115 283.703C137.914 283.545 137.68 283.43 137.43 283.367C131.774 281.906 117.262 278.015 104.7 273.463C99.3175 271.513 95.9278 268.694 94.6247 265.086C92.9067 260.329 95.4483 255.991 95.5573 255.809L95.6425 255.666L107.463 256.728L120.278 257.805L148.361 272.687C150.714 273.945 152.502 276.032 153.368 278.533C154.233 281.035 154.114 283.767 153.033 286.185L140.086 314.877C139.898 315.292 139.593 315.645 139.207 315.893C138.821 316.141 138.371 316.273 137.91 316.273Z" fill="#2F2E41"/>
<path d="M117.239 209.611L103.466 204.9C103.466 204.9 94.82 211.465 98.9736 227.75C101.142 236.154 100.51 245.025 97.1725 253.046C96.7706 254.038 96.3073 255.005 95.7852 255.941C95.7852 255.941 111.147 274.264 125.45 260.653L119.888 234.216C119.888 234.216 128.629 216.679 117.239 209.611Z" fill="#2F2E41"/>
<path d="M114.842 202.758C112.99 200.019 111.529 196.221 113.568 193.615C115.58 191.042 119.55 191.421 122.632 190.283C126.925 188.697 129.415 183.713 128.638 179.25C127.862 174.786 124.236 171.086 119.917 169.572C115.597 168.058 110.727 168.55 106.497 170.294C101.29 172.44 96.8232 176.592 94.9502 181.851C93.0772 187.11 94.0785 193.424 97.964 197.467C102.13 201.8 108.668 202.955 114.716 202.885" fill="#2F2E41"/>
<path d="M102.74 179.393C100.406 181.27 96.8462 180.436 94.3414 178.789C91.8367 177.141 89.8042 174.795 87.0941 173.504C82.3163 171.227 76.5398 172.74 71.8898 175.263C67.2399 177.785 63.1179 181.27 58.2061 183.249C53.2944 185.229 47.0267 185.327 43.3074 181.589C42.3922 184.21 42.3174 187.045 43.0932 189.71C43.869 192.374 45.4577 194.736 47.6425 196.475C49.8273 198.214 52.5018 199.245 55.301 199.426C58.1003 199.607 60.888 198.931 63.2838 197.489C68.6656 194.249 71.6383 187.456 77.6745 185.668C81.0148 184.679 84.6015 185.476 87.9774 186.339C91.3533 187.202 94.8734 188.135 98.2803 187.4C101.687 186.665 104.874 183.64 104.44 180.22L102.74 179.393Z" fill="#2F2E41"/>
<path d="M145.094 300.545C143.716 291.702 143.716 282.702 145.094 273.859C145.181 273.333 145.455 272.854 145.866 272.509C146.277 272.163 146.799 271.973 147.338 271.972H168.46C168.802 271.971 169.14 272.047 169.448 272.194C169.756 272.342 170.026 272.557 170.238 272.823C170.453 273.093 170.604 273.408 170.678 273.744C170.752 274.08 170.748 274.428 170.665 274.762C168.689 282.941 168.689 291.464 170.665 299.642C170.748 299.976 170.752 300.324 170.678 300.66C170.604 300.996 170.453 301.311 170.238 301.581C170.026 301.847 169.756 302.062 169.448 302.21C169.14 302.357 168.802 302.434 168.46 302.433H147.338C146.799 302.431 146.277 302.241 145.866 301.896C145.455 301.55 145.181 301.071 145.094 300.545Z" fill="#3C5C7B"/>
<path d="M161.96 284.89H150.876C150.455 284.89 150.051 284.724 149.753 284.43C149.455 284.135 149.288 283.736 149.287 283.32V282.706C149.288 282.29 149.455 281.891 149.753 281.596C150.051 281.302 150.455 281.136 150.876 281.136H161.96C162.382 281.136 162.786 281.302 163.083 281.596C163.381 281.891 163.549 282.29 163.549 282.706V283.32C163.549 283.736 163.381 284.135 163.083 284.43C162.786 284.724 162.382 284.89 161.96 284.89Z" fill="white"/>
<path d="M161.96 291.352H150.876C150.455 291.352 150.051 291.186 149.753 290.892C149.455 290.597 149.288 290.198 149.287 289.782V289.168C149.288 288.752 149.455 288.353 149.753 288.058C150.051 287.764 150.455 287.598 150.876 287.598H161.96C162.382 287.598 162.786 287.764 163.083 288.058C163.381 288.353 163.549 288.752 163.549 289.168V289.782C163.549 290.198 163.381 290.597 163.083 290.892C162.786 291.186 162.382 291.352 161.96 291.352Z" fill="white"/>
<path d="M150.648 274.474C150.963 273.712 151.105 272.892 151.065 272.071C151.024 271.25 150.801 270.448 150.413 269.721C150.025 268.994 149.48 268.36 148.816 267.863C148.153 267.367 147.388 267.02 146.575 266.848L120.016 222.861L110.614 230.814L139.677 271.551C139.474 272.92 139.787 274.316 140.556 275.473C141.325 276.63 142.496 277.468 143.849 277.828C145.201 278.188 146.64 278.046 147.894 277.428C149.147 276.809 150.127 275.758 150.648 274.474Z" fill="#A0616A"/>
<path d="M125.293 229.992L114.089 236.285C113.77 236.464 113.416 236.574 113.051 236.605C112.686 236.637 112.318 236.59 111.972 236.469C111.627 236.347 111.312 236.154 111.049 235.901C110.786 235.648 110.581 235.343 110.449 235.005L105.805 223.166C104.887 221.549 104.656 219.638 105.162 217.853C105.667 216.068 106.868 214.553 108.502 213.642C110.136 212.731 112.068 212.497 113.876 212.991C115.684 213.486 117.22 214.669 118.147 216.28L126.041 226.246C126.267 226.531 126.428 226.861 126.514 227.214C126.599 227.566 126.606 227.933 126.535 228.288C126.464 228.644 126.316 228.98 126.102 229.274C125.887 229.568 125.611 229.813 125.293 229.992Z" fill="#2F2E41"/>
<path d="M244.504 245.443H29.4316C28.5183 245.443 27.6425 245.801 26.9968 246.44C26.3511 247.078 25.9883 247.943 25.9883 248.846C25.9883 249.748 26.3511 250.614 26.9968 251.252C27.6425 251.89 28.5183 252.248 29.4316 252.248H35.5235V326.324C35.5235 327.226 35.8863 328.092 36.532 328.73C37.1778 329.368 38.0536 329.727 38.9668 329.727C39.88 329.727 40.7558 329.368 41.4016 328.73C42.0473 328.092 42.4101 327.226 42.4101 326.324V258.787L81.0124 327.93C81.47 328.71 82.2219 329.278 83.1031 329.51C83.9842 329.743 84.9227 329.62 85.7126 329.17C86.5024 328.719 87.079 327.977 87.316 327.107C87.5529 326.236 87.4308 325.309 86.9763 324.527L46.6234 252.248H230.996V252.292L190.667 324.527C190.211 325.309 190.087 326.237 190.323 327.109C190.56 327.981 191.137 328.724 191.928 329.175C192.719 329.627 193.658 329.749 194.54 329.515C195.422 329.282 196.175 328.711 196.631 327.93L230.996 266.378V326.324C230.996 327.226 231.358 328.092 232.004 328.73C232.65 329.368 233.526 329.727 234.439 329.727C235.352 329.727 236.228 329.368 236.874 328.73C237.519 328.092 237.882 327.226 237.882 326.324V254.043L238.884 252.248H244.504C245.417 252.248 246.293 251.89 246.939 251.252C247.584 250.614 247.947 249.748 247.947 248.846C247.947 247.943 247.584 247.078 246.939 246.44C246.293 245.801 245.417 245.443 244.504 245.443Z" fill="#3F3D56"/>
<path d="M155.509 243.349H113.66C112.636 243.349 111.806 244.169 111.806 245.181C111.806 246.193 112.636 247.013 113.66 247.013H155.509C156.533 247.013 157.363 246.193 157.363 245.181C157.363 244.169 156.533 243.349 155.509 243.349Z" fill="#CCCCCC"/>
<path d="M183.585 247.013H136.438C135.525 247.012 134.65 246.653 134.005 246.015C133.359 245.378 132.996 244.513 132.995 243.61V217.959C132.996 217.057 133.359 216.192 134.005 215.554C134.65 214.916 135.525 214.557 136.438 214.556H183.585C184.498 214.557 185.373 214.916 186.018 215.554C186.664 216.192 187.027 217.057 187.028 217.959V243.61C187.027 244.513 186.664 245.378 186.018 246.015C185.373 246.653 184.498 247.012 183.585 247.013Z" fill="#CCCCCC"/>
<path d="M160.011 233.926C161.767 233.926 163.19 232.52 163.19 230.785C163.19 229.05 161.767 227.644 160.011 227.644C158.256 227.644 156.833 229.05 156.833 230.785C156.833 232.52 158.256 233.926 160.011 233.926Z" fill="white"/>
<path d="M219.564 183.812V91.9375C219.566 90.8936 219.986 89.8927 220.733 89.1546C221.48 88.4164 222.492 88.0012 223.549 88H297.038C298.094 88.0012 299.107 88.4164 299.854 89.1546C300.601 89.8927 301.021 90.8936 301.023 91.9375V183.812C301.021 184.856 300.601 185.857 299.854 186.595C299.107 187.333 298.094 187.748 297.038 187.749H223.549C222.492 187.748 221.48 187.333 220.733 186.595C219.986 185.857 219.566 184.856 219.564 183.812ZM223.549 88.875C222.727 88.8759 221.94 89.1989 221.359 89.773C220.778 90.3471 220.451 91.1255 220.45 91.9375V183.812C220.451 184.624 220.778 185.402 221.359 185.977C221.94 186.551 222.727 186.874 223.549 186.874H297.038C297.86 186.874 298.647 186.551 299.228 185.977C299.809 185.402 300.136 184.624 300.137 183.812V91.9375C300.136 91.1255 299.809 90.3471 299.228 89.773C298.647 89.1989 297.86 88.8759 297.038 88.875H223.549Z" fill="#E6E6E6"/>
<path d="M264.415 130.193V111.328C264.416 110.806 264.626 110.306 264.999 109.937C265.373 109.568 265.879 109.36 266.407 109.359H282.584C283.112 109.36 283.618 109.568 283.992 109.937C284.365 110.306 284.575 110.806 284.576 111.328V130.193C284.575 130.715 284.365 131.215 283.992 131.584C283.618 131.953 283.112 132.161 282.584 132.162H266.407C265.879 132.161 265.373 131.953 264.999 131.584C264.626 131.215 264.416 130.715 264.415 130.193Z" fill="#DEC8FF"/>
<path d="M232.982 138.943V120.078C232.983 119.556 233.193 119.056 233.567 118.687C233.94 118.318 234.446 118.11 234.975 118.109H251.151C251.679 118.11 252.186 118.318 252.559 118.687C252.933 119.056 253.143 119.556 253.143 120.078V138.943C253.143 139.465 252.933 139.965 252.559 140.334C252.186 140.703 251.679 140.911 251.151 140.912H234.975C234.446 140.911 233.94 140.703 233.567 140.334C233.193 139.965 232.983 139.465 232.982 138.943Z" fill="#CCCCCC"/>
<path d="M258.217 165.63V146.766C258.217 146.244 258.427 145.743 258.801 145.374C259.174 145.005 259.681 144.797 260.209 144.797H276.385C276.914 144.797 277.42 145.005 277.794 145.374C278.167 145.743 278.377 146.244 278.378 146.766V165.63C278.377 166.152 278.167 166.653 277.794 167.022C277.42 167.391 276.914 167.599 276.385 167.599H260.209C259.681 167.599 259.174 167.391 258.801 167.022C258.427 166.653 258.217 166.152 258.217 165.63Z" fill="#FF3838"/>
<path d="M381.586 97.5736C383.478 97.5736 385.012 96.0579 385.012 94.1882C385.012 92.3184 383.478 90.8027 381.586 90.8027C379.694 90.8027 378.16 92.3184 378.16 94.1882C378.16 96.0579 379.694 97.5736 381.586 97.5736Z" fill="#F2F2F2"/>
<path d="M381.586 111.066C383.478 111.066 385.012 109.55 385.012 107.68C385.012 105.811 383.478 104.295 381.586 104.295C379.694 104.295 378.16 105.811 378.16 107.68C378.16 109.55 379.694 111.066 381.586 111.066Z" fill="#F2F2F2"/>
<path d="M381.586 124.558C383.478 124.558 385.012 123.042 385.012 121.173C385.012 119.303 383.478 117.787 381.586 117.787C379.694 117.787 378.16 119.303 378.16 121.173C378.16 123.042 379.694 124.558 381.586 124.558Z" fill="#F2F2F2"/>
<path d="M381.586 138.051C383.478 138.051 385.012 136.535 385.012 134.665C385.012 132.795 383.478 131.28 381.586 131.28C379.694 131.28 378.16 132.795 378.16 134.665C378.16 136.535 379.694 138.051 381.586 138.051Z" fill="#F2F2F2"/>
<path d="M367.283 97.5736C369.175 97.5736 370.709 96.0579 370.709 94.1882C370.709 92.3184 369.175 90.8027 367.283 90.8027C365.391 90.8027 363.857 92.3184 363.857 94.1882C363.857 96.0579 365.391 97.5736 367.283 97.5736Z" fill="#F2F2F2"/>
<path d="M367.283 111.066C369.175 111.066 370.709 109.55 370.709 107.68C370.709 105.811 369.175 104.295 367.283 104.295C365.391 104.295 363.857 105.811 363.857 107.68C363.857 109.55 365.391 111.066 367.283 111.066Z" fill="#F2F2F2"/>
<path d="M367.283 124.558C369.175 124.558 370.709 123.042 370.709 121.173C370.709 119.303 369.175 117.787 367.283 117.787C365.391 117.787 363.857 119.303 363.857 121.173C363.857 123.042 365.391 124.558 367.283 124.558Z" fill="#F2F2F2"/>
<path d="M367.283 138.051C369.175 138.051 370.709 136.535 370.709 134.665C370.709 132.795 369.175 131.28 367.283 131.28C365.391 131.28 363.857 132.795 363.857 134.665C363.857 136.535 365.391 138.051 367.283 138.051Z" fill="#F2F2F2"/>
<path d="M352.98 97.5736C354.872 97.5736 356.406 96.0579 356.406 94.1882C356.406 92.3184 354.872 90.8027 352.98 90.8027C351.088 90.8027 349.555 92.3184 349.555 94.1882C349.555 96.0579 351.088 97.5736 352.98 97.5736Z" fill="#F2F2F2"/>
<path d="M352.98 111.066C354.872 111.066 356.406 109.55 356.406 107.68C356.406 105.811 354.872 104.295 352.98 104.295C351.088 104.295 349.555 105.811 349.555 107.68C349.555 109.55 351.088 111.066 352.98 111.066Z" fill="#F2F2F2"/>
<path d="M352.98 124.558C354.872 124.558 356.406 123.042 356.406 121.173C356.406 119.303 354.872 117.787 352.98 117.787C351.088 117.787 349.555 119.303 349.555 121.173C349.555 123.042 351.088 124.558 352.98 124.558Z" fill="#F2F2F2"/>
<path d="M352.98 138.051C354.872 138.051 356.406 136.535 356.406 134.665C356.406 132.795 354.872 131.28 352.98 131.28C351.088 131.28 349.555 132.795 349.555 134.665C349.555 136.535 351.088 138.051 352.98 138.051Z" fill="#F2F2F2"/>
<path d="M338.677 97.5736C340.569 97.5736 342.102 96.0579 342.102 94.1882C342.102 92.3184 340.569 90.8027 338.677 90.8027C336.785 90.8027 335.251 92.3184 335.251 94.1882C335.251 96.0579 336.785 97.5736 338.677 97.5736Z" fill="#F2F2F2"/>
<path d="M338.677 111.066C340.569 111.066 342.102 109.55 342.102 107.68C342.102 105.811 340.569 104.295 338.677 104.295C336.785 104.295 335.251 105.811 335.251 107.68C335.251 109.55 336.785 111.066 338.677 111.066Z" fill="#0BA800"/>
<path d="M338.677 124.558C340.569 124.558 342.102 123.042 342.102 121.173C342.102 119.303 340.569 117.787 338.677 117.787C336.785 117.787 335.251 119.303 335.251 121.173C335.251 123.042 336.785 124.558 338.677 124.558Z" fill="#F2F2F2"/>
<path d="M338.677 138.051C340.569 138.051 342.102 136.535 342.102 134.665C342.102 132.795 340.569 131.28 338.677 131.28C336.785 131.28 335.251 132.795 335.251 134.665C335.251 136.535 336.785 138.051 338.677 138.051Z" fill="#F2F2F2"/>
<path d="M324.374 97.5736C326.266 97.5736 327.8 96.0579 327.8 94.1882C327.8 92.3184 326.266 90.8027 324.374 90.8027C322.482 90.8027 320.948 92.3184 320.948 94.1882C320.948 96.0579 322.482 97.5736 324.374 97.5736Z" fill="#F2F2F2"/>
<path d="M324.374 111.066C326.266 111.066 327.8 109.55 327.8 107.68C327.8 105.811 326.266 104.295 324.374 104.295C322.482 104.295 320.948 105.811 320.948 107.68C320.948 109.55 322.482 111.066 324.374 111.066Z" fill="#F2F2F2"/>
<path d="M324.374 124.558C326.266 124.558 327.8 123.042 327.8 121.173C327.8 119.303 326.266 117.787 324.374 117.787C322.482 117.787 320.948 119.303 320.948 121.173C320.948 123.042 322.482 124.558 324.374 124.558Z" fill="#F2F2F2"/>
<path d="M324.374 138.051C326.266 138.051 327.8 136.535 327.8 134.665C327.8 132.795 326.266 131.28 324.374 131.28C322.482 131.28 320.948 132.795 320.948 134.665C320.948 136.535 322.482 138.051 324.374 138.051Z" fill="#F2F2F2"/>
<path d="M310.071 97.5736C311.963 97.5736 313.497 96.0579 313.497 94.1882C313.497 92.3184 311.963 90.8027 310.071 90.8027C308.179 90.8027 306.646 92.3184 306.646 94.1882C306.646 96.0579 308.179 97.5736 310.071 97.5736Z" fill="#F2F2F2"/>
<path d="M310.071 111.066C311.963 111.066 313.497 109.55 313.497 107.68C313.497 105.811 311.963 104.295 310.071 104.295C308.179 104.295 306.646 105.811 306.646 107.68C306.646 109.55 308.179 111.066 310.071 111.066Z" fill="#F2F2F2"/>
<path d="M310.071 124.558C311.963 124.558 313.497 123.042 313.497 121.173C313.497 119.303 311.963 117.787 310.071 117.787C308.179 117.787 306.646 119.303 306.646 121.173C306.646 123.042 308.179 124.558 310.071 124.558Z" fill="#F2F2F2"/>
<path d="M310.071 138.051C311.963 138.051 313.497 136.535 313.497 134.665C313.497 132.795 311.963 131.28 310.071 131.28C308.179 131.28 306.646 132.795 306.646 134.665C306.646 136.535 308.179 138.051 310.071 138.051Z" fill="#F2F2F2"/>
<path d="M323.873 214.296C323.592 213.534 323.478 212.721 323.536 211.912C323.595 211.102 323.827 210.315 324.215 209.6C324.604 208.885 325.141 208.259 325.791 207.764C326.441 207.268 327.19 206.914 327.988 206.724C328.241 206.665 328.498 206.624 328.757 206.601L341.631 184.3L338.38 178.781L346.472 172.612L352.663 181.109C353.401 182.131 353.787 183.36 353.762 184.615C353.737 185.87 353.303 187.084 352.525 188.076L334.851 210.437C334.915 210.615 334.97 210.796 335.015 210.979C335.207 211.768 335.228 212.588 335.076 213.386C334.925 214.183 334.604 214.94 334.136 215.607C333.668 216.274 333.063 216.835 332.36 217.255C331.657 217.674 330.872 217.942 330.057 218.041C329.82 218.07 329.582 218.085 329.344 218.085C328.149 218.081 326.985 217.716 326.007 217.039C325.029 216.361 324.285 215.404 323.873 214.296Z" fill="#FFB8B8"/>
<path d="M298.756 324.041L292.261 324.04L289.172 299.285L298.757 299.285L298.756 324.041Z" fill="#FFB8B8"/>
<path d="M287.622 322.206H300.147V329.999H279.736C279.736 328.976 279.94 327.963 280.337 327.017C280.733 326.071 281.314 325.212 282.046 324.489C282.778 323.765 283.648 323.191 284.605 322.799C285.561 322.408 286.587 322.206 287.622 322.206Z" fill="#2F2E41"/>
<path d="M352.259 324.041L345.764 324.04L342.675 299.285L352.26 299.285L352.259 324.041Z" fill="#FFB8B8"/>
<path d="M341.125 322.206H353.65V329.999H333.239C333.239 328.976 333.443 327.963 333.84 327.017C334.236 326.071 334.817 325.212 335.549 324.489C336.281 323.765 337.151 323.191 338.107 322.799C339.064 322.408 340.09 322.206 341.125 322.206Z" fill="#2F2E41"/>
<path d="M348.273 173.817L333.692 179.293L330.132 169.521C329.659 168.223 329.666 166.802 330.151 165.509C330.636 164.216 331.568 163.134 332.782 162.454C334.01 161.766 335.446 161.535 336.832 161.802C338.218 162.07 339.461 162.818 340.337 163.911L348.273 173.817Z" fill="#3C5C7B"/>
<path d="M299.316 303.991L287.087 301.234C286.437 301.087 285.867 300.701 285.493 300.156C285.118 299.61 284.966 298.944 285.068 298.293C289.975 267.558 294.695 249.56 306.861 226.703C307.031 226.276 308.931 217.626 310.171 211.895C310.156 211.264 310.375 210.649 310.786 210.165C311.196 209.681 311.771 209.361 312.403 209.265L335.205 205.797C335.549 205.679 335.912 205.625 336.276 205.638L336.504 205.681L336.501 205.902C336.498 206.131 336.267 206.166 336.181 206.18L335.877 206.226C336.223 206.385 336.541 206.598 336.818 206.857C346.808 218.732 352.004 257.658 358.602 300.661C358.639 301.01 358.596 301.363 358.476 301.693C358.357 302.023 358.164 302.323 357.911 302.57C357.673 302.828 357.383 303.035 357.061 303.179C356.739 303.323 356.391 303.401 356.037 303.408L341.469 303.759C340.829 303.773 340.206 303.557 339.715 303.151C339.224 302.745 338.9 302.176 338.802 301.551L328.989 245.511C328.921 245.073 328.714 244.668 328.397 244.354C328.081 244.041 327.671 243.836 327.228 243.768C326.786 243.701 326.332 243.775 325.935 243.979C325.538 244.184 325.217 244.508 325.019 244.905C317.102 260.838 309.719 274.617 302.449 302.106C302.304 302.664 301.977 303.158 301.517 303.511C301.057 303.864 300.492 304.056 299.91 304.057C299.71 304.057 299.511 304.035 299.316 303.991Z" fill="#2F2E41"/>
<path d="M311.186 212.535C310.879 212.321 310.622 212.044 310.432 211.724C310.242 211.404 310.123 211.047 310.082 210.678C308.215 193.449 309.516 179.967 314.059 169.46C314.859 167.648 316.064 166.038 317.584 164.752C319.104 163.467 320.899 162.538 322.835 162.037L334.621 161.449L334.682 161.478C337.342 162.765 339.511 164.865 340.868 167.467C342.224 170.068 342.697 173.033 342.214 175.92C338.424 185.795 335.249 196.077 337.67 204.371C337.772 204.717 337.801 205.081 337.757 205.439C337.713 205.798 337.596 206.143 337.414 206.456C337.237 206.758 336.999 207.021 336.715 207.229C336.431 207.437 336.107 207.585 335.763 207.665L313.314 212.942C312.95 213.028 312.573 213.036 312.206 212.966C311.839 212.895 311.491 212.749 311.186 212.535Z" fill="#3C5C7B"/>
<path d="M306.113 187.812L283.507 170.188C283.326 170.25 283.143 170.304 282.958 170.348C282.16 170.532 281.332 170.549 280.527 170.396C279.722 170.243 278.959 169.925 278.287 169.462C277.61 168.999 277.041 168.398 276.619 167.7C276.196 167.001 275.929 166.222 275.836 165.414C275.684 164.121 275.979 162.817 276.672 161.711C277.365 160.605 278.416 159.763 279.655 159.321C280.427 159.047 281.25 158.938 282.069 159C282.888 159.062 283.684 159.294 284.405 159.682C285.127 160.069 285.757 160.603 286.256 161.248C286.754 161.892 287.109 162.634 287.297 163.424C287.355 163.674 287.395 163.928 287.418 164.184L309.922 177.014L315.522 173.828L321.726 181.854L313.031 187.979C312.013 188.69 310.79 189.057 309.544 189.027C308.298 188.997 307.094 188.571 306.113 187.812Z" fill="#FFB8B8"/>
<path d="M324.484 184.353L311.586 175.685L317.648 167.201C318.453 166.074 319.635 165.265 320.985 164.917C322.335 164.568 323.766 164.702 325.026 165.295C326.3 165.896 327.316 166.926 327.888 168.202C328.461 169.477 328.553 170.912 328.149 172.249L324.484 184.353Z" fill="#3C5C7B"/>
<path d="M330.688 157.098C337.873 157.098 343.698 151.342 343.698 144.241C343.698 137.139 337.873 131.383 330.688 131.383C323.502 131.383 317.677 137.139 317.677 144.241C317.677 151.342 323.502 157.098 330.688 157.098Z" fill="#FFB8B8"/>
<path d="M325.918 142.325C322.574 144.587 318.183 146.912 314.767 144.503C312.525 142.922 311.818 139.993 312.727 137.423C314.363 132.801 318.856 130.767 323.153 129.207C328.739 127.179 334.821 125.566 340.587 127.018C346.353 128.471 351.45 133.988 350.409 139.778C349.572 144.434 345.127 148.308 345.758 152.996C346.393 157.714 351.762 160.197 356.502 161.04C361.242 161.884 366.546 162.154 369.952 165.519C374.298 169.811 373.213 177.483 369.124 182.014C365.035 186.546 358.864 188.6 352.885 189.996C344.963 191.847 336.395 192.819 328.871 189.748C321.348 186.678 315.493 178.412 317.672 170.662C318.593 167.388 320.761 164.621 322.857 161.927C324.953 159.234 327.076 156.417 327.875 153.112C328.542 150.358 328.048 147.161 326.2 145.095C325.864 144.733 325.653 144.276 325.596 143.788C325.539 143.3 325.641 142.807 325.885 142.38L325.918 142.325Z" fill="#2F2E41"/>
</g>
<path d="M532.939 80.7709C534.831 80.7709 536.365 79.2551 536.365 77.3854C536.365 75.5157 534.831 74 532.939 74C531.047 74 529.514 75.5157 529.514 77.3854C529.514 79.2551 531.047 80.7709 532.939 80.7709Z" fill="#B2AFAF"/>
<path d="M532.939 94.263C534.831 94.263 536.365 92.7473 536.365 90.8776C536.365 89.0079 534.831 87.4922 532.939 87.4922C531.047 87.4922 529.514 89.0079 529.514 90.8776C529.514 92.7473 531.047 94.263 532.939 94.263Z" fill="#B2AFAF"/>
<path d="M532.939 107.755C534.831 107.755 536.365 106.24 536.365 104.37C536.365 102.5 534.831 100.984 532.939 100.984C531.047 100.984 529.514 102.5 529.514 104.37C529.514 106.24 531.047 107.755 532.939 107.755Z" fill="#B2AFAF"/>
<path d="M532.939 121.247C534.831 121.247 536.365 119.732 536.365 117.862C536.365 115.992 534.831 114.477 532.939 114.477C531.047 114.477 529.514 115.992 529.514 117.862C529.514 119.732 531.047 121.247 532.939 121.247Z" fill="#ADADAD"/>
<path d="M518.637 80.7709C520.529 80.7709 522.062 79.2551 522.062 77.3854C522.062 75.5157 520.529 74 518.637 74C516.745 74 515.211 75.5157 515.211 77.3854C515.211 79.2551 516.745 80.7709 518.637 80.7709Z" fill="#B2AFAF"/>
<path d="M518.637 94.263C520.529 94.263 522.062 92.7473 522.062 90.8776C522.062 89.0079 520.529 87.4922 518.637 87.4922C516.745 87.4922 515.211 89.0079 515.211 90.8776C515.211 92.7473 516.745 94.263 518.637 94.263Z" fill="#B2AFAF"/>
<path d="M518.637 107.755C520.529 107.755 522.062 106.24 522.062 104.37C522.062 102.5 520.529 100.984 518.637 100.984C516.745 100.984 515.211 102.5 515.211 104.37C515.211 106.24 516.745 107.755 518.637 107.755Z" fill="#B2AFAF"/>
<path d="M518.637 121.247C520.529 121.247 522.062 119.732 522.062 117.862C522.062 115.992 520.529 114.477 518.637 114.477C516.745 114.477 515.211 115.992 515.211 117.862C515.211 119.732 516.745 121.247 518.637 121.247Z" fill="#ADADAD"/>
<path d="M504.334 80.7709C506.226 80.7709 507.76 79.2551 507.76 77.3854C507.76 75.5157 506.226 74 504.334 74C502.442 74 500.908 75.5157 500.908 77.3854C500.908 79.2551 502.442 80.7709 504.334 80.7709Z" fill="#B2AFAF"/>
<path d="M504.334 94.263C506.226 94.263 507.76 92.7473 507.76 90.8776C507.76 89.0079 506.226 87.4922 504.334 87.4922C502.442 87.4922 500.908 89.0079 500.908 90.8776C500.908 92.7473 502.442 94.263 504.334 94.263Z" fill="#FB7A7A"/>
<path d="M504.334 107.755C506.226 107.755 507.76 106.24 507.76 104.37C507.76 102.5 506.226 100.984 504.334 100.984C502.442 100.984 500.908 102.5 500.908 104.37C500.908 106.24 502.442 107.755 504.334 107.755Z" fill="#B2AFAF"/>
<path d="M504.334 121.247C506.226 121.247 507.76 119.732 507.76 117.862C507.76 115.992 506.226 114.477 504.334 114.477C502.442 114.477 500.908 115.992 500.908 117.862C500.908 119.732 502.442 121.247 504.334 121.247Z" fill="#ADADAD"/>
<path d="M490.031 80.7709C491.923 80.7709 493.457 79.2551 493.457 77.3854C493.457 75.5157 491.923 74 490.031 74C488.139 74 486.605 75.5157 486.605 77.3854C486.605 79.2551 488.139 80.7709 490.031 80.7709Z" fill="#B2AFAF"/>
<path d="M490.031 94.263C491.923 94.263 493.457 92.7473 493.457 90.8776C493.457 89.0079 491.923 87.4922 490.031 87.4922C488.139 87.4922 486.605 89.0079 486.605 90.8776C486.605 92.7473 488.139 94.263 490.031 94.263Z" fill="#0BA800"/>
<path d="M490.031 107.755C491.923 107.755 493.457 106.24 493.457 104.37C493.457 102.5 491.923 100.984 490.031 100.984C488.139 100.984 486.605 102.5 486.605 104.37C486.605 106.24 488.139 107.755 490.031 107.755Z" fill="#B2AFAF"/>
<path d="M490.031 121.247C491.923 121.247 493.457 119.732 493.457 117.862C493.457 115.992 491.923 114.477 490.031 114.477C488.139 114.477 486.605 115.992 486.605 117.862C486.605 119.732 488.139 121.247 490.031 121.247Z" fill="#ADADAD"/>
<path d="M475.728 80.7709C477.62 80.7709 479.154 79.2551 479.154 77.3854C479.154 75.5157 477.62 74 475.728 74C473.836 74 472.303 75.5157 472.303 77.3854C472.303 79.2551 473.836 80.7709 475.728 80.7709Z" fill="#B2AFAF"/>
<path d="M475.728 94.263C477.62 94.263 479.154 92.7473 479.154 90.8776C479.154 89.0079 477.62 87.4922 475.728 87.4922C473.836 87.4922 472.303 89.0079 472.303 90.8776C472.303 92.7473 473.836 94.263 475.728 94.263Z" fill="#B2AFAF"/>
<path d="M475.728 107.755C477.62 107.755 479.154 106.24 479.154 104.37C479.154 102.5 477.62 100.984 475.728 100.984C473.836 100.984 472.303 102.5 472.303 104.37C472.303 106.24 473.836 107.755 475.728 107.755Z" fill="#B2AFAF"/>
<path d="M475.728 121.247C477.62 121.247 479.154 119.732 479.154 117.862C479.154 115.992 477.62 114.477 475.728 114.477C473.836 114.477 472.303 115.992 472.303 117.862C472.303 119.732 473.836 121.247 475.728 121.247Z" fill="#ADADAD"/>
<path d="M461.426 80.7709C463.318 80.7709 464.851 79.2551 464.851 77.3854C464.851 75.5157 463.318 74 461.426 74C459.534 74 458 75.5157 458 77.3854C458 79.2551 459.534 80.7709 461.426 80.7709Z" fill="#949494"/>
<path d="M461.426 94.263C463.318 94.263 464.851 92.7473 464.851 90.8776C464.851 89.0079 463.318 87.4922 461.426 87.4922C459.534 87.4922 458 89.0079 458 90.8776C458 92.7473 459.534 94.263 461.426 94.263Z" fill="#B2AFAF"/>
<path d="M461.426 107.755C463.318 107.755 464.851 106.24 464.851 104.37C464.851 102.5 463.318 100.984 461.426 100.984C459.534 100.984 458 102.5 458 104.37C458 106.24 459.534 107.755 461.426 107.755Z" fill="#B2AFAF"/>
<path d="M461.426 121.247C463.318 121.247 464.851 119.732 464.851 117.862C464.851 115.992 463.318 114.477 461.426 114.477C459.534 114.477 458 115.992 458 117.862C458 119.732 459.534 121.247 461.426 121.247Z" fill="#ADADAD"/>
<g clip-path="url(#clip2_1587_14403)">
<path d="M571.697 357.117L570.052 371.073L565.971 405.739H483.974C484.614 397.97 485.489 386.786 486.424 374.713C486.517 373.508 486.613 372.294 486.705 371.073C489.05 340.726 491.616 306.384 491.616 306.384L502.396 308.524L523.311 312.669L531.834 314.357L554.656 318.886C566.035 321.139 573.862 338.699 571.697 357.117Z" fill="#F2F2F2"/>
<path d="M509.674 250.225L519.757 269.031L500.377 283.669L492.109 260.553L509.674 250.225Z" fill="#FFB6B6"/>
<path d="M496.837 268.017C510.633 268.017 521.817 256.097 521.817 241.394C521.817 226.69 510.633 214.771 496.837 214.771C483.04 214.771 471.856 226.69 471.856 241.394C471.856 256.097 483.04 268.017 496.837 268.017Z" fill="#FFB6B6"/>
<path d="M495.043 247.346C493.059 244.128 493.838 242.445 492.177 241.263C492.177 241.263 491.509 240.787 486.727 240.516C485.656 232.303 484.319 231.307 484.319 231.307C482.779 230.159 480.493 230.532 479.07 231.234C476.062 232.719 476.411 235.926 474.386 236.54C471.588 237.388 466.497 232.608 465.996 227.136C465.587 222.672 468.285 218.337 469.356 218.566C470.417 218.794 472.957 215.337 474.329 215.39C475.266 215.426 479.094 213.653 480.124 213.792C481.248 213.943 484.956 216.005 485.11 215.534C486.184 212.26 485.868 211.352 486.78 210.415C488.394 208.756 491.035 209.911 495.178 210.532C503.702 211.809 505.19 208.813 509.559 210.843C511.765 211.869 513.612 214.635 517.215 220.126C522.254 227.804 524.773 231.643 524.789 236.121C524.806 240.687 522.731 240.397 521.819 247.158C520.805 254.683 522.96 258.124 520.605 260.569C518.785 262.458 515.086 262.907 513.142 261.249C509.815 258.409 514.17 251.558 510.487 246.553C508.227 243.48 503.681 242.113 501.598 243.632C499.243 245.349 500.541 250.39 498.885 250.868C497.467 251.277 495.389 247.906 495.043 247.346Z" fill="#2F2E41"/>
<path d="M553.233 352.201C552.536 364.898 549.769 368.907 548.799 383.902C548.587 387.194 548.46 391.015 548.46 395.572C548.46 396.734 548.466 397.857 548.466 398.955C548.466 401.291 548.424 403.499 548.169 405.739C547.976 407.527 547.643 409.328 547.092 411.226H493.29C493.284 411.213 493.284 411.2 493.278 411.187C492.963 409.728 492.763 408.334 492.612 406.998C492.563 406.572 492.52 406.152 492.484 405.739C492.436 405.255 492.393 404.777 492.351 404.306C492.187 402.428 492.024 400.652 491.636 398.955C491.116 396.611 490.171 394.404 488.232 392.274C487.439 391.402 486.646 390.725 485.871 390.131C485.719 390.021 485.574 389.911 485.422 389.802C483.278 388.233 481.249 387.103 479.493 383.902C479.463 383.857 479.438 383.805 479.414 383.76C479.111 383.198 478.324 381.726 477.754 379.764C477.155 377.724 476.791 375.162 477.446 372.541C479.002 366.331 484.768 365.712 489.48 359.437C489.989 358.76 490.492 358.011 490.97 357.178C493.102 353.486 493.677 350.233 494.356 346.366C494.465 345.74 494.562 345.12 494.64 344.52C494.701 344.068 494.756 343.623 494.798 343.183C495.173 339.498 494.992 336.322 494.55 333.482C493.108 324.18 488.856 318.422 491.86 310.076C492.806 307.455 494.144 305.486 495.494 303.802C498.353 300.232 501.291 297.915 500.782 293.306C500.267 288.658 496.96 288.019 496.591 283.959C496.403 281.906 497.033 279.744 498.214 277.62V277.614C501.994 270.778 511.43 264.484 517.426 264.684C518.534 264.717 519.515 264.981 520.333 265.491C523.295 267.35 522.059 271.41 526.596 277.104C529.969 281.332 533.785 283.023 535.233 283.823C540.968 287.012 545.632 296.417 548.799 308.443C548.823 308.533 548.848 308.623 548.872 308.72C550.829 316.253 552.21 324.806 552.894 333.482C553.184 337.155 553.354 340.847 553.39 344.5C553.421 347.418 553.36 349.949 553.233 352.201Z" fill="#004385"/>
<path d="M512.945 395.702L511.848 398.955L511.158 400.995L509.559 405.739L507.705 411.226H495.792L497.791 405.739L498.717 403.183L500.256 398.955L502.836 391.854L512.945 395.702Z" fill="#FFB6B6"/>
<path d="M548.988 307.333C548.958 307.752 548.915 308.217 548.872 308.721C548.4 313.846 547.285 323.018 545.657 333.482C544.797 339.001 543.791 344.881 542.658 350.723C540.224 363.33 537.196 375.743 533.773 383.902C533.162 385.374 532.532 386.703 531.889 387.878C531.399 388.775 530.884 389.66 530.345 390.531C528.601 393.391 526.644 396.102 524.615 398.632C524.537 398.742 524.446 398.845 524.355 398.955C524.028 399.368 523.689 399.775 523.35 400.181C521.69 402.176 519.994 404.035 518.353 405.739C516.354 407.818 514.428 409.657 512.702 411.226H493.357L493.278 411.187L490.492 409.87C490.492 409.87 491.285 408.876 492.612 406.998C492.885 406.617 493.175 406.197 493.49 405.739C493.878 405.177 494.296 404.558 494.744 403.886C495.676 402.479 496.736 400.827 497.875 398.955C500.08 395.334 502.593 390.88 505.131 385.722C505.422 385.122 505.718 384.515 506.015 383.902C506.021 383.883 506.034 383.863 506.04 383.844C506.542 382.798 507.039 381.72 507.536 380.623C511.745 371.289 512.95 363.543 513.296 361.032C513.78 357.482 514.452 352.517 514.271 347.057C514.149 343.455 513.659 339.646 512.49 335.864V335.857C512.248 335.063 511.975 334.27 511.666 333.482C511.115 332.068 510.461 330.674 509.686 329.299C506.264 323.244 503.484 322.992 501.273 316.395C500.619 314.44 499.135 310.024 499.589 305.364V305.358C499.644 304.783 499.735 304.202 499.856 303.621V303.615C499.886 303.453 499.929 303.286 499.971 303.124C500.316 301.698 500.886 300.284 501.751 298.941C503.441 296.333 505.749 294.784 507.814 293.861L507.821 293.855C510.207 292.796 512.266 292.57 512.666 292.531C521.514 291.692 528.377 299.619 532.126 303.95C533.573 305.622 534.9 307.023 536.111 308.165C545.541 317.138 548.128 311.406 548.8 308.443C548.903 307.985 548.958 307.591 548.988 307.333Z" fill="#004385"/>
<path d="M549.018 306.997C549.018 307.029 549.012 307.139 548.987 307.32C548.999 307.223 549.006 307.126 549.012 307.036C549.012 307.016 549.012 307.003 549.018 306.997Z" fill="#004385"/>
<path d="M212.374 251.463L232.836 242.285L241.612 261.46L220.11 270.814L212.374 251.463Z" fill="#FFB6B6"/>
<path opacity="0.1" d="M212.374 251.463L232.836 242.285L241.612 261.46L220.11 270.814L212.374 251.463Z" fill="black"/>
<path d="M215.283 244.156L235.469 268.943C235.469 268.943 221.426 316.179 207.384 320.388C193.342 324.597 167.451 345.175 167.451 345.175L134.979 322.726L150.776 297.939C150.776 297.939 188.954 242.285 199.046 242.285C209.139 242.285 215.283 244.156 215.283 244.156Z" fill="#D8ECFF"/>
<path d="M188.01 405.739H141.021L138.05 401.507L125.921 384.226L123.131 380.251C123.131 380.251 112.599 359.673 114.793 340.966C116.987 322.258 139.806 318.049 139.806 318.049H140.745L168.68 344.211L167.013 368.559L175.859 384.226L188.01 405.739Z" fill="#2F2E41"/>
<path d="M150.645 405.739H138.051V385.863L150.645 405.739Z" fill="#2F2E41"/>
<path d="M422.284 375.565L420.717 384.226L416.829 405.739H338.724C339.334 400.918 340.167 393.977 341.058 386.485C341.146 385.737 341.238 384.984 341.326 384.226C343.559 365.393 346.004 344.081 346.004 344.081L356.272 345.409L376.195 347.981L384.313 349.029L406.052 351.839C416.891 353.238 424.346 364.135 422.284 375.565Z" fill="#F2F2F2"/>
<path d="M532.819 405.739H490.455C491.1 404.93 491.464 404.463 491.464 404.463L504.164 402.227L530.331 397.625C530.331 397.625 531.524 400.913 532.819 405.739Z" fill="#2F2E41"/>
<path d="M353.123 260.817L371.547 288.585L339.41 289.608L335.961 263.512L353.123 260.817Z" fill="#A0616A"/>
<path opacity="0.1" d="M353.123 260.817L371.547 288.585L339.41 289.608L335.961 263.512L353.123 260.817Z" fill="black"/>
<path d="M262.267 318.35C259.903 311.083 254.468 306.491 250.129 308.095C245.789 309.7 244.189 316.891 246.554 324.161C247.462 327.079 249.012 329.722 251.075 331.871L261.456 362.53L274.851 357.031L263.196 327.391C263.568 324.342 263.25 321.242 262.267 318.35Z" fill="#A0616A"/>
<path d="M386.975 304.202L386.95 332.501L384.479 342.953L379.398 364.453L375.698 384.226L372.943 398.958L371.96 404.219C371.218 404.748 370.481 405.253 369.744 405.739H305.557C301.911 403.406 299.87 401.591 299.87 401.591C299.87 401.591 300.879 400.581 302.034 398.958C303.982 396.217 306.338 391.728 304.895 387.439C304.592 386.541 304.513 385.447 304.605 384.226C305.193 376.173 313.118 362.554 313.118 362.554L311.477 342.341L310.757 333.483L315.831 290.293L332.371 280.046L335.226 279.751L363.411 278.128L375.061 278.844L375.592 278.998L386.975 304.202Z" fill="#CCCCCC"/>
<path d="M388.227 405.739H374.185L373.566 398.958L373.553 398.822L377.528 398.532L387.872 397.779L388.051 401.839L388.192 404.954L388.227 405.739Z" fill="#FFB6B6"/>
<path d="M391.684 311.043L397.582 347.929L392.769 384.226L392.018 389.875L390.693 399.851L390.285 402.919L390.298 403.251L390.399 405.739H373.724L373.109 398.958L373.057 398.35L371.802 384.46L371.78 384.226L369.116 354.771L374.338 333.483L374.724 331.916V331.911L376.996 295.46L375.237 278.895L375.219 278.741C375.254 278.764 375.285 278.788 375.32 278.811C375.412 278.872 375.504 278.932 375.592 278.998C385.843 285.929 391.951 298.089 391.684 311.043Z" fill="#CCCCCC"/>
<path d="M321.805 297.361L315.393 290.292C315.393 290.292 301.666 296.887 300.981 300.547C300.297 304.206 276.06 357.948 276.06 357.948L265.516 327.933L251.79 337.7C251.79 337.7 262.803 384.299 273.103 386.487C283.403 388.675 317.924 331.332 317.924 331.332L321.805 297.361Z" fill="#CCCCCC"/>
<path d="M582.178 383.902H82.8161C75.7479 383.902 70 390.034 70 397.567C70 405.1 75.7479 411.226 82.8161 411.226H582.178C589.246 411.226 595 405.1 595 397.567C595 390.034 589.246 383.902 582.178 383.902Z" fill="#EFE9DE"/>
<path d="M384.053 342.262L383.082 390.547C382.988 395.221 379.406 398.958 375.019 398.958H291.678C287.395 398.958 283.859 395.39 283.625 390.832L281.148 342.547C280.895 337.623 284.574 333.483 289.201 333.483H375.99C380.512 333.483 384.15 337.444 384.053 342.262Z" fill="#3F3D56"/>
<path d="M249.511 263.118C260.523 263.118 269.451 253.604 269.451 241.867C269.451 230.131 260.523 220.616 249.511 220.616C238.499 220.616 229.571 230.131 229.571 241.867C229.571 253.604 238.499 263.118 249.511 263.118Z" fill="#FFB6B6"/>
<path d="M216.16 297.471L218.354 322.726L233.274 386.798L220.385 391.613L198.607 321.791L195.6 293.73L216.16 297.471Z" fill="#FFB6B6"/>
<path d="M210.226 342.262L209.255 390.547C209.161 395.221 205.579 398.958 201.192 398.958H117.85C113.567 398.958 110.031 395.39 109.798 390.832L107.321 342.547C107.068 337.623 110.747 333.483 115.374 333.483H202.163C206.684 333.483 210.323 337.444 210.226 342.262Z" fill="#3F3D56"/>
<path d="M235.651 399.284C244.348 399.284 251.398 395.961 251.398 391.861C251.398 387.761 244.348 384.438 235.651 384.438C226.954 384.438 219.903 387.761 219.903 391.861C219.903 395.961 226.954 399.284 235.651 399.284Z" fill="#FFB6B6"/>
<path d="M185.224 301.333L194.219 250.236C194.219 250.236 219.232 246.495 220.11 255.38C220.988 264.266 219.483 307.693 219.483 307.693L185.224 301.333Z" fill="#D8ECFF"/>
<path d="M241.462 245.209C241.462 245.209 253.797 240.517 259 237.992C264.203 235.468 274.539 253.075 274.769 243.776C274.999 234.477 271.427 230.578 271.427 230.578C271.427 230.578 270.535 210.235 251.305 212.778C251.305 212.778 255.535 202.6 241.65 201.027C227.766 199.453 206.164 235.187 208.099 240.527C210.034 245.868 212.353 250.283 206.864 255.993C201.376 261.703 191.098 293.928 198.918 302.6C206.737 311.271 207.25 315.034 201.893 320.429C196.535 325.824 183.872 337.555 197.564 339.591C211.256 341.627 196.311 340.106 206.519 330.537C216.727 320.968 231.623 321.358 226.061 306.005C220.499 290.652 230.162 268.65 228.953 265.313C227.744 261.975 231.662 240.781 231.662 240.781C231.662 240.781 240.78 239.353 241.462 245.209Z" fill="#2F2E41"/>
<path d="M343.273 270.868C355.261 270.868 364.979 260.51 364.979 247.734C364.979 234.958 355.261 224.601 343.273 224.601C331.285 224.601 321.567 234.958 321.567 247.734C321.567 260.51 331.285 270.868 343.273 270.868Z" fill="#A0616A"/>
<path d="M345.005 216.633C344.377 217.024 343.536 216.433 343.334 215.688C343.133 214.943 343.368 214.153 343.6 213.418L344.771 209.721C345.602 207.099 346.484 204.386 348.282 202.39C350.997 199.378 355.312 198.612 359.197 199.167C364.185 199.88 369.107 202.759 371.426 207.519C373.745 212.279 372.758 218.922 368.567 221.892C374.54 229.188 376.622 237.32 376.293 246.996C375.965 256.673 366.07 265.578 359.618 272.395C358.177 271.464 356.867 267.102 357.659 265.517C358.451 263.932 357.316 262.096 358.297 260.636C359.279 259.176 360.1 261.5 359.108 260.049C358.482 259.133 360.925 257.026 359.995 256.477C355.493 253.826 353.996 247.846 351.169 243.268C347.76 237.745 341.924 234.004 335.748 233.384C332.345 233.042 328.752 233.661 325.963 235.766C323.175 237.871 321.37 241.633 322.016 245.209C320.341 243.397 319.508 240.741 319.822 238.219C320.137 235.698 321.592 233.366 323.653 232.083C322.4 227.667 323.473 222.587 326.382 219.17C329.29 215.752 341.088 216.334 345.334 217.234L345.005 216.633Z" fill="#2F2E41"/>
<path d="M345.664 233.518C351.288 234.165 355.348 239.357 358.777 244.151C360.753 246.914 362.823 249.966 362.773 253.44C362.723 256.953 360.52 259.965 359.466 263.294C357.745 268.735 359.423 275.208 363.52 278.936C359.472 279.755 355.095 276.52 354.396 272.191C353.582 267.153 357.166 262.289 356.742 257.197C356.368 252.71 353.05 249.257 350.229 245.902C347.409 242.547 344.76 238.095 346.058 233.808L345.664 233.518Z" fill="#2F2E41"/>
<path d="M429.736 386.826C424.165 390.202 421.285 396.003 423.302 399.78C425.319 403.558 431.468 403.882 437.04 400.504C439.283 399.187 441.198 397.316 442.623 395.049L466.055 380.425L459.381 368.852L436.99 384.498C434.432 384.645 431.945 385.443 429.736 386.826Z" fill="#FFB6B6"/>
<path d="M509.07 279.585C508.37 279.289 502.226 276.809 496.617 280.083C490.174 283.844 489.178 292.429 488.829 295.441C488.023 302.396 490.398 303.956 490.9 310.997C491.838 324.172 494.312 309.142 490.361 315.156C488.994 317.238 475.027 349.495 467.325 355.814C452.345 368.102 442.832 376.757 442.832 376.757L453.692 389.329C453.692 389.329 470.853 384.456 486.02 373.96C501.579 363.193 509.358 357.809 515.377 347.278C515.895 346.371 528.296 323.926 521.636 299.108C520.117 293.447 517.334 283.075 509.07 279.585Z" fill="#004385"/>
<path d="M565.148 342.262L564.177 390.547C564.083 395.221 560.501 398.958 556.114 398.958H472.772C468.489 398.958 464.953 395.39 464.72 390.832L462.243 342.547C461.99 337.623 465.668 333.483 470.295 333.483H557.085C561.606 333.483 565.244 337.444 565.148 342.262Z" fill="#3F3D56"/>
</g>
</g>
<rect x="0.5" y="0.5" width="599" height="421" rx="7.5" stroke="#E2E2E2"/>
<defs>
<filter id="filter0_f_1587_14403" x="-35" y="85" width="481" height="248" filterUnits="userSpaceOnUse" color-interpolation-filters="sRGB">
<feFlood flood-opacity="0" result="BackgroundImageFix"/>
<feBlend mode="normal" in="SourceGraphic" in2="BackgroundImageFix" result="shape"/>
<feGaussianBlur stdDeviation="1.5" result="effect1_foregroundBlur_1587_14403"/>
</filter>
<clipPath id="clip0_1587_14403">
<rect width="600" height="422" rx="8" fill="white"/>
</clipPath>
<clipPath id="clip1_1587_14403">
<rect width="475" height="242" fill="white" transform="translate(-32 88)"/>
</clipPath>
<clipPath id="clip2_1587_14403">
<rect width="525" height="286" fill="white" transform="translate(70 199)"/>
</clipPath>
</defs>
</svg>
